{
    "header": {
      "name": "",
      "ppq": 1024,
      "meta": [
        {
          "type": "keySignature",
          "ticks": 0
        }
      ],
      "tempos": [
        {
          "ticks": 0,
          "bpm": 96
        }
      ],
      "timeSignatures": [
        {
          "ticks": 0,
          "timeSignature": [
            3,
            4
          ],
          "measures": 0
        },
        {
          "ticks": 589824,
          "timeSignature": [
            9,
            8
          ],
          "measures": 192
        },
        {
          "ticks": 737280,
          "timeSignature": [
            12,
            8
          ],
          "measures": 200
        },
        {
          "ticks": 786432,
          "timeSignature": [
            3,
            4
          ],
          "measures": 202
        }
      ]
    },
    "tracks": [
      {
        "name": "Instrument14",
        "channel": 0,
        "instrument": {
          "number": 40,
          "name": "violin",
          "family": "strings"
        },
        "notes": [
          {
            "time": 0,
            "midi": 74,
            "name": "D5",
            "velocity": 0.5039370078740157,
            "duration": 0.625,
            "ticks": 0,
            "durationTicks": 1024
          },
          {
            "time": 0.625,
            "midi": 74,
            "name": "D5",
            "velocity": 0.5039370078740157,
            "duration": 0.9375,
            "ticks": 1024,
            "durationTicks": 1536
          },
          {
            "time": 1.5625,
            "midi": 74,
            "name": "D5",
            "velocity": 0.5039370078740157,
            "duration": 0.3125,
            "ticks": 2560,
            "durationTicks": 512
          },
          {
            "time": 1.875,
            "midi": 73,
            "name": "C#5",
            "velocity": 0.5039370078740157,
            "duration": 0.625,
            "ticks": 3072,
            "durationTicks": 1024
          },
          {
            "time": 2.5,
            "midi": 73,
            "name": "C#5",
            "velocity": 0.5039370078740157,
            "duration": 0.9375,
            "ticks": 4096,
            "durationTicks": 1536
          },
          {
            "time": 3.4375,
            "midi": 73,
            "name": "C#5",
            "velocity": 0.5039370078740157,
            "duration": 0.3125,
            "ticks": 5632,
            "durationTicks": 512
          },
          {
            "time": 3.75,
            "midi": 74,
            "name": "D5",
            "velocity": 0.5039370078740157,
            "duration": 0.625,
            "ticks": 6144,
            "durationTicks": 1024
          },
          {
            "time": 4.375,
            "midi": 74,
            "name": "D5",
            "velocity": 0.5039370078740157,
            "duration": 0.9375,
            "ticks": 7168,
            "durationTicks": 1536
          },
          {
            "time": 5.3125,
            "midi": 74,
            "name": "D5",
            "velocity": 0.5039370078740157,
            "duration": 0.3125,
            "ticks": 8704,
            "durationTicks": 512
          },
          {
            "time": 5.625,
            "midi": 76,
            "name": "E5",
            "velocity": 0.5039370078740157,
            "duration": 0.625,
            "ticks": 9216,
            "durationTicks": 1024
          },
          {
            "time": 6.25,
            "midi": 76,
            "name": "E5",
            "velocity": 0.5039370078740157,
            "duration": 0.9375,
            "ticks": 10240,
            "durationTicks": 1536
          },
          {
            "time": 7.1875,
            "midi": 76,
            "name": "E5",
            "velocity": 0.5039370078740157,
            "duration": 0.3125,
            "ticks": 11776,
            "durationTicks": 512
          },
          {
            "time": 7.5,
            "midi": 77,
            "name": "F5",
            "velocity": 0.5039370078740157,
            "duration": 0.625,
            "ticks": 12288,
            "durationTicks": 1024
          },
          {
            "time": 8.125,
            "midi": 77,
            "name": "F5",
            "velocity": 0.5039370078740157,
            "duration": 0.9375,
            "ticks": 13312,
            "durationTicks": 1536
          },
          {
            "time": 9.0625,
            "midi": 77,
            "name": "F5",
            "velocity": 0.5039370078740157,
            "duration": 0.3125,
            "ticks": 14848,
            "durationTicks": 512
          },
          {
            "time": 9.375,
            "midi": 76,
            "name": "E5",
            "velocity": 0.5039370078740157,
            "duration": 0.625,
            "ticks": 15360,
            "durationTicks": 1024
          },
          {
            "time": 10,
            "midi": 76,
            "name": "E5",
            "velocity": 0.5039370078740157,
            "duration": 0.9375,
            "ticks": 16384,
            "durationTicks": 1536
          },
          {
            "time": 10.9375,
            "midi": 76,
            "name": "E5",
            "velocity": 0.5039370078740157,
            "duration": 0.3125,
            "ticks": 17920,
            "durationTicks": 512
          },
          {
            "time": 11.25,
            "midi": 74,
            "name": "D5",
            "velocity": 0.5039370078740157,
            "duration": 0.625,
            "ticks": 18432,
            "durationTicks": 1024
          },
          {
            "time": 11.875,
            "midi": 74,
            "name": "D5",
            "velocity": 0.5039370078740157,
            "duration": 0.9375,
            "ticks": 19456,
            "durationTicks": 1536
          },
          {
            "time": 12.8125,
            "midi": 74,
            "name": "D5",
            "velocity": 0.5039370078740157,
            "duration": 0.3125,
            "ticks": 20992,
            "durationTicks": 512
          },
          {
            "time": 13.125,
            "midi": 73,
            "name": "C#5",
            "velocity": 0.5039370078740157,
            "duration": 1.875,
            "ticks": 21504,
            "durationTicks": 3072
          },
          {
            "time": 15,
            "midi": 74,
            "name": "D5",
            "velocity": 0.3858267716535433,
            "duration": 0.625,
            "ticks": 24576,
            "durationTicks": 1024
          },
          {
            "time": 15.625,
            "midi": 74,
            "name": "D5",
            "velocity": 0.3858267716535433,
            "duration": 0.9375,
            "ticks": 25600,
            "durationTicks": 1536
          },
          {
            "time": 16.5625,
            "midi": 74,
            "name": "D5",
            "velocity": 0.3858267716535433,
            "duration": 0.3125,
            "ticks": 27136,
            "durationTicks": 512
          },
          {
            "time": 16.875,
            "midi": 73,
            "name": "C#5",
            "velocity": 0.3858267716535433,
            "duration": 0.625,
            "ticks": 27648,
            "durationTicks": 1024
          },
          {
            "time": 17.5,
            "midi": 73,
            "name": "C#5",
            "velocity": 0.3858267716535433,
            "duration": 0.9375,
            "ticks": 28672,
            "durationTicks": 1536
          },
          {
            "time": 18.4375,
            "midi": 73,
            "name": "C#5",
            "velocity": 0.3858267716535433,
            "duration": 0.3125,
            "ticks": 30208,
            "durationTicks": 512
          },
          {
            "time": 18.75,
            "midi": 74,
            "name": "D5",
            "velocity": 0.3858267716535433,
            "duration": 0.625,
            "ticks": 30720,
            "durationTicks": 1024
          },
          {
            "time": 19.375,
            "midi": 74,
            "name": "D5",
            "velocity": 0.3858267716535433,
            "duration": 0.9375,
            "ticks": 31744,
            "durationTicks": 1536
          },
          {
            "time": 20.3125,
            "midi": 74,
            "name": "D5",
            "velocity": 0.3858267716535433,
            "duration": 0.3125,
            "ticks": 33280,
            "durationTicks": 512
          },
          {
            "time": 20.625,
            "midi": 76,
            "name": "E5",
            "velocity": 0.3858267716535433,
            "duration": 0.625,
            "ticks": 33792,
            "durationTicks": 1024
          },
          {
            "time": 21.25,
            "midi": 76,
            "name": "E5",
            "velocity": 0.3858267716535433,
            "duration": 0.9375,
            "ticks": 34816,
            "durationTicks": 1536
          },
          {
            "time": 22.1875,
            "midi": 76,
            "name": "E5",
            "velocity": 0.3858267716535433,
            "duration": 0.3125,
            "ticks": 36352,
            "durationTicks": 512
          },
          {
            "time": 22.5,
            "midi": 77,
            "name": "F5",
            "velocity": 0.3858267716535433,
            "duration": 0.625,
            "ticks": 36864,
            "durationTicks": 1024
          },
          {
            "time": 23.125,
            "midi": 77,
            "name": "F5",
            "velocity": 0.3858267716535433,
            "duration": 0.9375,
            "ticks": 37888,
            "durationTicks": 1536
          },
          {
            "time": 24.0625,
            "midi": 77,
            "name": "F5",
            "velocity": 0.3858267716535433,
            "duration": 0.3125,
            "ticks": 39424,
            "durationTicks": 512
          },
          {
            "time": 24.375,
            "midi": 76,
            "name": "E5",
            "velocity": 0.3858267716535433,
            "duration": 0.625,
            "ticks": 39936,
            "durationTicks": 1024
          },
          {
            "time": 25,
            "midi": 76,
            "name": "E5",
            "velocity": 0.3858267716535433,
            "duration": 0.3125,
            "ticks": 40960,
            "durationTicks": 512
          },
          {
            "time": 25.3125,
            "midi": 77,
            "name": "F5",
            "velocity": 0.3858267716535433,
            "duration": 0.3125,
            "ticks": 41472,
            "durationTicks": 512
          },
          {
            "time": 25.625,
            "midi": 79,
            "name": "G5",
            "velocity": 0.3858267716535433,
            "duration": 0.625,
            "ticks": 41984,
            "durationTicks": 1024
          },
          {
            "time": 26.25,
            "midi": 77,
            "name": "F5",
            "velocity": 0.3858267716535433,
            "duration": 0.3125,
            "ticks": 43008,
            "durationTicks": 512
          },
          {
            "time": 26.5625,
            "midi": 76,
            "name": "E5",
            "velocity": 0.3858267716535433,
            "duration": 0.15625,
            "ticks": 43520,
            "durationTicks": 256
          },
          {
            "time": 26.71875,
            "midi": 74,
            "name": "D5",
            "velocity": 0.3858267716535433,
            "duration": 0.15625,
            "ticks": 43776,
            "durationTicks": 256
          },
          {
            "time": 26.875,
            "midi": 73,
            "name": "C#5",
            "velocity": 0.3858267716535433,
            "duration": 0.9375,
            "ticks": 44032,
            "durationTicks": 1536
          },
          {
            "time": 27.8125,
            "midi": 74,
            "name": "D5",
            "velocity": 0.3858267716535433,
            "duration": 0.3125,
            "ticks": 45568,
            "durationTicks": 512
          },
          {
            "time": 28.125,
            "midi": 74,
            "name": "D5",
            "velocity": 0.3858267716535433,
            "duration": 1.875,
            "ticks": 46080,
            "durationTicks": 3072
          },
          {
            "time": 30,
            "midi": 77,
            "name": "F5",
            "velocity": 0.3858267716535433,
            "duration": 0.625,
            "ticks": 49152,
            "durationTicks": 1024
          },
          {
            "time": 30.625,
            "midi": 77,
            "name": "F5",
            "velocity": 0.3858267716535433,
            "duration": 0.46875,
            "ticks": 50176,
            "durationTicks": 768
          },
          {
            "time": 31.09375,
            "midi": 79,
            "name": "G5",
            "velocity": 0.3858267716535433,
            "duration": 0.15625,
            "ticks": 50944,
            "durationTicks": 256
          },
          {
            "time": 31.25,
            "midi": 81,
            "name": "A5",
            "velocity": 0.3858267716535433,
            "duration": 0.46875,
            "ticks": 51200,
            "durationTicks": 768
          },
          {
            "time": 31.71875,
            "midi": 77,
            "name": "F5",
            "velocity": 0.3858267716535433,
            "duration": 0.15625,
            "ticks": 51968,
            "durationTicks": 256
          },
          {
            "time": 31.875,
            "midi": 76,
            "name": "E5",
            "velocity": 0.3858267716535433,
            "duration": 0.625,
            "ticks": 52224,
            "durationTicks": 1024
          },
          {
            "time": 32.5,
            "midi": 76,
            "name": "E5",
            "velocity": 0.3858267716535433,
            "duration": 0.9375,
            "ticks": 53248,
            "durationTicks": 1536
          },
          {
            "time": 33.4375,
            "midi": 76,
            "name": "E5",
            "velocity": 0.3858267716535433,
            "duration": 0.3125,
            "ticks": 54784,
            "durationTicks": 512
          },
          {
            "time": 33.75,
            "midi": 77,
            "name": "F5",
            "velocity": 0.3858267716535433,
            "duration": 0.625,
            "ticks": 55296,
            "durationTicks": 1024
          },
          {
            "time": 34.375,
            "midi": 77,
            "name": "F5",
            "velocity": 0.3858267716535433,
            "duration": 0.46875,
            "ticks": 56320,
            "durationTicks": 768
          },
          {
            "time": 34.84375,
            "midi": 79,
            "name": "G5",
            "velocity": 0.3858267716535433,
            "duration": 0.15625,
            "ticks": 57088,
            "durationTicks": 256
          },
          {
            "time": 35,
            "midi": 81,
            "name": "A5",
            "velocity": 0.3858267716535433,
            "duration": 0.46875,
            "ticks": 57344,
            "durationTicks": 768
          },
          {
            "time": 35.46875,
            "midi": 77,
            "name": "F5",
            "velocity": 0.3858267716535433,
            "duration": 0.15625,
            "ticks": 58112,
            "durationTicks": 256
          },
          {
            "time": 35.625,
            "midi": 79,
            "name": "G5",
            "velocity": 0.3858267716535433,
            "duration": 0.625,
            "ticks": 58368,
            "durationTicks": 1024
          },
          {
            "time": 36.25,
            "midi": 79,
            "name": "G5",
            "velocity": 0.3858267716535433,
            "duration": 0.9375,
            "ticks": 59392,
            "durationTicks": 1536
          },
          {
            "time": 37.1875,
            "midi": 79,
            "name": "G5",
            "velocity": 0.3858267716535433,
            "duration": 0.3125,
            "ticks": 60928,
            "durationTicks": 512
          },
          {
            "time": 37.5,
            "midi": 81,
            "name": "A5",
            "velocity": 0.3858267716535433,
            "duration": 0.625,
            "ticks": 61440,
            "durationTicks": 1024
          },
          {
            "time": 38.125,
            "midi": 81,
            "name": "A5",
            "velocity": 0.3858267716535433,
            "duration": 0.46875,
            "ticks": 62464,
            "durationTicks": 768
          },
          {
            "time": 38.59375,
            "midi": 82,
            "name": "A#5",
            "velocity": 0.3858267716535433,
            "duration": 0.15625,
            "ticks": 63232,
            "durationTicks": 256
          },
          {
            "time": 38.75,
            "midi": 84,
            "name": "C6",
            "velocity": 0.3858267716535433,
            "duration": 0.46875,
            "ticks": 63488,
            "durationTicks": 768
          },
          {
            "time": 39.21875,
            "midi": 81,
            "name": "A5",
            "velocity": 0.3858267716535433,
            "duration": 0.15625,
            "ticks": 64256,
            "durationTicks": 256
          },
          {
            "time": 39.375,
            "midi": 79,
            "name": "G5",
            "velocity": 0.3858267716535433,
            "duration": 0.625,
            "ticks": 64512,
            "durationTicks": 1024
          },
          {
            "time": 40,
            "midi": 79,
            "name": "G5",
            "velocity": 0.3858267716535433,
            "duration": 0.46875,
            "ticks": 65536,
            "durationTicks": 768
          },
          {
            "time": 40.46875,
            "midi": 81,
            "name": "A5",
            "velocity": 0.3858267716535433,
            "duration": 0.15625,
            "ticks": 66304,
            "durationTicks": 256
          },
          {
            "time": 40.625,
            "midi": 82,
            "name": "A#5",
            "velocity": 0.3858267716535433,
            "duration": 0.46875,
            "ticks": 66560,
            "durationTicks": 768
          },
          {
            "time": 41.09375,
            "midi": 79,
            "name": "G5",
            "velocity": 0.3858267716535433,
            "duration": 0.15625,
            "ticks": 67328,
            "durationTicks": 256
          },
          {
            "time": 41.25,
            "midi": 77,
            "name": "F5",
            "velocity": 0.3858267716535433,
            "duration": 0.625,
            "ticks": 67584,
            "durationTicks": 1024
          },
          {
            "time": 41.875,
            "midi": 77,
            "name": "F5",
            "velocity": 0.3858267716535433,
            "duration": 0.46875,
            "ticks": 68608,
            "durationTicks": 768
          },
          {
            "time": 42.34375,
            "midi": 79,
            "name": "G5",
            "velocity": 0.3858267716535433,
            "duration": 0.15625,
            "ticks": 69376,
            "durationTicks": 256
          },
          {
            "time": 42.5,
            "midi": 81,
            "name": "A5",
            "velocity": 0.3858267716535433,
            "duration": 0.46875,
            "ticks": 69632,
            "durationTicks": 768
          },
          {
            "time": 42.96875,
            "midi": 77,
            "name": "F5",
            "velocity": 0.3858267716535433,
            "duration": 0.15625,
            "ticks": 70400,
            "durationTicks": 256
          },
          {
            "time": 43.125,
            "midi": 76,
            "name": "E5",
            "velocity": 0.3858267716535433,
            "duration": 1.875,
            "ticks": 70656,
            "durationTicks": 3072
          },
          {
            "time": 45,
            "midi": 77,
            "name": "F5",
            "velocity": 0.3858267716535433,
            "duration": 0.625,
            "ticks": 73728,
            "durationTicks": 1024
          },
          {
            "time": 45.625,
            "midi": 77,
            "name": "F5",
            "velocity": 0.3858267716535433,
            "duration": 0.46875,
            "ticks": 74752,
            "durationTicks": 768
          },
          {
            "time": 46.09375,
            "midi": 79,
            "name": "G5",
            "velocity": 0.3858267716535433,
            "duration": 0.15625,
            "ticks": 75520,
            "durationTicks": 256
          },
          {
            "time": 46.25,
            "midi": 81,
            "name": "A5",
            "velocity": 0.3858267716535433,
            "duration": 0.46875,
            "ticks": 75776,
            "durationTicks": 768
          },
          {
            "time": 46.71875,
            "midi": 77,
            "name": "F5",
            "velocity": 0.3858267716535433,
            "duration": 0.15625,
            "ticks": 76544,
            "durationTicks": 256
          },
          {
            "time": 46.875,
            "midi": 76,
            "name": "E5",
            "velocity": 0.3858267716535433,
            "duration": 0.625,
            "ticks": 76800,
            "durationTicks": 1024
          },
          {
            "time": 47.5,
            "midi": 76,
            "name": "E5",
            "velocity": 0.3858267716535433,
            "duration": 0.9375,
            "ticks": 77824,
            "durationTicks": 1536
          },
          {
            "time": 48.4375,
            "midi": 76,
            "name": "E5",
            "velocity": 0.3858267716535433,
            "duration": 0.3125,
            "ticks": 79360,
            "durationTicks": 512
          },
          {
            "time": 48.75,
            "midi": 77,
            "name": "F5",
            "velocity": 0.3858267716535433,
            "duration": 0.625,
            "ticks": 79872,
            "durationTicks": 1024
          },
          {
            "time": 49.375,
            "midi": 77,
            "name": "F5",
            "velocity": 0.3858267716535433,
            "duration": 0.46875,
            "ticks": 80896,
            "durationTicks": 768
          },
          {
            "time": 49.84375,
            "midi": 79,
            "name": "G5",
            "velocity": 0.3858267716535433,
            "duration": 0.15625,
            "ticks": 81664,
            "durationTicks": 256
          },
          {
            "time": 50,
            "midi": 81,
            "name": "A5",
            "velocity": 0.3858267716535433,
            "duration": 0.46875,
            "ticks": 81920,
            "durationTicks": 768
          },
          {
            "time": 50.46875,
            "midi": 77,
            "name": "F5",
            "velocity": 0.3858267716535433,
            "duration": 0.15625,
            "ticks": 82688,
            "durationTicks": 256
          },
          {
            "time": 50.625,
            "midi": 79,
            "name": "G5",
            "velocity": 0.3858267716535433,
            "duration": 0.625,
            "ticks": 82944,
            "durationTicks": 1024
          },
          {
            "time": 51.25,
            "midi": 79,
            "name": "G5",
            "velocity": 0.3858267716535433,
            "duration": 0.9375,
            "ticks": 83968,
            "durationTicks": 1536
          },
          {
            "time": 52.1875,
            "midi": 79,
            "name": "G5",
            "velocity": 0.3858267716535433,
            "duration": 0.3125,
            "ticks": 85504,
            "durationTicks": 512
          },
          {
            "time": 52.5,
            "midi": 81,
            "name": "A5",
            "velocity": 0.3858267716535433,
            "duration": 0.625,
            "ticks": 86016,
            "durationTicks": 1024
          },
          {
            "time": 53.125,
            "midi": 81,
            "name": "A5",
            "velocity": 0.3858267716535433,
            "duration": 0.46875,
            "ticks": 87040,
            "durationTicks": 768
          },
          {
            "time": 53.59375,
            "midi": 82,
            "name": "A#5",
            "velocity": 0.3858267716535433,
            "duration": 0.15625,
            "ticks": 87808,
            "durationTicks": 256
          },
          {
            "time": 53.75,
            "midi": 84,
            "name": "C6",
            "velocity": 0.3858267716535433,
            "duration": 0.46875,
            "ticks": 88064,
            "durationTicks": 768
          },
          {
            "time": 54.21875,
            "midi": 81,
            "name": "A5",
            "velocity": 0.3858267716535433,
            "duration": 0.15625,
            "ticks": 88832,
            "durationTicks": 256
          },
          {
            "time": 54.375,
            "midi": 79,
            "name": "G5",
            "velocity": 0.3858267716535433,
            "duration": 0.46875,
            "ticks": 89088,
            "durationTicks": 768
          },
          {
            "time": 54.84375,
            "midi": 81,
            "name": "A5",
            "velocity": 0.3858267716535433,
            "duration": 0.15625,
            "ticks": 89856,
            "durationTicks": 256
          },
          {
            "time": 55,
            "midi": 82,
            "name": "A#5",
            "velocity": 0.3858267716535433,
            "duration": 0.9375,
            "ticks": 90112,
            "durationTicks": 1536
          },
          {
            "time": 55.9375,
            "midi": 82,
            "name": "A#5",
            "velocity": 0.3858267716535433,
            "duration": 0.3125,
            "ticks": 91648,
            "durationTicks": 512
          },
          {
            "time": 56.25,
            "midi": 81,
            "name": "A5",
            "velocity": 0.3858267716535433,
            "duration": 0.3125,
            "ticks": 92160,
            "durationTicks": 512
          },
          {
            "time": 56.5625,
            "midi": 79,
            "name": "G5",
            "velocity": 0.3858267716535433,
            "duration": 0.15625,
            "ticks": 92672,
            "durationTicks": 256
          },
          {
            "time": 56.71875,
            "midi": 77,
            "name": "F5",
            "velocity": 0.3858267716535433,
            "duration": 0.15625,
            "ticks": 92928,
            "durationTicks": 256
          },
          {
            "time": 56.875,
            "midi": 76,
            "name": "E5",
            "velocity": 0.3858267716535433,
            "duration": 0.9375,
            "ticks": 93184,
            "durationTicks": 1536
          },
          {
            "time": 57.8125,
            "midi": 74,
            "name": "D5",
            "velocity": 0.3858267716535433,
            "duration": 0.3125,
            "ticks": 94720,
            "durationTicks": 512
          },
          {
            "time": 58.125,
            "midi": 74,
            "name": "D5",
            "velocity": 0.3858267716535433,
            "duration": 1.875,
            "ticks": 95232,
            "durationTicks": 3072
          },
          {
            "time": 60,
            "midi": 62,
            "name": "D4",
            "velocity": 0.3858267716535433,
            "duration": 0.625,
            "ticks": 98304,
            "durationTicks": 1024
          },
          {
            "time": 60.625,
            "midi": 77,
            "name": "F5",
            "velocity": 0.3858267716535433,
            "duration": 0.625,
            "ticks": 99328,
            "durationTicks": 1024
          },
          {
            "time": 61.875,
            "midi": 61,
            "name": "C#4",
            "velocity": 0.3858267716535433,
            "duration": 0.625,
            "ticks": 101376,
            "durationTicks": 1024
          },
          {
            "time": 62.5,
            "midi": 76,
            "name": "E5",
            "velocity": 0.3858267716535433,
            "duration": 0.625,
            "ticks": 102400,
            "durationTicks": 1024
          },
          {
            "time": 63.75,
            "midi": 65,
            "name": "F4",
            "velocity": 0.3858267716535433,
            "duration": 0.625,
            "ticks": 104448,
            "durationTicks": 1024
          },
          {
            "time": 64.375,
            "midi": 77,
            "name": "F5",
            "velocity": 0.3858267716535433,
            "duration": 0.625,
            "ticks": 105472,
            "durationTicks": 1024
          },
          {
            "time": 65.625,
            "midi": 64,
            "name": "E4",
            "velocity": 0.3858267716535433,
            "duration": 0.625,
            "ticks": 107520,
            "durationTicks": 1024
          },
          {
            "time": 66.25,
            "midi": 79,
            "name": "G5",
            "velocity": 0.3858267716535433,
            "duration": 0.625,
            "ticks": 108544,
            "durationTicks": 1024
          },
          {
            "time": 67.5,
            "midi": 69,
            "name": "A4",
            "velocity": 0.3858267716535433,
            "duration": 0.625,
            "ticks": 110592,
            "durationTicks": 1024
          },
          {
            "time": 68.125,
            "midi": 81,
            "name": "A5",
            "velocity": 0.3858267716535433,
            "duration": 0.625,
            "ticks": 111616,
            "durationTicks": 1024
          },
          {
            "time": 69.375,
            "midi": 64,
            "name": "E4",
            "velocity": 0.3858267716535433,
            "duration": 0.625,
            "ticks": 113664,
            "durationTicks": 1024
          },
          {
            "time": 70,
            "midi": 79,
            "name": "G5",
            "velocity": 0.3858267716535433,
            "duration": 0.625,
            "ticks": 114688,
            "durationTicks": 1024
          },
          {
            "time": 71.25,
            "midi": 65,
            "name": "F4",
            "velocity": 0.3858267716535433,
            "duration": 0.625,
            "ticks": 116736,
            "durationTicks": 1024
          },
          {
            "time": 71.875,
            "midi": 81,
            "name": "A5",
            "velocity": 0.3858267716535433,
            "duration": 0.625,
            "ticks": 117760,
            "durationTicks": 1024
          },
          {
            "time": 72.5,
            "midi": 82,
            "name": "A#5",
            "velocity": 0.3858267716535433,
            "duration": 0.625,
            "ticks": 118784,
            "durationTicks": 1024
          },
          {
            "time": 73.125,
            "midi": 76,
            "name": "E5",
            "velocity": 0.3858267716535433,
            "duration": 0.625,
            "ticks": 119808,
            "durationTicks": 1024
          },
          {
            "time": 73.75,
            "midi": 73,
            "name": "C#5",
            "velocity": 0.3858267716535433,
            "duration": 0.625,
            "ticks": 120832,
            "durationTicks": 1024
          },
          {
            "time": 74.375,
            "midi": 61,
            "name": "C#4",
            "velocity": 0.3858267716535433,
            "duration": 0.625,
            "ticks": 121856,
            "durationTicks": 1024
          },
          {
            "time": 75.625,
            "midi": 74,
            "name": "D5",
            "velocity": 0.3858267716535433,
            "duration": 0.625,
            "ticks": 123904,
            "durationTicks": 1024
          },
          {
            "time": 76.25,
            "midi": 62,
            "name": "D4",
            "velocity": 0.3858267716535433,
            "duration": 0.625,
            "ticks": 124928,
            "durationTicks": 1024
          },
          {
            "time": 77.5,
            "midi": 73,
            "name": "C#5",
            "velocity": 0.3858267716535433,
            "duration": 0.625,
            "ticks": 126976,
            "durationTicks": 1024
          },
          {
            "time": 78.125,
            "midi": 61,
            "name": "C#4",
            "velocity": 0.3858267716535433,
            "duration": 0.625,
            "ticks": 128000,
            "durationTicks": 1024
          },
          {
            "time": 79.375,
            "midi": 74,
            "name": "D5",
            "velocity": 0.3858267716535433,
            "duration": 0.625,
            "ticks": 130048,
            "durationTicks": 1024
          },
          {
            "time": 80,
            "midi": 62,
            "name": "D4",
            "velocity": 0.3858267716535433,
            "duration": 0.625,
            "ticks": 131072,
            "durationTicks": 1024
          },
          {
            "time": 81.25,
            "midi": 76,
            "name": "E5",
            "velocity": 0.3858267716535433,
            "duration": 0.625,
            "ticks": 133120,
            "durationTicks": 1024
          },
          {
            "time": 81.875,
            "midi": 64,
            "name": "E4",
            "velocity": 0.3858267716535433,
            "duration": 0.625,
            "ticks": 134144,
            "durationTicks": 1024
          },
          {
            "time": 83.125,
            "midi": 77,
            "name": "F5",
            "velocity": 0.3858267716535433,
            "duration": 0.625,
            "ticks": 136192,
            "durationTicks": 1024
          },
          {
            "time": 83.75,
            "midi": 65,
            "name": "F4",
            "velocity": 0.3858267716535433,
            "duration": 0.625,
            "ticks": 137216,
            "durationTicks": 1024
          },
          {
            "time": 85,
            "midi": 79,
            "name": "G5",
            "velocity": 0.3858267716535433,
            "duration": 0.625,
            "ticks": 139264,
            "durationTicks": 1024
          },
          {
            "time": 85.625,
            "midi": 77,
            "name": "F5",
            "velocity": 0.3858267716535433,
            "duration": 0.625,
            "ticks": 140288,
            "durationTicks": 1024
          },
          {
            "time": 86.25,
            "midi": 82,
            "name": "A#5",
            "velocity": 0.3858267716535433,
            "duration": 0.625,
            "ticks": 141312,
            "durationTicks": 1024
          },
          {
            "time": 86.875,
            "midi": 76,
            "name": "E5",
            "velocity": 0.3858267716535433,
            "duration": 0.9375,
            "ticks": 142336,
            "durationTicks": 1536
          },
          {
            "time": 87.8125,
            "midi": 74,
            "name": "D5",
            "velocity": 0.3858267716535433,
            "duration": 0.3125,
            "ticks": 143872,
            "durationTicks": 512
          },
          {
            "time": 88.125,
            "midi": 74,
            "name": "D5",
            "velocity": 0.3858267716535433,
            "duration": 1.875,
            "ticks": 144384,
            "durationTicks": 3072
          },
          {
            "time": 90.9375,
            "midi": 65,
            "name": "F4",
            "velocity": 0.3858267716535433,
            "duration": 0.3125,
            "ticks": 148992,
            "durationTicks": 512
          },
          {
            "time": 91.25,
            "midi": 69,
            "name": "A4",
            "velocity": 0.3858267716535433,
            "duration": 0.3125,
            "ticks": 149504,
            "durationTicks": 512
          },
          {
            "time": 91.5625,
            "midi": 74,
            "name": "D5",
            "velocity": 0.3858267716535433,
            "duration": 0.3125,
            "ticks": 150016,
            "durationTicks": 512
          },
          {
            "time": 91.875,
            "midi": 73,
            "name": "C#5",
            "velocity": 0.3858267716535433,
            "duration": 0.625,
            "ticks": 150528,
            "durationTicks": 1024
          },
          {
            "time": 92.8125,
            "midi": 64,
            "name": "E4",
            "velocity": 0.3858267716535433,
            "duration": 0.3125,
            "ticks": 152064,
            "durationTicks": 512
          },
          {
            "time": 93.125,
            "midi": 69,
            "name": "A4",
            "velocity": 0.3858267716535433,
            "duration": 0.3125,
            "ticks": 152576,
            "durationTicks": 512
          },
          {
            "time": 93.4375,
            "midi": 73,
            "name": "C#5",
            "velocity": 0.3858267716535433,
            "duration": 0.3125,
            "ticks": 153088,
            "durationTicks": 512
          },
          {
            "time": 93.75,
            "midi": 74,
            "name": "D5",
            "velocity": 0.3858267716535433,
            "duration": 0.625,
            "ticks": 153600,
            "durationTicks": 1024
          },
          {
            "time": 94.6875,
            "midi": 65,
            "name": "F4",
            "velocity": 0.3858267716535433,
            "duration": 0.3125,
            "ticks": 155136,
            "durationTicks": 512
          },
          {
            "time": 95,
            "midi": 69,
            "name": "A4",
            "velocity": 0.3858267716535433,
            "duration": 0.3125,
            "ticks": 155648,
            "durationTicks": 512
          },
          {
            "time": 95.3125,
            "midi": 74,
            "name": "D5",
            "velocity": 0.3858267716535433,
            "duration": 0.3125,
            "ticks": 156160,
            "durationTicks": 512
          },
          {
            "time": 95.625,
            "midi": 76,
            "name": "E5",
            "velocity": 0.3858267716535433,
            "duration": 0.625,
            "ticks": 156672,
            "durationTicks": 1024
          },
          {
            "time": 96.5625,
            "midi": 72,
            "name": "C5",
            "velocity": 0.3858267716535433,
            "duration": 0.3125,
            "ticks": 158208,
            "durationTicks": 512
          },
          {
            "time": 96.875,
            "midi": 76,
            "name": "E5",
            "velocity": 0.3858267716535433,
            "duration": 0.3125,
            "ticks": 158720,
            "durationTicks": 512
          },
          {
            "time": 97.1875,
            "midi": 79,
            "name": "G5",
            "velocity": 0.3858267716535433,
            "duration": 0.3125,
            "ticks": 159232,
            "durationTicks": 512
          },
          {
            "time": 97.5,
            "midi": 77,
            "name": "F5",
            "velocity": 0.3858267716535433,
            "duration": 0.625,
            "ticks": 159744,
            "durationTicks": 1024
          },
          {
            "time": 98.4375,
            "midi": 69,
            "name": "A4",
            "velocity": 0.3858267716535433,
            "duration": 0.3125,
            "ticks": 161280,
            "durationTicks": 512
          },
          {
            "time": 98.75,
            "midi": 72,
            "name": "C5",
            "velocity": 0.3858267716535433,
            "duration": 0.3125,
            "ticks": 161792,
            "durationTicks": 512
          },
          {
            "time": 99.0625,
            "midi": 77,
            "name": "F5",
            "velocity": 0.3858267716535433,
            "duration": 0.3125,
            "ticks": 162304,
            "durationTicks": 512
          },
          {
            "time": 99.375,
            "midi": 76,
            "name": "E5",
            "velocity": 0.3858267716535433,
            "duration": 0.625,
            "ticks": 162816,
            "durationTicks": 1024
          },
          {
            "time": 100.3125,
            "midi": 73,
            "name": "C#5",
            "velocity": 0.3858267716535433,
            "duration": 0.3125,
            "ticks": 164352,
            "durationTicks": 512
          },
          {
            "time": 100.625,
            "midi": 76,
            "name": "E5",
            "velocity": 0.3858267716535433,
            "duration": 0.3125,
            "ticks": 164864,
            "durationTicks": 512
          },
          {
            "time": 100.9375,
            "midi": 79,
            "name": "G5",
            "velocity": 0.3858267716535433,
            "duration": 0.3125,
            "ticks": 165376,
            "durationTicks": 512
          },
          {
            "time": 101.25,
            "midi": 77,
            "name": "F5",
            "velocity": 0.3858267716535433,
            "duration": 0.625,
            "ticks": 165888,
            "durationTicks": 1024
          },
          {
            "time": 102.1875,
            "midi": 74,
            "name": "D5",
            "velocity": 0.3858267716535433,
            "duration": 0.3125,
            "ticks": 167424,
            "durationTicks": 512
          },
          {
            "time": 102.5,
            "midi": 77,
            "name": "F5",
            "velocity": 0.3858267716535433,
            "duration": 0.3125,
            "ticks": 167936,
            "durationTicks": 512
          },
          {
            "time": 102.8125,
            "midi": 74,
            "name": "D5",
            "velocity": 0.3858267716535433,
            "duration": 0.3125,
            "ticks": 168448,
            "durationTicks": 512
          },
          {
            "time": 103.125,
            "midi": 73,
            "name": "C#5",
            "velocity": 0.3858267716535433,
            "duration": 0.625,
            "ticks": 168960,
            "durationTicks": 1024
          },
          {
            "time": 104.0625,
            "midi": 76,
            "name": "E5",
            "velocity": 0.3858267716535433,
            "duration": 0.3125,
            "ticks": 170496,
            "durationTicks": 512
          },
          {
            "time": 104.375,
            "midi": 69,
            "name": "A4",
            "velocity": 0.3858267716535433,
            "duration": 0.625,
            "ticks": 171008,
            "durationTicks": 1024
          },
          {
            "time": 105.3125,
            "midi": 69,
            "name": "A4",
            "velocity": 0.3858267716535433,
            "duration": 0.3125,
            "ticks": 172544,
            "durationTicks": 512
          },
          {
            "time": 105.625,
            "midi": 65,
            "name": "F4",
            "velocity": 0.3858267716535433,
            "duration": 0.3125,
            "ticks": 173056,
            "durationTicks": 512
          },
          {
            "time": 105.9375,
            "midi": 62,
            "name": "D4",
            "velocity": 0.3858267716535433,
            "duration": 0.3125,
            "ticks": 173568,
            "durationTicks": 512
          },
          {
            "time": 106.25,
            "midi": 77,
            "name": "F5",
            "velocity": 0.3858267716535433,
            "duration": 0.625,
            "ticks": 174080,
            "durationTicks": 1024
          },
          {
            "time": 107.1875,
            "midi": 69,
            "name": "A4",
            "velocity": 0.3858267716535433,
            "duration": 0.3125,
            "ticks": 175616,
            "durationTicks": 512
          },
          {
            "time": 107.5,
            "midi": 64,
            "name": "E4",
            "velocity": 0.3858267716535433,
            "duration": 0.3125,
            "ticks": 176128,
            "durationTicks": 512
          },
          {
            "time": 107.8125,
            "midi": 61,
            "name": "C#4",
            "velocity": 0.3858267716535433,
            "duration": 0.3125,
            "ticks": 176640,
            "durationTicks": 512
          },
          {
            "time": 108.125,
            "midi": 76,
            "name": "E5",
            "velocity": 0.3858267716535433,
            "duration": 0.625,
            "ticks": 177152,
            "durationTicks": 1024
          },
          {
            "time": 109.0625,
            "midi": 69,
            "name": "A4",
            "velocity": 0.3858267716535433,
            "duration": 0.3125,
            "ticks": 178688,
            "durationTicks": 512
          },
          {
            "time": 109.375,
            "midi": 65,
            "name": "F4",
            "velocity": 0.3858267716535433,
            "duration": 0.3125,
            "ticks": 179200,
            "durationTicks": 512
          },
          {
            "time": 109.6875,
            "midi": 62,
            "name": "D4",
            "velocity": 0.3858267716535433,
            "duration": 0.3125,
            "ticks": 179712,
            "durationTicks": 512
          },
          {
            "time": 110,
            "midi": 77,
            "name": "F5",
            "velocity": 0.3858267716535433,
            "duration": 0.625,
            "ticks": 180224,
            "durationTicks": 1024
          },
          {
            "time": 110.9375,
            "midi": 72,
            "name": "C5",
            "velocity": 0.3858267716535433,
            "duration": 0.3125,
            "ticks": 181760,
            "durationTicks": 512
          },
          {
            "time": 111.25,
            "midi": 67,
            "name": "G4",
            "velocity": 0.3858267716535433,
            "duration": 0.3125,
            "ticks": 182272,
            "durationTicks": 512
          },
          {
            "time": 111.5625,
            "midi": 64,
            "name": "E4",
            "velocity": 0.3858267716535433,
            "duration": 0.3125,
            "ticks": 182784,
            "durationTicks": 512
          },
          {
            "time": 111.875,
            "midi": 79,
            "name": "G5",
            "velocity": 0.3858267716535433,
            "duration": 0.625,
            "ticks": 183296,
            "durationTicks": 1024
          },
          {
            "time": 112.8125,
            "midi": 72,
            "name": "C5",
            "velocity": 0.3858267716535433,
            "duration": 0.3125,
            "ticks": 184832,
            "durationTicks": 512
          },
          {
            "time": 113.125,
            "midi": 69,
            "name": "A4",
            "velocity": 0.3858267716535433,
            "duration": 0.3125,
            "ticks": 185344,
            "durationTicks": 512
          },
          {
            "time": 113.4375,
            "midi": 65,
            "name": "F4",
            "velocity": 0.3858267716535433,
            "duration": 0.3125,
            "ticks": 185856,
            "durationTicks": 512
          },
          {
            "time": 113.75,
            "midi": 81,
            "name": "A5",
            "velocity": 0.3858267716535433,
            "duration": 0.625,
            "ticks": 186368,
            "durationTicks": 1024
          },
          {
            "time": 114.375,
            "midi": 79,
            "name": "G5",
            "velocity": 0.3858267716535433,
            "duration": 0.625,
            "ticks": 187392,
            "durationTicks": 1024
          },
          {
            "time": 115,
            "midi": 77,
            "name": "F5",
            "velocity": 0.3858267716535433,
            "duration": 0.625,
            "ticks": 188416,
            "durationTicks": 1024
          },
          {
            "time": 115.625,
            "midi": 76,
            "name": "E5",
            "velocity": 0.3858267716535433,
            "duration": 0.625,
            "ticks": 189440,
            "durationTicks": 1024
          },
          {
            "time": 116.25,
            "midi": 77,
            "name": "F5",
            "velocity": 0.3858267716535433,
            "duration": 0.3125,
            "ticks": 190464,
            "durationTicks": 512
          },
          {
            "time": 116.5625,
            "midi": 79,
            "name": "G5",
            "velocity": 0.3858267716535433,
            "duration": 0.3125,
            "ticks": 190976,
            "durationTicks": 512
          },
          {
            "time": 116.875,
            "midi": 76,
            "name": "E5",
            "velocity": 0.3858267716535433,
            "duration": 0.9375,
            "ticks": 191488,
            "durationTicks": 1536
          },
          {
            "time": 117.8125,
            "midi": 74,
            "name": "D5",
            "velocity": 0.3858267716535433,
            "duration": 0.3125,
            "ticks": 193024,
            "durationTicks": 512
          },
          {
            "time": 118.125,
            "midi": 74,
            "name": "D5",
            "velocity": 0.3858267716535433,
            "duration": 1.875,
            "ticks": 193536,
            "durationTicks": 3072
          },
          {
            "time": 122.03125,
            "midi": 81,
            "name": "A5",
            "velocity": 0.3858267716535433,
            "duration": 0.15625,
            "ticks": 199936,
            "durationTicks": 256
          },
          {
            "time": 122.1875,
            "midi": 79,
            "name": "G5",
            "velocity": 0.3858267716535433,
            "duration": 0.15625,
            "ticks": 200192,
            "durationTicks": 256
          },
          {
            "time": 122.34375,
            "midi": 77,
            "name": "F5",
            "velocity": 0.3858267716535433,
            "duration": 0.15625,
            "ticks": 200448,
            "durationTicks": 256
          },
          {
            "time": 122.5,
            "midi": 76,
            "name": "E5",
            "velocity": 0.3858267716535433,
            "duration": 0.15625,
            "ticks": 200704,
            "durationTicks": 256
          },
          {
            "time": 122.65625,
            "midi": 74,
            "name": "D5",
            "velocity": 0.3858267716535433,
            "duration": 0.15625,
            "ticks": 200960,
            "durationTicks": 256
          },
          {
            "time": 122.8125,
            "midi": 73,
            "name": "C#5",
            "velocity": 0.3858267716535433,
            "duration": 0.15625,
            "ticks": 201216,
            "durationTicks": 256
          },
          {
            "time": 122.96875,
            "midi": 71,
            "name": "B4",
            "velocity": 0.3858267716535433,
            "duration": 0.15625,
            "ticks": 201472,
            "durationTicks": 256
          },
          {
            "time": 123.125,
            "midi": 69,
            "name": "A4",
            "velocity": 0.3858267716535433,
            "duration": 0.3125,
            "ticks": 201728,
            "durationTicks": 512
          },
          {
            "time": 123.4375,
            "midi": 81,
            "name": "A5",
            "velocity": 0.3858267716535433,
            "duration": 0.3125,
            "ticks": 202240,
            "durationTicks": 512
          },
          {
            "time": 123.75,
            "midi": 77,
            "name": "F5",
            "velocity": 0.3858267716535433,
            "duration": 0.625,
            "ticks": 202752,
            "durationTicks": 1024
          },
          {
            "time": 125.78125,
            "midi": 84,
            "name": "C6",
            "velocity": 0.3858267716535433,
            "duration": 0.15625,
            "ticks": 206080,
            "durationTicks": 256
          },
          {
            "time": 125.9375,
            "midi": 82,
            "name": "A#5",
            "velocity": 0.3858267716535433,
            "duration": 0.15625,
            "ticks": 206336,
            "durationTicks": 256
          },
          {
            "time": 126.09375,
            "midi": 81,
            "name": "A5",
            "velocity": 0.3858267716535433,
            "duration": 0.15625,
            "ticks": 206592,
            "durationTicks": 256
          },
          {
            "time": 126.25,
            "midi": 79,
            "name": "G5",
            "velocity": 0.3858267716535433,
            "duration": 0.15625,
            "ticks": 206848,
            "durationTicks": 256
          },
          {
            "time": 126.40625,
            "midi": 77,
            "name": "F5",
            "velocity": 0.3858267716535433,
            "duration": 0.15625,
            "ticks": 207104,
            "durationTicks": 256
          },
          {
            "time": 126.5625,
            "midi": 76,
            "name": "E5",
            "velocity": 0.3858267716535433,
            "duration": 0.15625,
            "ticks": 207360,
            "durationTicks": 256
          },
          {
            "time": 126.71875,
            "midi": 74,
            "name": "D5",
            "velocity": 0.3858267716535433,
            "duration": 0.15625,
            "ticks": 207616,
            "durationTicks": 256
          },
          {
            "time": 126.875,
            "midi": 72,
            "name": "C5",
            "velocity": 0.3858267716535433,
            "duration": 0.3125,
            "ticks": 207872,
            "durationTicks": 512
          },
          {
            "time": 127.1875,
            "midi": 84,
            "name": "C6",
            "velocity": 0.3858267716535433,
            "duration": 0.3125,
            "ticks": 208384,
            "durationTicks": 512
          },
          {
            "time": 127.5,
            "midi": 81,
            "name": "A5",
            "velocity": 0.3858267716535433,
            "duration": 0.625,
            "ticks": 208896,
            "durationTicks": 1024
          },
          {
            "time": 129.53125,
            "midi": 81,
            "name": "A5",
            "velocity": 0.3858267716535433,
            "duration": 0.15625,
            "ticks": 212224,
            "durationTicks": 256
          },
          {
            "time": 129.6875,
            "midi": 79,
            "name": "G5",
            "velocity": 0.3858267716535433,
            "duration": 0.15625,
            "ticks": 212480,
            "durationTicks": 256
          },
          {
            "time": 129.84375,
            "midi": 77,
            "name": "F5",
            "velocity": 0.3858267716535433,
            "duration": 0.15625,
            "ticks": 212736,
            "durationTicks": 256
          },
          {
            "time": 130,
            "midi": 76,
            "name": "E5",
            "velocity": 0.3858267716535433,
            "duration": 0.15625,
            "ticks": 212992,
            "durationTicks": 256
          },
          {
            "time": 130.15625,
            "midi": 74,
            "name": "D5",
            "velocity": 0.3858267716535433,
            "duration": 0.15625,
            "ticks": 213248,
            "durationTicks": 256
          },
          {
            "time": 130.3125,
            "midi": 73,
            "name": "C#5",
            "velocity": 0.3858267716535433,
            "duration": 0.15625,
            "ticks": 213504,
            "durationTicks": 256
          },
          {
            "time": 130.46875,
            "midi": 71,
            "name": "B4",
            "velocity": 0.3858267716535433,
            "duration": 0.15625,
            "ticks": 213760,
            "durationTicks": 256
          },
          {
            "time": 130.625,
            "midi": 69,
            "name": "A4",
            "velocity": 0.3858267716535433,
            "duration": 0.3125,
            "ticks": 214016,
            "durationTicks": 512
          },
          {
            "time": 130.9375,
            "midi": 81,
            "name": "A5",
            "velocity": 0.3858267716535433,
            "duration": 0.3125,
            "ticks": 214528,
            "durationTicks": 512
          },
          {
            "time": 131.25,
            "midi": 77,
            "name": "F5",
            "velocity": 0.3858267716535433,
            "duration": 0.625,
            "ticks": 215040,
            "durationTicks": 1024
          },
          {
            "time": 133.125,
            "midi": 76,
            "name": "E5",
            "velocity": 0.3858267716535433,
            "duration": 0.625,
            "ticks": 218112,
            "durationTicks": 1024
          },
          {
            "time": 133.75,
            "midi": 79,
            "name": "G5",
            "velocity": 0.3858267716535433,
            "duration": 0.9375,
            "ticks": 219136,
            "durationTicks": 1536
          },
          {
            "time": 134.6875,
            "midi": 79,
            "name": "G5",
            "velocity": 0.3858267716535433,
            "duration": 0.3125,
            "ticks": 220672,
            "durationTicks": 512
          },
          {
            "time": 135,
            "midi": 77,
            "name": "F5",
            "velocity": 0.3858267716535433,
            "duration": 0.625,
            "ticks": 221184,
            "durationTicks": 1024
          },
          {
            "time": 137.03125,
            "midi": 81,
            "name": "A5",
            "velocity": 0.3858267716535433,
            "duration": 0.15625,
            "ticks": 224512,
            "durationTicks": 256
          },
          {
            "time": 137.1875,
            "midi": 79,
            "name": "G5",
            "velocity": 0.3858267716535433,
            "duration": 0.15625,
            "ticks": 224768,
            "durationTicks": 256
          },
          {
            "time": 137.34375,
            "midi": 77,
            "name": "F5",
            "velocity": 0.3858267716535433,
            "duration": 0.15625,
            "ticks": 225024,
            "durationTicks": 256
          },
          {
            "time": 137.5,
            "midi": 76,
            "name": "E5",
            "velocity": 0.3858267716535433,
            "duration": 0.15625,
            "ticks": 225280,
            "durationTicks": 256
          },
          {
            "time": 137.65625,
            "midi": 74,
            "name": "D5",
            "velocity": 0.3858267716535433,
            "duration": 0.15625,
            "ticks": 225536,
            "durationTicks": 256
          },
          {
            "time": 137.8125,
            "midi": 73,
            "name": "C#5",
            "velocity": 0.3858267716535433,
            "duration": 0.15625,
            "ticks": 225792,
            "durationTicks": 256
          },
          {
            "time": 137.96875,
            "midi": 71,
            "name": "B4",
            "velocity": 0.3858267716535433,
            "duration": 0.15625,
            "ticks": 226048,
            "durationTicks": 256
          },
          {
            "time": 138.125,
            "midi": 69,
            "name": "A4",
            "velocity": 0.3858267716535433,
            "duration": 0.3125,
            "ticks": 226304,
            "durationTicks": 512
          },
          {
            "time": 138.4375,
            "midi": 81,
            "name": "A5",
            "velocity": 0.3858267716535433,
            "duration": 0.3125,
            "ticks": 226816,
            "durationTicks": 512
          },
          {
            "time": 138.75,
            "midi": 77,
            "name": "F5",
            "velocity": 0.3858267716535433,
            "duration": 0.625,
            "ticks": 227328,
            "durationTicks": 1024
          },
          {
            "time": 140.78125,
            "midi": 84,
            "name": "C6",
            "velocity": 0.3858267716535433,
            "duration": 0.15625,
            "ticks": 230656,
            "durationTicks": 256
          },
          {
            "time": 140.9375,
            "midi": 82,
            "name": "A#5",
            "velocity": 0.3858267716535433,
            "duration": 0.15625,
            "ticks": 230912,
            "durationTicks": 256
          },
          {
            "time": 141.09375,
            "midi": 81,
            "name": "A5",
            "velocity": 0.3858267716535433,
            "duration": 0.15625,
            "ticks": 231168,
            "durationTicks": 256
          },
          {
            "time": 141.25,
            "midi": 79,
            "name": "G5",
            "velocity": 0.3858267716535433,
            "duration": 0.15625,
            "ticks": 231424,
            "durationTicks": 256
          },
          {
            "time": 141.40625,
            "midi": 77,
            "name": "F5",
            "velocity": 0.3858267716535433,
            "duration": 0.15625,
            "ticks": 231680,
            "durationTicks": 256
          },
          {
            "time": 141.5625,
            "midi": 76,
            "name": "E5",
            "velocity": 0.3858267716535433,
            "duration": 0.15625,
            "ticks": 231936,
            "durationTicks": 256
          },
          {
            "time": 141.71875,
            "midi": 74,
            "name": "D5",
            "velocity": 0.3858267716535433,
            "duration": 0.15625,
            "ticks": 232192,
            "durationTicks": 256
          },
          {
            "time": 141.875,
            "midi": 72,
            "name": "C5",
            "velocity": 0.3858267716535433,
            "duration": 0.3125,
            "ticks": 232448,
            "durationTicks": 512
          },
          {
            "time": 142.1875,
            "midi": 84,
            "name": "C6",
            "velocity": 0.3858267716535433,
            "duration": 0.3125,
            "ticks": 232960,
            "durationTicks": 512
          },
          {
            "time": 142.5,
            "midi": 81,
            "name": "A5",
            "velocity": 0.3858267716535433,
            "duration": 0.625,
            "ticks": 233472,
            "durationTicks": 1024
          },
          {
            "time": 144.53125,
            "midi": 81,
            "name": "A5",
            "velocity": 0.3858267716535433,
            "duration": 0.15625,
            "ticks": 236800,
            "durationTicks": 256
          },
          {
            "time": 144.6875,
            "midi": 79,
            "name": "G5",
            "velocity": 0.3858267716535433,
            "duration": 0.15625,
            "ticks": 237056,
            "durationTicks": 256
          },
          {
            "time": 144.84375,
            "midi": 77,
            "name": "F5",
            "velocity": 0.3858267716535433,
            "duration": 0.15625,
            "ticks": 237312,
            "durationTicks": 256
          },
          {
            "time": 145,
            "midi": 76,
            "name": "E5",
            "velocity": 0.3858267716535433,
            "duration": 0.15625,
            "ticks": 237568,
            "durationTicks": 256
          },
          {
            "time": 145.15625,
            "midi": 74,
            "name": "D5",
            "velocity": 0.3858267716535433,
            "duration": 0.15625,
            "ticks": 237824,
            "durationTicks": 256
          },
          {
            "time": 145.3125,
            "midi": 73,
            "name": "C#5",
            "velocity": 0.3858267716535433,
            "duration": 0.15625,
            "ticks": 238080,
            "durationTicks": 256
          },
          {
            "time": 145.46875,
            "midi": 71,
            "name": "B4",
            "velocity": 0.3858267716535433,
            "duration": 0.15625,
            "ticks": 238336,
            "durationTicks": 256
          },
          {
            "time": 145.625,
            "midi": 69,
            "name": "A4",
            "velocity": 0.3858267716535433,
            "duration": 0.3125,
            "ticks": 238592,
            "durationTicks": 512
          },
          {
            "time": 145.9375,
            "midi": 79,
            "name": "G5",
            "velocity": 0.3858267716535433,
            "duration": 0.3125,
            "ticks": 239104,
            "durationTicks": 512
          },
          {
            "time": 146.25,
            "midi": 77,
            "name": "F5",
            "velocity": 0.3858267716535433,
            "duration": 0.3125,
            "ticks": 239616,
            "durationTicks": 512
          },
          {
            "time": 146.5625,
            "midi": 76,
            "name": "E5",
            "velocity": 0.3858267716535433,
            "duration": 0.15625,
            "ticks": 240128,
            "durationTicks": 256
          },
          {
            "time": 146.71875,
            "midi": 74,
            "name": "D5",
            "velocity": 0.3858267716535433,
            "duration": 0.15625,
            "ticks": 240384,
            "durationTicks": 256
          },
          {
            "time": 146.875,
            "midi": 73,
            "name": "C#5",
            "velocity": 0.3858267716535433,
            "duration": 0.9375,
            "ticks": 240640,
            "durationTicks": 1536
          },
          {
            "time": 147.8125,
            "midi": 74,
            "name": "D5",
            "velocity": 0.3858267716535433,
            "duration": 0.3125,
            "ticks": 242176,
            "durationTicks": 512
          },
          {
            "time": 148.125,
            "midi": 74,
            "name": "D5",
            "velocity": 0.3858267716535433,
            "duration": 1.875,
            "ticks": 242688,
            "durationTicks": 3072
          },
          {
            "time": 151.875,
            "midi": 81,
            "name": "A5",
            "velocity": 0.3858267716535433,
            "duration": 0.3125,
            "ticks": 248832,
            "durationTicks": 512
          },
          {
            "time": 152.1875,
            "midi": 76,
            "name": "E5",
            "velocity": 0.3858267716535433,
            "duration": 0.3125,
            "ticks": 249344,
            "durationTicks": 512
          },
          {
            "time": 152.5,
            "midi": 73,
            "name": "C#5",
            "velocity": 0.3858267716535433,
            "duration": 0.3125,
            "ticks": 249856,
            "durationTicks": 512
          },
          {
            "time": 152.8125,
            "midi": 69,
            "name": "A4",
            "velocity": 0.3858267716535433,
            "duration": 0.3125,
            "ticks": 250368,
            "durationTicks": 512
          },
          {
            "time": 153.125,
            "midi": 76,
            "name": "E5",
            "velocity": 0.3858267716535433,
            "duration": 0.3125,
            "ticks": 250880,
            "durationTicks": 512
          },
          {
            "time": 153.4375,
            "midi": 79,
            "name": "G5",
            "velocity": 0.3858267716535433,
            "duration": 0.3125,
            "ticks": 251392,
            "durationTicks": 512
          },
          {
            "time": 153.75,
            "midi": 77,
            "name": "F5",
            "velocity": 0.3858267716535433,
            "duration": 0.625,
            "ticks": 251904,
            "durationTicks": 1024
          },
          {
            "time": 154.375,
            "midi": 77,
            "name": "F5",
            "velocity": 0.3858267716535433,
            "duration": 0.9375,
            "ticks": 252928,
            "durationTicks": 1536
          },
          {
            "time": 155.3125,
            "midi": 77,
            "name": "F5",
            "velocity": 0.3858267716535433,
            "duration": 0.3125,
            "ticks": 254464,
            "durationTicks": 512
          },
          {
            "time": 155.625,
            "midi": 79,
            "name": "G5",
            "velocity": 0.3858267716535433,
            "duration": 0.3125,
            "ticks": 254976,
            "durationTicks": 512
          },
          {
            "time": 155.9375,
            "midi": 76,
            "name": "E5",
            "velocity": 0.3858267716535433,
            "duration": 0.3125,
            "ticks": 255488,
            "durationTicks": 512
          },
          {
            "time": 156.25,
            "midi": 72,
            "name": "C5",
            "velocity": 0.3858267716535433,
            "duration": 0.3125,
            "ticks": 256000,
            "durationTicks": 512
          },
          {
            "time": 156.5625,
            "midi": 76,
            "name": "E5",
            "velocity": 0.3858267716535433,
            "duration": 0.3125,
            "ticks": 256512,
            "durationTicks": 512
          },
          {
            "time": 156.875,
            "midi": 79,
            "name": "G5",
            "velocity": 0.3858267716535433,
            "duration": 0.3125,
            "ticks": 257024,
            "durationTicks": 512
          },
          {
            "time": 157.1875,
            "midi": 82,
            "name": "A#5",
            "velocity": 0.3858267716535433,
            "duration": 0.3125,
            "ticks": 257536,
            "durationTicks": 512
          },
          {
            "time": 157.5,
            "midi": 81,
            "name": "A5",
            "velocity": 0.3858267716535433,
            "duration": 0.9375,
            "ticks": 258048,
            "durationTicks": 1536
          },
          {
            "time": 158.4375,
            "midi": 81,
            "name": "A5",
            "velocity": 0.3858267716535433,
            "duration": 0.3125,
            "ticks": 259584,
            "durationTicks": 512
          },
          {
            "time": 158.75,
            "midi": 72,
            "name": "C5",
            "velocity": 0.3858267716535433,
            "duration": 0.3125,
            "ticks": 260096,
            "durationTicks": 512
          },
          {
            "time": 159.0625,
            "midi": 81,
            "name": "A5",
            "velocity": 0.3858267716535433,
            "duration": 0.3125,
            "ticks": 260608,
            "durationTicks": 512
          },
          {
            "time": 159.375,
            "midi": 79,
            "name": "G5",
            "velocity": 0.3858267716535433,
            "duration": 0.9375,
            "ticks": 261120,
            "durationTicks": 1536
          },
          {
            "time": 160.3125,
            "midi": 79,
            "name": "G5",
            "velocity": 0.3858267716535433,
            "duration": 0.3125,
            "ticks": 262656,
            "durationTicks": 512
          },
          {
            "time": 160.625,
            "midi": 73,
            "name": "C#5",
            "velocity": 0.3858267716535433,
            "duration": 0.3125,
            "ticks": 263168,
            "durationTicks": 512
          },
          {
            "time": 160.9375,
            "midi": 79,
            "name": "G5",
            "velocity": 0.3858267716535433,
            "duration": 0.3125,
            "ticks": 263680,
            "durationTicks": 512
          },
          {
            "time": 161.25,
            "midi": 77,
            "name": "F5",
            "velocity": 0.3858267716535433,
            "duration": 0.3125,
            "ticks": 264192,
            "durationTicks": 512
          },
          {
            "time": 161.5625,
            "midi": 74,
            "name": "D5",
            "velocity": 0.3858267716535433,
            "duration": 0.3125,
            "ticks": 264704,
            "durationTicks": 512
          },
          {
            "time": 161.875,
            "midi": 81,
            "name": "A5",
            "velocity": 0.3858267716535433,
            "duration": 0.9375,
            "ticks": 265216,
            "durationTicks": 1536
          },
          {
            "time": 162.8125,
            "midi": 82,
            "name": "A#5",
            "velocity": 0.3858267716535433,
            "duration": 0.3125,
            "ticks": 266752,
            "durationTicks": 512
          },
          {
            "time": 163.125,
            "midi": 73,
            "name": "C#5",
            "velocity": 0.3858267716535433,
            "duration": 0.3125,
            "ticks": 267264,
            "durationTicks": 512
          },
          {
            "time": 163.4375,
            "midi": 81,
            "name": "A5",
            "velocity": 0.3858267716535433,
            "duration": 0.3125,
            "ticks": 267776,
            "durationTicks": 512
          },
          {
            "time": 163.75,
            "midi": 81,
            "name": "A5",
            "velocity": 0.3858267716535433,
            "duration": 0.3125,
            "ticks": 268288,
            "durationTicks": 512
          },
          {
            "time": 164.0625,
            "midi": 79,
            "name": "G5",
            "velocity": 0.3858267716535433,
            "duration": 0.3125,
            "ticks": 268800,
            "durationTicks": 512
          },
          {
            "time": 164.375,
            "midi": 79,
            "name": "G5",
            "velocity": 0.3858267716535433,
            "duration": 0.3125,
            "ticks": 269312,
            "durationTicks": 512
          },
          {
            "time": 164.6875,
            "midi": 77,
            "name": "F5",
            "velocity": 0.3858267716535433,
            "duration": 0.3125,
            "ticks": 269824,
            "durationTicks": 512
          },
          {
            "time": 165,
            "midi": 77,
            "name": "F5",
            "velocity": 0.3858267716535433,
            "duration": 0.625,
            "ticks": 270336,
            "durationTicks": 1024
          },
          {
            "time": 166.875,
            "midi": 81,
            "name": "A5",
            "velocity": 0.3858267716535433,
            "duration": 0.3125,
            "ticks": 273408,
            "durationTicks": 512
          },
          {
            "time": 167.1875,
            "midi": 76,
            "name": "E5",
            "velocity": 0.3858267716535433,
            "duration": 0.3125,
            "ticks": 273920,
            "durationTicks": 512
          },
          {
            "time": 167.5,
            "midi": 73,
            "name": "C#5",
            "velocity": 0.3858267716535433,
            "duration": 0.3125,
            "ticks": 274432,
            "durationTicks": 512
          },
          {
            "time": 167.8125,
            "midi": 69,
            "name": "A4",
            "velocity": 0.3858267716535433,
            "duration": 0.3125,
            "ticks": 274944,
            "durationTicks": 512
          },
          {
            "time": 168.125,
            "midi": 76,
            "name": "E5",
            "velocity": 0.3858267716535433,
            "duration": 0.3125,
            "ticks": 275456,
            "durationTicks": 512
          },
          {
            "time": 168.4375,
            "midi": 79,
            "name": "G5",
            "velocity": 0.3858267716535433,
            "duration": 0.3125,
            "ticks": 275968,
            "durationTicks": 512
          },
          {
            "time": 168.75,
            "midi": 77,
            "name": "F5",
            "velocity": 0.3858267716535433,
            "duration": 0.625,
            "ticks": 276480,
            "durationTicks": 1024
          },
          {
            "time": 169.375,
            "midi": 77,
            "name": "F5",
            "velocity": 0.3858267716535433,
            "duration": 0.9375,
            "ticks": 277504,
            "durationTicks": 1536
          },
          {
            "time": 170.3125,
            "midi": 77,
            "name": "F5",
            "velocity": 0.3858267716535433,
            "duration": 0.3125,
            "ticks": 279040,
            "durationTicks": 512
          },
          {
            "time": 170.625,
            "midi": 79,
            "name": "G5",
            "velocity": 0.3858267716535433,
            "duration": 0.3125,
            "ticks": 279552,
            "durationTicks": 512
          },
          {
            "time": 170.9375,
            "midi": 76,
            "name": "E5",
            "velocity": 0.3858267716535433,
            "duration": 0.3125,
            "ticks": 280064,
            "durationTicks": 512
          },
          {
            "time": 171.25,
            "midi": 72,
            "name": "C5",
            "velocity": 0.3858267716535433,
            "duration": 0.3125,
            "ticks": 280576,
            "durationTicks": 512
          },
          {
            "time": 171.5625,
            "midi": 76,
            "name": "E5",
            "velocity": 0.3858267716535433,
            "duration": 0.3125,
            "ticks": 281088,
            "durationTicks": 512
          },
          {
            "time": 171.875,
            "midi": 79,
            "name": "G5",
            "velocity": 0.3858267716535433,
            "duration": 0.3125,
            "ticks": 281600,
            "durationTicks": 512
          },
          {
            "time": 172.1875,
            "midi": 82,
            "name": "A#5",
            "velocity": 0.3858267716535433,
            "duration": 0.3125,
            "ticks": 282112,
            "durationTicks": 512
          },
          {
            "time": 172.5,
            "midi": 81,
            "name": "A5",
            "velocity": 0.3858267716535433,
            "duration": 0.9375,
            "ticks": 282624,
            "durationTicks": 1536
          },
          {
            "time": 173.4375,
            "midi": 81,
            "name": "A5",
            "velocity": 0.3858267716535433,
            "duration": 0.3125,
            "ticks": 284160,
            "durationTicks": 512
          },
          {
            "time": 173.75,
            "midi": 72,
            "name": "C5",
            "velocity": 0.3858267716535433,
            "duration": 0.3125,
            "ticks": 284672,
            "durationTicks": 512
          },
          {
            "time": 174.0625,
            "midi": 81,
            "name": "A5",
            "velocity": 0.3858267716535433,
            "duration": 0.3125,
            "ticks": 285184,
            "durationTicks": 512
          },
          {
            "time": 174.375,
            "midi": 79,
            "name": "G5",
            "velocity": 0.3858267716535433,
            "duration": 0.9375,
            "ticks": 285696,
            "durationTicks": 1536
          },
          {
            "time": 175.3125,
            "midi": 79,
            "name": "G5",
            "velocity": 0.3858267716535433,
            "duration": 0.3125,
            "ticks": 287232,
            "durationTicks": 512
          },
          {
            "time": 175.625,
            "midi": 73,
            "name": "C#5",
            "velocity": 0.3858267716535433,
            "duration": 0.3125,
            "ticks": 287744,
            "durationTicks": 512
          },
          {
            "time": 175.9375,
            "midi": 79,
            "name": "G5",
            "velocity": 0.3858267716535433,
            "duration": 0.3125,
            "ticks": 288256,
            "durationTicks": 512
          },
          {
            "time": 176.25,
            "midi": 77,
            "name": "F5",
            "velocity": 0.3858267716535433,
            "duration": 0.3125,
            "ticks": 288768,
            "durationTicks": 512
          },
          {
            "time": 176.5625,
            "midi": 73,
            "name": "C#5",
            "velocity": 0.3858267716535433,
            "duration": 0.3125,
            "ticks": 289280,
            "durationTicks": 512
          },
          {
            "time": 176.875,
            "midi": 74,
            "name": "D5",
            "velocity": 0.3858267716535433,
            "duration": 0.3125,
            "ticks": 289792,
            "durationTicks": 512
          },
          {
            "time": 177.1875,
            "midi": 65,
            "name": "F4",
            "velocity": 0.3858267716535433,
            "duration": 0.3125,
            "ticks": 290304,
            "durationTicks": 512
          },
          {
            "time": 177.5,
            "midi": 57,
            "name": "A3",
            "velocity": 0.3858267716535433,
            "duration": 0.3125,
            "ticks": 290816,
            "durationTicks": 512
          },
          {
            "time": 177.8125,
            "midi": 73,
            "name": "C#5",
            "velocity": 0.3858267716535433,
            "duration": 0.3125,
            "ticks": 291328,
            "durationTicks": 512
          },
          {
            "time": 178.125,
            "midi": 74,
            "name": "D5",
            "velocity": 0.3858267716535433,
            "duration": 1.875,
            "ticks": 291840,
            "durationTicks": 3072
          },
          {
            "time": 180.78125,
            "midi": 77,
            "name": "F5",
            "velocity": 0.3858267716535433,
            "duration": 0.15625,
            "ticks": 296192,
            "durationTicks": 256
          },
          {
            "time": 180.9375,
            "midi": 81,
            "name": "A5",
            "velocity": 0.3858267716535433,
            "duration": 0.15625,
            "ticks": 296448,
            "durationTicks": 256
          },
          {
            "time": 181.09375,
            "midi": 77,
            "name": "F5",
            "velocity": 0.3858267716535433,
            "duration": 0.15625,
            "ticks": 296704,
            "durationTicks": 256
          },
          {
            "time": 181.25,
            "midi": 74,
            "name": "D5",
            "velocity": 0.3858267716535433,
            "duration": 0.15625,
            "ticks": 296960,
            "durationTicks": 256
          },
          {
            "time": 181.40625,
            "midi": 69,
            "name": "A4",
            "velocity": 0.3858267716535433,
            "duration": 0.15625,
            "ticks": 297216,
            "durationTicks": 256
          },
          {
            "time": 181.5625,
            "midi": 81,
            "name": "A5",
            "velocity": 0.3858267716535433,
            "duration": 0.15625,
            "ticks": 297472,
            "durationTicks": 256
          },
          {
            "time": 181.71875,
            "midi": 77,
            "name": "F5",
            "velocity": 0.3858267716535433,
            "duration": 0.15625,
            "ticks": 297728,
            "durationTicks": 256
          },
          {
            "time": 181.875,
            "midi": 76,
            "name": "E5",
            "velocity": 0.3858267716535433,
            "duration": 0.625,
            "ticks": 297984,
            "durationTicks": 1024
          },
          {
            "time": 182.65625,
            "midi": 76,
            "name": "E5",
            "velocity": 0.3858267716535433,
            "duration": 0.15625,
            "ticks": 299264,
            "durationTicks": 256
          },
          {
            "time": 182.8125,
            "midi": 81,
            "name": "A5",
            "velocity": 0.3858267716535433,
            "duration": 0.15625,
            "ticks": 299520,
            "durationTicks": 256
          },
          {
            "time": 182.96875,
            "midi": 76,
            "name": "E5",
            "velocity": 0.3858267716535433,
            "duration": 0.15625,
            "ticks": 299776,
            "durationTicks": 256
          },
          {
            "time": 183.125,
            "midi": 73,
            "name": "C#5",
            "velocity": 0.3858267716535433,
            "duration": 0.15625,
            "ticks": 300032,
            "durationTicks": 256
          },
          {
            "time": 183.28125,
            "midi": 69,
            "name": "A4",
            "velocity": 0.3858267716535433,
            "duration": 0.15625,
            "ticks": 300288,
            "durationTicks": 256
          },
          {
            "time": 183.4375,
            "midi": 79,
            "name": "G5",
            "velocity": 0.3858267716535433,
            "duration": 0.15625,
            "ticks": 300544,
            "durationTicks": 256
          },
          {
            "time": 183.59375,
            "midi": 76,
            "name": "E5",
            "velocity": 0.3858267716535433,
            "duration": 0.15625,
            "ticks": 300800,
            "durationTicks": 256
          },
          {
            "time": 183.75,
            "midi": 77,
            "name": "F5",
            "velocity": 0.3858267716535433,
            "duration": 0.625,
            "ticks": 301056,
            "durationTicks": 1024
          },
          {
            "time": 184.53125,
            "midi": 77,
            "name": "F5",
            "velocity": 0.3858267716535433,
            "duration": 0.15625,
            "ticks": 302336,
            "durationTicks": 256
          },
          {
            "time": 184.6875,
            "midi": 81,
            "name": "A5",
            "velocity": 0.3858267716535433,
            "duration": 0.15625,
            "ticks": 302592,
            "durationTicks": 256
          },
          {
            "time": 184.84375,
            "midi": 77,
            "name": "F5",
            "velocity": 0.3858267716535433,
            "duration": 0.15625,
            "ticks": 302848,
            "durationTicks": 256
          },
          {
            "time": 185,
            "midi": 74,
            "name": "D5",
            "velocity": 0.3858267716535433,
            "duration": 0.15625,
            "ticks": 303104,
            "durationTicks": 256
          },
          {
            "time": 185.15625,
            "midi": 69,
            "name": "A4",
            "velocity": 0.3858267716535433,
            "duration": 0.15625,
            "ticks": 303360,
            "durationTicks": 256
          },
          {
            "time": 185.3125,
            "midi": 81,
            "name": "A5",
            "velocity": 0.3858267716535433,
            "duration": 0.15625,
            "ticks": 303616,
            "durationTicks": 256
          },
          {
            "time": 185.46875,
            "midi": 77,
            "name": "F5",
            "velocity": 0.3858267716535433,
            "duration": 0.15625,
            "ticks": 303872,
            "durationTicks": 256
          },
          {
            "time": 185.625,
            "midi": 79,
            "name": "G5",
            "velocity": 0.3858267716535433,
            "duration": 0.625,
            "ticks": 304128,
            "durationTicks": 1024
          },
          {
            "time": 186.40625,
            "midi": 79,
            "name": "G5",
            "velocity": 0.3858267716535433,
            "duration": 0.15625,
            "ticks": 305408,
            "durationTicks": 256
          },
          {
            "time": 186.5625,
            "midi": 84,
            "name": "C6",
            "velocity": 0.3858267716535433,
            "duration": 0.15625,
            "ticks": 305664,
            "durationTicks": 256
          },
          {
            "time": 186.71875,
            "midi": 79,
            "name": "G5",
            "velocity": 0.3858267716535433,
            "duration": 0.15625,
            "ticks": 305920,
            "durationTicks": 256
          },
          {
            "time": 186.875,
            "midi": 76,
            "name": "E5",
            "velocity": 0.3858267716535433,
            "duration": 0.15625,
            "ticks": 306176,
            "durationTicks": 256
          },
          {
            "time": 187.03125,
            "midi": 72,
            "name": "C5",
            "velocity": 0.3858267716535433,
            "duration": 0.15625,
            "ticks": 306432,
            "durationTicks": 256
          },
          {
            "time": 187.1875,
            "midi": 84,
            "name": "C6",
            "velocity": 0.3858267716535433,
            "duration": 0.15625,
            "ticks": 306688,
            "durationTicks": 256
          },
          {
            "time": 187.34375,
            "midi": 79,
            "name": "G5",
            "velocity": 0.3858267716535433,
            "duration": 0.15625,
            "ticks": 306944,
            "durationTicks": 256
          },
          {
            "time": 187.5,
            "midi": 81,
            "name": "A5",
            "velocity": 0.3858267716535433,
            "duration": 0.625,
            "ticks": 307200,
            "durationTicks": 1024
          },
          {
            "time": 188.28125,
            "midi": 81,
            "name": "A5",
            "velocity": 0.3858267716535433,
            "duration": 0.15625,
            "ticks": 308480,
            "durationTicks": 256
          },
          {
            "time": 188.4375,
            "midi": 84,
            "name": "C6",
            "velocity": 0.3858267716535433,
            "duration": 0.15625,
            "ticks": 308736,
            "durationTicks": 256
          },
          {
            "time": 188.59375,
            "midi": 81,
            "name": "A5",
            "velocity": 0.3858267716535433,
            "duration": 0.15625,
            "ticks": 308992,
            "durationTicks": 256
          },
          {
            "time": 188.75,
            "midi": 77,
            "name": "F5",
            "velocity": 0.3858267716535433,
            "duration": 0.15625,
            "ticks": 309248,
            "durationTicks": 256
          },
          {
            "time": 188.90625,
            "midi": 72,
            "name": "C5",
            "velocity": 0.3858267716535433,
            "duration": 0.15625,
            "ticks": 309504,
            "durationTicks": 256
          },
          {
            "time": 189.0625,
            "midi": 84,
            "name": "C6",
            "velocity": 0.3858267716535433,
            "duration": 0.15625,
            "ticks": 309760,
            "durationTicks": 256
          },
          {
            "time": 189.21875,
            "midi": 81,
            "name": "A5",
            "velocity": 0.3858267716535433,
            "duration": 0.15625,
            "ticks": 310016,
            "durationTicks": 256
          },
          {
            "time": 189.375,
            "midi": 79,
            "name": "G5",
            "velocity": 0.3858267716535433,
            "duration": 0.625,
            "ticks": 310272,
            "durationTicks": 1024
          },
          {
            "time": 190.15625,
            "midi": 82,
            "name": "A#5",
            "velocity": 0.3858267716535433,
            "duration": 0.15625,
            "ticks": 311552,
            "durationTicks": 256
          },
          {
            "time": 190.3125,
            "midi": 79,
            "name": "G5",
            "velocity": 0.3858267716535433,
            "duration": 0.15625,
            "ticks": 311808,
            "durationTicks": 256
          },
          {
            "time": 190.46875,
            "midi": 76,
            "name": "E5",
            "velocity": 0.3858267716535433,
            "duration": 0.15625,
            "ticks": 312064,
            "durationTicks": 256
          },
          {
            "time": 190.625,
            "midi": 73,
            "name": "C#5",
            "velocity": 0.3858267716535433,
            "duration": 0.15625,
            "ticks": 312320,
            "durationTicks": 256
          },
          {
            "time": 190.78125,
            "midi": 76,
            "name": "E5",
            "velocity": 0.3858267716535433,
            "duration": 0.15625,
            "ticks": 312576,
            "durationTicks": 256
          },
          {
            "time": 190.9375,
            "midi": 79,
            "name": "G5",
            "velocity": 0.3858267716535433,
            "duration": 0.15625,
            "ticks": 312832,
            "durationTicks": 256
          },
          {
            "time": 191.09375,
            "midi": 76,
            "name": "E5",
            "velocity": 0.3858267716535433,
            "duration": 0.15625,
            "ticks": 313088,
            "durationTicks": 256
          },
          {
            "time": 191.25,
            "midi": 77,
            "name": "F5",
            "velocity": 0.3858267716535433,
            "duration": 0.625,
            "ticks": 313344,
            "durationTicks": 1024
          },
          {
            "time": 192.03125,
            "midi": 77,
            "name": "F5",
            "velocity": 0.3858267716535433,
            "duration": 0.15625,
            "ticks": 314624,
            "durationTicks": 256
          },
          {
            "time": 192.1875,
            "midi": 81,
            "name": "A5",
            "velocity": 0.3858267716535433,
            "duration": 0.15625,
            "ticks": 314880,
            "durationTicks": 256
          },
          {
            "time": 192.34375,
            "midi": 77,
            "name": "F5",
            "velocity": 0.3858267716535433,
            "duration": 0.15625,
            "ticks": 315136,
            "durationTicks": 256
          },
          {
            "time": 192.5,
            "midi": 74,
            "name": "D5",
            "velocity": 0.3858267716535433,
            "duration": 0.15625,
            "ticks": 315392,
            "durationTicks": 256
          },
          {
            "time": 192.65625,
            "midi": 69,
            "name": "A4",
            "velocity": 0.3858267716535433,
            "duration": 0.15625,
            "ticks": 315648,
            "durationTicks": 256
          },
          {
            "time": 192.8125,
            "midi": 77,
            "name": "F5",
            "velocity": 0.3858267716535433,
            "duration": 0.15625,
            "ticks": 315904,
            "durationTicks": 256
          },
          {
            "time": 192.96875,
            "midi": 74,
            "name": "D5",
            "velocity": 0.3858267716535433,
            "duration": 0.15625,
            "ticks": 316160,
            "durationTicks": 256
          },
          {
            "time": 193.125,
            "midi": 73,
            "name": "C#5",
            "velocity": 0.3858267716535433,
            "duration": 0.3125,
            "ticks": 316416,
            "durationTicks": 512
          },
          {
            "time": 193.4375,
            "midi": 69,
            "name": "A4",
            "velocity": 0.3858267716535433,
            "duration": 0.3125,
            "ticks": 316928,
            "durationTicks": 512
          },
          {
            "time": 193.75,
            "midi": 76,
            "name": "E5",
            "velocity": 0.3858267716535433,
            "duration": 0.15625,
            "ticks": 317440,
            "durationTicks": 256
          },
          {
            "time": 193.90625,
            "midi": 81,
            "name": "A5",
            "velocity": 0.3858267716535433,
            "duration": 0.15625,
            "ticks": 317696,
            "durationTicks": 256
          },
          {
            "time": 194.0625,
            "midi": 76,
            "name": "E5",
            "velocity": 0.3858267716535433,
            "duration": 0.15625,
            "ticks": 317952,
            "durationTicks": 256
          },
          {
            "time": 194.21875,
            "midi": 73,
            "name": "C#5",
            "velocity": 0.3858267716535433,
            "duration": 0.15625,
            "ticks": 318208,
            "durationTicks": 256
          },
          {
            "time": 194.375,
            "midi": 69,
            "name": "A4",
            "velocity": 0.3858267716535433,
            "duration": 0.15625,
            "ticks": 318464,
            "durationTicks": 256
          },
          {
            "time": 194.53125,
            "midi": 76,
            "name": "E5",
            "velocity": 0.3858267716535433,
            "duration": 0.15625,
            "ticks": 318720,
            "durationTicks": 256
          },
          {
            "time": 194.6875,
            "midi": 81,
            "name": "A5",
            "velocity": 0.3858267716535433,
            "duration": 0.15625,
            "ticks": 318976,
            "durationTicks": 256
          },
          {
            "time": 194.84375,
            "midi": 79,
            "name": "G5",
            "velocity": 0.3858267716535433,
            "duration": 0.15625,
            "ticks": 319232,
            "durationTicks": 256
          },
          {
            "time": 195,
            "midi": 77,
            "name": "F5",
            "velocity": 0.3858267716535433,
            "duration": 0.625,
            "ticks": 319488,
            "durationTicks": 1024
          },
          {
            "time": 195.78125,
            "midi": 77,
            "name": "F5",
            "velocity": 0.3858267716535433,
            "duration": 0.15625,
            "ticks": 320768,
            "durationTicks": 256
          },
          {
            "time": 195.9375,
            "midi": 81,
            "name": "A5",
            "velocity": 0.3858267716535433,
            "duration": 0.15625,
            "ticks": 321024,
            "durationTicks": 256
          },
          {
            "time": 196.09375,
            "midi": 77,
            "name": "F5",
            "velocity": 0.3858267716535433,
            "duration": 0.15625,
            "ticks": 321280,
            "durationTicks": 256
          },
          {
            "time": 196.25,
            "midi": 74,
            "name": "D5",
            "velocity": 0.3858267716535433,
            "duration": 0.15625,
            "ticks": 321536,
            "durationTicks": 256
          },
          {
            "time": 196.40625,
            "midi": 69,
            "name": "A4",
            "velocity": 0.3858267716535433,
            "duration": 0.15625,
            "ticks": 321792,
            "durationTicks": 256
          },
          {
            "time": 196.5625,
            "midi": 81,
            "name": "A5",
            "velocity": 0.3858267716535433,
            "duration": 0.15625,
            "ticks": 322048,
            "durationTicks": 256
          },
          {
            "time": 196.71875,
            "midi": 77,
            "name": "F5",
            "velocity": 0.3858267716535433,
            "duration": 0.15625,
            "ticks": 322304,
            "durationTicks": 256
          },
          {
            "time": 196.875,
            "midi": 76,
            "name": "E5",
            "velocity": 0.3858267716535433,
            "duration": 0.625,
            "ticks": 322560,
            "durationTicks": 1024
          },
          {
            "time": 197.65625,
            "midi": 76,
            "name": "E5",
            "velocity": 0.3858267716535433,
            "duration": 0.15625,
            "ticks": 323840,
            "durationTicks": 256
          },
          {
            "time": 197.8125,
            "midi": 79,
            "name": "G5",
            "velocity": 0.3858267716535433,
            "duration": 0.15625,
            "ticks": 324096,
            "durationTicks": 256
          },
          {
            "time": 197.96875,
            "midi": 76,
            "name": "E5",
            "velocity": 0.3858267716535433,
            "duration": 0.15625,
            "ticks": 324352,
            "durationTicks": 256
          },
          {
            "time": 198.125,
            "midi": 73,
            "name": "C#5",
            "velocity": 0.3858267716535433,
            "duration": 0.15625,
            "ticks": 324608,
            "durationTicks": 256
          },
          {
            "time": 198.28125,
            "midi": 69,
            "name": "A4",
            "velocity": 0.3858267716535433,
            "duration": 0.15625,
            "ticks": 324864,
            "durationTicks": 256
          },
          {
            "time": 198.4375,
            "midi": 79,
            "name": "G5",
            "velocity": 0.3858267716535433,
            "duration": 0.15625,
            "ticks": 325120,
            "durationTicks": 256
          },
          {
            "time": 198.59375,
            "midi": 76,
            "name": "E5",
            "velocity": 0.3858267716535433,
            "duration": 0.15625,
            "ticks": 325376,
            "durationTicks": 256
          },
          {
            "time": 198.75,
            "midi": 77,
            "name": "F5",
            "velocity": 0.3858267716535433,
            "duration": 0.625,
            "ticks": 325632,
            "durationTicks": 1024
          },
          {
            "time": 199.53125,
            "midi": 77,
            "name": "F5",
            "velocity": 0.3858267716535433,
            "duration": 0.15625,
            "ticks": 326912,
            "durationTicks": 256
          },
          {
            "time": 199.6875,
            "midi": 81,
            "name": "A5",
            "velocity": 0.3858267716535433,
            "duration": 0.15625,
            "ticks": 327168,
            "durationTicks": 256
          },
          {
            "time": 199.84375,
            "midi": 77,
            "name": "F5",
            "velocity": 0.3858267716535433,
            "duration": 0.15625,
            "ticks": 327424,
            "durationTicks": 256
          },
          {
            "time": 200,
            "midi": 74,
            "name": "D5",
            "velocity": 0.3858267716535433,
            "duration": 0.15625,
            "ticks": 327680,
            "durationTicks": 256
          },
          {
            "time": 200.15625,
            "midi": 69,
            "name": "A4",
            "velocity": 0.3858267716535433,
            "duration": 0.15625,
            "ticks": 327936,
            "durationTicks": 256
          },
          {
            "time": 200.3125,
            "midi": 81,
            "name": "A5",
            "velocity": 0.3858267716535433,
            "duration": 0.15625,
            "ticks": 328192,
            "durationTicks": 256
          },
          {
            "time": 200.46875,
            "midi": 77,
            "name": "F5",
            "velocity": 0.3858267716535433,
            "duration": 0.15625,
            "ticks": 328448,
            "durationTicks": 256
          },
          {
            "time": 200.625,
            "midi": 79,
            "name": "G5",
            "velocity": 0.3858267716535433,
            "duration": 0.625,
            "ticks": 328704,
            "durationTicks": 1024
          },
          {
            "time": 201.40625,
            "midi": 79,
            "name": "G5",
            "velocity": 0.3858267716535433,
            "duration": 0.15625,
            "ticks": 329984,
            "durationTicks": 256
          },
          {
            "time": 201.5625,
            "midi": 84,
            "name": "C6",
            "velocity": 0.3858267716535433,
            "duration": 0.15625,
            "ticks": 330240,
            "durationTicks": 256
          },
          {
            "time": 201.71875,
            "midi": 79,
            "name": "G5",
            "velocity": 0.3858267716535433,
            "duration": 0.15625,
            "ticks": 330496,
            "durationTicks": 256
          },
          {
            "time": 201.875,
            "midi": 76,
            "name": "E5",
            "velocity": 0.3858267716535433,
            "duration": 0.15625,
            "ticks": 330752,
            "durationTicks": 256
          },
          {
            "time": 202.03125,
            "midi": 72,
            "name": "C5",
            "velocity": 0.3858267716535433,
            "duration": 0.15625,
            "ticks": 331008,
            "durationTicks": 256
          },
          {
            "time": 202.1875,
            "midi": 84,
            "name": "C6",
            "velocity": 0.3858267716535433,
            "duration": 0.15625,
            "ticks": 331264,
            "durationTicks": 256
          },
          {
            "time": 202.34375,
            "midi": 79,
            "name": "G5",
            "velocity": 0.3858267716535433,
            "duration": 0.15625,
            "ticks": 331520,
            "durationTicks": 256
          },
          {
            "time": 202.5,
            "midi": 81,
            "name": "A5",
            "velocity": 0.3858267716535433,
            "duration": 0.625,
            "ticks": 331776,
            "durationTicks": 1024
          },
          {
            "time": 203.28125,
            "midi": 81,
            "name": "A5",
            "velocity": 0.3858267716535433,
            "duration": 0.15625,
            "ticks": 333056,
            "durationTicks": 256
          },
          {
            "time": 203.4375,
            "midi": 84,
            "name": "C6",
            "velocity": 0.3858267716535433,
            "duration": 0.15625,
            "ticks": 333312,
            "durationTicks": 256
          },
          {
            "time": 203.59375,
            "midi": 81,
            "name": "A5",
            "velocity": 0.3858267716535433,
            "duration": 0.15625,
            "ticks": 333568,
            "durationTicks": 256
          },
          {
            "time": 203.75,
            "midi": 77,
            "name": "F5",
            "velocity": 0.3858267716535433,
            "duration": 0.15625,
            "ticks": 333824,
            "durationTicks": 256
          },
          {
            "time": 203.90625,
            "midi": 72,
            "name": "C5",
            "velocity": 0.3858267716535433,
            "duration": 0.15625,
            "ticks": 334080,
            "durationTicks": 256
          },
          {
            "time": 204.0625,
            "midi": 84,
            "name": "C6",
            "velocity": 0.3858267716535433,
            "duration": 0.15625,
            "ticks": 334336,
            "durationTicks": 256
          },
          {
            "time": 204.21875,
            "midi": 81,
            "name": "A5",
            "velocity": 0.3858267716535433,
            "duration": 0.15625,
            "ticks": 334592,
            "durationTicks": 256
          },
          {
            "time": 204.375,
            "midi": 79,
            "name": "G5",
            "velocity": 0.3858267716535433,
            "duration": 0.625,
            "ticks": 334848,
            "durationTicks": 1024
          },
          {
            "time": 205.15625,
            "midi": 82,
            "name": "A#5",
            "velocity": 0.3858267716535433,
            "duration": 0.15625,
            "ticks": 336128,
            "durationTicks": 256
          },
          {
            "time": 205.3125,
            "midi": 79,
            "name": "G5",
            "velocity": 0.3858267716535433,
            "duration": 0.15625,
            "ticks": 336384,
            "durationTicks": 256
          },
          {
            "time": 205.46875,
            "midi": 76,
            "name": "E5",
            "velocity": 0.3858267716535433,
            "duration": 0.15625,
            "ticks": 336640,
            "durationTicks": 256
          },
          {
            "time": 205.625,
            "midi": 73,
            "name": "C#5",
            "velocity": 0.3858267716535433,
            "duration": 0.15625,
            "ticks": 336896,
            "durationTicks": 256
          },
          {
            "time": 205.78125,
            "midi": 69,
            "name": "A4",
            "velocity": 0.3858267716535433,
            "duration": 0.15625,
            "ticks": 337152,
            "durationTicks": 256
          },
          {
            "time": 205.9375,
            "midi": 79,
            "name": "G5",
            "velocity": 0.3858267716535433,
            "duration": 0.15625,
            "ticks": 337408,
            "durationTicks": 256
          },
          {
            "time": 206.09375,
            "midi": 76,
            "name": "E5",
            "velocity": 0.3858267716535433,
            "duration": 0.15625,
            "ticks": 337664,
            "durationTicks": 256
          },
          {
            "time": 206.25,
            "midi": 77,
            "name": "F5",
            "velocity": 0.3858267716535433,
            "duration": 0.3125,
            "ticks": 337920,
            "durationTicks": 512
          },
          {
            "time": 206.5625,
            "midi": 76,
            "name": "E5",
            "velocity": 0.3858267716535433,
            "duration": 0.15625,
            "ticks": 338432,
            "durationTicks": 256
          },
          {
            "time": 206.71875,
            "midi": 74,
            "name": "D5",
            "velocity": 0.3858267716535433,
            "duration": 0.15625,
            "ticks": 338688,
            "durationTicks": 256
          },
          {
            "time": 206.875,
            "midi": 73,
            "name": "C#5",
            "velocity": 0.3858267716535433,
            "duration": 0.3125,
            "ticks": 338944,
            "durationTicks": 512
          },
          {
            "time": 207.1875,
            "midi": 74,
            "name": "D5",
            "velocity": 0.3858267716535433,
            "duration": 0.3125,
            "ticks": 339456,
            "durationTicks": 512
          },
          {
            "time": 207.5,
            "midi": 64,
            "name": "E4",
            "velocity": 0.3858267716535433,
            "duration": 0.3125,
            "ticks": 339968,
            "durationTicks": 512
          },
          {
            "time": 207.8125,
            "midi": 73,
            "name": "C#5",
            "velocity": 0.3858267716535433,
            "duration": 0.3125,
            "ticks": 340480,
            "durationTicks": 512
          },
          {
            "time": 208.125,
            "midi": 62,
            "name": "D4",
            "velocity": 0.3858267716535433,
            "duration": 1.875,
            "ticks": 340992,
            "durationTicks": 3072
          },
          {
            "time": 210,
            "midi": 74,
            "name": "D5",
            "velocity": 0.3858267716535433,
            "duration": 0.3125,
            "ticks": 344064,
            "durationTicks": 512
          },
          {
            "time": 210.3125,
            "midi": 69,
            "name": "A4",
            "velocity": 0.3858267716535433,
            "duration": 0.3125,
            "ticks": 344576,
            "durationTicks": 512
          },
          {
            "time": 210.625,
            "midi": 77,
            "name": "F5",
            "velocity": 0.3858267716535433,
            "duration": 0.3125,
            "ticks": 345088,
            "durationTicks": 512
          },
          {
            "time": 210.9375,
            "midi": 74,
            "name": "D5",
            "velocity": 0.3858267716535433,
            "duration": 0.3125,
            "ticks": 345600,
            "durationTicks": 512
          },
          {
            "time": 211.25,
            "midi": 81,
            "name": "A5",
            "velocity": 0.3858267716535433,
            "duration": 0.3125,
            "ticks": 346112,
            "durationTicks": 512
          },
          {
            "time": 211.5625,
            "midi": 74,
            "name": "D5",
            "velocity": 0.3858267716535433,
            "duration": 0.3125,
            "ticks": 346624,
            "durationTicks": 512
          },
          {
            "time": 211.875,
            "midi": 73,
            "name": "C#5",
            "velocity": 0.3858267716535433,
            "duration": 0.3125,
            "ticks": 347136,
            "durationTicks": 512
          },
          {
            "time": 212.1875,
            "midi": 69,
            "name": "A4",
            "velocity": 0.3858267716535433,
            "duration": 0.3125,
            "ticks": 347648,
            "durationTicks": 512
          },
          {
            "time": 212.5,
            "midi": 76,
            "name": "E5",
            "velocity": 0.3858267716535433,
            "duration": 0.3125,
            "ticks": 348160,
            "durationTicks": 512
          },
          {
            "time": 212.8125,
            "midi": 73,
            "name": "C#5",
            "velocity": 0.3858267716535433,
            "duration": 0.3125,
            "ticks": 348672,
            "durationTicks": 512
          },
          {
            "time": 213.125,
            "midi": 81,
            "name": "A5",
            "velocity": 0.3858267716535433,
            "duration": 0.3125,
            "ticks": 349184,
            "durationTicks": 512
          },
          {
            "time": 213.4375,
            "midi": 73,
            "name": "C#5",
            "velocity": 0.3858267716535433,
            "duration": 0.3125,
            "ticks": 349696,
            "durationTicks": 512
          },
          {
            "time": 213.75,
            "midi": 74,
            "name": "D5",
            "velocity": 0.3858267716535433,
            "duration": 0.3125,
            "ticks": 350208,
            "durationTicks": 512
          },
          {
            "time": 214.0625,
            "midi": 69,
            "name": "A4",
            "velocity": 0.3858267716535433,
            "duration": 0.3125,
            "ticks": 350720,
            "durationTicks": 512
          },
          {
            "time": 214.375,
            "midi": 77,
            "name": "F5",
            "velocity": 0.3858267716535433,
            "duration": 0.3125,
            "ticks": 351232,
            "durationTicks": 512
          },
          {
            "time": 214.6875,
            "midi": 74,
            "name": "D5",
            "velocity": 0.3858267716535433,
            "duration": 0.3125,
            "ticks": 351744,
            "durationTicks": 512
          },
          {
            "time": 215,
            "midi": 81,
            "name": "A5",
            "velocity": 0.3858267716535433,
            "duration": 0.3125,
            "ticks": 352256,
            "durationTicks": 512
          },
          {
            "time": 215.3125,
            "midi": 74,
            "name": "D5",
            "velocity": 0.3858267716535433,
            "duration": 0.3125,
            "ticks": 352768,
            "durationTicks": 512
          },
          {
            "time": 215.625,
            "midi": 76,
            "name": "E5",
            "velocity": 0.3858267716535433,
            "duration": 0.3125,
            "ticks": 353280,
            "durationTicks": 512
          },
          {
            "time": 215.9375,
            "midi": 72,
            "name": "C5",
            "velocity": 0.3858267716535433,
            "duration": 0.3125,
            "ticks": 353792,
            "durationTicks": 512
          },
          {
            "time": 216.25,
            "midi": 79,
            "name": "G5",
            "velocity": 0.3858267716535433,
            "duration": 0.3125,
            "ticks": 354304,
            "durationTicks": 512
          },
          {
            "time": 216.5625,
            "midi": 76,
            "name": "E5",
            "velocity": 0.3858267716535433,
            "duration": 0.3125,
            "ticks": 354816,
            "durationTicks": 512
          },
          {
            "time": 216.875,
            "midi": 84,
            "name": "C6",
            "velocity": 0.3858267716535433,
            "duration": 0.3125,
            "ticks": 355328,
            "durationTicks": 512
          },
          {
            "time": 217.1875,
            "midi": 76,
            "name": "E5",
            "velocity": 0.3858267716535433,
            "duration": 0.3125,
            "ticks": 355840,
            "durationTicks": 512
          },
          {
            "time": 217.5,
            "midi": 77,
            "name": "F5",
            "velocity": 0.3858267716535433,
            "duration": 0.3125,
            "ticks": 356352,
            "durationTicks": 512
          },
          {
            "time": 217.8125,
            "midi": 72,
            "name": "C5",
            "velocity": 0.3858267716535433,
            "duration": 0.3125,
            "ticks": 356864,
            "durationTicks": 512
          },
          {
            "time": 218.125,
            "midi": 81,
            "name": "A5",
            "velocity": 0.3858267716535433,
            "duration": 0.3125,
            "ticks": 357376,
            "durationTicks": 512
          },
          {
            "time": 218.4375,
            "midi": 77,
            "name": "F5",
            "velocity": 0.3858267716535433,
            "duration": 0.3125,
            "ticks": 357888,
            "durationTicks": 512
          },
          {
            "time": 218.75,
            "midi": 84,
            "name": "C6",
            "velocity": 0.3858267716535433,
            "duration": 0.3125,
            "ticks": 358400,
            "durationTicks": 512
          },
          {
            "time": 219.0625,
            "midi": 77,
            "name": "F5",
            "velocity": 0.3858267716535433,
            "duration": 0.3125,
            "ticks": 358912,
            "durationTicks": 512
          },
          {
            "time": 219.375,
            "midi": 76,
            "name": "E5",
            "velocity": 0.3858267716535433,
            "duration": 0.3125,
            "ticks": 359424,
            "durationTicks": 512
          },
          {
            "time": 219.6875,
            "midi": 72,
            "name": "C5",
            "velocity": 0.3858267716535433,
            "duration": 0.3125,
            "ticks": 359936,
            "durationTicks": 512
          },
          {
            "time": 220,
            "midi": 79,
            "name": "G5",
            "velocity": 0.3858267716535433,
            "duration": 0.3125,
            "ticks": 360448,
            "durationTicks": 512
          },
          {
            "time": 220.3125,
            "midi": 76,
            "name": "E5",
            "velocity": 0.3858267716535433,
            "duration": 0.3125,
            "ticks": 360960,
            "durationTicks": 512
          },
          {
            "time": 220.625,
            "midi": 82,
            "name": "A#5",
            "velocity": 0.3858267716535433,
            "duration": 0.3125,
            "ticks": 361472,
            "durationTicks": 512
          },
          {
            "time": 220.9375,
            "midi": 76,
            "name": "E5",
            "velocity": 0.3858267716535433,
            "duration": 0.3125,
            "ticks": 361984,
            "durationTicks": 512
          },
          {
            "time": 221.25,
            "midi": 81,
            "name": "A5",
            "velocity": 0.3858267716535433,
            "duration": 0.3125,
            "ticks": 362496,
            "durationTicks": 512
          },
          {
            "time": 221.5625,
            "midi": 69,
            "name": "A4",
            "velocity": 0.3858267716535433,
            "duration": 0.3125,
            "ticks": 363008,
            "durationTicks": 512
          },
          {
            "time": 221.875,
            "midi": 74,
            "name": "D5",
            "velocity": 0.3858267716535433,
            "duration": 0.3125,
            "ticks": 363520,
            "durationTicks": 512
          },
          {
            "time": 222.1875,
            "midi": 77,
            "name": "F5",
            "velocity": 0.3858267716535433,
            "duration": 0.3125,
            "ticks": 364032,
            "durationTicks": 512
          },
          {
            "time": 222.5,
            "midi": 76,
            "name": "E5",
            "velocity": 0.3858267716535433,
            "duration": 0.3125,
            "ticks": 364544,
            "durationTicks": 512
          },
          {
            "time": 222.8125,
            "midi": 74,
            "name": "D5",
            "velocity": 0.3858267716535433,
            "duration": 0.3125,
            "ticks": 365056,
            "durationTicks": 512
          },
          {
            "time": 223.125,
            "midi": 73,
            "name": "C#5",
            "velocity": 0.3858267716535433,
            "duration": 0.2081298828125,
            "ticks": 365568,
            "durationTicks": 341
          },
          {
            "time": 223.3331298828125,
            "midi": 70,
            "name": "A#4",
            "velocity": 0.3858267716535433,
            "duration": 0.208740234375,
            "ticks": 365909,
            "durationTicks": 342
          },
          {
            "time": 223.5418701171875,
            "midi": 69,
            "name": "A4",
            "velocity": 0.3858267716535433,
            "duration": 0.2081298828125,
            "ticks": 366251,
            "durationTicks": 341
          },
          {
            "time": 223.75,
            "midi": 76,
            "name": "E5",
            "velocity": 0.3858267716535433,
            "duration": 0.2081298828125,
            "ticks": 366592,
            "durationTicks": 341
          },
          {
            "time": 223.9581298828125,
            "midi": 74,
            "name": "D5",
            "velocity": 0.3858267716535433,
            "duration": 0.208740234375,
            "ticks": 366933,
            "durationTicks": 342
          },
          {
            "time": 224.1668701171875,
            "midi": 73,
            "name": "C#5",
            "velocity": 0.3858267716535433,
            "duration": 0.2081298828125,
            "ticks": 367275,
            "durationTicks": 341
          },
          {
            "time": 224.375,
            "midi": 81,
            "name": "A5",
            "velocity": 0.3858267716535433,
            "duration": 0.3125,
            "ticks": 367616,
            "durationTicks": 512
          },
          {
            "time": 224.6875,
            "midi": 73,
            "name": "C#5",
            "velocity": 0.3858267716535433,
            "duration": 0.3125,
            "ticks": 368128,
            "durationTicks": 512
          },
          {
            "time": 225,
            "midi": 74,
            "name": "D5",
            "velocity": 0.3858267716535433,
            "duration": 0.3125,
            "ticks": 368640,
            "durationTicks": 512
          },
          {
            "time": 225.3125,
            "midi": 69,
            "name": "A4",
            "velocity": 0.3858267716535433,
            "duration": 0.3125,
            "ticks": 369152,
            "durationTicks": 512
          },
          {
            "time": 225.625,
            "midi": 77,
            "name": "F5",
            "velocity": 0.3858267716535433,
            "duration": 0.2081298828125,
            "ticks": 369664,
            "durationTicks": 341
          },
          {
            "time": 225.8331298828125,
            "midi": 76,
            "name": "E5",
            "velocity": 0.3858267716535433,
            "duration": 0.208740234375,
            "ticks": 370005,
            "durationTicks": 342
          },
          {
            "time": 226.0418701171875,
            "midi": 74,
            "name": "D5",
            "velocity": 0.3858267716535433,
            "duration": 0.2081298828125,
            "ticks": 370347,
            "durationTicks": 341
          },
          {
            "time": 226.25,
            "midi": 81,
            "name": "A5",
            "velocity": 0.3858267716535433,
            "duration": 0.3125,
            "ticks": 370688,
            "durationTicks": 512
          },
          {
            "time": 226.5625,
            "midi": 74,
            "name": "D5",
            "velocity": 0.3858267716535433,
            "duration": 0.3125,
            "ticks": 371200,
            "durationTicks": 512
          },
          {
            "time": 226.875,
            "midi": 73,
            "name": "C#5",
            "velocity": 0.3858267716535433,
            "duration": 0.2081298828125,
            "ticks": 371712,
            "durationTicks": 341
          },
          {
            "time": 227.0831298828125,
            "midi": 70,
            "name": "A#4",
            "velocity": 0.3858267716535433,
            "duration": 0.208740234375,
            "ticks": 372053,
            "durationTicks": 342
          },
          {
            "time": 227.2918701171875,
            "midi": 69,
            "name": "A4",
            "velocity": 0.3858267716535433,
            "duration": 0.2081298828125,
            "ticks": 372395,
            "durationTicks": 341
          },
          {
            "time": 227.5,
            "midi": 76,
            "name": "E5",
            "velocity": 0.3858267716535433,
            "duration": 0.2081298828125,
            "ticks": 372736,
            "durationTicks": 341
          },
          {
            "time": 227.7081298828125,
            "midi": 74,
            "name": "D5",
            "velocity": 0.3858267716535433,
            "duration": 0.208740234375,
            "ticks": 373077,
            "durationTicks": 342
          },
          {
            "time": 227.9168701171875,
            "midi": 73,
            "name": "C#5",
            "velocity": 0.3858267716535433,
            "duration": 0.2081298828125,
            "ticks": 373419,
            "durationTicks": 341
          },
          {
            "time": 228.125,
            "midi": 81,
            "name": "A5",
            "velocity": 0.3858267716535433,
            "duration": 0.3125,
            "ticks": 373760,
            "durationTicks": 512
          },
          {
            "time": 228.4375,
            "midi": 73,
            "name": "C#5",
            "velocity": 0.3858267716535433,
            "duration": 0.3125,
            "ticks": 374272,
            "durationTicks": 512
          },
          {
            "time": 228.75,
            "midi": 74,
            "name": "D5",
            "velocity": 0.3858267716535433,
            "duration": 0.3125,
            "ticks": 374784,
            "durationTicks": 512
          },
          {
            "time": 229.0625,
            "midi": 69,
            "name": "A4",
            "velocity": 0.3858267716535433,
            "duration": 0.3125,
            "ticks": 375296,
            "durationTicks": 512
          },
          {
            "time": 229.375,
            "midi": 77,
            "name": "F5",
            "velocity": 0.3858267716535433,
            "duration": 0.2081298828125,
            "ticks": 375808,
            "durationTicks": 341
          },
          {
            "time": 229.5831298828125,
            "midi": 76,
            "name": "E5",
            "velocity": 0.3858267716535433,
            "duration": 0.208740234375,
            "ticks": 376149,
            "durationTicks": 342
          },
          {
            "time": 229.7918701171875,
            "midi": 74,
            "name": "D5",
            "velocity": 0.3858267716535433,
            "duration": 0.2081298828125,
            "ticks": 376491,
            "durationTicks": 341
          },
          {
            "time": 230,
            "midi": 81,
            "name": "A5",
            "velocity": 0.3858267716535433,
            "duration": 0.3125,
            "ticks": 376832,
            "durationTicks": 512
          },
          {
            "time": 230.3125,
            "midi": 74,
            "name": "D5",
            "velocity": 0.3858267716535433,
            "duration": 0.3125,
            "ticks": 377344,
            "durationTicks": 512
          },
          {
            "time": 230.625,
            "midi": 76,
            "name": "E5",
            "velocity": 0.3858267716535433,
            "duration": 0.2081298828125,
            "ticks": 377856,
            "durationTicks": 341
          },
          {
            "time": 230.8331298828125,
            "midi": 74,
            "name": "D5",
            "velocity": 0.3858267716535433,
            "duration": 0.208740234375,
            "ticks": 378197,
            "durationTicks": 342
          },
          {
            "time": 231.0418701171875,
            "midi": 72,
            "name": "C5",
            "velocity": 0.3858267716535433,
            "duration": 0.2081298828125,
            "ticks": 378539,
            "durationTicks": 341
          },
          {
            "time": 231.25,
            "midi": 79,
            "name": "G5",
            "velocity": 0.3858267716535433,
            "duration": 0.2081298828125,
            "ticks": 378880,
            "durationTicks": 341
          },
          {
            "time": 231.4581298828125,
            "midi": 77,
            "name": "F5",
            "velocity": 0.3858267716535433,
            "duration": 0.208740234375,
            "ticks": 379221,
            "durationTicks": 342
          },
          {
            "time": 231.6668701171875,
            "midi": 76,
            "name": "E5",
            "velocity": 0.3858267716535433,
            "duration": 0.2081298828125,
            "ticks": 379563,
            "durationTicks": 341
          },
          {
            "time": 231.875,
            "midi": 84,
            "name": "C6",
            "velocity": 0.3858267716535433,
            "duration": 0.3125,
            "ticks": 379904,
            "durationTicks": 512
          },
          {
            "time": 232.1875,
            "midi": 76,
            "name": "E5",
            "velocity": 0.3858267716535433,
            "duration": 0.3125,
            "ticks": 380416,
            "durationTicks": 512
          },
          {
            "time": 232.5,
            "midi": 77,
            "name": "F5",
            "velocity": 0.3858267716535433,
            "duration": 0.3125,
            "ticks": 380928,
            "durationTicks": 512
          },
          {
            "time": 232.8125,
            "midi": 72,
            "name": "C5",
            "velocity": 0.3858267716535433,
            "duration": 0.3125,
            "ticks": 381440,
            "durationTicks": 512
          },
          {
            "time": 233.125,
            "midi": 81,
            "name": "A5",
            "velocity": 0.3858267716535433,
            "duration": 0.2081298828125,
            "ticks": 381952,
            "durationTicks": 341
          },
          {
            "time": 233.3331298828125,
            "midi": 79,
            "name": "G5",
            "velocity": 0.3858267716535433,
            "duration": 0.208740234375,
            "ticks": 382293,
            "durationTicks": 342
          },
          {
            "time": 233.5418701171875,
            "midi": 77,
            "name": "F5",
            "velocity": 0.3858267716535433,
            "duration": 0.2081298828125,
            "ticks": 382635,
            "durationTicks": 341
          },
          {
            "time": 233.75,
            "midi": 84,
            "name": "C6",
            "velocity": 0.3858267716535433,
            "duration": 0.3125,
            "ticks": 382976,
            "durationTicks": 512
          },
          {
            "time": 234.0625,
            "midi": 77,
            "name": "F5",
            "velocity": 0.3858267716535433,
            "duration": 0.3125,
            "ticks": 383488,
            "durationTicks": 512
          },
          {
            "time": 234.375,
            "midi": 76,
            "name": "E5",
            "velocity": 0.3858267716535433,
            "duration": 0.2081298828125,
            "ticks": 384000,
            "durationTicks": 341
          },
          {
            "time": 234.5831298828125,
            "midi": 74,
            "name": "D5",
            "velocity": 0.3858267716535433,
            "duration": 0.208740234375,
            "ticks": 384341,
            "durationTicks": 342
          },
          {
            "time": 234.7918701171875,
            "midi": 72,
            "name": "C5",
            "velocity": 0.3858267716535433,
            "duration": 0.2081298828125,
            "ticks": 384683,
            "durationTicks": 341
          },
          {
            "time": 235,
            "midi": 79,
            "name": "G5",
            "velocity": 0.3858267716535433,
            "duration": 0.2081298828125,
            "ticks": 385024,
            "durationTicks": 341
          },
          {
            "time": 235.2081298828125,
            "midi": 77,
            "name": "F5",
            "velocity": 0.3858267716535433,
            "duration": 0.208740234375,
            "ticks": 385365,
            "durationTicks": 342
          },
          {
            "time": 235.4168701171875,
            "midi": 76,
            "name": "E5",
            "velocity": 0.3858267716535433,
            "duration": 0.2081298828125,
            "ticks": 385707,
            "durationTicks": 341
          },
          {
            "time": 235.625,
            "midi": 82,
            "name": "A#5",
            "velocity": 0.3858267716535433,
            "duration": 0.2081298828125,
            "ticks": 386048,
            "durationTicks": 341
          },
          {
            "time": 235.8331298828125,
            "midi": 81,
            "name": "A5",
            "velocity": 0.3858267716535433,
            "duration": 0.208740234375,
            "ticks": 386389,
            "durationTicks": 342
          },
          {
            "time": 236.0418701171875,
            "midi": 79,
            "name": "G5",
            "velocity": 0.3858267716535433,
            "duration": 0.2081298828125,
            "ticks": 386731,
            "durationTicks": 341
          },
          {
            "time": 236.25,
            "midi": 77,
            "name": "F5",
            "velocity": 0.3858267716535433,
            "duration": 0.2081298828125,
            "ticks": 387072,
            "durationTicks": 341
          },
          {
            "time": 236.4581298828125,
            "midi": 76,
            "name": "E5",
            "velocity": 0.3858267716535433,
            "duration": 0.208740234375,
            "ticks": 387413,
            "durationTicks": 342
          },
          {
            "time": 236.6668701171875,
            "midi": 74,
            "name": "D5",
            "velocity": 0.3858267716535433,
            "duration": 0.2081298828125,
            "ticks": 387755,
            "durationTicks": 341
          },
          {
            "time": 236.875,
            "midi": 73,
            "name": "C#5",
            "velocity": 0.3858267716535433,
            "duration": 0.2081298828125,
            "ticks": 388096,
            "durationTicks": 341
          },
          {
            "time": 237.0831298828125,
            "midi": 69,
            "name": "A4",
            "velocity": 0.3858267716535433,
            "duration": 0.208740234375,
            "ticks": 388437,
            "durationTicks": 342
          },
          {
            "time": 237.2918701171875,
            "midi": 74,
            "name": "D5",
            "velocity": 0.3858267716535433,
            "duration": 0.2081298828125,
            "ticks": 388779,
            "durationTicks": 341
          },
          {
            "time": 237.5,
            "midi": 64,
            "name": "E4",
            "velocity": 0.3858267716535433,
            "duration": 0.2081298828125,
            "ticks": 389120,
            "durationTicks": 341
          },
          {
            "time": 237.7081298828125,
            "midi": 74,
            "name": "D5",
            "velocity": 0.3858267716535433,
            "duration": 0.208740234375,
            "ticks": 389461,
            "durationTicks": 342
          },
          {
            "time": 237.9168701171875,
            "midi": 73,
            "name": "C#5",
            "velocity": 0.3858267716535433,
            "duration": 0.2081298828125,
            "ticks": 389803,
            "durationTicks": 341
          },
          {
            "time": 238.125,
            "midi": 74,
            "name": "D5",
            "velocity": 0.3858267716535433,
            "duration": 1.875,
            "ticks": 390144,
            "durationTicks": 3072
          },
          {
            "time": 240,
            "midi": 62,
            "name": "D4",
            "velocity": 0.3858267716535433,
            "duration": 0.625,
            "ticks": 393216,
            "durationTicks": 1024
          },
          {
            "time": 240.625,
            "midi": 74,
            "name": "D5",
            "velocity": 0.3858267716535433,
            "duration": 1.875,
            "ticks": 394240,
            "durationTicks": 3072
          },
          {
            "time": 242.5,
            "midi": 73,
            "name": "C#5",
            "velocity": 0.3858267716535433,
            "duration": 0.3125,
            "ticks": 397312,
            "durationTicks": 512
          },
          {
            "time": 242.8125,
            "midi": 71,
            "name": "B4",
            "velocity": 0.3858267716535433,
            "duration": 0.3125,
            "ticks": 397824,
            "durationTicks": 512
          },
          {
            "time": 243.125,
            "midi": 73,
            "name": "C#5",
            "velocity": 0.3858267716535433,
            "duration": 0.625,
            "ticks": 398336,
            "durationTicks": 1024
          },
          {
            "time": 243.75,
            "midi": 74,
            "name": "D5",
            "velocity": 0.3858267716535433,
            "duration": 0.625,
            "ticks": 399360,
            "durationTicks": 1024
          },
          {
            "time": 244.375,
            "midi": 69,
            "name": "A4",
            "velocity": 0.3858267716535433,
            "duration": 0.625,
            "ticks": 400384,
            "durationTicks": 1024
          },
          {
            "time": 245,
            "midi": 81,
            "name": "A5",
            "velocity": 0.3858267716535433,
            "duration": 0.3125,
            "ticks": 401408,
            "durationTicks": 512
          },
          {
            "time": 245.3125,
            "midi": 83,
            "name": "B5",
            "velocity": 0.3858267716535433,
            "duration": 0.3125,
            "ticks": 401920,
            "durationTicks": 512
          },
          {
            "time": 245.625,
            "midi": 84,
            "name": "C6",
            "velocity": 0.3858267716535433,
            "duration": 0.625,
            "ticks": 402432,
            "durationTicks": 1024
          },
          {
            "time": 246.25,
            "midi": 72,
            "name": "C5",
            "velocity": 0.3858267716535433,
            "duration": 0.625,
            "ticks": 403456,
            "durationTicks": 1024
          },
          {
            "time": 246.875,
            "midi": 82,
            "name": "A#5",
            "velocity": 0.3858267716535433,
            "duration": 1.25,
            "ticks": 404480,
            "durationTicks": 2048
          },
          {
            "time": 248.125,
            "midi": 81,
            "name": "A5",
            "velocity": 0.3858267716535433,
            "duration": 0.3125,
            "ticks": 406528,
            "durationTicks": 512
          },
          {
            "time": 248.4375,
            "midi": 79,
            "name": "G5",
            "velocity": 0.3858267716535433,
            "duration": 0.3125,
            "ticks": 407040,
            "durationTicks": 512
          },
          {
            "time": 248.75,
            "midi": 81,
            "name": "A5",
            "velocity": 0.3858267716535433,
            "duration": 0.625,
            "ticks": 407552,
            "durationTicks": 1024
          },
          {
            "time": 249.375,
            "midi": 79,
            "name": "G5",
            "velocity": 0.3858267716535433,
            "duration": 0.625,
            "ticks": 408576,
            "durationTicks": 1024
          },
          {
            "time": 250,
            "midi": 72,
            "name": "C5",
            "velocity": 0.3858267716535433,
            "duration": 0.625,
            "ticks": 409600,
            "durationTicks": 1024
          },
          {
            "time": 250.625,
            "midi": 79,
            "name": "G5",
            "velocity": 0.3858267716535433,
            "duration": 1.25,
            "ticks": 410624,
            "durationTicks": 2048
          },
          {
            "time": 251.875,
            "midi": 77,
            "name": "F5",
            "velocity": 0.3858267716535433,
            "duration": 0.3125,
            "ticks": 412672,
            "durationTicks": 512
          },
          {
            "time": 252.1875,
            "midi": 76,
            "name": "E5",
            "velocity": 0.3858267716535433,
            "duration": 0.3125,
            "ticks": 413184,
            "durationTicks": 512
          },
          {
            "time": 252.5,
            "midi": 77,
            "name": "F5",
            "velocity": 0.3858267716535433,
            "duration": 0.3125,
            "ticks": 413696,
            "durationTicks": 512
          },
          {
            "time": 252.8125,
            "midi": 79,
            "name": "G5",
            "velocity": 0.3858267716535433,
            "duration": 0.3125,
            "ticks": 414208,
            "durationTicks": 512
          },
          {
            "time": 253.125,
            "midi": 76,
            "name": "E5",
            "velocity": 0.3858267716535433,
            "duration": 1.25,
            "ticks": 414720,
            "durationTicks": 2048
          },
          {
            "time": 255.625,
            "midi": 69,
            "name": "A4",
            "velocity": 0.3858267716535433,
            "duration": 0.625,
            "ticks": 418816,
            "durationTicks": 1024
          },
          {
            "time": 256.25,
            "midi": 74,
            "name": "D5",
            "velocity": 0.3858267716535433,
            "duration": 0.625,
            "ticks": 419840,
            "durationTicks": 1024
          },
          {
            "time": 256.875,
            "midi": 76,
            "name": "E5",
            "velocity": 0.3858267716535433,
            "duration": 0.625,
            "ticks": 420864,
            "durationTicks": 1024
          },
          {
            "time": 257.5,
            "midi": 69,
            "name": "A4",
            "velocity": 0.3858267716535433,
            "duration": 0.625,
            "ticks": 421888,
            "durationTicks": 1024
          },
          {
            "time": 258.125,
            "midi": 79,
            "name": "G5",
            "velocity": 0.3858267716535433,
            "duration": 1.25,
            "ticks": 422912,
            "durationTicks": 2048
          },
          {
            "time": 259.375,
            "midi": 77,
            "name": "F5",
            "velocity": 0.3858267716535433,
            "duration": 0.3125,
            "ticks": 424960,
            "durationTicks": 512
          },
          {
            "time": 259.6875,
            "midi": 76,
            "name": "E5",
            "velocity": 0.3858267716535433,
            "duration": 0.3125,
            "ticks": 425472,
            "durationTicks": 512
          },
          {
            "time": 260,
            "midi": 77,
            "name": "F5",
            "velocity": 0.3858267716535433,
            "duration": 1.25,
            "ticks": 425984,
            "durationTicks": 2048
          },
          {
            "time": 261.25,
            "midi": 76,
            "name": "E5",
            "velocity": 0.3858267716535433,
            "duration": 0.3125,
            "ticks": 428032,
            "durationTicks": 512
          },
          {
            "time": 261.5625,
            "midi": 74,
            "name": "D5",
            "velocity": 0.3858267716535433,
            "duration": 0.3125,
            "ticks": 428544,
            "durationTicks": 512
          },
          {
            "time": 261.875,
            "midi": 76,
            "name": "E5",
            "velocity": 0.3858267716535433,
            "duration": 0.625,
            "ticks": 429056,
            "durationTicks": 1024
          },
          {
            "time": 262.5,
            "midi": 77,
            "name": "F5",
            "velocity": 0.3858267716535433,
            "duration": 0.625,
            "ticks": 430080,
            "durationTicks": 1024
          },
          {
            "time": 263.125,
            "midi": 72,
            "name": "C5",
            "velocity": 0.3858267716535433,
            "duration": 0.625,
            "ticks": 431104,
            "durationTicks": 1024
          },
          {
            "time": 263.75,
            "midi": 77,
            "name": "F5",
            "velocity": 0.3858267716535433,
            "duration": 0.625,
            "ticks": 432128,
            "durationTicks": 1024
          },
          {
            "time": 264.375,
            "midi": 75,
            "name": "D#5",
            "velocity": 0.3858267716535433,
            "duration": 0.625,
            "ticks": 433152,
            "durationTicks": 1024
          },
          {
            "time": 265,
            "midi": 73,
            "name": "C#5",
            "velocity": 0.3858267716535433,
            "duration": 0.625,
            "ticks": 434176,
            "durationTicks": 1024
          },
          {
            "time": 265.625,
            "midi": 74,
            "name": "D5",
            "velocity": 0.3858267716535433,
            "duration": 0.625,
            "ticks": 435200,
            "durationTicks": 1024
          },
          {
            "time": 266.25,
            "midi": 57,
            "name": "A3",
            "velocity": 0.3858267716535433,
            "duration": 0.625,
            "ticks": 436224,
            "durationTicks": 1024
          },
          {
            "time": 266.875,
            "midi": 73,
            "name": "C#5",
            "velocity": 0.3858267716535433,
            "duration": 1.25,
            "ticks": 437248,
            "durationTicks": 2048
          },
          {
            "time": 268.125,
            "midi": 74,
            "name": "D5",
            "velocity": 0.3858267716535433,
            "duration": 1.875,
            "ticks": 439296,
            "durationTicks": 3072
          },
          {
            "time": 270,
            "midi": 74,
            "name": "D5",
            "velocity": 0.3858267716535433,
            "duration": 0.3125,
            "ticks": 442368,
            "durationTicks": 512
          },
          {
            "time": 270.3125,
            "midi": 62,
            "name": "D4",
            "velocity": 0.3858267716535433,
            "duration": 0.3125,
            "ticks": 442880,
            "durationTicks": 512
          },
          {
            "time": 270.625,
            "midi": 65,
            "name": "F4",
            "velocity": 0.3858267716535433,
            "duration": 0.3125,
            "ticks": 443392,
            "durationTicks": 512
          },
          {
            "time": 270.9375,
            "midi": 62,
            "name": "D4",
            "velocity": 0.3858267716535433,
            "duration": 0.3125,
            "ticks": 443904,
            "durationTicks": 512
          },
          {
            "time": 271.25,
            "midi": 69,
            "name": "A4",
            "velocity": 0.3858267716535433,
            "duration": 0.3125,
            "ticks": 444416,
            "durationTicks": 512
          },
          {
            "time": 271.5625,
            "midi": 74,
            "name": "D5",
            "velocity": 0.3858267716535433,
            "duration": 0.3125,
            "ticks": 444928,
            "durationTicks": 512
          },
          {
            "time": 271.875,
            "midi": 73,
            "name": "C#5",
            "velocity": 0.3858267716535433,
            "duration": 0.3125,
            "ticks": 445440,
            "durationTicks": 512
          },
          {
            "time": 272.1875,
            "midi": 57,
            "name": "A3",
            "velocity": 0.3858267716535433,
            "duration": 0.3125,
            "ticks": 445952,
            "durationTicks": 512
          },
          {
            "time": 272.5,
            "midi": 61,
            "name": "C#4",
            "velocity": 0.3858267716535433,
            "duration": 0.3125,
            "ticks": 446464,
            "durationTicks": 512
          },
          {
            "time": 272.8125,
            "midi": 64,
            "name": "E4",
            "velocity": 0.3858267716535433,
            "duration": 0.3125,
            "ticks": 446976,
            "durationTicks": 512
          },
          {
            "time": 273.125,
            "midi": 69,
            "name": "A4",
            "velocity": 0.3858267716535433,
            "duration": 0.3125,
            "ticks": 447488,
            "durationTicks": 512
          },
          {
            "time": 273.4375,
            "midi": 73,
            "name": "C#5",
            "velocity": 0.3858267716535433,
            "duration": 0.3125,
            "ticks": 448000,
            "durationTicks": 512
          },
          {
            "time": 273.75,
            "midi": 74,
            "name": "D5",
            "velocity": 0.3858267716535433,
            "duration": 0.3125,
            "ticks": 448512,
            "durationTicks": 512
          },
          {
            "time": 274.0625,
            "midi": 62,
            "name": "D4",
            "velocity": 0.3858267716535433,
            "duration": 0.3125,
            "ticks": 449024,
            "durationTicks": 512
          },
          {
            "time": 274.375,
            "midi": 65,
            "name": "F4",
            "velocity": 0.3858267716535433,
            "duration": 0.3125,
            "ticks": 449536,
            "durationTicks": 512
          },
          {
            "time": 274.6875,
            "midi": 62,
            "name": "D4",
            "velocity": 0.3858267716535433,
            "duration": 0.3125,
            "ticks": 450048,
            "durationTicks": 512
          },
          {
            "time": 275,
            "midi": 69,
            "name": "A4",
            "velocity": 0.3858267716535433,
            "duration": 0.3125,
            "ticks": 450560,
            "durationTicks": 512
          },
          {
            "time": 275.3125,
            "midi": 74,
            "name": "D5",
            "velocity": 0.3858267716535433,
            "duration": 0.3125,
            "ticks": 451072,
            "durationTicks": 512
          },
          {
            "time": 275.625,
            "midi": 76,
            "name": "E5",
            "velocity": 0.3858267716535433,
            "duration": 0.3125,
            "ticks": 451584,
            "durationTicks": 512
          },
          {
            "time": 275.9375,
            "midi": 60,
            "name": "C4",
            "velocity": 0.3858267716535433,
            "duration": 0.3125,
            "ticks": 452096,
            "durationTicks": 512
          },
          {
            "time": 276.25,
            "midi": 64,
            "name": "E4",
            "velocity": 0.3858267716535433,
            "duration": 0.3125,
            "ticks": 452608,
            "durationTicks": 512
          },
          {
            "time": 276.5625,
            "midi": 67,
            "name": "G4",
            "velocity": 0.3858267716535433,
            "duration": 0.3125,
            "ticks": 453120,
            "durationTicks": 512
          },
          {
            "time": 276.875,
            "midi": 72,
            "name": "C5",
            "velocity": 0.3858267716535433,
            "duration": 0.3125,
            "ticks": 453632,
            "durationTicks": 512
          },
          {
            "time": 277.1875,
            "midi": 76,
            "name": "E5",
            "velocity": 0.3858267716535433,
            "duration": 0.3125,
            "ticks": 454144,
            "durationTicks": 512
          },
          {
            "time": 277.5,
            "midi": 77,
            "name": "F5",
            "velocity": 0.3858267716535433,
            "duration": 0.3125,
            "ticks": 454656,
            "durationTicks": 512
          },
          {
            "time": 277.8125,
            "midi": 65,
            "name": "F4",
            "velocity": 0.3858267716535433,
            "duration": 0.3125,
            "ticks": 455168,
            "durationTicks": 512
          },
          {
            "time": 278.125,
            "midi": 69,
            "name": "A4",
            "velocity": 0.3858267716535433,
            "duration": 0.3125,
            "ticks": 455680,
            "durationTicks": 512
          },
          {
            "time": 278.4375,
            "midi": 65,
            "name": "F4",
            "velocity": 0.3858267716535433,
            "duration": 0.3125,
            "ticks": 456192,
            "durationTicks": 512
          },
          {
            "time": 278.75,
            "midi": 72,
            "name": "C5",
            "velocity": 0.3858267716535433,
            "duration": 0.3125,
            "ticks": 456704,
            "durationTicks": 512
          },
          {
            "time": 279.0625,
            "midi": 77,
            "name": "F5",
            "velocity": 0.3858267716535433,
            "duration": 0.3125,
            "ticks": 457216,
            "durationTicks": 512
          },
          {
            "time": 279.375,
            "midi": 76,
            "name": "E5",
            "velocity": 0.3858267716535433,
            "duration": 0.3125,
            "ticks": 457728,
            "durationTicks": 512
          },
          {
            "time": 279.6875,
            "midi": 60,
            "name": "C4",
            "velocity": 0.3858267716535433,
            "duration": 0.3125,
            "ticks": 458240,
            "durationTicks": 512
          },
          {
            "time": 280,
            "midi": 64,
            "name": "E4",
            "velocity": 0.3858267716535433,
            "duration": 0.3125,
            "ticks": 458752,
            "durationTicks": 512
          },
          {
            "time": 280.3125,
            "midi": 67,
            "name": "G4",
            "velocity": 0.3858267716535433,
            "duration": 0.3125,
            "ticks": 459264,
            "durationTicks": 512
          },
          {
            "time": 280.625,
            "midi": 73,
            "name": "C#5",
            "velocity": 0.3858267716535433,
            "duration": 0.3125,
            "ticks": 459776,
            "durationTicks": 512
          },
          {
            "time": 280.9375,
            "midi": 76,
            "name": "E5",
            "velocity": 0.3858267716535433,
            "duration": 0.3125,
            "ticks": 460288,
            "durationTicks": 512
          },
          {
            "time": 281.25,
            "midi": 74,
            "name": "D5",
            "velocity": 0.3858267716535433,
            "duration": 0.3125,
            "ticks": 460800,
            "durationTicks": 512
          },
          {
            "time": 281.5625,
            "midi": 62,
            "name": "D4",
            "velocity": 0.3858267716535433,
            "duration": 0.3125,
            "ticks": 461312,
            "durationTicks": 512
          },
          {
            "time": 281.875,
            "midi": 65,
            "name": "F4",
            "velocity": 0.3858267716535433,
            "duration": 0.3125,
            "ticks": 461824,
            "durationTicks": 512
          },
          {
            "time": 282.1875,
            "midi": 62,
            "name": "D4",
            "velocity": 0.3858267716535433,
            "duration": 0.3125,
            "ticks": 462336,
            "durationTicks": 512
          },
          {
            "time": 282.5,
            "midi": 70,
            "name": "A#4",
            "velocity": 0.3858267716535433,
            "duration": 0.3125,
            "ticks": 462848,
            "durationTicks": 512
          },
          {
            "time": 282.8125,
            "midi": 74,
            "name": "D5",
            "velocity": 0.3858267716535433,
            "duration": 0.3125,
            "ticks": 463360,
            "durationTicks": 512
          },
          {
            "time": 283.125,
            "midi": 73,
            "name": "C#5",
            "velocity": 0.3858267716535433,
            "duration": 0.3125,
            "ticks": 463872,
            "durationTicks": 512
          },
          {
            "time": 283.4375,
            "midi": 57,
            "name": "A3",
            "velocity": 0.3858267716535433,
            "duration": 0.3125,
            "ticks": 464384,
            "durationTicks": 512
          },
          {
            "time": 283.75,
            "midi": 61,
            "name": "C#4",
            "velocity": 0.3858267716535433,
            "duration": 0.3125,
            "ticks": 464896,
            "durationTicks": 512
          },
          {
            "time": 284.0625,
            "midi": 64,
            "name": "E4",
            "velocity": 0.3858267716535433,
            "duration": 0.3125,
            "ticks": 465408,
            "durationTicks": 512
          },
          {
            "time": 284.375,
            "midi": 69,
            "name": "A4",
            "velocity": 0.3858267716535433,
            "duration": 0.3125,
            "ticks": 465920,
            "durationTicks": 512
          },
          {
            "time": 284.6875,
            "midi": 73,
            "name": "C#5",
            "velocity": 0.3858267716535433,
            "duration": 0.3125,
            "ticks": 466432,
            "durationTicks": 512
          },
          {
            "time": 285,
            "midi": 74,
            "name": "D5",
            "velocity": 0.3858267716535433,
            "duration": 0.3125,
            "ticks": 466944,
            "durationTicks": 512
          },
          {
            "time": 285.3125,
            "midi": 62,
            "name": "D4",
            "velocity": 0.3858267716535433,
            "duration": 0.3125,
            "ticks": 467456,
            "durationTicks": 512
          },
          {
            "time": 285.625,
            "midi": 65,
            "name": "F4",
            "velocity": 0.3858267716535433,
            "duration": 0.3125,
            "ticks": 467968,
            "durationTicks": 512
          },
          {
            "time": 285.9375,
            "midi": 62,
            "name": "D4",
            "velocity": 0.3858267716535433,
            "duration": 0.3125,
            "ticks": 468480,
            "durationTicks": 512
          },
          {
            "time": 286.25,
            "midi": 69,
            "name": "A4",
            "velocity": 0.3858267716535433,
            "duration": 0.3125,
            "ticks": 468992,
            "durationTicks": 512
          },
          {
            "time": 286.5625,
            "midi": 74,
            "name": "D5",
            "velocity": 0.3858267716535433,
            "duration": 0.3125,
            "ticks": 469504,
            "durationTicks": 512
          },
          {
            "time": 286.875,
            "midi": 73,
            "name": "C#5",
            "velocity": 0.3858267716535433,
            "duration": 0.3125,
            "ticks": 470016,
            "durationTicks": 512
          },
          {
            "time": 287.1875,
            "midi": 57,
            "name": "A3",
            "velocity": 0.3858267716535433,
            "duration": 0.3125,
            "ticks": 470528,
            "durationTicks": 512
          },
          {
            "time": 287.5,
            "midi": 61,
            "name": "C#4",
            "velocity": 0.3858267716535433,
            "duration": 0.3125,
            "ticks": 471040,
            "durationTicks": 512
          },
          {
            "time": 287.8125,
            "midi": 64,
            "name": "E4",
            "velocity": 0.3858267716535433,
            "duration": 0.3125,
            "ticks": 471552,
            "durationTicks": 512
          },
          {
            "time": 288.125,
            "midi": 69,
            "name": "A4",
            "velocity": 0.3858267716535433,
            "duration": 0.3125,
            "ticks": 472064,
            "durationTicks": 512
          },
          {
            "time": 288.4375,
            "midi": 73,
            "name": "C#5",
            "velocity": 0.3858267716535433,
            "duration": 0.3125,
            "ticks": 472576,
            "durationTicks": 512
          },
          {
            "time": 288.75,
            "midi": 74,
            "name": "D5",
            "velocity": 0.3858267716535433,
            "duration": 0.3125,
            "ticks": 473088,
            "durationTicks": 512
          },
          {
            "time": 289.0625,
            "midi": 62,
            "name": "D4",
            "velocity": 0.3858267716535433,
            "duration": 0.3125,
            "ticks": 473600,
            "durationTicks": 512
          },
          {
            "time": 289.375,
            "midi": 65,
            "name": "F4",
            "velocity": 0.3858267716535433,
            "duration": 0.3125,
            "ticks": 474112,
            "durationTicks": 512
          },
          {
            "time": 289.6875,
            "midi": 62,
            "name": "D4",
            "velocity": 0.3858267716535433,
            "duration": 0.3125,
            "ticks": 474624,
            "durationTicks": 512
          },
          {
            "time": 290,
            "midi": 69,
            "name": "A4",
            "velocity": 0.3858267716535433,
            "duration": 0.3125,
            "ticks": 475136,
            "durationTicks": 512
          },
          {
            "time": 290.3125,
            "midi": 74,
            "name": "D5",
            "velocity": 0.3858267716535433,
            "duration": 0.3125,
            "ticks": 475648,
            "durationTicks": 512
          },
          {
            "time": 290.625,
            "midi": 76,
            "name": "E5",
            "velocity": 0.3858267716535433,
            "duration": 0.3125,
            "ticks": 476160,
            "durationTicks": 512
          },
          {
            "time": 290.9375,
            "midi": 60,
            "name": "C4",
            "velocity": 0.3858267716535433,
            "duration": 0.3125,
            "ticks": 476672,
            "durationTicks": 512
          },
          {
            "time": 291.25,
            "midi": 64,
            "name": "E4",
            "velocity": 0.3858267716535433,
            "duration": 0.3125,
            "ticks": 477184,
            "durationTicks": 512
          },
          {
            "time": 291.5625,
            "midi": 67,
            "name": "G4",
            "velocity": 0.3858267716535433,
            "duration": 0.3125,
            "ticks": 477696,
            "durationTicks": 512
          },
          {
            "time": 291.875,
            "midi": 72,
            "name": "C5",
            "velocity": 0.3858267716535433,
            "duration": 0.3125,
            "ticks": 478208,
            "durationTicks": 512
          },
          {
            "time": 292.1875,
            "midi": 76,
            "name": "E5",
            "velocity": 0.3858267716535433,
            "duration": 0.3125,
            "ticks": 478720,
            "durationTicks": 512
          },
          {
            "time": 292.5,
            "midi": 77,
            "name": "F5",
            "velocity": 0.3858267716535433,
            "duration": 0.3125,
            "ticks": 479232,
            "durationTicks": 512
          },
          {
            "time": 292.8125,
            "midi": 65,
            "name": "F4",
            "velocity": 0.3858267716535433,
            "duration": 0.3125,
            "ticks": 479744,
            "durationTicks": 512
          },
          {
            "time": 293.125,
            "midi": 69,
            "name": "A4",
            "velocity": 0.3858267716535433,
            "duration": 0.3125,
            "ticks": 480256,
            "durationTicks": 512
          },
          {
            "time": 293.4375,
            "midi": 65,
            "name": "F4",
            "velocity": 0.3858267716535433,
            "duration": 0.3125,
            "ticks": 480768,
            "durationTicks": 512
          },
          {
            "time": 293.75,
            "midi": 72,
            "name": "C5",
            "velocity": 0.3858267716535433,
            "duration": 0.3125,
            "ticks": 481280,
            "durationTicks": 512
          },
          {
            "time": 294.0625,
            "midi": 77,
            "name": "F5",
            "velocity": 0.3858267716535433,
            "duration": 0.3125,
            "ticks": 481792,
            "durationTicks": 512
          },
          {
            "time": 294.375,
            "midi": 76,
            "name": "E5",
            "velocity": 0.3858267716535433,
            "duration": 0.3125,
            "ticks": 482304,
            "durationTicks": 512
          },
          {
            "time": 294.6875,
            "midi": 77,
            "name": "F5",
            "velocity": 0.3858267716535433,
            "duration": 0.3125,
            "ticks": 482816,
            "durationTicks": 512
          },
          {
            "time": 295,
            "midi": 79,
            "name": "G5",
            "velocity": 0.3858267716535433,
            "duration": 0.3125,
            "ticks": 483328,
            "durationTicks": 512
          },
          {
            "time": 295.3125,
            "midi": 73,
            "name": "C#5",
            "velocity": 0.3858267716535433,
            "duration": 0.3125,
            "ticks": 483840,
            "durationTicks": 512
          },
          {
            "time": 295.625,
            "midi": 69,
            "name": "A4",
            "velocity": 0.3858267716535433,
            "duration": 0.3125,
            "ticks": 484352,
            "durationTicks": 512
          },
          {
            "time": 295.9375,
            "midi": 79,
            "name": "G5",
            "velocity": 0.3858267716535433,
            "duration": 0.3125,
            "ticks": 484864,
            "durationTicks": 512
          },
          {
            "time": 296.25,
            "midi": 77,
            "name": "F5",
            "velocity": 0.3858267716535433,
            "duration": 0.3125,
            "ticks": 485376,
            "durationTicks": 512
          },
          {
            "time": 296.5625,
            "midi": 76,
            "name": "E5",
            "velocity": 0.3858267716535433,
            "duration": 0.15625,
            "ticks": 485888,
            "durationTicks": 256
          },
          {
            "time": 296.71875,
            "midi": 74,
            "name": "D5",
            "velocity": 0.3858267716535433,
            "duration": 0.15625,
            "ticks": 486144,
            "durationTicks": 256
          },
          {
            "time": 296.875,
            "midi": 73,
            "name": "C#5",
            "velocity": 0.3858267716535433,
            "duration": 0.9375,
            "ticks": 486400,
            "durationTicks": 1536
          },
          {
            "time": 297.8125,
            "midi": 74,
            "name": "D5",
            "velocity": 0.3858267716535433,
            "duration": 0.3125,
            "ticks": 487936,
            "durationTicks": 512
          },
          {
            "time": 298.125,
            "midi": 74,
            "name": "D5",
            "velocity": 0.3858267716535433,
            "duration": 1.875,
            "ticks": 488448,
            "durationTicks": 3072
          },
          {
            "time": 300.15625,
            "midi": 81,
            "name": "A5",
            "velocity": 0.3858267716535433,
            "duration": 0.15625,
            "ticks": 491776,
            "durationTicks": 256
          },
          {
            "time": 300.3125,
            "midi": 77,
            "name": "F5",
            "velocity": 0.3858267716535433,
            "duration": 0.15625,
            "ticks": 492032,
            "durationTicks": 256
          },
          {
            "time": 300.46875,
            "midi": 81,
            "name": "A5",
            "velocity": 0.3858267716535433,
            "duration": 0.15625,
            "ticks": 492288,
            "durationTicks": 256
          },
          {
            "time": 300.625,
            "midi": 74,
            "name": "D5",
            "velocity": 0.3858267716535433,
            "duration": 0.625,
            "ticks": 492544,
            "durationTicks": 1024
          },
          {
            "time": 301.40625,
            "midi": 81,
            "name": "A5",
            "velocity": 0.3858267716535433,
            "duration": 0.15625,
            "ticks": 493824,
            "durationTicks": 256
          },
          {
            "time": 301.5625,
            "midi": 77,
            "name": "F5",
            "velocity": 0.3858267716535433,
            "duration": 0.15625,
            "ticks": 494080,
            "durationTicks": 256
          },
          {
            "time": 301.71875,
            "midi": 81,
            "name": "A5",
            "velocity": 0.3858267716535433,
            "duration": 0.15625,
            "ticks": 494336,
            "durationTicks": 256
          },
          {
            "time": 301.875,
            "midi": 73,
            "name": "C#5",
            "velocity": 0.3858267716535433,
            "duration": 0.625,
            "ticks": 494592,
            "durationTicks": 1024
          },
          {
            "time": 302.65625,
            "midi": 81,
            "name": "A5",
            "velocity": 0.3858267716535433,
            "duration": 0.15625,
            "ticks": 495872,
            "durationTicks": 256
          },
          {
            "time": 302.8125,
            "midi": 76,
            "name": "E5",
            "velocity": 0.3858267716535433,
            "duration": 0.15625,
            "ticks": 496128,
            "durationTicks": 256
          },
          {
            "time": 302.96875,
            "midi": 81,
            "name": "A5",
            "velocity": 0.3858267716535433,
            "duration": 0.15625,
            "ticks": 496384,
            "durationTicks": 256
          },
          {
            "time": 303.125,
            "midi": 73,
            "name": "C#5",
            "velocity": 0.3858267716535433,
            "duration": 0.625,
            "ticks": 496640,
            "durationTicks": 1024
          },
          {
            "time": 303.90625,
            "midi": 81,
            "name": "A5",
            "velocity": 0.3858267716535433,
            "duration": 0.15625,
            "ticks": 497920,
            "durationTicks": 256
          },
          {
            "time": 304.0625,
            "midi": 77,
            "name": "F5",
            "velocity": 0.3858267716535433,
            "duration": 0.15625,
            "ticks": 498176,
            "durationTicks": 256
          },
          {
            "time": 304.21875,
            "midi": 81,
            "name": "A5",
            "velocity": 0.3858267716535433,
            "duration": 0.15625,
            "ticks": 498432,
            "durationTicks": 256
          },
          {
            "time": 304.375,
            "midi": 74,
            "name": "D5",
            "velocity": 0.3858267716535433,
            "duration": 0.625,
            "ticks": 498688,
            "durationTicks": 1024
          },
          {
            "time": 305.15625,
            "midi": 81,
            "name": "A5",
            "velocity": 0.3858267716535433,
            "duration": 0.15625,
            "ticks": 499968,
            "durationTicks": 256
          },
          {
            "time": 305.3125,
            "midi": 77,
            "name": "F5",
            "velocity": 0.3858267716535433,
            "duration": 0.15625,
            "ticks": 500224,
            "durationTicks": 256
          },
          {
            "time": 305.46875,
            "midi": 81,
            "name": "A5",
            "velocity": 0.3858267716535433,
            "duration": 0.15625,
            "ticks": 500480,
            "durationTicks": 256
          },
          {
            "time": 305.625,
            "midi": 76,
            "name": "E5",
            "velocity": 0.3858267716535433,
            "duration": 0.625,
            "ticks": 500736,
            "durationTicks": 1024
          },
          {
            "time": 306.40625,
            "midi": 84,
            "name": "C6",
            "velocity": 0.3858267716535433,
            "duration": 0.15625,
            "ticks": 502016,
            "durationTicks": 256
          },
          {
            "time": 306.5625,
            "midi": 79,
            "name": "G5",
            "velocity": 0.3858267716535433,
            "duration": 0.15625,
            "ticks": 502272,
            "durationTicks": 256
          },
          {
            "time": 306.71875,
            "midi": 84,
            "name": "C6",
            "velocity": 0.3858267716535433,
            "duration": 0.15625,
            "ticks": 502528,
            "durationTicks": 256
          },
          {
            "time": 306.875,
            "midi": 76,
            "name": "E5",
            "velocity": 0.3858267716535433,
            "duration": 0.625,
            "ticks": 502784,
            "durationTicks": 1024
          },
          {
            "time": 307.65625,
            "midi": 84,
            "name": "C6",
            "velocity": 0.3858267716535433,
            "duration": 0.15625,
            "ticks": 504064,
            "durationTicks": 256
          },
          {
            "time": 307.8125,
            "midi": 81,
            "name": "A5",
            "velocity": 0.3858267716535433,
            "duration": 0.15625,
            "ticks": 504320,
            "durationTicks": 256
          },
          {
            "time": 307.96875,
            "midi": 84,
            "name": "C6",
            "velocity": 0.3858267716535433,
            "duration": 0.15625,
            "ticks": 504576,
            "durationTicks": 256
          },
          {
            "time": 308.125,
            "midi": 77,
            "name": "F5",
            "velocity": 0.3858267716535433,
            "duration": 0.625,
            "ticks": 504832,
            "durationTicks": 1024
          },
          {
            "time": 308.90625,
            "midi": 84,
            "name": "C6",
            "velocity": 0.3858267716535433,
            "duration": 0.15625,
            "ticks": 506112,
            "durationTicks": 256
          },
          {
            "time": 309.0625,
            "midi": 81,
            "name": "A5",
            "velocity": 0.3858267716535433,
            "duration": 0.15625,
            "ticks": 506368,
            "durationTicks": 256
          },
          {
            "time": 309.21875,
            "midi": 84,
            "name": "C6",
            "velocity": 0.3858267716535433,
            "duration": 0.15625,
            "ticks": 506624,
            "durationTicks": 256
          },
          {
            "time": 309.375,
            "midi": 76,
            "name": "E5",
            "velocity": 0.3858267716535433,
            "duration": 0.625,
            "ticks": 506880,
            "durationTicks": 1024
          },
          {
            "time": 310.15625,
            "midi": 79,
            "name": "G5",
            "velocity": 0.3858267716535433,
            "duration": 0.15625,
            "ticks": 508160,
            "durationTicks": 256
          },
          {
            "time": 310.3125,
            "midi": 76,
            "name": "E5",
            "velocity": 0.3858267716535433,
            "duration": 0.15625,
            "ticks": 508416,
            "durationTicks": 256
          },
          {
            "time": 310.46875,
            "midi": 79,
            "name": "G5",
            "velocity": 0.3858267716535433,
            "duration": 0.15625,
            "ticks": 508672,
            "durationTicks": 256
          },
          {
            "time": 310.625,
            "midi": 73,
            "name": "C#5",
            "velocity": 0.3858267716535433,
            "duration": 0.625,
            "ticks": 508928,
            "durationTicks": 1024
          },
          {
            "time": 311.40625,
            "midi": 81,
            "name": "A5",
            "velocity": 0.3858267716535433,
            "duration": 0.15625,
            "ticks": 510208,
            "durationTicks": 256
          },
          {
            "time": 311.5625,
            "midi": 77,
            "name": "F5",
            "velocity": 0.3858267716535433,
            "duration": 0.15625,
            "ticks": 510464,
            "durationTicks": 256
          },
          {
            "time": 311.71875,
            "midi": 81,
            "name": "A5",
            "velocity": 0.3858267716535433,
            "duration": 0.15625,
            "ticks": 510720,
            "durationTicks": 256
          },
          {
            "time": 311.875,
            "midi": 74,
            "name": "D5",
            "velocity": 0.3858267716535433,
            "duration": 0.625,
            "ticks": 510976,
            "durationTicks": 1024
          },
          {
            "time": 312.65625,
            "midi": 74,
            "name": "D5",
            "velocity": 0.3858267716535433,
            "duration": 0.15625,
            "ticks": 512256,
            "durationTicks": 256
          },
          {
            "time": 312.8125,
            "midi": 77,
            "name": "F5",
            "velocity": 0.3858267716535433,
            "duration": 0.15625,
            "ticks": 512512,
            "durationTicks": 256
          },
          {
            "time": 312.96875,
            "midi": 74,
            "name": "D5",
            "velocity": 0.3858267716535433,
            "duration": 0.15625,
            "ticks": 512768,
            "durationTicks": 256
          },
          {
            "time": 313.125,
            "midi": 73,
            "name": "C#5",
            "velocity": 0.3858267716535433,
            "duration": 0.625,
            "ticks": 513024,
            "durationTicks": 1024
          },
          {
            "time": 313.90625,
            "midi": 81,
            "name": "A5",
            "velocity": 0.3858267716535433,
            "duration": 0.15625,
            "ticks": 514304,
            "durationTicks": 256
          },
          {
            "time": 314.0625,
            "midi": 76,
            "name": "E5",
            "velocity": 0.3858267716535433,
            "duration": 0.15625,
            "ticks": 514560,
            "durationTicks": 256
          },
          {
            "time": 314.21875,
            "midi": 81,
            "name": "A5",
            "velocity": 0.3858267716535433,
            "duration": 0.15625,
            "ticks": 514816,
            "durationTicks": 256
          },
          {
            "time": 314.375,
            "midi": 73,
            "name": "C#5",
            "velocity": 0.3858267716535433,
            "duration": 0.625,
            "ticks": 515072,
            "durationTicks": 1024
          },
          {
            "time": 315.15625,
            "midi": 81,
            "name": "A5",
            "velocity": 0.3858267716535433,
            "duration": 0.15625,
            "ticks": 516352,
            "durationTicks": 256
          },
          {
            "time": 315.3125,
            "midi": 77,
            "name": "F5",
            "velocity": 0.3858267716535433,
            "duration": 0.15625,
            "ticks": 516608,
            "durationTicks": 256
          },
          {
            "time": 315.46875,
            "midi": 81,
            "name": "A5",
            "velocity": 0.3858267716535433,
            "duration": 0.15625,
            "ticks": 516864,
            "durationTicks": 256
          },
          {
            "time": 315.625,
            "midi": 74,
            "name": "D5",
            "velocity": 0.3858267716535433,
            "duration": 0.625,
            "ticks": 517120,
            "durationTicks": 1024
          },
          {
            "time": 316.40625,
            "midi": 81,
            "name": "A5",
            "velocity": 0.3858267716535433,
            "duration": 0.15625,
            "ticks": 518400,
            "durationTicks": 256
          },
          {
            "time": 316.5625,
            "midi": 77,
            "name": "F5",
            "velocity": 0.3858267716535433,
            "duration": 0.15625,
            "ticks": 518656,
            "durationTicks": 256
          },
          {
            "time": 316.71875,
            "midi": 81,
            "name": "A5",
            "velocity": 0.3858267716535433,
            "duration": 0.15625,
            "ticks": 518912,
            "durationTicks": 256
          },
          {
            "time": 316.875,
            "midi": 73,
            "name": "C#5",
            "velocity": 0.3858267716535433,
            "duration": 0.625,
            "ticks": 519168,
            "durationTicks": 1024
          },
          {
            "time": 317.65625,
            "midi": 81,
            "name": "A5",
            "velocity": 0.3858267716535433,
            "duration": 0.15625,
            "ticks": 520448,
            "durationTicks": 256
          },
          {
            "time": 317.8125,
            "midi": 76,
            "name": "E5",
            "velocity": 0.3858267716535433,
            "duration": 0.15625,
            "ticks": 520704,
            "durationTicks": 256
          },
          {
            "time": 317.96875,
            "midi": 81,
            "name": "A5",
            "velocity": 0.3858267716535433,
            "duration": 0.15625,
            "ticks": 520960,
            "durationTicks": 256
          },
          {
            "time": 318.125,
            "midi": 73,
            "name": "C#5",
            "velocity": 0.3858267716535433,
            "duration": 0.625,
            "ticks": 521216,
            "durationTicks": 1024
          },
          {
            "time": 318.90625,
            "midi": 81,
            "name": "A5",
            "velocity": 0.3858267716535433,
            "duration": 0.15625,
            "ticks": 522496,
            "durationTicks": 256
          },
          {
            "time": 319.0625,
            "midi": 77,
            "name": "F5",
            "velocity": 0.3858267716535433,
            "duration": 0.15625,
            "ticks": 522752,
            "durationTicks": 256
          },
          {
            "time": 319.21875,
            "midi": 81,
            "name": "A5",
            "velocity": 0.3858267716535433,
            "duration": 0.15625,
            "ticks": 523008,
            "durationTicks": 256
          },
          {
            "time": 319.375,
            "midi": 74,
            "name": "D5",
            "velocity": 0.3858267716535433,
            "duration": 0.625,
            "ticks": 523264,
            "durationTicks": 1024
          },
          {
            "time": 320.15625,
            "midi": 81,
            "name": "A5",
            "velocity": 0.3858267716535433,
            "duration": 0.15625,
            "ticks": 524544,
            "durationTicks": 256
          },
          {
            "time": 320.3125,
            "midi": 77,
            "name": "F5",
            "velocity": 0.3858267716535433,
            "duration": 0.15625,
            "ticks": 524800,
            "durationTicks": 256
          },
          {
            "time": 320.46875,
            "midi": 81,
            "name": "A5",
            "velocity": 0.3858267716535433,
            "duration": 0.15625,
            "ticks": 525056,
            "durationTicks": 256
          },
          {
            "time": 320.625,
            "midi": 76,
            "name": "E5",
            "velocity": 0.3858267716535433,
            "duration": 0.625,
            "ticks": 525312,
            "durationTicks": 1024
          },
          {
            "time": 321.40625,
            "midi": 84,
            "name": "C6",
            "velocity": 0.3858267716535433,
            "duration": 0.15625,
            "ticks": 526592,
            "durationTicks": 256
          },
          {
            "time": 321.5625,
            "midi": 79,
            "name": "G5",
            "velocity": 0.3858267716535433,
            "duration": 0.15625,
            "ticks": 526848,
            "durationTicks": 256
          },
          {
            "time": 321.71875,
            "midi": 84,
            "name": "C6",
            "velocity": 0.3858267716535433,
            "duration": 0.15625,
            "ticks": 527104,
            "durationTicks": 256
          },
          {
            "time": 321.875,
            "midi": 76,
            "name": "E5",
            "velocity": 0.3858267716535433,
            "duration": 0.625,
            "ticks": 527360,
            "durationTicks": 1024
          },
          {
            "time": 322.65625,
            "midi": 84,
            "name": "C6",
            "velocity": 0.3858267716535433,
            "duration": 0.15625,
            "ticks": 528640,
            "durationTicks": 256
          },
          {
            "time": 322.8125,
            "midi": 81,
            "name": "A5",
            "velocity": 0.3858267716535433,
            "duration": 0.15625,
            "ticks": 528896,
            "durationTicks": 256
          },
          {
            "time": 322.96875,
            "midi": 84,
            "name": "C6",
            "velocity": 0.3858267716535433,
            "duration": 0.15625,
            "ticks": 529152,
            "durationTicks": 256
          },
          {
            "time": 323.125,
            "midi": 77,
            "name": "F5",
            "velocity": 0.3858267716535433,
            "duration": 0.625,
            "ticks": 529408,
            "durationTicks": 1024
          },
          {
            "time": 323.90625,
            "midi": 84,
            "name": "C6",
            "velocity": 0.3858267716535433,
            "duration": 0.15625,
            "ticks": 530688,
            "durationTicks": 256
          },
          {
            "time": 324.0625,
            "midi": 81,
            "name": "A5",
            "velocity": 0.3858267716535433,
            "duration": 0.15625,
            "ticks": 530944,
            "durationTicks": 256
          },
          {
            "time": 324.21875,
            "midi": 84,
            "name": "C6",
            "velocity": 0.3858267716535433,
            "duration": 0.15625,
            "ticks": 531200,
            "durationTicks": 256
          },
          {
            "time": 324.375,
            "midi": 76,
            "name": "E5",
            "velocity": 0.3858267716535433,
            "duration": 0.625,
            "ticks": 531456,
            "durationTicks": 1024
          },
          {
            "time": 325.15625,
            "midi": 79,
            "name": "G5",
            "velocity": 0.3858267716535433,
            "duration": 0.15625,
            "ticks": 532736,
            "durationTicks": 256
          },
          {
            "time": 325.3125,
            "midi": 76,
            "name": "E5",
            "velocity": 0.3858267716535433,
            "duration": 0.15625,
            "ticks": 532992,
            "durationTicks": 256
          },
          {
            "time": 325.46875,
            "midi": 79,
            "name": "G5",
            "velocity": 0.3858267716535433,
            "duration": 0.15625,
            "ticks": 533248,
            "durationTicks": 256
          },
          {
            "time": 325.625,
            "midi": 73,
            "name": "C#5",
            "velocity": 0.3858267716535433,
            "duration": 0.625,
            "ticks": 533504,
            "durationTicks": 1024
          },
          {
            "time": 326.40625,
            "midi": 77,
            "name": "F5",
            "velocity": 0.3858267716535433,
            "duration": 0.15625,
            "ticks": 534784,
            "durationTicks": 256
          },
          {
            "time": 326.5625,
            "midi": 74,
            "name": "D5",
            "velocity": 0.3858267716535433,
            "duration": 0.15625,
            "ticks": 535040,
            "durationTicks": 256
          },
          {
            "time": 326.71875,
            "midi": 77,
            "name": "F5",
            "velocity": 0.3858267716535433,
            "duration": 0.15625,
            "ticks": 535296,
            "durationTicks": 256
          },
          {
            "time": 326.875,
            "midi": 69,
            "name": "A4",
            "velocity": 0.3858267716535433,
            "duration": 0.15625,
            "ticks": 535552,
            "durationTicks": 256
          },
          {
            "time": 327.03125,
            "midi": 77,
            "name": "F5",
            "velocity": 0.3858267716535433,
            "duration": 0.15625,
            "ticks": 535808,
            "durationTicks": 256
          },
          {
            "time": 327.1875,
            "midi": 74,
            "name": "D5",
            "velocity": 0.3858267716535433,
            "duration": 0.15625,
            "ticks": 536064,
            "durationTicks": 256
          },
          {
            "time": 327.34375,
            "midi": 77,
            "name": "F5",
            "velocity": 0.3858267716535433,
            "duration": 0.15625,
            "ticks": 536320,
            "durationTicks": 256
          },
          {
            "time": 327.5,
            "midi": 69,
            "name": "A4",
            "velocity": 0.3858267716535433,
            "duration": 0.15625,
            "ticks": 536576,
            "durationTicks": 256
          },
          {
            "time": 327.65625,
            "midi": 76,
            "name": "E5",
            "velocity": 0.3858267716535433,
            "duration": 0.15625,
            "ticks": 536832,
            "durationTicks": 256
          },
          {
            "time": 327.8125,
            "midi": 73,
            "name": "C#5",
            "velocity": 0.3858267716535433,
            "duration": 0.15625,
            "ticks": 537088,
            "durationTicks": 256
          },
          {
            "time": 327.96875,
            "midi": 76,
            "name": "E5",
            "velocity": 0.3858267716535433,
            "duration": 0.15625,
            "ticks": 537344,
            "durationTicks": 256
          },
          {
            "time": 328.125,
            "midi": 74,
            "name": "D5",
            "velocity": 0.3858267716535433,
            "duration": 1.875,
            "ticks": 537600,
            "durationTicks": 3072
          },
          {
            "time": 330,
            "midi": 81,
            "name": "A5",
            "velocity": 0.3858267716535433,
            "duration": 0.625,
            "ticks": 540672,
            "durationTicks": 1024
          },
          {
            "time": 330.625,
            "midi": 79,
            "name": "G5",
            "velocity": 0.3858267716535433,
            "duration": 0.3125,
            "ticks": 541696,
            "durationTicks": 512
          },
          {
            "time": 330.9375,
            "midi": 77,
            "name": "F5",
            "velocity": 0.3858267716535433,
            "duration": 0.3125,
            "ticks": 542208,
            "durationTicks": 512
          },
          {
            "time": 331.25,
            "midi": 76,
            "name": "E5",
            "velocity": 0.3858267716535433,
            "duration": 0.3125,
            "ticks": 542720,
            "durationTicks": 512
          },
          {
            "time": 331.5625,
            "midi": 77,
            "name": "F5",
            "velocity": 0.3858267716535433,
            "duration": 0.234375,
            "ticks": 543232,
            "durationTicks": 384
          },
          {
            "time": 331.796875,
            "midi": 79,
            "name": "G5",
            "velocity": 0.3858267716535433,
            "duration": 0.078125,
            "ticks": 543616,
            "durationTicks": 128
          },
          {
            "time": 331.875,
            "midi": 73,
            "name": "C#5",
            "velocity": 0.3858267716535433,
            "duration": 1.25,
            "ticks": 543744,
            "durationTicks": 2048
          },
          {
            "time": 333.125,
            "midi": 73,
            "name": "C#5",
            "velocity": 0.3858267716535433,
            "duration": 0.625,
            "ticks": 545792,
            "durationTicks": 1024
          },
          {
            "time": 333.75,
            "midi": 74,
            "name": "D5",
            "velocity": 0.3858267716535433,
            "duration": 0.625,
            "ticks": 546816,
            "durationTicks": 1024
          },
          {
            "time": 334.375,
            "midi": 74,
            "name": "D5",
            "velocity": 0.3858267716535433,
            "duration": 0.46875,
            "ticks": 547840,
            "durationTicks": 768
          },
          {
            "time": 334.84375,
            "midi": 76,
            "name": "E5",
            "velocity": 0.3858267716535433,
            "duration": 0.15625,
            "ticks": 548608,
            "durationTicks": 256
          },
          {
            "time": 335,
            "midi": 77,
            "name": "F5",
            "velocity": 0.3858267716535433,
            "duration": 0.46875,
            "ticks": 548864,
            "durationTicks": 768
          },
          {
            "time": 335.46875,
            "midi": 79,
            "name": "G5",
            "velocity": 0.3858267716535433,
            "duration": 0.15625,
            "ticks": 549632,
            "durationTicks": 256
          },
          {
            "time": 335.625,
            "midi": 76,
            "name": "E5",
            "velocity": 0.3858267716535433,
            "duration": 1.25,
            "ticks": 549888,
            "durationTicks": 2048
          },
          {
            "time": 336.875,
            "midi": 76,
            "name": "E5",
            "velocity": 0.3858267716535433,
            "duration": 0.625,
            "ticks": 551936,
            "durationTicks": 1024
          },
          {
            "time": 337.5,
            "midi": 77,
            "name": "F5",
            "velocity": 0.3858267716535433,
            "duration": 0.625,
            "ticks": 552960,
            "durationTicks": 1024
          },
          {
            "time": 338.125,
            "midi": 79,
            "name": "G5",
            "velocity": 0.3858267716535433,
            "duration": 0.46875,
            "ticks": 553984,
            "durationTicks": 768
          },
          {
            "time": 338.59375,
            "midi": 81,
            "name": "A5",
            "velocity": 0.3858267716535433,
            "duration": 0.15625,
            "ticks": 554752,
            "durationTicks": 256
          },
          {
            "time": 338.75,
            "midi": 79,
            "name": "G5",
            "velocity": 0.3858267716535433,
            "duration": 0.46875,
            "ticks": 555008,
            "durationTicks": 768
          },
          {
            "time": 339.21875,
            "midi": 77,
            "name": "F5",
            "velocity": 0.3858267716535433,
            "duration": 0.15625,
            "ticks": 555776,
            "durationTicks": 256
          },
          {
            "time": 339.375,
            "midi": 76,
            "name": "E5",
            "velocity": 0.3858267716535433,
            "duration": 0.625,
            "ticks": 556032,
            "durationTicks": 1024
          },
          {
            "time": 340,
            "midi": 77,
            "name": "F5",
            "velocity": 0.3858267716535433,
            "duration": 0.46875,
            "ticks": 557056,
            "durationTicks": 768
          },
          {
            "time": 340.46875,
            "midi": 79,
            "name": "G5",
            "velocity": 0.3858267716535433,
            "duration": 0.15625,
            "ticks": 557824,
            "durationTicks": 256
          },
          {
            "time": 340.625,
            "midi": 77,
            "name": "F5",
            "velocity": 0.3858267716535433,
            "duration": 0.46875,
            "ticks": 558080,
            "durationTicks": 768
          },
          {
            "time": 341.09375,
            "midi": 76,
            "name": "E5",
            "velocity": 0.3858267716535433,
            "duration": 0.15625,
            "ticks": 558848,
            "durationTicks": 256
          },
          {
            "time": 341.25,
            "midi": 74,
            "name": "D5",
            "velocity": 0.3858267716535433,
            "duration": 0.625,
            "ticks": 559104,
            "durationTicks": 1024
          },
          {
            "time": 341.875,
            "midi": 76,
            "name": "E5",
            "velocity": 0.3858267716535433,
            "duration": 0.46875,
            "ticks": 560128,
            "durationTicks": 768
          },
          {
            "time": 342.34375,
            "midi": 77,
            "name": "F5",
            "velocity": 0.3858267716535433,
            "duration": 0.15625,
            "ticks": 560896,
            "durationTicks": 256
          },
          {
            "time": 342.5,
            "midi": 76,
            "name": "E5",
            "velocity": 0.3858267716535433,
            "duration": 0.46875,
            "ticks": 561152,
            "durationTicks": 768
          },
          {
            "time": 342.96875,
            "midi": 74,
            "name": "D5",
            "velocity": 0.3858267716535433,
            "duration": 0.15625,
            "ticks": 561920,
            "durationTicks": 256
          },
          {
            "time": 343.125,
            "midi": 73,
            "name": "C#5",
            "velocity": 0.3858267716535433,
            "duration": 1.875,
            "ticks": 562176,
            "durationTicks": 3072
          },
          {
            "time": 345,
            "midi": 81,
            "name": "A5",
            "velocity": 0.3858267716535433,
            "duration": 0.625,
            "ticks": 565248,
            "durationTicks": 1024
          },
          {
            "time": 345.625,
            "midi": 79,
            "name": "G5",
            "velocity": 0.3858267716535433,
            "duration": 0.3125,
            "ticks": 566272,
            "durationTicks": 512
          },
          {
            "time": 345.9375,
            "midi": 77,
            "name": "F5",
            "velocity": 0.3858267716535433,
            "duration": 0.3125,
            "ticks": 566784,
            "durationTicks": 512
          },
          {
            "time": 346.25,
            "midi": 76,
            "name": "E5",
            "velocity": 0.3858267716535433,
            "duration": 0.3125,
            "ticks": 567296,
            "durationTicks": 512
          },
          {
            "time": 346.5625,
            "midi": 77,
            "name": "F5",
            "velocity": 0.3858267716535433,
            "duration": 0.234375,
            "ticks": 567808,
            "durationTicks": 384
          },
          {
            "time": 346.796875,
            "midi": 79,
            "name": "G5",
            "velocity": 0.3858267716535433,
            "duration": 0.078125,
            "ticks": 568192,
            "durationTicks": 128
          },
          {
            "time": 346.875,
            "midi": 73,
            "name": "C#5",
            "velocity": 0.3858267716535433,
            "duration": 1.25,
            "ticks": 568320,
            "durationTicks": 2048
          },
          {
            "time": 348.125,
            "midi": 73,
            "name": "C#5",
            "velocity": 0.3858267716535433,
            "duration": 0.625,
            "ticks": 570368,
            "durationTicks": 1024
          },
          {
            "time": 348.75,
            "midi": 74,
            "name": "D5",
            "velocity": 0.3858267716535433,
            "duration": 0.625,
            "ticks": 571392,
            "durationTicks": 1024
          },
          {
            "time": 349.375,
            "midi": 74,
            "name": "D5",
            "velocity": 0.3858267716535433,
            "duration": 0.46875,
            "ticks": 572416,
            "durationTicks": 768
          },
          {
            "time": 349.84375,
            "midi": 76,
            "name": "E5",
            "velocity": 0.3858267716535433,
            "duration": 0.15625,
            "ticks": 573184,
            "durationTicks": 256
          },
          {
            "time": 350,
            "midi": 77,
            "name": "F5",
            "velocity": 0.3858267716535433,
            "duration": 0.46875,
            "ticks": 573440,
            "durationTicks": 768
          },
          {
            "time": 350.46875,
            "midi": 79,
            "name": "G5",
            "velocity": 0.3858267716535433,
            "duration": 0.15625,
            "ticks": 574208,
            "durationTicks": 256
          },
          {
            "time": 350.625,
            "midi": 76,
            "name": "E5",
            "velocity": 0.3858267716535433,
            "duration": 1.25,
            "ticks": 574464,
            "durationTicks": 2048
          },
          {
            "time": 351.875,
            "midi": 76,
            "name": "E5",
            "velocity": 0.3858267716535433,
            "duration": 0.625,
            "ticks": 576512,
            "durationTicks": 1024
          },
          {
            "time": 352.5,
            "midi": 81,
            "name": "A5",
            "velocity": 0.3858267716535433,
            "duration": 0.625,
            "ticks": 577536,
            "durationTicks": 1024
          },
          {
            "time": 353.125,
            "midi": 79,
            "name": "G5",
            "velocity": 0.3858267716535433,
            "duration": 0.3125,
            "ticks": 578560,
            "durationTicks": 512
          },
          {
            "time": 353.4375,
            "midi": 77,
            "name": "F5",
            "velocity": 0.3858267716535433,
            "duration": 0.3125,
            "ticks": 579072,
            "durationTicks": 512
          },
          {
            "time": 353.75,
            "midi": 76,
            "name": "E5",
            "velocity": 0.3858267716535433,
            "duration": 0.3125,
            "ticks": 579584,
            "durationTicks": 512
          },
          {
            "time": 354.0625,
            "midi": 77,
            "name": "F5",
            "velocity": 0.3858267716535433,
            "duration": 0.234375,
            "ticks": 580096,
            "durationTicks": 384
          },
          {
            "time": 354.296875,
            "midi": 79,
            "name": "G5",
            "velocity": 0.3858267716535433,
            "duration": 0.078125,
            "ticks": 580480,
            "durationTicks": 128
          },
          {
            "time": 354.375,
            "midi": 73,
            "name": "C#5",
            "velocity": 0.3858267716535433,
            "duration": 0.9375,
            "ticks": 580608,
            "durationTicks": 1536
          },
          {
            "time": 355.3125,
            "midi": 69,
            "name": "A4",
            "velocity": 0.3858267716535433,
            "duration": 0.3125,
            "ticks": 582144,
            "durationTicks": 512
          },
          {
            "time": 355.625,
            "midi": 74,
            "name": "D5",
            "velocity": 0.3858267716535433,
            "duration": 0.78125,
            "ticks": 582656,
            "durationTicks": 1280
          },
          {
            "time": 356.40625,
            "midi": 73,
            "name": "C#5",
            "velocity": 0.3858267716535433,
            "duration": 0.15625,
            "ticks": 583936,
            "durationTicks": 256
          },
          {
            "time": 356.5625,
            "midi": 74,
            "name": "D5",
            "velocity": 0.3858267716535433,
            "duration": 0.15625,
            "ticks": 584192,
            "durationTicks": 256
          },
          {
            "time": 356.71875,
            "midi": 76,
            "name": "E5",
            "velocity": 0.3858267716535433,
            "duration": 0.15625,
            "ticks": 584448,
            "durationTicks": 256
          },
          {
            "time": 356.875,
            "midi": 76,
            "name": "E5",
            "velocity": 0.3858267716535433,
            "duration": 0.9375,
            "ticks": 584704,
            "durationTicks": 1536
          },
          {
            "time": 357.8125,
            "midi": 74,
            "name": "D5",
            "velocity": 0.3858267716535433,
            "duration": 0.3125,
            "ticks": 586240,
            "durationTicks": 512
          },
          {
            "time": 358.125,
            "midi": 74,
            "name": "D5",
            "velocity": 0.3858267716535433,
            "duration": 1.875,
            "ticks": 586752,
            "durationTicks": 3072
          },
          {
            "time": 360,
            "midi": 77,
            "name": "F5",
            "velocity": 0.3858267716535433,
            "duration": 0.3125,
            "ticks": 589824,
            "durationTicks": 512
          },
          {
            "time": 360.3125,
            "midi": 76,
            "name": "E5",
            "velocity": 0.3858267716535433,
            "duration": 0.3125,
            "ticks": 590336,
            "durationTicks": 512
          },
          {
            "time": 360.625,
            "midi": 77,
            "name": "F5",
            "velocity": 0.3858267716535433,
            "duration": 0.3125,
            "ticks": 590848,
            "durationTicks": 512
          },
          {
            "time": 360.9375,
            "midi": 77,
            "name": "F5",
            "velocity": 0.3858267716535433,
            "duration": 0.3125,
            "ticks": 591360,
            "durationTicks": 512
          },
          {
            "time": 361.25,
            "midi": 76,
            "name": "E5",
            "velocity": 0.3858267716535433,
            "duration": 0.3125,
            "ticks": 591872,
            "durationTicks": 512
          },
          {
            "time": 361.5625,
            "midi": 77,
            "name": "F5",
            "velocity": 0.3858267716535433,
            "duration": 0.3125,
            "ticks": 592384,
            "durationTicks": 512
          },
          {
            "time": 361.875,
            "midi": 77,
            "name": "F5",
            "velocity": 0.3858267716535433,
            "duration": 0.3125,
            "ticks": 592896,
            "durationTicks": 512
          },
          {
            "time": 362.1875,
            "midi": 79,
            "name": "G5",
            "velocity": 0.3858267716535433,
            "duration": 0.3125,
            "ticks": 593408,
            "durationTicks": 512
          },
          {
            "time": 362.5,
            "midi": 77,
            "name": "F5",
            "velocity": 0.3858267716535433,
            "duration": 0.3125,
            "ticks": 593920,
            "durationTicks": 512
          },
          {
            "time": 362.8125,
            "midi": 76,
            "name": "E5",
            "velocity": 0.3858267716535433,
            "duration": 0.3125,
            "ticks": 594432,
            "durationTicks": 512
          },
          {
            "time": 363.125,
            "midi": 74,
            "name": "D5",
            "velocity": 0.3858267716535433,
            "duration": 0.3125,
            "ticks": 594944,
            "durationTicks": 512
          },
          {
            "time": 363.4375,
            "midi": 76,
            "name": "E5",
            "velocity": 0.3858267716535433,
            "duration": 0.3125,
            "ticks": 595456,
            "durationTicks": 512
          },
          {
            "time": 363.75,
            "midi": 76,
            "name": "E5",
            "velocity": 0.3858267716535433,
            "duration": 0.3125,
            "ticks": 595968,
            "durationTicks": 512
          },
          {
            "time": 364.0625,
            "midi": 74,
            "name": "D5",
            "velocity": 0.3858267716535433,
            "duration": 0.3125,
            "ticks": 596480,
            "durationTicks": 512
          },
          {
            "time": 364.375,
            "midi": 76,
            "name": "E5",
            "velocity": 0.3858267716535433,
            "duration": 0.3125,
            "ticks": 596992,
            "durationTicks": 512
          },
          {
            "time": 364.6875,
            "midi": 76,
            "name": "E5",
            "velocity": 0.3858267716535433,
            "duration": 0.3125,
            "ticks": 597504,
            "durationTicks": 512
          },
          {
            "time": 365,
            "midi": 74,
            "name": "D5",
            "velocity": 0.3858267716535433,
            "duration": 0.3125,
            "ticks": 598016,
            "durationTicks": 512
          },
          {
            "time": 365.3125,
            "midi": 76,
            "name": "E5",
            "velocity": 0.3858267716535433,
            "duration": 0.3125,
            "ticks": 598528,
            "durationTicks": 512
          },
          {
            "time": 365.625,
            "midi": 77,
            "name": "F5",
            "velocity": 0.3858267716535433,
            "duration": 0.3125,
            "ticks": 599040,
            "durationTicks": 512
          },
          {
            "time": 365.9375,
            "midi": 76,
            "name": "E5",
            "velocity": 0.3858267716535433,
            "duration": 0.3125,
            "ticks": 599552,
            "durationTicks": 512
          },
          {
            "time": 366.25,
            "midi": 77,
            "name": "F5",
            "velocity": 0.3858267716535433,
            "duration": 0.3125,
            "ticks": 600064,
            "durationTicks": 512
          },
          {
            "time": 366.5625,
            "midi": 77,
            "name": "F5",
            "velocity": 0.3858267716535433,
            "duration": 0.3125,
            "ticks": 600576,
            "durationTicks": 512
          },
          {
            "time": 366.875,
            "midi": 76,
            "name": "E5",
            "velocity": 0.3858267716535433,
            "duration": 0.3125,
            "ticks": 601088,
            "durationTicks": 512
          },
          {
            "time": 367.1875,
            "midi": 77,
            "name": "F5",
            "velocity": 0.3858267716535433,
            "duration": 0.3125,
            "ticks": 601600,
            "durationTicks": 512
          },
          {
            "time": 367.5,
            "midi": 77,
            "name": "F5",
            "velocity": 0.3858267716535433,
            "duration": 0.3125,
            "ticks": 602112,
            "durationTicks": 512
          },
          {
            "time": 367.8125,
            "midi": 79,
            "name": "G5",
            "velocity": 0.3858267716535433,
            "duration": 0.3125,
            "ticks": 602624,
            "durationTicks": 512
          },
          {
            "time": 368.125,
            "midi": 77,
            "name": "F5",
            "velocity": 0.3858267716535433,
            "duration": 0.3125,
            "ticks": 603136,
            "durationTicks": 512
          },
          {
            "time": 368.4375,
            "midi": 77,
            "name": "F5",
            "velocity": 0.3858267716535433,
            "duration": 0.3125,
            "ticks": 603648,
            "durationTicks": 512
          },
          {
            "time": 368.75,
            "midi": 76,
            "name": "E5",
            "velocity": 0.3858267716535433,
            "duration": 0.3125,
            "ticks": 604160,
            "durationTicks": 512
          },
          {
            "time": 369.0625,
            "midi": 77,
            "name": "F5",
            "velocity": 0.3858267716535433,
            "duration": 0.3125,
            "ticks": 604672,
            "durationTicks": 512
          },
          {
            "time": 369.375,
            "midi": 77,
            "name": "F5",
            "velocity": 0.3858267716535433,
            "duration": 0.3125,
            "ticks": 605184,
            "durationTicks": 512
          },
          {
            "time": 369.6875,
            "midi": 76,
            "name": "E5",
            "velocity": 0.3858267716535433,
            "duration": 0.3125,
            "ticks": 605696,
            "durationTicks": 512
          },
          {
            "time": 370,
            "midi": 77,
            "name": "F5",
            "velocity": 0.3858267716535433,
            "duration": 0.3125,
            "ticks": 606208,
            "durationTicks": 512
          },
          {
            "time": 370.3125,
            "midi": 77,
            "name": "F5",
            "velocity": 0.3858267716535433,
            "duration": 0.3125,
            "ticks": 606720,
            "durationTicks": 512
          },
          {
            "time": 370.625,
            "midi": 79,
            "name": "G5",
            "velocity": 0.3858267716535433,
            "duration": 0.3125,
            "ticks": 607232,
            "durationTicks": 512
          },
          {
            "time": 370.9375,
            "midi": 77,
            "name": "F5",
            "velocity": 0.3858267716535433,
            "duration": 0.3125,
            "ticks": 607744,
            "durationTicks": 512
          },
          {
            "time": 371.25,
            "midi": 81,
            "name": "A5",
            "velocity": 0.3858267716535433,
            "duration": 0.3125,
            "ticks": 608256,
            "durationTicks": 512
          },
          {
            "time": 371.5625,
            "midi": 79,
            "name": "G5",
            "velocity": 0.3858267716535433,
            "duration": 0.3125,
            "ticks": 608768,
            "durationTicks": 512
          },
          {
            "time": 371.875,
            "midi": 81,
            "name": "A5",
            "velocity": 0.3858267716535433,
            "duration": 0.3125,
            "ticks": 609280,
            "durationTicks": 512
          },
          {
            "time": 372.1875,
            "midi": 81,
            "name": "A5",
            "velocity": 0.3858267716535433,
            "duration": 0.3125,
            "ticks": 609792,
            "durationTicks": 512
          },
          {
            "time": 372.5,
            "midi": 79,
            "name": "G5",
            "velocity": 0.3858267716535433,
            "duration": 0.3125,
            "ticks": 610304,
            "durationTicks": 512
          },
          {
            "time": 372.8125,
            "midi": 81,
            "name": "A5",
            "velocity": 0.3858267716535433,
            "duration": 0.3125,
            "ticks": 610816,
            "durationTicks": 512
          },
          {
            "time": 373.125,
            "midi": 81,
            "name": "A5",
            "velocity": 0.3858267716535433,
            "duration": 0.3125,
            "ticks": 611328,
            "durationTicks": 512
          },
          {
            "time": 373.4375,
            "midi": 82,
            "name": "A#5",
            "velocity": 0.3858267716535433,
            "duration": 0.3125,
            "ticks": 611840,
            "durationTicks": 512
          },
          {
            "time": 373.75,
            "midi": 81,
            "name": "A5",
            "velocity": 0.3858267716535433,
            "duration": 0.3125,
            "ticks": 612352,
            "durationTicks": 512
          },
          {
            "time": 374.0625,
            "midi": 79,
            "name": "G5",
            "velocity": 0.3858267716535433,
            "duration": 0.3125,
            "ticks": 612864,
            "durationTicks": 512
          },
          {
            "time": 374.375,
            "midi": 77,
            "name": "F5",
            "velocity": 0.3858267716535433,
            "duration": 0.3125,
            "ticks": 613376,
            "durationTicks": 512
          },
          {
            "time": 374.6875,
            "midi": 79,
            "name": "G5",
            "velocity": 0.3858267716535433,
            "duration": 0.3125,
            "ticks": 613888,
            "durationTicks": 512
          },
          {
            "time": 375,
            "midi": 79,
            "name": "G5",
            "velocity": 0.3858267716535433,
            "duration": 0.3125,
            "ticks": 614400,
            "durationTicks": 512
          },
          {
            "time": 375.3125,
            "midi": 77,
            "name": "F5",
            "velocity": 0.3858267716535433,
            "duration": 0.3125,
            "ticks": 614912,
            "durationTicks": 512
          },
          {
            "time": 375.625,
            "midi": 79,
            "name": "G5",
            "velocity": 0.3858267716535433,
            "duration": 0.3125,
            "ticks": 615424,
            "durationTicks": 512
          },
          {
            "time": 375.9375,
            "midi": 79,
            "name": "G5",
            "velocity": 0.3858267716535433,
            "duration": 0.3125,
            "ticks": 615936,
            "durationTicks": 512
          },
          {
            "time": 376.25,
            "midi": 81,
            "name": "A5",
            "velocity": 0.3858267716535433,
            "duration": 0.3125,
            "ticks": 616448,
            "durationTicks": 512
          },
          {
            "time": 376.5625,
            "midi": 79,
            "name": "G5",
            "velocity": 0.3858267716535433,
            "duration": 0.3125,
            "ticks": 616960,
            "durationTicks": 512
          },
          {
            "time": 376.875,
            "midi": 77,
            "name": "F5",
            "velocity": 0.3858267716535433,
            "duration": 0.3125,
            "ticks": 617472,
            "durationTicks": 512
          },
          {
            "time": 377.1875,
            "midi": 76,
            "name": "E5",
            "velocity": 0.3858267716535433,
            "duration": 0.3125,
            "ticks": 617984,
            "durationTicks": 512
          },
          {
            "time": 377.5,
            "midi": 77,
            "name": "F5",
            "velocity": 0.3858267716535433,
            "duration": 0.3125,
            "ticks": 618496,
            "durationTicks": 512
          },
          {
            "time": 377.8125,
            "midi": 77,
            "name": "F5",
            "velocity": 0.3858267716535433,
            "duration": 0.3125,
            "ticks": 619008,
            "durationTicks": 512
          },
          {
            "time": 378.125,
            "midi": 76,
            "name": "E5",
            "velocity": 0.3858267716535433,
            "duration": 0.3125,
            "ticks": 619520,
            "durationTicks": 512
          },
          {
            "time": 378.4375,
            "midi": 77,
            "name": "F5",
            "velocity": 0.3858267716535433,
            "duration": 0.3125,
            "ticks": 620032,
            "durationTicks": 512
          },
          {
            "time": 378.75,
            "midi": 77,
            "name": "F5",
            "velocity": 0.3858267716535433,
            "duration": 0.3125,
            "ticks": 620544,
            "durationTicks": 512
          },
          {
            "time": 379.0625,
            "midi": 79,
            "name": "G5",
            "velocity": 0.3858267716535433,
            "duration": 0.3125,
            "ticks": 621056,
            "durationTicks": 512
          },
          {
            "time": 379.375,
            "midi": 77,
            "name": "F5",
            "velocity": 0.3858267716535433,
            "duration": 0.3125,
            "ticks": 621568,
            "durationTicks": 512
          },
          {
            "time": 379.6875,
            "midi": 76,
            "name": "E5",
            "velocity": 0.3858267716535433,
            "duration": 0.3125,
            "ticks": 622080,
            "durationTicks": 512
          },
          {
            "time": 380,
            "midi": 74,
            "name": "D5",
            "velocity": 0.3858267716535433,
            "duration": 0.3125,
            "ticks": 622592,
            "durationTicks": 512
          },
          {
            "time": 380.3125,
            "midi": 76,
            "name": "E5",
            "velocity": 0.3858267716535433,
            "duration": 0.3125,
            "ticks": 623104,
            "durationTicks": 512
          },
          {
            "time": 380.625,
            "midi": 76,
            "name": "E5",
            "velocity": 0.3858267716535433,
            "duration": 0.3125,
            "ticks": 623616,
            "durationTicks": 512
          },
          {
            "time": 380.9375,
            "midi": 74,
            "name": "D5",
            "velocity": 0.3858267716535433,
            "duration": 0.3125,
            "ticks": 624128,
            "durationTicks": 512
          },
          {
            "time": 381.25,
            "midi": 76,
            "name": "E5",
            "velocity": 0.3858267716535433,
            "duration": 0.3125,
            "ticks": 624640,
            "durationTicks": 512
          },
          {
            "time": 381.5625,
            "midi": 76,
            "name": "E5",
            "velocity": 0.3858267716535433,
            "duration": 0.3125,
            "ticks": 625152,
            "durationTicks": 512
          },
          {
            "time": 381.875,
            "midi": 74,
            "name": "D5",
            "velocity": 0.3858267716535433,
            "duration": 0.3125,
            "ticks": 625664,
            "durationTicks": 512
          },
          {
            "time": 382.1875,
            "midi": 76,
            "name": "E5",
            "velocity": 0.3858267716535433,
            "duration": 0.3125,
            "ticks": 626176,
            "durationTicks": 512
          },
          {
            "time": 382.5,
            "midi": 77,
            "name": "F5",
            "velocity": 0.3858267716535433,
            "duration": 0.3125,
            "ticks": 626688,
            "durationTicks": 512
          },
          {
            "time": 382.8125,
            "midi": 76,
            "name": "E5",
            "velocity": 0.3858267716535433,
            "duration": 0.3125,
            "ticks": 627200,
            "durationTicks": 512
          },
          {
            "time": 383.125,
            "midi": 77,
            "name": "F5",
            "velocity": 0.3858267716535433,
            "duration": 0.3125,
            "ticks": 627712,
            "durationTicks": 512
          },
          {
            "time": 383.4375,
            "midi": 77,
            "name": "F5",
            "velocity": 0.3858267716535433,
            "duration": 0.3125,
            "ticks": 628224,
            "durationTicks": 512
          },
          {
            "time": 383.75,
            "midi": 76,
            "name": "E5",
            "velocity": 0.3858267716535433,
            "duration": 0.3125,
            "ticks": 628736,
            "durationTicks": 512
          },
          {
            "time": 384.0625,
            "midi": 77,
            "name": "F5",
            "velocity": 0.3858267716535433,
            "duration": 0.3125,
            "ticks": 629248,
            "durationTicks": 512
          },
          {
            "time": 384.375,
            "midi": 77,
            "name": "F5",
            "velocity": 0.3858267716535433,
            "duration": 0.3125,
            "ticks": 629760,
            "durationTicks": 512
          },
          {
            "time": 384.6875,
            "midi": 79,
            "name": "G5",
            "velocity": 0.3858267716535433,
            "duration": 0.3125,
            "ticks": 630272,
            "durationTicks": 512
          },
          {
            "time": 385,
            "midi": 77,
            "name": "F5",
            "velocity": 0.3858267716535433,
            "duration": 0.3125,
            "ticks": 630784,
            "durationTicks": 512
          },
          {
            "time": 385.3125,
            "midi": 76,
            "name": "E5",
            "velocity": 0.3858267716535433,
            "duration": 0.3125,
            "ticks": 631296,
            "durationTicks": 512
          },
          {
            "time": 385.625,
            "midi": 74,
            "name": "D5",
            "velocity": 0.3858267716535433,
            "duration": 0.3125,
            "ticks": 631808,
            "durationTicks": 512
          },
          {
            "time": 385.9375,
            "midi": 76,
            "name": "E5",
            "velocity": 0.3858267716535433,
            "duration": 0.3125,
            "ticks": 632320,
            "durationTicks": 512
          },
          {
            "time": 386.25,
            "midi": 76,
            "name": "E5",
            "velocity": 0.3858267716535433,
            "duration": 0.3125,
            "ticks": 632832,
            "durationTicks": 512
          },
          {
            "time": 386.5625,
            "midi": 74,
            "name": "D5",
            "velocity": 0.3858267716535433,
            "duration": 0.3125,
            "ticks": 633344,
            "durationTicks": 512
          },
          {
            "time": 386.875,
            "midi": 76,
            "name": "E5",
            "velocity": 0.3858267716535433,
            "duration": 0.3125,
            "ticks": 633856,
            "durationTicks": 512
          },
          {
            "time": 387.1875,
            "midi": 76,
            "name": "E5",
            "velocity": 0.3858267716535433,
            "duration": 0.3125,
            "ticks": 634368,
            "durationTicks": 512
          },
          {
            "time": 387.5,
            "midi": 74,
            "name": "D5",
            "velocity": 0.3858267716535433,
            "duration": 0.3125,
            "ticks": 634880,
            "durationTicks": 512
          },
          {
            "time": 387.8125,
            "midi": 76,
            "name": "E5",
            "velocity": 0.3858267716535433,
            "duration": 0.3125,
            "ticks": 635392,
            "durationTicks": 512
          },
          {
            "time": 388.125,
            "midi": 77,
            "name": "F5",
            "velocity": 0.3858267716535433,
            "duration": 0.3125,
            "ticks": 635904,
            "durationTicks": 512
          },
          {
            "time": 388.4375,
            "midi": 76,
            "name": "E5",
            "velocity": 0.3858267716535433,
            "duration": 0.3125,
            "ticks": 636416,
            "durationTicks": 512
          },
          {
            "time": 388.75,
            "midi": 77,
            "name": "F5",
            "velocity": 0.3858267716535433,
            "duration": 0.3125,
            "ticks": 636928,
            "durationTicks": 512
          },
          {
            "time": 389.0625,
            "midi": 77,
            "name": "F5",
            "velocity": 0.3858267716535433,
            "duration": 0.3125,
            "ticks": 637440,
            "durationTicks": 512
          },
          {
            "time": 389.375,
            "midi": 76,
            "name": "E5",
            "velocity": 0.3858267716535433,
            "duration": 0.3125,
            "ticks": 637952,
            "durationTicks": 512
          },
          {
            "time": 389.6875,
            "midi": 77,
            "name": "F5",
            "velocity": 0.3858267716535433,
            "duration": 0.3125,
            "ticks": 638464,
            "durationTicks": 512
          },
          {
            "time": 390,
            "midi": 77,
            "name": "F5",
            "velocity": 0.3858267716535433,
            "duration": 0.3125,
            "ticks": 638976,
            "durationTicks": 512
          },
          {
            "time": 390.3125,
            "midi": 76,
            "name": "E5",
            "velocity": 0.3858267716535433,
            "duration": 0.3125,
            "ticks": 639488,
            "durationTicks": 512
          },
          {
            "time": 390.625,
            "midi": 77,
            "name": "F5",
            "velocity": 0.3858267716535433,
            "duration": 0.3125,
            "ticks": 640000,
            "durationTicks": 512
          },
          {
            "time": 390.9375,
            "midi": 79,
            "name": "G5",
            "velocity": 0.3858267716535433,
            "duration": 0.3125,
            "ticks": 640512,
            "durationTicks": 512
          },
          {
            "time": 391.25,
            "midi": 77,
            "name": "F5",
            "velocity": 0.3858267716535433,
            "duration": 0.3125,
            "ticks": 641024,
            "durationTicks": 512
          },
          {
            "time": 391.5625,
            "midi": 79,
            "name": "G5",
            "velocity": 0.3858267716535433,
            "duration": 0.3125,
            "ticks": 641536,
            "durationTicks": 512
          },
          {
            "time": 391.875,
            "midi": 79,
            "name": "G5",
            "velocity": 0.3858267716535433,
            "duration": 0.3125,
            "ticks": 642048,
            "durationTicks": 512
          },
          {
            "time": 392.1875,
            "midi": 77,
            "name": "F5",
            "velocity": 0.3858267716535433,
            "duration": 0.3125,
            "ticks": 642560,
            "durationTicks": 512
          },
          {
            "time": 392.5,
            "midi": 79,
            "name": "G5",
            "velocity": 0.3858267716535433,
            "duration": 0.3125,
            "ticks": 643072,
            "durationTicks": 512
          },
          {
            "time": 392.8125,
            "midi": 79,
            "name": "G5",
            "velocity": 0.3858267716535433,
            "duration": 0.3125,
            "ticks": 643584,
            "durationTicks": 512
          },
          {
            "time": 393.125,
            "midi": 77,
            "name": "F5",
            "velocity": 0.3858267716535433,
            "duration": 0.3125,
            "ticks": 644096,
            "durationTicks": 512
          },
          {
            "time": 393.4375,
            "midi": 79,
            "name": "G5",
            "velocity": 0.3858267716535433,
            "duration": 0.3125,
            "ticks": 644608,
            "durationTicks": 512
          },
          {
            "time": 393.75,
            "midi": 81,
            "name": "A5",
            "velocity": 0.3858267716535433,
            "duration": 0.3125,
            "ticks": 645120,
            "durationTicks": 512
          },
          {
            "time": 394.0625,
            "midi": 79,
            "name": "G5",
            "velocity": 0.3858267716535433,
            "duration": 0.3125,
            "ticks": 645632,
            "durationTicks": 512
          },
          {
            "time": 394.375,
            "midi": 81,
            "name": "A5",
            "velocity": 0.3858267716535433,
            "duration": 0.3125,
            "ticks": 646144,
            "durationTicks": 512
          },
          {
            "time": 394.6875,
            "midi": 81,
            "name": "A5",
            "velocity": 0.3858267716535433,
            "duration": 0.3125,
            "ticks": 646656,
            "durationTicks": 512
          },
          {
            "time": 395,
            "midi": 79,
            "name": "G5",
            "velocity": 0.3858267716535433,
            "duration": 0.3125,
            "ticks": 647168,
            "durationTicks": 512
          },
          {
            "time": 395.3125,
            "midi": 81,
            "name": "A5",
            "velocity": 0.3858267716535433,
            "duration": 0.3125,
            "ticks": 647680,
            "durationTicks": 512
          },
          {
            "time": 395.625,
            "midi": 81,
            "name": "A5",
            "velocity": 0.3858267716535433,
            "duration": 0.3125,
            "ticks": 648192,
            "durationTicks": 512
          },
          {
            "time": 395.9375,
            "midi": 82,
            "name": "A#5",
            "velocity": 0.3858267716535433,
            "duration": 0.3125,
            "ticks": 648704,
            "durationTicks": 512
          },
          {
            "time": 396.25,
            "midi": 81,
            "name": "A5",
            "velocity": 0.3858267716535433,
            "duration": 0.3125,
            "ticks": 649216,
            "durationTicks": 512
          },
          {
            "time": 396.5625,
            "midi": 79,
            "name": "G5",
            "velocity": 0.3858267716535433,
            "duration": 0.3125,
            "ticks": 649728,
            "durationTicks": 512
          },
          {
            "time": 396.875,
            "midi": 77,
            "name": "F5",
            "velocity": 0.3858267716535433,
            "duration": 0.3125,
            "ticks": 650240,
            "durationTicks": 512
          },
          {
            "time": 397.1875,
            "midi": 79,
            "name": "G5",
            "velocity": 0.3858267716535433,
            "duration": 0.3125,
            "ticks": 650752,
            "durationTicks": 512
          },
          {
            "time": 397.5,
            "midi": 79,
            "name": "G5",
            "velocity": 0.3858267716535433,
            "duration": 0.3125,
            "ticks": 651264,
            "durationTicks": 512
          },
          {
            "time": 397.8125,
            "midi": 77,
            "name": "F5",
            "velocity": 0.3858267716535433,
            "duration": 0.3125,
            "ticks": 651776,
            "durationTicks": 512
          },
          {
            "time": 398.125,
            "midi": 79,
            "name": "G5",
            "velocity": 0.3858267716535433,
            "duration": 0.3125,
            "ticks": 652288,
            "durationTicks": 512
          },
          {
            "time": 398.4375,
            "midi": 79,
            "name": "G5",
            "velocity": 0.3858267716535433,
            "duration": 0.3125,
            "ticks": 652800,
            "durationTicks": 512
          },
          {
            "time": 398.75,
            "midi": 81,
            "name": "A5",
            "velocity": 0.3858267716535433,
            "duration": 0.3125,
            "ticks": 653312,
            "durationTicks": 512
          },
          {
            "time": 399.0625,
            "midi": 79,
            "name": "G5",
            "velocity": 0.3858267716535433,
            "duration": 0.3125,
            "ticks": 653824,
            "durationTicks": 512
          },
          {
            "time": 399.375,
            "midi": 81,
            "name": "A5",
            "velocity": 0.3858267716535433,
            "duration": 0.3125,
            "ticks": 654336,
            "durationTicks": 512
          },
          {
            "time": 399.6875,
            "midi": 79,
            "name": "G5",
            "velocity": 0.3858267716535433,
            "duration": 0.3125,
            "ticks": 654848,
            "durationTicks": 512
          },
          {
            "time": 400,
            "midi": 77,
            "name": "F5",
            "velocity": 0.3858267716535433,
            "duration": 0.3125,
            "ticks": 655360,
            "durationTicks": 512
          },
          {
            "time": 400.3125,
            "midi": 76,
            "name": "E5",
            "velocity": 0.3858267716535433,
            "duration": 1.5625,
            "ticks": 655872,
            "durationTicks": 2560
          },
          {
            "time": 401.875,
            "midi": 74,
            "name": "D5",
            "velocity": 0.3858267716535433,
            "duration": 0.3125,
            "ticks": 658432,
            "durationTicks": 512
          },
          {
            "time": 402.1875,
            "midi": 74,
            "name": "D5",
            "velocity": 0.3858267716535433,
            "duration": 2.8125,
            "ticks": 658944,
            "durationTicks": 4608
          },
          {
            "time": 405,
            "midi": 77,
            "name": "F5",
            "velocity": 0.3858267716535433,
            "duration": 0.9375,
            "ticks": 663552,
            "durationTicks": 1536
          },
          {
            "time": 407.8125,
            "midi": 76,
            "name": "E5",
            "velocity": 0.3858267716535433,
            "duration": 0.9375,
            "ticks": 668160,
            "durationTicks": 1536
          },
          {
            "time": 410.625,
            "midi": 77,
            "name": "F5",
            "velocity": 0.3858267716535433,
            "duration": 0.9375,
            "ticks": 672768,
            "durationTicks": 1536
          },
          {
            "time": 413.4375,
            "midi": 79,
            "name": "G5",
            "velocity": 0.3858267716535433,
            "duration": 0.9375,
            "ticks": 677376,
            "durationTicks": 1536
          },
          {
            "time": 416.25,
            "midi": 81,
            "name": "A5",
            "velocity": 0.3858267716535433,
            "duration": 0.9375,
            "ticks": 681984,
            "durationTicks": 1536
          },
          {
            "time": 419.0625,
            "midi": 79,
            "name": "G5",
            "velocity": 0.3858267716535433,
            "duration": 0.9375,
            "ticks": 686592,
            "durationTicks": 1536
          },
          {
            "time": 421.875,
            "midi": 77,
            "name": "F5",
            "velocity": 0.3858267716535433,
            "duration": 0.9375,
            "ticks": 691200,
            "durationTicks": 1536
          },
          {
            "time": 424.6875,
            "midi": 76,
            "name": "E5",
            "velocity": 0.3858267716535433,
            "duration": 0.9375,
            "ticks": 695808,
            "durationTicks": 1536
          },
          {
            "time": 427.5,
            "midi": 77,
            "name": "F5",
            "velocity": 0.3858267716535433,
            "duration": 0.9375,
            "ticks": 700416,
            "durationTicks": 1536
          },
          {
            "time": 430.3125,
            "midi": 76,
            "name": "E5",
            "velocity": 0.3858267716535433,
            "duration": 0.9375,
            "ticks": 705024,
            "durationTicks": 1536
          },
          {
            "time": 433.125,
            "midi": 77,
            "name": "F5",
            "velocity": 0.3858267716535433,
            "duration": 0.9375,
            "ticks": 709632,
            "durationTicks": 1536
          },
          {
            "time": 435.9375,
            "midi": 79,
            "name": "G5",
            "velocity": 0.3858267716535433,
            "duration": 0.9375,
            "ticks": 714240,
            "durationTicks": 1536
          },
          {
            "time": 438.75,
            "midi": 81,
            "name": "A5",
            "velocity": 0.3858267716535433,
            "duration": 0.9375,
            "ticks": 718848,
            "durationTicks": 1536
          },
          {
            "time": 441.5625,
            "midi": 79,
            "name": "G5",
            "velocity": 0.3858267716535433,
            "duration": 0.9375,
            "ticks": 723456,
            "durationTicks": 1536
          },
          {
            "time": 444.375,
            "midi": 77,
            "name": "F5",
            "velocity": 0.3858267716535433,
            "duration": 0.9375,
            "ticks": 728064,
            "durationTicks": 1536
          },
          {
            "time": 445.3125,
            "midi": 76,
            "name": "E5",
            "velocity": 0.3858267716535433,
            "duration": 1.5625,
            "ticks": 729600,
            "durationTicks": 2560
          },
          {
            "time": 446.875,
            "midi": 74,
            "name": "D5",
            "velocity": 0.3858267716535433,
            "duration": 0.3125,
            "ticks": 732160,
            "durationTicks": 512
          },
          {
            "time": 447.1875,
            "midi": 74,
            "name": "D5",
            "velocity": 0.3858267716535433,
            "duration": 2.8125,
            "ticks": 732672,
            "durationTicks": 4608
          },
          {
            "time": 450,
            "midi": 74,
            "name": "D5",
            "velocity": 0.3858267716535433,
            "duration": 0.46875,
            "ticks": 737280,
            "durationTicks": 768
          },
          {
            "time": 450.46875,
            "midi": 76,
            "name": "E5",
            "velocity": 0.3858267716535433,
            "duration": 0.15625,
            "ticks": 738048,
            "durationTicks": 256
          },
          {
            "time": 450.625,
            "midi": 74,
            "name": "D5",
            "velocity": 0.3858267716535433,
            "duration": 0.3125,
            "ticks": 738304,
            "durationTicks": 512
          },
          {
            "time": 450.9375,
            "midi": 81,
            "name": "A5",
            "velocity": 0.3858267716535433,
            "duration": 0.625,
            "ticks": 738816,
            "durationTicks": 1024
          },
          {
            "time": 451.5625,
            "midi": 74,
            "name": "D5",
            "velocity": 0.3858267716535433,
            "duration": 0.3125,
            "ticks": 739840,
            "durationTicks": 512
          },
          {
            "time": 451.875,
            "midi": 74,
            "name": "D5",
            "velocity": 0.3858267716535433,
            "duration": 0.625,
            "ticks": 740352,
            "durationTicks": 1024
          },
          {
            "time": 452.5,
            "midi": 73,
            "name": "C#5",
            "velocity": 0.3858267716535433,
            "duration": 0.3125,
            "ticks": 741376,
            "durationTicks": 512
          },
          {
            "time": 452.8125,
            "midi": 57,
            "name": "A3",
            "velocity": 0.3858267716535433,
            "duration": 0.625,
            "ticks": 741888,
            "durationTicks": 1024
          },
          {
            "time": 453.4375,
            "midi": 73,
            "name": "C#5",
            "velocity": 0.3858267716535433,
            "duration": 0.3125,
            "ticks": 742912,
            "durationTicks": 512
          },
          {
            "time": 453.75,
            "midi": 74,
            "name": "D5",
            "velocity": 0.3858267716535433,
            "duration": 0.46875,
            "ticks": 743424,
            "durationTicks": 768
          },
          {
            "time": 454.21875,
            "midi": 76,
            "name": "E5",
            "velocity": 0.3858267716535433,
            "duration": 0.15625,
            "ticks": 744192,
            "durationTicks": 256
          },
          {
            "time": 454.375,
            "midi": 74,
            "name": "D5",
            "velocity": 0.3858267716535433,
            "duration": 0.3125,
            "ticks": 744448,
            "durationTicks": 512
          },
          {
            "time": 454.6875,
            "midi": 81,
            "name": "A5",
            "velocity": 0.3858267716535433,
            "duration": 0.625,
            "ticks": 744960,
            "durationTicks": 1024
          },
          {
            "time": 455.3125,
            "midi": 74,
            "name": "D5",
            "velocity": 0.3858267716535433,
            "duration": 0.3125,
            "ticks": 745984,
            "durationTicks": 512
          },
          {
            "time": 455.625,
            "midi": 76,
            "name": "E5",
            "velocity": 0.3858267716535433,
            "duration": 0.46875,
            "ticks": 746496,
            "durationTicks": 768
          },
          {
            "time": 456.09375,
            "midi": 74,
            "name": "D5",
            "velocity": 0.3858267716535433,
            "duration": 0.15625,
            "ticks": 747264,
            "durationTicks": 256
          },
          {
            "time": 456.25,
            "midi": 72,
            "name": "C5",
            "velocity": 0.3858267716535433,
            "duration": 0.3125,
            "ticks": 747520,
            "durationTicks": 512
          },
          {
            "time": 456.5625,
            "midi": 60,
            "name": "C4",
            "velocity": 0.3858267716535433,
            "duration": 0.625,
            "ticks": 748032,
            "durationTicks": 1024
          },
          {
            "time": 457.1875,
            "midi": 76,
            "name": "E5",
            "velocity": 0.3858267716535433,
            "duration": 0.3125,
            "ticks": 749056,
            "durationTicks": 512
          },
          {
            "time": 457.5,
            "midi": 77,
            "name": "F5",
            "velocity": 0.3858267716535433,
            "duration": 0.46875,
            "ticks": 749568,
            "durationTicks": 768
          },
          {
            "time": 457.96875,
            "midi": 79,
            "name": "G5",
            "velocity": 0.3858267716535433,
            "duration": 0.15625,
            "ticks": 750336,
            "durationTicks": 256
          },
          {
            "time": 458.125,
            "midi": 77,
            "name": "F5",
            "velocity": 0.3858267716535433,
            "duration": 0.3125,
            "ticks": 750592,
            "durationTicks": 512
          },
          {
            "time": 458.4375,
            "midi": 84,
            "name": "C6",
            "velocity": 0.3858267716535433,
            "duration": 0.625,
            "ticks": 751104,
            "durationTicks": 1024
          },
          {
            "time": 459.0625,
            "midi": 77,
            "name": "F5",
            "velocity": 0.3858267716535433,
            "duration": 0.3125,
            "ticks": 752128,
            "durationTicks": 512
          },
          {
            "time": 459.375,
            "midi": 76,
            "name": "E5",
            "velocity": 0.3858267716535433,
            "duration": 0.46875,
            "ticks": 752640,
            "durationTicks": 768
          },
          {
            "time": 459.84375,
            "midi": 77,
            "name": "F5",
            "velocity": 0.3858267716535433,
            "duration": 0.15625,
            "ticks": 753408,
            "durationTicks": 256
          },
          {
            "time": 460,
            "midi": 76,
            "name": "E5",
            "velocity": 0.3858267716535433,
            "duration": 0.3125,
            "ticks": 753664,
            "durationTicks": 512
          },
          {
            "time": 460.3125,
            "midi": 81,
            "name": "A5",
            "velocity": 0.3858267716535433,
            "duration": 0.625,
            "ticks": 754176,
            "durationTicks": 1024
          },
          {
            "time": 460.9375,
            "midi": 73,
            "name": "C#5",
            "velocity": 0.3858267716535433,
            "duration": 0.3125,
            "ticks": 755200,
            "durationTicks": 512
          },
          {
            "time": 461.25,
            "midi": 74,
            "name": "D5",
            "velocity": 0.3858267716535433,
            "duration": 0.46875,
            "ticks": 755712,
            "durationTicks": 768
          },
          {
            "time": 461.71875,
            "midi": 76,
            "name": "E5",
            "velocity": 0.3858267716535433,
            "duration": 0.15625,
            "ticks": 756480,
            "durationTicks": 256
          },
          {
            "time": 461.875,
            "midi": 74,
            "name": "D5",
            "velocity": 0.3858267716535433,
            "duration": 0.3125,
            "ticks": 756736,
            "durationTicks": 512
          },
          {
            "time": 462.1875,
            "midi": 82,
            "name": "A#5",
            "velocity": 0.3858267716535433,
            "duration": 0.625,
            "ticks": 757248,
            "durationTicks": 1024
          },
          {
            "time": 462.8125,
            "midi": 74,
            "name": "D5",
            "velocity": 0.3858267716535433,
            "duration": 0.3125,
            "ticks": 758272,
            "durationTicks": 512
          },
          {
            "time": 463.125,
            "midi": 74,
            "name": "D5",
            "velocity": 0.3858267716535433,
            "duration": 0.9375,
            "ticks": 758784,
            "durationTicks": 1536
          },
          {
            "time": 464.0625,
            "midi": 73,
            "name": "C#5",
            "velocity": 0.3858267716535433,
            "duration": 0.9375,
            "ticks": 760320,
            "durationTicks": 1536
          },
          {
            "time": 465,
            "midi": 74,
            "name": "D5",
            "velocity": 0.3858267716535433,
            "duration": 0.46875,
            "ticks": 761856,
            "durationTicks": 768
          },
          {
            "time": 465.46875,
            "midi": 76,
            "name": "E5",
            "velocity": 0.3858267716535433,
            "duration": 0.15625,
            "ticks": 762624,
            "durationTicks": 256
          },
          {
            "time": 465.625,
            "midi": 74,
            "name": "D5",
            "velocity": 0.3858267716535433,
            "duration": 0.3125,
            "ticks": 762880,
            "durationTicks": 512
          },
          {
            "time": 465.9375,
            "midi": 81,
            "name": "A5",
            "velocity": 0.3858267716535433,
            "duration": 0.625,
            "ticks": 763392,
            "durationTicks": 1024
          },
          {
            "time": 466.5625,
            "midi": 74,
            "name": "D5",
            "velocity": 0.3858267716535433,
            "duration": 0.3125,
            "ticks": 764416,
            "durationTicks": 512
          },
          {
            "time": 466.875,
            "midi": 74,
            "name": "D5",
            "velocity": 0.3858267716535433,
            "duration": 0.625,
            "ticks": 764928,
            "durationTicks": 1024
          },
          {
            "time": 467.5,
            "midi": 73,
            "name": "C#5",
            "velocity": 0.3858267716535433,
            "duration": 0.3125,
            "ticks": 765952,
            "durationTicks": 512
          },
          {
            "time": 467.8125,
            "midi": 57,
            "name": "A3",
            "velocity": 0.3858267716535433,
            "duration": 0.625,
            "ticks": 766464,
            "durationTicks": 1024
          },
          {
            "time": 468.4375,
            "midi": 73,
            "name": "C#5",
            "velocity": 0.3858267716535433,
            "duration": 0.3125,
            "ticks": 767488,
            "durationTicks": 512
          },
          {
            "time": 468.75,
            "midi": 74,
            "name": "D5",
            "velocity": 0.3858267716535433,
            "duration": 0.46875,
            "ticks": 768000,
            "durationTicks": 768
          },
          {
            "time": 469.21875,
            "midi": 76,
            "name": "E5",
            "velocity": 0.3858267716535433,
            "duration": 0.15625,
            "ticks": 768768,
            "durationTicks": 256
          },
          {
            "time": 469.375,
            "midi": 74,
            "name": "D5",
            "velocity": 0.3858267716535433,
            "duration": 0.3125,
            "ticks": 769024,
            "durationTicks": 512
          },
          {
            "time": 469.6875,
            "midi": 81,
            "name": "A5",
            "velocity": 0.3858267716535433,
            "duration": 0.625,
            "ticks": 769536,
            "durationTicks": 1024
          },
          {
            "time": 470.3125,
            "midi": 74,
            "name": "D5",
            "velocity": 0.3858267716535433,
            "duration": 0.3125,
            "ticks": 770560,
            "durationTicks": 512
          },
          {
            "time": 470.625,
            "midi": 76,
            "name": "E5",
            "velocity": 0.3858267716535433,
            "duration": 0.46875,
            "ticks": 771072,
            "durationTicks": 768
          },
          {
            "time": 471.09375,
            "midi": 74,
            "name": "D5",
            "velocity": 0.3858267716535433,
            "duration": 0.15625,
            "ticks": 771840,
            "durationTicks": 256
          },
          {
            "time": 471.25,
            "midi": 72,
            "name": "C5",
            "velocity": 0.3858267716535433,
            "duration": 0.3125,
            "ticks": 772096,
            "durationTicks": 512
          },
          {
            "time": 471.5625,
            "midi": 60,
            "name": "C4",
            "velocity": 0.3858267716535433,
            "duration": 0.625,
            "ticks": 772608,
            "durationTicks": 1024
          },
          {
            "time": 472.1875,
            "midi": 76,
            "name": "E5",
            "velocity": 0.3858267716535433,
            "duration": 0.3125,
            "ticks": 773632,
            "durationTicks": 512
          },
          {
            "time": 472.5,
            "midi": 77,
            "name": "F5",
            "velocity": 0.3858267716535433,
            "duration": 0.46875,
            "ticks": 774144,
            "durationTicks": 768
          },
          {
            "time": 472.96875,
            "midi": 79,
            "name": "G5",
            "velocity": 0.3858267716535433,
            "duration": 0.15625,
            "ticks": 774912,
            "durationTicks": 256
          },
          {
            "time": 473.125,
            "midi": 77,
            "name": "F5",
            "velocity": 0.3858267716535433,
            "duration": 0.3125,
            "ticks": 775168,
            "durationTicks": 512
          },
          {
            "time": 473.4375,
            "midi": 84,
            "name": "C6",
            "velocity": 0.3858267716535433,
            "duration": 0.625,
            "ticks": 775680,
            "durationTicks": 1024
          },
          {
            "time": 474.0625,
            "midi": 77,
            "name": "F5",
            "velocity": 0.3858267716535433,
            "duration": 0.3125,
            "ticks": 776704,
            "durationTicks": 512
          },
          {
            "time": 474.375,
            "midi": 77,
            "name": "F5",
            "velocity": 0.3858267716535433,
            "duration": 0.625,
            "ticks": 777216,
            "durationTicks": 1024
          },
          {
            "time": 475,
            "midi": 76,
            "name": "E5",
            "velocity": 0.3858267716535433,
            "duration": 0.3125,
            "ticks": 778240,
            "durationTicks": 512
          },
          {
            "time": 475.3125,
            "midi": 82,
            "name": "A#5",
            "velocity": 0.3858267716535433,
            "duration": 0.46875,
            "ticks": 778752,
            "durationTicks": 768
          },
          {
            "time": 475.78125,
            "midi": 81,
            "name": "A5",
            "velocity": 0.3858267716535433,
            "duration": 0.15625,
            "ticks": 779520,
            "durationTicks": 256
          },
          {
            "time": 475.9375,
            "midi": 79,
            "name": "G5",
            "velocity": 0.3858267716535433,
            "duration": 0.3125,
            "ticks": 779776,
            "durationTicks": 512
          },
          {
            "time": 476.25,
            "midi": 81,
            "name": "A5",
            "velocity": 0.3858267716535433,
            "duration": 0.46875,
            "ticks": 780288,
            "durationTicks": 768
          },
          {
            "time": 476.71875,
            "midi": 79,
            "name": "G5",
            "velocity": 0.3858267716535433,
            "duration": 0.15625,
            "ticks": 781056,
            "durationTicks": 256
          },
          {
            "time": 476.875,
            "midi": 77,
            "name": "F5",
            "velocity": 0.3858267716535433,
            "duration": 0.3125,
            "ticks": 781312,
            "durationTicks": 512
          },
          {
            "time": 477.1875,
            "midi": 77,
            "name": "F5",
            "velocity": 0.3858267716535433,
            "duration": 0.625,
            "ticks": 781824,
            "durationTicks": 1024
          },
          {
            "time": 477.8125,
            "midi": 76,
            "name": "E5",
            "velocity": 0.3858267716535433,
            "duration": 0.3125,
            "ticks": 782848,
            "durationTicks": 512
          },
          {
            "time": 478.125,
            "midi": 74,
            "name": "D5",
            "velocity": 0.3858267716535433,
            "duration": 1.875,
            "ticks": 783360,
            "durationTicks": 3072
          },
          {
            "time": 480,
            "midi": 74,
            "name": "D5",
            "velocity": 0.3858267716535433,
            "duration": 0.3125,
            "ticks": 786432,
            "durationTicks": 512
          },
          {
            "time": 480.3125,
            "midi": 65,
            "name": "F4",
            "velocity": 0.3858267716535433,
            "duration": 0.3125,
            "ticks": 786944,
            "durationTicks": 512
          },
          {
            "time": 480.625,
            "midi": 62,
            "name": "D4",
            "velocity": 0.3858267716535433,
            "duration": 0.3125,
            "ticks": 787456,
            "durationTicks": 512
          },
          {
            "time": 480.9375,
            "midi": 74,
            "name": "D5",
            "velocity": 0.3858267716535433,
            "duration": 0.3125,
            "ticks": 787968,
            "durationTicks": 512
          },
          {
            "time": 481.25,
            "midi": 62,
            "name": "D4",
            "velocity": 0.3858267716535433,
            "duration": 0.3125,
            "ticks": 788480,
            "durationTicks": 512
          },
          {
            "time": 481.5625,
            "midi": 74,
            "name": "D5",
            "velocity": 0.3858267716535433,
            "duration": 0.3125,
            "ticks": 788992,
            "durationTicks": 512
          },
          {
            "time": 481.875,
            "midi": 73,
            "name": "C#5",
            "velocity": 0.3858267716535433,
            "duration": 0.3125,
            "ticks": 789504,
            "durationTicks": 512
          },
          {
            "time": 482.1875,
            "midi": 64,
            "name": "E4",
            "velocity": 0.3858267716535433,
            "duration": 0.3125,
            "ticks": 790016,
            "durationTicks": 512
          },
          {
            "time": 482.5,
            "midi": 57,
            "name": "A3",
            "velocity": 0.3858267716535433,
            "duration": 0.3125,
            "ticks": 790528,
            "durationTicks": 512
          },
          {
            "time": 482.8125,
            "midi": 73,
            "name": "C#5",
            "velocity": 0.3858267716535433,
            "duration": 0.3125,
            "ticks": 791040,
            "durationTicks": 512
          },
          {
            "time": 483.125,
            "midi": 57,
            "name": "A3",
            "velocity": 0.3858267716535433,
            "duration": 0.3125,
            "ticks": 791552,
            "durationTicks": 512
          },
          {
            "time": 483.4375,
            "midi": 73,
            "name": "C#5",
            "velocity": 0.3858267716535433,
            "duration": 0.3125,
            "ticks": 792064,
            "durationTicks": 512
          },
          {
            "time": 483.75,
            "midi": 74,
            "name": "D5",
            "velocity": 0.3858267716535433,
            "duration": 0.3125,
            "ticks": 792576,
            "durationTicks": 512
          },
          {
            "time": 484.0625,
            "midi": 65,
            "name": "F4",
            "velocity": 0.3858267716535433,
            "duration": 0.3125,
            "ticks": 793088,
            "durationTicks": 512
          },
          {
            "time": 484.375,
            "midi": 62,
            "name": "D4",
            "velocity": 0.3858267716535433,
            "duration": 0.3125,
            "ticks": 793600,
            "durationTicks": 512
          },
          {
            "time": 484.6875,
            "midi": 74,
            "name": "D5",
            "velocity": 0.3858267716535433,
            "duration": 0.3125,
            "ticks": 794112,
            "durationTicks": 512
          },
          {
            "time": 485,
            "midi": 62,
            "name": "D4",
            "velocity": 0.3858267716535433,
            "duration": 0.3125,
            "ticks": 794624,
            "durationTicks": 512
          },
          {
            "time": 485.3125,
            "midi": 74,
            "name": "D5",
            "velocity": 0.3858267716535433,
            "duration": 0.3125,
            "ticks": 795136,
            "durationTicks": 512
          },
          {
            "time": 485.625,
            "midi": 76,
            "name": "E5",
            "velocity": 0.3858267716535433,
            "duration": 0.3125,
            "ticks": 795648,
            "durationTicks": 512
          },
          {
            "time": 485.9375,
            "midi": 67,
            "name": "G4",
            "velocity": 0.3858267716535433,
            "duration": 0.3125,
            "ticks": 796160,
            "durationTicks": 512
          },
          {
            "time": 486.25,
            "midi": 60,
            "name": "C4",
            "velocity": 0.3858267716535433,
            "duration": 0.3125,
            "ticks": 796672,
            "durationTicks": 512
          },
          {
            "time": 486.5625,
            "midi": 76,
            "name": "E5",
            "velocity": 0.3858267716535433,
            "duration": 0.3125,
            "ticks": 797184,
            "durationTicks": 512
          },
          {
            "time": 486.875,
            "midi": 60,
            "name": "C4",
            "velocity": 0.3858267716535433,
            "duration": 0.3125,
            "ticks": 797696,
            "durationTicks": 512
          },
          {
            "time": 487.1875,
            "midi": 76,
            "name": "E5",
            "velocity": 0.3858267716535433,
            "duration": 0.3125,
            "ticks": 798208,
            "durationTicks": 512
          },
          {
            "time": 487.5,
            "midi": 77,
            "name": "F5",
            "velocity": 0.3858267716535433,
            "duration": 0.3125,
            "ticks": 798720,
            "durationTicks": 512
          },
          {
            "time": 487.8125,
            "midi": 72,
            "name": "C5",
            "velocity": 0.3858267716535433,
            "duration": 0.3125,
            "ticks": 799232,
            "durationTicks": 512
          },
          {
            "time": 488.125,
            "midi": 65,
            "name": "F4",
            "velocity": 0.3858267716535433,
            "duration": 0.3125,
            "ticks": 799744,
            "durationTicks": 512
          },
          {
            "time": 488.4375,
            "midi": 77,
            "name": "F5",
            "velocity": 0.3858267716535433,
            "duration": 0.3125,
            "ticks": 800256,
            "durationTicks": 512
          },
          {
            "time": 488.75,
            "midi": 65,
            "name": "F4",
            "velocity": 0.3858267716535433,
            "duration": 0.3125,
            "ticks": 800768,
            "durationTicks": 512
          },
          {
            "time": 489.0625,
            "midi": 77,
            "name": "F5",
            "velocity": 0.3858267716535433,
            "duration": 0.3125,
            "ticks": 801280,
            "durationTicks": 512
          },
          {
            "time": 489.375,
            "midi": 76,
            "name": "E5",
            "velocity": 0.3858267716535433,
            "duration": 0.3125,
            "ticks": 801792,
            "durationTicks": 512
          },
          {
            "time": 489.6875,
            "midi": 67,
            "name": "G4",
            "velocity": 0.3858267716535433,
            "duration": 0.3125,
            "ticks": 802304,
            "durationTicks": 512
          },
          {
            "time": 490,
            "midi": 60,
            "name": "C4",
            "velocity": 0.3858267716535433,
            "duration": 0.3125,
            "ticks": 802816,
            "durationTicks": 512
          },
          {
            "time": 490.3125,
            "midi": 76,
            "name": "E5",
            "velocity": 0.3858267716535433,
            "duration": 0.3125,
            "ticks": 803328,
            "durationTicks": 512
          },
          {
            "time": 490.625,
            "midi": 61,
            "name": "C#4",
            "velocity": 0.3858267716535433,
            "duration": 0.3125,
            "ticks": 803840,
            "durationTicks": 512
          },
          {
            "time": 490.9375,
            "midi": 76,
            "name": "E5",
            "velocity": 0.3858267716535433,
            "duration": 0.3125,
            "ticks": 804352,
            "durationTicks": 512
          },
          {
            "time": 491.25,
            "midi": 74,
            "name": "D5",
            "velocity": 0.3858267716535433,
            "duration": 0.3125,
            "ticks": 804864,
            "durationTicks": 512
          },
          {
            "time": 491.5625,
            "midi": 65,
            "name": "F4",
            "velocity": 0.3858267716535433,
            "duration": 0.3125,
            "ticks": 805376,
            "durationTicks": 512
          },
          {
            "time": 491.875,
            "midi": 58,
            "name": "A#3",
            "velocity": 0.3858267716535433,
            "duration": 0.3125,
            "ticks": 805888,
            "durationTicks": 512
          },
          {
            "time": 492.1875,
            "midi": 74,
            "name": "D5",
            "velocity": 0.3858267716535433,
            "duration": 0.3125,
            "ticks": 806400,
            "durationTicks": 512
          },
          {
            "time": 492.5,
            "midi": 55,
            "name": "G3",
            "velocity": 0.3858267716535433,
            "duration": 0.3125,
            "ticks": 806912,
            "durationTicks": 512
          },
          {
            "time": 492.8125,
            "midi": 74,
            "name": "D5",
            "velocity": 0.3858267716535433,
            "duration": 0.3125,
            "ticks": 807424,
            "durationTicks": 512
          },
          {
            "time": 493.125,
            "midi": 73,
            "name": "C#5",
            "velocity": 0.3858267716535433,
            "duration": 0.3125,
            "ticks": 807936,
            "durationTicks": 512
          },
          {
            "time": 493.4375,
            "midi": 64,
            "name": "E4",
            "velocity": 0.3858267716535433,
            "duration": 0.3125,
            "ticks": 808448,
            "durationTicks": 512
          },
          {
            "time": 493.75,
            "midi": 57,
            "name": "A3",
            "velocity": 0.3858267716535433,
            "duration": 0.3125,
            "ticks": 808960,
            "durationTicks": 512
          },
          {
            "time": 494.0625,
            "midi": 73,
            "name": "C#5",
            "velocity": 0.3858267716535433,
            "duration": 0.3125,
            "ticks": 809472,
            "durationTicks": 512
          },
          {
            "time": 494.375,
            "midi": 57,
            "name": "A3",
            "velocity": 0.3858267716535433,
            "duration": 0.3125,
            "ticks": 809984,
            "durationTicks": 512
          },
          {
            "time": 494.6875,
            "midi": 73,
            "name": "C#5",
            "velocity": 0.3858267716535433,
            "duration": 0.3125,
            "ticks": 810496,
            "durationTicks": 512
          },
          {
            "time": 495,
            "midi": 74,
            "name": "D5",
            "velocity": 0.3858267716535433,
            "duration": 0.3125,
            "ticks": 811008,
            "durationTicks": 512
          },
          {
            "time": 495.3125,
            "midi": 65,
            "name": "F4",
            "velocity": 0.3858267716535433,
            "duration": 0.3125,
            "ticks": 811520,
            "durationTicks": 512
          },
          {
            "time": 495.625,
            "midi": 62,
            "name": "D4",
            "velocity": 0.3858267716535433,
            "duration": 0.3125,
            "ticks": 812032,
            "durationTicks": 512
          },
          {
            "time": 495.9375,
            "midi": 74,
            "name": "D5",
            "velocity": 0.3858267716535433,
            "duration": 0.3125,
            "ticks": 812544,
            "durationTicks": 512
          },
          {
            "time": 496.25,
            "midi": 62,
            "name": "D4",
            "velocity": 0.3858267716535433,
            "duration": 0.3125,
            "ticks": 813056,
            "durationTicks": 512
          },
          {
            "time": 496.5625,
            "midi": 74,
            "name": "D5",
            "velocity": 0.3858267716535433,
            "duration": 0.3125,
            "ticks": 813568,
            "durationTicks": 512
          },
          {
            "time": 496.875,
            "midi": 73,
            "name": "C#5",
            "velocity": 0.3858267716535433,
            "duration": 0.3125,
            "ticks": 814080,
            "durationTicks": 512
          },
          {
            "time": 497.1875,
            "midi": 64,
            "name": "E4",
            "velocity": 0.3858267716535433,
            "duration": 0.3125,
            "ticks": 814592,
            "durationTicks": 512
          },
          {
            "time": 497.5,
            "midi": 57,
            "name": "A3",
            "velocity": 0.3858267716535433,
            "duration": 0.3125,
            "ticks": 815104,
            "durationTicks": 512
          },
          {
            "time": 497.8125,
            "midi": 73,
            "name": "C#5",
            "velocity": 0.3858267716535433,
            "duration": 0.3125,
            "ticks": 815616,
            "durationTicks": 512
          },
          {
            "time": 498.125,
            "midi": 57,
            "name": "A3",
            "velocity": 0.3858267716535433,
            "duration": 0.3125,
            "ticks": 816128,
            "durationTicks": 512
          },
          {
            "time": 498.4375,
            "midi": 73,
            "name": "C#5",
            "velocity": 0.3858267716535433,
            "duration": 0.3125,
            "ticks": 816640,
            "durationTicks": 512
          },
          {
            "time": 498.75,
            "midi": 74,
            "name": "D5",
            "velocity": 0.3858267716535433,
            "duration": 0.3125,
            "ticks": 817152,
            "durationTicks": 512
          },
          {
            "time": 499.0625,
            "midi": 65,
            "name": "F4",
            "velocity": 0.3858267716535433,
            "duration": 0.3125,
            "ticks": 817664,
            "durationTicks": 512
          },
          {
            "time": 499.375,
            "midi": 62,
            "name": "D4",
            "velocity": 0.3858267716535433,
            "duration": 0.3125,
            "ticks": 818176,
            "durationTicks": 512
          },
          {
            "time": 499.6875,
            "midi": 74,
            "name": "D5",
            "velocity": 0.3858267716535433,
            "duration": 0.3125,
            "ticks": 818688,
            "durationTicks": 512
          },
          {
            "time": 500,
            "midi": 62,
            "name": "D4",
            "velocity": 0.3858267716535433,
            "duration": 0.3125,
            "ticks": 819200,
            "durationTicks": 512
          },
          {
            "time": 500.3125,
            "midi": 74,
            "name": "D5",
            "velocity": 0.3858267716535433,
            "duration": 0.3125,
            "ticks": 819712,
            "durationTicks": 512
          },
          {
            "time": 500.625,
            "midi": 76,
            "name": "E5",
            "velocity": 0.3858267716535433,
            "duration": 0.3125,
            "ticks": 820224,
            "durationTicks": 512
          },
          {
            "time": 500.9375,
            "midi": 67,
            "name": "G4",
            "velocity": 0.3858267716535433,
            "duration": 0.3125,
            "ticks": 820736,
            "durationTicks": 512
          },
          {
            "time": 501.25,
            "midi": 60,
            "name": "C4",
            "velocity": 0.3858267716535433,
            "duration": 0.3125,
            "ticks": 821248,
            "durationTicks": 512
          },
          {
            "time": 501.5625,
            "midi": 76,
            "name": "E5",
            "velocity": 0.3858267716535433,
            "duration": 0.3125,
            "ticks": 821760,
            "durationTicks": 512
          },
          {
            "time": 501.875,
            "midi": 60,
            "name": "C4",
            "velocity": 0.3858267716535433,
            "duration": 0.3125,
            "ticks": 822272,
            "durationTicks": 512
          },
          {
            "time": 502.1875,
            "midi": 76,
            "name": "E5",
            "velocity": 0.3858267716535433,
            "duration": 0.3125,
            "ticks": 822784,
            "durationTicks": 512
          },
          {
            "time": 502.5,
            "midi": 77,
            "name": "F5",
            "velocity": 0.3858267716535433,
            "duration": 0.3125,
            "ticks": 823296,
            "durationTicks": 512
          },
          {
            "time": 502.8125,
            "midi": 72,
            "name": "C5",
            "velocity": 0.3858267716535433,
            "duration": 0.3125,
            "ticks": 823808,
            "durationTicks": 512
          },
          {
            "time": 503.125,
            "midi": 65,
            "name": "F4",
            "velocity": 0.3858267716535433,
            "duration": 0.3125,
            "ticks": 824320,
            "durationTicks": 512
          },
          {
            "time": 503.4375,
            "midi": 77,
            "name": "F5",
            "velocity": 0.3858267716535433,
            "duration": 0.3125,
            "ticks": 824832,
            "durationTicks": 512
          },
          {
            "time": 503.75,
            "midi": 65,
            "name": "F4",
            "velocity": 0.3858267716535433,
            "duration": 0.3125,
            "ticks": 825344,
            "durationTicks": 512
          },
          {
            "time": 504.0625,
            "midi": 77,
            "name": "F5",
            "velocity": 0.3858267716535433,
            "duration": 0.3125,
            "ticks": 825856,
            "durationTicks": 512
          },
          {
            "time": 504.375,
            "midi": 76,
            "name": "E5",
            "velocity": 0.3858267716535433,
            "duration": 0.3125,
            "ticks": 826368,
            "durationTicks": 512
          },
          {
            "time": 504.6875,
            "midi": 67,
            "name": "G4",
            "velocity": 0.3858267716535433,
            "duration": 0.3125,
            "ticks": 826880,
            "durationTicks": 512
          },
          {
            "time": 505,
            "midi": 60,
            "name": "C4",
            "velocity": 0.3858267716535433,
            "duration": 0.3125,
            "ticks": 827392,
            "durationTicks": 512
          },
          {
            "time": 505.3125,
            "midi": 76,
            "name": "E5",
            "velocity": 0.3858267716535433,
            "duration": 0.3125,
            "ticks": 827904,
            "durationTicks": 512
          },
          {
            "time": 505.625,
            "midi": 61,
            "name": "C#4",
            "velocity": 0.3858267716535433,
            "duration": 0.3125,
            "ticks": 828416,
            "durationTicks": 512
          },
          {
            "time": 505.9375,
            "midi": 76,
            "name": "E5",
            "velocity": 0.3858267716535433,
            "duration": 0.3125,
            "ticks": 828928,
            "durationTicks": 512
          },
          {
            "time": 506.25,
            "midi": 74,
            "name": "D5",
            "velocity": 0.3858267716535433,
            "duration": 0.3125,
            "ticks": 829440,
            "durationTicks": 512
          },
          {
            "time": 506.5625,
            "midi": 65,
            "name": "F4",
            "velocity": 0.3858267716535433,
            "duration": 0.3125,
            "ticks": 829952,
            "durationTicks": 512
          },
          {
            "time": 506.875,
            "midi": 57,
            "name": "A3",
            "velocity": 0.3858267716535433,
            "duration": 0.3125,
            "ticks": 830464,
            "durationTicks": 512
          },
          {
            "time": 507.1875,
            "midi": 74,
            "name": "D5",
            "velocity": 0.3858267716535433,
            "duration": 0.3125,
            "ticks": 830976,
            "durationTicks": 512
          },
          {
            "time": 507.5,
            "midi": 57,
            "name": "A3",
            "velocity": 0.3858267716535433,
            "duration": 0.3125,
            "ticks": 831488,
            "durationTicks": 512
          },
          {
            "time": 507.8125,
            "midi": 73,
            "name": "C#5",
            "velocity": 0.3858267716535433,
            "duration": 0.3125,
            "ticks": 832000,
            "durationTicks": 512
          },
          {
            "time": 508.125,
            "midi": 74,
            "name": "D5",
            "velocity": 0.3858267716535433,
            "duration": 1.875,
            "ticks": 832512,
            "durationTicks": 3072
          },
          {
            "time": 510.3125,
            "midi": 77,
            "name": "F5",
            "velocity": 0.3858267716535433,
            "duration": 0.15625,
            "ticks": 836096,
            "durationTicks": 256
          },
          {
            "time": 510.46875,
            "midi": 76,
            "name": "E5",
            "velocity": 0.3858267716535433,
            "duration": 0.15625,
            "ticks": 836352,
            "durationTicks": 256
          },
          {
            "time": 510.625,
            "midi": 77,
            "name": "F5",
            "velocity": 0.3858267716535433,
            "duration": 0.3125,
            "ticks": 836608,
            "durationTicks": 512
          },
          {
            "time": 510.9375,
            "midi": 65,
            "name": "F4",
            "velocity": 0.3858267716535433,
            "duration": 0.3125,
            "ticks": 837120,
            "durationTicks": 512
          },
          {
            "time": 511.25,
            "midi": 77,
            "name": "F5",
            "velocity": 0.3858267716535433,
            "duration": 0.3125,
            "ticks": 837632,
            "durationTicks": 512
          },
          {
            "time": 511.5625,
            "midi": 65,
            "name": "F4",
            "velocity": 0.3858267716535433,
            "duration": 0.3125,
            "ticks": 838144,
            "durationTicks": 512
          },
          {
            "time": 511.875,
            "midi": 64,
            "name": "E4",
            "velocity": 0.3858267716535433,
            "duration": 0.3125,
            "ticks": 838656,
            "durationTicks": 512
          },
          {
            "time": 512.1875,
            "midi": 76,
            "name": "E5",
            "velocity": 0.3858267716535433,
            "duration": 0.15625,
            "ticks": 839168,
            "durationTicks": 256
          },
          {
            "time": 512.34375,
            "midi": 74,
            "name": "D5",
            "velocity": 0.3858267716535433,
            "duration": 0.15625,
            "ticks": 839424,
            "durationTicks": 256
          },
          {
            "time": 512.5,
            "midi": 76,
            "name": "E5",
            "velocity": 0.3858267716535433,
            "duration": 0.3125,
            "ticks": 839680,
            "durationTicks": 512
          },
          {
            "time": 512.8125,
            "midi": 64,
            "name": "E4",
            "velocity": 0.3858267716535433,
            "duration": 0.3125,
            "ticks": 840192,
            "durationTicks": 512
          },
          {
            "time": 513.125,
            "midi": 76,
            "name": "E5",
            "velocity": 0.3858267716535433,
            "duration": 0.3125,
            "ticks": 840704,
            "durationTicks": 512
          },
          {
            "time": 513.4375,
            "midi": 64,
            "name": "E4",
            "velocity": 0.3858267716535433,
            "duration": 0.3125,
            "ticks": 841216,
            "durationTicks": 512
          },
          {
            "time": 513.75,
            "midi": 65,
            "name": "F4",
            "velocity": 0.3858267716535433,
            "duration": 0.3125,
            "ticks": 841728,
            "durationTicks": 512
          },
          {
            "time": 514.0625,
            "midi": 77,
            "name": "F5",
            "velocity": 0.3858267716535433,
            "duration": 0.15625,
            "ticks": 842240,
            "durationTicks": 256
          },
          {
            "time": 514.21875,
            "midi": 76,
            "name": "E5",
            "velocity": 0.3858267716535433,
            "duration": 0.15625,
            "ticks": 842496,
            "durationTicks": 256
          },
          {
            "time": 514.375,
            "midi": 77,
            "name": "F5",
            "velocity": 0.3858267716535433,
            "duration": 0.3125,
            "ticks": 842752,
            "durationTicks": 512
          },
          {
            "time": 514.6875,
            "midi": 65,
            "name": "F4",
            "velocity": 0.3858267716535433,
            "duration": 0.3125,
            "ticks": 843264,
            "durationTicks": 512
          },
          {
            "time": 515,
            "midi": 77,
            "name": "F5",
            "velocity": 0.3858267716535433,
            "duration": 0.3125,
            "ticks": 843776,
            "durationTicks": 512
          },
          {
            "time": 515.3125,
            "midi": 65,
            "name": "F4",
            "velocity": 0.3858267716535433,
            "duration": 0.3125,
            "ticks": 844288,
            "durationTicks": 512
          },
          {
            "time": 515.625,
            "midi": 67,
            "name": "G4",
            "velocity": 0.3858267716535433,
            "duration": 0.3125,
            "ticks": 844800,
            "durationTicks": 512
          },
          {
            "time": 515.9375,
            "midi": 79,
            "name": "G5",
            "velocity": 0.3858267716535433,
            "duration": 0.15625,
            "ticks": 845312,
            "durationTicks": 256
          },
          {
            "time": 516.09375,
            "midi": 77,
            "name": "F5",
            "velocity": 0.3858267716535433,
            "duration": 0.15625,
            "ticks": 845568,
            "durationTicks": 256
          },
          {
            "time": 516.25,
            "midi": 79,
            "name": "G5",
            "velocity": 0.3858267716535433,
            "duration": 0.3125,
            "ticks": 845824,
            "durationTicks": 512
          },
          {
            "time": 516.5625,
            "midi": 67,
            "name": "G4",
            "velocity": 0.3858267716535433,
            "duration": 0.3125,
            "ticks": 846336,
            "durationTicks": 512
          },
          {
            "time": 516.875,
            "midi": 79,
            "name": "G5",
            "velocity": 0.3858267716535433,
            "duration": 0.3125,
            "ticks": 846848,
            "durationTicks": 512
          },
          {
            "time": 517.1875,
            "midi": 67,
            "name": "G4",
            "velocity": 0.3858267716535433,
            "duration": 0.3125,
            "ticks": 847360,
            "durationTicks": 512
          },
          {
            "time": 517.5,
            "midi": 69,
            "name": "A4",
            "velocity": 0.3858267716535433,
            "duration": 0.3125,
            "ticks": 847872,
            "durationTicks": 512
          },
          {
            "time": 517.8125,
            "midi": 81,
            "name": "A5",
            "velocity": 0.3858267716535433,
            "duration": 0.15625,
            "ticks": 848384,
            "durationTicks": 256
          },
          {
            "time": 517.96875,
            "midi": 79,
            "name": "G5",
            "velocity": 0.3858267716535433,
            "duration": 0.15625,
            "ticks": 848640,
            "durationTicks": 256
          },
          {
            "time": 518.125,
            "midi": 81,
            "name": "A5",
            "velocity": 0.3858267716535433,
            "duration": 0.3125,
            "ticks": 848896,
            "durationTicks": 512
          },
          {
            "time": 518.4375,
            "midi": 69,
            "name": "A4",
            "velocity": 0.3858267716535433,
            "duration": 0.3125,
            "ticks": 849408,
            "durationTicks": 512
          },
          {
            "time": 518.75,
            "midi": 81,
            "name": "A5",
            "velocity": 0.3858267716535433,
            "duration": 0.3125,
            "ticks": 849920,
            "durationTicks": 512
          },
          {
            "time": 519.0625,
            "midi": 69,
            "name": "A4",
            "velocity": 0.3858267716535433,
            "duration": 0.3125,
            "ticks": 850432,
            "durationTicks": 512
          },
          {
            "time": 519.375,
            "midi": 67,
            "name": "G4",
            "velocity": 0.3858267716535433,
            "duration": 0.3125,
            "ticks": 850944,
            "durationTicks": 512
          },
          {
            "time": 519.6875,
            "midi": 79,
            "name": "G5",
            "velocity": 0.3858267716535433,
            "duration": 0.15625,
            "ticks": 851456,
            "durationTicks": 256
          },
          {
            "time": 519.84375,
            "midi": 77,
            "name": "F5",
            "velocity": 0.3858267716535433,
            "duration": 0.15625,
            "ticks": 851712,
            "durationTicks": 256
          },
          {
            "time": 520,
            "midi": 79,
            "name": "G5",
            "velocity": 0.3858267716535433,
            "duration": 0.3125,
            "ticks": 851968,
            "durationTicks": 512
          },
          {
            "time": 520.3125,
            "midi": 67,
            "name": "G4",
            "velocity": 0.3858267716535433,
            "duration": 0.3125,
            "ticks": 852480,
            "durationTicks": 512
          },
          {
            "time": 520.625,
            "midi": 79,
            "name": "G5",
            "velocity": 0.3858267716535433,
            "duration": 0.3125,
            "ticks": 852992,
            "durationTicks": 512
          },
          {
            "time": 520.9375,
            "midi": 67,
            "name": "G4",
            "velocity": 0.3858267716535433,
            "duration": 0.3125,
            "ticks": 853504,
            "durationTicks": 512
          },
          {
            "time": 521.25,
            "midi": 65,
            "name": "F4",
            "velocity": 0.3858267716535433,
            "duration": 0.3125,
            "ticks": 854016,
            "durationTicks": 512
          },
          {
            "time": 521.5625,
            "midi": 77,
            "name": "F5",
            "velocity": 0.3858267716535433,
            "duration": 0.15625,
            "ticks": 854528,
            "durationTicks": 256
          },
          {
            "time": 521.71875,
            "midi": 76,
            "name": "E5",
            "velocity": 0.3858267716535433,
            "duration": 0.15625,
            "ticks": 854784,
            "durationTicks": 256
          },
          {
            "time": 521.875,
            "midi": 77,
            "name": "F5",
            "velocity": 0.3858267716535433,
            "duration": 0.3125,
            "ticks": 855040,
            "durationTicks": 512
          },
          {
            "time": 522.1875,
            "midi": 65,
            "name": "F4",
            "velocity": 0.3858267716535433,
            "duration": 0.3125,
            "ticks": 855552,
            "durationTicks": 512
          },
          {
            "time": 522.5,
            "midi": 77,
            "name": "F5",
            "velocity": 0.3858267716535433,
            "duration": 0.3125,
            "ticks": 856064,
            "durationTicks": 512
          },
          {
            "time": 522.8125,
            "midi": 65,
            "name": "F4",
            "velocity": 0.3858267716535433,
            "duration": 0.3125,
            "ticks": 856576,
            "durationTicks": 512
          },
          {
            "time": 523.125,
            "midi": 64,
            "name": "E4",
            "velocity": 0.3858267716535433,
            "duration": 0.3125,
            "ticks": 857088,
            "durationTicks": 512
          },
          {
            "time": 523.4375,
            "midi": 76,
            "name": "E5",
            "velocity": 0.3858267716535433,
            "duration": 0.15625,
            "ticks": 857600,
            "durationTicks": 256
          },
          {
            "time": 523.59375,
            "midi": 74,
            "name": "D5",
            "velocity": 0.3858267716535433,
            "duration": 0.15625,
            "ticks": 857856,
            "durationTicks": 256
          },
          {
            "time": 523.75,
            "midi": 76,
            "name": "E5",
            "velocity": 0.3858267716535433,
            "duration": 0.3125,
            "ticks": 858112,
            "durationTicks": 512
          },
          {
            "time": 524.0625,
            "midi": 64,
            "name": "E4",
            "velocity": 0.3858267716535433,
            "duration": 0.3125,
            "ticks": 858624,
            "durationTicks": 512
          },
          {
            "time": 524.375,
            "midi": 76,
            "name": "E5",
            "velocity": 0.3858267716535433,
            "duration": 0.3125,
            "ticks": 859136,
            "durationTicks": 512
          },
          {
            "time": 524.6875,
            "midi": 64,
            "name": "E4",
            "velocity": 0.3858267716535433,
            "duration": 0.3125,
            "ticks": 859648,
            "durationTicks": 512
          },
          {
            "time": 525,
            "midi": 65,
            "name": "F4",
            "velocity": 0.3858267716535433,
            "duration": 0.3125,
            "ticks": 860160,
            "durationTicks": 512
          },
          {
            "time": 525.3125,
            "midi": 77,
            "name": "F5",
            "velocity": 0.3858267716535433,
            "duration": 0.15625,
            "ticks": 860672,
            "durationTicks": 256
          },
          {
            "time": 525.46875,
            "midi": 76,
            "name": "E5",
            "velocity": 0.3858267716535433,
            "duration": 0.15625,
            "ticks": 860928,
            "durationTicks": 256
          },
          {
            "time": 525.625,
            "midi": 77,
            "name": "F5",
            "velocity": 0.3858267716535433,
            "duration": 0.3125,
            "ticks": 861184,
            "durationTicks": 512
          },
          {
            "time": 525.9375,
            "midi": 65,
            "name": "F4",
            "velocity": 0.3858267716535433,
            "duration": 0.3125,
            "ticks": 861696,
            "durationTicks": 512
          },
          {
            "time": 526.25,
            "midi": 77,
            "name": "F5",
            "velocity": 0.3858267716535433,
            "duration": 0.3125,
            "ticks": 862208,
            "durationTicks": 512
          },
          {
            "time": 526.5625,
            "midi": 65,
            "name": "F4",
            "velocity": 0.3858267716535433,
            "duration": 0.3125,
            "ticks": 862720,
            "durationTicks": 512
          },
          {
            "time": 526.875,
            "midi": 64,
            "name": "E4",
            "velocity": 0.3858267716535433,
            "duration": 0.3125,
            "ticks": 863232,
            "durationTicks": 512
          },
          {
            "time": 527.1875,
            "midi": 76,
            "name": "E5",
            "velocity": 0.3858267716535433,
            "duration": 0.15625,
            "ticks": 863744,
            "durationTicks": 256
          },
          {
            "time": 527.34375,
            "midi": 74,
            "name": "D5",
            "velocity": 0.3858267716535433,
            "duration": 0.15625,
            "ticks": 864000,
            "durationTicks": 256
          },
          {
            "time": 527.5,
            "midi": 76,
            "name": "E5",
            "velocity": 0.3858267716535433,
            "duration": 0.3125,
            "ticks": 864256,
            "durationTicks": 512
          },
          {
            "time": 527.8125,
            "midi": 64,
            "name": "E4",
            "velocity": 0.3858267716535433,
            "duration": 0.3125,
            "ticks": 864768,
            "durationTicks": 512
          },
          {
            "time": 528.125,
            "midi": 76,
            "name": "E5",
            "velocity": 0.3858267716535433,
            "duration": 0.3125,
            "ticks": 865280,
            "durationTicks": 512
          },
          {
            "time": 528.4375,
            "midi": 64,
            "name": "E4",
            "velocity": 0.3858267716535433,
            "duration": 0.3125,
            "ticks": 865792,
            "durationTicks": 512
          },
          {
            "time": 528.75,
            "midi": 65,
            "name": "F4",
            "velocity": 0.3858267716535433,
            "duration": 0.3125,
            "ticks": 866304,
            "durationTicks": 512
          },
          {
            "time": 529.0625,
            "midi": 77,
            "name": "F5",
            "velocity": 0.3858267716535433,
            "duration": 0.15625,
            "ticks": 866816,
            "durationTicks": 256
          },
          {
            "time": 529.21875,
            "midi": 76,
            "name": "E5",
            "velocity": 0.3858267716535433,
            "duration": 0.15625,
            "ticks": 867072,
            "durationTicks": 256
          },
          {
            "time": 529.375,
            "midi": 77,
            "name": "F5",
            "velocity": 0.3858267716535433,
            "duration": 0.3125,
            "ticks": 867328,
            "durationTicks": 512
          },
          {
            "time": 529.6875,
            "midi": 65,
            "name": "F4",
            "velocity": 0.3858267716535433,
            "duration": 0.3125,
            "ticks": 867840,
            "durationTicks": 512
          },
          {
            "time": 530,
            "midi": 77,
            "name": "F5",
            "velocity": 0.3858267716535433,
            "duration": 0.3125,
            "ticks": 868352,
            "durationTicks": 512
          },
          {
            "time": 530.3125,
            "midi": 65,
            "name": "F4",
            "velocity": 0.3858267716535433,
            "duration": 0.3125,
            "ticks": 868864,
            "durationTicks": 512
          },
          {
            "time": 530.625,
            "midi": 67,
            "name": "G4",
            "velocity": 0.3858267716535433,
            "duration": 0.3125,
            "ticks": 869376,
            "durationTicks": 512
          },
          {
            "time": 530.9375,
            "midi": 79,
            "name": "G5",
            "velocity": 0.3858267716535433,
            "duration": 0.15625,
            "ticks": 869888,
            "durationTicks": 256
          },
          {
            "time": 531.09375,
            "midi": 77,
            "name": "F5",
            "velocity": 0.3858267716535433,
            "duration": 0.15625,
            "ticks": 870144,
            "durationTicks": 256
          },
          {
            "time": 531.25,
            "midi": 79,
            "name": "G5",
            "velocity": 0.3858267716535433,
            "duration": 0.3125,
            "ticks": 870400,
            "durationTicks": 512
          },
          {
            "time": 531.5625,
            "midi": 67,
            "name": "G4",
            "velocity": 0.3858267716535433,
            "duration": 0.3125,
            "ticks": 870912,
            "durationTicks": 512
          },
          {
            "time": 531.875,
            "midi": 79,
            "name": "G5",
            "velocity": 0.3858267716535433,
            "duration": 0.3125,
            "ticks": 871424,
            "durationTicks": 512
          },
          {
            "time": 532.1875,
            "midi": 67,
            "name": "G4",
            "velocity": 0.3858267716535433,
            "duration": 0.3125,
            "ticks": 871936,
            "durationTicks": 512
          },
          {
            "time": 532.5,
            "midi": 69,
            "name": "A4",
            "velocity": 0.3858267716535433,
            "duration": 0.3125,
            "ticks": 872448,
            "durationTicks": 512
          },
          {
            "time": 532.8125,
            "midi": 81,
            "name": "A5",
            "velocity": 0.3858267716535433,
            "duration": 0.15625,
            "ticks": 872960,
            "durationTicks": 256
          },
          {
            "time": 532.96875,
            "midi": 79,
            "name": "G5",
            "velocity": 0.3858267716535433,
            "duration": 0.15625,
            "ticks": 873216,
            "durationTicks": 256
          },
          {
            "time": 533.125,
            "midi": 81,
            "name": "A5",
            "velocity": 0.3858267716535433,
            "duration": 0.3125,
            "ticks": 873472,
            "durationTicks": 512
          },
          {
            "time": 533.4375,
            "midi": 69,
            "name": "A4",
            "velocity": 0.3858267716535433,
            "duration": 0.3125,
            "ticks": 873984,
            "durationTicks": 512
          },
          {
            "time": 533.75,
            "midi": 81,
            "name": "A5",
            "velocity": 0.3858267716535433,
            "duration": 0.3125,
            "ticks": 874496,
            "durationTicks": 512
          },
          {
            "time": 534.0625,
            "midi": 69,
            "name": "A4",
            "velocity": 0.3858267716535433,
            "duration": 0.3125,
            "ticks": 875008,
            "durationTicks": 512
          },
          {
            "time": 534.375,
            "midi": 67,
            "name": "G4",
            "velocity": 0.3858267716535433,
            "duration": 0.3125,
            "ticks": 875520,
            "durationTicks": 512
          },
          {
            "time": 534.6875,
            "midi": 79,
            "name": "G5",
            "velocity": 0.3858267716535433,
            "duration": 0.15625,
            "ticks": 876032,
            "durationTicks": 256
          },
          {
            "time": 534.84375,
            "midi": 77,
            "name": "F5",
            "velocity": 0.3858267716535433,
            "duration": 0.15625,
            "ticks": 876288,
            "durationTicks": 256
          },
          {
            "time": 535,
            "midi": 79,
            "name": "G5",
            "velocity": 0.3858267716535433,
            "duration": 0.3125,
            "ticks": 876544,
            "durationTicks": 512
          },
          {
            "time": 535.3125,
            "midi": 67,
            "name": "G4",
            "velocity": 0.3858267716535433,
            "duration": 0.3125,
            "ticks": 877056,
            "durationTicks": 512
          },
          {
            "time": 535.625,
            "midi": 79,
            "name": "G5",
            "velocity": 0.3858267716535433,
            "duration": 0.3125,
            "ticks": 877568,
            "durationTicks": 512
          },
          {
            "time": 535.9375,
            "midi": 67,
            "name": "G4",
            "velocity": 0.3858267716535433,
            "duration": 0.3125,
            "ticks": 878080,
            "durationTicks": 512
          },
          {
            "time": 536.25,
            "midi": 77,
            "name": "F5",
            "velocity": 0.3858267716535433,
            "duration": 0.3125,
            "ticks": 878592,
            "durationTicks": 512
          },
          {
            "time": 536.5625,
            "midi": 79,
            "name": "G5",
            "velocity": 0.3858267716535433,
            "duration": 0.15625,
            "ticks": 879104,
            "durationTicks": 256
          },
          {
            "time": 536.71875,
            "midi": 77,
            "name": "F5",
            "velocity": 0.3858267716535433,
            "duration": 0.15625,
            "ticks": 879360,
            "durationTicks": 256
          },
          {
            "time": 536.875,
            "midi": 76,
            "name": "E5",
            "velocity": 0.3858267716535433,
            "duration": 0.3125,
            "ticks": 879616,
            "durationTicks": 512
          },
          {
            "time": 537.1875,
            "midi": 64,
            "name": "E4",
            "velocity": 0.3858267716535433,
            "duration": 0.3125,
            "ticks": 880128,
            "durationTicks": 512
          },
          {
            "time": 537.5,
            "midi": 76,
            "name": "E5",
            "velocity": 0.3858267716535433,
            "duration": 0.3125,
            "ticks": 880640,
            "durationTicks": 512
          },
          {
            "time": 537.8125,
            "midi": 64,
            "name": "E4",
            "velocity": 0.3858267716535433,
            "duration": 0.3125,
            "ticks": 881152,
            "durationTicks": 512
          },
          {
            "time": 538.125,
            "midi": 62,
            "name": "D4",
            "velocity": 0.3858267716535433,
            "duration": 1.875,
            "ticks": 881664,
            "durationTicks": 3072
          },
          {
            "time": 540,
            "midi": 77,
            "name": "F5",
            "velocity": 0.3858267716535433,
            "duration": 0.15625,
            "ticks": 884736,
            "durationTicks": 256
          },
          {
            "time": 540.15625,
            "midi": 74,
            "name": "D5",
            "velocity": 0.3858267716535433,
            "duration": 0.15625,
            "ticks": 884992,
            "durationTicks": 256
          },
          {
            "time": 540.3125,
            "midi": 69,
            "name": "A4",
            "velocity": 0.3858267716535433,
            "duration": 0.15625,
            "ticks": 885248,
            "durationTicks": 256
          },
          {
            "time": 540.46875,
            "midi": 77,
            "name": "F5",
            "velocity": 0.3858267716535433,
            "duration": 0.15625,
            "ticks": 885504,
            "durationTicks": 256
          },
          {
            "time": 540.625,
            "midi": 77,
            "name": "F5",
            "velocity": 0.3858267716535433,
            "duration": 0.15625,
            "ticks": 885760,
            "durationTicks": 256
          },
          {
            "time": 540.78125,
            "midi": 74,
            "name": "D5",
            "velocity": 0.3858267716535433,
            "duration": 0.15625,
            "ticks": 886016,
            "durationTicks": 256
          },
          {
            "time": 540.9375,
            "midi": 69,
            "name": "A4",
            "velocity": 0.3858267716535433,
            "duration": 0.15625,
            "ticks": 886272,
            "durationTicks": 256
          },
          {
            "time": 541.09375,
            "midi": 77,
            "name": "F5",
            "velocity": 0.3858267716535433,
            "duration": 0.15625,
            "ticks": 886528,
            "durationTicks": 256
          },
          {
            "time": 541.25,
            "midi": 77,
            "name": "F5",
            "velocity": 0.3858267716535433,
            "duration": 0.15625,
            "ticks": 886784,
            "durationTicks": 256
          },
          {
            "time": 541.40625,
            "midi": 74,
            "name": "D5",
            "velocity": 0.3858267716535433,
            "duration": 0.15625,
            "ticks": 887040,
            "durationTicks": 256
          },
          {
            "time": 541.5625,
            "midi": 69,
            "name": "A4",
            "velocity": 0.3858267716535433,
            "duration": 0.15625,
            "ticks": 887296,
            "durationTicks": 256
          },
          {
            "time": 541.71875,
            "midi": 77,
            "name": "F5",
            "velocity": 0.3858267716535433,
            "duration": 0.15625,
            "ticks": 887552,
            "durationTicks": 256
          },
          {
            "time": 541.875,
            "midi": 76,
            "name": "E5",
            "velocity": 0.3858267716535433,
            "duration": 0.15625,
            "ticks": 887808,
            "durationTicks": 256
          },
          {
            "time": 542.03125,
            "midi": 73,
            "name": "C#5",
            "velocity": 0.3858267716535433,
            "duration": 0.15625,
            "ticks": 888064,
            "durationTicks": 256
          },
          {
            "time": 542.1875,
            "midi": 69,
            "name": "A4",
            "velocity": 0.3858267716535433,
            "duration": 0.15625,
            "ticks": 888320,
            "durationTicks": 256
          },
          {
            "time": 542.34375,
            "midi": 76,
            "name": "E5",
            "velocity": 0.3858267716535433,
            "duration": 0.15625,
            "ticks": 888576,
            "durationTicks": 256
          },
          {
            "time": 542.5,
            "midi": 76,
            "name": "E5",
            "velocity": 0.3858267716535433,
            "duration": 0.15625,
            "ticks": 888832,
            "durationTicks": 256
          },
          {
            "time": 542.65625,
            "midi": 73,
            "name": "C#5",
            "velocity": 0.3858267716535433,
            "duration": 0.15625,
            "ticks": 889088,
            "durationTicks": 256
          },
          {
            "time": 542.8125,
            "midi": 69,
            "name": "A4",
            "velocity": 0.3858267716535433,
            "duration": 0.15625,
            "ticks": 889344,
            "durationTicks": 256
          },
          {
            "time": 542.96875,
            "midi": 76,
            "name": "E5",
            "velocity": 0.3858267716535433,
            "duration": 0.15625,
            "ticks": 889600,
            "durationTicks": 256
          },
          {
            "time": 543.125,
            "midi": 76,
            "name": "E5",
            "velocity": 0.3858267716535433,
            "duration": 0.15625,
            "ticks": 889856,
            "durationTicks": 256
          },
          {
            "time": 543.28125,
            "midi": 73,
            "name": "C#5",
            "velocity": 0.3858267716535433,
            "duration": 0.15625,
            "ticks": 890112,
            "durationTicks": 256
          },
          {
            "time": 543.4375,
            "midi": 69,
            "name": "A4",
            "velocity": 0.3858267716535433,
            "duration": 0.15625,
            "ticks": 890368,
            "durationTicks": 256
          },
          {
            "time": 543.59375,
            "midi": 76,
            "name": "E5",
            "velocity": 0.3858267716535433,
            "duration": 0.15625,
            "ticks": 890624,
            "durationTicks": 256
          },
          {
            "time": 543.75,
            "midi": 77,
            "name": "F5",
            "velocity": 0.3858267716535433,
            "duration": 0.15625,
            "ticks": 890880,
            "durationTicks": 256
          },
          {
            "time": 543.90625,
            "midi": 74,
            "name": "D5",
            "velocity": 0.3858267716535433,
            "duration": 0.15625,
            "ticks": 891136,
            "durationTicks": 256
          },
          {
            "time": 544.0625,
            "midi": 69,
            "name": "A4",
            "velocity": 0.3858267716535433,
            "duration": 0.15625,
            "ticks": 891392,
            "durationTicks": 256
          },
          {
            "time": 544.21875,
            "midi": 77,
            "name": "F5",
            "velocity": 0.3858267716535433,
            "duration": 0.15625,
            "ticks": 891648,
            "durationTicks": 256
          },
          {
            "time": 544.375,
            "midi": 77,
            "name": "F5",
            "velocity": 0.3858267716535433,
            "duration": 0.15625,
            "ticks": 891904,
            "durationTicks": 256
          },
          {
            "time": 544.53125,
            "midi": 74,
            "name": "D5",
            "velocity": 0.3858267716535433,
            "duration": 0.15625,
            "ticks": 892160,
            "durationTicks": 256
          },
          {
            "time": 544.6875,
            "midi": 69,
            "name": "A4",
            "velocity": 0.3858267716535433,
            "duration": 0.15625,
            "ticks": 892416,
            "durationTicks": 256
          },
          {
            "time": 544.84375,
            "midi": 77,
            "name": "F5",
            "velocity": 0.3858267716535433,
            "duration": 0.15625,
            "ticks": 892672,
            "durationTicks": 256
          },
          {
            "time": 545,
            "midi": 77,
            "name": "F5",
            "velocity": 0.3858267716535433,
            "duration": 0.15625,
            "ticks": 892928,
            "durationTicks": 256
          },
          {
            "time": 545.15625,
            "midi": 74,
            "name": "D5",
            "velocity": 0.3858267716535433,
            "duration": 0.15625,
            "ticks": 893184,
            "durationTicks": 256
          },
          {
            "time": 545.3125,
            "midi": 69,
            "name": "A4",
            "velocity": 0.3858267716535433,
            "duration": 0.15625,
            "ticks": 893440,
            "durationTicks": 256
          },
          {
            "time": 545.46875,
            "midi": 77,
            "name": "F5",
            "velocity": 0.3858267716535433,
            "duration": 0.15625,
            "ticks": 893696,
            "durationTicks": 256
          },
          {
            "time": 545.625,
            "midi": 79,
            "name": "G5",
            "velocity": 0.3858267716535433,
            "duration": 0.15625,
            "ticks": 893952,
            "durationTicks": 256
          },
          {
            "time": 545.78125,
            "midi": 76,
            "name": "E5",
            "velocity": 0.3858267716535433,
            "duration": 0.15625,
            "ticks": 894208,
            "durationTicks": 256
          },
          {
            "time": 545.9375,
            "midi": 72,
            "name": "C5",
            "velocity": 0.3858267716535433,
            "duration": 0.15625,
            "ticks": 894464,
            "durationTicks": 256
          },
          {
            "time": 546.09375,
            "midi": 79,
            "name": "G5",
            "velocity": 0.3858267716535433,
            "duration": 0.15625,
            "ticks": 894720,
            "durationTicks": 256
          },
          {
            "time": 546.25,
            "midi": 79,
            "name": "G5",
            "velocity": 0.3858267716535433,
            "duration": 0.15625,
            "ticks": 894976,
            "durationTicks": 256
          },
          {
            "time": 546.40625,
            "midi": 76,
            "name": "E5",
            "velocity": 0.3858267716535433,
            "duration": 0.15625,
            "ticks": 895232,
            "durationTicks": 256
          },
          {
            "time": 546.5625,
            "midi": 72,
            "name": "C5",
            "velocity": 0.3858267716535433,
            "duration": 0.15625,
            "ticks": 895488,
            "durationTicks": 256
          },
          {
            "time": 546.71875,
            "midi": 79,
            "name": "G5",
            "velocity": 0.3858267716535433,
            "duration": 0.15625,
            "ticks": 895744,
            "durationTicks": 256
          },
          {
            "time": 546.875,
            "midi": 79,
            "name": "G5",
            "velocity": 0.3858267716535433,
            "duration": 0.15625,
            "ticks": 896000,
            "durationTicks": 256
          },
          {
            "time": 547.03125,
            "midi": 76,
            "name": "E5",
            "velocity": 0.3858267716535433,
            "duration": 0.15625,
            "ticks": 896256,
            "durationTicks": 256
          },
          {
            "time": 547.1875,
            "midi": 72,
            "name": "C5",
            "velocity": 0.3858267716535433,
            "duration": 0.15625,
            "ticks": 896512,
            "durationTicks": 256
          },
          {
            "time": 547.34375,
            "midi": 79,
            "name": "G5",
            "velocity": 0.3858267716535433,
            "duration": 0.15625,
            "ticks": 896768,
            "durationTicks": 256
          },
          {
            "time": 547.5,
            "midi": 81,
            "name": "A5",
            "velocity": 0.3858267716535433,
            "duration": 0.15625,
            "ticks": 897024,
            "durationTicks": 256
          },
          {
            "time": 547.65625,
            "midi": 77,
            "name": "F5",
            "velocity": 0.3858267716535433,
            "duration": 0.15625,
            "ticks": 897280,
            "durationTicks": 256
          },
          {
            "time": 547.8125,
            "midi": 72,
            "name": "C5",
            "velocity": 0.3858267716535433,
            "duration": 0.15625,
            "ticks": 897536,
            "durationTicks": 256
          },
          {
            "time": 547.96875,
            "midi": 81,
            "name": "A5",
            "velocity": 0.3858267716535433,
            "duration": 0.15625,
            "ticks": 897792,
            "durationTicks": 256
          },
          {
            "time": 548.125,
            "midi": 81,
            "name": "A5",
            "velocity": 0.3858267716535433,
            "duration": 0.15625,
            "ticks": 898048,
            "durationTicks": 256
          },
          {
            "time": 548.28125,
            "midi": 77,
            "name": "F5",
            "velocity": 0.3858267716535433,
            "duration": 0.15625,
            "ticks": 898304,
            "durationTicks": 256
          },
          {
            "time": 548.4375,
            "midi": 72,
            "name": "C5",
            "velocity": 0.3858267716535433,
            "duration": 0.15625,
            "ticks": 898560,
            "durationTicks": 256
          },
          {
            "time": 548.59375,
            "midi": 81,
            "name": "A5",
            "velocity": 0.3858267716535433,
            "duration": 0.15625,
            "ticks": 898816,
            "durationTicks": 256
          },
          {
            "time": 548.75,
            "midi": 81,
            "name": "A5",
            "velocity": 0.3858267716535433,
            "duration": 0.15625,
            "ticks": 899072,
            "durationTicks": 256
          },
          {
            "time": 548.90625,
            "midi": 77,
            "name": "F5",
            "velocity": 0.3858267716535433,
            "duration": 0.15625,
            "ticks": 899328,
            "durationTicks": 256
          },
          {
            "time": 549.0625,
            "midi": 72,
            "name": "C5",
            "velocity": 0.3858267716535433,
            "duration": 0.15625,
            "ticks": 899584,
            "durationTicks": 256
          },
          {
            "time": 549.21875,
            "midi": 81,
            "name": "A5",
            "velocity": 0.3858267716535433,
            "duration": 0.15625,
            "ticks": 899840,
            "durationTicks": 256
          },
          {
            "time": 549.375,
            "midi": 79,
            "name": "G5",
            "velocity": 0.3858267716535433,
            "duration": 0.15625,
            "ticks": 900096,
            "durationTicks": 256
          },
          {
            "time": 549.53125,
            "midi": 76,
            "name": "E5",
            "velocity": 0.3858267716535433,
            "duration": 0.15625,
            "ticks": 900352,
            "durationTicks": 256
          },
          {
            "time": 549.6875,
            "midi": 72,
            "name": "C5",
            "velocity": 0.3858267716535433,
            "duration": 0.15625,
            "ticks": 900608,
            "durationTicks": 256
          },
          {
            "time": 549.84375,
            "midi": 79,
            "name": "G5",
            "velocity": 0.3858267716535433,
            "duration": 0.15625,
            "ticks": 900864,
            "durationTicks": 256
          },
          {
            "time": 550,
            "midi": 79,
            "name": "G5",
            "velocity": 0.3858267716535433,
            "duration": 0.15625,
            "ticks": 901120,
            "durationTicks": 256
          },
          {
            "time": 550.15625,
            "midi": 76,
            "name": "E5",
            "velocity": 0.3858267716535433,
            "duration": 0.15625,
            "ticks": 901376,
            "durationTicks": 256
          },
          {
            "time": 550.3125,
            "midi": 69,
            "name": "A4",
            "velocity": 0.3858267716535433,
            "duration": 0.15625,
            "ticks": 901632,
            "durationTicks": 256
          },
          {
            "time": 550.46875,
            "midi": 79,
            "name": "G5",
            "velocity": 0.3858267716535433,
            "duration": 0.15625,
            "ticks": 901888,
            "durationTicks": 256
          },
          {
            "time": 550.625,
            "midi": 79,
            "name": "G5",
            "velocity": 0.3858267716535433,
            "duration": 0.15625,
            "ticks": 902144,
            "durationTicks": 256
          },
          {
            "time": 550.78125,
            "midi": 76,
            "name": "E5",
            "velocity": 0.3858267716535433,
            "duration": 0.15625,
            "ticks": 902400,
            "durationTicks": 256
          },
          {
            "time": 550.9375,
            "midi": 69,
            "name": "A4",
            "velocity": 0.3858267716535433,
            "duration": 0.15625,
            "ticks": 902656,
            "durationTicks": 256
          },
          {
            "time": 551.09375,
            "midi": 79,
            "name": "G5",
            "velocity": 0.3858267716535433,
            "duration": 0.15625,
            "ticks": 902912,
            "durationTicks": 256
          },
          {
            "time": 551.25,
            "midi": 77,
            "name": "F5",
            "velocity": 0.3858267716535433,
            "duration": 0.15625,
            "ticks": 903168,
            "durationTicks": 256
          },
          {
            "time": 551.40625,
            "midi": 74,
            "name": "D5",
            "velocity": 0.3858267716535433,
            "duration": 0.15625,
            "ticks": 903424,
            "durationTicks": 256
          },
          {
            "time": 551.5625,
            "midi": 69,
            "name": "A4",
            "velocity": 0.3858267716535433,
            "duration": 0.15625,
            "ticks": 903680,
            "durationTicks": 256
          },
          {
            "time": 551.71875,
            "midi": 77,
            "name": "F5",
            "velocity": 0.3858267716535433,
            "duration": 0.15625,
            "ticks": 903936,
            "durationTicks": 256
          },
          {
            "time": 551.875,
            "midi": 77,
            "name": "F5",
            "velocity": 0.3858267716535433,
            "duration": 0.15625,
            "ticks": 904192,
            "durationTicks": 256
          },
          {
            "time": 552.03125,
            "midi": 74,
            "name": "D5",
            "velocity": 0.3858267716535433,
            "duration": 0.15625,
            "ticks": 904448,
            "durationTicks": 256
          },
          {
            "time": 552.1875,
            "midi": 70,
            "name": "A#4",
            "velocity": 0.3858267716535433,
            "duration": 0.15625,
            "ticks": 904704,
            "durationTicks": 256
          },
          {
            "time": 552.34375,
            "midi": 77,
            "name": "F5",
            "velocity": 0.3858267716535433,
            "duration": 0.15625,
            "ticks": 904960,
            "durationTicks": 256
          },
          {
            "time": 552.5,
            "midi": 77,
            "name": "F5",
            "velocity": 0.3858267716535433,
            "duration": 0.15625,
            "ticks": 905216,
            "durationTicks": 256
          },
          {
            "time": 552.65625,
            "midi": 74,
            "name": "D5",
            "velocity": 0.3858267716535433,
            "duration": 0.15625,
            "ticks": 905472,
            "durationTicks": 256
          },
          {
            "time": 552.8125,
            "midi": 70,
            "name": "A#4",
            "velocity": 0.3858267716535433,
            "duration": 0.15625,
            "ticks": 905728,
            "durationTicks": 256
          },
          {
            "time": 552.96875,
            "midi": 77,
            "name": "F5",
            "velocity": 0.3858267716535433,
            "duration": 0.15625,
            "ticks": 905984,
            "durationTicks": 256
          },
          {
            "time": 553.125,
            "midi": 76,
            "name": "E5",
            "velocity": 0.3858267716535433,
            "duration": 0.15625,
            "ticks": 906240,
            "durationTicks": 256
          },
          {
            "time": 553.28125,
            "midi": 73,
            "name": "C#5",
            "velocity": 0.3858267716535433,
            "duration": 0.15625,
            "ticks": 906496,
            "durationTicks": 256
          },
          {
            "time": 553.4375,
            "midi": 69,
            "name": "A4",
            "velocity": 0.3858267716535433,
            "duration": 0.15625,
            "ticks": 906752,
            "durationTicks": 256
          },
          {
            "time": 553.59375,
            "midi": 76,
            "name": "E5",
            "velocity": 0.3858267716535433,
            "duration": 0.15625,
            "ticks": 907008,
            "durationTicks": 256
          },
          {
            "time": 553.75,
            "midi": 76,
            "name": "E5",
            "velocity": 0.3858267716535433,
            "duration": 0.15625,
            "ticks": 907264,
            "durationTicks": 256
          },
          {
            "time": 553.90625,
            "midi": 73,
            "name": "C#5",
            "velocity": 0.3858267716535433,
            "duration": 0.15625,
            "ticks": 907520,
            "durationTicks": 256
          },
          {
            "time": 554.0625,
            "midi": 69,
            "name": "A4",
            "velocity": 0.3858267716535433,
            "duration": 0.15625,
            "ticks": 907776,
            "durationTicks": 256
          },
          {
            "time": 554.21875,
            "midi": 76,
            "name": "E5",
            "velocity": 0.3858267716535433,
            "duration": 0.15625,
            "ticks": 908032,
            "durationTicks": 256
          },
          {
            "time": 554.375,
            "midi": 76,
            "name": "E5",
            "velocity": 0.3858267716535433,
            "duration": 0.15625,
            "ticks": 908288,
            "durationTicks": 256
          },
          {
            "time": 554.53125,
            "midi": 73,
            "name": "C#5",
            "velocity": 0.3858267716535433,
            "duration": 0.15625,
            "ticks": 908544,
            "durationTicks": 256
          },
          {
            "time": 554.6875,
            "midi": 69,
            "name": "A4",
            "velocity": 0.3858267716535433,
            "duration": 0.15625,
            "ticks": 908800,
            "durationTicks": 256
          },
          {
            "time": 554.84375,
            "midi": 76,
            "name": "E5",
            "velocity": 0.3858267716535433,
            "duration": 0.15625,
            "ticks": 909056,
            "durationTicks": 256
          },
          {
            "time": 555,
            "midi": 77,
            "name": "F5",
            "velocity": 0.3858267716535433,
            "duration": 0.15625,
            "ticks": 909312,
            "durationTicks": 256
          },
          {
            "time": 555.15625,
            "midi": 74,
            "name": "D5",
            "velocity": 0.3858267716535433,
            "duration": 0.15625,
            "ticks": 909568,
            "durationTicks": 256
          },
          {
            "time": 555.3125,
            "midi": 69,
            "name": "A4",
            "velocity": 0.3858267716535433,
            "duration": 0.15625,
            "ticks": 909824,
            "durationTicks": 256
          },
          {
            "time": 555.46875,
            "midi": 77,
            "name": "F5",
            "velocity": 0.3858267716535433,
            "duration": 0.15625,
            "ticks": 910080,
            "durationTicks": 256
          },
          {
            "time": 555.625,
            "midi": 77,
            "name": "F5",
            "velocity": 0.3858267716535433,
            "duration": 0.15625,
            "ticks": 910336,
            "durationTicks": 256
          },
          {
            "time": 555.78125,
            "midi": 74,
            "name": "D5",
            "velocity": 0.3858267716535433,
            "duration": 0.15625,
            "ticks": 910592,
            "durationTicks": 256
          },
          {
            "time": 555.9375,
            "midi": 69,
            "name": "A4",
            "velocity": 0.3858267716535433,
            "duration": 0.15625,
            "ticks": 910848,
            "durationTicks": 256
          },
          {
            "time": 556.09375,
            "midi": 77,
            "name": "F5",
            "velocity": 0.3858267716535433,
            "duration": 0.15625,
            "ticks": 911104,
            "durationTicks": 256
          },
          {
            "time": 556.25,
            "midi": 77,
            "name": "F5",
            "velocity": 0.3858267716535433,
            "duration": 0.15625,
            "ticks": 911360,
            "durationTicks": 256
          },
          {
            "time": 556.40625,
            "midi": 74,
            "name": "D5",
            "velocity": 0.3858267716535433,
            "duration": 0.15625,
            "ticks": 911616,
            "durationTicks": 256
          },
          {
            "time": 556.5625,
            "midi": 69,
            "name": "A4",
            "velocity": 0.3858267716535433,
            "duration": 0.15625,
            "ticks": 911872,
            "durationTicks": 256
          },
          {
            "time": 556.71875,
            "midi": 77,
            "name": "F5",
            "velocity": 0.3858267716535433,
            "duration": 0.15625,
            "ticks": 912128,
            "durationTicks": 256
          },
          {
            "time": 556.875,
            "midi": 76,
            "name": "E5",
            "velocity": 0.3858267716535433,
            "duration": 0.15625,
            "ticks": 912384,
            "durationTicks": 256
          },
          {
            "time": 557.03125,
            "midi": 73,
            "name": "C#5",
            "velocity": 0.3858267716535433,
            "duration": 0.15625,
            "ticks": 912640,
            "durationTicks": 256
          },
          {
            "time": 557.1875,
            "midi": 69,
            "name": "A4",
            "velocity": 0.3858267716535433,
            "duration": 0.15625,
            "ticks": 912896,
            "durationTicks": 256
          },
          {
            "time": 557.34375,
            "midi": 76,
            "name": "E5",
            "velocity": 0.3858267716535433,
            "duration": 0.15625,
            "ticks": 913152,
            "durationTicks": 256
          },
          {
            "time": 557.5,
            "midi": 76,
            "name": "E5",
            "velocity": 0.3858267716535433,
            "duration": 0.15625,
            "ticks": 913408,
            "durationTicks": 256
          },
          {
            "time": 557.65625,
            "midi": 73,
            "name": "C#5",
            "velocity": 0.3858267716535433,
            "duration": 0.15625,
            "ticks": 913664,
            "durationTicks": 256
          },
          {
            "time": 557.8125,
            "midi": 69,
            "name": "A4",
            "velocity": 0.3858267716535433,
            "duration": 0.15625,
            "ticks": 913920,
            "durationTicks": 256
          },
          {
            "time": 557.96875,
            "midi": 76,
            "name": "E5",
            "velocity": 0.3858267716535433,
            "duration": 0.15625,
            "ticks": 914176,
            "durationTicks": 256
          },
          {
            "time": 558.125,
            "midi": 76,
            "name": "E5",
            "velocity": 0.3858267716535433,
            "duration": 0.15625,
            "ticks": 914432,
            "durationTicks": 256
          },
          {
            "time": 558.28125,
            "midi": 73,
            "name": "C#5",
            "velocity": 0.3858267716535433,
            "duration": 0.15625,
            "ticks": 914688,
            "durationTicks": 256
          },
          {
            "time": 558.4375,
            "midi": 69,
            "name": "A4",
            "velocity": 0.3858267716535433,
            "duration": 0.15625,
            "ticks": 914944,
            "durationTicks": 256
          },
          {
            "time": 558.59375,
            "midi": 76,
            "name": "E5",
            "velocity": 0.3858267716535433,
            "duration": 0.15625,
            "ticks": 915200,
            "durationTicks": 256
          },
          {
            "time": 558.75,
            "midi": 77,
            "name": "F5",
            "velocity": 0.3858267716535433,
            "duration": 0.15625,
            "ticks": 915456,
            "durationTicks": 256
          },
          {
            "time": 558.90625,
            "midi": 74,
            "name": "D5",
            "velocity": 0.3858267716535433,
            "duration": 0.15625,
            "ticks": 915712,
            "durationTicks": 256
          },
          {
            "time": 559.0625,
            "midi": 69,
            "name": "A4",
            "velocity": 0.3858267716535433,
            "duration": 0.15625,
            "ticks": 915968,
            "durationTicks": 256
          },
          {
            "time": 559.21875,
            "midi": 77,
            "name": "F5",
            "velocity": 0.3858267716535433,
            "duration": 0.15625,
            "ticks": 916224,
            "durationTicks": 256
          },
          {
            "time": 559.375,
            "midi": 77,
            "name": "F5",
            "velocity": 0.3858267716535433,
            "duration": 0.15625,
            "ticks": 916480,
            "durationTicks": 256
          },
          {
            "time": 559.53125,
            "midi": 74,
            "name": "D5",
            "velocity": 0.3858267716535433,
            "duration": 0.15625,
            "ticks": 916736,
            "durationTicks": 256
          },
          {
            "time": 559.6875,
            "midi": 69,
            "name": "A4",
            "velocity": 0.3858267716535433,
            "duration": 0.15625,
            "ticks": 916992,
            "durationTicks": 256
          },
          {
            "time": 559.84375,
            "midi": 77,
            "name": "F5",
            "velocity": 0.3858267716535433,
            "duration": 0.15625,
            "ticks": 917248,
            "durationTicks": 256
          },
          {
            "time": 560,
            "midi": 77,
            "name": "F5",
            "velocity": 0.3858267716535433,
            "duration": 0.15625,
            "ticks": 917504,
            "durationTicks": 256
          },
          {
            "time": 560.15625,
            "midi": 74,
            "name": "D5",
            "velocity": 0.3858267716535433,
            "duration": 0.15625,
            "ticks": 917760,
            "durationTicks": 256
          },
          {
            "time": 560.3125,
            "midi": 69,
            "name": "A4",
            "velocity": 0.3858267716535433,
            "duration": 0.15625,
            "ticks": 918016,
            "durationTicks": 256
          },
          {
            "time": 560.46875,
            "midi": 77,
            "name": "F5",
            "velocity": 0.3858267716535433,
            "duration": 0.15625,
            "ticks": 918272,
            "durationTicks": 256
          },
          {
            "time": 560.625,
            "midi": 79,
            "name": "G5",
            "velocity": 0.3858267716535433,
            "duration": 0.15625,
            "ticks": 918528,
            "durationTicks": 256
          },
          {
            "time": 560.78125,
            "midi": 76,
            "name": "E5",
            "velocity": 0.3858267716535433,
            "duration": 0.15625,
            "ticks": 918784,
            "durationTicks": 256
          },
          {
            "time": 560.9375,
            "midi": 72,
            "name": "C5",
            "velocity": 0.3858267716535433,
            "duration": 0.15625,
            "ticks": 919040,
            "durationTicks": 256
          },
          {
            "time": 561.09375,
            "midi": 79,
            "name": "G5",
            "velocity": 0.3858267716535433,
            "duration": 0.15625,
            "ticks": 919296,
            "durationTicks": 256
          },
          {
            "time": 561.25,
            "midi": 79,
            "name": "G5",
            "velocity": 0.3858267716535433,
            "duration": 0.15625,
            "ticks": 919552,
            "durationTicks": 256
          },
          {
            "time": 561.40625,
            "midi": 76,
            "name": "E5",
            "velocity": 0.3858267716535433,
            "duration": 0.15625,
            "ticks": 919808,
            "durationTicks": 256
          },
          {
            "time": 561.5625,
            "midi": 72,
            "name": "C5",
            "velocity": 0.3858267716535433,
            "duration": 0.15625,
            "ticks": 920064,
            "durationTicks": 256
          },
          {
            "time": 561.71875,
            "midi": 79,
            "name": "G5",
            "velocity": 0.3858267716535433,
            "duration": 0.15625,
            "ticks": 920320,
            "durationTicks": 256
          },
          {
            "time": 561.875,
            "midi": 79,
            "name": "G5",
            "velocity": 0.3858267716535433,
            "duration": 0.15625,
            "ticks": 920576,
            "durationTicks": 256
          },
          {
            "time": 562.03125,
            "midi": 76,
            "name": "E5",
            "velocity": 0.3858267716535433,
            "duration": 0.15625,
            "ticks": 920832,
            "durationTicks": 256
          },
          {
            "time": 562.1875,
            "midi": 72,
            "name": "C5",
            "velocity": 0.3858267716535433,
            "duration": 0.15625,
            "ticks": 921088,
            "durationTicks": 256
          },
          {
            "time": 562.34375,
            "midi": 79,
            "name": "G5",
            "velocity": 0.3858267716535433,
            "duration": 0.15625,
            "ticks": 921344,
            "durationTicks": 256
          },
          {
            "time": 562.5,
            "midi": 81,
            "name": "A5",
            "velocity": 0.3858267716535433,
            "duration": 0.15625,
            "ticks": 921600,
            "durationTicks": 256
          },
          {
            "time": 562.65625,
            "midi": 77,
            "name": "F5",
            "velocity": 0.3858267716535433,
            "duration": 0.15625,
            "ticks": 921856,
            "durationTicks": 256
          },
          {
            "time": 562.8125,
            "midi": 72,
            "name": "C5",
            "velocity": 0.3858267716535433,
            "duration": 0.15625,
            "ticks": 922112,
            "durationTicks": 256
          },
          {
            "time": 562.96875,
            "midi": 81,
            "name": "A5",
            "velocity": 0.3858267716535433,
            "duration": 0.15625,
            "ticks": 922368,
            "durationTicks": 256
          },
          {
            "time": 563.125,
            "midi": 81,
            "name": "A5",
            "velocity": 0.3858267716535433,
            "duration": 0.15625,
            "ticks": 922624,
            "durationTicks": 256
          },
          {
            "time": 563.28125,
            "midi": 77,
            "name": "F5",
            "velocity": 0.3858267716535433,
            "duration": 0.15625,
            "ticks": 922880,
            "durationTicks": 256
          },
          {
            "time": 563.4375,
            "midi": 72,
            "name": "C5",
            "velocity": 0.3858267716535433,
            "duration": 0.15625,
            "ticks": 923136,
            "durationTicks": 256
          },
          {
            "time": 563.59375,
            "midi": 81,
            "name": "A5",
            "velocity": 0.3858267716535433,
            "duration": 0.15625,
            "ticks": 923392,
            "durationTicks": 256
          },
          {
            "time": 563.75,
            "midi": 81,
            "name": "A5",
            "velocity": 0.3858267716535433,
            "duration": 0.15625,
            "ticks": 923648,
            "durationTicks": 256
          },
          {
            "time": 563.90625,
            "midi": 77,
            "name": "F5",
            "velocity": 0.3858267716535433,
            "duration": 0.15625,
            "ticks": 923904,
            "durationTicks": 256
          },
          {
            "time": 564.0625,
            "midi": 72,
            "name": "C5",
            "velocity": 0.3858267716535433,
            "duration": 0.15625,
            "ticks": 924160,
            "durationTicks": 256
          },
          {
            "time": 564.21875,
            "midi": 81,
            "name": "A5",
            "velocity": 0.3858267716535433,
            "duration": 0.15625,
            "ticks": 924416,
            "durationTicks": 256
          },
          {
            "time": 564.375,
            "midi": 79,
            "name": "G5",
            "velocity": 0.3858267716535433,
            "duration": 0.15625,
            "ticks": 924672,
            "durationTicks": 256
          },
          {
            "time": 564.53125,
            "midi": 76,
            "name": "E5",
            "velocity": 0.3858267716535433,
            "duration": 0.15625,
            "ticks": 924928,
            "durationTicks": 256
          },
          {
            "time": 564.6875,
            "midi": 72,
            "name": "C5",
            "velocity": 0.3858267716535433,
            "duration": 0.15625,
            "ticks": 925184,
            "durationTicks": 256
          },
          {
            "time": 564.84375,
            "midi": 79,
            "name": "G5",
            "velocity": 0.3858267716535433,
            "duration": 0.15625,
            "ticks": 925440,
            "durationTicks": 256
          },
          {
            "time": 565,
            "midi": 79,
            "name": "G5",
            "velocity": 0.3858267716535433,
            "duration": 0.15625,
            "ticks": 925696,
            "durationTicks": 256
          },
          {
            "time": 565.15625,
            "midi": 76,
            "name": "E5",
            "velocity": 0.3858267716535433,
            "duration": 0.15625,
            "ticks": 925952,
            "durationTicks": 256
          },
          {
            "time": 565.3125,
            "midi": 69,
            "name": "A4",
            "velocity": 0.3858267716535433,
            "duration": 0.15625,
            "ticks": 926208,
            "durationTicks": 256
          },
          {
            "time": 565.46875,
            "midi": 79,
            "name": "G5",
            "velocity": 0.3858267716535433,
            "duration": 0.15625,
            "ticks": 926464,
            "durationTicks": 256
          },
          {
            "time": 565.625,
            "midi": 79,
            "name": "G5",
            "velocity": 0.3858267716535433,
            "duration": 0.15625,
            "ticks": 926720,
            "durationTicks": 256
          },
          {
            "time": 565.78125,
            "midi": 76,
            "name": "E5",
            "velocity": 0.3858267716535433,
            "duration": 0.15625,
            "ticks": 926976,
            "durationTicks": 256
          },
          {
            "time": 565.9375,
            "midi": 69,
            "name": "A4",
            "velocity": 0.3858267716535433,
            "duration": 0.15625,
            "ticks": 927232,
            "durationTicks": 256
          },
          {
            "time": 566.09375,
            "midi": 79,
            "name": "G5",
            "velocity": 0.3858267716535433,
            "duration": 0.15625,
            "ticks": 927488,
            "durationTicks": 256
          },
          {
            "time": 566.25,
            "midi": 77,
            "name": "F5",
            "velocity": 0.3858267716535433,
            "duration": 0.15625,
            "ticks": 927744,
            "durationTicks": 256
          },
          {
            "time": 566.40625,
            "midi": 74,
            "name": "D5",
            "velocity": 0.3858267716535433,
            "duration": 0.15625,
            "ticks": 928000,
            "durationTicks": 256
          },
          {
            "time": 566.5625,
            "midi": 69,
            "name": "A4",
            "velocity": 0.3858267716535433,
            "duration": 0.15625,
            "ticks": 928256,
            "durationTicks": 256
          },
          {
            "time": 566.71875,
            "midi": 77,
            "name": "F5",
            "velocity": 0.3858267716535433,
            "duration": 0.15625,
            "ticks": 928512,
            "durationTicks": 256
          },
          {
            "time": 566.875,
            "midi": 76,
            "name": "E5",
            "velocity": 0.3858267716535433,
            "duration": 0.15625,
            "ticks": 928768,
            "durationTicks": 256
          },
          {
            "time": 567.03125,
            "midi": 73,
            "name": "C#5",
            "velocity": 0.3858267716535433,
            "duration": 0.15625,
            "ticks": 929024,
            "durationTicks": 256
          },
          {
            "time": 567.1875,
            "midi": 69,
            "name": "A4",
            "velocity": 0.3858267716535433,
            "duration": 0.15625,
            "ticks": 929280,
            "durationTicks": 256
          },
          {
            "time": 567.34375,
            "midi": 76,
            "name": "E5",
            "velocity": 0.3858267716535433,
            "duration": 0.15625,
            "ticks": 929536,
            "durationTicks": 256
          },
          {
            "time": 567.5,
            "midi": 76,
            "name": "E5",
            "velocity": 0.3858267716535433,
            "duration": 0.15625,
            "ticks": 929792,
            "durationTicks": 256
          },
          {
            "time": 567.65625,
            "midi": 73,
            "name": "C#5",
            "velocity": 0.3858267716535433,
            "duration": 0.15625,
            "ticks": 930048,
            "durationTicks": 256
          },
          {
            "time": 567.8125,
            "midi": 69,
            "name": "A4",
            "velocity": 0.3858267716535433,
            "duration": 0.15625,
            "ticks": 930304,
            "durationTicks": 256
          },
          {
            "time": 567.96875,
            "midi": 76,
            "name": "E5",
            "velocity": 0.3858267716535433,
            "duration": 0.15625,
            "ticks": 930560,
            "durationTicks": 256
          },
          {
            "time": 568.125,
            "midi": 74,
            "name": "D5",
            "velocity": 0.3858267716535433,
            "duration": 1.875,
            "ticks": 930816,
            "durationTicks": 3072
          },
          {
            "time": 570,
            "midi": 77,
            "name": "F5",
            "velocity": 0.3858267716535433,
            "duration": 0.15625,
            "ticks": 933888,
            "durationTicks": 256
          },
          {
            "time": 570.15625,
            "midi": 81,
            "name": "A5",
            "velocity": 0.3858267716535433,
            "duration": 0.15625,
            "ticks": 934144,
            "durationTicks": 256
          },
          {
            "time": 570.3125,
            "midi": 81,
            "name": "A5",
            "velocity": 0.3858267716535433,
            "duration": 0.15625,
            "ticks": 934400,
            "durationTicks": 256
          },
          {
            "time": 570.46875,
            "midi": 77,
            "name": "F5",
            "velocity": 0.3858267716535433,
            "duration": 0.15625,
            "ticks": 934656,
            "durationTicks": 256
          },
          {
            "time": 570.625,
            "midi": 77,
            "name": "F5",
            "velocity": 0.3858267716535433,
            "duration": 0.15625,
            "ticks": 934912,
            "durationTicks": 256
          },
          {
            "time": 570.78125,
            "midi": 81,
            "name": "A5",
            "velocity": 0.3858267716535433,
            "duration": 0.15625,
            "ticks": 935168,
            "durationTicks": 256
          },
          {
            "time": 570.9375,
            "midi": 81,
            "name": "A5",
            "velocity": 0.3858267716535433,
            "duration": 0.15625,
            "ticks": 935424,
            "durationTicks": 256
          },
          {
            "time": 571.09375,
            "midi": 77,
            "name": "F5",
            "velocity": 0.3858267716535433,
            "duration": 0.15625,
            "ticks": 935680,
            "durationTicks": 256
          },
          {
            "time": 571.25,
            "midi": 77,
            "name": "F5",
            "velocity": 0.3858267716535433,
            "duration": 0.15625,
            "ticks": 935936,
            "durationTicks": 256
          },
          {
            "time": 571.40625,
            "midi": 81,
            "name": "A5",
            "velocity": 0.3858267716535433,
            "duration": 0.15625,
            "ticks": 936192,
            "durationTicks": 256
          },
          {
            "time": 571.5625,
            "midi": 81,
            "name": "A5",
            "velocity": 0.3858267716535433,
            "duration": 0.15625,
            "ticks": 936448,
            "durationTicks": 256
          },
          {
            "time": 571.71875,
            "midi": 77,
            "name": "F5",
            "velocity": 0.3858267716535433,
            "duration": 0.15625,
            "ticks": 936704,
            "durationTicks": 256
          },
          {
            "time": 571.875,
            "midi": 76,
            "name": "E5",
            "velocity": 0.3858267716535433,
            "duration": 0.15625,
            "ticks": 936960,
            "durationTicks": 256
          },
          {
            "time": 572.03125,
            "midi": 79,
            "name": "G5",
            "velocity": 0.3858267716535433,
            "duration": 0.15625,
            "ticks": 937216,
            "durationTicks": 256
          },
          {
            "time": 572.1875,
            "midi": 79,
            "name": "G5",
            "velocity": 0.3858267716535433,
            "duration": 0.15625,
            "ticks": 937472,
            "durationTicks": 256
          },
          {
            "time": 572.34375,
            "midi": 76,
            "name": "E5",
            "velocity": 0.3858267716535433,
            "duration": 0.15625,
            "ticks": 937728,
            "durationTicks": 256
          },
          {
            "time": 572.5,
            "midi": 76,
            "name": "E5",
            "velocity": 0.3858267716535433,
            "duration": 0.15625,
            "ticks": 937984,
            "durationTicks": 256
          },
          {
            "time": 572.65625,
            "midi": 79,
            "name": "G5",
            "velocity": 0.3858267716535433,
            "duration": 0.15625,
            "ticks": 938240,
            "durationTicks": 256
          },
          {
            "time": 572.8125,
            "midi": 79,
            "name": "G5",
            "velocity": 0.3858267716535433,
            "duration": 0.15625,
            "ticks": 938496,
            "durationTicks": 256
          },
          {
            "time": 572.96875,
            "midi": 76,
            "name": "E5",
            "velocity": 0.3858267716535433,
            "duration": 0.15625,
            "ticks": 938752,
            "durationTicks": 256
          },
          {
            "time": 573.125,
            "midi": 76,
            "name": "E5",
            "velocity": 0.3858267716535433,
            "duration": 0.15625,
            "ticks": 939008,
            "durationTicks": 256
          },
          {
            "time": 573.28125,
            "midi": 79,
            "name": "G5",
            "velocity": 0.3858267716535433,
            "duration": 0.15625,
            "ticks": 939264,
            "durationTicks": 256
          },
          {
            "time": 573.4375,
            "midi": 79,
            "name": "G5",
            "velocity": 0.3858267716535433,
            "duration": 0.15625,
            "ticks": 939520,
            "durationTicks": 256
          },
          {
            "time": 573.59375,
            "midi": 76,
            "name": "E5",
            "velocity": 0.3858267716535433,
            "duration": 0.15625,
            "ticks": 939776,
            "durationTicks": 256
          },
          {
            "time": 573.75,
            "midi": 77,
            "name": "F5",
            "velocity": 0.3858267716535433,
            "duration": 0.15625,
            "ticks": 940032,
            "durationTicks": 256
          },
          {
            "time": 573.90625,
            "midi": 81,
            "name": "A5",
            "velocity": 0.3858267716535433,
            "duration": 0.15625,
            "ticks": 940288,
            "durationTicks": 256
          },
          {
            "time": 574.0625,
            "midi": 81,
            "name": "A5",
            "velocity": 0.3858267716535433,
            "duration": 0.15625,
            "ticks": 940544,
            "durationTicks": 256
          },
          {
            "time": 574.21875,
            "midi": 77,
            "name": "F5",
            "velocity": 0.3858267716535433,
            "duration": 0.15625,
            "ticks": 940800,
            "durationTicks": 256
          },
          {
            "time": 574.375,
            "midi": 77,
            "name": "F5",
            "velocity": 0.3858267716535433,
            "duration": 0.15625,
            "ticks": 941056,
            "durationTicks": 256
          },
          {
            "time": 574.53125,
            "midi": 81,
            "name": "A5",
            "velocity": 0.3858267716535433,
            "duration": 0.15625,
            "ticks": 941312,
            "durationTicks": 256
          },
          {
            "time": 574.6875,
            "midi": 81,
            "name": "A5",
            "velocity": 0.3858267716535433,
            "duration": 0.15625,
            "ticks": 941568,
            "durationTicks": 256
          },
          {
            "time": 574.84375,
            "midi": 77,
            "name": "F5",
            "velocity": 0.3858267716535433,
            "duration": 0.15625,
            "ticks": 941824,
            "durationTicks": 256
          },
          {
            "time": 575,
            "midi": 77,
            "name": "F5",
            "velocity": 0.3858267716535433,
            "duration": 0.15625,
            "ticks": 942080,
            "durationTicks": 256
          },
          {
            "time": 575.15625,
            "midi": 82,
            "name": "A#5",
            "velocity": 0.3858267716535433,
            "duration": 0.15625,
            "ticks": 942336,
            "durationTicks": 256
          },
          {
            "time": 575.3125,
            "midi": 82,
            "name": "A#5",
            "velocity": 0.3858267716535433,
            "duration": 0.15625,
            "ticks": 942592,
            "durationTicks": 256
          },
          {
            "time": 575.46875,
            "midi": 77,
            "name": "F5",
            "velocity": 0.3858267716535433,
            "duration": 0.15625,
            "ticks": 942848,
            "durationTicks": 256
          },
          {
            "time": 575.625,
            "midi": 79,
            "name": "G5",
            "velocity": 0.3858267716535433,
            "duration": 0.15625,
            "ticks": 943104,
            "durationTicks": 256
          },
          {
            "time": 575.78125,
            "midi": 82,
            "name": "A#5",
            "velocity": 0.3858267716535433,
            "duration": 0.15625,
            "ticks": 943360,
            "durationTicks": 256
          },
          {
            "time": 575.9375,
            "midi": 82,
            "name": "A#5",
            "velocity": 0.3858267716535433,
            "duration": 0.15625,
            "ticks": 943616,
            "durationTicks": 256
          },
          {
            "time": 576.09375,
            "midi": 79,
            "name": "G5",
            "velocity": 0.3858267716535433,
            "duration": 0.15625,
            "ticks": 943872,
            "durationTicks": 256
          },
          {
            "time": 576.25,
            "midi": 79,
            "name": "G5",
            "velocity": 0.3858267716535433,
            "duration": 0.15625,
            "ticks": 944128,
            "durationTicks": 256
          },
          {
            "time": 576.40625,
            "midi": 82,
            "name": "A#5",
            "velocity": 0.3858267716535433,
            "duration": 0.15625,
            "ticks": 944384,
            "durationTicks": 256
          },
          {
            "time": 576.5625,
            "midi": 82,
            "name": "A#5",
            "velocity": 0.3858267716535433,
            "duration": 0.15625,
            "ticks": 944640,
            "durationTicks": 256
          },
          {
            "time": 576.71875,
            "midi": 79,
            "name": "G5",
            "velocity": 0.3858267716535433,
            "duration": 0.15625,
            "ticks": 944896,
            "durationTicks": 256
          },
          {
            "time": 576.875,
            "midi": 79,
            "name": "G5",
            "velocity": 0.3858267716535433,
            "duration": 0.15625,
            "ticks": 945152,
            "durationTicks": 256
          },
          {
            "time": 577.03125,
            "midi": 82,
            "name": "A#5",
            "velocity": 0.3858267716535433,
            "duration": 0.15625,
            "ticks": 945408,
            "durationTicks": 256
          },
          {
            "time": 577.1875,
            "midi": 82,
            "name": "A#5",
            "velocity": 0.3858267716535433,
            "duration": 0.15625,
            "ticks": 945664,
            "durationTicks": 256
          },
          {
            "time": 577.34375,
            "midi": 79,
            "name": "G5",
            "velocity": 0.3858267716535433,
            "duration": 0.15625,
            "ticks": 945920,
            "durationTicks": 256
          },
          {
            "time": 577.5,
            "midi": 81,
            "name": "A5",
            "velocity": 0.3858267716535433,
            "duration": 0.15625,
            "ticks": 946176,
            "durationTicks": 256
          },
          {
            "time": 577.65625,
            "midi": 84,
            "name": "C6",
            "velocity": 0.3858267716535433,
            "duration": 0.15625,
            "ticks": 946432,
            "durationTicks": 256
          },
          {
            "time": 577.8125,
            "midi": 84,
            "name": "C6",
            "velocity": 0.3858267716535433,
            "duration": 0.15625,
            "ticks": 946688,
            "durationTicks": 256
          },
          {
            "time": 577.96875,
            "midi": 81,
            "name": "A5",
            "velocity": 0.3858267716535433,
            "duration": 0.15625,
            "ticks": 946944,
            "durationTicks": 256
          },
          {
            "time": 578.125,
            "midi": 81,
            "name": "A5",
            "velocity": 0.3858267716535433,
            "duration": 0.15625,
            "ticks": 947200,
            "durationTicks": 256
          },
          {
            "time": 578.28125,
            "midi": 84,
            "name": "C6",
            "velocity": 0.3858267716535433,
            "duration": 0.15625,
            "ticks": 947456,
            "durationTicks": 256
          },
          {
            "time": 578.4375,
            "midi": 84,
            "name": "C6",
            "velocity": 0.3858267716535433,
            "duration": 0.15625,
            "ticks": 947712,
            "durationTicks": 256
          },
          {
            "time": 578.59375,
            "midi": 81,
            "name": "A5",
            "velocity": 0.3858267716535433,
            "duration": 0.15625,
            "ticks": 947968,
            "durationTicks": 256
          },
          {
            "time": 578.75,
            "midi": 81,
            "name": "A5",
            "velocity": 0.3858267716535433,
            "duration": 0.15625,
            "ticks": 948224,
            "durationTicks": 256
          },
          {
            "time": 578.90625,
            "midi": 84,
            "name": "C6",
            "velocity": 0.3858267716535433,
            "duration": 0.15625,
            "ticks": 948480,
            "durationTicks": 256
          },
          {
            "time": 579.0625,
            "midi": 84,
            "name": "C6",
            "velocity": 0.3858267716535433,
            "duration": 0.15625,
            "ticks": 948736,
            "durationTicks": 256
          },
          {
            "time": 579.21875,
            "midi": 81,
            "name": "A5",
            "velocity": 0.3858267716535433,
            "duration": 0.15625,
            "ticks": 948992,
            "durationTicks": 256
          },
          {
            "time": 579.375,
            "midi": 79,
            "name": "G5",
            "velocity": 0.3858267716535433,
            "duration": 0.15625,
            "ticks": 949248,
            "durationTicks": 256
          },
          {
            "time": 579.53125,
            "midi": 82,
            "name": "A#5",
            "velocity": 0.3858267716535433,
            "duration": 0.15625,
            "ticks": 949504,
            "durationTicks": 256
          },
          {
            "time": 579.6875,
            "midi": 82,
            "name": "A#5",
            "velocity": 0.3858267716535433,
            "duration": 0.15625,
            "ticks": 949760,
            "durationTicks": 256
          },
          {
            "time": 579.84375,
            "midi": 79,
            "name": "G5",
            "velocity": 0.3858267716535433,
            "duration": 0.15625,
            "ticks": 950016,
            "durationTicks": 256
          },
          {
            "time": 580,
            "midi": 79,
            "name": "G5",
            "velocity": 0.3858267716535433,
            "duration": 0.15625,
            "ticks": 950272,
            "durationTicks": 256
          },
          {
            "time": 580.15625,
            "midi": 82,
            "name": "A#5",
            "velocity": 0.3858267716535433,
            "duration": 0.15625,
            "ticks": 950528,
            "durationTicks": 256
          },
          {
            "time": 580.3125,
            "midi": 82,
            "name": "A#5",
            "velocity": 0.3858267716535433,
            "duration": 0.15625,
            "ticks": 950784,
            "durationTicks": 256
          },
          {
            "time": 580.46875,
            "midi": 79,
            "name": "G5",
            "velocity": 0.3858267716535433,
            "duration": 0.15625,
            "ticks": 951040,
            "durationTicks": 256
          },
          {
            "time": 580.625,
            "midi": 79,
            "name": "G5",
            "velocity": 0.3858267716535433,
            "duration": 0.15625,
            "ticks": 951296,
            "durationTicks": 256
          },
          {
            "time": 580.78125,
            "midi": 82,
            "name": "A#5",
            "velocity": 0.3858267716535433,
            "duration": 0.15625,
            "ticks": 951552,
            "durationTicks": 256
          },
          {
            "time": 580.9375,
            "midi": 82,
            "name": "A#5",
            "velocity": 0.3858267716535433,
            "duration": 0.15625,
            "ticks": 951808,
            "durationTicks": 256
          },
          {
            "time": 581.09375,
            "midi": 79,
            "name": "G5",
            "velocity": 0.3858267716535433,
            "duration": 0.15625,
            "ticks": 952064,
            "durationTicks": 256
          },
          {
            "time": 581.25,
            "midi": 77,
            "name": "F5",
            "velocity": 0.3858267716535433,
            "duration": 0.15625,
            "ticks": 952320,
            "durationTicks": 256
          },
          {
            "time": 581.40625,
            "midi": 81,
            "name": "A5",
            "velocity": 0.3858267716535433,
            "duration": 0.15625,
            "ticks": 952576,
            "durationTicks": 256
          },
          {
            "time": 581.5625,
            "midi": 81,
            "name": "A5",
            "velocity": 0.3858267716535433,
            "duration": 0.15625,
            "ticks": 952832,
            "durationTicks": 256
          },
          {
            "time": 581.71875,
            "midi": 77,
            "name": "F5",
            "velocity": 0.3858267716535433,
            "duration": 0.15625,
            "ticks": 953088,
            "durationTicks": 256
          },
          {
            "time": 581.875,
            "midi": 77,
            "name": "F5",
            "velocity": 0.3858267716535433,
            "duration": 0.15625,
            "ticks": 953344,
            "durationTicks": 256
          },
          {
            "time": 582.03125,
            "midi": 81,
            "name": "A5",
            "velocity": 0.3858267716535433,
            "duration": 0.15625,
            "ticks": 953600,
            "durationTicks": 256
          },
          {
            "time": 582.1875,
            "midi": 81,
            "name": "A5",
            "velocity": 0.3858267716535433,
            "duration": 0.15625,
            "ticks": 953856,
            "durationTicks": 256
          },
          {
            "time": 582.34375,
            "midi": 77,
            "name": "F5",
            "velocity": 0.3858267716535433,
            "duration": 0.15625,
            "ticks": 954112,
            "durationTicks": 256
          },
          {
            "time": 582.5,
            "midi": 77,
            "name": "F5",
            "velocity": 0.3858267716535433,
            "duration": 0.15625,
            "ticks": 954368,
            "durationTicks": 256
          },
          {
            "time": 582.65625,
            "midi": 81,
            "name": "A5",
            "velocity": 0.3858267716535433,
            "duration": 0.15625,
            "ticks": 954624,
            "durationTicks": 256
          },
          {
            "time": 582.8125,
            "midi": 81,
            "name": "A5",
            "velocity": 0.3858267716535433,
            "duration": 0.15625,
            "ticks": 954880,
            "durationTicks": 256
          },
          {
            "time": 582.96875,
            "midi": 77,
            "name": "F5",
            "velocity": 0.3858267716535433,
            "duration": 0.15625,
            "ticks": 955136,
            "durationTicks": 256
          },
          {
            "time": 583.125,
            "midi": 76,
            "name": "E5",
            "velocity": 0.3858267716535433,
            "duration": 0.15625,
            "ticks": 955392,
            "durationTicks": 256
          },
          {
            "time": 583.28125,
            "midi": 79,
            "name": "G5",
            "velocity": 0.3858267716535433,
            "duration": 0.15625,
            "ticks": 955648,
            "durationTicks": 256
          },
          {
            "time": 583.4375,
            "midi": 79,
            "name": "G5",
            "velocity": 0.3858267716535433,
            "duration": 0.15625,
            "ticks": 955904,
            "durationTicks": 256
          },
          {
            "time": 583.59375,
            "midi": 76,
            "name": "E5",
            "velocity": 0.3858267716535433,
            "duration": 0.15625,
            "ticks": 956160,
            "durationTicks": 256
          },
          {
            "time": 583.75,
            "midi": 76,
            "name": "E5",
            "velocity": 0.3858267716535433,
            "duration": 0.15625,
            "ticks": 956416,
            "durationTicks": 256
          },
          {
            "time": 583.90625,
            "midi": 79,
            "name": "G5",
            "velocity": 0.3858267716535433,
            "duration": 0.15625,
            "ticks": 956672,
            "durationTicks": 256
          },
          {
            "time": 584.0625,
            "midi": 79,
            "name": "G5",
            "velocity": 0.3858267716535433,
            "duration": 0.15625,
            "ticks": 956928,
            "durationTicks": 256
          },
          {
            "time": 584.21875,
            "midi": 76,
            "name": "E5",
            "velocity": 0.3858267716535433,
            "duration": 0.15625,
            "ticks": 957184,
            "durationTicks": 256
          },
          {
            "time": 584.375,
            "midi": 76,
            "name": "E5",
            "velocity": 0.3858267716535433,
            "duration": 0.15625,
            "ticks": 957440,
            "durationTicks": 256
          },
          {
            "time": 584.53125,
            "midi": 79,
            "name": "G5",
            "velocity": 0.3858267716535433,
            "duration": 0.15625,
            "ticks": 957696,
            "durationTicks": 256
          },
          {
            "time": 584.6875,
            "midi": 79,
            "name": "G5",
            "velocity": 0.3858267716535433,
            "duration": 0.15625,
            "ticks": 957952,
            "durationTicks": 256
          },
          {
            "time": 584.84375,
            "midi": 76,
            "name": "E5",
            "velocity": 0.3858267716535433,
            "duration": 0.15625,
            "ticks": 958208,
            "durationTicks": 256
          },
          {
            "time": 585,
            "midi": 77,
            "name": "F5",
            "velocity": 0.3858267716535433,
            "duration": 0.15625,
            "ticks": 958464,
            "durationTicks": 256
          },
          {
            "time": 585.15625,
            "midi": 81,
            "name": "A5",
            "velocity": 0.3858267716535433,
            "duration": 0.15625,
            "ticks": 958720,
            "durationTicks": 256
          },
          {
            "time": 585.3125,
            "midi": 81,
            "name": "A5",
            "velocity": 0.3858267716535433,
            "duration": 0.15625,
            "ticks": 958976,
            "durationTicks": 256
          },
          {
            "time": 585.46875,
            "midi": 77,
            "name": "F5",
            "velocity": 0.3858267716535433,
            "duration": 0.15625,
            "ticks": 959232,
            "durationTicks": 256
          },
          {
            "time": 585.625,
            "midi": 77,
            "name": "F5",
            "velocity": 0.3858267716535433,
            "duration": 0.15625,
            "ticks": 959488,
            "durationTicks": 256
          },
          {
            "time": 585.78125,
            "midi": 81,
            "name": "A5",
            "velocity": 0.3858267716535433,
            "duration": 0.15625,
            "ticks": 959744,
            "durationTicks": 256
          },
          {
            "time": 585.9375,
            "midi": 81,
            "name": "A5",
            "velocity": 0.3858267716535433,
            "duration": 0.15625,
            "ticks": 960000,
            "durationTicks": 256
          },
          {
            "time": 586.09375,
            "midi": 77,
            "name": "F5",
            "velocity": 0.3858267716535433,
            "duration": 0.15625,
            "ticks": 960256,
            "durationTicks": 256
          },
          {
            "time": 586.25,
            "midi": 77,
            "name": "F5",
            "velocity": 0.3858267716535433,
            "duration": 0.15625,
            "ticks": 960512,
            "durationTicks": 256
          },
          {
            "time": 586.40625,
            "midi": 81,
            "name": "A5",
            "velocity": 0.3858267716535433,
            "duration": 0.15625,
            "ticks": 960768,
            "durationTicks": 256
          },
          {
            "time": 586.5625,
            "midi": 81,
            "name": "A5",
            "velocity": 0.3858267716535433,
            "duration": 0.15625,
            "ticks": 961024,
            "durationTicks": 256
          },
          {
            "time": 586.71875,
            "midi": 77,
            "name": "F5",
            "velocity": 0.3858267716535433,
            "duration": 0.15625,
            "ticks": 961280,
            "durationTicks": 256
          },
          {
            "time": 586.875,
            "midi": 76,
            "name": "E5",
            "velocity": 0.3858267716535433,
            "duration": 0.15625,
            "ticks": 961536,
            "durationTicks": 256
          },
          {
            "time": 587.03125,
            "midi": 79,
            "name": "G5",
            "velocity": 0.3858267716535433,
            "duration": 0.15625,
            "ticks": 961792,
            "durationTicks": 256
          },
          {
            "time": 587.1875,
            "midi": 79,
            "name": "G5",
            "velocity": 0.3858267716535433,
            "duration": 0.15625,
            "ticks": 962048,
            "durationTicks": 256
          },
          {
            "time": 587.34375,
            "midi": 76,
            "name": "E5",
            "velocity": 0.3858267716535433,
            "duration": 0.15625,
            "ticks": 962304,
            "durationTicks": 256
          },
          {
            "time": 587.5,
            "midi": 76,
            "name": "E5",
            "velocity": 0.3858267716535433,
            "duration": 0.15625,
            "ticks": 962560,
            "durationTicks": 256
          },
          {
            "time": 587.65625,
            "midi": 79,
            "name": "G5",
            "velocity": 0.3858267716535433,
            "duration": 0.15625,
            "ticks": 962816,
            "durationTicks": 256
          },
          {
            "time": 587.8125,
            "midi": 79,
            "name": "G5",
            "velocity": 0.3858267716535433,
            "duration": 0.15625,
            "ticks": 963072,
            "durationTicks": 256
          },
          {
            "time": 587.96875,
            "midi": 76,
            "name": "E5",
            "velocity": 0.3858267716535433,
            "duration": 0.15625,
            "ticks": 963328,
            "durationTicks": 256
          },
          {
            "time": 588.125,
            "midi": 76,
            "name": "E5",
            "velocity": 0.3858267716535433,
            "duration": 0.15625,
            "ticks": 963584,
            "durationTicks": 256
          },
          {
            "time": 588.28125,
            "midi": 79,
            "name": "G5",
            "velocity": 0.3858267716535433,
            "duration": 0.15625,
            "ticks": 963840,
            "durationTicks": 256
          },
          {
            "time": 588.4375,
            "midi": 79,
            "name": "G5",
            "velocity": 0.3858267716535433,
            "duration": 0.15625,
            "ticks": 964096,
            "durationTicks": 256
          },
          {
            "time": 588.59375,
            "midi": 76,
            "name": "E5",
            "velocity": 0.3858267716535433,
            "duration": 0.15625,
            "ticks": 964352,
            "durationTicks": 256
          },
          {
            "time": 588.75,
            "midi": 77,
            "name": "F5",
            "velocity": 0.3858267716535433,
            "duration": 0.15625,
            "ticks": 964608,
            "durationTicks": 256
          },
          {
            "time": 588.90625,
            "midi": 81,
            "name": "A5",
            "velocity": 0.3858267716535433,
            "duration": 0.15625,
            "ticks": 964864,
            "durationTicks": 256
          },
          {
            "time": 589.0625,
            "midi": 81,
            "name": "A5",
            "velocity": 0.3858267716535433,
            "duration": 0.15625,
            "ticks": 965120,
            "durationTicks": 256
          },
          {
            "time": 589.21875,
            "midi": 77,
            "name": "F5",
            "velocity": 0.3858267716535433,
            "duration": 0.15625,
            "ticks": 965376,
            "durationTicks": 256
          },
          {
            "time": 589.375,
            "midi": 77,
            "name": "F5",
            "velocity": 0.3858267716535433,
            "duration": 0.15625,
            "ticks": 965632,
            "durationTicks": 256
          },
          {
            "time": 589.53125,
            "midi": 81,
            "name": "A5",
            "velocity": 0.3858267716535433,
            "duration": 0.15625,
            "ticks": 965888,
            "durationTicks": 256
          },
          {
            "time": 589.6875,
            "midi": 81,
            "name": "A5",
            "velocity": 0.3858267716535433,
            "duration": 0.15625,
            "ticks": 966144,
            "durationTicks": 256
          },
          {
            "time": 589.84375,
            "midi": 77,
            "name": "F5",
            "velocity": 0.3858267716535433,
            "duration": 0.15625,
            "ticks": 966400,
            "durationTicks": 256
          },
          {
            "time": 590,
            "midi": 77,
            "name": "F5",
            "velocity": 0.3858267716535433,
            "duration": 0.15625,
            "ticks": 966656,
            "durationTicks": 256
          },
          {
            "time": 590.15625,
            "midi": 82,
            "name": "A#5",
            "velocity": 0.3858267716535433,
            "duration": 0.15625,
            "ticks": 966912,
            "durationTicks": 256
          },
          {
            "time": 590.3125,
            "midi": 82,
            "name": "A#5",
            "velocity": 0.3858267716535433,
            "duration": 0.15625,
            "ticks": 967168,
            "durationTicks": 256
          },
          {
            "time": 590.46875,
            "midi": 77,
            "name": "F5",
            "velocity": 0.3858267716535433,
            "duration": 0.15625,
            "ticks": 967424,
            "durationTicks": 256
          },
          {
            "time": 590.625,
            "midi": 79,
            "name": "G5",
            "velocity": 0.3858267716535433,
            "duration": 0.15625,
            "ticks": 967680,
            "durationTicks": 256
          },
          {
            "time": 590.78125,
            "midi": 82,
            "name": "A#5",
            "velocity": 0.3858267716535433,
            "duration": 0.15625,
            "ticks": 967936,
            "durationTicks": 256
          },
          {
            "time": 590.9375,
            "midi": 82,
            "name": "A#5",
            "velocity": 0.3858267716535433,
            "duration": 0.15625,
            "ticks": 968192,
            "durationTicks": 256
          },
          {
            "time": 591.09375,
            "midi": 79,
            "name": "G5",
            "velocity": 0.3858267716535433,
            "duration": 0.15625,
            "ticks": 968448,
            "durationTicks": 256
          },
          {
            "time": 591.25,
            "midi": 79,
            "name": "G5",
            "velocity": 0.3858267716535433,
            "duration": 0.15625,
            "ticks": 968704,
            "durationTicks": 256
          },
          {
            "time": 591.40625,
            "midi": 82,
            "name": "A#5",
            "velocity": 0.3858267716535433,
            "duration": 0.15625,
            "ticks": 968960,
            "durationTicks": 256
          },
          {
            "time": 591.5625,
            "midi": 82,
            "name": "A#5",
            "velocity": 0.3858267716535433,
            "duration": 0.15625,
            "ticks": 969216,
            "durationTicks": 256
          },
          {
            "time": 591.71875,
            "midi": 79,
            "name": "G5",
            "velocity": 0.3858267716535433,
            "duration": 0.15625,
            "ticks": 969472,
            "durationTicks": 256
          },
          {
            "time": 591.875,
            "midi": 79,
            "name": "G5",
            "velocity": 0.3858267716535433,
            "duration": 0.15625,
            "ticks": 969728,
            "durationTicks": 256
          },
          {
            "time": 592.03125,
            "midi": 82,
            "name": "A#5",
            "velocity": 0.3858267716535433,
            "duration": 0.15625,
            "ticks": 969984,
            "durationTicks": 256
          },
          {
            "time": 592.1875,
            "midi": 82,
            "name": "A#5",
            "velocity": 0.3858267716535433,
            "duration": 0.15625,
            "ticks": 970240,
            "durationTicks": 256
          },
          {
            "time": 592.34375,
            "midi": 79,
            "name": "G5",
            "velocity": 0.3858267716535433,
            "duration": 0.15625,
            "ticks": 970496,
            "durationTicks": 256
          },
          {
            "time": 592.5,
            "midi": 81,
            "name": "A5",
            "velocity": 0.3858267716535433,
            "duration": 0.15625,
            "ticks": 970752,
            "durationTicks": 256
          },
          {
            "time": 592.65625,
            "midi": 84,
            "name": "C6",
            "velocity": 0.3858267716535433,
            "duration": 0.15625,
            "ticks": 971008,
            "durationTicks": 256
          },
          {
            "time": 592.8125,
            "midi": 84,
            "name": "C6",
            "velocity": 0.3858267716535433,
            "duration": 0.15625,
            "ticks": 971264,
            "durationTicks": 256
          },
          {
            "time": 592.96875,
            "midi": 81,
            "name": "A5",
            "velocity": 0.3858267716535433,
            "duration": 0.15625,
            "ticks": 971520,
            "durationTicks": 256
          },
          {
            "time": 593.125,
            "midi": 81,
            "name": "A5",
            "velocity": 0.3858267716535433,
            "duration": 0.15625,
            "ticks": 971776,
            "durationTicks": 256
          },
          {
            "time": 593.28125,
            "midi": 84,
            "name": "C6",
            "velocity": 0.3858267716535433,
            "duration": 0.15625,
            "ticks": 972032,
            "durationTicks": 256
          },
          {
            "time": 593.4375,
            "midi": 84,
            "name": "C6",
            "velocity": 0.3858267716535433,
            "duration": 0.15625,
            "ticks": 972288,
            "durationTicks": 256
          },
          {
            "time": 593.59375,
            "midi": 81,
            "name": "A5",
            "velocity": 0.3858267716535433,
            "duration": 0.15625,
            "ticks": 972544,
            "durationTicks": 256
          },
          {
            "time": 593.75,
            "midi": 81,
            "name": "A5",
            "velocity": 0.3858267716535433,
            "duration": 0.15625,
            "ticks": 972800,
            "durationTicks": 256
          },
          {
            "time": 593.90625,
            "midi": 84,
            "name": "C6",
            "velocity": 0.3858267716535433,
            "duration": 0.15625,
            "ticks": 973056,
            "durationTicks": 256
          },
          {
            "time": 594.0625,
            "midi": 84,
            "name": "C6",
            "velocity": 0.3858267716535433,
            "duration": 0.15625,
            "ticks": 973312,
            "durationTicks": 256
          },
          {
            "time": 594.21875,
            "midi": 81,
            "name": "A5",
            "velocity": 0.3858267716535433,
            "duration": 0.15625,
            "ticks": 973568,
            "durationTicks": 256
          },
          {
            "time": 594.375,
            "midi": 79,
            "name": "G5",
            "velocity": 0.3858267716535433,
            "duration": 0.15625,
            "ticks": 973824,
            "durationTicks": 256
          },
          {
            "time": 594.53125,
            "midi": 82,
            "name": "A#5",
            "velocity": 0.3858267716535433,
            "duration": 0.15625,
            "ticks": 974080,
            "durationTicks": 256
          },
          {
            "time": 594.6875,
            "midi": 82,
            "name": "A#5",
            "velocity": 0.3858267716535433,
            "duration": 0.15625,
            "ticks": 974336,
            "durationTicks": 256
          },
          {
            "time": 594.84375,
            "midi": 79,
            "name": "G5",
            "velocity": 0.3858267716535433,
            "duration": 0.15625,
            "ticks": 974592,
            "durationTicks": 256
          },
          {
            "time": 595,
            "midi": 79,
            "name": "G5",
            "velocity": 0.3858267716535433,
            "duration": 0.15625,
            "ticks": 974848,
            "durationTicks": 256
          },
          {
            "time": 595.15625,
            "midi": 82,
            "name": "A#5",
            "velocity": 0.3858267716535433,
            "duration": 0.15625,
            "ticks": 975104,
            "durationTicks": 256
          },
          {
            "time": 595.3125,
            "midi": 82,
            "name": "A#5",
            "velocity": 0.3858267716535433,
            "duration": 0.15625,
            "ticks": 975360,
            "durationTicks": 256
          },
          {
            "time": 595.46875,
            "midi": 79,
            "name": "G5",
            "velocity": 0.3858267716535433,
            "duration": 0.15625,
            "ticks": 975616,
            "durationTicks": 256
          },
          {
            "time": 595.625,
            "midi": 79,
            "name": "G5",
            "velocity": 0.3858267716535433,
            "duration": 0.15625,
            "ticks": 975872,
            "durationTicks": 256
          },
          {
            "time": 595.78125,
            "midi": 82,
            "name": "A#5",
            "velocity": 0.3858267716535433,
            "duration": 0.15625,
            "ticks": 976128,
            "durationTicks": 256
          },
          {
            "time": 595.9375,
            "midi": 82,
            "name": "A#5",
            "velocity": 0.3858267716535433,
            "duration": 0.15625,
            "ticks": 976384,
            "durationTicks": 256
          },
          {
            "time": 596.09375,
            "midi": 79,
            "name": "G5",
            "velocity": 0.3858267716535433,
            "duration": 0.15625,
            "ticks": 976640,
            "durationTicks": 256
          },
          {
            "time": 596.25,
            "midi": 77,
            "name": "F5",
            "velocity": 0.3858267716535433,
            "duration": 0.15625,
            "ticks": 976896,
            "durationTicks": 256
          },
          {
            "time": 596.40625,
            "midi": 86,
            "name": "D6",
            "velocity": 0.3858267716535433,
            "duration": 0.15625,
            "ticks": 977152,
            "durationTicks": 256
          },
          {
            "time": 596.5625,
            "midi": 77,
            "name": "F5",
            "velocity": 0.3858267716535433,
            "duration": 0.15625,
            "ticks": 977408,
            "durationTicks": 256
          },
          {
            "time": 596.71875,
            "midi": 86,
            "name": "D6",
            "velocity": 0.3858267716535433,
            "duration": 0.15625,
            "ticks": 977664,
            "durationTicks": 256
          },
          {
            "time": 596.875,
            "midi": 76,
            "name": "E5",
            "velocity": 0.3858267716535433,
            "duration": 0.15625,
            "ticks": 977920,
            "durationTicks": 256
          },
          {
            "time": 597.03125,
            "midi": 86,
            "name": "D6",
            "velocity": 0.3858267716535433,
            "duration": 0.15625,
            "ticks": 978176,
            "durationTicks": 256
          },
          {
            "time": 597.1875,
            "midi": 76,
            "name": "E5",
            "velocity": 0.3858267716535433,
            "duration": 0.15625,
            "ticks": 978432,
            "durationTicks": 256
          },
          {
            "time": 597.34375,
            "midi": 86,
            "name": "D6",
            "velocity": 0.3858267716535433,
            "duration": 0.15625,
            "ticks": 978688,
            "durationTicks": 256
          },
          {
            "time": 597.5,
            "midi": 76,
            "name": "E5",
            "velocity": 0.3858267716535433,
            "duration": 0.15625,
            "ticks": 978944,
            "durationTicks": 256
          },
          {
            "time": 597.65625,
            "midi": 85,
            "name": "C#6",
            "velocity": 0.3858267716535433,
            "duration": 0.15625,
            "ticks": 979200,
            "durationTicks": 256
          },
          {
            "time": 597.8125,
            "midi": 76,
            "name": "E5",
            "velocity": 0.3858267716535433,
            "duration": 0.15625,
            "ticks": 979456,
            "durationTicks": 256
          },
          {
            "time": 597.96875,
            "midi": 85,
            "name": "C#6",
            "velocity": 0.3858267716535433,
            "duration": 0.15625,
            "ticks": 979712,
            "durationTicks": 256
          },
          {
            "time": 598.125,
            "midi": 86,
            "name": "D6",
            "velocity": 0.3858267716535433,
            "duration": 1.875,
            "ticks": 979968,
            "durationTicks": 3072
          },
          {
            "time": 600,
            "midi": 77,
            "name": "F5",
            "velocity": 0.3858267716535433,
            "duration": 0.625,
            "ticks": 983040,
            "durationTicks": 1024
          },
          {
            "time": 600.625,
            "midi": 65,
            "name": "F4",
            "velocity": 0.3858267716535433,
            "duration": 0.625,
            "ticks": 984064,
            "durationTicks": 1024
          },
          {
            "time": 601.25,
            "midi": 77,
            "name": "F5",
            "velocity": 0.3858267716535433,
            "duration": 0.625,
            "ticks": 985088,
            "durationTicks": 1024
          },
          {
            "time": 601.875,
            "midi": 76,
            "name": "E5",
            "velocity": 0.3858267716535433,
            "duration": 0.15625,
            "ticks": 986112,
            "durationTicks": 256
          },
          {
            "time": 602.03125,
            "midi": 79,
            "name": "G5",
            "velocity": 0.3858267716535433,
            "duration": 0.15625,
            "ticks": 986368,
            "durationTicks": 256
          },
          {
            "time": 602.1875,
            "midi": 79,
            "name": "G5",
            "velocity": 0.3858267716535433,
            "duration": 0.15625,
            "ticks": 986624,
            "durationTicks": 256
          },
          {
            "time": 602.34375,
            "midi": 76,
            "name": "E5",
            "velocity": 0.3858267716535433,
            "duration": 0.15625,
            "ticks": 986880,
            "durationTicks": 256
          },
          {
            "time": 602.5,
            "midi": 76,
            "name": "E5",
            "velocity": 0.3858267716535433,
            "duration": 0.15625,
            "ticks": 987136,
            "durationTicks": 256
          },
          {
            "time": 602.65625,
            "midi": 79,
            "name": "G5",
            "velocity": 0.3858267716535433,
            "duration": 0.15625,
            "ticks": 987392,
            "durationTicks": 256
          },
          {
            "time": 602.8125,
            "midi": 79,
            "name": "G5",
            "velocity": 0.3858267716535433,
            "duration": 0.15625,
            "ticks": 987648,
            "durationTicks": 256
          },
          {
            "time": 602.96875,
            "midi": 76,
            "name": "E5",
            "velocity": 0.3858267716535433,
            "duration": 0.15625,
            "ticks": 987904,
            "durationTicks": 256
          },
          {
            "time": 603.125,
            "midi": 76,
            "name": "E5",
            "velocity": 0.3858267716535433,
            "duration": 0.15625,
            "ticks": 988160,
            "durationTicks": 256
          },
          {
            "time": 603.28125,
            "midi": 79,
            "name": "G5",
            "velocity": 0.3858267716535433,
            "duration": 0.15625,
            "ticks": 988416,
            "durationTicks": 256
          },
          {
            "time": 603.4375,
            "midi": 79,
            "name": "G5",
            "velocity": 0.3858267716535433,
            "duration": 0.15625,
            "ticks": 988672,
            "durationTicks": 256
          },
          {
            "time": 603.59375,
            "midi": 76,
            "name": "E5",
            "velocity": 0.3858267716535433,
            "duration": 0.15625,
            "ticks": 988928,
            "durationTicks": 256
          },
          {
            "time": 603.75,
            "midi": 77,
            "name": "F5",
            "velocity": 0.3858267716535433,
            "duration": 0.625,
            "ticks": 989184,
            "durationTicks": 1024
          },
          {
            "time": 604.375,
            "midi": 65,
            "name": "F4",
            "velocity": 0.3858267716535433,
            "duration": 0.625,
            "ticks": 990208,
            "durationTicks": 1024
          },
          {
            "time": 605,
            "midi": 77,
            "name": "F5",
            "velocity": 0.3858267716535433,
            "duration": 0.625,
            "ticks": 991232,
            "durationTicks": 1024
          },
          {
            "time": 605.625,
            "midi": 79,
            "name": "G5",
            "velocity": 0.3858267716535433,
            "duration": 0.15625,
            "ticks": 992256,
            "durationTicks": 256
          },
          {
            "time": 605.78125,
            "midi": 82,
            "name": "A#5",
            "velocity": 0.3858267716535433,
            "duration": 0.15625,
            "ticks": 992512,
            "durationTicks": 256
          },
          {
            "time": 605.9375,
            "midi": 82,
            "name": "A#5",
            "velocity": 0.3858267716535433,
            "duration": 0.15625,
            "ticks": 992768,
            "durationTicks": 256
          },
          {
            "time": 606.09375,
            "midi": 79,
            "name": "G5",
            "velocity": 0.3858267716535433,
            "duration": 0.15625,
            "ticks": 993024,
            "durationTicks": 256
          },
          {
            "time": 606.25,
            "midi": 79,
            "name": "G5",
            "velocity": 0.3858267716535433,
            "duration": 0.15625,
            "ticks": 993280,
            "durationTicks": 256
          },
          {
            "time": 606.40625,
            "midi": 82,
            "name": "A#5",
            "velocity": 0.3858267716535433,
            "duration": 0.15625,
            "ticks": 993536,
            "durationTicks": 256
          },
          {
            "time": 606.5625,
            "midi": 82,
            "name": "A#5",
            "velocity": 0.3858267716535433,
            "duration": 0.15625,
            "ticks": 993792,
            "durationTicks": 256
          },
          {
            "time": 606.71875,
            "midi": 79,
            "name": "G5",
            "velocity": 0.3858267716535433,
            "duration": 0.15625,
            "ticks": 994048,
            "durationTicks": 256
          },
          {
            "time": 606.875,
            "midi": 79,
            "name": "G5",
            "velocity": 0.3858267716535433,
            "duration": 0.15625,
            "ticks": 994304,
            "durationTicks": 256
          },
          {
            "time": 607.03125,
            "midi": 82,
            "name": "A#5",
            "velocity": 0.3858267716535433,
            "duration": 0.15625,
            "ticks": 994560,
            "durationTicks": 256
          },
          {
            "time": 607.1875,
            "midi": 82,
            "name": "A#5",
            "velocity": 0.3858267716535433,
            "duration": 0.15625,
            "ticks": 994816,
            "durationTicks": 256
          },
          {
            "time": 607.34375,
            "midi": 79,
            "name": "G5",
            "velocity": 0.3858267716535433,
            "duration": 0.15625,
            "ticks": 995072,
            "durationTicks": 256
          },
          {
            "time": 607.5,
            "midi": 81,
            "name": "A5",
            "velocity": 0.3858267716535433,
            "duration": 0.625,
            "ticks": 995328,
            "durationTicks": 1024
          },
          {
            "time": 608.125,
            "midi": 69,
            "name": "A4",
            "velocity": 0.3858267716535433,
            "duration": 0.625,
            "ticks": 996352,
            "durationTicks": 1024
          },
          {
            "time": 608.75,
            "midi": 81,
            "name": "A5",
            "velocity": 0.3858267716535433,
            "duration": 0.625,
            "ticks": 997376,
            "durationTicks": 1024
          },
          {
            "time": 609.375,
            "midi": 79,
            "name": "G5",
            "velocity": 0.3858267716535433,
            "duration": 0.15625,
            "ticks": 998400,
            "durationTicks": 256
          },
          {
            "time": 609.53125,
            "midi": 82,
            "name": "A#5",
            "velocity": 0.3858267716535433,
            "duration": 0.15625,
            "ticks": 998656,
            "durationTicks": 256
          },
          {
            "time": 609.6875,
            "midi": 82,
            "name": "A#5",
            "velocity": 0.3858267716535433,
            "duration": 0.15625,
            "ticks": 998912,
            "durationTicks": 256
          },
          {
            "time": 609.84375,
            "midi": 79,
            "name": "G5",
            "velocity": 0.3858267716535433,
            "duration": 0.15625,
            "ticks": 999168,
            "durationTicks": 256
          },
          {
            "time": 610,
            "midi": 79,
            "name": "G5",
            "velocity": 0.3858267716535433,
            "duration": 0.15625,
            "ticks": 999424,
            "durationTicks": 256
          },
          {
            "time": 610.15625,
            "midi": 82,
            "name": "A#5",
            "velocity": 0.3858267716535433,
            "duration": 0.15625,
            "ticks": 999680,
            "durationTicks": 256
          },
          {
            "time": 610.3125,
            "midi": 82,
            "name": "A#5",
            "velocity": 0.3858267716535433,
            "duration": 0.15625,
            "ticks": 999936,
            "durationTicks": 256
          },
          {
            "time": 610.46875,
            "midi": 79,
            "name": "G5",
            "velocity": 0.3858267716535433,
            "duration": 0.15625,
            "ticks": 1000192,
            "durationTicks": 256
          },
          {
            "time": 610.625,
            "midi": 79,
            "name": "G5",
            "velocity": 0.3858267716535433,
            "duration": 0.15625,
            "ticks": 1000448,
            "durationTicks": 256
          },
          {
            "time": 610.78125,
            "midi": 82,
            "name": "A#5",
            "velocity": 0.3858267716535433,
            "duration": 0.15625,
            "ticks": 1000704,
            "durationTicks": 256
          },
          {
            "time": 610.9375,
            "midi": 82,
            "name": "A#5",
            "velocity": 0.3858267716535433,
            "duration": 0.15625,
            "ticks": 1000960,
            "durationTicks": 256
          },
          {
            "time": 611.09375,
            "midi": 79,
            "name": "G5",
            "velocity": 0.3858267716535433,
            "duration": 0.15625,
            "ticks": 1001216,
            "durationTicks": 256
          },
          {
            "time": 611.25,
            "midi": 77,
            "name": "F5",
            "velocity": 0.3858267716535433,
            "duration": 0.625,
            "ticks": 1001472,
            "durationTicks": 1024
          },
          {
            "time": 611.875,
            "midi": 65,
            "name": "F4",
            "velocity": 0.3858267716535433,
            "duration": 0.625,
            "ticks": 1002496,
            "durationTicks": 1024
          },
          {
            "time": 612.5,
            "midi": 77,
            "name": "F5",
            "velocity": 0.3858267716535433,
            "duration": 0.625,
            "ticks": 1003520,
            "durationTicks": 1024
          },
          {
            "time": 613.125,
            "midi": 76,
            "name": "E5",
            "velocity": 0.3858267716535433,
            "duration": 0.15625,
            "ticks": 1004544,
            "durationTicks": 256
          },
          {
            "time": 613.28125,
            "midi": 79,
            "name": "G5",
            "velocity": 0.3858267716535433,
            "duration": 0.15625,
            "ticks": 1004800,
            "durationTicks": 256
          },
          {
            "time": 613.4375,
            "midi": 79,
            "name": "G5",
            "velocity": 0.3858267716535433,
            "duration": 0.15625,
            "ticks": 1005056,
            "durationTicks": 256
          },
          {
            "time": 613.59375,
            "midi": 76,
            "name": "E5",
            "velocity": 0.3858267716535433,
            "duration": 0.15625,
            "ticks": 1005312,
            "durationTicks": 256
          },
          {
            "time": 613.75,
            "midi": 76,
            "name": "E5",
            "velocity": 0.3858267716535433,
            "duration": 0.15625,
            "ticks": 1005568,
            "durationTicks": 256
          },
          {
            "time": 613.90625,
            "midi": 79,
            "name": "G5",
            "velocity": 0.3858267716535433,
            "duration": 0.15625,
            "ticks": 1005824,
            "durationTicks": 256
          },
          {
            "time": 614.0625,
            "midi": 79,
            "name": "G5",
            "velocity": 0.3858267716535433,
            "duration": 0.15625,
            "ticks": 1006080,
            "durationTicks": 256
          },
          {
            "time": 614.21875,
            "midi": 76,
            "name": "E5",
            "velocity": 0.3858267716535433,
            "duration": 0.15625,
            "ticks": 1006336,
            "durationTicks": 256
          },
          {
            "time": 614.375,
            "midi": 76,
            "name": "E5",
            "velocity": 0.3858267716535433,
            "duration": 0.15625,
            "ticks": 1006592,
            "durationTicks": 256
          },
          {
            "time": 614.53125,
            "midi": 79,
            "name": "G5",
            "velocity": 0.3858267716535433,
            "duration": 0.15625,
            "ticks": 1006848,
            "durationTicks": 256
          },
          {
            "time": 614.6875,
            "midi": 79,
            "name": "G5",
            "velocity": 0.3858267716535433,
            "duration": 0.15625,
            "ticks": 1007104,
            "durationTicks": 256
          },
          {
            "time": 614.84375,
            "midi": 76,
            "name": "E5",
            "velocity": 0.3858267716535433,
            "duration": 0.15625,
            "ticks": 1007360,
            "durationTicks": 256
          },
          {
            "time": 615,
            "midi": 77,
            "name": "F5",
            "velocity": 0.3858267716535433,
            "duration": 0.625,
            "ticks": 1007616,
            "durationTicks": 1024
          },
          {
            "time": 615.625,
            "midi": 65,
            "name": "F4",
            "velocity": 0.3858267716535433,
            "duration": 0.625,
            "ticks": 1008640,
            "durationTicks": 1024
          },
          {
            "time": 616.25,
            "midi": 77,
            "name": "F5",
            "velocity": 0.3858267716535433,
            "duration": 0.625,
            "ticks": 1009664,
            "durationTicks": 1024
          },
          {
            "time": 616.875,
            "midi": 76,
            "name": "E5",
            "velocity": 0.3858267716535433,
            "duration": 0.15625,
            "ticks": 1010688,
            "durationTicks": 256
          },
          {
            "time": 617.03125,
            "midi": 79,
            "name": "G5",
            "velocity": 0.3858267716535433,
            "duration": 0.15625,
            "ticks": 1010944,
            "durationTicks": 256
          },
          {
            "time": 617.1875,
            "midi": 79,
            "name": "G5",
            "velocity": 0.3858267716535433,
            "duration": 0.15625,
            "ticks": 1011200,
            "durationTicks": 256
          },
          {
            "time": 617.34375,
            "midi": 76,
            "name": "E5",
            "velocity": 0.3858267716535433,
            "duration": 0.15625,
            "ticks": 1011456,
            "durationTicks": 256
          },
          {
            "time": 617.5,
            "midi": 76,
            "name": "E5",
            "velocity": 0.3858267716535433,
            "duration": 0.15625,
            "ticks": 1011712,
            "durationTicks": 256
          },
          {
            "time": 617.65625,
            "midi": 79,
            "name": "G5",
            "velocity": 0.3858267716535433,
            "duration": 0.15625,
            "ticks": 1011968,
            "durationTicks": 256
          },
          {
            "time": 617.8125,
            "midi": 79,
            "name": "G5",
            "velocity": 0.3858267716535433,
            "duration": 0.15625,
            "ticks": 1012224,
            "durationTicks": 256
          },
          {
            "time": 617.96875,
            "midi": 76,
            "name": "E5",
            "velocity": 0.3858267716535433,
            "duration": 0.15625,
            "ticks": 1012480,
            "durationTicks": 256
          },
          {
            "time": 618.125,
            "midi": 76,
            "name": "E5",
            "velocity": 0.3858267716535433,
            "duration": 0.15625,
            "ticks": 1012736,
            "durationTicks": 256
          },
          {
            "time": 618.28125,
            "midi": 79,
            "name": "G5",
            "velocity": 0.3858267716535433,
            "duration": 0.15625,
            "ticks": 1012992,
            "durationTicks": 256
          },
          {
            "time": 618.4375,
            "midi": 79,
            "name": "G5",
            "velocity": 0.3858267716535433,
            "duration": 0.15625,
            "ticks": 1013248,
            "durationTicks": 256
          },
          {
            "time": 618.59375,
            "midi": 76,
            "name": "E5",
            "velocity": 0.3858267716535433,
            "duration": 0.15625,
            "ticks": 1013504,
            "durationTicks": 256
          },
          {
            "time": 618.75,
            "midi": 77,
            "name": "F5",
            "velocity": 0.3858267716535433,
            "duration": 0.625,
            "ticks": 1013760,
            "durationTicks": 1024
          },
          {
            "time": 619.375,
            "midi": 65,
            "name": "F4",
            "velocity": 0.3858267716535433,
            "duration": 0.625,
            "ticks": 1014784,
            "durationTicks": 1024
          },
          {
            "time": 620,
            "midi": 77,
            "name": "F5",
            "velocity": 0.3858267716535433,
            "duration": 0.625,
            "ticks": 1015808,
            "durationTicks": 1024
          },
          {
            "time": 620.625,
            "midi": 79,
            "name": "G5",
            "velocity": 0.3858267716535433,
            "duration": 0.15625,
            "ticks": 1016832,
            "durationTicks": 256
          },
          {
            "time": 620.78125,
            "midi": 82,
            "name": "A#5",
            "velocity": 0.3858267716535433,
            "duration": 0.15625,
            "ticks": 1017088,
            "durationTicks": 256
          },
          {
            "time": 620.9375,
            "midi": 82,
            "name": "A#5",
            "velocity": 0.3858267716535433,
            "duration": 0.15625,
            "ticks": 1017344,
            "durationTicks": 256
          },
          {
            "time": 621.09375,
            "midi": 79,
            "name": "G5",
            "velocity": 0.3858267716535433,
            "duration": 0.15625,
            "ticks": 1017600,
            "durationTicks": 256
          },
          {
            "time": 621.25,
            "midi": 79,
            "name": "G5",
            "velocity": 0.3858267716535433,
            "duration": 0.15625,
            "ticks": 1017856,
            "durationTicks": 256
          },
          {
            "time": 621.40625,
            "midi": 82,
            "name": "A#5",
            "velocity": 0.3858267716535433,
            "duration": 0.15625,
            "ticks": 1018112,
            "durationTicks": 256
          },
          {
            "time": 621.5625,
            "midi": 82,
            "name": "A#5",
            "velocity": 0.3858267716535433,
            "duration": 0.15625,
            "ticks": 1018368,
            "durationTicks": 256
          },
          {
            "time": 621.71875,
            "midi": 79,
            "name": "G5",
            "velocity": 0.3858267716535433,
            "duration": 0.15625,
            "ticks": 1018624,
            "durationTicks": 256
          },
          {
            "time": 621.875,
            "midi": 79,
            "name": "G5",
            "velocity": 0.3858267716535433,
            "duration": 0.15625,
            "ticks": 1018880,
            "durationTicks": 256
          },
          {
            "time": 622.03125,
            "midi": 82,
            "name": "A#5",
            "velocity": 0.3858267716535433,
            "duration": 0.15625,
            "ticks": 1019136,
            "durationTicks": 256
          },
          {
            "time": 622.1875,
            "midi": 82,
            "name": "A#5",
            "velocity": 0.3858267716535433,
            "duration": 0.15625,
            "ticks": 1019392,
            "durationTicks": 256
          },
          {
            "time": 622.34375,
            "midi": 79,
            "name": "G5",
            "velocity": 0.3858267716535433,
            "duration": 0.15625,
            "ticks": 1019648,
            "durationTicks": 256
          },
          {
            "time": 622.5,
            "midi": 81,
            "name": "A5",
            "velocity": 0.3858267716535433,
            "duration": 0.625,
            "ticks": 1019904,
            "durationTicks": 1024
          },
          {
            "time": 623.125,
            "midi": 69,
            "name": "A4",
            "velocity": 0.3858267716535433,
            "duration": 0.625,
            "ticks": 1020928,
            "durationTicks": 1024
          },
          {
            "time": 623.75,
            "midi": 81,
            "name": "A5",
            "velocity": 0.3858267716535433,
            "duration": 0.625,
            "ticks": 1021952,
            "durationTicks": 1024
          },
          {
            "time": 624.375,
            "midi": 79,
            "name": "G5",
            "velocity": 0.3858267716535433,
            "duration": 0.15625,
            "ticks": 1022976,
            "durationTicks": 256
          },
          {
            "time": 624.53125,
            "midi": 82,
            "name": "A#5",
            "velocity": 0.3858267716535433,
            "duration": 0.15625,
            "ticks": 1023232,
            "durationTicks": 256
          },
          {
            "time": 624.6875,
            "midi": 82,
            "name": "A#5",
            "velocity": 0.3858267716535433,
            "duration": 0.15625,
            "ticks": 1023488,
            "durationTicks": 256
          },
          {
            "time": 624.84375,
            "midi": 79,
            "name": "G5",
            "velocity": 0.3858267716535433,
            "duration": 0.15625,
            "ticks": 1023744,
            "durationTicks": 256
          },
          {
            "time": 625,
            "midi": 79,
            "name": "G5",
            "velocity": 0.3858267716535433,
            "duration": 0.15625,
            "ticks": 1024000,
            "durationTicks": 256
          },
          {
            "time": 625.15625,
            "midi": 82,
            "name": "A#5",
            "velocity": 0.3858267716535433,
            "duration": 0.15625,
            "ticks": 1024256,
            "durationTicks": 256
          },
          {
            "time": 625.3125,
            "midi": 82,
            "name": "A#5",
            "velocity": 0.3858267716535433,
            "duration": 0.15625,
            "ticks": 1024512,
            "durationTicks": 256
          },
          {
            "time": 625.46875,
            "midi": 79,
            "name": "G5",
            "velocity": 0.3858267716535433,
            "duration": 0.15625,
            "ticks": 1024768,
            "durationTicks": 256
          },
          {
            "time": 625.625,
            "midi": 79,
            "name": "G5",
            "velocity": 0.3858267716535433,
            "duration": 0.15625,
            "ticks": 1025024,
            "durationTicks": 256
          },
          {
            "time": 625.78125,
            "midi": 82,
            "name": "A#5",
            "velocity": 0.3858267716535433,
            "duration": 0.15625,
            "ticks": 1025280,
            "durationTicks": 256
          },
          {
            "time": 625.9375,
            "midi": 82,
            "name": "A#5",
            "velocity": 0.3858267716535433,
            "duration": 0.15625,
            "ticks": 1025536,
            "durationTicks": 256
          },
          {
            "time": 626.09375,
            "midi": 79,
            "name": "G5",
            "velocity": 0.3858267716535433,
            "duration": 0.15625,
            "ticks": 1025792,
            "durationTicks": 256
          },
          {
            "time": 626.25,
            "midi": 77,
            "name": "F5",
            "velocity": 0.3858267716535433,
            "duration": 0.15625,
            "ticks": 1026048,
            "durationTicks": 256
          },
          {
            "time": 626.40625,
            "midi": 86,
            "name": "D6",
            "velocity": 0.3858267716535433,
            "duration": 0.15625,
            "ticks": 1026304,
            "durationTicks": 256
          },
          {
            "time": 626.5625,
            "midi": 77,
            "name": "F5",
            "velocity": 0.3858267716535433,
            "duration": 0.15625,
            "ticks": 1026560,
            "durationTicks": 256
          },
          {
            "time": 626.71875,
            "midi": 86,
            "name": "D6",
            "velocity": 0.3858267716535433,
            "duration": 0.15625,
            "ticks": 1026816,
            "durationTicks": 256
          },
          {
            "time": 626.875,
            "midi": 76,
            "name": "E5",
            "velocity": 0.3858267716535433,
            "duration": 0.15625,
            "ticks": 1027072,
            "durationTicks": 256
          },
          {
            "time": 627.03125,
            "midi": 86,
            "name": "D6",
            "velocity": 0.3858267716535433,
            "duration": 0.15625,
            "ticks": 1027328,
            "durationTicks": 256
          },
          {
            "time": 627.1875,
            "midi": 76,
            "name": "E5",
            "velocity": 0.3858267716535433,
            "duration": 0.15625,
            "ticks": 1027584,
            "durationTicks": 256
          },
          {
            "time": 627.34375,
            "midi": 86,
            "name": "D6",
            "velocity": 0.3858267716535433,
            "duration": 0.15625,
            "ticks": 1027840,
            "durationTicks": 256
          },
          {
            "time": 627.5,
            "midi": 76,
            "name": "E5",
            "velocity": 0.3858267716535433,
            "duration": 0.15625,
            "ticks": 1028096,
            "durationTicks": 256
          },
          {
            "time": 627.65625,
            "midi": 85,
            "name": "C#6",
            "velocity": 0.3858267716535433,
            "duration": 0.15625,
            "ticks": 1028352,
            "durationTicks": 256
          },
          {
            "time": 627.8125,
            "midi": 76,
            "name": "E5",
            "velocity": 0.3858267716535433,
            "duration": 0.15625,
            "ticks": 1028608,
            "durationTicks": 256
          },
          {
            "time": 627.96875,
            "midi": 85,
            "name": "C#6",
            "velocity": 0.3858267716535433,
            "duration": 0.15625,
            "ticks": 1028864,
            "durationTicks": 256
          },
          {
            "time": 628.125,
            "midi": 86,
            "name": "D6",
            "velocity": 0.3858267716535433,
            "duration": 1.875,
            "ticks": 1029120,
            "durationTicks": 3072
          },
          {
            "time": 630,
            "midi": 77,
            "name": "F5",
            "velocity": 0.3858267716535433,
            "duration": 0.625,
            "ticks": 1032192,
            "durationTicks": 1024
          },
          {
            "time": 630.625,
            "midi": 77,
            "name": "F5",
            "velocity": 0.3858267716535433,
            "duration": 0.9375,
            "ticks": 1033216,
            "durationTicks": 1536
          },
          {
            "time": 631.5625,
            "midi": 77,
            "name": "F5",
            "velocity": 0.3858267716535433,
            "duration": 0.3125,
            "ticks": 1034752,
            "durationTicks": 512
          },
          {
            "time": 631.875,
            "midi": 76,
            "name": "E5",
            "velocity": 0.3858267716535433,
            "duration": 0.625,
            "ticks": 1035264,
            "durationTicks": 1024
          },
          {
            "time": 632.5,
            "midi": 76,
            "name": "E5",
            "velocity": 0.3858267716535433,
            "duration": 0.9375,
            "ticks": 1036288,
            "durationTicks": 1536
          },
          {
            "time": 633.4375,
            "midi": 76,
            "name": "E5",
            "velocity": 0.3858267716535433,
            "duration": 0.3125,
            "ticks": 1037824,
            "durationTicks": 512
          },
          {
            "time": 633.75,
            "midi": 76,
            "name": "E5",
            "velocity": 0.3858267716535433,
            "duration": 0.625,
            "ticks": 1038336,
            "durationTicks": 1024
          },
          {
            "time": 634.375,
            "midi": 76,
            "name": "E5",
            "velocity": 0.3858267716535433,
            "duration": 0.9375,
            "ticks": 1039360,
            "durationTicks": 1536
          },
          {
            "time": 635.3125,
            "midi": 76,
            "name": "E5",
            "velocity": 0.3858267716535433,
            "duration": 0.3125,
            "ticks": 1040896,
            "durationTicks": 512
          },
          {
            "time": 635.625,
            "midi": 74,
            "name": "D5",
            "velocity": 0.3858267716535433,
            "duration": 0.625,
            "ticks": 1041408,
            "durationTicks": 1024
          },
          {
            "time": 637.5,
            "midi": 65,
            "name": "F4",
            "velocity": 0.3858267716535433,
            "duration": 0.625,
            "ticks": 1044480,
            "durationTicks": 1024
          },
          {
            "time": 638.125,
            "midi": 65,
            "name": "F4",
            "velocity": 0.3858267716535433,
            "duration": 0.9375,
            "ticks": 1045504,
            "durationTicks": 1536
          },
          {
            "time": 639.0625,
            "midi": 65,
            "name": "F4",
            "velocity": 0.3858267716535433,
            "duration": 0.3125,
            "ticks": 1047040,
            "durationTicks": 512
          },
          {
            "time": 639.375,
            "midi": 64,
            "name": "E4",
            "velocity": 0.3858267716535433,
            "duration": 0.625,
            "ticks": 1047552,
            "durationTicks": 1024
          },
          {
            "time": 640,
            "midi": 64,
            "name": "E4",
            "velocity": 0.3858267716535433,
            "duration": 0.9375,
            "ticks": 1048576,
            "durationTicks": 1536
          },
          {
            "time": 640.9375,
            "midi": 64,
            "name": "E4",
            "velocity": 0.3858267716535433,
            "duration": 0.3125,
            "ticks": 1050112,
            "durationTicks": 512
          },
          {
            "time": 641.25,
            "midi": 64,
            "name": "E4",
            "velocity": 0.3858267716535433,
            "duration": 0.625,
            "ticks": 1050624,
            "durationTicks": 1024
          },
          {
            "time": 641.875,
            "midi": 64,
            "name": "E4",
            "velocity": 0.3858267716535433,
            "duration": 0.9375,
            "ticks": 1051648,
            "durationTicks": 1536
          },
          {
            "time": 642.8125,
            "midi": 64,
            "name": "E4",
            "velocity": 0.3858267716535433,
            "duration": 0.3125,
            "ticks": 1053184,
            "durationTicks": 512
          },
          {
            "time": 643.125,
            "midi": 62,
            "name": "D4",
            "velocity": 0.3858267716535433,
            "duration": 1.875,
            "ticks": 1053696,
            "durationTicks": 3072
          }
        ],
        "controlChanges": {}
      },
      {
        "name": "Instrument15",
        "channel": 0,
        "instrument": {
          "number": 40,
          "name": "violin",
          "family": "strings"
        },
        "notes": [
          {
            "time": 0,
            "midi": 65,
            "name": "F4",
            "velocity": 0.5039370078740157,
            "duration": 0.625,
            "ticks": 0,
            "durationTicks": 1024
          },
          {
            "time": 0.625,
            "midi": 65,
            "name": "F4",
            "velocity": 0.5039370078740157,
            "duration": 0.9375,
            "ticks": 1024,
            "durationTicks": 1536
          },
          {
            "time": 1.5625,
            "midi": 65,
            "name": "F4",
            "velocity": 0.5039370078740157,
            "duration": 0.3125,
            "ticks": 2560,
            "durationTicks": 512
          },
          {
            "time": 1.875,
            "midi": 64,
            "name": "E4",
            "velocity": 0.5039370078740157,
            "duration": 0.625,
            "ticks": 3072,
            "durationTicks": 1024
          },
          {
            "time": 2.5,
            "midi": 64,
            "name": "E4",
            "velocity": 0.5039370078740157,
            "duration": 0.9375,
            "ticks": 4096,
            "durationTicks": 1536
          },
          {
            "time": 3.4375,
            "midi": 64,
            "name": "E4",
            "velocity": 0.5039370078740157,
            "duration": 0.3125,
            "ticks": 5632,
            "durationTicks": 512
          },
          {
            "time": 3.75,
            "midi": 65,
            "name": "F4",
            "velocity": 0.5039370078740157,
            "duration": 0.625,
            "ticks": 6144,
            "durationTicks": 1024
          },
          {
            "time": 4.375,
            "midi": 65,
            "name": "F4",
            "velocity": 0.5039370078740157,
            "duration": 0.9375,
            "ticks": 7168,
            "durationTicks": 1536
          },
          {
            "time": 5.3125,
            "midi": 65,
            "name": "F4",
            "velocity": 0.5039370078740157,
            "duration": 0.3125,
            "ticks": 8704,
            "durationTicks": 512
          },
          {
            "time": 5.625,
            "midi": 67,
            "name": "G4",
            "velocity": 0.5039370078740157,
            "duration": 0.625,
            "ticks": 9216,
            "durationTicks": 1024
          },
          {
            "time": 6.25,
            "midi": 67,
            "name": "G4",
            "velocity": 0.5039370078740157,
            "duration": 0.9375,
            "ticks": 10240,
            "durationTicks": 1536
          },
          {
            "time": 7.1875,
            "midi": 67,
            "name": "G4",
            "velocity": 0.5039370078740157,
            "duration": 0.3125,
            "ticks": 11776,
            "durationTicks": 512
          },
          {
            "time": 7.5,
            "midi": 69,
            "name": "A4",
            "velocity": 0.5039370078740157,
            "duration": 0.625,
            "ticks": 12288,
            "durationTicks": 1024
          },
          {
            "time": 8.125,
            "midi": 69,
            "name": "A4",
            "velocity": 0.5039370078740157,
            "duration": 0.9375,
            "ticks": 13312,
            "durationTicks": 1536
          },
          {
            "time": 9.0625,
            "midi": 69,
            "name": "A4",
            "velocity": 0.5039370078740157,
            "duration": 0.3125,
            "ticks": 14848,
            "durationTicks": 512
          },
          {
            "time": 9.375,
            "midi": 67,
            "name": "G4",
            "velocity": 0.5039370078740157,
            "duration": 0.625,
            "ticks": 15360,
            "durationTicks": 1024
          },
          {
            "time": 10,
            "midi": 67,
            "name": "G4",
            "velocity": 0.5039370078740157,
            "duration": 0.9375,
            "ticks": 16384,
            "durationTicks": 1536
          },
          {
            "time": 10.9375,
            "midi": 67,
            "name": "G4",
            "velocity": 0.5039370078740157,
            "duration": 0.3125,
            "ticks": 17920,
            "durationTicks": 512
          },
          {
            "time": 11.25,
            "midi": 65,
            "name": "F4",
            "velocity": 0.5039370078740157,
            "duration": 0.625,
            "ticks": 18432,
            "durationTicks": 1024
          },
          {
            "time": 11.875,
            "midi": 65,
            "name": "F4",
            "velocity": 0.5039370078740157,
            "duration": 0.9375,
            "ticks": 19456,
            "durationTicks": 1536
          },
          {
            "time": 12.8125,
            "midi": 65,
            "name": "F4",
            "velocity": 0.5039370078740157,
            "duration": 0.3125,
            "ticks": 20992,
            "durationTicks": 512
          },
          {
            "time": 13.125,
            "midi": 64,
            "name": "E4",
            "velocity": 0.5039370078740157,
            "duration": 1.875,
            "ticks": 21504,
            "durationTicks": 3072
          },
          {
            "time": 15,
            "midi": 65,
            "name": "F4",
            "velocity": 0.3858267716535433,
            "duration": 0.625,
            "ticks": 24576,
            "durationTicks": 1024
          },
          {
            "time": 15.625,
            "midi": 65,
            "name": "F4",
            "velocity": 0.3858267716535433,
            "duration": 0.9375,
            "ticks": 25600,
            "durationTicks": 1536
          },
          {
            "time": 16.5625,
            "midi": 65,
            "name": "F4",
            "velocity": 0.3858267716535433,
            "duration": 0.3125,
            "ticks": 27136,
            "durationTicks": 512
          },
          {
            "time": 16.875,
            "midi": 64,
            "name": "E4",
            "velocity": 0.3858267716535433,
            "duration": 0.625,
            "ticks": 27648,
            "durationTicks": 1024
          },
          {
            "time": 17.5,
            "midi": 64,
            "name": "E4",
            "velocity": 0.3858267716535433,
            "duration": 0.9375,
            "ticks": 28672,
            "durationTicks": 1536
          },
          {
            "time": 18.4375,
            "midi": 64,
            "name": "E4",
            "velocity": 0.3858267716535433,
            "duration": 0.3125,
            "ticks": 30208,
            "durationTicks": 512
          },
          {
            "time": 18.75,
            "midi": 65,
            "name": "F4",
            "velocity": 0.3858267716535433,
            "duration": 0.625,
            "ticks": 30720,
            "durationTicks": 1024
          },
          {
            "time": 19.375,
            "midi": 65,
            "name": "F4",
            "velocity": 0.3858267716535433,
            "duration": 0.9375,
            "ticks": 31744,
            "durationTicks": 1536
          },
          {
            "time": 20.3125,
            "midi": 65,
            "name": "F4",
            "velocity": 0.3858267716535433,
            "duration": 0.3125,
            "ticks": 33280,
            "durationTicks": 512
          },
          {
            "time": 20.625,
            "midi": 67,
            "name": "G4",
            "velocity": 0.3858267716535433,
            "duration": 0.625,
            "ticks": 33792,
            "durationTicks": 1024
          },
          {
            "time": 21.25,
            "midi": 67,
            "name": "G4",
            "velocity": 0.3858267716535433,
            "duration": 0.9375,
            "ticks": 34816,
            "durationTicks": 1536
          },
          {
            "time": 22.1875,
            "midi": 67,
            "name": "G4",
            "velocity": 0.3858267716535433,
            "duration": 0.3125,
            "ticks": 36352,
            "durationTicks": 512
          },
          {
            "time": 22.5,
            "midi": 69,
            "name": "A4",
            "velocity": 0.3858267716535433,
            "duration": 0.625,
            "ticks": 36864,
            "durationTicks": 1024
          },
          {
            "time": 23.125,
            "midi": 69,
            "name": "A4",
            "velocity": 0.3858267716535433,
            "duration": 0.9375,
            "ticks": 37888,
            "durationTicks": 1536
          },
          {
            "time": 24.0625,
            "midi": 69,
            "name": "A4",
            "velocity": 0.3858267716535433,
            "duration": 0.3125,
            "ticks": 39424,
            "durationTicks": 512
          },
          {
            "time": 24.375,
            "midi": 67,
            "name": "G4",
            "velocity": 0.3858267716535433,
            "duration": 0.625,
            "ticks": 39936,
            "durationTicks": 1024
          },
          {
            "time": 25,
            "midi": 67,
            "name": "G4",
            "velocity": 0.3858267716535433,
            "duration": 0.3125,
            "ticks": 40960,
            "durationTicks": 512
          },
          {
            "time": 25.3125,
            "midi": 69,
            "name": "A4",
            "velocity": 0.3858267716535433,
            "duration": 0.3125,
            "ticks": 41472,
            "durationTicks": 512
          },
          {
            "time": 25.625,
            "midi": 70,
            "name": "A#4",
            "velocity": 0.3858267716535433,
            "duration": 0.625,
            "ticks": 41984,
            "durationTicks": 1024
          },
          {
            "time": 26.25,
            "midi": 69,
            "name": "A4",
            "velocity": 0.3858267716535433,
            "duration": 0.3125,
            "ticks": 43008,
            "durationTicks": 512
          },
          {
            "time": 26.5625,
            "midi": 67,
            "name": "G4",
            "velocity": 0.3858267716535433,
            "duration": 0.15625,
            "ticks": 43520,
            "durationTicks": 256
          },
          {
            "time": 26.71875,
            "midi": 65,
            "name": "F4",
            "velocity": 0.3858267716535433,
            "duration": 0.15625,
            "ticks": 43776,
            "durationTicks": 256
          },
          {
            "time": 26.875,
            "midi": 64,
            "name": "E4",
            "velocity": 0.3858267716535433,
            "duration": 0.9375,
            "ticks": 44032,
            "durationTicks": 1536
          },
          {
            "time": 27.8125,
            "midi": 62,
            "name": "D4",
            "velocity": 0.3858267716535433,
            "duration": 0.3125,
            "ticks": 45568,
            "durationTicks": 512
          },
          {
            "time": 28.125,
            "midi": 62,
            "name": "D4",
            "velocity": 0.3858267716535433,
            "duration": 1.875,
            "ticks": 46080,
            "durationTicks": 3072
          },
          {
            "time": 30,
            "midi": 74,
            "name": "D5",
            "velocity": 0.3858267716535433,
            "duration": 0.625,
            "ticks": 49152,
            "durationTicks": 1024
          },
          {
            "time": 30.625,
            "midi": 74,
            "name": "D5",
            "velocity": 0.3858267716535433,
            "duration": 0.46875,
            "ticks": 50176,
            "durationTicks": 768
          },
          {
            "time": 31.09375,
            "midi": 76,
            "name": "E5",
            "velocity": 0.3858267716535433,
            "duration": 0.15625,
            "ticks": 50944,
            "durationTicks": 256
          },
          {
            "time": 31.25,
            "midi": 77,
            "name": "F5",
            "velocity": 0.3858267716535433,
            "duration": 0.46875,
            "ticks": 51200,
            "durationTicks": 768
          },
          {
            "time": 31.71875,
            "midi": 74,
            "name": "D5",
            "velocity": 0.3858267716535433,
            "duration": 0.15625,
            "ticks": 51968,
            "durationTicks": 256
          },
          {
            "time": 31.875,
            "midi": 73,
            "name": "C#5",
            "velocity": 0.3858267716535433,
            "duration": 0.625,
            "ticks": 52224,
            "durationTicks": 1024
          },
          {
            "time": 32.5,
            "midi": 73,
            "name": "C#5",
            "velocity": 0.3858267716535433,
            "duration": 0.9375,
            "ticks": 53248,
            "durationTicks": 1536
          },
          {
            "time": 33.4375,
            "midi": 73,
            "name": "C#5",
            "velocity": 0.3858267716535433,
            "duration": 0.3125,
            "ticks": 54784,
            "durationTicks": 512
          },
          {
            "time": 33.75,
            "midi": 74,
            "name": "D5",
            "velocity": 0.3858267716535433,
            "duration": 0.625,
            "ticks": 55296,
            "durationTicks": 1024
          },
          {
            "time": 34.375,
            "midi": 74,
            "name": "D5",
            "velocity": 0.3858267716535433,
            "duration": 0.46875,
            "ticks": 56320,
            "durationTicks": 768
          },
          {
            "time": 34.84375,
            "midi": 76,
            "name": "E5",
            "velocity": 0.3858267716535433,
            "duration": 0.15625,
            "ticks": 57088,
            "durationTicks": 256
          },
          {
            "time": 35,
            "midi": 77,
            "name": "F5",
            "velocity": 0.3858267716535433,
            "duration": 0.46875,
            "ticks": 57344,
            "durationTicks": 768
          },
          {
            "time": 35.46875,
            "midi": 74,
            "name": "D5",
            "velocity": 0.3858267716535433,
            "duration": 0.15625,
            "ticks": 58112,
            "durationTicks": 256
          },
          {
            "time": 35.625,
            "midi": 76,
            "name": "E5",
            "velocity": 0.3858267716535433,
            "duration": 0.625,
            "ticks": 58368,
            "durationTicks": 1024
          },
          {
            "time": 36.25,
            "midi": 76,
            "name": "E5",
            "velocity": 0.3858267716535433,
            "duration": 0.9375,
            "ticks": 59392,
            "durationTicks": 1536
          },
          {
            "time": 37.1875,
            "midi": 76,
            "name": "E5",
            "velocity": 0.3858267716535433,
            "duration": 0.3125,
            "ticks": 60928,
            "durationTicks": 512
          },
          {
            "time": 37.5,
            "midi": 77,
            "name": "F5",
            "velocity": 0.3858267716535433,
            "duration": 0.625,
            "ticks": 61440,
            "durationTicks": 1024
          },
          {
            "time": 38.125,
            "midi": 77,
            "name": "F5",
            "velocity": 0.3858267716535433,
            "duration": 0.46875,
            "ticks": 62464,
            "durationTicks": 768
          },
          {
            "time": 38.59375,
            "midi": 79,
            "name": "G5",
            "velocity": 0.3858267716535433,
            "duration": 0.15625,
            "ticks": 63232,
            "durationTicks": 256
          },
          {
            "time": 38.75,
            "midi": 81,
            "name": "A5",
            "velocity": 0.3858267716535433,
            "duration": 0.46875,
            "ticks": 63488,
            "durationTicks": 768
          },
          {
            "time": 39.21875,
            "midi": 77,
            "name": "F5",
            "velocity": 0.3858267716535433,
            "duration": 0.15625,
            "ticks": 64256,
            "durationTicks": 256
          },
          {
            "time": 39.375,
            "midi": 76,
            "name": "E5",
            "velocity": 0.3858267716535433,
            "duration": 0.625,
            "ticks": 64512,
            "durationTicks": 1024
          },
          {
            "time": 40,
            "midi": 76,
            "name": "E5",
            "velocity": 0.3858267716535433,
            "duration": 0.46875,
            "ticks": 65536,
            "durationTicks": 768
          },
          {
            "time": 40.46875,
            "midi": 77,
            "name": "F5",
            "velocity": 0.3858267716535433,
            "duration": 0.15625,
            "ticks": 66304,
            "durationTicks": 256
          },
          {
            "time": 40.625,
            "midi": 79,
            "name": "G5",
            "velocity": 0.3858267716535433,
            "duration": 0.46875,
            "ticks": 66560,
            "durationTicks": 768
          },
          {
            "time": 41.09375,
            "midi": 76,
            "name": "E5",
            "velocity": 0.3858267716535433,
            "duration": 0.15625,
            "ticks": 67328,
            "durationTicks": 256
          },
          {
            "time": 41.25,
            "midi": 74,
            "name": "D5",
            "velocity": 0.3858267716535433,
            "duration": 0.625,
            "ticks": 67584,
            "durationTicks": 1024
          },
          {
            "time": 41.875,
            "midi": 74,
            "name": "D5",
            "velocity": 0.3858267716535433,
            "duration": 0.46875,
            "ticks": 68608,
            "durationTicks": 768
          },
          {
            "time": 42.34375,
            "midi": 76,
            "name": "E5",
            "velocity": 0.3858267716535433,
            "duration": 0.15625,
            "ticks": 69376,
            "durationTicks": 256
          },
          {
            "time": 42.5,
            "midi": 77,
            "name": "F5",
            "velocity": 0.3858267716535433,
            "duration": 0.46875,
            "ticks": 69632,
            "durationTicks": 768
          },
          {
            "time": 42.96875,
            "midi": 74,
            "name": "D5",
            "velocity": 0.3858267716535433,
            "duration": 0.15625,
            "ticks": 70400,
            "durationTicks": 256
          },
          {
            "time": 43.125,
            "midi": 73,
            "name": "C#5",
            "velocity": 0.3858267716535433,
            "duration": 1.875,
            "ticks": 70656,
            "durationTicks": 3072
          },
          {
            "time": 45,
            "midi": 74,
            "name": "D5",
            "velocity": 0.3858267716535433,
            "duration": 0.625,
            "ticks": 73728,
            "durationTicks": 1024
          },
          {
            "time": 45.625,
            "midi": 74,
            "name": "D5",
            "velocity": 0.3858267716535433,
            "duration": 0.46875,
            "ticks": 74752,
            "durationTicks": 768
          },
          {
            "time": 46.09375,
            "midi": 76,
            "name": "E5",
            "velocity": 0.3858267716535433,
            "duration": 0.15625,
            "ticks": 75520,
            "durationTicks": 256
          },
          {
            "time": 46.25,
            "midi": 77,
            "name": "F5",
            "velocity": 0.3858267716535433,
            "duration": 0.46875,
            "ticks": 75776,
            "durationTicks": 768
          },
          {
            "time": 46.71875,
            "midi": 74,
            "name": "D5",
            "velocity": 0.3858267716535433,
            "duration": 0.15625,
            "ticks": 76544,
            "durationTicks": 256
          },
          {
            "time": 46.875,
            "midi": 73,
            "name": "C#5",
            "velocity": 0.3858267716535433,
            "duration": 0.625,
            "ticks": 76800,
            "durationTicks": 1024
          },
          {
            "time": 47.5,
            "midi": 73,
            "name": "C#5",
            "velocity": 0.3858267716535433,
            "duration": 0.9375,
            "ticks": 77824,
            "durationTicks": 1536
          },
          {
            "time": 48.4375,
            "midi": 73,
            "name": "C#5",
            "velocity": 0.3858267716535433,
            "duration": 0.3125,
            "ticks": 79360,
            "durationTicks": 512
          },
          {
            "time": 48.75,
            "midi": 74,
            "name": "D5",
            "velocity": 0.3858267716535433,
            "duration": 0.625,
            "ticks": 79872,
            "durationTicks": 1024
          },
          {
            "time": 49.375,
            "midi": 74,
            "name": "D5",
            "velocity": 0.3858267716535433,
            "duration": 0.46875,
            "ticks": 80896,
            "durationTicks": 768
          },
          {
            "time": 49.84375,
            "midi": 76,
            "name": "E5",
            "velocity": 0.3858267716535433,
            "duration": 0.15625,
            "ticks": 81664,
            "durationTicks": 256
          },
          {
            "time": 50,
            "midi": 77,
            "name": "F5",
            "velocity": 0.3858267716535433,
            "duration": 0.46875,
            "ticks": 81920,
            "durationTicks": 768
          },
          {
            "time": 50.46875,
            "midi": 74,
            "name": "D5",
            "velocity": 0.3858267716535433,
            "duration": 0.15625,
            "ticks": 82688,
            "durationTicks": 256
          },
          {
            "time": 50.625,
            "midi": 76,
            "name": "E5",
            "velocity": 0.3858267716535433,
            "duration": 0.625,
            "ticks": 82944,
            "durationTicks": 1024
          },
          {
            "time": 51.25,
            "midi": 76,
            "name": "E5",
            "velocity": 0.3858267716535433,
            "duration": 0.9375,
            "ticks": 83968,
            "durationTicks": 1536
          },
          {
            "time": 52.1875,
            "midi": 76,
            "name": "E5",
            "velocity": 0.3858267716535433,
            "duration": 0.3125,
            "ticks": 85504,
            "durationTicks": 512
          },
          {
            "time": 52.5,
            "midi": 77,
            "name": "F5",
            "velocity": 0.3858267716535433,
            "duration": 0.625,
            "ticks": 86016,
            "durationTicks": 1024
          },
          {
            "time": 53.125,
            "midi": 77,
            "name": "F5",
            "velocity": 0.3858267716535433,
            "duration": 0.46875,
            "ticks": 87040,
            "durationTicks": 768
          },
          {
            "time": 53.59375,
            "midi": 79,
            "name": "G5",
            "velocity": 0.3858267716535433,
            "duration": 0.15625,
            "ticks": 87808,
            "durationTicks": 256
          },
          {
            "time": 53.75,
            "midi": 81,
            "name": "A5",
            "velocity": 0.3858267716535433,
            "duration": 0.46875,
            "ticks": 88064,
            "durationTicks": 768
          },
          {
            "time": 54.21875,
            "midi": 77,
            "name": "F5",
            "velocity": 0.3858267716535433,
            "duration": 0.15625,
            "ticks": 88832,
            "durationTicks": 256
          },
          {
            "time": 54.375,
            "midi": 76,
            "name": "E5",
            "velocity": 0.3858267716535433,
            "duration": 0.625,
            "ticks": 89088,
            "durationTicks": 1024
          },
          {
            "time": 55,
            "midi": 76,
            "name": "E5",
            "velocity": 0.3858267716535433,
            "duration": 0.46875,
            "ticks": 90112,
            "durationTicks": 768
          },
          {
            "time": 55.46875,
            "midi": 77,
            "name": "F5",
            "velocity": 0.3858267716535433,
            "duration": 0.15625,
            "ticks": 90880,
            "durationTicks": 256
          },
          {
            "time": 55.625,
            "midi": 79,
            "name": "G5",
            "velocity": 0.3858267716535433,
            "duration": 0.46875,
            "ticks": 91136,
            "durationTicks": 768
          },
          {
            "time": 56.09375,
            "midi": 76,
            "name": "E5",
            "velocity": 0.3858267716535433,
            "duration": 0.15625,
            "ticks": 91904,
            "durationTicks": 256
          },
          {
            "time": 56.25,
            "midi": 77,
            "name": "F5",
            "velocity": 0.3858267716535433,
            "duration": 0.3125,
            "ticks": 92160,
            "durationTicks": 512
          },
          {
            "time": 56.5625,
            "midi": 76,
            "name": "E5",
            "velocity": 0.3858267716535433,
            "duration": 0.15625,
            "ticks": 92672,
            "durationTicks": 256
          },
          {
            "time": 56.71875,
            "midi": 74,
            "name": "D5",
            "velocity": 0.3858267716535433,
            "duration": 0.15625,
            "ticks": 92928,
            "durationTicks": 256
          },
          {
            "time": 56.875,
            "midi": 73,
            "name": "C#5",
            "velocity": 0.3858267716535433,
            "duration": 0.9375,
            "ticks": 93184,
            "durationTicks": 1536
          },
          {
            "time": 57.8125,
            "midi": 74,
            "name": "D5",
            "velocity": 0.3858267716535433,
            "duration": 0.3125,
            "ticks": 94720,
            "durationTicks": 512
          },
          {
            "time": 58.125,
            "midi": 74,
            "name": "D5",
            "velocity": 0.3858267716535433,
            "duration": 1.875,
            "ticks": 95232,
            "durationTicks": 3072
          },
          {
            "time": 60.625,
            "midi": 74,
            "name": "D5",
            "velocity": 0.3858267716535433,
            "duration": 0.625,
            "ticks": 99328,
            "durationTicks": 1024
          },
          {
            "time": 61.25,
            "midi": 62,
            "name": "D4",
            "velocity": 0.3858267716535433,
            "duration": 0.625,
            "ticks": 100352,
            "durationTicks": 1024
          },
          {
            "time": 62.5,
            "midi": 73,
            "name": "C#5",
            "velocity": 0.3858267716535433,
            "duration": 0.625,
            "ticks": 102400,
            "durationTicks": 1024
          },
          {
            "time": 63.125,
            "midi": 61,
            "name": "C#4",
            "velocity": 0.3858267716535433,
            "duration": 0.625,
            "ticks": 103424,
            "durationTicks": 1024
          },
          {
            "time": 64.375,
            "midi": 74,
            "name": "D5",
            "velocity": 0.3858267716535433,
            "duration": 0.625,
            "ticks": 105472,
            "durationTicks": 1024
          },
          {
            "time": 65,
            "midi": 62,
            "name": "D4",
            "velocity": 0.3858267716535433,
            "duration": 0.625,
            "ticks": 106496,
            "durationTicks": 1024
          },
          {
            "time": 66.25,
            "midi": 76,
            "name": "E5",
            "velocity": 0.3858267716535433,
            "duration": 0.625,
            "ticks": 108544,
            "durationTicks": 1024
          },
          {
            "time": 66.875,
            "midi": 64,
            "name": "E4",
            "velocity": 0.3858267716535433,
            "duration": 0.625,
            "ticks": 109568,
            "durationTicks": 1024
          },
          {
            "time": 68.125,
            "midi": 77,
            "name": "F5",
            "velocity": 0.3858267716535433,
            "duration": 0.625,
            "ticks": 111616,
            "durationTicks": 1024
          },
          {
            "time": 68.75,
            "midi": 65,
            "name": "F4",
            "velocity": 0.3858267716535433,
            "duration": 0.625,
            "ticks": 112640,
            "durationTicks": 1024
          },
          {
            "time": 70,
            "midi": 76,
            "name": "E5",
            "velocity": 0.3858267716535433,
            "duration": 0.625,
            "ticks": 114688,
            "durationTicks": 1024
          },
          {
            "time": 70.625,
            "midi": 64,
            "name": "E4",
            "velocity": 0.3858267716535433,
            "duration": 0.625,
            "ticks": 115712,
            "durationTicks": 1024
          },
          {
            "time": 71.875,
            "midi": 74,
            "name": "D5",
            "velocity": 0.3858267716535433,
            "duration": 0.625,
            "ticks": 117760,
            "durationTicks": 1024
          },
          {
            "time": 72.5,
            "midi": 62,
            "name": "D4",
            "velocity": 0.3858267716535433,
            "duration": 0.625,
            "ticks": 118784,
            "durationTicks": 1024
          },
          {
            "time": 73.125,
            "midi": 61,
            "name": "C#4",
            "velocity": 0.3858267716535433,
            "duration": 0.625,
            "ticks": 119808,
            "durationTicks": 1024
          },
          {
            "time": 73.75,
            "midi": 76,
            "name": "E5",
            "velocity": 0.3858267716535433,
            "duration": 0.625,
            "ticks": 120832,
            "durationTicks": 1024
          },
          {
            "time": 75,
            "midi": 62,
            "name": "D4",
            "velocity": 0.3858267716535433,
            "duration": 0.625,
            "ticks": 122880,
            "durationTicks": 1024
          },
          {
            "time": 75.625,
            "midi": 77,
            "name": "F5",
            "velocity": 0.3858267716535433,
            "duration": 0.625,
            "ticks": 123904,
            "durationTicks": 1024
          },
          {
            "time": 76.875,
            "midi": 61,
            "name": "C#4",
            "velocity": 0.3858267716535433,
            "duration": 0.625,
            "ticks": 125952,
            "durationTicks": 1024
          },
          {
            "time": 77.5,
            "midi": 76,
            "name": "E5",
            "velocity": 0.3858267716535433,
            "duration": 0.625,
            "ticks": 126976,
            "durationTicks": 1024
          },
          {
            "time": 78.75,
            "midi": 65,
            "name": "F4",
            "velocity": 0.3858267716535433,
            "duration": 0.625,
            "ticks": 129024,
            "durationTicks": 1024
          },
          {
            "time": 79.375,
            "midi": 77,
            "name": "F5",
            "velocity": 0.3858267716535433,
            "duration": 0.625,
            "ticks": 130048,
            "durationTicks": 1024
          },
          {
            "time": 80.625,
            "midi": 64,
            "name": "E4",
            "velocity": 0.3858267716535433,
            "duration": 0.625,
            "ticks": 132096,
            "durationTicks": 1024
          },
          {
            "time": 81.25,
            "midi": 79,
            "name": "G5",
            "velocity": 0.3858267716535433,
            "duration": 0.625,
            "ticks": 133120,
            "durationTicks": 1024
          },
          {
            "time": 82.5,
            "midi": 65,
            "name": "F4",
            "velocity": 0.3858267716535433,
            "duration": 0.625,
            "ticks": 135168,
            "durationTicks": 1024
          },
          {
            "time": 83.125,
            "midi": 81,
            "name": "A5",
            "velocity": 0.3858267716535433,
            "duration": 0.625,
            "ticks": 136192,
            "durationTicks": 1024
          },
          {
            "time": 84.375,
            "midi": 64,
            "name": "E4",
            "velocity": 0.3858267716535433,
            "duration": 0.625,
            "ticks": 138240,
            "durationTicks": 1024
          },
          {
            "time": 85,
            "midi": 76,
            "name": "E5",
            "velocity": 0.3858267716535433,
            "duration": 0.625,
            "ticks": 139264,
            "durationTicks": 1024
          },
          {
            "time": 85.625,
            "midi": 69,
            "name": "A4",
            "velocity": 0.3858267716535433,
            "duration": 0.625,
            "ticks": 140288,
            "durationTicks": 1024
          },
          {
            "time": 86.25,
            "midi": 77,
            "name": "F5",
            "velocity": 0.3858267716535433,
            "duration": 0.3125,
            "ticks": 141312,
            "durationTicks": 512
          },
          {
            "time": 86.5625,
            "midi": 74,
            "name": "D5",
            "velocity": 0.3858267716535433,
            "duration": 0.3125,
            "ticks": 141824,
            "durationTicks": 512
          },
          {
            "time": 86.875,
            "midi": 73,
            "name": "C#5",
            "velocity": 0.3858267716535433,
            "duration": 0.9375,
            "ticks": 142336,
            "durationTicks": 1536
          },
          {
            "time": 87.8125,
            "midi": 74,
            "name": "D5",
            "velocity": 0.3858267716535433,
            "duration": 0.3125,
            "ticks": 143872,
            "durationTicks": 512
          },
          {
            "time": 88.125,
            "midi": 74,
            "name": "D5",
            "velocity": 0.3858267716535433,
            "duration": 1.875,
            "ticks": 144384,
            "durationTicks": 3072
          },
          {
            "time": 90.3125,
            "midi": 69,
            "name": "A4",
            "velocity": 0.3858267716535433,
            "duration": 0.3125,
            "ticks": 147968,
            "durationTicks": 512
          },
          {
            "time": 90.625,
            "midi": 65,
            "name": "F4",
            "velocity": 0.3858267716535433,
            "duration": 0.3125,
            "ticks": 148480,
            "durationTicks": 512
          },
          {
            "time": 90.9375,
            "midi": 62,
            "name": "D4",
            "velocity": 0.3858267716535433,
            "duration": 0.3125,
            "ticks": 148992,
            "durationTicks": 512
          },
          {
            "time": 91.25,
            "midi": 77,
            "name": "F5",
            "velocity": 0.3858267716535433,
            "duration": 0.625,
            "ticks": 149504,
            "durationTicks": 1024
          },
          {
            "time": 92.1875,
            "midi": 69,
            "name": "A4",
            "velocity": 0.3858267716535433,
            "duration": 0.3125,
            "ticks": 151040,
            "durationTicks": 512
          },
          {
            "time": 92.5,
            "midi": 64,
            "name": "E4",
            "velocity": 0.3858267716535433,
            "duration": 0.3125,
            "ticks": 151552,
            "durationTicks": 512
          },
          {
            "time": 92.8125,
            "midi": 61,
            "name": "C#4",
            "velocity": 0.3858267716535433,
            "duration": 0.3125,
            "ticks": 152064,
            "durationTicks": 512
          },
          {
            "time": 93.125,
            "midi": 76,
            "name": "E5",
            "velocity": 0.3858267716535433,
            "duration": 0.625,
            "ticks": 152576,
            "durationTicks": 1024
          },
          {
            "time": 94.0625,
            "midi": 69,
            "name": "A4",
            "velocity": 0.3858267716535433,
            "duration": 0.3125,
            "ticks": 154112,
            "durationTicks": 512
          },
          {
            "time": 94.375,
            "midi": 65,
            "name": "F4",
            "velocity": 0.3858267716535433,
            "duration": 0.3125,
            "ticks": 154624,
            "durationTicks": 512
          },
          {
            "time": 94.6875,
            "midi": 62,
            "name": "D4",
            "velocity": 0.3858267716535433,
            "duration": 0.3125,
            "ticks": 155136,
            "durationTicks": 512
          },
          {
            "time": 95,
            "midi": 77,
            "name": "F5",
            "velocity": 0.3858267716535433,
            "duration": 0.625,
            "ticks": 155648,
            "durationTicks": 1024
          },
          {
            "time": 95.9375,
            "midi": 72,
            "name": "C5",
            "velocity": 0.3858267716535433,
            "duration": 0.3125,
            "ticks": 157184,
            "durationTicks": 512
          },
          {
            "time": 96.25,
            "midi": 67,
            "name": "G4",
            "velocity": 0.3858267716535433,
            "duration": 0.3125,
            "ticks": 157696,
            "durationTicks": 512
          },
          {
            "time": 96.5625,
            "midi": 64,
            "name": "E4",
            "velocity": 0.3858267716535433,
            "duration": 0.3125,
            "ticks": 158208,
            "durationTicks": 512
          },
          {
            "time": 96.875,
            "midi": 79,
            "name": "G5",
            "velocity": 0.3858267716535433,
            "duration": 0.625,
            "ticks": 158720,
            "durationTicks": 1024
          },
          {
            "time": 97.8125,
            "midi": 72,
            "name": "C5",
            "velocity": 0.3858267716535433,
            "duration": 0.3125,
            "ticks": 160256,
            "durationTicks": 512
          },
          {
            "time": 98.125,
            "midi": 69,
            "name": "A4",
            "velocity": 0.3858267716535433,
            "duration": 0.3125,
            "ticks": 160768,
            "durationTicks": 512
          },
          {
            "time": 98.4375,
            "midi": 65,
            "name": "F4",
            "velocity": 0.3858267716535433,
            "duration": 0.3125,
            "ticks": 161280,
            "durationTicks": 512
          },
          {
            "time": 98.75,
            "midi": 81,
            "name": "A5",
            "velocity": 0.3858267716535433,
            "duration": 0.625,
            "ticks": 161792,
            "durationTicks": 1024
          },
          {
            "time": 99.6875,
            "midi": 72,
            "name": "C5",
            "velocity": 0.3858267716535433,
            "duration": 0.3125,
            "ticks": 163328,
            "durationTicks": 512
          },
          {
            "time": 100,
            "midi": 67,
            "name": "G4",
            "velocity": 0.3858267716535433,
            "duration": 0.3125,
            "ticks": 163840,
            "durationTicks": 512
          },
          {
            "time": 100.3125,
            "midi": 64,
            "name": "E4",
            "velocity": 0.3858267716535433,
            "duration": 0.3125,
            "ticks": 164352,
            "durationTicks": 512
          },
          {
            "time": 100.625,
            "midi": 79,
            "name": "G5",
            "velocity": 0.3858267716535433,
            "duration": 0.625,
            "ticks": 164864,
            "durationTicks": 1024
          },
          {
            "time": 101.5625,
            "midi": 69,
            "name": "A4",
            "velocity": 0.3858267716535433,
            "duration": 0.3125,
            "ticks": 166400,
            "durationTicks": 512
          },
          {
            "time": 101.875,
            "midi": 65,
            "name": "F4",
            "velocity": 0.3858267716535433,
            "duration": 0.3125,
            "ticks": 166912,
            "durationTicks": 512
          },
          {
            "time": 102.1875,
            "midi": 62,
            "name": "D4",
            "velocity": 0.3858267716535433,
            "duration": 0.3125,
            "ticks": 167424,
            "durationTicks": 512
          },
          {
            "time": 102.5,
            "midi": 74,
            "name": "D5",
            "velocity": 0.3858267716535433,
            "duration": 0.625,
            "ticks": 167936,
            "durationTicks": 1024
          },
          {
            "time": 103.4375,
            "midi": 76,
            "name": "E5",
            "velocity": 0.3858267716535433,
            "duration": 0.3125,
            "ticks": 169472,
            "durationTicks": 512
          },
          {
            "time": 103.75,
            "midi": 73,
            "name": "C#5",
            "velocity": 0.3858267716535433,
            "duration": 0.625,
            "ticks": 169984,
            "durationTicks": 1024
          },
          {
            "time": 104.6875,
            "midi": 73,
            "name": "C#5",
            "velocity": 0.3858267716535433,
            "duration": 0.3125,
            "ticks": 171520,
            "durationTicks": 512
          },
          {
            "time": 105,
            "midi": 74,
            "name": "D5",
            "velocity": 0.3858267716535433,
            "duration": 0.625,
            "ticks": 172032,
            "durationTicks": 1024
          },
          {
            "time": 105.9375,
            "midi": 65,
            "name": "F4",
            "velocity": 0.3858267716535433,
            "duration": 0.3125,
            "ticks": 173568,
            "durationTicks": 512
          },
          {
            "time": 106.25,
            "midi": 69,
            "name": "A4",
            "velocity": 0.3858267716535433,
            "duration": 0.3125,
            "ticks": 174080,
            "durationTicks": 512
          },
          {
            "time": 106.5625,
            "midi": 74,
            "name": "D5",
            "velocity": 0.3858267716535433,
            "duration": 0.3125,
            "ticks": 174592,
            "durationTicks": 512
          },
          {
            "time": 106.875,
            "midi": 73,
            "name": "C#5",
            "velocity": 0.3858267716535433,
            "duration": 0.625,
            "ticks": 175104,
            "durationTicks": 1024
          },
          {
            "time": 107.8125,
            "midi": 64,
            "name": "E4",
            "velocity": 0.3858267716535433,
            "duration": 0.3125,
            "ticks": 176640,
            "durationTicks": 512
          },
          {
            "time": 108.125,
            "midi": 69,
            "name": "A4",
            "velocity": 0.3858267716535433,
            "duration": 0.3125,
            "ticks": 177152,
            "durationTicks": 512
          },
          {
            "time": 108.4375,
            "midi": 73,
            "name": "C#5",
            "velocity": 0.3858267716535433,
            "duration": 0.3125,
            "ticks": 177664,
            "durationTicks": 512
          },
          {
            "time": 108.75,
            "midi": 74,
            "name": "D5",
            "velocity": 0.3858267716535433,
            "duration": 0.625,
            "ticks": 178176,
            "durationTicks": 1024
          },
          {
            "time": 109.6875,
            "midi": 65,
            "name": "F4",
            "velocity": 0.3858267716535433,
            "duration": 0.3125,
            "ticks": 179712,
            "durationTicks": 512
          },
          {
            "time": 110,
            "midi": 69,
            "name": "A4",
            "velocity": 0.3858267716535433,
            "duration": 0.3125,
            "ticks": 180224,
            "durationTicks": 512
          },
          {
            "time": 110.3125,
            "midi": 74,
            "name": "D5",
            "velocity": 0.3858267716535433,
            "duration": 0.3125,
            "ticks": 180736,
            "durationTicks": 512
          },
          {
            "time": 110.625,
            "midi": 76,
            "name": "E5",
            "velocity": 0.3858267716535433,
            "duration": 0.625,
            "ticks": 181248,
            "durationTicks": 1024
          },
          {
            "time": 111.5625,
            "midi": 72,
            "name": "C5",
            "velocity": 0.3858267716535433,
            "duration": 0.3125,
            "ticks": 182784,
            "durationTicks": 512
          },
          {
            "time": 111.875,
            "midi": 76,
            "name": "E5",
            "velocity": 0.3858267716535433,
            "duration": 0.3125,
            "ticks": 183296,
            "durationTicks": 512
          },
          {
            "time": 112.1875,
            "midi": 79,
            "name": "G5",
            "velocity": 0.3858267716535433,
            "duration": 0.3125,
            "ticks": 183808,
            "durationTicks": 512
          },
          {
            "time": 112.5,
            "midi": 77,
            "name": "F5",
            "velocity": 0.3858267716535433,
            "duration": 0.625,
            "ticks": 184320,
            "durationTicks": 1024
          },
          {
            "time": 113.4375,
            "midi": 69,
            "name": "A4",
            "velocity": 0.3858267716535433,
            "duration": 0.3125,
            "ticks": 185856,
            "durationTicks": 512
          },
          {
            "time": 113.75,
            "midi": 74,
            "name": "D5",
            "velocity": 0.3858267716535433,
            "duration": 0.3125,
            "ticks": 186368,
            "durationTicks": 512
          },
          {
            "time": 114.0625,
            "midi": 77,
            "name": "F5",
            "velocity": 0.3858267716535433,
            "duration": 0.3125,
            "ticks": 186880,
            "durationTicks": 512
          },
          {
            "time": 114.375,
            "midi": 75,
            "name": "D#5",
            "velocity": 0.3858267716535433,
            "duration": 0.3125,
            "ticks": 187392,
            "durationTicks": 512
          },
          {
            "time": 114.6875,
            "midi": 73,
            "name": "C#5",
            "velocity": 0.3858267716535433,
            "duration": 0.3125,
            "ticks": 187904,
            "durationTicks": 512
          },
          {
            "time": 115,
            "midi": 74,
            "name": "D5",
            "velocity": 0.3858267716535433,
            "duration": 1.5625,
            "ticks": 188416,
            "durationTicks": 2560
          },
          {
            "time": 116.5625,
            "midi": 76,
            "name": "E5",
            "velocity": 0.3858267716535433,
            "duration": 0.3125,
            "ticks": 190976,
            "durationTicks": 512
          },
          {
            "time": 116.875,
            "midi": 73,
            "name": "C#5",
            "velocity": 0.3858267716535433,
            "duration": 0.9375,
            "ticks": 191488,
            "durationTicks": 1536
          },
          {
            "time": 117.8125,
            "midi": 74,
            "name": "D5",
            "velocity": 0.3858267716535433,
            "duration": 0.3125,
            "ticks": 193024,
            "durationTicks": 512
          },
          {
            "time": 118.125,
            "midi": 74,
            "name": "D5",
            "velocity": 0.3858267716535433,
            "duration": 1.875,
            "ticks": 193536,
            "durationTicks": 3072
          },
          {
            "time": 120.15625,
            "midi": 74,
            "name": "D5",
            "velocity": 0.3858267716535433,
            "duration": 0.15625,
            "ticks": 196864,
            "durationTicks": 256
          },
          {
            "time": 120.3125,
            "midi": 72,
            "name": "C5",
            "velocity": 0.3858267716535433,
            "duration": 0.15625,
            "ticks": 197120,
            "durationTicks": 256
          },
          {
            "time": 120.46875,
            "midi": 70,
            "name": "A#4",
            "velocity": 0.3858267716535433,
            "duration": 0.15625,
            "ticks": 197376,
            "durationTicks": 256
          },
          {
            "time": 120.625,
            "midi": 69,
            "name": "A4",
            "velocity": 0.3858267716535433,
            "duration": 0.15625,
            "ticks": 197632,
            "durationTicks": 256
          },
          {
            "time": 120.78125,
            "midi": 67,
            "name": "G4",
            "velocity": 0.3858267716535433,
            "duration": 0.15625,
            "ticks": 197888,
            "durationTicks": 256
          },
          {
            "time": 120.9375,
            "midi": 65,
            "name": "F4",
            "velocity": 0.3858267716535433,
            "duration": 0.15625,
            "ticks": 198144,
            "durationTicks": 256
          },
          {
            "time": 121.09375,
            "midi": 64,
            "name": "E4",
            "velocity": 0.3858267716535433,
            "duration": 0.15625,
            "ticks": 198400,
            "durationTicks": 256
          },
          {
            "time": 121.25,
            "midi": 62,
            "name": "D4",
            "velocity": 0.3858267716535433,
            "duration": 0.3125,
            "ticks": 198656,
            "durationTicks": 512
          },
          {
            "time": 121.5625,
            "midi": 74,
            "name": "D5",
            "velocity": 0.3858267716535433,
            "duration": 0.3125,
            "ticks": 199168,
            "durationTicks": 512
          },
          {
            "time": 121.875,
            "midi": 73,
            "name": "C#5",
            "velocity": 0.3858267716535433,
            "duration": 0.625,
            "ticks": 199680,
            "durationTicks": 1024
          },
          {
            "time": 123.90625,
            "midi": 74,
            "name": "D5",
            "velocity": 0.3858267716535433,
            "duration": 0.15625,
            "ticks": 203008,
            "durationTicks": 256
          },
          {
            "time": 124.0625,
            "midi": 72,
            "name": "C5",
            "velocity": 0.3858267716535433,
            "duration": 0.15625,
            "ticks": 203264,
            "durationTicks": 256
          },
          {
            "time": 124.21875,
            "midi": 70,
            "name": "A#4",
            "velocity": 0.3858267716535433,
            "duration": 0.15625,
            "ticks": 203520,
            "durationTicks": 256
          },
          {
            "time": 124.375,
            "midi": 69,
            "name": "A4",
            "velocity": 0.3858267716535433,
            "duration": 0.15625,
            "ticks": 203776,
            "durationTicks": 256
          },
          {
            "time": 124.53125,
            "midi": 67,
            "name": "G4",
            "velocity": 0.3858267716535433,
            "duration": 0.15625,
            "ticks": 204032,
            "durationTicks": 256
          },
          {
            "time": 124.6875,
            "midi": 65,
            "name": "F4",
            "velocity": 0.3858267716535433,
            "duration": 0.15625,
            "ticks": 204288,
            "durationTicks": 256
          },
          {
            "time": 124.84375,
            "midi": 64,
            "name": "E4",
            "velocity": 0.3858267716535433,
            "duration": 0.15625,
            "ticks": 204544,
            "durationTicks": 256
          },
          {
            "time": 125,
            "midi": 62,
            "name": "D4",
            "velocity": 0.3858267716535433,
            "duration": 0.3125,
            "ticks": 204800,
            "durationTicks": 512
          },
          {
            "time": 125.3125,
            "midi": 74,
            "name": "D5",
            "velocity": 0.3858267716535433,
            "duration": 0.3125,
            "ticks": 205312,
            "durationTicks": 512
          },
          {
            "time": 125.625,
            "midi": 76,
            "name": "E5",
            "velocity": 0.3858267716535433,
            "duration": 0.625,
            "ticks": 205824,
            "durationTicks": 1024
          },
          {
            "time": 127.65625,
            "midi": 77,
            "name": "F5",
            "velocity": 0.3858267716535433,
            "duration": 0.15625,
            "ticks": 209152,
            "durationTicks": 256
          },
          {
            "time": 127.8125,
            "midi": 76,
            "name": "E5",
            "velocity": 0.3858267716535433,
            "duration": 0.15625,
            "ticks": 209408,
            "durationTicks": 256
          },
          {
            "time": 127.96875,
            "midi": 74,
            "name": "D5",
            "velocity": 0.3858267716535433,
            "duration": 0.15625,
            "ticks": 209664,
            "durationTicks": 256
          },
          {
            "time": 128.125,
            "midi": 72,
            "name": "C5",
            "velocity": 0.3858267716535433,
            "duration": 0.15625,
            "ticks": 209920,
            "durationTicks": 256
          },
          {
            "time": 128.28125,
            "midi": 70,
            "name": "A#4",
            "velocity": 0.3858267716535433,
            "duration": 0.15625,
            "ticks": 210176,
            "durationTicks": 256
          },
          {
            "time": 128.4375,
            "midi": 69,
            "name": "A4",
            "velocity": 0.3858267716535433,
            "duration": 0.15625,
            "ticks": 210432,
            "durationTicks": 256
          },
          {
            "time": 128.59375,
            "midi": 67,
            "name": "G4",
            "velocity": 0.3858267716535433,
            "duration": 0.15625,
            "ticks": 210688,
            "durationTicks": 256
          },
          {
            "time": 128.75,
            "midi": 65,
            "name": "F4",
            "velocity": 0.3858267716535433,
            "duration": 0.3125,
            "ticks": 210944,
            "durationTicks": 512
          },
          {
            "time": 129.0625,
            "midi": 77,
            "name": "F5",
            "velocity": 0.3858267716535433,
            "duration": 0.3125,
            "ticks": 211456,
            "durationTicks": 512
          },
          {
            "time": 129.375,
            "midi": 76,
            "name": "E5",
            "velocity": 0.3858267716535433,
            "duration": 0.625,
            "ticks": 211968,
            "durationTicks": 1024
          },
          {
            "time": 131.40625,
            "midi": 74,
            "name": "D5",
            "velocity": 0.3858267716535433,
            "duration": 0.15625,
            "ticks": 215296,
            "durationTicks": 256
          },
          {
            "time": 131.5625,
            "midi": 72,
            "name": "C5",
            "velocity": 0.3858267716535433,
            "duration": 0.15625,
            "ticks": 215552,
            "durationTicks": 256
          },
          {
            "time": 131.71875,
            "midi": 70,
            "name": "A#4",
            "velocity": 0.3858267716535433,
            "duration": 0.15625,
            "ticks": 215808,
            "durationTicks": 256
          },
          {
            "time": 131.875,
            "midi": 69,
            "name": "A4",
            "velocity": 0.3858267716535433,
            "duration": 0.15625,
            "ticks": 216064,
            "durationTicks": 256
          },
          {
            "time": 132.03125,
            "midi": 67,
            "name": "G4",
            "velocity": 0.3858267716535433,
            "duration": 0.15625,
            "ticks": 216320,
            "durationTicks": 256
          },
          {
            "time": 132.1875,
            "midi": 65,
            "name": "F4",
            "velocity": 0.3858267716535433,
            "duration": 0.15625,
            "ticks": 216576,
            "durationTicks": 256
          },
          {
            "time": 132.34375,
            "midi": 64,
            "name": "E4",
            "velocity": 0.3858267716535433,
            "duration": 0.15625,
            "ticks": 216832,
            "durationTicks": 256
          },
          {
            "time": 132.5,
            "midi": 62,
            "name": "D4",
            "velocity": 0.3858267716535433,
            "duration": 0.3125,
            "ticks": 217088,
            "durationTicks": 512
          },
          {
            "time": 132.8125,
            "midi": 74,
            "name": "D5",
            "velocity": 0.3858267716535433,
            "duration": 0.3125,
            "ticks": 217600,
            "durationTicks": 512
          },
          {
            "time": 133.125,
            "midi": 73,
            "name": "C#5",
            "velocity": 0.3858267716535433,
            "duration": 0.625,
            "ticks": 218112,
            "durationTicks": 1024
          },
          {
            "time": 133.75,
            "midi": 76,
            "name": "E5",
            "velocity": 0.3858267716535433,
            "duration": 0.9375,
            "ticks": 219136,
            "durationTicks": 1536
          },
          {
            "time": 134.6875,
            "midi": 76,
            "name": "E5",
            "velocity": 0.3858267716535433,
            "duration": 0.3125,
            "ticks": 220672,
            "durationTicks": 512
          },
          {
            "time": 135,
            "midi": 69,
            "name": "A4",
            "velocity": 0.3858267716535433,
            "duration": 0.15625,
            "ticks": 221184,
            "durationTicks": 256
          },
          {
            "time": 135.15625,
            "midi": 74,
            "name": "D5",
            "velocity": 0.3858267716535433,
            "duration": 0.15625,
            "ticks": 221440,
            "durationTicks": 256
          },
          {
            "time": 135.3125,
            "midi": 72,
            "name": "C5",
            "velocity": 0.3858267716535433,
            "duration": 0.15625,
            "ticks": 221696,
            "durationTicks": 256
          },
          {
            "time": 135.46875,
            "midi": 70,
            "name": "A#4",
            "velocity": 0.3858267716535433,
            "duration": 0.15625,
            "ticks": 221952,
            "durationTicks": 256
          },
          {
            "time": 135.625,
            "midi": 69,
            "name": "A4",
            "velocity": 0.3858267716535433,
            "duration": 0.15625,
            "ticks": 222208,
            "durationTicks": 256
          },
          {
            "time": 135.78125,
            "midi": 67,
            "name": "G4",
            "velocity": 0.3858267716535433,
            "duration": 0.15625,
            "ticks": 222464,
            "durationTicks": 256
          },
          {
            "time": 135.9375,
            "midi": 65,
            "name": "F4",
            "velocity": 0.3858267716535433,
            "duration": 0.15625,
            "ticks": 222720,
            "durationTicks": 256
          },
          {
            "time": 136.09375,
            "midi": 64,
            "name": "E4",
            "velocity": 0.3858267716535433,
            "duration": 0.15625,
            "ticks": 222976,
            "durationTicks": 256
          },
          {
            "time": 136.25,
            "midi": 62,
            "name": "D4",
            "velocity": 0.3858267716535433,
            "duration": 0.3125,
            "ticks": 223232,
            "durationTicks": 512
          },
          {
            "time": 136.5625,
            "midi": 74,
            "name": "D5",
            "velocity": 0.3858267716535433,
            "duration": 0.3125,
            "ticks": 223744,
            "durationTicks": 512
          },
          {
            "time": 136.875,
            "midi": 73,
            "name": "C#5",
            "velocity": 0.3858267716535433,
            "duration": 0.625,
            "ticks": 224256,
            "durationTicks": 1024
          },
          {
            "time": 138.90625,
            "midi": 74,
            "name": "D5",
            "velocity": 0.3858267716535433,
            "duration": 0.15625,
            "ticks": 227584,
            "durationTicks": 256
          },
          {
            "time": 139.0625,
            "midi": 72,
            "name": "C5",
            "velocity": 0.3858267716535433,
            "duration": 0.15625,
            "ticks": 227840,
            "durationTicks": 256
          },
          {
            "time": 139.21875,
            "midi": 70,
            "name": "A#4",
            "velocity": 0.3858267716535433,
            "duration": 0.15625,
            "ticks": 228096,
            "durationTicks": 256
          },
          {
            "time": 139.375,
            "midi": 69,
            "name": "A4",
            "velocity": 0.3858267716535433,
            "duration": 0.15625,
            "ticks": 228352,
            "durationTicks": 256
          },
          {
            "time": 139.53125,
            "midi": 67,
            "name": "G4",
            "velocity": 0.3858267716535433,
            "duration": 0.15625,
            "ticks": 228608,
            "durationTicks": 256
          },
          {
            "time": 139.6875,
            "midi": 65,
            "name": "F4",
            "velocity": 0.3858267716535433,
            "duration": 0.15625,
            "ticks": 228864,
            "durationTicks": 256
          },
          {
            "time": 139.84375,
            "midi": 64,
            "name": "E4",
            "velocity": 0.3858267716535433,
            "duration": 0.15625,
            "ticks": 229120,
            "durationTicks": 256
          },
          {
            "time": 140,
            "midi": 62,
            "name": "D4",
            "velocity": 0.3858267716535433,
            "duration": 0.3125,
            "ticks": 229376,
            "durationTicks": 512
          },
          {
            "time": 140.3125,
            "midi": 74,
            "name": "D5",
            "velocity": 0.3858267716535433,
            "duration": 0.3125,
            "ticks": 229888,
            "durationTicks": 512
          },
          {
            "time": 140.625,
            "midi": 76,
            "name": "E5",
            "velocity": 0.3858267716535433,
            "duration": 0.625,
            "ticks": 230400,
            "durationTicks": 1024
          },
          {
            "time": 142.65625,
            "midi": 77,
            "name": "F5",
            "velocity": 0.3858267716535433,
            "duration": 0.15625,
            "ticks": 233728,
            "durationTicks": 256
          },
          {
            "time": 142.8125,
            "midi": 76,
            "name": "E5",
            "velocity": 0.3858267716535433,
            "duration": 0.15625,
            "ticks": 233984,
            "durationTicks": 256
          },
          {
            "time": 142.96875,
            "midi": 74,
            "name": "D5",
            "velocity": 0.3858267716535433,
            "duration": 0.15625,
            "ticks": 234240,
            "durationTicks": 256
          },
          {
            "time": 143.125,
            "midi": 72,
            "name": "C5",
            "velocity": 0.3858267716535433,
            "duration": 0.15625,
            "ticks": 234496,
            "durationTicks": 256
          },
          {
            "time": 143.28125,
            "midi": 70,
            "name": "A#4",
            "velocity": 0.3858267716535433,
            "duration": 0.15625,
            "ticks": 234752,
            "durationTicks": 256
          },
          {
            "time": 143.4375,
            "midi": 69,
            "name": "A4",
            "velocity": 0.3858267716535433,
            "duration": 0.15625,
            "ticks": 235008,
            "durationTicks": 256
          },
          {
            "time": 143.59375,
            "midi": 67,
            "name": "G4",
            "velocity": 0.3858267716535433,
            "duration": 0.15625,
            "ticks": 235264,
            "durationTicks": 256
          },
          {
            "time": 143.75,
            "midi": 65,
            "name": "F4",
            "velocity": 0.3858267716535433,
            "duration": 0.3125,
            "ticks": 235520,
            "durationTicks": 512
          },
          {
            "time": 144.0625,
            "midi": 77,
            "name": "F5",
            "velocity": 0.3858267716535433,
            "duration": 0.3125,
            "ticks": 236032,
            "durationTicks": 512
          },
          {
            "time": 144.375,
            "midi": 76,
            "name": "E5",
            "velocity": 0.3858267716535433,
            "duration": 0.625,
            "ticks": 236544,
            "durationTicks": 1024
          },
          {
            "time": 145,
            "midi": 76,
            "name": "E5",
            "velocity": 0.3858267716535433,
            "duration": 0.9375,
            "ticks": 237568,
            "durationTicks": 1536
          },
          {
            "time": 145.9375,
            "midi": 76,
            "name": "E5",
            "velocity": 0.3858267716535433,
            "duration": 0.3125,
            "ticks": 239104,
            "durationTicks": 512
          },
          {
            "time": 146.25,
            "midi": 69,
            "name": "A4",
            "velocity": 0.3858267716535433,
            "duration": 0.3125,
            "ticks": 239616,
            "durationTicks": 512
          },
          {
            "time": 146.5625,
            "midi": 70,
            "name": "A#4",
            "velocity": 0.3858267716535433,
            "duration": 0.3125,
            "ticks": 240128,
            "durationTicks": 512
          },
          {
            "time": 146.875,
            "midi": 64,
            "name": "E4",
            "velocity": 0.3858267716535433,
            "duration": 0.9375,
            "ticks": 240640,
            "durationTicks": 1536
          },
          {
            "time": 147.8125,
            "midi": 69,
            "name": "A4",
            "velocity": 0.3858267716535433,
            "duration": 0.3125,
            "ticks": 242176,
            "durationTicks": 512
          },
          {
            "time": 148.125,
            "midi": 65,
            "name": "F4",
            "velocity": 0.3858267716535433,
            "duration": 1.875,
            "ticks": 242688,
            "durationTicks": 3072
          },
          {
            "time": 150,
            "midi": 74,
            "name": "D5",
            "velocity": 0.3858267716535433,
            "duration": 0.3125,
            "ticks": 245760,
            "durationTicks": 512
          },
          {
            "time": 150.3125,
            "midi": 69,
            "name": "A4",
            "velocity": 0.3858267716535433,
            "duration": 0.3125,
            "ticks": 246272,
            "durationTicks": 512
          },
          {
            "time": 150.625,
            "midi": 65,
            "name": "F4",
            "velocity": 0.3858267716535433,
            "duration": 0.3125,
            "ticks": 246784,
            "durationTicks": 512
          },
          {
            "time": 150.9375,
            "midi": 62,
            "name": "D4",
            "velocity": 0.3858267716535433,
            "duration": 0.3125,
            "ticks": 247296,
            "durationTicks": 512
          },
          {
            "time": 151.25,
            "midi": 69,
            "name": "A4",
            "velocity": 0.3858267716535433,
            "duration": 0.3125,
            "ticks": 247808,
            "durationTicks": 512
          },
          {
            "time": 151.5625,
            "midi": 74,
            "name": "D5",
            "velocity": 0.3858267716535433,
            "duration": 0.3125,
            "ticks": 248320,
            "durationTicks": 512
          },
          {
            "time": 151.875,
            "midi": 73,
            "name": "C#5",
            "velocity": 0.3858267716535433,
            "duration": 0.625,
            "ticks": 248832,
            "durationTicks": 1024
          },
          {
            "time": 152.5,
            "midi": 73,
            "name": "C#5",
            "velocity": 0.3858267716535433,
            "duration": 0.9375,
            "ticks": 249856,
            "durationTicks": 1536
          },
          {
            "time": 153.4375,
            "midi": 73,
            "name": "C#5",
            "velocity": 0.3858267716535433,
            "duration": 0.3125,
            "ticks": 251392,
            "durationTicks": 512
          },
          {
            "time": 153.75,
            "midi": 74,
            "name": "D5",
            "velocity": 0.3858267716535433,
            "duration": 0.3125,
            "ticks": 251904,
            "durationTicks": 512
          },
          {
            "time": 154.0625,
            "midi": 69,
            "name": "A4",
            "velocity": 0.3858267716535433,
            "duration": 0.3125,
            "ticks": 252416,
            "durationTicks": 512
          },
          {
            "time": 154.375,
            "midi": 65,
            "name": "F4",
            "velocity": 0.3858267716535433,
            "duration": 0.3125,
            "ticks": 252928,
            "durationTicks": 512
          },
          {
            "time": 154.6875,
            "midi": 62,
            "name": "D4",
            "velocity": 0.3858267716535433,
            "duration": 0.3125,
            "ticks": 253440,
            "durationTicks": 512
          },
          {
            "time": 155,
            "midi": 69,
            "name": "A4",
            "velocity": 0.3858267716535433,
            "duration": 0.3125,
            "ticks": 253952,
            "durationTicks": 512
          },
          {
            "time": 155.3125,
            "midi": 74,
            "name": "D5",
            "velocity": 0.3858267716535433,
            "duration": 0.3125,
            "ticks": 254464,
            "durationTicks": 512
          },
          {
            "time": 155.625,
            "midi": 76,
            "name": "E5",
            "velocity": 0.3858267716535433,
            "duration": 0.625,
            "ticks": 254976,
            "durationTicks": 1024
          },
          {
            "time": 156.25,
            "midi": 76,
            "name": "E5",
            "velocity": 0.3858267716535433,
            "duration": 0.9375,
            "ticks": 256000,
            "durationTicks": 1536
          },
          {
            "time": 157.1875,
            "midi": 76,
            "name": "E5",
            "velocity": 0.3858267716535433,
            "duration": 0.3125,
            "ticks": 257536,
            "durationTicks": 512
          },
          {
            "time": 157.5,
            "midi": 77,
            "name": "F5",
            "velocity": 0.3858267716535433,
            "duration": 0.3125,
            "ticks": 258048,
            "durationTicks": 512
          },
          {
            "time": 157.8125,
            "midi": 72,
            "name": "C5",
            "velocity": 0.3858267716535433,
            "duration": 0.3125,
            "ticks": 258560,
            "durationTicks": 512
          },
          {
            "time": 158.125,
            "midi": 69,
            "name": "A4",
            "velocity": 0.3858267716535433,
            "duration": 0.3125,
            "ticks": 259072,
            "durationTicks": 512
          },
          {
            "time": 158.4375,
            "midi": 65,
            "name": "F4",
            "velocity": 0.3858267716535433,
            "duration": 0.3125,
            "ticks": 259584,
            "durationTicks": 512
          },
          {
            "time": 158.75,
            "midi": 77,
            "name": "F5",
            "velocity": 0.3858267716535433,
            "duration": 0.625,
            "ticks": 260096,
            "durationTicks": 1024
          },
          {
            "time": 159.375,
            "midi": 76,
            "name": "E5",
            "velocity": 0.3858267716535433,
            "duration": 0.3125,
            "ticks": 261120,
            "durationTicks": 512
          },
          {
            "time": 159.6875,
            "midi": 72,
            "name": "C5",
            "velocity": 0.3858267716535433,
            "duration": 0.3125,
            "ticks": 261632,
            "durationTicks": 512
          },
          {
            "time": 160,
            "midi": 67,
            "name": "G4",
            "velocity": 0.3858267716535433,
            "duration": 0.3125,
            "ticks": 262144,
            "durationTicks": 512
          },
          {
            "time": 160.3125,
            "midi": 64,
            "name": "E4",
            "velocity": 0.3858267716535433,
            "duration": 0.3125,
            "ticks": 262656,
            "durationTicks": 512
          },
          {
            "time": 160.625,
            "midi": 76,
            "name": "E5",
            "velocity": 0.3858267716535433,
            "duration": 0.625,
            "ticks": 263168,
            "durationTicks": 1024
          },
          {
            "time": 161.25,
            "midi": 74,
            "name": "D5",
            "velocity": 0.3858267716535433,
            "duration": 0.3125,
            "ticks": 264192,
            "durationTicks": 512
          },
          {
            "time": 161.5625,
            "midi": 69,
            "name": "A4",
            "velocity": 0.3858267716535433,
            "duration": 0.3125,
            "ticks": 264704,
            "durationTicks": 512
          },
          {
            "time": 161.875,
            "midi": 77,
            "name": "F5",
            "velocity": 0.3858267716535433,
            "duration": 0.9375,
            "ticks": 265216,
            "durationTicks": 1536
          },
          {
            "time": 162.8125,
            "midi": 79,
            "name": "G5",
            "velocity": 0.3858267716535433,
            "duration": 0.3125,
            "ticks": 266752,
            "durationTicks": 512
          },
          {
            "time": 163.125,
            "midi": 76,
            "name": "E5",
            "velocity": 0.3858267716535433,
            "duration": 0.625,
            "ticks": 267264,
            "durationTicks": 1024
          },
          {
            "time": 163.75,
            "midi": 73,
            "name": "C#5",
            "velocity": 0.3858267716535433,
            "duration": 0.9375,
            "ticks": 268288,
            "durationTicks": 1536
          },
          {
            "time": 164.6875,
            "midi": 73,
            "name": "C#5",
            "velocity": 0.3858267716535433,
            "duration": 0.3125,
            "ticks": 269824,
            "durationTicks": 512
          },
          {
            "time": 165,
            "midi": 74,
            "name": "D5",
            "velocity": 0.3858267716535433,
            "duration": 0.3125,
            "ticks": 270336,
            "durationTicks": 512
          },
          {
            "time": 165.3125,
            "midi": 69,
            "name": "A4",
            "velocity": 0.3858267716535433,
            "duration": 0.3125,
            "ticks": 270848,
            "durationTicks": 512
          },
          {
            "time": 165.625,
            "midi": 65,
            "name": "F4",
            "velocity": 0.3858267716535433,
            "duration": 0.3125,
            "ticks": 271360,
            "durationTicks": 512
          },
          {
            "time": 165.9375,
            "midi": 62,
            "name": "D4",
            "velocity": 0.3858267716535433,
            "duration": 0.3125,
            "ticks": 271872,
            "durationTicks": 512
          },
          {
            "time": 166.25,
            "midi": 69,
            "name": "A4",
            "velocity": 0.3858267716535433,
            "duration": 0.3125,
            "ticks": 272384,
            "durationTicks": 512
          },
          {
            "time": 166.5625,
            "midi": 74,
            "name": "D5",
            "velocity": 0.3858267716535433,
            "duration": 0.3125,
            "ticks": 272896,
            "durationTicks": 512
          },
          {
            "time": 166.875,
            "midi": 73,
            "name": "C#5",
            "velocity": 0.3858267716535433,
            "duration": 0.625,
            "ticks": 273408,
            "durationTicks": 1024
          },
          {
            "time": 167.5,
            "midi": 73,
            "name": "C#5",
            "velocity": 0.3858267716535433,
            "duration": 0.9375,
            "ticks": 274432,
            "durationTicks": 1536
          },
          {
            "time": 168.4375,
            "midi": 73,
            "name": "C#5",
            "velocity": 0.3858267716535433,
            "duration": 0.3125,
            "ticks": 275968,
            "durationTicks": 512
          },
          {
            "time": 168.75,
            "midi": 74,
            "name": "D5",
            "velocity": 0.3858267716535433,
            "duration": 0.3125,
            "ticks": 276480,
            "durationTicks": 512
          },
          {
            "time": 169.0625,
            "midi": 69,
            "name": "A4",
            "velocity": 0.3858267716535433,
            "duration": 0.3125,
            "ticks": 276992,
            "durationTicks": 512
          },
          {
            "time": 169.375,
            "midi": 65,
            "name": "F4",
            "velocity": 0.3858267716535433,
            "duration": 0.3125,
            "ticks": 277504,
            "durationTicks": 512
          },
          {
            "time": 169.6875,
            "midi": 62,
            "name": "D4",
            "velocity": 0.3858267716535433,
            "duration": 0.3125,
            "ticks": 278016,
            "durationTicks": 512
          },
          {
            "time": 170,
            "midi": 69,
            "name": "A4",
            "velocity": 0.3858267716535433,
            "duration": 0.3125,
            "ticks": 278528,
            "durationTicks": 512
          },
          {
            "time": 170.3125,
            "midi": 74,
            "name": "D5",
            "velocity": 0.3858267716535433,
            "duration": 0.3125,
            "ticks": 279040,
            "durationTicks": 512
          },
          {
            "time": 170.625,
            "midi": 76,
            "name": "E5",
            "velocity": 0.3858267716535433,
            "duration": 0.625,
            "ticks": 279552,
            "durationTicks": 1024
          },
          {
            "time": 171.25,
            "midi": 76,
            "name": "E5",
            "velocity": 0.3858267716535433,
            "duration": 0.9375,
            "ticks": 280576,
            "durationTicks": 1536
          },
          {
            "time": 172.1875,
            "midi": 76,
            "name": "E5",
            "velocity": 0.3858267716535433,
            "duration": 0.3125,
            "ticks": 282112,
            "durationTicks": 512
          },
          {
            "time": 172.5,
            "midi": 77,
            "name": "F5",
            "velocity": 0.3858267716535433,
            "duration": 0.3125,
            "ticks": 282624,
            "durationTicks": 512
          },
          {
            "time": 172.8125,
            "midi": 72,
            "name": "C5",
            "velocity": 0.3858267716535433,
            "duration": 0.3125,
            "ticks": 283136,
            "durationTicks": 512
          },
          {
            "time": 173.125,
            "midi": 69,
            "name": "A4",
            "velocity": 0.3858267716535433,
            "duration": 0.3125,
            "ticks": 283648,
            "durationTicks": 512
          },
          {
            "time": 173.4375,
            "midi": 65,
            "name": "F4",
            "velocity": 0.3858267716535433,
            "duration": 0.3125,
            "ticks": 284160,
            "durationTicks": 512
          },
          {
            "time": 173.75,
            "midi": 77,
            "name": "F5",
            "velocity": 0.3858267716535433,
            "duration": 0.625,
            "ticks": 284672,
            "durationTicks": 1024
          },
          {
            "time": 174.375,
            "midi": 76,
            "name": "E5",
            "velocity": 0.3858267716535433,
            "duration": 0.3125,
            "ticks": 285696,
            "durationTicks": 512
          },
          {
            "time": 174.6875,
            "midi": 72,
            "name": "C5",
            "velocity": 0.3858267716535433,
            "duration": 0.3125,
            "ticks": 286208,
            "durationTicks": 512
          },
          {
            "time": 175,
            "midi": 67,
            "name": "G4",
            "velocity": 0.3858267716535433,
            "duration": 0.3125,
            "ticks": 286720,
            "durationTicks": 512
          },
          {
            "time": 175.3125,
            "midi": 64,
            "name": "E4",
            "velocity": 0.3858267716535433,
            "duration": 0.3125,
            "ticks": 287232,
            "durationTicks": 512
          },
          {
            "time": 175.625,
            "midi": 76,
            "name": "E5",
            "velocity": 0.3858267716535433,
            "duration": 0.625,
            "ticks": 287744,
            "durationTicks": 1024
          },
          {
            "time": 176.25,
            "midi": 74,
            "name": "D5",
            "velocity": 0.3858267716535433,
            "duration": 0.3125,
            "ticks": 288768,
            "durationTicks": 512
          },
          {
            "time": 176.5625,
            "midi": 79,
            "name": "G5",
            "velocity": 0.3858267716535433,
            "duration": 0.3125,
            "ticks": 289280,
            "durationTicks": 512
          },
          {
            "time": 176.875,
            "midi": 77,
            "name": "F5",
            "velocity": 0.3858267716535433,
            "duration": 0.625,
            "ticks": 289792,
            "durationTicks": 1024
          },
          {
            "time": 177.5,
            "midi": 76,
            "name": "E5",
            "velocity": 0.3858267716535433,
            "duration": 0.625,
            "ticks": 290816,
            "durationTicks": 1024
          },
          {
            "time": 178.125,
            "midi": 74,
            "name": "D5",
            "velocity": 0.3858267716535433,
            "duration": 1.875,
            "ticks": 291840,
            "durationTicks": 3072
          },
          {
            "time": 180,
            "midi": 74,
            "name": "D5",
            "velocity": 0.3858267716535433,
            "duration": 0.15625,
            "ticks": 294912,
            "durationTicks": 256
          },
          {
            "time": 180.15625,
            "midi": 69,
            "name": "A4",
            "velocity": 0.3858267716535433,
            "duration": 0.15625,
            "ticks": 295168,
            "durationTicks": 256
          },
          {
            "time": 180.3125,
            "midi": 65,
            "name": "F4",
            "velocity": 0.3858267716535433,
            "duration": 0.15625,
            "ticks": 295424,
            "durationTicks": 256
          },
          {
            "time": 180.46875,
            "midi": 69,
            "name": "A4",
            "velocity": 0.3858267716535433,
            "duration": 0.15625,
            "ticks": 295680,
            "durationTicks": 256
          },
          {
            "time": 180.625,
            "midi": 62,
            "name": "D4",
            "velocity": 0.3858267716535433,
            "duration": 0.625,
            "ticks": 295936,
            "durationTicks": 1024
          },
          {
            "time": 181.875,
            "midi": 73,
            "name": "C#5",
            "velocity": 0.3858267716535433,
            "duration": 0.15625,
            "ticks": 297984,
            "durationTicks": 256
          },
          {
            "time": 182.03125,
            "midi": 69,
            "name": "A4",
            "velocity": 0.3858267716535433,
            "duration": 0.15625,
            "ticks": 298240,
            "durationTicks": 256
          },
          {
            "time": 182.1875,
            "midi": 64,
            "name": "E4",
            "velocity": 0.3858267716535433,
            "duration": 0.15625,
            "ticks": 298496,
            "durationTicks": 256
          },
          {
            "time": 182.34375,
            "midi": 69,
            "name": "A4",
            "velocity": 0.3858267716535433,
            "duration": 0.15625,
            "ticks": 298752,
            "durationTicks": 256
          },
          {
            "time": 182.5,
            "midi": 61,
            "name": "C#4",
            "velocity": 0.3858267716535433,
            "duration": 0.625,
            "ticks": 299008,
            "durationTicks": 1024
          },
          {
            "time": 183.75,
            "midi": 74,
            "name": "D5",
            "velocity": 0.3858267716535433,
            "duration": 0.15625,
            "ticks": 301056,
            "durationTicks": 256
          },
          {
            "time": 183.90625,
            "midi": 69,
            "name": "A4",
            "velocity": 0.3858267716535433,
            "duration": 0.15625,
            "ticks": 301312,
            "durationTicks": 256
          },
          {
            "time": 184.0625,
            "midi": 65,
            "name": "F4",
            "velocity": 0.3858267716535433,
            "duration": 0.15625,
            "ticks": 301568,
            "durationTicks": 256
          },
          {
            "time": 184.21875,
            "midi": 69,
            "name": "A4",
            "velocity": 0.3858267716535433,
            "duration": 0.15625,
            "ticks": 301824,
            "durationTicks": 256
          },
          {
            "time": 184.375,
            "midi": 62,
            "name": "D4",
            "velocity": 0.3858267716535433,
            "duration": 0.625,
            "ticks": 302080,
            "durationTicks": 1024
          },
          {
            "time": 185.625,
            "midi": 76,
            "name": "E5",
            "velocity": 0.3858267716535433,
            "duration": 0.15625,
            "ticks": 304128,
            "durationTicks": 256
          },
          {
            "time": 185.78125,
            "midi": 72,
            "name": "C5",
            "velocity": 0.3858267716535433,
            "duration": 0.15625,
            "ticks": 304384,
            "durationTicks": 256
          },
          {
            "time": 185.9375,
            "midi": 67,
            "name": "G4",
            "velocity": 0.3858267716535433,
            "duration": 0.15625,
            "ticks": 304640,
            "durationTicks": 256
          },
          {
            "time": 186.09375,
            "midi": 72,
            "name": "C5",
            "velocity": 0.3858267716535433,
            "duration": 0.15625,
            "ticks": 304896,
            "durationTicks": 256
          },
          {
            "time": 186.25,
            "midi": 64,
            "name": "E4",
            "velocity": 0.3858267716535433,
            "duration": 0.625,
            "ticks": 305152,
            "durationTicks": 1024
          },
          {
            "time": 187.5,
            "midi": 77,
            "name": "F5",
            "velocity": 0.3858267716535433,
            "duration": 0.15625,
            "ticks": 307200,
            "durationTicks": 256
          },
          {
            "time": 187.65625,
            "midi": 72,
            "name": "C5",
            "velocity": 0.3858267716535433,
            "duration": 0.15625,
            "ticks": 307456,
            "durationTicks": 256
          },
          {
            "time": 187.8125,
            "midi": 69,
            "name": "A4",
            "velocity": 0.3858267716535433,
            "duration": 0.15625,
            "ticks": 307712,
            "durationTicks": 256
          },
          {
            "time": 187.96875,
            "midi": 72,
            "name": "C5",
            "velocity": 0.3858267716535433,
            "duration": 0.15625,
            "ticks": 307968,
            "durationTicks": 256
          },
          {
            "time": 188.125,
            "midi": 65,
            "name": "F4",
            "velocity": 0.3858267716535433,
            "duration": 0.625,
            "ticks": 308224,
            "durationTicks": 1024
          },
          {
            "time": 189.375,
            "midi": 76,
            "name": "E5",
            "velocity": 0.3858267716535433,
            "duration": 0.15625,
            "ticks": 310272,
            "durationTicks": 256
          },
          {
            "time": 189.53125,
            "midi": 72,
            "name": "C5",
            "velocity": 0.3858267716535433,
            "duration": 0.15625,
            "ticks": 310528,
            "durationTicks": 256
          },
          {
            "time": 189.6875,
            "midi": 67,
            "name": "G4",
            "velocity": 0.3858267716535433,
            "duration": 0.15625,
            "ticks": 310784,
            "durationTicks": 256
          },
          {
            "time": 189.84375,
            "midi": 72,
            "name": "C5",
            "velocity": 0.3858267716535433,
            "duration": 0.15625,
            "ticks": 311040,
            "durationTicks": 256
          },
          {
            "time": 190,
            "midi": 64,
            "name": "E4",
            "velocity": 0.3858267716535433,
            "duration": 0.625,
            "ticks": 311296,
            "durationTicks": 1024
          },
          {
            "time": 191.25,
            "midi": 74,
            "name": "D5",
            "velocity": 0.3858267716535433,
            "duration": 0.15625,
            "ticks": 313344,
            "durationTicks": 256
          },
          {
            "time": 191.40625,
            "midi": 69,
            "name": "A4",
            "velocity": 0.3858267716535433,
            "duration": 0.15625,
            "ticks": 313600,
            "durationTicks": 256
          },
          {
            "time": 191.5625,
            "midi": 65,
            "name": "F4",
            "velocity": 0.3858267716535433,
            "duration": 0.15625,
            "ticks": 313856,
            "durationTicks": 256
          },
          {
            "time": 191.71875,
            "midi": 69,
            "name": "A4",
            "velocity": 0.3858267716535433,
            "duration": 0.15625,
            "ticks": 314112,
            "durationTicks": 256
          },
          {
            "time": 191.875,
            "midi": 62,
            "name": "D4",
            "velocity": 0.3858267716535433,
            "duration": 0.625,
            "ticks": 314368,
            "durationTicks": 1024
          },
          {
            "time": 193.125,
            "midi": 76,
            "name": "E5",
            "velocity": 0.3858267716535433,
            "duration": 0.15625,
            "ticks": 316416,
            "durationTicks": 256
          },
          {
            "time": 193.28125,
            "midi": 81,
            "name": "A5",
            "velocity": 0.3858267716535433,
            "duration": 0.15625,
            "ticks": 316672,
            "durationTicks": 256
          },
          {
            "time": 193.4375,
            "midi": 76,
            "name": "E5",
            "velocity": 0.3858267716535433,
            "duration": 0.15625,
            "ticks": 316928,
            "durationTicks": 256
          },
          {
            "time": 193.59375,
            "midi": 73,
            "name": "C#5",
            "velocity": 0.3858267716535433,
            "duration": 0.15625,
            "ticks": 317184,
            "durationTicks": 256
          },
          {
            "time": 193.75,
            "midi": 69,
            "name": "A4",
            "velocity": 0.3858267716535433,
            "duration": 0.9375,
            "ticks": 317440,
            "durationTicks": 1536
          },
          {
            "time": 194.6875,
            "midi": 73,
            "name": "C#5",
            "velocity": 0.3858267716535433,
            "duration": 0.3125,
            "ticks": 318976,
            "durationTicks": 512
          },
          {
            "time": 195,
            "midi": 74,
            "name": "D5",
            "velocity": 0.3858267716535433,
            "duration": 0.15625,
            "ticks": 319488,
            "durationTicks": 256
          },
          {
            "time": 195.15625,
            "midi": 69,
            "name": "A4",
            "velocity": 0.3858267716535433,
            "duration": 0.15625,
            "ticks": 319744,
            "durationTicks": 256
          },
          {
            "time": 195.3125,
            "midi": 65,
            "name": "F4",
            "velocity": 0.3858267716535433,
            "duration": 0.15625,
            "ticks": 320000,
            "durationTicks": 256
          },
          {
            "time": 195.46875,
            "midi": 69,
            "name": "A4",
            "velocity": 0.3858267716535433,
            "duration": 0.15625,
            "ticks": 320256,
            "durationTicks": 256
          },
          {
            "time": 195.625,
            "midi": 62,
            "name": "D4",
            "velocity": 0.3858267716535433,
            "duration": 0.625,
            "ticks": 320512,
            "durationTicks": 1024
          },
          {
            "time": 196.875,
            "midi": 73,
            "name": "C#5",
            "velocity": 0.3858267716535433,
            "duration": 0.15625,
            "ticks": 322560,
            "durationTicks": 256
          },
          {
            "time": 197.03125,
            "midi": 69,
            "name": "A4",
            "velocity": 0.3858267716535433,
            "duration": 0.15625,
            "ticks": 322816,
            "durationTicks": 256
          },
          {
            "time": 197.1875,
            "midi": 64,
            "name": "E4",
            "velocity": 0.3858267716535433,
            "duration": 0.15625,
            "ticks": 323072,
            "durationTicks": 256
          },
          {
            "time": 197.34375,
            "midi": 69,
            "name": "A4",
            "velocity": 0.3858267716535433,
            "duration": 0.15625,
            "ticks": 323328,
            "durationTicks": 256
          },
          {
            "time": 197.5,
            "midi": 61,
            "name": "C#4",
            "velocity": 0.3858267716535433,
            "duration": 0.625,
            "ticks": 323584,
            "durationTicks": 1024
          },
          {
            "time": 198.75,
            "midi": 74,
            "name": "D5",
            "velocity": 0.3858267716535433,
            "duration": 0.15625,
            "ticks": 325632,
            "durationTicks": 256
          },
          {
            "time": 198.90625,
            "midi": 69,
            "name": "A4",
            "velocity": 0.3858267716535433,
            "duration": 0.15625,
            "ticks": 325888,
            "durationTicks": 256
          },
          {
            "time": 199.0625,
            "midi": 65,
            "name": "F4",
            "velocity": 0.3858267716535433,
            "duration": 0.15625,
            "ticks": 326144,
            "durationTicks": 256
          },
          {
            "time": 199.21875,
            "midi": 69,
            "name": "A4",
            "velocity": 0.3858267716535433,
            "duration": 0.15625,
            "ticks": 326400,
            "durationTicks": 256
          },
          {
            "time": 199.375,
            "midi": 62,
            "name": "D4",
            "velocity": 0.3858267716535433,
            "duration": 0.625,
            "ticks": 326656,
            "durationTicks": 1024
          },
          {
            "time": 200.625,
            "midi": 76,
            "name": "E5",
            "velocity": 0.3858267716535433,
            "duration": 0.15625,
            "ticks": 328704,
            "durationTicks": 256
          },
          {
            "time": 200.78125,
            "midi": 72,
            "name": "C5",
            "velocity": 0.3858267716535433,
            "duration": 0.15625,
            "ticks": 328960,
            "durationTicks": 256
          },
          {
            "time": 200.9375,
            "midi": 67,
            "name": "G4",
            "velocity": 0.3858267716535433,
            "duration": 0.15625,
            "ticks": 329216,
            "durationTicks": 256
          },
          {
            "time": 201.09375,
            "midi": 72,
            "name": "C5",
            "velocity": 0.3858267716535433,
            "duration": 0.15625,
            "ticks": 329472,
            "durationTicks": 256
          },
          {
            "time": 201.25,
            "midi": 76,
            "name": "E5",
            "velocity": 0.3858267716535433,
            "duration": 0.625,
            "ticks": 329728,
            "durationTicks": 1024
          },
          {
            "time": 202.5,
            "midi": 77,
            "name": "F5",
            "velocity": 0.3858267716535433,
            "duration": 0.15625,
            "ticks": 331776,
            "durationTicks": 256
          },
          {
            "time": 202.65625,
            "midi": 72,
            "name": "C5",
            "velocity": 0.3858267716535433,
            "duration": 0.15625,
            "ticks": 332032,
            "durationTicks": 256
          },
          {
            "time": 202.8125,
            "midi": 69,
            "name": "A4",
            "velocity": 0.3858267716535433,
            "duration": 0.15625,
            "ticks": 332288,
            "durationTicks": 256
          },
          {
            "time": 202.96875,
            "midi": 72,
            "name": "C5",
            "velocity": 0.3858267716535433,
            "duration": 0.15625,
            "ticks": 332544,
            "durationTicks": 256
          },
          {
            "time": 203.125,
            "midi": 65,
            "name": "F4",
            "velocity": 0.3858267716535433,
            "duration": 0.625,
            "ticks": 332800,
            "durationTicks": 1024
          },
          {
            "time": 204.375,
            "midi": 76,
            "name": "E5",
            "velocity": 0.3858267716535433,
            "duration": 0.15625,
            "ticks": 334848,
            "durationTicks": 256
          },
          {
            "time": 204.53125,
            "midi": 72,
            "name": "C5",
            "velocity": 0.3858267716535433,
            "duration": 0.15625,
            "ticks": 335104,
            "durationTicks": 256
          },
          {
            "time": 204.6875,
            "midi": 67,
            "name": "G4",
            "velocity": 0.3858267716535433,
            "duration": 0.15625,
            "ticks": 335360,
            "durationTicks": 256
          },
          {
            "time": 204.84375,
            "midi": 72,
            "name": "C5",
            "velocity": 0.3858267716535433,
            "duration": 0.15625,
            "ticks": 335616,
            "durationTicks": 256
          },
          {
            "time": 205,
            "midi": 64,
            "name": "E4",
            "velocity": 0.3858267716535433,
            "duration": 0.625,
            "ticks": 335872,
            "durationTicks": 1024
          },
          {
            "time": 205.9375,
            "midi": 76,
            "name": "E5",
            "velocity": 0.3858267716535433,
            "duration": 0.3125,
            "ticks": 337408,
            "durationTicks": 512
          },
          {
            "time": 206.25,
            "midi": 69,
            "name": "A4",
            "velocity": 0.3858267716535433,
            "duration": 0.3125,
            "ticks": 337920,
            "durationTicks": 512
          },
          {
            "time": 206.5625,
            "midi": 70,
            "name": "A#4",
            "velocity": 0.3858267716535433,
            "duration": 0.3125,
            "ticks": 338432,
            "durationTicks": 512
          },
          {
            "time": 206.875,
            "midi": 64,
            "name": "E4",
            "velocity": 0.3858267716535433,
            "duration": 0.3125,
            "ticks": 338944,
            "durationTicks": 512
          },
          {
            "time": 207.1875,
            "midi": 69,
            "name": "A4",
            "velocity": 0.3858267716535433,
            "duration": 0.625,
            "ticks": 339456,
            "durationTicks": 1024
          },
          {
            "time": 207.8125,
            "midi": 67,
            "name": "G4",
            "velocity": 0.3858267716535433,
            "duration": 0.3125,
            "ticks": 340480,
            "durationTicks": 512
          },
          {
            "time": 208.125,
            "midi": 65,
            "name": "F4",
            "velocity": 0.3858267716535433,
            "duration": 1.875,
            "ticks": 340992,
            "durationTicks": 3072
          },
          {
            "time": 210,
            "midi": 65,
            "name": "F4",
            "velocity": 0.3858267716535433,
            "duration": 0.625,
            "ticks": 344064,
            "durationTicks": 1024
          },
          {
            "time": 210.9375,
            "midi": 65,
            "name": "F4",
            "velocity": 0.3858267716535433,
            "duration": 0.3125,
            "ticks": 345600,
            "durationTicks": 512
          },
          {
            "time": 211.25,
            "midi": 77,
            "name": "F5",
            "velocity": 0.3858267716535433,
            "duration": 0.3125,
            "ticks": 346112,
            "durationTicks": 512
          },
          {
            "time": 211.5625,
            "midi": 65,
            "name": "F4",
            "velocity": 0.3858267716535433,
            "duration": 0.3125,
            "ticks": 346624,
            "durationTicks": 512
          },
          {
            "time": 211.875,
            "midi": 64,
            "name": "E4",
            "velocity": 0.3858267716535433,
            "duration": 0.625,
            "ticks": 347136,
            "durationTicks": 1024
          },
          {
            "time": 212.8125,
            "midi": 64,
            "name": "E4",
            "velocity": 0.3858267716535433,
            "duration": 0.3125,
            "ticks": 348672,
            "durationTicks": 512
          },
          {
            "time": 213.125,
            "midi": 76,
            "name": "E5",
            "velocity": 0.3858267716535433,
            "duration": 0.3125,
            "ticks": 349184,
            "durationTicks": 512
          },
          {
            "time": 213.4375,
            "midi": 64,
            "name": "E4",
            "velocity": 0.3858267716535433,
            "duration": 0.3125,
            "ticks": 349696,
            "durationTicks": 512
          },
          {
            "time": 213.75,
            "midi": 65,
            "name": "F4",
            "velocity": 0.3858267716535433,
            "duration": 0.625,
            "ticks": 350208,
            "durationTicks": 1024
          },
          {
            "time": 214.6875,
            "midi": 65,
            "name": "F4",
            "velocity": 0.3858267716535433,
            "duration": 0.3125,
            "ticks": 351744,
            "durationTicks": 512
          },
          {
            "time": 215,
            "midi": 77,
            "name": "F5",
            "velocity": 0.3858267716535433,
            "duration": 0.3125,
            "ticks": 352256,
            "durationTicks": 512
          },
          {
            "time": 215.3125,
            "midi": 65,
            "name": "F4",
            "velocity": 0.3858267716535433,
            "duration": 0.3125,
            "ticks": 352768,
            "durationTicks": 512
          },
          {
            "time": 215.625,
            "midi": 67,
            "name": "G4",
            "velocity": 0.3858267716535433,
            "duration": 0.625,
            "ticks": 353280,
            "durationTicks": 1024
          },
          {
            "time": 216.5625,
            "midi": 67,
            "name": "G4",
            "velocity": 0.3858267716535433,
            "duration": 0.3125,
            "ticks": 354816,
            "durationTicks": 512
          },
          {
            "time": 216.875,
            "midi": 79,
            "name": "G5",
            "velocity": 0.3858267716535433,
            "duration": 0.3125,
            "ticks": 355328,
            "durationTicks": 512
          },
          {
            "time": 217.1875,
            "midi": 67,
            "name": "G4",
            "velocity": 0.3858267716535433,
            "duration": 0.3125,
            "ticks": 355840,
            "durationTicks": 512
          },
          {
            "time": 217.5,
            "midi": 69,
            "name": "A4",
            "velocity": 0.3858267716535433,
            "duration": 0.625,
            "ticks": 356352,
            "durationTicks": 1024
          },
          {
            "time": 218.4375,
            "midi": 69,
            "name": "A4",
            "velocity": 0.3858267716535433,
            "duration": 0.3125,
            "ticks": 357888,
            "durationTicks": 512
          },
          {
            "time": 218.75,
            "midi": 81,
            "name": "A5",
            "velocity": 0.3858267716535433,
            "duration": 0.3125,
            "ticks": 358400,
            "durationTicks": 512
          },
          {
            "time": 219.0625,
            "midi": 69,
            "name": "A4",
            "velocity": 0.3858267716535433,
            "duration": 0.3125,
            "ticks": 358912,
            "durationTicks": 512
          },
          {
            "time": 219.375,
            "midi": 67,
            "name": "G4",
            "velocity": 0.3858267716535433,
            "duration": 0.625,
            "ticks": 359424,
            "durationTicks": 1024
          },
          {
            "time": 220.3125,
            "midi": 67,
            "name": "G4",
            "velocity": 0.3858267716535433,
            "duration": 0.3125,
            "ticks": 360960,
            "durationTicks": 512
          },
          {
            "time": 220.625,
            "midi": 79,
            "name": "G5",
            "velocity": 0.3858267716535433,
            "duration": 0.3125,
            "ticks": 361472,
            "durationTicks": 512
          },
          {
            "time": 220.9375,
            "midi": 67,
            "name": "G4",
            "velocity": 0.3858267716535433,
            "duration": 0.3125,
            "ticks": 361984,
            "durationTicks": 512
          },
          {
            "time": 221.25,
            "midi": 65,
            "name": "F4",
            "velocity": 0.3858267716535433,
            "duration": 0.625,
            "ticks": 362496,
            "durationTicks": 1024
          },
          {
            "time": 222.1875,
            "midi": 74,
            "name": "D5",
            "velocity": 0.3858267716535433,
            "duration": 0.3125,
            "ticks": 364032,
            "durationTicks": 512
          },
          {
            "time": 222.5,
            "midi": 79,
            "name": "G5",
            "velocity": 0.3858267716535433,
            "duration": 0.3125,
            "ticks": 364544,
            "durationTicks": 512
          },
          {
            "time": 222.8125,
            "midi": 77,
            "name": "F5",
            "velocity": 0.3858267716535433,
            "duration": 0.3125,
            "ticks": 365056,
            "durationTicks": 512
          },
          {
            "time": 223.125,
            "midi": 76,
            "name": "E5",
            "velocity": 0.3858267716535433,
            "duration": 0.625,
            "ticks": 365568,
            "durationTicks": 1024
          },
          {
            "time": 224.0625,
            "midi": 64,
            "name": "E4",
            "velocity": 0.3858267716535433,
            "duration": 0.3125,
            "ticks": 367104,
            "durationTicks": 512
          },
          {
            "time": 224.375,
            "midi": 76,
            "name": "E5",
            "velocity": 0.3858267716535433,
            "duration": 0.3125,
            "ticks": 367616,
            "durationTicks": 512
          },
          {
            "time": 224.6875,
            "midi": 64,
            "name": "E4",
            "velocity": 0.3858267716535433,
            "duration": 0.3125,
            "ticks": 368128,
            "durationTicks": 512
          },
          {
            "time": 225,
            "midi": 65,
            "name": "F4",
            "velocity": 0.3858267716535433,
            "duration": 0.625,
            "ticks": 368640,
            "durationTicks": 1024
          },
          {
            "time": 225.9375,
            "midi": 65,
            "name": "F4",
            "velocity": 0.3858267716535433,
            "duration": 0.3125,
            "ticks": 370176,
            "durationTicks": 512
          },
          {
            "time": 226.25,
            "midi": 77,
            "name": "F5",
            "velocity": 0.3858267716535433,
            "duration": 0.3125,
            "ticks": 370688,
            "durationTicks": 512
          },
          {
            "time": 226.5625,
            "midi": 65,
            "name": "F4",
            "velocity": 0.3858267716535433,
            "duration": 0.3125,
            "ticks": 371200,
            "durationTicks": 512
          },
          {
            "time": 226.875,
            "midi": 64,
            "name": "E4",
            "velocity": 0.3858267716535433,
            "duration": 0.625,
            "ticks": 371712,
            "durationTicks": 1024
          },
          {
            "time": 227.8125,
            "midi": 64,
            "name": "E4",
            "velocity": 0.3858267716535433,
            "duration": 0.3125,
            "ticks": 373248,
            "durationTicks": 512
          },
          {
            "time": 228.125,
            "midi": 76,
            "name": "E5",
            "velocity": 0.3858267716535433,
            "duration": 0.3125,
            "ticks": 373760,
            "durationTicks": 512
          },
          {
            "time": 228.4375,
            "midi": 64,
            "name": "E4",
            "velocity": 0.3858267716535433,
            "duration": 0.3125,
            "ticks": 374272,
            "durationTicks": 512
          },
          {
            "time": 228.75,
            "midi": 65,
            "name": "F4",
            "velocity": 0.3858267716535433,
            "duration": 0.625,
            "ticks": 374784,
            "durationTicks": 1024
          },
          {
            "time": 229.6875,
            "midi": 65,
            "name": "F4",
            "velocity": 0.3858267716535433,
            "duration": 0.3125,
            "ticks": 376320,
            "durationTicks": 512
          },
          {
            "time": 230,
            "midi": 77,
            "name": "F5",
            "velocity": 0.3858267716535433,
            "duration": 0.3125,
            "ticks": 376832,
            "durationTicks": 512
          },
          {
            "time": 230.3125,
            "midi": 65,
            "name": "F4",
            "velocity": 0.3858267716535433,
            "duration": 0.3125,
            "ticks": 377344,
            "durationTicks": 512
          },
          {
            "time": 230.625,
            "midi": 67,
            "name": "G4",
            "velocity": 0.3858267716535433,
            "duration": 0.625,
            "ticks": 377856,
            "durationTicks": 1024
          },
          {
            "time": 231.5625,
            "midi": 67,
            "name": "G4",
            "velocity": 0.3858267716535433,
            "duration": 0.3125,
            "ticks": 379392,
            "durationTicks": 512
          },
          {
            "time": 231.875,
            "midi": 79,
            "name": "G5",
            "velocity": 0.3858267716535433,
            "duration": 0.3125,
            "ticks": 379904,
            "durationTicks": 512
          },
          {
            "time": 232.1875,
            "midi": 67,
            "name": "G4",
            "velocity": 0.3858267716535433,
            "duration": 0.3125,
            "ticks": 380416,
            "durationTicks": 512
          },
          {
            "time": 232.5,
            "midi": 69,
            "name": "A4",
            "velocity": 0.3858267716535433,
            "duration": 0.625,
            "ticks": 380928,
            "durationTicks": 1024
          },
          {
            "time": 233.4375,
            "midi": 69,
            "name": "A4",
            "velocity": 0.3858267716535433,
            "duration": 0.3125,
            "ticks": 382464,
            "durationTicks": 512
          },
          {
            "time": 233.75,
            "midi": 81,
            "name": "A5",
            "velocity": 0.3858267716535433,
            "duration": 0.3125,
            "ticks": 382976,
            "durationTicks": 512
          },
          {
            "time": 234.0625,
            "midi": 69,
            "name": "A4",
            "velocity": 0.3858267716535433,
            "duration": 0.3125,
            "ticks": 383488,
            "durationTicks": 512
          },
          {
            "time": 234.375,
            "midi": 67,
            "name": "G4",
            "velocity": 0.3858267716535433,
            "duration": 0.625,
            "ticks": 384000,
            "durationTicks": 1024
          },
          {
            "time": 235.3125,
            "midi": 67,
            "name": "G4",
            "velocity": 0.3858267716535433,
            "duration": 0.3125,
            "ticks": 385536,
            "durationTicks": 512
          },
          {
            "time": 235.625,
            "midi": 76,
            "name": "E5",
            "velocity": 0.3858267716535433,
            "duration": 0.625,
            "ticks": 386048,
            "durationTicks": 1024
          },
          {
            "time": 236.25,
            "midi": 69,
            "name": "A4",
            "velocity": 0.3858267716535433,
            "duration": 0.3125,
            "ticks": 387072,
            "durationTicks": 512
          },
          {
            "time": 236.5625,
            "midi": 65,
            "name": "F4",
            "velocity": 0.3858267716535433,
            "duration": 0.3125,
            "ticks": 387584,
            "durationTicks": 512
          },
          {
            "time": 236.875,
            "midi": 64,
            "name": "E4",
            "velocity": 0.3858267716535433,
            "duration": 0.3125,
            "ticks": 388096,
            "durationTicks": 512
          },
          {
            "time": 237.1875,
            "midi": 69,
            "name": "A4",
            "velocity": 0.3858267716535433,
            "duration": 0.3125,
            "ticks": 388608,
            "durationTicks": 512
          },
          {
            "time": 237.5,
            "midi": 67,
            "name": "G4",
            "velocity": 0.3858267716535433,
            "duration": 0.625,
            "ticks": 389120,
            "durationTicks": 1024
          },
          {
            "time": 238.125,
            "midi": 65,
            "name": "F4",
            "velocity": 0.3858267716535433,
            "duration": 1.875,
            "ticks": 390144,
            "durationTicks": 3072
          },
          {
            "time": 241.875,
            "midi": 69,
            "name": "A4",
            "velocity": 0.3858267716535433,
            "duration": 0.625,
            "ticks": 396288,
            "durationTicks": 1024
          },
          {
            "time": 242.5,
            "midi": 79,
            "name": "G5",
            "velocity": 0.3858267716535433,
            "duration": 1.875,
            "ticks": 397312,
            "durationTicks": 3072
          },
          {
            "time": 244.375,
            "midi": 77,
            "name": "F5",
            "velocity": 0.3858267716535433,
            "duration": 0.3125,
            "ticks": 400384,
            "durationTicks": 512
          },
          {
            "time": 244.6875,
            "midi": 76,
            "name": "E5",
            "velocity": 0.3858267716535433,
            "duration": 0.3125,
            "ticks": 400896,
            "durationTicks": 512
          },
          {
            "time": 245,
            "midi": 77,
            "name": "F5",
            "velocity": 0.3858267716535433,
            "duration": 1.25,
            "ticks": 401408,
            "durationTicks": 2048
          },
          {
            "time": 246.25,
            "midi": 76,
            "name": "E5",
            "velocity": 0.3858267716535433,
            "duration": 0.3125,
            "ticks": 403456,
            "durationTicks": 512
          },
          {
            "time": 246.5625,
            "midi": 74,
            "name": "D5",
            "velocity": 0.3858267716535433,
            "duration": 0.3125,
            "ticks": 403968,
            "durationTicks": 512
          },
          {
            "time": 246.875,
            "midi": 76,
            "name": "E5",
            "velocity": 0.3858267716535433,
            "duration": 0.625,
            "ticks": 404480,
            "durationTicks": 1024
          },
          {
            "time": 247.5,
            "midi": 77,
            "name": "F5",
            "velocity": 0.3858267716535433,
            "duration": 0.625,
            "ticks": 405504,
            "durationTicks": 1024
          },
          {
            "time": 248.125,
            "midi": 72,
            "name": "C5",
            "velocity": 0.3858267716535433,
            "duration": 0.625,
            "ticks": 406528,
            "durationTicks": 1024
          },
          {
            "time": 248.75,
            "midi": 77,
            "name": "F5",
            "velocity": 0.3858267716535433,
            "duration": 1.25,
            "ticks": 407552,
            "durationTicks": 2048
          },
          {
            "time": 250,
            "midi": 76,
            "name": "E5",
            "velocity": 0.3858267716535433,
            "duration": 0.3125,
            "ticks": 409600,
            "durationTicks": 512
          },
          {
            "time": 250.3125,
            "midi": 74,
            "name": "D5",
            "velocity": 0.3858267716535433,
            "duration": 0.3125,
            "ticks": 410112,
            "durationTicks": 512
          },
          {
            "time": 250.625,
            "midi": 76,
            "name": "E5",
            "velocity": 0.3858267716535433,
            "duration": 0.625,
            "ticks": 410624,
            "durationTicks": 1024
          },
          {
            "time": 251.25,
            "midi": 69,
            "name": "A4",
            "velocity": 0.3858267716535433,
            "duration": 0.625,
            "ticks": 411648,
            "durationTicks": 1024
          },
          {
            "time": 251.875,
            "midi": 74,
            "name": "D5",
            "velocity": 0.3858267716535433,
            "duration": 0.3125,
            "ticks": 412672,
            "durationTicks": 512
          },
          {
            "time": 252.1875,
            "midi": 73,
            "name": "C#5",
            "velocity": 0.3858267716535433,
            "duration": 0.3125,
            "ticks": 413184,
            "durationTicks": 512
          },
          {
            "time": 252.5,
            "midi": 74,
            "name": "D5",
            "velocity": 0.3858267716535433,
            "duration": 0.3125,
            "ticks": 413696,
            "durationTicks": 512
          },
          {
            "time": 252.8125,
            "midi": 76,
            "name": "E5",
            "velocity": 0.3858267716535433,
            "duration": 0.3125,
            "ticks": 414208,
            "durationTicks": 512
          },
          {
            "time": 253.125,
            "midi": 73,
            "name": "C#5",
            "velocity": 0.3858267716535433,
            "duration": 0.625,
            "ticks": 414720,
            "durationTicks": 1024
          },
          {
            "time": 253.75,
            "midi": 69,
            "name": "A4",
            "velocity": 0.3858267716535433,
            "duration": 0.625,
            "ticks": 415744,
            "durationTicks": 1024
          },
          {
            "time": 254.375,
            "midi": 73,
            "name": "C#5",
            "velocity": 0.3858267716535433,
            "duration": 0.625,
            "ticks": 416768,
            "durationTicks": 1024
          },
          {
            "time": 255,
            "midi": 74,
            "name": "D5",
            "velocity": 0.3858267716535433,
            "duration": 2.5,
            "ticks": 417792,
            "durationTicks": 4096
          },
          {
            "time": 257.5,
            "midi": 73,
            "name": "C#5",
            "velocity": 0.3858267716535433,
            "duration": 0.3125,
            "ticks": 421888,
            "durationTicks": 512
          },
          {
            "time": 257.8125,
            "midi": 71,
            "name": "B4",
            "velocity": 0.3858267716535433,
            "duration": 0.3125,
            "ticks": 422400,
            "durationTicks": 512
          },
          {
            "time": 258.125,
            "midi": 73,
            "name": "C#5",
            "velocity": 0.3858267716535433,
            "duration": 0.625,
            "ticks": 422912,
            "durationTicks": 1024
          },
          {
            "time": 258.75,
            "midi": 74,
            "name": "D5",
            "velocity": 0.3858267716535433,
            "duration": 0.625,
            "ticks": 423936,
            "durationTicks": 1024
          },
          {
            "time": 259.375,
            "midi": 69,
            "name": "A4",
            "velocity": 0.3858267716535433,
            "duration": 0.625,
            "ticks": 424960,
            "durationTicks": 1024
          },
          {
            "time": 260,
            "midi": 81,
            "name": "A5",
            "velocity": 0.3858267716535433,
            "duration": 0.3125,
            "ticks": 425984,
            "durationTicks": 512
          },
          {
            "time": 260.3125,
            "midi": 83,
            "name": "B5",
            "velocity": 0.3858267716535433,
            "duration": 0.3125,
            "ticks": 426496,
            "durationTicks": 512
          },
          {
            "time": 260.625,
            "midi": 84,
            "name": "C6",
            "velocity": 0.3858267716535433,
            "duration": 0.625,
            "ticks": 427008,
            "durationTicks": 1024
          },
          {
            "time": 261.25,
            "midi": 72,
            "name": "C5",
            "velocity": 0.3858267716535433,
            "duration": 0.625,
            "ticks": 428032,
            "durationTicks": 1024
          },
          {
            "time": 261.875,
            "midi": 82,
            "name": "A#5",
            "velocity": 0.3858267716535433,
            "duration": 1.25,
            "ticks": 429056,
            "durationTicks": 2048
          },
          {
            "time": 263.125,
            "midi": 81,
            "name": "A5",
            "velocity": 0.3858267716535433,
            "duration": 0.3125,
            "ticks": 431104,
            "durationTicks": 512
          },
          {
            "time": 263.4375,
            "midi": 79,
            "name": "G5",
            "velocity": 0.3858267716535433,
            "duration": 0.3125,
            "ticks": 431616,
            "durationTicks": 512
          },
          {
            "time": 263.75,
            "midi": 81,
            "name": "A5",
            "velocity": 0.3858267716535433,
            "duration": 0.625,
            "ticks": 432128,
            "durationTicks": 1024
          },
          {
            "time": 264.375,
            "midi": 79,
            "name": "G5",
            "velocity": 0.3858267716535433,
            "duration": 1.25,
            "ticks": 433152,
            "durationTicks": 2048
          },
          {
            "time": 265.625,
            "midi": 77,
            "name": "F5",
            "velocity": 0.3858267716535433,
            "duration": 1.25,
            "ticks": 435200,
            "durationTicks": 2048
          },
          {
            "time": 266.875,
            "midi": 76,
            "name": "E5",
            "velocity": 0.3858267716535433,
            "duration": 1.25,
            "ticks": 437248,
            "durationTicks": 2048
          },
          {
            "time": 268.125,
            "midi": 74,
            "name": "D5",
            "velocity": 0.3858267716535433,
            "duration": 1.875,
            "ticks": 439296,
            "durationTicks": 3072
          },
          {
            "time": 270,
            "midi": 65,
            "name": "F4",
            "velocity": 0.3858267716535433,
            "duration": 0.625,
            "ticks": 442368,
            "durationTicks": 1024
          },
          {
            "time": 271.25,
            "midi": 65,
            "name": "F4",
            "velocity": 0.3858267716535433,
            "duration": 0.625,
            "ticks": 444416,
            "durationTicks": 1024
          },
          {
            "time": 271.875,
            "midi": 64,
            "name": "E4",
            "velocity": 0.3858267716535433,
            "duration": 0.625,
            "ticks": 445440,
            "durationTicks": 1024
          },
          {
            "time": 273.125,
            "midi": 64,
            "name": "E4",
            "velocity": 0.3858267716535433,
            "duration": 0.625,
            "ticks": 447488,
            "durationTicks": 1024
          },
          {
            "time": 273.75,
            "midi": 65,
            "name": "F4",
            "velocity": 0.3858267716535433,
            "duration": 0.625,
            "ticks": 448512,
            "durationTicks": 1024
          },
          {
            "time": 275,
            "midi": 65,
            "name": "F4",
            "velocity": 0.3858267716535433,
            "duration": 0.625,
            "ticks": 450560,
            "durationTicks": 1024
          },
          {
            "time": 275.625,
            "midi": 67,
            "name": "G4",
            "velocity": 0.3858267716535433,
            "duration": 0.625,
            "ticks": 451584,
            "durationTicks": 1024
          },
          {
            "time": 276.875,
            "midi": 67,
            "name": "G4",
            "velocity": 0.3858267716535433,
            "duration": 0.625,
            "ticks": 453632,
            "durationTicks": 1024
          },
          {
            "time": 277.5,
            "midi": 69,
            "name": "A4",
            "velocity": 0.3858267716535433,
            "duration": 0.625,
            "ticks": 454656,
            "durationTicks": 1024
          },
          {
            "time": 278.75,
            "midi": 69,
            "name": "A4",
            "velocity": 0.3858267716535433,
            "duration": 0.625,
            "ticks": 456704,
            "durationTicks": 1024
          },
          {
            "time": 279.375,
            "midi": 67,
            "name": "G4",
            "velocity": 0.3858267716535433,
            "duration": 0.625,
            "ticks": 457728,
            "durationTicks": 1024
          },
          {
            "time": 280.625,
            "midi": 67,
            "name": "G4",
            "velocity": 0.3858267716535433,
            "duration": 0.625,
            "ticks": 459776,
            "durationTicks": 1024
          },
          {
            "time": 281.25,
            "midi": 65,
            "name": "F4",
            "velocity": 0.3858267716535433,
            "duration": 0.625,
            "ticks": 460800,
            "durationTicks": 1024
          },
          {
            "time": 282.5,
            "midi": 65,
            "name": "F4",
            "velocity": 0.3858267716535433,
            "duration": 0.625,
            "ticks": 462848,
            "durationTicks": 1024
          },
          {
            "time": 283.125,
            "midi": 64,
            "name": "E4",
            "velocity": 0.3858267716535433,
            "duration": 1.875,
            "ticks": 463872,
            "durationTicks": 3072
          },
          {
            "time": 285,
            "midi": 65,
            "name": "F4",
            "velocity": 0.3858267716535433,
            "duration": 0.625,
            "ticks": 466944,
            "durationTicks": 1024
          },
          {
            "time": 286.25,
            "midi": 65,
            "name": "F4",
            "velocity": 0.3858267716535433,
            "duration": 0.625,
            "ticks": 468992,
            "durationTicks": 1024
          },
          {
            "time": 286.875,
            "midi": 64,
            "name": "E4",
            "velocity": 0.3858267716535433,
            "duration": 0.625,
            "ticks": 470016,
            "durationTicks": 1024
          },
          {
            "time": 288.125,
            "midi": 64,
            "name": "E4",
            "velocity": 0.3858267716535433,
            "duration": 0.625,
            "ticks": 472064,
            "durationTicks": 1024
          },
          {
            "time": 288.75,
            "midi": 65,
            "name": "F4",
            "velocity": 0.3858267716535433,
            "duration": 0.625,
            "ticks": 473088,
            "durationTicks": 1024
          },
          {
            "time": 290,
            "midi": 65,
            "name": "F4",
            "velocity": 0.3858267716535433,
            "duration": 0.625,
            "ticks": 475136,
            "durationTicks": 1024
          },
          {
            "time": 290.625,
            "midi": 67,
            "name": "G4",
            "velocity": 0.3858267716535433,
            "duration": 0.625,
            "ticks": 476160,
            "durationTicks": 1024
          },
          {
            "time": 291.875,
            "midi": 67,
            "name": "G4",
            "velocity": 0.3858267716535433,
            "duration": 0.625,
            "ticks": 478208,
            "durationTicks": 1024
          },
          {
            "time": 292.5,
            "midi": 69,
            "name": "A4",
            "velocity": 0.3858267716535433,
            "duration": 0.625,
            "ticks": 479232,
            "durationTicks": 1024
          },
          {
            "time": 293.75,
            "midi": 69,
            "name": "A4",
            "velocity": 0.3858267716535433,
            "duration": 0.625,
            "ticks": 481280,
            "durationTicks": 1024
          },
          {
            "time": 294.375,
            "midi": 67,
            "name": "G4",
            "velocity": 0.3858267716535433,
            "duration": 0.3125,
            "ticks": 482304,
            "durationTicks": 512
          },
          {
            "time": 294.6875,
            "midi": 69,
            "name": "A4",
            "velocity": 0.3858267716535433,
            "duration": 0.3125,
            "ticks": 482816,
            "durationTicks": 512
          },
          {
            "time": 295,
            "midi": 70,
            "name": "A#4",
            "velocity": 0.3858267716535433,
            "duration": 0.9375,
            "ticks": 483328,
            "durationTicks": 1536
          },
          {
            "time": 295.9375,
            "midi": 70,
            "name": "A#4",
            "velocity": 0.3858267716535433,
            "duration": 0.3125,
            "ticks": 484864,
            "durationTicks": 512
          },
          {
            "time": 296.25,
            "midi": 69,
            "name": "A4",
            "velocity": 0.3858267716535433,
            "duration": 0.3125,
            "ticks": 485376,
            "durationTicks": 512
          },
          {
            "time": 296.5625,
            "midi": 67,
            "name": "G4",
            "velocity": 0.3858267716535433,
            "duration": 0.15625,
            "ticks": 485888,
            "durationTicks": 256
          },
          {
            "time": 296.71875,
            "midi": 65,
            "name": "F4",
            "velocity": 0.3858267716535433,
            "duration": 0.15625,
            "ticks": 486144,
            "durationTicks": 256
          },
          {
            "time": 296.875,
            "midi": 64,
            "name": "E4",
            "velocity": 0.3858267716535433,
            "duration": 0.9375,
            "ticks": 486400,
            "durationTicks": 1536
          },
          {
            "time": 297.8125,
            "midi": 62,
            "name": "D4",
            "velocity": 0.3858267716535433,
            "duration": 0.3125,
            "ticks": 487936,
            "durationTicks": 512
          },
          {
            "time": 298.125,
            "midi": 62,
            "name": "D4",
            "velocity": 0.3858267716535433,
            "duration": 1.875,
            "ticks": 488448,
            "durationTicks": 3072
          },
          {
            "time": 300.78125,
            "midi": 81,
            "name": "A5",
            "velocity": 0.3858267716535433,
            "duration": 0.15625,
            "ticks": 492800,
            "durationTicks": 256
          },
          {
            "time": 300.9375,
            "midi": 77,
            "name": "F5",
            "velocity": 0.3858267716535433,
            "duration": 0.15625,
            "ticks": 493056,
            "durationTicks": 256
          },
          {
            "time": 301.09375,
            "midi": 81,
            "name": "A5",
            "velocity": 0.3858267716535433,
            "duration": 0.15625,
            "ticks": 493312,
            "durationTicks": 256
          },
          {
            "time": 301.25,
            "midi": 74,
            "name": "D5",
            "velocity": 0.3858267716535433,
            "duration": 0.625,
            "ticks": 493568,
            "durationTicks": 1024
          },
          {
            "time": 302.03125,
            "midi": 81,
            "name": "A5",
            "velocity": 0.3858267716535433,
            "duration": 0.15625,
            "ticks": 494848,
            "durationTicks": 256
          },
          {
            "time": 302.1875,
            "midi": 76,
            "name": "E5",
            "velocity": 0.3858267716535433,
            "duration": 0.15625,
            "ticks": 495104,
            "durationTicks": 256
          },
          {
            "time": 302.34375,
            "midi": 81,
            "name": "A5",
            "velocity": 0.3858267716535433,
            "duration": 0.15625,
            "ticks": 495360,
            "durationTicks": 256
          },
          {
            "time": 302.5,
            "midi": 73,
            "name": "C#5",
            "velocity": 0.3858267716535433,
            "duration": 0.625,
            "ticks": 495616,
            "durationTicks": 1024
          },
          {
            "time": 303.28125,
            "midi": 81,
            "name": "A5",
            "velocity": 0.3858267716535433,
            "duration": 0.15625,
            "ticks": 496896,
            "durationTicks": 256
          },
          {
            "time": 303.4375,
            "midi": 76,
            "name": "E5",
            "velocity": 0.3858267716535433,
            "duration": 0.15625,
            "ticks": 497152,
            "durationTicks": 256
          },
          {
            "time": 303.59375,
            "midi": 81,
            "name": "A5",
            "velocity": 0.3858267716535433,
            "duration": 0.15625,
            "ticks": 497408,
            "durationTicks": 256
          },
          {
            "time": 303.75,
            "midi": 77,
            "name": "F5",
            "velocity": 0.3858267716535433,
            "duration": 0.625,
            "ticks": 497664,
            "durationTicks": 1024
          },
          {
            "time": 304.53125,
            "midi": 81,
            "name": "A5",
            "velocity": 0.3858267716535433,
            "duration": 0.15625,
            "ticks": 498944,
            "durationTicks": 256
          },
          {
            "time": 304.6875,
            "midi": 77,
            "name": "F5",
            "velocity": 0.3858267716535433,
            "duration": 0.15625,
            "ticks": 499200,
            "durationTicks": 256
          },
          {
            "time": 304.84375,
            "midi": 81,
            "name": "A5",
            "velocity": 0.3858267716535433,
            "duration": 0.15625,
            "ticks": 499456,
            "durationTicks": 256
          },
          {
            "time": 305,
            "midi": 74,
            "name": "D5",
            "velocity": 0.3858267716535433,
            "duration": 0.625,
            "ticks": 499712,
            "durationTicks": 1024
          },
          {
            "time": 305.78125,
            "midi": 84,
            "name": "C6",
            "velocity": 0.3858267716535433,
            "duration": 0.15625,
            "ticks": 500992,
            "durationTicks": 256
          },
          {
            "time": 305.9375,
            "midi": 79,
            "name": "G5",
            "velocity": 0.3858267716535433,
            "duration": 0.15625,
            "ticks": 501248,
            "durationTicks": 256
          },
          {
            "time": 306.09375,
            "midi": 84,
            "name": "C6",
            "velocity": 0.3858267716535433,
            "duration": 0.15625,
            "ticks": 501504,
            "durationTicks": 256
          },
          {
            "time": 306.25,
            "midi": 76,
            "name": "E5",
            "velocity": 0.3858267716535433,
            "duration": 0.625,
            "ticks": 501760,
            "durationTicks": 1024
          },
          {
            "time": 307.03125,
            "midi": 84,
            "name": "C6",
            "velocity": 0.3858267716535433,
            "duration": 0.15625,
            "ticks": 503040,
            "durationTicks": 256
          },
          {
            "time": 307.1875,
            "midi": 79,
            "name": "G5",
            "velocity": 0.3858267716535433,
            "duration": 0.15625,
            "ticks": 503296,
            "durationTicks": 256
          },
          {
            "time": 307.34375,
            "midi": 84,
            "name": "C6",
            "velocity": 0.3858267716535433,
            "duration": 0.15625,
            "ticks": 503552,
            "durationTicks": 256
          },
          {
            "time": 307.5,
            "midi": 81,
            "name": "A5",
            "velocity": 0.3858267716535433,
            "duration": 0.625,
            "ticks": 503808,
            "durationTicks": 1024
          },
          {
            "time": 308.28125,
            "midi": 84,
            "name": "C6",
            "velocity": 0.3858267716535433,
            "duration": 0.15625,
            "ticks": 505088,
            "durationTicks": 256
          },
          {
            "time": 308.4375,
            "midi": 81,
            "name": "A5",
            "velocity": 0.3858267716535433,
            "duration": 0.15625,
            "ticks": 505344,
            "durationTicks": 256
          },
          {
            "time": 308.59375,
            "midi": 84,
            "name": "C6",
            "velocity": 0.3858267716535433,
            "duration": 0.15625,
            "ticks": 505600,
            "durationTicks": 256
          },
          {
            "time": 308.75,
            "midi": 77,
            "name": "F5",
            "velocity": 0.3858267716535433,
            "duration": 0.625,
            "ticks": 505856,
            "durationTicks": 1024
          },
          {
            "time": 309.53125,
            "midi": 84,
            "name": "C6",
            "velocity": 0.3858267716535433,
            "duration": 0.15625,
            "ticks": 507136,
            "durationTicks": 256
          },
          {
            "time": 309.6875,
            "midi": 79,
            "name": "G5",
            "velocity": 0.3858267716535433,
            "duration": 0.15625,
            "ticks": 507392,
            "durationTicks": 256
          },
          {
            "time": 309.84375,
            "midi": 84,
            "name": "C6",
            "velocity": 0.3858267716535433,
            "duration": 0.15625,
            "ticks": 507648,
            "durationTicks": 256
          },
          {
            "time": 310,
            "midi": 76,
            "name": "E5",
            "velocity": 0.3858267716535433,
            "duration": 0.625,
            "ticks": 507904,
            "durationTicks": 1024
          },
          {
            "time": 310.78125,
            "midi": 79,
            "name": "G5",
            "velocity": 0.3858267716535433,
            "duration": 0.15625,
            "ticks": 509184,
            "durationTicks": 256
          },
          {
            "time": 310.9375,
            "midi": 76,
            "name": "E5",
            "velocity": 0.3858267716535433,
            "duration": 0.15625,
            "ticks": 509440,
            "durationTicks": 256
          },
          {
            "time": 311.09375,
            "midi": 79,
            "name": "G5",
            "velocity": 0.3858267716535433,
            "duration": 0.15625,
            "ticks": 509696,
            "durationTicks": 256
          },
          {
            "time": 311.25,
            "midi": 77,
            "name": "F5",
            "velocity": 0.3858267716535433,
            "duration": 0.625,
            "ticks": 509952,
            "durationTicks": 1024
          },
          {
            "time": 312.03125,
            "midi": 77,
            "name": "F5",
            "velocity": 0.3858267716535433,
            "duration": 0.15625,
            "ticks": 511232,
            "durationTicks": 256
          },
          {
            "time": 312.1875,
            "midi": 74,
            "name": "D5",
            "velocity": 0.3858267716535433,
            "duration": 0.15625,
            "ticks": 511488,
            "durationTicks": 256
          },
          {
            "time": 312.34375,
            "midi": 77,
            "name": "F5",
            "velocity": 0.3858267716535433,
            "duration": 0.15625,
            "ticks": 511744,
            "durationTicks": 256
          },
          {
            "time": 312.5,
            "midi": 70,
            "name": "A#4",
            "velocity": 0.3858267716535433,
            "duration": 0.15625,
            "ticks": 512000,
            "durationTicks": 256
          },
          {
            "time": 312.65625,
            "midi": 77,
            "name": "F5",
            "velocity": 0.3858267716535433,
            "duration": 0.15625,
            "ticks": 512256,
            "durationTicks": 256
          },
          {
            "time": 312.8125,
            "midi": 74,
            "name": "D5",
            "velocity": 0.3858267716535433,
            "duration": 0.15625,
            "ticks": 512512,
            "durationTicks": 256
          },
          {
            "time": 312.96875,
            "midi": 77,
            "name": "F5",
            "velocity": 0.3858267716535433,
            "duration": 0.15625,
            "ticks": 512768,
            "durationTicks": 256
          },
          {
            "time": 313.125,
            "midi": 76,
            "name": "E5",
            "velocity": 0.3858267716535433,
            "duration": 0.15625,
            "ticks": 513024,
            "durationTicks": 256
          },
          {
            "time": 313.28125,
            "midi": 81,
            "name": "A5",
            "velocity": 0.3858267716535433,
            "duration": 0.15625,
            "ticks": 513280,
            "durationTicks": 256
          },
          {
            "time": 313.4375,
            "midi": 76,
            "name": "E5",
            "velocity": 0.3858267716535433,
            "duration": 0.15625,
            "ticks": 513536,
            "durationTicks": 256
          },
          {
            "time": 313.59375,
            "midi": 81,
            "name": "A5",
            "velocity": 0.3858267716535433,
            "duration": 0.15625,
            "ticks": 513792,
            "durationTicks": 256
          },
          {
            "time": 313.75,
            "midi": 73,
            "name": "C#5",
            "velocity": 0.3858267716535433,
            "duration": 0.625,
            "ticks": 514048,
            "durationTicks": 1024
          },
          {
            "time": 314.53125,
            "midi": 81,
            "name": "A5",
            "velocity": 0.3858267716535433,
            "duration": 0.15625,
            "ticks": 515328,
            "durationTicks": 256
          },
          {
            "time": 314.6875,
            "midi": 76,
            "name": "E5",
            "velocity": 0.3858267716535433,
            "duration": 0.15625,
            "ticks": 515584,
            "durationTicks": 256
          },
          {
            "time": 314.84375,
            "midi": 81,
            "name": "A5",
            "velocity": 0.3858267716535433,
            "duration": 0.15625,
            "ticks": 515840,
            "durationTicks": 256
          },
          {
            "time": 315,
            "midi": 77,
            "name": "F5",
            "velocity": 0.3858267716535433,
            "duration": 0.625,
            "ticks": 516096,
            "durationTicks": 1024
          },
          {
            "time": 315.78125,
            "midi": 81,
            "name": "A5",
            "velocity": 0.3858267716535433,
            "duration": 0.15625,
            "ticks": 517376,
            "durationTicks": 256
          },
          {
            "time": 315.9375,
            "midi": 77,
            "name": "F5",
            "velocity": 0.3858267716535433,
            "duration": 0.15625,
            "ticks": 517632,
            "durationTicks": 256
          },
          {
            "time": 316.09375,
            "midi": 81,
            "name": "A5",
            "velocity": 0.3858267716535433,
            "duration": 0.15625,
            "ticks": 517888,
            "durationTicks": 256
          },
          {
            "time": 316.25,
            "midi": 74,
            "name": "D5",
            "velocity": 0.3858267716535433,
            "duration": 0.625,
            "ticks": 518144,
            "durationTicks": 1024
          },
          {
            "time": 317.03125,
            "midi": 81,
            "name": "A5",
            "velocity": 0.3858267716535433,
            "duration": 0.15625,
            "ticks": 519424,
            "durationTicks": 256
          },
          {
            "time": 317.1875,
            "midi": 76,
            "name": "E5",
            "velocity": 0.3858267716535433,
            "duration": 0.15625,
            "ticks": 519680,
            "durationTicks": 256
          },
          {
            "time": 317.34375,
            "midi": 81,
            "name": "A5",
            "velocity": 0.3858267716535433,
            "duration": 0.15625,
            "ticks": 519936,
            "durationTicks": 256
          },
          {
            "time": 317.5,
            "midi": 73,
            "name": "C#5",
            "velocity": 0.3858267716535433,
            "duration": 0.625,
            "ticks": 520192,
            "durationTicks": 1024
          },
          {
            "time": 318.28125,
            "midi": 81,
            "name": "A5",
            "velocity": 0.3858267716535433,
            "duration": 0.15625,
            "ticks": 521472,
            "durationTicks": 256
          },
          {
            "time": 318.4375,
            "midi": 76,
            "name": "E5",
            "velocity": 0.3858267716535433,
            "duration": 0.15625,
            "ticks": 521728,
            "durationTicks": 256
          },
          {
            "time": 318.59375,
            "midi": 81,
            "name": "A5",
            "velocity": 0.3858267716535433,
            "duration": 0.15625,
            "ticks": 521984,
            "durationTicks": 256
          },
          {
            "time": 318.75,
            "midi": 77,
            "name": "F5",
            "velocity": 0.3858267716535433,
            "duration": 0.625,
            "ticks": 522240,
            "durationTicks": 1024
          },
          {
            "time": 319.53125,
            "midi": 81,
            "name": "A5",
            "velocity": 0.3858267716535433,
            "duration": 0.15625,
            "ticks": 523520,
            "durationTicks": 256
          },
          {
            "time": 319.6875,
            "midi": 77,
            "name": "F5",
            "velocity": 0.3858267716535433,
            "duration": 0.15625,
            "ticks": 523776,
            "durationTicks": 256
          },
          {
            "time": 319.84375,
            "midi": 81,
            "name": "A5",
            "velocity": 0.3858267716535433,
            "duration": 0.15625,
            "ticks": 524032,
            "durationTicks": 256
          },
          {
            "time": 320,
            "midi": 74,
            "name": "D5",
            "velocity": 0.3858267716535433,
            "duration": 0.625,
            "ticks": 524288,
            "durationTicks": 1024
          },
          {
            "time": 320.78125,
            "midi": 84,
            "name": "C6",
            "velocity": 0.3858267716535433,
            "duration": 0.15625,
            "ticks": 525568,
            "durationTicks": 256
          },
          {
            "time": 320.9375,
            "midi": 79,
            "name": "G5",
            "velocity": 0.3858267716535433,
            "duration": 0.15625,
            "ticks": 525824,
            "durationTicks": 256
          },
          {
            "time": 321.09375,
            "midi": 84,
            "name": "C6",
            "velocity": 0.3858267716535433,
            "duration": 0.15625,
            "ticks": 526080,
            "durationTicks": 256
          },
          {
            "time": 321.25,
            "midi": 76,
            "name": "E5",
            "velocity": 0.3858267716535433,
            "duration": 0.625,
            "ticks": 526336,
            "durationTicks": 1024
          },
          {
            "time": 322.03125,
            "midi": 84,
            "name": "C6",
            "velocity": 0.3858267716535433,
            "duration": 0.15625,
            "ticks": 527616,
            "durationTicks": 256
          },
          {
            "time": 322.1875,
            "midi": 79,
            "name": "G5",
            "velocity": 0.3858267716535433,
            "duration": 0.15625,
            "ticks": 527872,
            "durationTicks": 256
          },
          {
            "time": 322.34375,
            "midi": 84,
            "name": "C6",
            "velocity": 0.3858267716535433,
            "duration": 0.15625,
            "ticks": 528128,
            "durationTicks": 256
          },
          {
            "time": 322.5,
            "midi": 81,
            "name": "A5",
            "velocity": 0.3858267716535433,
            "duration": 0.625,
            "ticks": 528384,
            "durationTicks": 1024
          },
          {
            "time": 323.28125,
            "midi": 84,
            "name": "C6",
            "velocity": 0.3858267716535433,
            "duration": 0.15625,
            "ticks": 529664,
            "durationTicks": 256
          },
          {
            "time": 323.4375,
            "midi": 81,
            "name": "A5",
            "velocity": 0.3858267716535433,
            "duration": 0.15625,
            "ticks": 529920,
            "durationTicks": 256
          },
          {
            "time": 323.59375,
            "midi": 84,
            "name": "C6",
            "velocity": 0.3858267716535433,
            "duration": 0.15625,
            "ticks": 530176,
            "durationTicks": 256
          },
          {
            "time": 323.75,
            "midi": 77,
            "name": "F5",
            "velocity": 0.3858267716535433,
            "duration": 0.625,
            "ticks": 530432,
            "durationTicks": 1024
          },
          {
            "time": 324.53125,
            "midi": 84,
            "name": "C6",
            "velocity": 0.3858267716535433,
            "duration": 0.15625,
            "ticks": 531712,
            "durationTicks": 256
          },
          {
            "time": 324.6875,
            "midi": 81,
            "name": "A5",
            "velocity": 0.3858267716535433,
            "duration": 0.15625,
            "ticks": 531968,
            "durationTicks": 256
          },
          {
            "time": 324.84375,
            "midi": 84,
            "name": "C6",
            "velocity": 0.3858267716535433,
            "duration": 0.15625,
            "ticks": 532224,
            "durationTicks": 256
          },
          {
            "time": 325,
            "midi": 76,
            "name": "E5",
            "velocity": 0.3858267716535433,
            "duration": 0.625,
            "ticks": 532480,
            "durationTicks": 1024
          },
          {
            "time": 325.78125,
            "midi": 79,
            "name": "G5",
            "velocity": 0.3858267716535433,
            "duration": 0.15625,
            "ticks": 533760,
            "durationTicks": 256
          },
          {
            "time": 325.9375,
            "midi": 76,
            "name": "E5",
            "velocity": 0.3858267716535433,
            "duration": 0.15625,
            "ticks": 534016,
            "durationTicks": 256
          },
          {
            "time": 326.09375,
            "midi": 79,
            "name": "G5",
            "velocity": 0.3858267716535433,
            "duration": 0.15625,
            "ticks": 534272,
            "durationTicks": 256
          },
          {
            "time": 326.25,
            "midi": 77,
            "name": "F5",
            "velocity": 0.3858267716535433,
            "duration": 0.15625,
            "ticks": 534528,
            "durationTicks": 256
          },
          {
            "time": 326.40625,
            "midi": 74,
            "name": "D5",
            "velocity": 0.3858267716535433,
            "duration": 0.15625,
            "ticks": 534784,
            "durationTicks": 256
          },
          {
            "time": 326.5625,
            "midi": 69,
            "name": "A4",
            "velocity": 0.3858267716535433,
            "duration": 0.15625,
            "ticks": 535040,
            "durationTicks": 256
          },
          {
            "time": 326.71875,
            "midi": 74,
            "name": "D5",
            "velocity": 0.3858267716535433,
            "duration": 0.15625,
            "ticks": 535296,
            "durationTicks": 256
          },
          {
            "time": 326.875,
            "midi": 64,
            "name": "E4",
            "velocity": 0.3858267716535433,
            "duration": 0.15625,
            "ticks": 535552,
            "durationTicks": 256
          },
          {
            "time": 327.03125,
            "midi": 74,
            "name": "D5",
            "velocity": 0.3858267716535433,
            "duration": 0.15625,
            "ticks": 535808,
            "durationTicks": 256
          },
          {
            "time": 327.1875,
            "midi": 69,
            "name": "A4",
            "velocity": 0.3858267716535433,
            "duration": 0.15625,
            "ticks": 536064,
            "durationTicks": 256
          },
          {
            "time": 327.34375,
            "midi": 74,
            "name": "D5",
            "velocity": 0.3858267716535433,
            "duration": 0.15625,
            "ticks": 536320,
            "durationTicks": 256
          },
          {
            "time": 327.5,
            "midi": 64,
            "name": "E4",
            "velocity": 0.3858267716535433,
            "duration": 0.15625,
            "ticks": 536576,
            "durationTicks": 256
          },
          {
            "time": 327.65625,
            "midi": 73,
            "name": "C#5",
            "velocity": 0.3858267716535433,
            "duration": 0.15625,
            "ticks": 536832,
            "durationTicks": 256
          },
          {
            "time": 327.8125,
            "midi": 69,
            "name": "A4",
            "velocity": 0.3858267716535433,
            "duration": 0.15625,
            "ticks": 537088,
            "durationTicks": 256
          },
          {
            "time": 327.96875,
            "midi": 73,
            "name": "C#5",
            "velocity": 0.3858267716535433,
            "duration": 0.15625,
            "ticks": 537344,
            "durationTicks": 256
          },
          {
            "time": 328.125,
            "midi": 74,
            "name": "D5",
            "velocity": 0.3858267716535433,
            "duration": 1.875,
            "ticks": 537600,
            "durationTicks": 3072
          },
          {
            "time": 330,
            "midi": 65,
            "name": "F4",
            "velocity": 0.3858267716535433,
            "duration": 1.25,
            "ticks": 540672,
            "durationTicks": 2048
          },
          {
            "time": 331.25,
            "midi": 70,
            "name": "A#4",
            "velocity": 0.3858267716535433,
            "duration": 0.625,
            "ticks": 542720,
            "durationTicks": 1024
          },
          {
            "time": 331.875,
            "midi": 64,
            "name": "E4",
            "velocity": 0.3858267716535433,
            "duration": 1.25,
            "ticks": 543744,
            "durationTicks": 2048
          },
          {
            "time": 333.125,
            "midi": 64,
            "name": "E4",
            "velocity": 0.3858267716535433,
            "duration": 0.625,
            "ticks": 545792,
            "durationTicks": 1024
          },
          {
            "time": 333.75,
            "midi": 65,
            "name": "F4",
            "velocity": 0.3858267716535433,
            "duration": 1.25,
            "ticks": 546816,
            "durationTicks": 2048
          },
          {
            "time": 335,
            "midi": 65,
            "name": "F4",
            "velocity": 0.3858267716535433,
            "duration": 0.625,
            "ticks": 548864,
            "durationTicks": 1024
          },
          {
            "time": 335.625,
            "midi": 67,
            "name": "G4",
            "velocity": 0.3858267716535433,
            "duration": 1.25,
            "ticks": 549888,
            "durationTicks": 2048
          },
          {
            "time": 336.875,
            "midi": 67,
            "name": "G4",
            "velocity": 0.3858267716535433,
            "duration": 0.625,
            "ticks": 551936,
            "durationTicks": 1024
          },
          {
            "time": 337.5,
            "midi": 69,
            "name": "A4",
            "velocity": 0.3858267716535433,
            "duration": 0.625,
            "ticks": 552960,
            "durationTicks": 1024
          },
          {
            "time": 338.125,
            "midi": 70,
            "name": "A#4",
            "velocity": 0.3858267716535433,
            "duration": 0.9375,
            "ticks": 553984,
            "durationTicks": 1536
          },
          {
            "time": 339.0625,
            "midi": 69,
            "name": "A4",
            "velocity": 0.3858267716535433,
            "duration": 0.3125,
            "ticks": 555520,
            "durationTicks": 512
          },
          {
            "time": 339.375,
            "midi": 67,
            "name": "G4",
            "velocity": 0.3858267716535433,
            "duration": 0.625,
            "ticks": 556032,
            "durationTicks": 1024
          },
          {
            "time": 340,
            "midi": 69,
            "name": "A4",
            "velocity": 0.3858267716535433,
            "duration": 0.9375,
            "ticks": 557056,
            "durationTicks": 1536
          },
          {
            "time": 340.9375,
            "midi": 67,
            "name": "G4",
            "velocity": 0.3858267716535433,
            "duration": 0.3125,
            "ticks": 558592,
            "durationTicks": 512
          },
          {
            "time": 341.25,
            "midi": 65,
            "name": "F4",
            "velocity": 0.3858267716535433,
            "duration": 0.625,
            "ticks": 559104,
            "durationTicks": 1024
          },
          {
            "time": 341.875,
            "midi": 67,
            "name": "G4",
            "velocity": 0.3858267716535433,
            "duration": 0.9375,
            "ticks": 560128,
            "durationTicks": 1536
          },
          {
            "time": 342.8125,
            "midi": 65,
            "name": "F4",
            "velocity": 0.3858267716535433,
            "duration": 0.3125,
            "ticks": 561664,
            "durationTicks": 512
          },
          {
            "time": 343.125,
            "midi": 64,
            "name": "E4",
            "velocity": 0.3858267716535433,
            "duration": 1.875,
            "ticks": 562176,
            "durationTicks": 3072
          },
          {
            "time": 345,
            "midi": 65,
            "name": "F4",
            "velocity": 0.3858267716535433,
            "duration": 1.25,
            "ticks": 565248,
            "durationTicks": 2048
          },
          {
            "time": 346.25,
            "midi": 70,
            "name": "A#4",
            "velocity": 0.3858267716535433,
            "duration": 0.625,
            "ticks": 567296,
            "durationTicks": 1024
          },
          {
            "time": 346.875,
            "midi": 64,
            "name": "E4",
            "velocity": 0.3858267716535433,
            "duration": 1.25,
            "ticks": 568320,
            "durationTicks": 2048
          },
          {
            "time": 348.125,
            "midi": 64,
            "name": "E4",
            "velocity": 0.3858267716535433,
            "duration": 0.625,
            "ticks": 570368,
            "durationTicks": 1024
          },
          {
            "time": 348.75,
            "midi": 65,
            "name": "F4",
            "velocity": 0.3858267716535433,
            "duration": 1.25,
            "ticks": 571392,
            "durationTicks": 2048
          },
          {
            "time": 350,
            "midi": 65,
            "name": "F4",
            "velocity": 0.3858267716535433,
            "duration": 0.625,
            "ticks": 573440,
            "durationTicks": 1024
          },
          {
            "time": 350.625,
            "midi": 67,
            "name": "G4",
            "velocity": 0.3858267716535433,
            "duration": 1.25,
            "ticks": 574464,
            "durationTicks": 2048
          },
          {
            "time": 351.875,
            "midi": 67,
            "name": "G4",
            "velocity": 0.3858267716535433,
            "duration": 0.625,
            "ticks": 576512,
            "durationTicks": 1024
          },
          {
            "time": 352.5,
            "midi": 65,
            "name": "F4",
            "velocity": 0.3858267716535433,
            "duration": 0.625,
            "ticks": 577536,
            "durationTicks": 1024
          },
          {
            "time": 353.125,
            "midi": 70,
            "name": "A#4",
            "velocity": 0.3858267716535433,
            "duration": 0.625,
            "ticks": 578560,
            "durationTicks": 1024
          },
          {
            "time": 353.75,
            "midi": 67,
            "name": "G4",
            "velocity": 0.3858267716535433,
            "duration": 0.625,
            "ticks": 579584,
            "durationTicks": 1024
          },
          {
            "time": 354.375,
            "midi": 64,
            "name": "E4",
            "velocity": 0.3858267716535433,
            "duration": 0.625,
            "ticks": 580608,
            "durationTicks": 1024
          },
          {
            "time": 355,
            "midi": 76,
            "name": "E5",
            "velocity": 0.3858267716535433,
            "duration": 0.625,
            "ticks": 581632,
            "durationTicks": 1024
          },
          {
            "time": 355.625,
            "midi": 69,
            "name": "A4",
            "velocity": 0.3858267716535433,
            "duration": 0.625,
            "ticks": 582656,
            "durationTicks": 1024
          },
          {
            "time": 356.25,
            "midi": 77,
            "name": "F5",
            "velocity": 0.3858267716535433,
            "duration": 0.3125,
            "ticks": 583680,
            "durationTicks": 512
          },
          {
            "time": 356.5625,
            "midi": 74,
            "name": "D5",
            "velocity": 0.3858267716535433,
            "duration": 0.3125,
            "ticks": 584192,
            "durationTicks": 512
          },
          {
            "time": 356.875,
            "midi": 73,
            "name": "C#5",
            "velocity": 0.3858267716535433,
            "duration": 0.9375,
            "ticks": 584704,
            "durationTicks": 1536
          },
          {
            "time": 357.8125,
            "midi": 74,
            "name": "D5",
            "velocity": 0.3858267716535433,
            "duration": 0.3125,
            "ticks": 586240,
            "durationTicks": 512
          },
          {
            "time": 358.125,
            "midi": 74,
            "name": "D5",
            "velocity": 0.3858267716535433,
            "duration": 1.875,
            "ticks": 586752,
            "durationTicks": 3072
          },
          {
            "time": 360,
            "midi": 74,
            "name": "D5",
            "velocity": 0.3858267716535433,
            "duration": 0.3125,
            "ticks": 589824,
            "durationTicks": 512
          },
          {
            "time": 360.3125,
            "midi": 73,
            "name": "C#5",
            "velocity": 0.3858267716535433,
            "duration": 0.3125,
            "ticks": 590336,
            "durationTicks": 512
          },
          {
            "time": 360.625,
            "midi": 74,
            "name": "D5",
            "velocity": 0.3858267716535433,
            "duration": 0.3125,
            "ticks": 590848,
            "durationTicks": 512
          },
          {
            "time": 360.9375,
            "midi": 74,
            "name": "D5",
            "velocity": 0.3858267716535433,
            "duration": 0.3125,
            "ticks": 591360,
            "durationTicks": 512
          },
          {
            "time": 361.25,
            "midi": 73,
            "name": "C#5",
            "velocity": 0.3858267716535433,
            "duration": 0.3125,
            "ticks": 591872,
            "durationTicks": 512
          },
          {
            "time": 361.5625,
            "midi": 74,
            "name": "D5",
            "velocity": 0.3858267716535433,
            "duration": 0.3125,
            "ticks": 592384,
            "durationTicks": 512
          },
          {
            "time": 361.875,
            "midi": 74,
            "name": "D5",
            "velocity": 0.3858267716535433,
            "duration": 0.3125,
            "ticks": 592896,
            "durationTicks": 512
          },
          {
            "time": 362.1875,
            "midi": 76,
            "name": "E5",
            "velocity": 0.3858267716535433,
            "duration": 0.3125,
            "ticks": 593408,
            "durationTicks": 512
          },
          {
            "time": 362.5,
            "midi": 74,
            "name": "D5",
            "velocity": 0.3858267716535433,
            "duration": 0.3125,
            "ticks": 593920,
            "durationTicks": 512
          },
          {
            "time": 362.8125,
            "midi": 73,
            "name": "C#5",
            "velocity": 0.3858267716535433,
            "duration": 0.3125,
            "ticks": 594432,
            "durationTicks": 512
          },
          {
            "time": 363.125,
            "midi": 71,
            "name": "B4",
            "velocity": 0.3858267716535433,
            "duration": 0.3125,
            "ticks": 594944,
            "durationTicks": 512
          },
          {
            "time": 363.4375,
            "midi": 73,
            "name": "C#5",
            "velocity": 0.3858267716535433,
            "duration": 0.3125,
            "ticks": 595456,
            "durationTicks": 512
          },
          {
            "time": 363.75,
            "midi": 73,
            "name": "C#5",
            "velocity": 0.3858267716535433,
            "duration": 0.3125,
            "ticks": 595968,
            "durationTicks": 512
          },
          {
            "time": 364.0625,
            "midi": 71,
            "name": "B4",
            "velocity": 0.3858267716535433,
            "duration": 0.3125,
            "ticks": 596480,
            "durationTicks": 512
          },
          {
            "time": 364.375,
            "midi": 73,
            "name": "C#5",
            "velocity": 0.3858267716535433,
            "duration": 0.3125,
            "ticks": 596992,
            "durationTicks": 512
          },
          {
            "time": 364.6875,
            "midi": 73,
            "name": "C#5",
            "velocity": 0.3858267716535433,
            "duration": 0.3125,
            "ticks": 597504,
            "durationTicks": 512
          },
          {
            "time": 365,
            "midi": 71,
            "name": "B4",
            "velocity": 0.3858267716535433,
            "duration": 0.3125,
            "ticks": 598016,
            "durationTicks": 512
          },
          {
            "time": 365.3125,
            "midi": 73,
            "name": "C#5",
            "velocity": 0.3858267716535433,
            "duration": 0.3125,
            "ticks": 598528,
            "durationTicks": 512
          },
          {
            "time": 365.625,
            "midi": 74,
            "name": "D5",
            "velocity": 0.3858267716535433,
            "duration": 0.3125,
            "ticks": 599040,
            "durationTicks": 512
          },
          {
            "time": 365.9375,
            "midi": 73,
            "name": "C#5",
            "velocity": 0.3858267716535433,
            "duration": 0.3125,
            "ticks": 599552,
            "durationTicks": 512
          },
          {
            "time": 366.25,
            "midi": 74,
            "name": "D5",
            "velocity": 0.3858267716535433,
            "duration": 0.3125,
            "ticks": 600064,
            "durationTicks": 512
          },
          {
            "time": 366.5625,
            "midi": 74,
            "name": "D5",
            "velocity": 0.3858267716535433,
            "duration": 0.3125,
            "ticks": 600576,
            "durationTicks": 512
          },
          {
            "time": 366.875,
            "midi": 73,
            "name": "C#5",
            "velocity": 0.3858267716535433,
            "duration": 0.3125,
            "ticks": 601088,
            "durationTicks": 512
          },
          {
            "time": 367.1875,
            "midi": 74,
            "name": "D5",
            "velocity": 0.3858267716535433,
            "duration": 0.3125,
            "ticks": 601600,
            "durationTicks": 512
          },
          {
            "time": 367.5,
            "midi": 74,
            "name": "D5",
            "velocity": 0.3858267716535433,
            "duration": 0.3125,
            "ticks": 602112,
            "durationTicks": 512
          },
          {
            "time": 367.8125,
            "midi": 76,
            "name": "E5",
            "velocity": 0.3858267716535433,
            "duration": 0.3125,
            "ticks": 602624,
            "durationTicks": 512
          },
          {
            "time": 368.125,
            "midi": 74,
            "name": "D5",
            "velocity": 0.3858267716535433,
            "duration": 0.3125,
            "ticks": 603136,
            "durationTicks": 512
          },
          {
            "time": 368.4375,
            "midi": 74,
            "name": "D5",
            "velocity": 0.3858267716535433,
            "duration": 0.3125,
            "ticks": 603648,
            "durationTicks": 512
          },
          {
            "time": 368.75,
            "midi": 73,
            "name": "C#5",
            "velocity": 0.3858267716535433,
            "duration": 0.3125,
            "ticks": 604160,
            "durationTicks": 512
          },
          {
            "time": 369.0625,
            "midi": 74,
            "name": "D5",
            "velocity": 0.3858267716535433,
            "duration": 0.3125,
            "ticks": 604672,
            "durationTicks": 512
          },
          {
            "time": 369.375,
            "midi": 74,
            "name": "D5",
            "velocity": 0.3858267716535433,
            "duration": 0.3125,
            "ticks": 605184,
            "durationTicks": 512
          },
          {
            "time": 369.6875,
            "midi": 73,
            "name": "C#5",
            "velocity": 0.3858267716535433,
            "duration": 0.3125,
            "ticks": 605696,
            "durationTicks": 512
          },
          {
            "time": 370,
            "midi": 74,
            "name": "D5",
            "velocity": 0.3858267716535433,
            "duration": 0.3125,
            "ticks": 606208,
            "durationTicks": 512
          },
          {
            "time": 370.3125,
            "midi": 74,
            "name": "D5",
            "velocity": 0.3858267716535433,
            "duration": 0.3125,
            "ticks": 606720,
            "durationTicks": 512
          },
          {
            "time": 370.625,
            "midi": 76,
            "name": "E5",
            "velocity": 0.3858267716535433,
            "duration": 0.3125,
            "ticks": 607232,
            "durationTicks": 512
          },
          {
            "time": 370.9375,
            "midi": 74,
            "name": "D5",
            "velocity": 0.3858267716535433,
            "duration": 0.3125,
            "ticks": 607744,
            "durationTicks": 512
          },
          {
            "time": 371.25,
            "midi": 77,
            "name": "F5",
            "velocity": 0.3858267716535433,
            "duration": 0.3125,
            "ticks": 608256,
            "durationTicks": 512
          },
          {
            "time": 371.5625,
            "midi": 76,
            "name": "E5",
            "velocity": 0.3858267716535433,
            "duration": 0.3125,
            "ticks": 608768,
            "durationTicks": 512
          },
          {
            "time": 371.875,
            "midi": 77,
            "name": "F5",
            "velocity": 0.3858267716535433,
            "duration": 0.3125,
            "ticks": 609280,
            "durationTicks": 512
          },
          {
            "time": 372.1875,
            "midi": 77,
            "name": "F5",
            "velocity": 0.3858267716535433,
            "duration": 0.3125,
            "ticks": 609792,
            "durationTicks": 512
          },
          {
            "time": 372.5,
            "midi": 76,
            "name": "E5",
            "velocity": 0.3858267716535433,
            "duration": 0.3125,
            "ticks": 610304,
            "durationTicks": 512
          },
          {
            "time": 372.8125,
            "midi": 77,
            "name": "F5",
            "velocity": 0.3858267716535433,
            "duration": 0.3125,
            "ticks": 610816,
            "durationTicks": 512
          },
          {
            "time": 373.125,
            "midi": 77,
            "name": "F5",
            "velocity": 0.3858267716535433,
            "duration": 0.3125,
            "ticks": 611328,
            "durationTicks": 512
          },
          {
            "time": 373.4375,
            "midi": 79,
            "name": "G5",
            "velocity": 0.3858267716535433,
            "duration": 0.3125,
            "ticks": 611840,
            "durationTicks": 512
          },
          {
            "time": 373.75,
            "midi": 77,
            "name": "F5",
            "velocity": 0.3858267716535433,
            "duration": 0.3125,
            "ticks": 612352,
            "durationTicks": 512
          },
          {
            "time": 374.0625,
            "midi": 76,
            "name": "E5",
            "velocity": 0.3858267716535433,
            "duration": 0.3125,
            "ticks": 612864,
            "durationTicks": 512
          },
          {
            "time": 374.375,
            "midi": 74,
            "name": "D5",
            "velocity": 0.3858267716535433,
            "duration": 0.3125,
            "ticks": 613376,
            "durationTicks": 512
          },
          {
            "time": 374.6875,
            "midi": 76,
            "name": "E5",
            "velocity": 0.3858267716535433,
            "duration": 0.3125,
            "ticks": 613888,
            "durationTicks": 512
          },
          {
            "time": 375,
            "midi": 76,
            "name": "E5",
            "velocity": 0.3858267716535433,
            "duration": 0.3125,
            "ticks": 614400,
            "durationTicks": 512
          },
          {
            "time": 375.3125,
            "midi": 74,
            "name": "D5",
            "velocity": 0.3858267716535433,
            "duration": 0.3125,
            "ticks": 614912,
            "durationTicks": 512
          },
          {
            "time": 375.625,
            "midi": 76,
            "name": "E5",
            "velocity": 0.3858267716535433,
            "duration": 0.3125,
            "ticks": 615424,
            "durationTicks": 512
          },
          {
            "time": 375.9375,
            "midi": 76,
            "name": "E5",
            "velocity": 0.3858267716535433,
            "duration": 0.3125,
            "ticks": 615936,
            "durationTicks": 512
          },
          {
            "time": 376.25,
            "midi": 77,
            "name": "F5",
            "velocity": 0.3858267716535433,
            "duration": 0.3125,
            "ticks": 616448,
            "durationTicks": 512
          },
          {
            "time": 376.5625,
            "midi": 76,
            "name": "E5",
            "velocity": 0.3858267716535433,
            "duration": 0.3125,
            "ticks": 616960,
            "durationTicks": 512
          },
          {
            "time": 376.875,
            "midi": 74,
            "name": "D5",
            "velocity": 0.3858267716535433,
            "duration": 0.3125,
            "ticks": 617472,
            "durationTicks": 512
          },
          {
            "time": 377.1875,
            "midi": 73,
            "name": "C#5",
            "velocity": 0.3858267716535433,
            "duration": 0.3125,
            "ticks": 617984,
            "durationTicks": 512
          },
          {
            "time": 377.5,
            "midi": 74,
            "name": "D5",
            "velocity": 0.3858267716535433,
            "duration": 0.3125,
            "ticks": 618496,
            "durationTicks": 512
          },
          {
            "time": 377.8125,
            "midi": 74,
            "name": "D5",
            "velocity": 0.3858267716535433,
            "duration": 0.3125,
            "ticks": 619008,
            "durationTicks": 512
          },
          {
            "time": 378.125,
            "midi": 73,
            "name": "C#5",
            "velocity": 0.3858267716535433,
            "duration": 0.3125,
            "ticks": 619520,
            "durationTicks": 512
          },
          {
            "time": 378.4375,
            "midi": 74,
            "name": "D5",
            "velocity": 0.3858267716535433,
            "duration": 0.3125,
            "ticks": 620032,
            "durationTicks": 512
          },
          {
            "time": 378.75,
            "midi": 74,
            "name": "D5",
            "velocity": 0.3858267716535433,
            "duration": 0.3125,
            "ticks": 620544,
            "durationTicks": 512
          },
          {
            "time": 379.0625,
            "midi": 76,
            "name": "E5",
            "velocity": 0.3858267716535433,
            "duration": 0.3125,
            "ticks": 621056,
            "durationTicks": 512
          },
          {
            "time": 379.375,
            "midi": 74,
            "name": "D5",
            "velocity": 0.3858267716535433,
            "duration": 0.3125,
            "ticks": 621568,
            "durationTicks": 512
          },
          {
            "time": 379.6875,
            "midi": 73,
            "name": "C#5",
            "velocity": 0.3858267716535433,
            "duration": 0.3125,
            "ticks": 622080,
            "durationTicks": 512
          },
          {
            "time": 380,
            "midi": 71,
            "name": "B4",
            "velocity": 0.3858267716535433,
            "duration": 0.3125,
            "ticks": 622592,
            "durationTicks": 512
          },
          {
            "time": 380.3125,
            "midi": 73,
            "name": "C#5",
            "velocity": 0.3858267716535433,
            "duration": 0.3125,
            "ticks": 623104,
            "durationTicks": 512
          },
          {
            "time": 380.625,
            "midi": 73,
            "name": "C#5",
            "velocity": 0.3858267716535433,
            "duration": 0.3125,
            "ticks": 623616,
            "durationTicks": 512
          },
          {
            "time": 380.9375,
            "midi": 71,
            "name": "B4",
            "velocity": 0.3858267716535433,
            "duration": 0.3125,
            "ticks": 624128,
            "durationTicks": 512
          },
          {
            "time": 381.25,
            "midi": 73,
            "name": "C#5",
            "velocity": 0.3858267716535433,
            "duration": 0.3125,
            "ticks": 624640,
            "durationTicks": 512
          },
          {
            "time": 381.5625,
            "midi": 73,
            "name": "C#5",
            "velocity": 0.3858267716535433,
            "duration": 0.3125,
            "ticks": 625152,
            "durationTicks": 512
          },
          {
            "time": 381.875,
            "midi": 71,
            "name": "B4",
            "velocity": 0.3858267716535433,
            "duration": 0.3125,
            "ticks": 625664,
            "durationTicks": 512
          },
          {
            "time": 382.1875,
            "midi": 73,
            "name": "C#5",
            "velocity": 0.3858267716535433,
            "duration": 0.3125,
            "ticks": 626176,
            "durationTicks": 512
          },
          {
            "time": 382.5,
            "midi": 74,
            "name": "D5",
            "velocity": 0.3858267716535433,
            "duration": 0.3125,
            "ticks": 626688,
            "durationTicks": 512
          },
          {
            "time": 382.8125,
            "midi": 73,
            "name": "C#5",
            "velocity": 0.3858267716535433,
            "duration": 0.3125,
            "ticks": 627200,
            "durationTicks": 512
          },
          {
            "time": 383.125,
            "midi": 74,
            "name": "D5",
            "velocity": 0.3858267716535433,
            "duration": 0.3125,
            "ticks": 627712,
            "durationTicks": 512
          },
          {
            "time": 383.4375,
            "midi": 74,
            "name": "D5",
            "velocity": 0.3858267716535433,
            "duration": 0.3125,
            "ticks": 628224,
            "durationTicks": 512
          },
          {
            "time": 383.75,
            "midi": 73,
            "name": "C#5",
            "velocity": 0.3858267716535433,
            "duration": 0.3125,
            "ticks": 628736,
            "durationTicks": 512
          },
          {
            "time": 384.0625,
            "midi": 74,
            "name": "D5",
            "velocity": 0.3858267716535433,
            "duration": 0.3125,
            "ticks": 629248,
            "durationTicks": 512
          },
          {
            "time": 384.375,
            "midi": 74,
            "name": "D5",
            "velocity": 0.3858267716535433,
            "duration": 0.3125,
            "ticks": 629760,
            "durationTicks": 512
          },
          {
            "time": 384.6875,
            "midi": 76,
            "name": "E5",
            "velocity": 0.3858267716535433,
            "duration": 0.3125,
            "ticks": 630272,
            "durationTicks": 512
          },
          {
            "time": 385,
            "midi": 74,
            "name": "D5",
            "velocity": 0.3858267716535433,
            "duration": 0.3125,
            "ticks": 630784,
            "durationTicks": 512
          },
          {
            "time": 385.3125,
            "midi": 73,
            "name": "C#5",
            "velocity": 0.3858267716535433,
            "duration": 0.3125,
            "ticks": 631296,
            "durationTicks": 512
          },
          {
            "time": 385.625,
            "midi": 71,
            "name": "B4",
            "velocity": 0.3858267716535433,
            "duration": 0.3125,
            "ticks": 631808,
            "durationTicks": 512
          },
          {
            "time": 385.9375,
            "midi": 73,
            "name": "C#5",
            "velocity": 0.3858267716535433,
            "duration": 0.3125,
            "ticks": 632320,
            "durationTicks": 512
          },
          {
            "time": 386.25,
            "midi": 73,
            "name": "C#5",
            "velocity": 0.3858267716535433,
            "duration": 0.3125,
            "ticks": 632832,
            "durationTicks": 512
          },
          {
            "time": 386.5625,
            "midi": 71,
            "name": "B4",
            "velocity": 0.3858267716535433,
            "duration": 0.3125,
            "ticks": 633344,
            "durationTicks": 512
          },
          {
            "time": 386.875,
            "midi": 73,
            "name": "C#5",
            "velocity": 0.3858267716535433,
            "duration": 0.3125,
            "ticks": 633856,
            "durationTicks": 512
          },
          {
            "time": 387.1875,
            "midi": 73,
            "name": "C#5",
            "velocity": 0.3858267716535433,
            "duration": 0.3125,
            "ticks": 634368,
            "durationTicks": 512
          },
          {
            "time": 387.5,
            "midi": 71,
            "name": "B4",
            "velocity": 0.3858267716535433,
            "duration": 0.3125,
            "ticks": 634880,
            "durationTicks": 512
          },
          {
            "time": 387.8125,
            "midi": 73,
            "name": "C#5",
            "velocity": 0.3858267716535433,
            "duration": 0.3125,
            "ticks": 635392,
            "durationTicks": 512
          },
          {
            "time": 388.125,
            "midi": 74,
            "name": "D5",
            "velocity": 0.3858267716535433,
            "duration": 0.3125,
            "ticks": 635904,
            "durationTicks": 512
          },
          {
            "time": 388.4375,
            "midi": 73,
            "name": "C#5",
            "velocity": 0.3858267716535433,
            "duration": 0.3125,
            "ticks": 636416,
            "durationTicks": 512
          },
          {
            "time": 388.75,
            "midi": 74,
            "name": "D5",
            "velocity": 0.3858267716535433,
            "duration": 0.3125,
            "ticks": 636928,
            "durationTicks": 512
          },
          {
            "time": 389.0625,
            "midi": 74,
            "name": "D5",
            "velocity": 0.3858267716535433,
            "duration": 0.3125,
            "ticks": 637440,
            "durationTicks": 512
          },
          {
            "time": 389.375,
            "midi": 73,
            "name": "C#5",
            "velocity": 0.3858267716535433,
            "duration": 0.3125,
            "ticks": 637952,
            "durationTicks": 512
          },
          {
            "time": 389.6875,
            "midi": 74,
            "name": "D5",
            "velocity": 0.3858267716535433,
            "duration": 0.3125,
            "ticks": 638464,
            "durationTicks": 512
          },
          {
            "time": 390,
            "midi": 74,
            "name": "D5",
            "velocity": 0.3858267716535433,
            "duration": 0.3125,
            "ticks": 638976,
            "durationTicks": 512
          },
          {
            "time": 390.3125,
            "midi": 73,
            "name": "C#5",
            "velocity": 0.3858267716535433,
            "duration": 0.3125,
            "ticks": 639488,
            "durationTicks": 512
          },
          {
            "time": 390.625,
            "midi": 74,
            "name": "D5",
            "velocity": 0.3858267716535433,
            "duration": 0.3125,
            "ticks": 640000,
            "durationTicks": 512
          },
          {
            "time": 390.9375,
            "midi": 76,
            "name": "E5",
            "velocity": 0.3858267716535433,
            "duration": 0.3125,
            "ticks": 640512,
            "durationTicks": 512
          },
          {
            "time": 391.25,
            "midi": 74,
            "name": "D5",
            "velocity": 0.3858267716535433,
            "duration": 0.3125,
            "ticks": 641024,
            "durationTicks": 512
          },
          {
            "time": 391.5625,
            "midi": 76,
            "name": "E5",
            "velocity": 0.3858267716535433,
            "duration": 0.3125,
            "ticks": 641536,
            "durationTicks": 512
          },
          {
            "time": 391.875,
            "midi": 76,
            "name": "E5",
            "velocity": 0.3858267716535433,
            "duration": 0.3125,
            "ticks": 642048,
            "durationTicks": 512
          },
          {
            "time": 392.1875,
            "midi": 74,
            "name": "D5",
            "velocity": 0.3858267716535433,
            "duration": 0.3125,
            "ticks": 642560,
            "durationTicks": 512
          },
          {
            "time": 392.5,
            "midi": 76,
            "name": "E5",
            "velocity": 0.3858267716535433,
            "duration": 0.3125,
            "ticks": 643072,
            "durationTicks": 512
          },
          {
            "time": 392.8125,
            "midi": 76,
            "name": "E5",
            "velocity": 0.3858267716535433,
            "duration": 0.3125,
            "ticks": 643584,
            "durationTicks": 512
          },
          {
            "time": 393.125,
            "midi": 74,
            "name": "D5",
            "velocity": 0.3858267716535433,
            "duration": 0.3125,
            "ticks": 644096,
            "durationTicks": 512
          },
          {
            "time": 393.4375,
            "midi": 76,
            "name": "E5",
            "velocity": 0.3858267716535433,
            "duration": 0.3125,
            "ticks": 644608,
            "durationTicks": 512
          },
          {
            "time": 393.75,
            "midi": 77,
            "name": "F5",
            "velocity": 0.3858267716535433,
            "duration": 0.3125,
            "ticks": 645120,
            "durationTicks": 512
          },
          {
            "time": 394.0625,
            "midi": 76,
            "name": "E5",
            "velocity": 0.3858267716535433,
            "duration": 0.3125,
            "ticks": 645632,
            "durationTicks": 512
          },
          {
            "time": 394.375,
            "midi": 77,
            "name": "F5",
            "velocity": 0.3858267716535433,
            "duration": 0.3125,
            "ticks": 646144,
            "durationTicks": 512
          },
          {
            "time": 394.6875,
            "midi": 77,
            "name": "F5",
            "velocity": 0.3858267716535433,
            "duration": 0.3125,
            "ticks": 646656,
            "durationTicks": 512
          },
          {
            "time": 395,
            "midi": 76,
            "name": "E5",
            "velocity": 0.3858267716535433,
            "duration": 0.3125,
            "ticks": 647168,
            "durationTicks": 512
          },
          {
            "time": 395.3125,
            "midi": 77,
            "name": "F5",
            "velocity": 0.3858267716535433,
            "duration": 0.3125,
            "ticks": 647680,
            "durationTicks": 512
          },
          {
            "time": 395.625,
            "midi": 77,
            "name": "F5",
            "velocity": 0.3858267716535433,
            "duration": 0.3125,
            "ticks": 648192,
            "durationTicks": 512
          },
          {
            "time": 395.9375,
            "midi": 79,
            "name": "G5",
            "velocity": 0.3858267716535433,
            "duration": 0.3125,
            "ticks": 648704,
            "durationTicks": 512
          },
          {
            "time": 396.25,
            "midi": 77,
            "name": "F5",
            "velocity": 0.3858267716535433,
            "duration": 0.3125,
            "ticks": 649216,
            "durationTicks": 512
          },
          {
            "time": 396.5625,
            "midi": 76,
            "name": "E5",
            "velocity": 0.3858267716535433,
            "duration": 0.3125,
            "ticks": 649728,
            "durationTicks": 512
          },
          {
            "time": 396.875,
            "midi": 74,
            "name": "D5",
            "velocity": 0.3858267716535433,
            "duration": 0.3125,
            "ticks": 650240,
            "durationTicks": 512
          },
          {
            "time": 397.1875,
            "midi": 76,
            "name": "E5",
            "velocity": 0.3858267716535433,
            "duration": 0.3125,
            "ticks": 650752,
            "durationTicks": 512
          },
          {
            "time": 397.5,
            "midi": 76,
            "name": "E5",
            "velocity": 0.3858267716535433,
            "duration": 0.3125,
            "ticks": 651264,
            "durationTicks": 512
          },
          {
            "time": 397.8125,
            "midi": 74,
            "name": "D5",
            "velocity": 0.3858267716535433,
            "duration": 0.3125,
            "ticks": 651776,
            "durationTicks": 512
          },
          {
            "time": 398.125,
            "midi": 76,
            "name": "E5",
            "velocity": 0.3858267716535433,
            "duration": 0.3125,
            "ticks": 652288,
            "durationTicks": 512
          },
          {
            "time": 398.4375,
            "midi": 76,
            "name": "E5",
            "velocity": 0.3858267716535433,
            "duration": 0.3125,
            "ticks": 652800,
            "durationTicks": 512
          },
          {
            "time": 398.75,
            "midi": 77,
            "name": "F5",
            "velocity": 0.3858267716535433,
            "duration": 0.3125,
            "ticks": 653312,
            "durationTicks": 512
          },
          {
            "time": 399.0625,
            "midi": 76,
            "name": "E5",
            "velocity": 0.3858267716535433,
            "duration": 0.3125,
            "ticks": 653824,
            "durationTicks": 512
          },
          {
            "time": 399.375,
            "midi": 77,
            "name": "F5",
            "velocity": 0.3858267716535433,
            "duration": 0.3125,
            "ticks": 654336,
            "durationTicks": 512
          },
          {
            "time": 399.6875,
            "midi": 76,
            "name": "E5",
            "velocity": 0.3858267716535433,
            "duration": 0.3125,
            "ticks": 654848,
            "durationTicks": 512
          },
          {
            "time": 400,
            "midi": 74,
            "name": "D5",
            "velocity": 0.3858267716535433,
            "duration": 0.3125,
            "ticks": 655360,
            "durationTicks": 512
          },
          {
            "time": 400.3125,
            "midi": 73,
            "name": "C#5",
            "velocity": 0.3858267716535433,
            "duration": 1.5625,
            "ticks": 655872,
            "durationTicks": 2560
          },
          {
            "time": 401.875,
            "midi": 74,
            "name": "D5",
            "velocity": 0.3858267716535433,
            "duration": 0.3125,
            "ticks": 658432,
            "durationTicks": 512
          },
          {
            "time": 402.1875,
            "midi": 74,
            "name": "D5",
            "velocity": 0.3858267716535433,
            "duration": 2.8125,
            "ticks": 658944,
            "durationTicks": 4608
          },
          {
            "time": 405,
            "midi": 74,
            "name": "D5",
            "velocity": 0.3858267716535433,
            "duration": 0.9375,
            "ticks": 663552,
            "durationTicks": 1536
          },
          {
            "time": 407.8125,
            "midi": 73,
            "name": "C#5",
            "velocity": 0.3858267716535433,
            "duration": 0.9375,
            "ticks": 668160,
            "durationTicks": 1536
          },
          {
            "time": 410.625,
            "midi": 74,
            "name": "D5",
            "velocity": 0.3858267716535433,
            "duration": 0.9375,
            "ticks": 672768,
            "durationTicks": 1536
          },
          {
            "time": 413.4375,
            "midi": 76,
            "name": "E5",
            "velocity": 0.3858267716535433,
            "duration": 0.9375,
            "ticks": 677376,
            "durationTicks": 1536
          },
          {
            "time": 416.25,
            "midi": 77,
            "name": "F5",
            "velocity": 0.3858267716535433,
            "duration": 0.9375,
            "ticks": 681984,
            "durationTicks": 1536
          },
          {
            "time": 419.0625,
            "midi": 76,
            "name": "E5",
            "velocity": 0.3858267716535433,
            "duration": 0.9375,
            "ticks": 686592,
            "durationTicks": 1536
          },
          {
            "time": 421.875,
            "midi": 74,
            "name": "D5",
            "velocity": 0.3858267716535433,
            "duration": 0.9375,
            "ticks": 691200,
            "durationTicks": 1536
          },
          {
            "time": 424.6875,
            "midi": 73,
            "name": "C#5",
            "velocity": 0.3858267716535433,
            "duration": 0.9375,
            "ticks": 695808,
            "durationTicks": 1536
          },
          {
            "time": 427.5,
            "midi": 74,
            "name": "D5",
            "velocity": 0.3858267716535433,
            "duration": 0.9375,
            "ticks": 700416,
            "durationTicks": 1536
          },
          {
            "time": 430.3125,
            "midi": 73,
            "name": "C#5",
            "velocity": 0.3858267716535433,
            "duration": 0.9375,
            "ticks": 705024,
            "durationTicks": 1536
          },
          {
            "time": 433.125,
            "midi": 74,
            "name": "D5",
            "velocity": 0.3858267716535433,
            "duration": 0.9375,
            "ticks": 709632,
            "durationTicks": 1536
          },
          {
            "time": 435.9375,
            "midi": 76,
            "name": "E5",
            "velocity": 0.3858267716535433,
            "duration": 0.9375,
            "ticks": 714240,
            "durationTicks": 1536
          },
          {
            "time": 438.75,
            "midi": 77,
            "name": "F5",
            "velocity": 0.3858267716535433,
            "duration": 0.9375,
            "ticks": 718848,
            "durationTicks": 1536
          },
          {
            "time": 441.5625,
            "midi": 76,
            "name": "E5",
            "velocity": 0.3858267716535433,
            "duration": 0.9375,
            "ticks": 723456,
            "durationTicks": 1536
          },
          {
            "time": 444.375,
            "midi": 74,
            "name": "D5",
            "velocity": 0.3858267716535433,
            "duration": 0.9375,
            "ticks": 728064,
            "durationTicks": 1536
          },
          {
            "time": 445.3125,
            "midi": 74,
            "name": "D5",
            "velocity": 0.3858267716535433,
            "duration": 1.5625,
            "ticks": 729600,
            "durationTicks": 2560
          },
          {
            "time": 446.875,
            "midi": 73,
            "name": "C#5",
            "velocity": 0.3858267716535433,
            "duration": 0.3125,
            "ticks": 732160,
            "durationTicks": 512
          },
          {
            "time": 447.1875,
            "midi": 74,
            "name": "D5",
            "velocity": 0.3858267716535433,
            "duration": 2.8125,
            "ticks": 732672,
            "durationTicks": 4608
          },
          {
            "time": 450,
            "midi": 65,
            "name": "F4",
            "velocity": 0.3858267716535433,
            "duration": 0.625,
            "ticks": 737280,
            "durationTicks": 1024
          },
          {
            "time": 450.625,
            "midi": 65,
            "name": "F4",
            "velocity": 0.3858267716535433,
            "duration": 0.3125,
            "ticks": 738304,
            "durationTicks": 512
          },
          {
            "time": 450.9375,
            "midi": 65,
            "name": "F4",
            "velocity": 0.3858267716535433,
            "duration": 0.625,
            "ticks": 738816,
            "durationTicks": 1024
          },
          {
            "time": 451.5625,
            "midi": 65,
            "name": "F4",
            "velocity": 0.3858267716535433,
            "duration": 0.3125,
            "ticks": 739840,
            "durationTicks": 512
          },
          {
            "time": 451.875,
            "midi": 64,
            "name": "E4",
            "velocity": 0.3858267716535433,
            "duration": 0.625,
            "ticks": 740352,
            "durationTicks": 1024
          },
          {
            "time": 452.5,
            "midi": 64,
            "name": "E4",
            "velocity": 0.3858267716535433,
            "duration": 0.3125,
            "ticks": 741376,
            "durationTicks": 512
          },
          {
            "time": 452.8125,
            "midi": 64,
            "name": "E4",
            "velocity": 0.3858267716535433,
            "duration": 0.625,
            "ticks": 741888,
            "durationTicks": 1024
          },
          {
            "time": 453.4375,
            "midi": 64,
            "name": "E4",
            "velocity": 0.3858267716535433,
            "duration": 0.3125,
            "ticks": 742912,
            "durationTicks": 512
          },
          {
            "time": 453.75,
            "midi": 65,
            "name": "F4",
            "velocity": 0.3858267716535433,
            "duration": 0.625,
            "ticks": 743424,
            "durationTicks": 1024
          },
          {
            "time": 454.375,
            "midi": 65,
            "name": "F4",
            "velocity": 0.3858267716535433,
            "duration": 0.3125,
            "ticks": 744448,
            "durationTicks": 512
          },
          {
            "time": 454.6875,
            "midi": 65,
            "name": "F4",
            "velocity": 0.3858267716535433,
            "duration": 0.625,
            "ticks": 744960,
            "durationTicks": 1024
          },
          {
            "time": 455.3125,
            "midi": 65,
            "name": "F4",
            "velocity": 0.3858267716535433,
            "duration": 0.3125,
            "ticks": 745984,
            "durationTicks": 512
          },
          {
            "time": 455.625,
            "midi": 67,
            "name": "G4",
            "velocity": 0.3858267716535433,
            "duration": 0.625,
            "ticks": 746496,
            "durationTicks": 1024
          },
          {
            "time": 456.25,
            "midi": 67,
            "name": "G4",
            "velocity": 0.3858267716535433,
            "duration": 0.3125,
            "ticks": 747520,
            "durationTicks": 512
          },
          {
            "time": 456.5625,
            "midi": 67,
            "name": "G4",
            "velocity": 0.3858267716535433,
            "duration": 0.625,
            "ticks": 748032,
            "durationTicks": 1024
          },
          {
            "time": 457.1875,
            "midi": 67,
            "name": "G4",
            "velocity": 0.3858267716535433,
            "duration": 0.3125,
            "ticks": 749056,
            "durationTicks": 512
          },
          {
            "time": 457.5,
            "midi": 69,
            "name": "A4",
            "velocity": 0.3858267716535433,
            "duration": 0.625,
            "ticks": 749568,
            "durationTicks": 1024
          },
          {
            "time": 458.125,
            "midi": 69,
            "name": "A4",
            "velocity": 0.3858267716535433,
            "duration": 0.3125,
            "ticks": 750592,
            "durationTicks": 512
          },
          {
            "time": 458.4375,
            "midi": 69,
            "name": "A4",
            "velocity": 0.3858267716535433,
            "duration": 0.625,
            "ticks": 751104,
            "durationTicks": 1024
          },
          {
            "time": 459.0625,
            "midi": 69,
            "name": "A4",
            "velocity": 0.3858267716535433,
            "duration": 0.3125,
            "ticks": 752128,
            "durationTicks": 512
          },
          {
            "time": 459.375,
            "midi": 67,
            "name": "G4",
            "velocity": 0.3858267716535433,
            "duration": 0.625,
            "ticks": 752640,
            "durationTicks": 1024
          },
          {
            "time": 460,
            "midi": 67,
            "name": "G4",
            "velocity": 0.3858267716535433,
            "duration": 0.3125,
            "ticks": 753664,
            "durationTicks": 512
          },
          {
            "time": 460.3125,
            "midi": 67,
            "name": "G4",
            "velocity": 0.3858267716535433,
            "duration": 0.625,
            "ticks": 754176,
            "durationTicks": 1024
          },
          {
            "time": 460.9375,
            "midi": 67,
            "name": "G4",
            "velocity": 0.3858267716535433,
            "duration": 0.3125,
            "ticks": 755200,
            "durationTicks": 512
          },
          {
            "time": 461.25,
            "midi": 65,
            "name": "F4",
            "velocity": 0.3858267716535433,
            "duration": 0.625,
            "ticks": 755712,
            "durationTicks": 1024
          },
          {
            "time": 461.875,
            "midi": 65,
            "name": "F4",
            "velocity": 0.3858267716535433,
            "duration": 0.3125,
            "ticks": 756736,
            "durationTicks": 512
          },
          {
            "time": 462.1875,
            "midi": 65,
            "name": "F4",
            "velocity": 0.3858267716535433,
            "duration": 0.625,
            "ticks": 757248,
            "durationTicks": 1024
          },
          {
            "time": 462.8125,
            "midi": 65,
            "name": "F4",
            "velocity": 0.3858267716535433,
            "duration": 0.3125,
            "ticks": 758272,
            "durationTicks": 512
          },
          {
            "time": 463.125,
            "midi": 64,
            "name": "E4",
            "velocity": 0.3858267716535433,
            "duration": 0.625,
            "ticks": 758784,
            "durationTicks": 1024
          },
          {
            "time": 463.75,
            "midi": 64,
            "name": "E4",
            "velocity": 0.3858267716535433,
            "duration": 0.3125,
            "ticks": 759808,
            "durationTicks": 512
          },
          {
            "time": 464.0625,
            "midi": 64,
            "name": "E4",
            "velocity": 0.3858267716535433,
            "duration": 0.625,
            "ticks": 760320,
            "durationTicks": 1024
          },
          {
            "time": 464.6875,
            "midi": 64,
            "name": "E4",
            "velocity": 0.3858267716535433,
            "duration": 0.3125,
            "ticks": 761344,
            "durationTicks": 512
          },
          {
            "time": 465,
            "midi": 65,
            "name": "F4",
            "velocity": 0.3858267716535433,
            "duration": 0.625,
            "ticks": 761856,
            "durationTicks": 1024
          },
          {
            "time": 465.625,
            "midi": 65,
            "name": "F4",
            "velocity": 0.3858267716535433,
            "duration": 0.3125,
            "ticks": 762880,
            "durationTicks": 512
          },
          {
            "time": 465.9375,
            "midi": 65,
            "name": "F4",
            "velocity": 0.3858267716535433,
            "duration": 0.625,
            "ticks": 763392,
            "durationTicks": 1024
          },
          {
            "time": 466.5625,
            "midi": 65,
            "name": "F4",
            "velocity": 0.3858267716535433,
            "duration": 0.3125,
            "ticks": 764416,
            "durationTicks": 512
          },
          {
            "time": 466.875,
            "midi": 64,
            "name": "E4",
            "velocity": 0.3858267716535433,
            "duration": 0.625,
            "ticks": 764928,
            "durationTicks": 1024
          },
          {
            "time": 467.5,
            "midi": 64,
            "name": "E4",
            "velocity": 0.3858267716535433,
            "duration": 0.3125,
            "ticks": 765952,
            "durationTicks": 512
          },
          {
            "time": 467.8125,
            "midi": 64,
            "name": "E4",
            "velocity": 0.3858267716535433,
            "duration": 0.625,
            "ticks": 766464,
            "durationTicks": 1024
          },
          {
            "time": 468.4375,
            "midi": 64,
            "name": "E4",
            "velocity": 0.3858267716535433,
            "duration": 0.3125,
            "ticks": 767488,
            "durationTicks": 512
          },
          {
            "time": 468.75,
            "midi": 65,
            "name": "F4",
            "velocity": 0.3858267716535433,
            "duration": 0.625,
            "ticks": 768000,
            "durationTicks": 1024
          },
          {
            "time": 469.375,
            "midi": 65,
            "name": "F4",
            "velocity": 0.3858267716535433,
            "duration": 0.3125,
            "ticks": 769024,
            "durationTicks": 512
          },
          {
            "time": 469.6875,
            "midi": 65,
            "name": "F4",
            "velocity": 0.3858267716535433,
            "duration": 0.625,
            "ticks": 769536,
            "durationTicks": 1024
          },
          {
            "time": 470.3125,
            "midi": 65,
            "name": "F4",
            "velocity": 0.3858267716535433,
            "duration": 0.3125,
            "ticks": 770560,
            "durationTicks": 512
          },
          {
            "time": 470.625,
            "midi": 67,
            "name": "G4",
            "velocity": 0.3858267716535433,
            "duration": 0.625,
            "ticks": 771072,
            "durationTicks": 1024
          },
          {
            "time": 471.25,
            "midi": 67,
            "name": "G4",
            "velocity": 0.3858267716535433,
            "duration": 0.3125,
            "ticks": 772096,
            "durationTicks": 512
          },
          {
            "time": 471.5625,
            "midi": 67,
            "name": "G4",
            "velocity": 0.3858267716535433,
            "duration": 0.625,
            "ticks": 772608,
            "durationTicks": 1024
          },
          {
            "time": 472.1875,
            "midi": 67,
            "name": "G4",
            "velocity": 0.3858267716535433,
            "duration": 0.3125,
            "ticks": 773632,
            "durationTicks": 512
          },
          {
            "time": 472.5,
            "midi": 69,
            "name": "A4",
            "velocity": 0.3858267716535433,
            "duration": 0.625,
            "ticks": 774144,
            "durationTicks": 1024
          },
          {
            "time": 473.125,
            "midi": 69,
            "name": "A4",
            "velocity": 0.3858267716535433,
            "duration": 0.3125,
            "ticks": 775168,
            "durationTicks": 512
          },
          {
            "time": 473.4375,
            "midi": 69,
            "name": "A4",
            "velocity": 0.3858267716535433,
            "duration": 0.625,
            "ticks": 775680,
            "durationTicks": 1024
          },
          {
            "time": 474.0625,
            "midi": 69,
            "name": "A4",
            "velocity": 0.3858267716535433,
            "duration": 0.3125,
            "ticks": 776704,
            "durationTicks": 512
          },
          {
            "time": 474.375,
            "midi": 67,
            "name": "G4",
            "velocity": 0.3858267716535433,
            "duration": 0.9375,
            "ticks": 777216,
            "durationTicks": 1536
          },
          {
            "time": 475.3125,
            "midi": 79,
            "name": "G5",
            "velocity": 0.3858267716535433,
            "duration": 0.46875,
            "ticks": 778752,
            "durationTicks": 768
          },
          {
            "time": 475.78125,
            "midi": 77,
            "name": "F5",
            "velocity": 0.3858267716535433,
            "duration": 0.15625,
            "ticks": 779520,
            "durationTicks": 256
          },
          {
            "time": 475.9375,
            "midi": 76,
            "name": "E5",
            "velocity": 0.3858267716535433,
            "duration": 0.3125,
            "ticks": 779776,
            "durationTicks": 512
          },
          {
            "time": 476.25,
            "midi": 77,
            "name": "F5",
            "velocity": 0.3858267716535433,
            "duration": 0.46875,
            "ticks": 780288,
            "durationTicks": 768
          },
          {
            "time": 476.71875,
            "midi": 76,
            "name": "E5",
            "velocity": 0.3858267716535433,
            "duration": 0.15625,
            "ticks": 781056,
            "durationTicks": 256
          },
          {
            "time": 476.875,
            "midi": 74,
            "name": "D5",
            "velocity": 0.3858267716535433,
            "duration": 0.3125,
            "ticks": 781312,
            "durationTicks": 512
          },
          {
            "time": 477.1875,
            "midi": 74,
            "name": "D5",
            "velocity": 0.3858267716535433,
            "duration": 0.625,
            "ticks": 781824,
            "durationTicks": 1024
          },
          {
            "time": 477.8125,
            "midi": 73,
            "name": "C#5",
            "velocity": 0.3858267716535433,
            "duration": 0.3125,
            "ticks": 782848,
            "durationTicks": 512
          },
          {
            "time": 478.125,
            "midi": 74,
            "name": "D5",
            "velocity": 0.3858267716535433,
            "duration": 1.875,
            "ticks": 783360,
            "durationTicks": 3072
          },
          {
            "time": 480,
            "midi": 65,
            "name": "F4",
            "velocity": 0.3858267716535433,
            "duration": 0.625,
            "ticks": 786432,
            "durationTicks": 1024
          },
          {
            "time": 480.625,
            "midi": 65,
            "name": "F4",
            "velocity": 0.3858267716535433,
            "duration": 0.625,
            "ticks": 787456,
            "durationTicks": 1024
          },
          {
            "time": 481.25,
            "midi": 65,
            "name": "F4",
            "velocity": 0.3858267716535433,
            "duration": 0.625,
            "ticks": 788480,
            "durationTicks": 1024
          },
          {
            "time": 481.875,
            "midi": 64,
            "name": "E4",
            "velocity": 0.3858267716535433,
            "duration": 0.625,
            "ticks": 789504,
            "durationTicks": 1024
          },
          {
            "time": 482.5,
            "midi": 64,
            "name": "E4",
            "velocity": 0.3858267716535433,
            "duration": 0.625,
            "ticks": 790528,
            "durationTicks": 1024
          },
          {
            "time": 483.125,
            "midi": 64,
            "name": "E4",
            "velocity": 0.3858267716535433,
            "duration": 0.625,
            "ticks": 791552,
            "durationTicks": 1024
          },
          {
            "time": 483.75,
            "midi": 65,
            "name": "F4",
            "velocity": 0.3858267716535433,
            "duration": 0.625,
            "ticks": 792576,
            "durationTicks": 1024
          },
          {
            "time": 484.375,
            "midi": 65,
            "name": "F4",
            "velocity": 0.3858267716535433,
            "duration": 0.625,
            "ticks": 793600,
            "durationTicks": 1024
          },
          {
            "time": 485,
            "midi": 65,
            "name": "F4",
            "velocity": 0.3858267716535433,
            "duration": 0.625,
            "ticks": 794624,
            "durationTicks": 1024
          },
          {
            "time": 485.625,
            "midi": 67,
            "name": "G4",
            "velocity": 0.3858267716535433,
            "duration": 0.625,
            "ticks": 795648,
            "durationTicks": 1024
          },
          {
            "time": 486.25,
            "midi": 67,
            "name": "G4",
            "velocity": 0.3858267716535433,
            "duration": 0.625,
            "ticks": 796672,
            "durationTicks": 1024
          },
          {
            "time": 486.875,
            "midi": 67,
            "name": "G4",
            "velocity": 0.3858267716535433,
            "duration": 0.625,
            "ticks": 797696,
            "durationTicks": 1024
          },
          {
            "time": 487.5,
            "midi": 69,
            "name": "A4",
            "velocity": 0.3858267716535433,
            "duration": 0.625,
            "ticks": 798720,
            "durationTicks": 1024
          },
          {
            "time": 488.125,
            "midi": 69,
            "name": "A4",
            "velocity": 0.3858267716535433,
            "duration": 0.625,
            "ticks": 799744,
            "durationTicks": 1024
          },
          {
            "time": 488.75,
            "midi": 69,
            "name": "A4",
            "velocity": 0.3858267716535433,
            "duration": 0.625,
            "ticks": 800768,
            "durationTicks": 1024
          },
          {
            "time": 489.375,
            "midi": 67,
            "name": "G4",
            "velocity": 0.3858267716535433,
            "duration": 0.625,
            "ticks": 801792,
            "durationTicks": 1024
          },
          {
            "time": 490,
            "midi": 67,
            "name": "G4",
            "velocity": 0.3858267716535433,
            "duration": 0.625,
            "ticks": 802816,
            "durationTicks": 1024
          },
          {
            "time": 490.625,
            "midi": 67,
            "name": "G4",
            "velocity": 0.3858267716535433,
            "duration": 0.625,
            "ticks": 803840,
            "durationTicks": 1024
          },
          {
            "time": 491.25,
            "midi": 65,
            "name": "F4",
            "velocity": 0.3858267716535433,
            "duration": 0.625,
            "ticks": 804864,
            "durationTicks": 1024
          },
          {
            "time": 491.875,
            "midi": 65,
            "name": "F4",
            "velocity": 0.3858267716535433,
            "duration": 0.625,
            "ticks": 805888,
            "durationTicks": 1024
          },
          {
            "time": 492.5,
            "midi": 65,
            "name": "F4",
            "velocity": 0.3858267716535433,
            "duration": 0.625,
            "ticks": 806912,
            "durationTicks": 1024
          },
          {
            "time": 493.125,
            "midi": 64,
            "name": "E4",
            "velocity": 0.3858267716535433,
            "duration": 0.625,
            "ticks": 807936,
            "durationTicks": 1024
          },
          {
            "time": 493.75,
            "midi": 64,
            "name": "E4",
            "velocity": 0.3858267716535433,
            "duration": 0.625,
            "ticks": 808960,
            "durationTicks": 1024
          },
          {
            "time": 494.375,
            "midi": 64,
            "name": "E4",
            "velocity": 0.3858267716535433,
            "duration": 0.625,
            "ticks": 809984,
            "durationTicks": 1024
          },
          {
            "time": 495,
            "midi": 65,
            "name": "F4",
            "velocity": 0.3858267716535433,
            "duration": 0.625,
            "ticks": 811008,
            "durationTicks": 1024
          },
          {
            "time": 495.625,
            "midi": 65,
            "name": "F4",
            "velocity": 0.3858267716535433,
            "duration": 0.625,
            "ticks": 812032,
            "durationTicks": 1024
          },
          {
            "time": 496.25,
            "midi": 65,
            "name": "F4",
            "velocity": 0.3858267716535433,
            "duration": 0.625,
            "ticks": 813056,
            "durationTicks": 1024
          },
          {
            "time": 496.875,
            "midi": 64,
            "name": "E4",
            "velocity": 0.3858267716535433,
            "duration": 0.625,
            "ticks": 814080,
            "durationTicks": 1024
          },
          {
            "time": 497.5,
            "midi": 64,
            "name": "E4",
            "velocity": 0.3858267716535433,
            "duration": 0.625,
            "ticks": 815104,
            "durationTicks": 1024
          },
          {
            "time": 498.125,
            "midi": 64,
            "name": "E4",
            "velocity": 0.3858267716535433,
            "duration": 0.625,
            "ticks": 816128,
            "durationTicks": 1024
          },
          {
            "time": 498.75,
            "midi": 65,
            "name": "F4",
            "velocity": 0.3858267716535433,
            "duration": 0.625,
            "ticks": 817152,
            "durationTicks": 1024
          },
          {
            "time": 499.375,
            "midi": 65,
            "name": "F4",
            "velocity": 0.3858267716535433,
            "duration": 0.625,
            "ticks": 818176,
            "durationTicks": 1024
          },
          {
            "time": 500,
            "midi": 65,
            "name": "F4",
            "velocity": 0.3858267716535433,
            "duration": 0.625,
            "ticks": 819200,
            "durationTicks": 1024
          },
          {
            "time": 500.625,
            "midi": 67,
            "name": "G4",
            "velocity": 0.3858267716535433,
            "duration": 0.625,
            "ticks": 820224,
            "durationTicks": 1024
          },
          {
            "time": 501.25,
            "midi": 67,
            "name": "G4",
            "velocity": 0.3858267716535433,
            "duration": 0.625,
            "ticks": 821248,
            "durationTicks": 1024
          },
          {
            "time": 501.875,
            "midi": 67,
            "name": "G4",
            "velocity": 0.3858267716535433,
            "duration": 0.625,
            "ticks": 822272,
            "durationTicks": 1024
          },
          {
            "time": 502.5,
            "midi": 69,
            "name": "A4",
            "velocity": 0.3858267716535433,
            "duration": 0.625,
            "ticks": 823296,
            "durationTicks": 1024
          },
          {
            "time": 503.125,
            "midi": 69,
            "name": "A4",
            "velocity": 0.3858267716535433,
            "duration": 0.625,
            "ticks": 824320,
            "durationTicks": 1024
          },
          {
            "time": 503.75,
            "midi": 69,
            "name": "A4",
            "velocity": 0.3858267716535433,
            "duration": 0.625,
            "ticks": 825344,
            "durationTicks": 1024
          },
          {
            "time": 504.375,
            "midi": 67,
            "name": "G4",
            "velocity": 0.3858267716535433,
            "duration": 0.625,
            "ticks": 826368,
            "durationTicks": 1024
          },
          {
            "time": 505,
            "midi": 67,
            "name": "G4",
            "velocity": 0.3858267716535433,
            "duration": 0.625,
            "ticks": 827392,
            "durationTicks": 1024
          },
          {
            "time": 505.625,
            "midi": 67,
            "name": "G4",
            "velocity": 0.3858267716535433,
            "duration": 0.625,
            "ticks": 828416,
            "durationTicks": 1024
          },
          {
            "time": 506.25,
            "midi": 65,
            "name": "F4",
            "velocity": 0.3858267716535433,
            "duration": 0.625,
            "ticks": 829440,
            "durationTicks": 1024
          },
          {
            "time": 506.875,
            "midi": 64,
            "name": "E4",
            "velocity": 0.3858267716535433,
            "duration": 0.625,
            "ticks": 830464,
            "durationTicks": 1024
          },
          {
            "time": 507.5,
            "midi": 64,
            "name": "E4",
            "velocity": 0.3858267716535433,
            "duration": 0.625,
            "ticks": 831488,
            "durationTicks": 1024
          },
          {
            "time": 508.125,
            "midi": 62,
            "name": "D4",
            "velocity": 0.3858267716535433,
            "duration": 1.875,
            "ticks": 832512,
            "durationTicks": 3072
          },
          {
            "time": 510.3125,
            "midi": 74,
            "name": "D5",
            "velocity": 0.3858267716535433,
            "duration": 0.15625,
            "ticks": 836096,
            "durationTicks": 256
          },
          {
            "time": 510.46875,
            "midi": 73,
            "name": "C#5",
            "velocity": 0.3858267716535433,
            "duration": 0.15625,
            "ticks": 836352,
            "durationTicks": 256
          },
          {
            "time": 510.625,
            "midi": 74,
            "name": "D5",
            "velocity": 0.3858267716535433,
            "duration": 0.3125,
            "ticks": 836608,
            "durationTicks": 512
          },
          {
            "time": 510.9375,
            "midi": 62,
            "name": "D4",
            "velocity": 0.3858267716535433,
            "duration": 0.3125,
            "ticks": 837120,
            "durationTicks": 512
          },
          {
            "time": 511.25,
            "midi": 74,
            "name": "D5",
            "velocity": 0.3858267716535433,
            "duration": 0.3125,
            "ticks": 837632,
            "durationTicks": 512
          },
          {
            "time": 511.5625,
            "midi": 62,
            "name": "D4",
            "velocity": 0.3858267716535433,
            "duration": 0.3125,
            "ticks": 838144,
            "durationTicks": 512
          },
          {
            "time": 511.875,
            "midi": 61,
            "name": "C#4",
            "velocity": 0.3858267716535433,
            "duration": 0.3125,
            "ticks": 838656,
            "durationTicks": 512
          },
          {
            "time": 512.1875,
            "midi": 73,
            "name": "C#5",
            "velocity": 0.3858267716535433,
            "duration": 0.15625,
            "ticks": 839168,
            "durationTicks": 256
          },
          {
            "time": 512.34375,
            "midi": 70,
            "name": "A#4",
            "velocity": 0.3858267716535433,
            "duration": 0.15625,
            "ticks": 839424,
            "durationTicks": 256
          },
          {
            "time": 512.5,
            "midi": 73,
            "name": "C#5",
            "velocity": 0.3858267716535433,
            "duration": 0.3125,
            "ticks": 839680,
            "durationTicks": 512
          },
          {
            "time": 512.8125,
            "midi": 61,
            "name": "C#4",
            "velocity": 0.3858267716535433,
            "duration": 0.3125,
            "ticks": 840192,
            "durationTicks": 512
          },
          {
            "time": 513.125,
            "midi": 73,
            "name": "C#5",
            "velocity": 0.3858267716535433,
            "duration": 0.3125,
            "ticks": 840704,
            "durationTicks": 512
          },
          {
            "time": 513.4375,
            "midi": 61,
            "name": "C#4",
            "velocity": 0.3858267716535433,
            "duration": 0.3125,
            "ticks": 841216,
            "durationTicks": 512
          },
          {
            "time": 513.75,
            "midi": 62,
            "name": "D4",
            "velocity": 0.3858267716535433,
            "duration": 0.3125,
            "ticks": 841728,
            "durationTicks": 512
          },
          {
            "time": 514.0625,
            "midi": 74,
            "name": "D5",
            "velocity": 0.3858267716535433,
            "duration": 0.15625,
            "ticks": 842240,
            "durationTicks": 256
          },
          {
            "time": 514.21875,
            "midi": 73,
            "name": "C#5",
            "velocity": 0.3858267716535433,
            "duration": 0.15625,
            "ticks": 842496,
            "durationTicks": 256
          },
          {
            "time": 514.375,
            "midi": 74,
            "name": "D5",
            "velocity": 0.3858267716535433,
            "duration": 0.3125,
            "ticks": 842752,
            "durationTicks": 512
          },
          {
            "time": 514.6875,
            "midi": 62,
            "name": "D4",
            "velocity": 0.3858267716535433,
            "duration": 0.3125,
            "ticks": 843264,
            "durationTicks": 512
          },
          {
            "time": 515,
            "midi": 74,
            "name": "D5",
            "velocity": 0.3858267716535433,
            "duration": 0.3125,
            "ticks": 843776,
            "durationTicks": 512
          },
          {
            "time": 515.3125,
            "midi": 62,
            "name": "D4",
            "velocity": 0.3858267716535433,
            "duration": 0.3125,
            "ticks": 844288,
            "durationTicks": 512
          },
          {
            "time": 515.625,
            "midi": 64,
            "name": "E4",
            "velocity": 0.3858267716535433,
            "duration": 0.3125,
            "ticks": 844800,
            "durationTicks": 512
          },
          {
            "time": 515.9375,
            "midi": 76,
            "name": "E5",
            "velocity": 0.3858267716535433,
            "duration": 0.15625,
            "ticks": 845312,
            "durationTicks": 256
          },
          {
            "time": 516.09375,
            "midi": 74,
            "name": "D5",
            "velocity": 0.3858267716535433,
            "duration": 0.15625,
            "ticks": 845568,
            "durationTicks": 256
          },
          {
            "time": 516.25,
            "midi": 76,
            "name": "E5",
            "velocity": 0.3858267716535433,
            "duration": 0.3125,
            "ticks": 845824,
            "durationTicks": 512
          },
          {
            "time": 516.5625,
            "midi": 64,
            "name": "E4",
            "velocity": 0.3858267716535433,
            "duration": 0.3125,
            "ticks": 846336,
            "durationTicks": 512
          },
          {
            "time": 516.875,
            "midi": 76,
            "name": "E5",
            "velocity": 0.3858267716535433,
            "duration": 0.3125,
            "ticks": 846848,
            "durationTicks": 512
          },
          {
            "time": 517.1875,
            "midi": 64,
            "name": "E4",
            "velocity": 0.3858267716535433,
            "duration": 0.3125,
            "ticks": 847360,
            "durationTicks": 512
          },
          {
            "time": 517.5,
            "midi": 65,
            "name": "F4",
            "velocity": 0.3858267716535433,
            "duration": 0.3125,
            "ticks": 847872,
            "durationTicks": 512
          },
          {
            "time": 517.8125,
            "midi": 77,
            "name": "F5",
            "velocity": 0.3858267716535433,
            "duration": 0.15625,
            "ticks": 848384,
            "durationTicks": 256
          },
          {
            "time": 517.96875,
            "midi": 76,
            "name": "E5",
            "velocity": 0.3858267716535433,
            "duration": 0.15625,
            "ticks": 848640,
            "durationTicks": 256
          },
          {
            "time": 518.125,
            "midi": 77,
            "name": "F5",
            "velocity": 0.3858267716535433,
            "duration": 0.3125,
            "ticks": 848896,
            "durationTicks": 512
          },
          {
            "time": 518.4375,
            "midi": 65,
            "name": "F4",
            "velocity": 0.3858267716535433,
            "duration": 0.3125,
            "ticks": 849408,
            "durationTicks": 512
          },
          {
            "time": 518.75,
            "midi": 77,
            "name": "F5",
            "velocity": 0.3858267716535433,
            "duration": 0.3125,
            "ticks": 849920,
            "durationTicks": 512
          },
          {
            "time": 519.0625,
            "midi": 65,
            "name": "F4",
            "velocity": 0.3858267716535433,
            "duration": 0.3125,
            "ticks": 850432,
            "durationTicks": 512
          },
          {
            "time": 519.375,
            "midi": 64,
            "name": "E4",
            "velocity": 0.3858267716535433,
            "duration": 0.3125,
            "ticks": 850944,
            "durationTicks": 512
          },
          {
            "time": 519.6875,
            "midi": 76,
            "name": "E5",
            "velocity": 0.3858267716535433,
            "duration": 0.15625,
            "ticks": 851456,
            "durationTicks": 256
          },
          {
            "time": 519.84375,
            "midi": 74,
            "name": "D5",
            "velocity": 0.3858267716535433,
            "duration": 0.15625,
            "ticks": 851712,
            "durationTicks": 256
          },
          {
            "time": 520,
            "midi": 76,
            "name": "E5",
            "velocity": 0.3858267716535433,
            "duration": 0.3125,
            "ticks": 851968,
            "durationTicks": 512
          },
          {
            "time": 520.3125,
            "midi": 64,
            "name": "E4",
            "velocity": 0.3858267716535433,
            "duration": 0.3125,
            "ticks": 852480,
            "durationTicks": 512
          },
          {
            "time": 520.625,
            "midi": 76,
            "name": "E5",
            "velocity": 0.3858267716535433,
            "duration": 0.3125,
            "ticks": 852992,
            "durationTicks": 512
          },
          {
            "time": 520.9375,
            "midi": 64,
            "name": "E4",
            "velocity": 0.3858267716535433,
            "duration": 0.3125,
            "ticks": 853504,
            "durationTicks": 512
          },
          {
            "time": 521.25,
            "midi": 62,
            "name": "D4",
            "velocity": 0.3858267716535433,
            "duration": 0.3125,
            "ticks": 854016,
            "durationTicks": 512
          },
          {
            "time": 521.5625,
            "midi": 74,
            "name": "D5",
            "velocity": 0.3858267716535433,
            "duration": 0.15625,
            "ticks": 854528,
            "durationTicks": 256
          },
          {
            "time": 521.71875,
            "midi": 73,
            "name": "C#5",
            "velocity": 0.3858267716535433,
            "duration": 0.15625,
            "ticks": 854784,
            "durationTicks": 256
          },
          {
            "time": 521.875,
            "midi": 74,
            "name": "D5",
            "velocity": 0.3858267716535433,
            "duration": 0.3125,
            "ticks": 855040,
            "durationTicks": 512
          },
          {
            "time": 522.1875,
            "midi": 62,
            "name": "D4",
            "velocity": 0.3858267716535433,
            "duration": 0.3125,
            "ticks": 855552,
            "durationTicks": 512
          },
          {
            "time": 522.5,
            "midi": 74,
            "name": "D5",
            "velocity": 0.3858267716535433,
            "duration": 0.3125,
            "ticks": 856064,
            "durationTicks": 512
          },
          {
            "time": 522.8125,
            "midi": 62,
            "name": "D4",
            "velocity": 0.3858267716535433,
            "duration": 0.3125,
            "ticks": 856576,
            "durationTicks": 512
          },
          {
            "time": 523.125,
            "midi": 61,
            "name": "C#4",
            "velocity": 0.3858267716535433,
            "duration": 0.3125,
            "ticks": 857088,
            "durationTicks": 512
          },
          {
            "time": 523.4375,
            "midi": 73,
            "name": "C#5",
            "velocity": 0.3858267716535433,
            "duration": 0.15625,
            "ticks": 857600,
            "durationTicks": 256
          },
          {
            "time": 523.59375,
            "midi": 70,
            "name": "A#4",
            "velocity": 0.3858267716535433,
            "duration": 0.15625,
            "ticks": 857856,
            "durationTicks": 256
          },
          {
            "time": 523.75,
            "midi": 73,
            "name": "C#5",
            "velocity": 0.3858267716535433,
            "duration": 0.3125,
            "ticks": 858112,
            "durationTicks": 512
          },
          {
            "time": 524.0625,
            "midi": 61,
            "name": "C#4",
            "velocity": 0.3858267716535433,
            "duration": 0.3125,
            "ticks": 858624,
            "durationTicks": 512
          },
          {
            "time": 524.375,
            "midi": 73,
            "name": "C#5",
            "velocity": 0.3858267716535433,
            "duration": 0.3125,
            "ticks": 859136,
            "durationTicks": 512
          },
          {
            "time": 524.6875,
            "midi": 61,
            "name": "C#4",
            "velocity": 0.3858267716535433,
            "duration": 0.3125,
            "ticks": 859648,
            "durationTicks": 512
          },
          {
            "time": 525,
            "midi": 62,
            "name": "D4",
            "velocity": 0.3858267716535433,
            "duration": 0.3125,
            "ticks": 860160,
            "durationTicks": 512
          },
          {
            "time": 525.3125,
            "midi": 74,
            "name": "D5",
            "velocity": 0.3858267716535433,
            "duration": 0.15625,
            "ticks": 860672,
            "durationTicks": 256
          },
          {
            "time": 525.46875,
            "midi": 73,
            "name": "C#5",
            "velocity": 0.3858267716535433,
            "duration": 0.15625,
            "ticks": 860928,
            "durationTicks": 256
          },
          {
            "time": 525.625,
            "midi": 74,
            "name": "D5",
            "velocity": 0.3858267716535433,
            "duration": 0.3125,
            "ticks": 861184,
            "durationTicks": 512
          },
          {
            "time": 525.9375,
            "midi": 62,
            "name": "D4",
            "velocity": 0.3858267716535433,
            "duration": 0.3125,
            "ticks": 861696,
            "durationTicks": 512
          },
          {
            "time": 526.25,
            "midi": 74,
            "name": "D5",
            "velocity": 0.3858267716535433,
            "duration": 0.3125,
            "ticks": 862208,
            "durationTicks": 512
          },
          {
            "time": 526.5625,
            "midi": 62,
            "name": "D4",
            "velocity": 0.3858267716535433,
            "duration": 0.3125,
            "ticks": 862720,
            "durationTicks": 512
          },
          {
            "time": 526.875,
            "midi": 61,
            "name": "C#4",
            "velocity": 0.3858267716535433,
            "duration": 0.3125,
            "ticks": 863232,
            "durationTicks": 512
          },
          {
            "time": 527.1875,
            "midi": 73,
            "name": "C#5",
            "velocity": 0.3858267716535433,
            "duration": 0.15625,
            "ticks": 863744,
            "durationTicks": 256
          },
          {
            "time": 527.34375,
            "midi": 70,
            "name": "A#4",
            "velocity": 0.3858267716535433,
            "duration": 0.15625,
            "ticks": 864000,
            "durationTicks": 256
          },
          {
            "time": 527.5,
            "midi": 73,
            "name": "C#5",
            "velocity": 0.3858267716535433,
            "duration": 0.3125,
            "ticks": 864256,
            "durationTicks": 512
          },
          {
            "time": 527.8125,
            "midi": 61,
            "name": "C#4",
            "velocity": 0.3858267716535433,
            "duration": 0.3125,
            "ticks": 864768,
            "durationTicks": 512
          },
          {
            "time": 528.125,
            "midi": 73,
            "name": "C#5",
            "velocity": 0.3858267716535433,
            "duration": 0.3125,
            "ticks": 865280,
            "durationTicks": 512
          },
          {
            "time": 528.4375,
            "midi": 61,
            "name": "C#4",
            "velocity": 0.3858267716535433,
            "duration": 0.3125,
            "ticks": 865792,
            "durationTicks": 512
          },
          {
            "time": 528.75,
            "midi": 62,
            "name": "D4",
            "velocity": 0.3858267716535433,
            "duration": 0.3125,
            "ticks": 866304,
            "durationTicks": 512
          },
          {
            "time": 529.0625,
            "midi": 74,
            "name": "D5",
            "velocity": 0.3858267716535433,
            "duration": 0.15625,
            "ticks": 866816,
            "durationTicks": 256
          },
          {
            "time": 529.21875,
            "midi": 73,
            "name": "C#5",
            "velocity": 0.3858267716535433,
            "duration": 0.15625,
            "ticks": 867072,
            "durationTicks": 256
          },
          {
            "time": 529.375,
            "midi": 74,
            "name": "D5",
            "velocity": 0.3858267716535433,
            "duration": 0.3125,
            "ticks": 867328,
            "durationTicks": 512
          },
          {
            "time": 529.6875,
            "midi": 62,
            "name": "D4",
            "velocity": 0.3858267716535433,
            "duration": 0.3125,
            "ticks": 867840,
            "durationTicks": 512
          },
          {
            "time": 530,
            "midi": 74,
            "name": "D5",
            "velocity": 0.3858267716535433,
            "duration": 0.3125,
            "ticks": 868352,
            "durationTicks": 512
          },
          {
            "time": 530.3125,
            "midi": 62,
            "name": "D4",
            "velocity": 0.3858267716535433,
            "duration": 0.3125,
            "ticks": 868864,
            "durationTicks": 512
          },
          {
            "time": 530.625,
            "midi": 64,
            "name": "E4",
            "velocity": 0.3858267716535433,
            "duration": 0.3125,
            "ticks": 869376,
            "durationTicks": 512
          },
          {
            "time": 530.9375,
            "midi": 76,
            "name": "E5",
            "velocity": 0.3858267716535433,
            "duration": 0.15625,
            "ticks": 869888,
            "durationTicks": 256
          },
          {
            "time": 531.09375,
            "midi": 74,
            "name": "D5",
            "velocity": 0.3858267716535433,
            "duration": 0.15625,
            "ticks": 870144,
            "durationTicks": 256
          },
          {
            "time": 531.25,
            "midi": 76,
            "name": "E5",
            "velocity": 0.3858267716535433,
            "duration": 0.3125,
            "ticks": 870400,
            "durationTicks": 512
          },
          {
            "time": 531.5625,
            "midi": 64,
            "name": "E4",
            "velocity": 0.3858267716535433,
            "duration": 0.3125,
            "ticks": 870912,
            "durationTicks": 512
          },
          {
            "time": 531.875,
            "midi": 76,
            "name": "E5",
            "velocity": 0.3858267716535433,
            "duration": 0.3125,
            "ticks": 871424,
            "durationTicks": 512
          },
          {
            "time": 532.1875,
            "midi": 64,
            "name": "E4",
            "velocity": 0.3858267716535433,
            "duration": 0.3125,
            "ticks": 871936,
            "durationTicks": 512
          },
          {
            "time": 532.5,
            "midi": 65,
            "name": "F4",
            "velocity": 0.3858267716535433,
            "duration": 0.3125,
            "ticks": 872448,
            "durationTicks": 512
          },
          {
            "time": 532.8125,
            "midi": 77,
            "name": "F5",
            "velocity": 0.3858267716535433,
            "duration": 0.15625,
            "ticks": 872960,
            "durationTicks": 256
          },
          {
            "time": 532.96875,
            "midi": 76,
            "name": "E5",
            "velocity": 0.3858267716535433,
            "duration": 0.15625,
            "ticks": 873216,
            "durationTicks": 256
          },
          {
            "time": 533.125,
            "midi": 77,
            "name": "F5",
            "velocity": 0.3858267716535433,
            "duration": 0.3125,
            "ticks": 873472,
            "durationTicks": 512
          },
          {
            "time": 533.4375,
            "midi": 65,
            "name": "F4",
            "velocity": 0.3858267716535433,
            "duration": 0.3125,
            "ticks": 873984,
            "durationTicks": 512
          },
          {
            "time": 533.75,
            "midi": 77,
            "name": "F5",
            "velocity": 0.3858267716535433,
            "duration": 0.3125,
            "ticks": 874496,
            "durationTicks": 512
          },
          {
            "time": 534.0625,
            "midi": 65,
            "name": "F4",
            "velocity": 0.3858267716535433,
            "duration": 0.3125,
            "ticks": 875008,
            "durationTicks": 512
          },
          {
            "time": 534.375,
            "midi": 64,
            "name": "E4",
            "velocity": 0.3858267716535433,
            "duration": 0.3125,
            "ticks": 875520,
            "durationTicks": 512
          },
          {
            "time": 534.6875,
            "midi": 76,
            "name": "E5",
            "velocity": 0.3858267716535433,
            "duration": 0.15625,
            "ticks": 876032,
            "durationTicks": 256
          },
          {
            "time": 534.84375,
            "midi": 74,
            "name": "D5",
            "velocity": 0.3858267716535433,
            "duration": 0.15625,
            "ticks": 876288,
            "durationTicks": 256
          },
          {
            "time": 535,
            "midi": 76,
            "name": "E5",
            "velocity": 0.3858267716535433,
            "duration": 0.3125,
            "ticks": 876544,
            "durationTicks": 512
          },
          {
            "time": 535.3125,
            "midi": 64,
            "name": "E4",
            "velocity": 0.3858267716535433,
            "duration": 0.3125,
            "ticks": 877056,
            "durationTicks": 512
          },
          {
            "time": 535.625,
            "midi": 76,
            "name": "E5",
            "velocity": 0.3858267716535433,
            "duration": 0.3125,
            "ticks": 877568,
            "durationTicks": 512
          },
          {
            "time": 535.9375,
            "midi": 64,
            "name": "E4",
            "velocity": 0.3858267716535433,
            "duration": 0.3125,
            "ticks": 878080,
            "durationTicks": 512
          },
          {
            "time": 536.25,
            "midi": 74,
            "name": "D5",
            "velocity": 0.3858267716535433,
            "duration": 0.3125,
            "ticks": 878592,
            "durationTicks": 512
          },
          {
            "time": 536.5625,
            "midi": 76,
            "name": "E5",
            "velocity": 0.3858267716535433,
            "duration": 0.15625,
            "ticks": 879104,
            "durationTicks": 256
          },
          {
            "time": 536.71875,
            "midi": 74,
            "name": "D5",
            "velocity": 0.3858267716535433,
            "duration": 0.15625,
            "ticks": 879360,
            "durationTicks": 256
          },
          {
            "time": 536.875,
            "midi": 73,
            "name": "C#5",
            "velocity": 0.3858267716535433,
            "duration": 0.3125,
            "ticks": 879616,
            "durationTicks": 512
          },
          {
            "time": 537.1875,
            "midi": 61,
            "name": "C#4",
            "velocity": 0.3858267716535433,
            "duration": 0.3125,
            "ticks": 880128,
            "durationTicks": 512
          },
          {
            "time": 537.5,
            "midi": 73,
            "name": "C#5",
            "velocity": 0.3858267716535433,
            "duration": 0.3125,
            "ticks": 880640,
            "durationTicks": 512
          },
          {
            "time": 537.8125,
            "midi": 61,
            "name": "C#4",
            "velocity": 0.3858267716535433,
            "duration": 0.3125,
            "ticks": 881152,
            "durationTicks": 512
          },
          {
            "time": 538.125,
            "midi": 62,
            "name": "D4",
            "velocity": 0.3858267716535433,
            "duration": 1.875,
            "ticks": 881664,
            "durationTicks": 3072
          },
          {
            "time": 540,
            "midi": 74,
            "name": "D5",
            "velocity": 0.3858267716535433,
            "duration": 0.625,
            "ticks": 884736,
            "durationTicks": 1024
          },
          {
            "time": 540.625,
            "midi": 74,
            "name": "D5",
            "velocity": 0.3858267716535433,
            "duration": 0.9375,
            "ticks": 885760,
            "durationTicks": 1536
          },
          {
            "time": 541.5625,
            "midi": 74,
            "name": "D5",
            "velocity": 0.3858267716535433,
            "duration": 0.3125,
            "ticks": 887296,
            "durationTicks": 512
          },
          {
            "time": 541.875,
            "midi": 73,
            "name": "C#5",
            "velocity": 0.3858267716535433,
            "duration": 0.625,
            "ticks": 887808,
            "durationTicks": 1024
          },
          {
            "time": 542.5,
            "midi": 73,
            "name": "C#5",
            "velocity": 0.3858267716535433,
            "duration": 0.9375,
            "ticks": 888832,
            "durationTicks": 1536
          },
          {
            "time": 543.4375,
            "midi": 73,
            "name": "C#5",
            "velocity": 0.3858267716535433,
            "duration": 0.3125,
            "ticks": 890368,
            "durationTicks": 512
          },
          {
            "time": 543.75,
            "midi": 74,
            "name": "D5",
            "velocity": 0.3858267716535433,
            "duration": 0.625,
            "ticks": 890880,
            "durationTicks": 1024
          },
          {
            "time": 544.375,
            "midi": 74,
            "name": "D5",
            "velocity": 0.3858267716535433,
            "duration": 0.9375,
            "ticks": 891904,
            "durationTicks": 1536
          },
          {
            "time": 545.3125,
            "midi": 74,
            "name": "D5",
            "velocity": 0.3858267716535433,
            "duration": 0.3125,
            "ticks": 893440,
            "durationTicks": 512
          },
          {
            "time": 545.625,
            "midi": 74,
            "name": "D5",
            "velocity": 0.3858267716535433,
            "duration": 0.625,
            "ticks": 893952,
            "durationTicks": 1024
          },
          {
            "time": 546.25,
            "midi": 74,
            "name": "D5",
            "velocity": 0.3858267716535433,
            "duration": 0.9375,
            "ticks": 894976,
            "durationTicks": 1536
          },
          {
            "time": 547.1875,
            "midi": 74,
            "name": "D5",
            "velocity": 0.3858267716535433,
            "duration": 0.3125,
            "ticks": 896512,
            "durationTicks": 512
          },
          {
            "time": 547.5,
            "midi": 77,
            "name": "F5",
            "velocity": 0.3858267716535433,
            "duration": 0.625,
            "ticks": 897024,
            "durationTicks": 1024
          },
          {
            "time": 548.125,
            "midi": 77,
            "name": "F5",
            "velocity": 0.3858267716535433,
            "duration": 0.9375,
            "ticks": 898048,
            "durationTicks": 1536
          },
          {
            "time": 549.0625,
            "midi": 77,
            "name": "F5",
            "velocity": 0.3858267716535433,
            "duration": 0.3125,
            "ticks": 899584,
            "durationTicks": 512
          },
          {
            "time": 549.375,
            "midi": 76,
            "name": "E5",
            "velocity": 0.3858267716535433,
            "duration": 0.625,
            "ticks": 900096,
            "durationTicks": 1024
          },
          {
            "time": 550,
            "midi": 76,
            "name": "E5",
            "velocity": 0.3858267716535433,
            "duration": 0.9375,
            "ticks": 901120,
            "durationTicks": 1536
          },
          {
            "time": 550.9375,
            "midi": 76,
            "name": "E5",
            "velocity": 0.3858267716535433,
            "duration": 0.3125,
            "ticks": 902656,
            "durationTicks": 512
          },
          {
            "time": 551.25,
            "midi": 74,
            "name": "D5",
            "velocity": 0.3858267716535433,
            "duration": 0.625,
            "ticks": 903168,
            "durationTicks": 1024
          },
          {
            "time": 551.875,
            "midi": 74,
            "name": "D5",
            "velocity": 0.3858267716535433,
            "duration": 0.9375,
            "ticks": 904192,
            "durationTicks": 1536
          },
          {
            "time": 552.8125,
            "midi": 74,
            "name": "D5",
            "velocity": 0.3858267716535433,
            "duration": 0.3125,
            "ticks": 905728,
            "durationTicks": 512
          },
          {
            "time": 553.125,
            "midi": 73,
            "name": "C#5",
            "velocity": 0.3858267716535433,
            "duration": 0.625,
            "ticks": 906240,
            "durationTicks": 1024
          },
          {
            "time": 553.75,
            "midi": 73,
            "name": "C#5",
            "velocity": 0.3858267716535433,
            "duration": 0.9375,
            "ticks": 907264,
            "durationTicks": 1536
          },
          {
            "time": 554.6875,
            "midi": 73,
            "name": "C#5",
            "velocity": 0.3858267716535433,
            "duration": 0.3125,
            "ticks": 908800,
            "durationTicks": 512
          },
          {
            "time": 555,
            "midi": 74,
            "name": "D5",
            "velocity": 0.3858267716535433,
            "duration": 0.625,
            "ticks": 909312,
            "durationTicks": 1024
          },
          {
            "time": 555.625,
            "midi": 74,
            "name": "D5",
            "velocity": 0.3858267716535433,
            "duration": 0.9375,
            "ticks": 910336,
            "durationTicks": 1536
          },
          {
            "time": 556.5625,
            "midi": 74,
            "name": "D5",
            "velocity": 0.3858267716535433,
            "duration": 0.3125,
            "ticks": 911872,
            "durationTicks": 512
          },
          {
            "time": 556.875,
            "midi": 73,
            "name": "C#5",
            "velocity": 0.3858267716535433,
            "duration": 0.625,
            "ticks": 912384,
            "durationTicks": 1024
          },
          {
            "time": 557.5,
            "midi": 73,
            "name": "C#5",
            "velocity": 0.3858267716535433,
            "duration": 0.9375,
            "ticks": 913408,
            "durationTicks": 1536
          },
          {
            "time": 558.4375,
            "midi": 73,
            "name": "C#5",
            "velocity": 0.3858267716535433,
            "duration": 0.3125,
            "ticks": 914944,
            "durationTicks": 512
          },
          {
            "time": 558.75,
            "midi": 74,
            "name": "D5",
            "velocity": 0.3858267716535433,
            "duration": 0.625,
            "ticks": 915456,
            "durationTicks": 1024
          },
          {
            "time": 559.375,
            "midi": 74,
            "name": "D5",
            "velocity": 0.3858267716535433,
            "duration": 0.9375,
            "ticks": 916480,
            "durationTicks": 1536
          },
          {
            "time": 560.3125,
            "midi": 74,
            "name": "D5",
            "velocity": 0.3858267716535433,
            "duration": 0.3125,
            "ticks": 918016,
            "durationTicks": 512
          },
          {
            "time": 560.625,
            "midi": 76,
            "name": "E5",
            "velocity": 0.3858267716535433,
            "duration": 0.625,
            "ticks": 918528,
            "durationTicks": 1024
          },
          {
            "time": 561.25,
            "midi": 76,
            "name": "E5",
            "velocity": 0.3858267716535433,
            "duration": 0.9375,
            "ticks": 919552,
            "durationTicks": 1536
          },
          {
            "time": 562.1875,
            "midi": 76,
            "name": "E5",
            "velocity": 0.3858267716535433,
            "duration": 0.3125,
            "ticks": 921088,
            "durationTicks": 512
          },
          {
            "time": 562.5,
            "midi": 77,
            "name": "F5",
            "velocity": 0.3858267716535433,
            "duration": 0.625,
            "ticks": 921600,
            "durationTicks": 1024
          },
          {
            "time": 563.125,
            "midi": 77,
            "name": "F5",
            "velocity": 0.3858267716535433,
            "duration": 0.9375,
            "ticks": 922624,
            "durationTicks": 1536
          },
          {
            "time": 564.0625,
            "midi": 77,
            "name": "F5",
            "velocity": 0.3858267716535433,
            "duration": 0.3125,
            "ticks": 924160,
            "durationTicks": 512
          },
          {
            "time": 564.375,
            "midi": 76,
            "name": "E5",
            "velocity": 0.3858267716535433,
            "duration": 0.625,
            "ticks": 924672,
            "durationTicks": 1024
          },
          {
            "time": 565,
            "midi": 76,
            "name": "E5",
            "velocity": 0.3858267716535433,
            "duration": 0.9375,
            "ticks": 925696,
            "durationTicks": 1536
          },
          {
            "time": 565.9375,
            "midi": 76,
            "name": "E5",
            "velocity": 0.3858267716535433,
            "duration": 0.3125,
            "ticks": 927232,
            "durationTicks": 512
          },
          {
            "time": 566.25,
            "midi": 74,
            "name": "D5",
            "velocity": 0.3858267716535433,
            "duration": 0.625,
            "ticks": 927744,
            "durationTicks": 1024
          },
          {
            "time": 566.875,
            "midi": 73,
            "name": "C#5",
            "velocity": 0.3858267716535433,
            "duration": 0.9375,
            "ticks": 928768,
            "durationTicks": 1536
          },
          {
            "time": 567.8125,
            "midi": 73,
            "name": "C#5",
            "velocity": 0.3858267716535433,
            "duration": 0.3125,
            "ticks": 930304,
            "durationTicks": 512
          },
          {
            "time": 568.125,
            "midi": 74,
            "name": "D5",
            "velocity": 0.3858267716535433,
            "duration": 1.875,
            "ticks": 930816,
            "durationTicks": 3072
          },
          {
            "time": 570,
            "midi": 74,
            "name": "D5",
            "velocity": 0.3858267716535433,
            "duration": 0.15625,
            "ticks": 933888,
            "durationTicks": 256
          },
          {
            "time": 570.15625,
            "midi": 77,
            "name": "F5",
            "velocity": 0.3858267716535433,
            "duration": 0.15625,
            "ticks": 934144,
            "durationTicks": 256
          },
          {
            "time": 570.3125,
            "midi": 77,
            "name": "F5",
            "velocity": 0.3858267716535433,
            "duration": 0.15625,
            "ticks": 934400,
            "durationTicks": 256
          },
          {
            "time": 570.46875,
            "midi": 74,
            "name": "D5",
            "velocity": 0.3858267716535433,
            "duration": 0.15625,
            "ticks": 934656,
            "durationTicks": 256
          },
          {
            "time": 570.625,
            "midi": 74,
            "name": "D5",
            "velocity": 0.3858267716535433,
            "duration": 0.15625,
            "ticks": 934912,
            "durationTicks": 256
          },
          {
            "time": 570.78125,
            "midi": 77,
            "name": "F5",
            "velocity": 0.3858267716535433,
            "duration": 0.15625,
            "ticks": 935168,
            "durationTicks": 256
          },
          {
            "time": 570.9375,
            "midi": 77,
            "name": "F5",
            "velocity": 0.3858267716535433,
            "duration": 0.15625,
            "ticks": 935424,
            "durationTicks": 256
          },
          {
            "time": 571.09375,
            "midi": 74,
            "name": "D5",
            "velocity": 0.3858267716535433,
            "duration": 0.15625,
            "ticks": 935680,
            "durationTicks": 256
          },
          {
            "time": 571.25,
            "midi": 74,
            "name": "D5",
            "velocity": 0.3858267716535433,
            "duration": 0.15625,
            "ticks": 935936,
            "durationTicks": 256
          },
          {
            "time": 571.40625,
            "midi": 77,
            "name": "F5",
            "velocity": 0.3858267716535433,
            "duration": 0.15625,
            "ticks": 936192,
            "durationTicks": 256
          },
          {
            "time": 571.5625,
            "midi": 77,
            "name": "F5",
            "velocity": 0.3858267716535433,
            "duration": 0.15625,
            "ticks": 936448,
            "durationTicks": 256
          },
          {
            "time": 571.71875,
            "midi": 74,
            "name": "D5",
            "velocity": 0.3858267716535433,
            "duration": 0.15625,
            "ticks": 936704,
            "durationTicks": 256
          },
          {
            "time": 571.875,
            "midi": 73,
            "name": "C#5",
            "velocity": 0.3858267716535433,
            "duration": 0.15625,
            "ticks": 936960,
            "durationTicks": 256
          },
          {
            "time": 572.03125,
            "midi": 76,
            "name": "E5",
            "velocity": 0.3858267716535433,
            "duration": 0.15625,
            "ticks": 937216,
            "durationTicks": 256
          },
          {
            "time": 572.1875,
            "midi": 76,
            "name": "E5",
            "velocity": 0.3858267716535433,
            "duration": 0.15625,
            "ticks": 937472,
            "durationTicks": 256
          },
          {
            "time": 572.34375,
            "midi": 73,
            "name": "C#5",
            "velocity": 0.3858267716535433,
            "duration": 0.15625,
            "ticks": 937728,
            "durationTicks": 256
          },
          {
            "time": 572.5,
            "midi": 73,
            "name": "C#5",
            "velocity": 0.3858267716535433,
            "duration": 0.15625,
            "ticks": 937984,
            "durationTicks": 256
          },
          {
            "time": 572.65625,
            "midi": 76,
            "name": "E5",
            "velocity": 0.3858267716535433,
            "duration": 0.15625,
            "ticks": 938240,
            "durationTicks": 256
          },
          {
            "time": 572.8125,
            "midi": 76,
            "name": "E5",
            "velocity": 0.3858267716535433,
            "duration": 0.15625,
            "ticks": 938496,
            "durationTicks": 256
          },
          {
            "time": 572.96875,
            "midi": 73,
            "name": "C#5",
            "velocity": 0.3858267716535433,
            "duration": 0.15625,
            "ticks": 938752,
            "durationTicks": 256
          },
          {
            "time": 573.125,
            "midi": 73,
            "name": "C#5",
            "velocity": 0.3858267716535433,
            "duration": 0.15625,
            "ticks": 939008,
            "durationTicks": 256
          },
          {
            "time": 573.28125,
            "midi": 76,
            "name": "E5",
            "velocity": 0.3858267716535433,
            "duration": 0.15625,
            "ticks": 939264,
            "durationTicks": 256
          },
          {
            "time": 573.4375,
            "midi": 76,
            "name": "E5",
            "velocity": 0.3858267716535433,
            "duration": 0.15625,
            "ticks": 939520,
            "durationTicks": 256
          },
          {
            "time": 573.59375,
            "midi": 73,
            "name": "C#5",
            "velocity": 0.3858267716535433,
            "duration": 0.15625,
            "ticks": 939776,
            "durationTicks": 256
          },
          {
            "time": 573.75,
            "midi": 74,
            "name": "D5",
            "velocity": 0.3858267716535433,
            "duration": 0.15625,
            "ticks": 940032,
            "durationTicks": 256
          },
          {
            "time": 573.90625,
            "midi": 77,
            "name": "F5",
            "velocity": 0.3858267716535433,
            "duration": 0.15625,
            "ticks": 940288,
            "durationTicks": 256
          },
          {
            "time": 574.0625,
            "midi": 77,
            "name": "F5",
            "velocity": 0.3858267716535433,
            "duration": 0.15625,
            "ticks": 940544,
            "durationTicks": 256
          },
          {
            "time": 574.21875,
            "midi": 74,
            "name": "D5",
            "velocity": 0.3858267716535433,
            "duration": 0.15625,
            "ticks": 940800,
            "durationTicks": 256
          },
          {
            "time": 574.375,
            "midi": 74,
            "name": "D5",
            "velocity": 0.3858267716535433,
            "duration": 0.15625,
            "ticks": 941056,
            "durationTicks": 256
          },
          {
            "time": 574.53125,
            "midi": 77,
            "name": "F5",
            "velocity": 0.3858267716535433,
            "duration": 0.15625,
            "ticks": 941312,
            "durationTicks": 256
          },
          {
            "time": 574.6875,
            "midi": 77,
            "name": "F5",
            "velocity": 0.3858267716535433,
            "duration": 0.15625,
            "ticks": 941568,
            "durationTicks": 256
          },
          {
            "time": 574.84375,
            "midi": 74,
            "name": "D5",
            "velocity": 0.3858267716535433,
            "duration": 0.15625,
            "ticks": 941824,
            "durationTicks": 256
          },
          {
            "time": 575,
            "midi": 74,
            "name": "D5",
            "velocity": 0.3858267716535433,
            "duration": 0.15625,
            "ticks": 942080,
            "durationTicks": 256
          },
          {
            "time": 575.15625,
            "midi": 77,
            "name": "F5",
            "velocity": 0.3858267716535433,
            "duration": 0.15625,
            "ticks": 942336,
            "durationTicks": 256
          },
          {
            "time": 575.3125,
            "midi": 77,
            "name": "F5",
            "velocity": 0.3858267716535433,
            "duration": 0.15625,
            "ticks": 942592,
            "durationTicks": 256
          },
          {
            "time": 575.46875,
            "midi": 74,
            "name": "D5",
            "velocity": 0.3858267716535433,
            "duration": 0.15625,
            "ticks": 942848,
            "durationTicks": 256
          },
          {
            "time": 575.625,
            "midi": 76,
            "name": "E5",
            "velocity": 0.3858267716535433,
            "duration": 0.15625,
            "ticks": 943104,
            "durationTicks": 256
          },
          {
            "time": 575.78125,
            "midi": 79,
            "name": "G5",
            "velocity": 0.3858267716535433,
            "duration": 0.15625,
            "ticks": 943360,
            "durationTicks": 256
          },
          {
            "time": 575.9375,
            "midi": 79,
            "name": "G5",
            "velocity": 0.3858267716535433,
            "duration": 0.15625,
            "ticks": 943616,
            "durationTicks": 256
          },
          {
            "time": 576.09375,
            "midi": 76,
            "name": "E5",
            "velocity": 0.3858267716535433,
            "duration": 0.15625,
            "ticks": 943872,
            "durationTicks": 256
          },
          {
            "time": 576.25,
            "midi": 76,
            "name": "E5",
            "velocity": 0.3858267716535433,
            "duration": 0.15625,
            "ticks": 944128,
            "durationTicks": 256
          },
          {
            "time": 576.40625,
            "midi": 79,
            "name": "G5",
            "velocity": 0.3858267716535433,
            "duration": 0.15625,
            "ticks": 944384,
            "durationTicks": 256
          },
          {
            "time": 576.5625,
            "midi": 79,
            "name": "G5",
            "velocity": 0.3858267716535433,
            "duration": 0.15625,
            "ticks": 944640,
            "durationTicks": 256
          },
          {
            "time": 576.71875,
            "midi": 76,
            "name": "E5",
            "velocity": 0.3858267716535433,
            "duration": 0.15625,
            "ticks": 944896,
            "durationTicks": 256
          },
          {
            "time": 576.875,
            "midi": 76,
            "name": "E5",
            "velocity": 0.3858267716535433,
            "duration": 0.15625,
            "ticks": 945152,
            "durationTicks": 256
          },
          {
            "time": 577.03125,
            "midi": 79,
            "name": "G5",
            "velocity": 0.3858267716535433,
            "duration": 0.15625,
            "ticks": 945408,
            "durationTicks": 256
          },
          {
            "time": 577.1875,
            "midi": 79,
            "name": "G5",
            "velocity": 0.3858267716535433,
            "duration": 0.15625,
            "ticks": 945664,
            "durationTicks": 256
          },
          {
            "time": 577.34375,
            "midi": 76,
            "name": "E5",
            "velocity": 0.3858267716535433,
            "duration": 0.15625,
            "ticks": 945920,
            "durationTicks": 256
          },
          {
            "time": 577.5,
            "midi": 77,
            "name": "F5",
            "velocity": 0.3858267716535433,
            "duration": 0.15625,
            "ticks": 946176,
            "durationTicks": 256
          },
          {
            "time": 577.65625,
            "midi": 81,
            "name": "A5",
            "velocity": 0.3858267716535433,
            "duration": 0.15625,
            "ticks": 946432,
            "durationTicks": 256
          },
          {
            "time": 577.8125,
            "midi": 81,
            "name": "A5",
            "velocity": 0.3858267716535433,
            "duration": 0.15625,
            "ticks": 946688,
            "durationTicks": 256
          },
          {
            "time": 577.96875,
            "midi": 77,
            "name": "F5",
            "velocity": 0.3858267716535433,
            "duration": 0.15625,
            "ticks": 946944,
            "durationTicks": 256
          },
          {
            "time": 578.125,
            "midi": 77,
            "name": "F5",
            "velocity": 0.3858267716535433,
            "duration": 0.15625,
            "ticks": 947200,
            "durationTicks": 256
          },
          {
            "time": 578.28125,
            "midi": 81,
            "name": "A5",
            "velocity": 0.3858267716535433,
            "duration": 0.15625,
            "ticks": 947456,
            "durationTicks": 256
          },
          {
            "time": 578.4375,
            "midi": 81,
            "name": "A5",
            "velocity": 0.3858267716535433,
            "duration": 0.15625,
            "ticks": 947712,
            "durationTicks": 256
          },
          {
            "time": 578.59375,
            "midi": 77,
            "name": "F5",
            "velocity": 0.3858267716535433,
            "duration": 0.15625,
            "ticks": 947968,
            "durationTicks": 256
          },
          {
            "time": 578.75,
            "midi": 77,
            "name": "F5",
            "velocity": 0.3858267716535433,
            "duration": 0.15625,
            "ticks": 948224,
            "durationTicks": 256
          },
          {
            "time": 578.90625,
            "midi": 81,
            "name": "A5",
            "velocity": 0.3858267716535433,
            "duration": 0.15625,
            "ticks": 948480,
            "durationTicks": 256
          },
          {
            "time": 579.0625,
            "midi": 81,
            "name": "A5",
            "velocity": 0.3858267716535433,
            "duration": 0.15625,
            "ticks": 948736,
            "durationTicks": 256
          },
          {
            "time": 579.21875,
            "midi": 77,
            "name": "F5",
            "velocity": 0.3858267716535433,
            "duration": 0.15625,
            "ticks": 948992,
            "durationTicks": 256
          },
          {
            "time": 579.375,
            "midi": 76,
            "name": "E5",
            "velocity": 0.3858267716535433,
            "duration": 0.15625,
            "ticks": 949248,
            "durationTicks": 256
          },
          {
            "time": 579.53125,
            "midi": 79,
            "name": "G5",
            "velocity": 0.3858267716535433,
            "duration": 0.15625,
            "ticks": 949504,
            "durationTicks": 256
          },
          {
            "time": 579.6875,
            "midi": 79,
            "name": "G5",
            "velocity": 0.3858267716535433,
            "duration": 0.15625,
            "ticks": 949760,
            "durationTicks": 256
          },
          {
            "time": 579.84375,
            "midi": 76,
            "name": "E5",
            "velocity": 0.3858267716535433,
            "duration": 0.15625,
            "ticks": 950016,
            "durationTicks": 256
          },
          {
            "time": 580,
            "midi": 76,
            "name": "E5",
            "velocity": 0.3858267716535433,
            "duration": 0.15625,
            "ticks": 950272,
            "durationTicks": 256
          },
          {
            "time": 580.15625,
            "midi": 79,
            "name": "G5",
            "velocity": 0.3858267716535433,
            "duration": 0.15625,
            "ticks": 950528,
            "durationTicks": 256
          },
          {
            "time": 580.3125,
            "midi": 79,
            "name": "G5",
            "velocity": 0.3858267716535433,
            "duration": 0.15625,
            "ticks": 950784,
            "durationTicks": 256
          },
          {
            "time": 580.46875,
            "midi": 76,
            "name": "E5",
            "velocity": 0.3858267716535433,
            "duration": 0.15625,
            "ticks": 951040,
            "durationTicks": 256
          },
          {
            "time": 580.625,
            "midi": 76,
            "name": "E5",
            "velocity": 0.3858267716535433,
            "duration": 0.15625,
            "ticks": 951296,
            "durationTicks": 256
          },
          {
            "time": 580.78125,
            "midi": 79,
            "name": "G5",
            "velocity": 0.3858267716535433,
            "duration": 0.15625,
            "ticks": 951552,
            "durationTicks": 256
          },
          {
            "time": 580.9375,
            "midi": 79,
            "name": "G5",
            "velocity": 0.3858267716535433,
            "duration": 0.15625,
            "ticks": 951808,
            "durationTicks": 256
          },
          {
            "time": 581.09375,
            "midi": 76,
            "name": "E5",
            "velocity": 0.3858267716535433,
            "duration": 0.15625,
            "ticks": 952064,
            "durationTicks": 256
          },
          {
            "time": 581.25,
            "midi": 74,
            "name": "D5",
            "velocity": 0.3858267716535433,
            "duration": 0.15625,
            "ticks": 952320,
            "durationTicks": 256
          },
          {
            "time": 581.40625,
            "midi": 77,
            "name": "F5",
            "velocity": 0.3858267716535433,
            "duration": 0.15625,
            "ticks": 952576,
            "durationTicks": 256
          },
          {
            "time": 581.5625,
            "midi": 77,
            "name": "F5",
            "velocity": 0.3858267716535433,
            "duration": 0.15625,
            "ticks": 952832,
            "durationTicks": 256
          },
          {
            "time": 581.71875,
            "midi": 74,
            "name": "D5",
            "velocity": 0.3858267716535433,
            "duration": 0.15625,
            "ticks": 953088,
            "durationTicks": 256
          },
          {
            "time": 581.875,
            "midi": 74,
            "name": "D5",
            "velocity": 0.3858267716535433,
            "duration": 0.15625,
            "ticks": 953344,
            "durationTicks": 256
          },
          {
            "time": 582.03125,
            "midi": 77,
            "name": "F5",
            "velocity": 0.3858267716535433,
            "duration": 0.15625,
            "ticks": 953600,
            "durationTicks": 256
          },
          {
            "time": 582.1875,
            "midi": 77,
            "name": "F5",
            "velocity": 0.3858267716535433,
            "duration": 0.15625,
            "ticks": 953856,
            "durationTicks": 256
          },
          {
            "time": 582.34375,
            "midi": 74,
            "name": "D5",
            "velocity": 0.3858267716535433,
            "duration": 0.15625,
            "ticks": 954112,
            "durationTicks": 256
          },
          {
            "time": 582.5,
            "midi": 74,
            "name": "D5",
            "velocity": 0.3858267716535433,
            "duration": 0.15625,
            "ticks": 954368,
            "durationTicks": 256
          },
          {
            "time": 582.65625,
            "midi": 77,
            "name": "F5",
            "velocity": 0.3858267716535433,
            "duration": 0.15625,
            "ticks": 954624,
            "durationTicks": 256
          },
          {
            "time": 582.8125,
            "midi": 77,
            "name": "F5",
            "velocity": 0.3858267716535433,
            "duration": 0.15625,
            "ticks": 954880,
            "durationTicks": 256
          },
          {
            "time": 582.96875,
            "midi": 74,
            "name": "D5",
            "velocity": 0.3858267716535433,
            "duration": 0.15625,
            "ticks": 955136,
            "durationTicks": 256
          },
          {
            "time": 583.125,
            "midi": 73,
            "name": "C#5",
            "velocity": 0.3858267716535433,
            "duration": 0.15625,
            "ticks": 955392,
            "durationTicks": 256
          },
          {
            "time": 583.28125,
            "midi": 76,
            "name": "E5",
            "velocity": 0.3858267716535433,
            "duration": 0.15625,
            "ticks": 955648,
            "durationTicks": 256
          },
          {
            "time": 583.4375,
            "midi": 76,
            "name": "E5",
            "velocity": 0.3858267716535433,
            "duration": 0.15625,
            "ticks": 955904,
            "durationTicks": 256
          },
          {
            "time": 583.59375,
            "midi": 73,
            "name": "C#5",
            "velocity": 0.3858267716535433,
            "duration": 0.15625,
            "ticks": 956160,
            "durationTicks": 256
          },
          {
            "time": 583.75,
            "midi": 73,
            "name": "C#5",
            "velocity": 0.3858267716535433,
            "duration": 0.15625,
            "ticks": 956416,
            "durationTicks": 256
          },
          {
            "time": 583.90625,
            "midi": 76,
            "name": "E5",
            "velocity": 0.3858267716535433,
            "duration": 0.15625,
            "ticks": 956672,
            "durationTicks": 256
          },
          {
            "time": 584.0625,
            "midi": 76,
            "name": "E5",
            "velocity": 0.3858267716535433,
            "duration": 0.15625,
            "ticks": 956928,
            "durationTicks": 256
          },
          {
            "time": 584.21875,
            "midi": 73,
            "name": "C#5",
            "velocity": 0.3858267716535433,
            "duration": 0.15625,
            "ticks": 957184,
            "durationTicks": 256
          },
          {
            "time": 584.375,
            "midi": 73,
            "name": "C#5",
            "velocity": 0.3858267716535433,
            "duration": 0.15625,
            "ticks": 957440,
            "durationTicks": 256
          },
          {
            "time": 584.53125,
            "midi": 76,
            "name": "E5",
            "velocity": 0.3858267716535433,
            "duration": 0.15625,
            "ticks": 957696,
            "durationTicks": 256
          },
          {
            "time": 584.6875,
            "midi": 76,
            "name": "E5",
            "velocity": 0.3858267716535433,
            "duration": 0.15625,
            "ticks": 957952,
            "durationTicks": 256
          },
          {
            "time": 584.84375,
            "midi": 73,
            "name": "C#5",
            "velocity": 0.3858267716535433,
            "duration": 0.15625,
            "ticks": 958208,
            "durationTicks": 256
          },
          {
            "time": 585,
            "midi": 74,
            "name": "D5",
            "velocity": 0.3858267716535433,
            "duration": 0.15625,
            "ticks": 958464,
            "durationTicks": 256
          },
          {
            "time": 585.15625,
            "midi": 77,
            "name": "F5",
            "velocity": 0.3858267716535433,
            "duration": 0.15625,
            "ticks": 958720,
            "durationTicks": 256
          },
          {
            "time": 585.3125,
            "midi": 77,
            "name": "F5",
            "velocity": 0.3858267716535433,
            "duration": 0.15625,
            "ticks": 958976,
            "durationTicks": 256
          },
          {
            "time": 585.46875,
            "midi": 74,
            "name": "D5",
            "velocity": 0.3858267716535433,
            "duration": 0.15625,
            "ticks": 959232,
            "durationTicks": 256
          },
          {
            "time": 585.625,
            "midi": 74,
            "name": "D5",
            "velocity": 0.3858267716535433,
            "duration": 0.15625,
            "ticks": 959488,
            "durationTicks": 256
          },
          {
            "time": 585.78125,
            "midi": 77,
            "name": "F5",
            "velocity": 0.3858267716535433,
            "duration": 0.15625,
            "ticks": 959744,
            "durationTicks": 256
          },
          {
            "time": 585.9375,
            "midi": 77,
            "name": "F5",
            "velocity": 0.3858267716535433,
            "duration": 0.15625,
            "ticks": 960000,
            "durationTicks": 256
          },
          {
            "time": 586.09375,
            "midi": 74,
            "name": "D5",
            "velocity": 0.3858267716535433,
            "duration": 0.15625,
            "ticks": 960256,
            "durationTicks": 256
          },
          {
            "time": 586.25,
            "midi": 74,
            "name": "D5",
            "velocity": 0.3858267716535433,
            "duration": 0.15625,
            "ticks": 960512,
            "durationTicks": 256
          },
          {
            "time": 586.40625,
            "midi": 77,
            "name": "F5",
            "velocity": 0.3858267716535433,
            "duration": 0.15625,
            "ticks": 960768,
            "durationTicks": 256
          },
          {
            "time": 586.5625,
            "midi": 77,
            "name": "F5",
            "velocity": 0.3858267716535433,
            "duration": 0.15625,
            "ticks": 961024,
            "durationTicks": 256
          },
          {
            "time": 586.71875,
            "midi": 74,
            "name": "D5",
            "velocity": 0.3858267716535433,
            "duration": 0.15625,
            "ticks": 961280,
            "durationTicks": 256
          },
          {
            "time": 586.875,
            "midi": 73,
            "name": "C#5",
            "velocity": 0.3858267716535433,
            "duration": 0.15625,
            "ticks": 961536,
            "durationTicks": 256
          },
          {
            "time": 587.03125,
            "midi": 76,
            "name": "E5",
            "velocity": 0.3858267716535433,
            "duration": 0.15625,
            "ticks": 961792,
            "durationTicks": 256
          },
          {
            "time": 587.1875,
            "midi": 76,
            "name": "E5",
            "velocity": 0.3858267716535433,
            "duration": 0.15625,
            "ticks": 962048,
            "durationTicks": 256
          },
          {
            "time": 587.34375,
            "midi": 73,
            "name": "C#5",
            "velocity": 0.3858267716535433,
            "duration": 0.15625,
            "ticks": 962304,
            "durationTicks": 256
          },
          {
            "time": 587.5,
            "midi": 73,
            "name": "C#5",
            "velocity": 0.3858267716535433,
            "duration": 0.15625,
            "ticks": 962560,
            "durationTicks": 256
          },
          {
            "time": 587.65625,
            "midi": 76,
            "name": "E5",
            "velocity": 0.3858267716535433,
            "duration": 0.15625,
            "ticks": 962816,
            "durationTicks": 256
          },
          {
            "time": 587.8125,
            "midi": 76,
            "name": "E5",
            "velocity": 0.3858267716535433,
            "duration": 0.15625,
            "ticks": 963072,
            "durationTicks": 256
          },
          {
            "time": 587.96875,
            "midi": 73,
            "name": "C#5",
            "velocity": 0.3858267716535433,
            "duration": 0.15625,
            "ticks": 963328,
            "durationTicks": 256
          },
          {
            "time": 588.125,
            "midi": 73,
            "name": "C#5",
            "velocity": 0.3858267716535433,
            "duration": 0.15625,
            "ticks": 963584,
            "durationTicks": 256
          },
          {
            "time": 588.28125,
            "midi": 76,
            "name": "E5",
            "velocity": 0.3858267716535433,
            "duration": 0.15625,
            "ticks": 963840,
            "durationTicks": 256
          },
          {
            "time": 588.4375,
            "midi": 76,
            "name": "E5",
            "velocity": 0.3858267716535433,
            "duration": 0.15625,
            "ticks": 964096,
            "durationTicks": 256
          },
          {
            "time": 588.59375,
            "midi": 73,
            "name": "C#5",
            "velocity": 0.3858267716535433,
            "duration": 0.15625,
            "ticks": 964352,
            "durationTicks": 256
          },
          {
            "time": 588.75,
            "midi": 74,
            "name": "D5",
            "velocity": 0.3858267716535433,
            "duration": 0.15625,
            "ticks": 964608,
            "durationTicks": 256
          },
          {
            "time": 588.90625,
            "midi": 77,
            "name": "F5",
            "velocity": 0.3858267716535433,
            "duration": 0.15625,
            "ticks": 964864,
            "durationTicks": 256
          },
          {
            "time": 589.0625,
            "midi": 77,
            "name": "F5",
            "velocity": 0.3858267716535433,
            "duration": 0.15625,
            "ticks": 965120,
            "durationTicks": 256
          },
          {
            "time": 589.21875,
            "midi": 74,
            "name": "D5",
            "velocity": 0.3858267716535433,
            "duration": 0.15625,
            "ticks": 965376,
            "durationTicks": 256
          },
          {
            "time": 589.375,
            "midi": 74,
            "name": "D5",
            "velocity": 0.3858267716535433,
            "duration": 0.15625,
            "ticks": 965632,
            "durationTicks": 256
          },
          {
            "time": 589.53125,
            "midi": 77,
            "name": "F5",
            "velocity": 0.3858267716535433,
            "duration": 0.15625,
            "ticks": 965888,
            "durationTicks": 256
          },
          {
            "time": 589.6875,
            "midi": 77,
            "name": "F5",
            "velocity": 0.3858267716535433,
            "duration": 0.15625,
            "ticks": 966144,
            "durationTicks": 256
          },
          {
            "time": 589.84375,
            "midi": 74,
            "name": "D5",
            "velocity": 0.3858267716535433,
            "duration": 0.15625,
            "ticks": 966400,
            "durationTicks": 256
          },
          {
            "time": 590,
            "midi": 74,
            "name": "D5",
            "velocity": 0.3858267716535433,
            "duration": 0.15625,
            "ticks": 966656,
            "durationTicks": 256
          },
          {
            "time": 590.15625,
            "midi": 77,
            "name": "F5",
            "velocity": 0.3858267716535433,
            "duration": 0.15625,
            "ticks": 966912,
            "durationTicks": 256
          },
          {
            "time": 590.3125,
            "midi": 77,
            "name": "F5",
            "velocity": 0.3858267716535433,
            "duration": 0.15625,
            "ticks": 967168,
            "durationTicks": 256
          },
          {
            "time": 590.46875,
            "midi": 74,
            "name": "D5",
            "velocity": 0.3858267716535433,
            "duration": 0.15625,
            "ticks": 967424,
            "durationTicks": 256
          },
          {
            "time": 590.625,
            "midi": 76,
            "name": "E5",
            "velocity": 0.3858267716535433,
            "duration": 0.15625,
            "ticks": 967680,
            "durationTicks": 256
          },
          {
            "time": 590.78125,
            "midi": 79,
            "name": "G5",
            "velocity": 0.3858267716535433,
            "duration": 0.15625,
            "ticks": 967936,
            "durationTicks": 256
          },
          {
            "time": 590.9375,
            "midi": 79,
            "name": "G5",
            "velocity": 0.3858267716535433,
            "duration": 0.15625,
            "ticks": 968192,
            "durationTicks": 256
          },
          {
            "time": 591.09375,
            "midi": 76,
            "name": "E5",
            "velocity": 0.3858267716535433,
            "duration": 0.15625,
            "ticks": 968448,
            "durationTicks": 256
          },
          {
            "time": 591.25,
            "midi": 76,
            "name": "E5",
            "velocity": 0.3858267716535433,
            "duration": 0.15625,
            "ticks": 968704,
            "durationTicks": 256
          },
          {
            "time": 591.40625,
            "midi": 79,
            "name": "G5",
            "velocity": 0.3858267716535433,
            "duration": 0.15625,
            "ticks": 968960,
            "durationTicks": 256
          },
          {
            "time": 591.5625,
            "midi": 79,
            "name": "G5",
            "velocity": 0.3858267716535433,
            "duration": 0.15625,
            "ticks": 969216,
            "durationTicks": 256
          },
          {
            "time": 591.71875,
            "midi": 76,
            "name": "E5",
            "velocity": 0.3858267716535433,
            "duration": 0.15625,
            "ticks": 969472,
            "durationTicks": 256
          },
          {
            "time": 591.875,
            "midi": 76,
            "name": "E5",
            "velocity": 0.3858267716535433,
            "duration": 0.15625,
            "ticks": 969728,
            "durationTicks": 256
          },
          {
            "time": 592.03125,
            "midi": 79,
            "name": "G5",
            "velocity": 0.3858267716535433,
            "duration": 0.15625,
            "ticks": 969984,
            "durationTicks": 256
          },
          {
            "time": 592.1875,
            "midi": 79,
            "name": "G5",
            "velocity": 0.3858267716535433,
            "duration": 0.15625,
            "ticks": 970240,
            "durationTicks": 256
          },
          {
            "time": 592.34375,
            "midi": 76,
            "name": "E5",
            "velocity": 0.3858267716535433,
            "duration": 0.15625,
            "ticks": 970496,
            "durationTicks": 256
          },
          {
            "time": 592.5,
            "midi": 77,
            "name": "F5",
            "velocity": 0.3858267716535433,
            "duration": 0.15625,
            "ticks": 970752,
            "durationTicks": 256
          },
          {
            "time": 592.65625,
            "midi": 81,
            "name": "A5",
            "velocity": 0.3858267716535433,
            "duration": 0.15625,
            "ticks": 971008,
            "durationTicks": 256
          },
          {
            "time": 592.8125,
            "midi": 81,
            "name": "A5",
            "velocity": 0.3858267716535433,
            "duration": 0.15625,
            "ticks": 971264,
            "durationTicks": 256
          },
          {
            "time": 592.96875,
            "midi": 77,
            "name": "F5",
            "velocity": 0.3858267716535433,
            "duration": 0.15625,
            "ticks": 971520,
            "durationTicks": 256
          },
          {
            "time": 593.125,
            "midi": 77,
            "name": "F5",
            "velocity": 0.3858267716535433,
            "duration": 0.15625,
            "ticks": 971776,
            "durationTicks": 256
          },
          {
            "time": 593.28125,
            "midi": 81,
            "name": "A5",
            "velocity": 0.3858267716535433,
            "duration": 0.15625,
            "ticks": 972032,
            "durationTicks": 256
          },
          {
            "time": 593.4375,
            "midi": 81,
            "name": "A5",
            "velocity": 0.3858267716535433,
            "duration": 0.15625,
            "ticks": 972288,
            "durationTicks": 256
          },
          {
            "time": 593.59375,
            "midi": 77,
            "name": "F5",
            "velocity": 0.3858267716535433,
            "duration": 0.15625,
            "ticks": 972544,
            "durationTicks": 256
          },
          {
            "time": 593.75,
            "midi": 77,
            "name": "F5",
            "velocity": 0.3858267716535433,
            "duration": 0.15625,
            "ticks": 972800,
            "durationTicks": 256
          },
          {
            "time": 593.90625,
            "midi": 81,
            "name": "A5",
            "velocity": 0.3858267716535433,
            "duration": 0.15625,
            "ticks": 973056,
            "durationTicks": 256
          },
          {
            "time": 594.0625,
            "midi": 81,
            "name": "A5",
            "velocity": 0.3858267716535433,
            "duration": 0.15625,
            "ticks": 973312,
            "durationTicks": 256
          },
          {
            "time": 594.21875,
            "midi": 77,
            "name": "F5",
            "velocity": 0.3858267716535433,
            "duration": 0.15625,
            "ticks": 973568,
            "durationTicks": 256
          },
          {
            "time": 594.375,
            "midi": 76,
            "name": "E5",
            "velocity": 0.3858267716535433,
            "duration": 0.15625,
            "ticks": 973824,
            "durationTicks": 256
          },
          {
            "time": 594.53125,
            "midi": 79,
            "name": "G5",
            "velocity": 0.3858267716535433,
            "duration": 0.15625,
            "ticks": 974080,
            "durationTicks": 256
          },
          {
            "time": 594.6875,
            "midi": 79,
            "name": "G5",
            "velocity": 0.3858267716535433,
            "duration": 0.15625,
            "ticks": 974336,
            "durationTicks": 256
          },
          {
            "time": 594.84375,
            "midi": 76,
            "name": "E5",
            "velocity": 0.3858267716535433,
            "duration": 0.15625,
            "ticks": 974592,
            "durationTicks": 256
          },
          {
            "time": 595,
            "midi": 76,
            "name": "E5",
            "velocity": 0.3858267716535433,
            "duration": 0.15625,
            "ticks": 974848,
            "durationTicks": 256
          },
          {
            "time": 595.15625,
            "midi": 79,
            "name": "G5",
            "velocity": 0.3858267716535433,
            "duration": 0.15625,
            "ticks": 975104,
            "durationTicks": 256
          },
          {
            "time": 595.3125,
            "midi": 79,
            "name": "G5",
            "velocity": 0.3858267716535433,
            "duration": 0.15625,
            "ticks": 975360,
            "durationTicks": 256
          },
          {
            "time": 595.46875,
            "midi": 76,
            "name": "E5",
            "velocity": 0.3858267716535433,
            "duration": 0.15625,
            "ticks": 975616,
            "durationTicks": 256
          },
          {
            "time": 595.625,
            "midi": 76,
            "name": "E5",
            "velocity": 0.3858267716535433,
            "duration": 0.15625,
            "ticks": 975872,
            "durationTicks": 256
          },
          {
            "time": 595.78125,
            "midi": 79,
            "name": "G5",
            "velocity": 0.3858267716535433,
            "duration": 0.15625,
            "ticks": 976128,
            "durationTicks": 256
          },
          {
            "time": 595.9375,
            "midi": 79,
            "name": "G5",
            "velocity": 0.3858267716535433,
            "duration": 0.15625,
            "ticks": 976384,
            "durationTicks": 256
          },
          {
            "time": 596.09375,
            "midi": 76,
            "name": "E5",
            "velocity": 0.3858267716535433,
            "duration": 0.15625,
            "ticks": 976640,
            "durationTicks": 256
          },
          {
            "time": 596.25,
            "midi": 69,
            "name": "A4",
            "velocity": 0.3858267716535433,
            "duration": 0.15625,
            "ticks": 976896,
            "durationTicks": 256
          },
          {
            "time": 596.40625,
            "midi": 77,
            "name": "F5",
            "velocity": 0.3858267716535433,
            "duration": 0.15625,
            "ticks": 977152,
            "durationTicks": 256
          },
          {
            "time": 596.5625,
            "midi": 81,
            "name": "A5",
            "velocity": 0.3858267716535433,
            "duration": 0.15625,
            "ticks": 977408,
            "durationTicks": 256
          },
          {
            "time": 596.71875,
            "midi": 77,
            "name": "F5",
            "velocity": 0.3858267716535433,
            "duration": 0.15625,
            "ticks": 977664,
            "durationTicks": 256
          },
          {
            "time": 596.875,
            "midi": 79,
            "name": "G5",
            "velocity": 0.3858267716535433,
            "duration": 0.15625,
            "ticks": 977920,
            "durationTicks": 256
          },
          {
            "time": 597.03125,
            "midi": 76,
            "name": "E5",
            "velocity": 0.3858267716535433,
            "duration": 0.15625,
            "ticks": 978176,
            "durationTicks": 256
          },
          {
            "time": 597.1875,
            "midi": 79,
            "name": "G5",
            "velocity": 0.3858267716535433,
            "duration": 0.15625,
            "ticks": 978432,
            "durationTicks": 256
          },
          {
            "time": 597.34375,
            "midi": 76,
            "name": "E5",
            "velocity": 0.3858267716535433,
            "duration": 0.15625,
            "ticks": 978688,
            "durationTicks": 256
          },
          {
            "time": 597.5,
            "midi": 73,
            "name": "C#5",
            "velocity": 0.3858267716535433,
            "duration": 0.15625,
            "ticks": 978944,
            "durationTicks": 256
          },
          {
            "time": 597.65625,
            "midi": 76,
            "name": "E5",
            "velocity": 0.3858267716535433,
            "duration": 0.15625,
            "ticks": 979200,
            "durationTicks": 256
          },
          {
            "time": 597.8125,
            "midi": 73,
            "name": "C#5",
            "velocity": 0.3858267716535433,
            "duration": 0.15625,
            "ticks": 979456,
            "durationTicks": 256
          },
          {
            "time": 597.96875,
            "midi": 76,
            "name": "E5",
            "velocity": 0.3858267716535433,
            "duration": 0.15625,
            "ticks": 979712,
            "durationTicks": 256
          },
          {
            "time": 598.125,
            "midi": 74,
            "name": "D5",
            "velocity": 0.3858267716535433,
            "duration": 1.875,
            "ticks": 979968,
            "durationTicks": 3072
          },
          {
            "time": 600,
            "midi": 74,
            "name": "D5",
            "velocity": 0.3858267716535433,
            "duration": 0.625,
            "ticks": 983040,
            "durationTicks": 1024
          },
          {
            "time": 600.625,
            "midi": 62,
            "name": "D4",
            "velocity": 0.3858267716535433,
            "duration": 0.625,
            "ticks": 984064,
            "durationTicks": 1024
          },
          {
            "time": 601.25,
            "midi": 74,
            "name": "D5",
            "velocity": 0.3858267716535433,
            "duration": 0.625,
            "ticks": 985088,
            "durationTicks": 1024
          },
          {
            "time": 601.875,
            "midi": 73,
            "name": "C#5",
            "velocity": 0.3858267716535433,
            "duration": 0.15625,
            "ticks": 986112,
            "durationTicks": 256
          },
          {
            "time": 602.03125,
            "midi": 76,
            "name": "E5",
            "velocity": 0.3858267716535433,
            "duration": 0.15625,
            "ticks": 986368,
            "durationTicks": 256
          },
          {
            "time": 602.1875,
            "midi": 76,
            "name": "E5",
            "velocity": 0.3858267716535433,
            "duration": 0.15625,
            "ticks": 986624,
            "durationTicks": 256
          },
          {
            "time": 602.34375,
            "midi": 73,
            "name": "C#5",
            "velocity": 0.3858267716535433,
            "duration": 0.15625,
            "ticks": 986880,
            "durationTicks": 256
          },
          {
            "time": 602.5,
            "midi": 73,
            "name": "C#5",
            "velocity": 0.3858267716535433,
            "duration": 0.15625,
            "ticks": 987136,
            "durationTicks": 256
          },
          {
            "time": 602.65625,
            "midi": 76,
            "name": "E5",
            "velocity": 0.3858267716535433,
            "duration": 0.15625,
            "ticks": 987392,
            "durationTicks": 256
          },
          {
            "time": 602.8125,
            "midi": 76,
            "name": "E5",
            "velocity": 0.3858267716535433,
            "duration": 0.15625,
            "ticks": 987648,
            "durationTicks": 256
          },
          {
            "time": 602.96875,
            "midi": 73,
            "name": "C#5",
            "velocity": 0.3858267716535433,
            "duration": 0.15625,
            "ticks": 987904,
            "durationTicks": 256
          },
          {
            "time": 603.125,
            "midi": 73,
            "name": "C#5",
            "velocity": 0.3858267716535433,
            "duration": 0.15625,
            "ticks": 988160,
            "durationTicks": 256
          },
          {
            "time": 603.28125,
            "midi": 76,
            "name": "E5",
            "velocity": 0.3858267716535433,
            "duration": 0.15625,
            "ticks": 988416,
            "durationTicks": 256
          },
          {
            "time": 603.4375,
            "midi": 76,
            "name": "E5",
            "velocity": 0.3858267716535433,
            "duration": 0.15625,
            "ticks": 988672,
            "durationTicks": 256
          },
          {
            "time": 603.59375,
            "midi": 73,
            "name": "C#5",
            "velocity": 0.3858267716535433,
            "duration": 0.15625,
            "ticks": 988928,
            "durationTicks": 256
          },
          {
            "time": 603.75,
            "midi": 74,
            "name": "D5",
            "velocity": 0.3858267716535433,
            "duration": 0.625,
            "ticks": 989184,
            "durationTicks": 1024
          },
          {
            "time": 604.375,
            "midi": 62,
            "name": "D4",
            "velocity": 0.3858267716535433,
            "duration": 0.625,
            "ticks": 990208,
            "durationTicks": 1024
          },
          {
            "time": 605,
            "midi": 74,
            "name": "D5",
            "velocity": 0.3858267716535433,
            "duration": 0.625,
            "ticks": 991232,
            "durationTicks": 1024
          },
          {
            "time": 605.625,
            "midi": 76,
            "name": "E5",
            "velocity": 0.3858267716535433,
            "duration": 0.15625,
            "ticks": 992256,
            "durationTicks": 256
          },
          {
            "time": 605.78125,
            "midi": 79,
            "name": "G5",
            "velocity": 0.3858267716535433,
            "duration": 0.15625,
            "ticks": 992512,
            "durationTicks": 256
          },
          {
            "time": 605.9375,
            "midi": 79,
            "name": "G5",
            "velocity": 0.3858267716535433,
            "duration": 0.15625,
            "ticks": 992768,
            "durationTicks": 256
          },
          {
            "time": 606.09375,
            "midi": 76,
            "name": "E5",
            "velocity": 0.3858267716535433,
            "duration": 0.15625,
            "ticks": 993024,
            "durationTicks": 256
          },
          {
            "time": 606.25,
            "midi": 76,
            "name": "E5",
            "velocity": 0.3858267716535433,
            "duration": 0.15625,
            "ticks": 993280,
            "durationTicks": 256
          },
          {
            "time": 606.40625,
            "midi": 79,
            "name": "G5",
            "velocity": 0.3858267716535433,
            "duration": 0.15625,
            "ticks": 993536,
            "durationTicks": 256
          },
          {
            "time": 606.5625,
            "midi": 79,
            "name": "G5",
            "velocity": 0.3858267716535433,
            "duration": 0.15625,
            "ticks": 993792,
            "durationTicks": 256
          },
          {
            "time": 606.71875,
            "midi": 76,
            "name": "E5",
            "velocity": 0.3858267716535433,
            "duration": 0.15625,
            "ticks": 994048,
            "durationTicks": 256
          },
          {
            "time": 606.875,
            "midi": 76,
            "name": "E5",
            "velocity": 0.3858267716535433,
            "duration": 0.15625,
            "ticks": 994304,
            "durationTicks": 256
          },
          {
            "time": 607.03125,
            "midi": 79,
            "name": "G5",
            "velocity": 0.3858267716535433,
            "duration": 0.15625,
            "ticks": 994560,
            "durationTicks": 256
          },
          {
            "time": 607.1875,
            "midi": 79,
            "name": "G5",
            "velocity": 0.3858267716535433,
            "duration": 0.15625,
            "ticks": 994816,
            "durationTicks": 256
          },
          {
            "time": 607.34375,
            "midi": 76,
            "name": "E5",
            "velocity": 0.3858267716535433,
            "duration": 0.15625,
            "ticks": 995072,
            "durationTicks": 256
          },
          {
            "time": 607.5,
            "midi": 77,
            "name": "F5",
            "velocity": 0.3858267716535433,
            "duration": 0.625,
            "ticks": 995328,
            "durationTicks": 1024
          },
          {
            "time": 608.125,
            "midi": 65,
            "name": "F4",
            "velocity": 0.3858267716535433,
            "duration": 0.625,
            "ticks": 996352,
            "durationTicks": 1024
          },
          {
            "time": 608.75,
            "midi": 77,
            "name": "F5",
            "velocity": 0.3858267716535433,
            "duration": 0.625,
            "ticks": 997376,
            "durationTicks": 1024
          },
          {
            "time": 609.375,
            "midi": 76,
            "name": "E5",
            "velocity": 0.3858267716535433,
            "duration": 0.15625,
            "ticks": 998400,
            "durationTicks": 256
          },
          {
            "time": 609.53125,
            "midi": 79,
            "name": "G5",
            "velocity": 0.3858267716535433,
            "duration": 0.15625,
            "ticks": 998656,
            "durationTicks": 256
          },
          {
            "time": 609.6875,
            "midi": 79,
            "name": "G5",
            "velocity": 0.3858267716535433,
            "duration": 0.15625,
            "ticks": 998912,
            "durationTicks": 256
          },
          {
            "time": 609.84375,
            "midi": 76,
            "name": "E5",
            "velocity": 0.3858267716535433,
            "duration": 0.15625,
            "ticks": 999168,
            "durationTicks": 256
          },
          {
            "time": 610,
            "midi": 76,
            "name": "E5",
            "velocity": 0.3858267716535433,
            "duration": 0.15625,
            "ticks": 999424,
            "durationTicks": 256
          },
          {
            "time": 610.15625,
            "midi": 79,
            "name": "G5",
            "velocity": 0.3858267716535433,
            "duration": 0.15625,
            "ticks": 999680,
            "durationTicks": 256
          },
          {
            "time": 610.3125,
            "midi": 79,
            "name": "G5",
            "velocity": 0.3858267716535433,
            "duration": 0.15625,
            "ticks": 999936,
            "durationTicks": 256
          },
          {
            "time": 610.46875,
            "midi": 76,
            "name": "E5",
            "velocity": 0.3858267716535433,
            "duration": 0.15625,
            "ticks": 1000192,
            "durationTicks": 256
          },
          {
            "time": 610.625,
            "midi": 76,
            "name": "E5",
            "velocity": 0.3858267716535433,
            "duration": 0.15625,
            "ticks": 1000448,
            "durationTicks": 256
          },
          {
            "time": 610.78125,
            "midi": 79,
            "name": "G5",
            "velocity": 0.3858267716535433,
            "duration": 0.15625,
            "ticks": 1000704,
            "durationTicks": 256
          },
          {
            "time": 610.9375,
            "midi": 79,
            "name": "G5",
            "velocity": 0.3858267716535433,
            "duration": 0.15625,
            "ticks": 1000960,
            "durationTicks": 256
          },
          {
            "time": 611.09375,
            "midi": 76,
            "name": "E5",
            "velocity": 0.3858267716535433,
            "duration": 0.15625,
            "ticks": 1001216,
            "durationTicks": 256
          },
          {
            "time": 611.25,
            "midi": 74,
            "name": "D5",
            "velocity": 0.3858267716535433,
            "duration": 0.625,
            "ticks": 1001472,
            "durationTicks": 1024
          },
          {
            "time": 611.875,
            "midi": 62,
            "name": "D4",
            "velocity": 0.3858267716535433,
            "duration": 0.625,
            "ticks": 1002496,
            "durationTicks": 1024
          },
          {
            "time": 612.5,
            "midi": 74,
            "name": "D5",
            "velocity": 0.3858267716535433,
            "duration": 0.625,
            "ticks": 1003520,
            "durationTicks": 1024
          },
          {
            "time": 613.125,
            "midi": 73,
            "name": "C#5",
            "velocity": 0.3858267716535433,
            "duration": 0.15625,
            "ticks": 1004544,
            "durationTicks": 256
          },
          {
            "time": 613.28125,
            "midi": 76,
            "name": "E5",
            "velocity": 0.3858267716535433,
            "duration": 0.15625,
            "ticks": 1004800,
            "durationTicks": 256
          },
          {
            "time": 613.4375,
            "midi": 76,
            "name": "E5",
            "velocity": 0.3858267716535433,
            "duration": 0.15625,
            "ticks": 1005056,
            "durationTicks": 256
          },
          {
            "time": 613.59375,
            "midi": 73,
            "name": "C#5",
            "velocity": 0.3858267716535433,
            "duration": 0.15625,
            "ticks": 1005312,
            "durationTicks": 256
          },
          {
            "time": 613.75,
            "midi": 73,
            "name": "C#5",
            "velocity": 0.3858267716535433,
            "duration": 0.15625,
            "ticks": 1005568,
            "durationTicks": 256
          },
          {
            "time": 613.90625,
            "midi": 76,
            "name": "E5",
            "velocity": 0.3858267716535433,
            "duration": 0.15625,
            "ticks": 1005824,
            "durationTicks": 256
          },
          {
            "time": 614.0625,
            "midi": 76,
            "name": "E5",
            "velocity": 0.3858267716535433,
            "duration": 0.15625,
            "ticks": 1006080,
            "durationTicks": 256
          },
          {
            "time": 614.21875,
            "midi": 73,
            "name": "C#5",
            "velocity": 0.3858267716535433,
            "duration": 0.15625,
            "ticks": 1006336,
            "durationTicks": 256
          },
          {
            "time": 614.375,
            "midi": 73,
            "name": "C#5",
            "velocity": 0.3858267716535433,
            "duration": 0.15625,
            "ticks": 1006592,
            "durationTicks": 256
          },
          {
            "time": 614.53125,
            "midi": 76,
            "name": "E5",
            "velocity": 0.3858267716535433,
            "duration": 0.15625,
            "ticks": 1006848,
            "durationTicks": 256
          },
          {
            "time": 614.6875,
            "midi": 76,
            "name": "E5",
            "velocity": 0.3858267716535433,
            "duration": 0.15625,
            "ticks": 1007104,
            "durationTicks": 256
          },
          {
            "time": 614.84375,
            "midi": 73,
            "name": "C#5",
            "velocity": 0.3858267716535433,
            "duration": 0.15625,
            "ticks": 1007360,
            "durationTicks": 256
          },
          {
            "time": 615,
            "midi": 74,
            "name": "D5",
            "velocity": 0.3858267716535433,
            "duration": 0.625,
            "ticks": 1007616,
            "durationTicks": 1024
          },
          {
            "time": 615.625,
            "midi": 62,
            "name": "D4",
            "velocity": 0.3858267716535433,
            "duration": 0.625,
            "ticks": 1008640,
            "durationTicks": 1024
          },
          {
            "time": 616.25,
            "midi": 74,
            "name": "D5",
            "velocity": 0.3858267716535433,
            "duration": 0.625,
            "ticks": 1009664,
            "durationTicks": 1024
          },
          {
            "time": 616.875,
            "midi": 73,
            "name": "C#5",
            "velocity": 0.3858267716535433,
            "duration": 0.15625,
            "ticks": 1010688,
            "durationTicks": 256
          },
          {
            "time": 617.03125,
            "midi": 76,
            "name": "E5",
            "velocity": 0.3858267716535433,
            "duration": 0.15625,
            "ticks": 1010944,
            "durationTicks": 256
          },
          {
            "time": 617.1875,
            "midi": 76,
            "name": "E5",
            "velocity": 0.3858267716535433,
            "duration": 0.15625,
            "ticks": 1011200,
            "durationTicks": 256
          },
          {
            "time": 617.34375,
            "midi": 73,
            "name": "C#5",
            "velocity": 0.3858267716535433,
            "duration": 0.15625,
            "ticks": 1011456,
            "durationTicks": 256
          },
          {
            "time": 617.5,
            "midi": 73,
            "name": "C#5",
            "velocity": 0.3858267716535433,
            "duration": 0.15625,
            "ticks": 1011712,
            "durationTicks": 256
          },
          {
            "time": 617.65625,
            "midi": 76,
            "name": "E5",
            "velocity": 0.3858267716535433,
            "duration": 0.15625,
            "ticks": 1011968,
            "durationTicks": 256
          },
          {
            "time": 617.8125,
            "midi": 76,
            "name": "E5",
            "velocity": 0.3858267716535433,
            "duration": 0.15625,
            "ticks": 1012224,
            "durationTicks": 256
          },
          {
            "time": 617.96875,
            "midi": 73,
            "name": "C#5",
            "velocity": 0.3858267716535433,
            "duration": 0.15625,
            "ticks": 1012480,
            "durationTicks": 256
          },
          {
            "time": 618.125,
            "midi": 73,
            "name": "C#5",
            "velocity": 0.3858267716535433,
            "duration": 0.15625,
            "ticks": 1012736,
            "durationTicks": 256
          },
          {
            "time": 618.28125,
            "midi": 76,
            "name": "E5",
            "velocity": 0.3858267716535433,
            "duration": 0.15625,
            "ticks": 1012992,
            "durationTicks": 256
          },
          {
            "time": 618.4375,
            "midi": 76,
            "name": "E5",
            "velocity": 0.3858267716535433,
            "duration": 0.15625,
            "ticks": 1013248,
            "durationTicks": 256
          },
          {
            "time": 618.59375,
            "midi": 73,
            "name": "C#5",
            "velocity": 0.3858267716535433,
            "duration": 0.15625,
            "ticks": 1013504,
            "durationTicks": 256
          },
          {
            "time": 618.75,
            "midi": 74,
            "name": "D5",
            "velocity": 0.3858267716535433,
            "duration": 0.625,
            "ticks": 1013760,
            "durationTicks": 1024
          },
          {
            "time": 619.375,
            "midi": 62,
            "name": "D4",
            "velocity": 0.3858267716535433,
            "duration": 0.625,
            "ticks": 1014784,
            "durationTicks": 1024
          },
          {
            "time": 620,
            "midi": 74,
            "name": "D5",
            "velocity": 0.3858267716535433,
            "duration": 0.625,
            "ticks": 1015808,
            "durationTicks": 1024
          },
          {
            "time": 620.625,
            "midi": 76,
            "name": "E5",
            "velocity": 0.3858267716535433,
            "duration": 0.15625,
            "ticks": 1016832,
            "durationTicks": 256
          },
          {
            "time": 620.78125,
            "midi": 79,
            "name": "G5",
            "velocity": 0.3858267716535433,
            "duration": 0.15625,
            "ticks": 1017088,
            "durationTicks": 256
          },
          {
            "time": 620.9375,
            "midi": 79,
            "name": "G5",
            "velocity": 0.3858267716535433,
            "duration": 0.15625,
            "ticks": 1017344,
            "durationTicks": 256
          },
          {
            "time": 621.09375,
            "midi": 76,
            "name": "E5",
            "velocity": 0.3858267716535433,
            "duration": 0.15625,
            "ticks": 1017600,
            "durationTicks": 256
          },
          {
            "time": 621.25,
            "midi": 76,
            "name": "E5",
            "velocity": 0.3858267716535433,
            "duration": 0.15625,
            "ticks": 1017856,
            "durationTicks": 256
          },
          {
            "time": 621.40625,
            "midi": 79,
            "name": "G5",
            "velocity": 0.3858267716535433,
            "duration": 0.15625,
            "ticks": 1018112,
            "durationTicks": 256
          },
          {
            "time": 621.5625,
            "midi": 79,
            "name": "G5",
            "velocity": 0.3858267716535433,
            "duration": 0.15625,
            "ticks": 1018368,
            "durationTicks": 256
          },
          {
            "time": 621.71875,
            "midi": 76,
            "name": "E5",
            "velocity": 0.3858267716535433,
            "duration": 0.15625,
            "ticks": 1018624,
            "durationTicks": 256
          },
          {
            "time": 621.875,
            "midi": 76,
            "name": "E5",
            "velocity": 0.3858267716535433,
            "duration": 0.15625,
            "ticks": 1018880,
            "durationTicks": 256
          },
          {
            "time": 622.03125,
            "midi": 79,
            "name": "G5",
            "velocity": 0.3858267716535433,
            "duration": 0.15625,
            "ticks": 1019136,
            "durationTicks": 256
          },
          {
            "time": 622.1875,
            "midi": 79,
            "name": "G5",
            "velocity": 0.3858267716535433,
            "duration": 0.15625,
            "ticks": 1019392,
            "durationTicks": 256
          },
          {
            "time": 622.34375,
            "midi": 76,
            "name": "E5",
            "velocity": 0.3858267716535433,
            "duration": 0.15625,
            "ticks": 1019648,
            "durationTicks": 256
          },
          {
            "time": 622.5,
            "midi": 77,
            "name": "F5",
            "velocity": 0.3858267716535433,
            "duration": 0.625,
            "ticks": 1019904,
            "durationTicks": 1024
          },
          {
            "time": 623.125,
            "midi": 65,
            "name": "F4",
            "velocity": 0.3858267716535433,
            "duration": 0.625,
            "ticks": 1020928,
            "durationTicks": 1024
          },
          {
            "time": 623.75,
            "midi": 77,
            "name": "F5",
            "velocity": 0.3858267716535433,
            "duration": 0.625,
            "ticks": 1021952,
            "durationTicks": 1024
          },
          {
            "time": 624.375,
            "midi": 76,
            "name": "E5",
            "velocity": 0.3858267716535433,
            "duration": 0.15625,
            "ticks": 1022976,
            "durationTicks": 256
          },
          {
            "time": 624.53125,
            "midi": 79,
            "name": "G5",
            "velocity": 0.3858267716535433,
            "duration": 0.15625,
            "ticks": 1023232,
            "durationTicks": 256
          },
          {
            "time": 624.6875,
            "midi": 79,
            "name": "G5",
            "velocity": 0.3858267716535433,
            "duration": 0.15625,
            "ticks": 1023488,
            "durationTicks": 256
          },
          {
            "time": 624.84375,
            "midi": 76,
            "name": "E5",
            "velocity": 0.3858267716535433,
            "duration": 0.15625,
            "ticks": 1023744,
            "durationTicks": 256
          },
          {
            "time": 625,
            "midi": 76,
            "name": "E5",
            "velocity": 0.3858267716535433,
            "duration": 0.15625,
            "ticks": 1024000,
            "durationTicks": 256
          },
          {
            "time": 625.15625,
            "midi": 79,
            "name": "G5",
            "velocity": 0.3858267716535433,
            "duration": 0.15625,
            "ticks": 1024256,
            "durationTicks": 256
          },
          {
            "time": 625.3125,
            "midi": 79,
            "name": "G5",
            "velocity": 0.3858267716535433,
            "duration": 0.15625,
            "ticks": 1024512,
            "durationTicks": 256
          },
          {
            "time": 625.46875,
            "midi": 76,
            "name": "E5",
            "velocity": 0.3858267716535433,
            "duration": 0.15625,
            "ticks": 1024768,
            "durationTicks": 256
          },
          {
            "time": 625.625,
            "midi": 76,
            "name": "E5",
            "velocity": 0.3858267716535433,
            "duration": 0.15625,
            "ticks": 1025024,
            "durationTicks": 256
          },
          {
            "time": 625.78125,
            "midi": 79,
            "name": "G5",
            "velocity": 0.3858267716535433,
            "duration": 0.15625,
            "ticks": 1025280,
            "durationTicks": 256
          },
          {
            "time": 625.9375,
            "midi": 79,
            "name": "G5",
            "velocity": 0.3858267716535433,
            "duration": 0.15625,
            "ticks": 1025536,
            "durationTicks": 256
          },
          {
            "time": 626.09375,
            "midi": 76,
            "name": "E5",
            "velocity": 0.3858267716535433,
            "duration": 0.15625,
            "ticks": 1025792,
            "durationTicks": 256
          },
          {
            "time": 626.25,
            "midi": 69,
            "name": "A4",
            "velocity": 0.3858267716535433,
            "duration": 0.15625,
            "ticks": 1026048,
            "durationTicks": 256
          },
          {
            "time": 626.40625,
            "midi": 77,
            "name": "F5",
            "velocity": 0.3858267716535433,
            "duration": 0.15625,
            "ticks": 1026304,
            "durationTicks": 256
          },
          {
            "time": 626.5625,
            "midi": 81,
            "name": "A5",
            "velocity": 0.3858267716535433,
            "duration": 0.15625,
            "ticks": 1026560,
            "durationTicks": 256
          },
          {
            "time": 626.71875,
            "midi": 77,
            "name": "F5",
            "velocity": 0.3858267716535433,
            "duration": 0.15625,
            "ticks": 1026816,
            "durationTicks": 256
          },
          {
            "time": 626.875,
            "midi": 76,
            "name": "E5",
            "velocity": 0.3858267716535433,
            "duration": 0.15625,
            "ticks": 1027072,
            "durationTicks": 256
          },
          {
            "time": 627.03125,
            "midi": 79,
            "name": "G5",
            "velocity": 0.3858267716535433,
            "duration": 0.15625,
            "ticks": 1027328,
            "durationTicks": 256
          },
          {
            "time": 627.1875,
            "midi": 76,
            "name": "E5",
            "velocity": 0.3858267716535433,
            "duration": 0.15625,
            "ticks": 1027584,
            "durationTicks": 256
          },
          {
            "time": 627.34375,
            "midi": 79,
            "name": "G5",
            "velocity": 0.3858267716535433,
            "duration": 0.15625,
            "ticks": 1027840,
            "durationTicks": 256
          },
          {
            "time": 627.5,
            "midi": 73,
            "name": "C#5",
            "velocity": 0.3858267716535433,
            "duration": 0.15625,
            "ticks": 1028096,
            "durationTicks": 256
          },
          {
            "time": 627.65625,
            "midi": 76,
            "name": "E5",
            "velocity": 0.3858267716535433,
            "duration": 0.15625,
            "ticks": 1028352,
            "durationTicks": 256
          },
          {
            "time": 627.8125,
            "midi": 73,
            "name": "C#5",
            "velocity": 0.3858267716535433,
            "duration": 0.15625,
            "ticks": 1028608,
            "durationTicks": 256
          },
          {
            "time": 627.96875,
            "midi": 76,
            "name": "E5",
            "velocity": 0.3858267716535433,
            "duration": 0.15625,
            "ticks": 1028864,
            "durationTicks": 256
          },
          {
            "time": 628.125,
            "midi": 74,
            "name": "D5",
            "velocity": 0.3858267716535433,
            "duration": 1.875,
            "ticks": 1029120,
            "durationTicks": 3072
          },
          {
            "time": 630,
            "midi": 74,
            "name": "D5",
            "velocity": 0.3858267716535433,
            "duration": 0.625,
            "ticks": 1032192,
            "durationTicks": 1024
          },
          {
            "time": 630.625,
            "midi": 74,
            "name": "D5",
            "velocity": 0.3858267716535433,
            "duration": 0.9375,
            "ticks": 1033216,
            "durationTicks": 1536
          },
          {
            "time": 631.5625,
            "midi": 74,
            "name": "D5",
            "velocity": 0.3858267716535433,
            "duration": 0.3125,
            "ticks": 1034752,
            "durationTicks": 512
          },
          {
            "time": 631.875,
            "midi": 74,
            "name": "D5",
            "velocity": 0.3858267716535433,
            "duration": 0.625,
            "ticks": 1035264,
            "durationTicks": 1024
          },
          {
            "time": 632.5,
            "midi": 74,
            "name": "D5",
            "velocity": 0.3858267716535433,
            "duration": 0.9375,
            "ticks": 1036288,
            "durationTicks": 1536
          },
          {
            "time": 633.4375,
            "midi": 74,
            "name": "D5",
            "velocity": 0.3858267716535433,
            "duration": 0.3125,
            "ticks": 1037824,
            "durationTicks": 512
          },
          {
            "time": 633.75,
            "midi": 73,
            "name": "C#5",
            "velocity": 0.3858267716535433,
            "duration": 0.625,
            "ticks": 1038336,
            "durationTicks": 1024
          },
          {
            "time": 634.375,
            "midi": 73,
            "name": "C#5",
            "velocity": 0.3858267716535433,
            "duration": 0.9375,
            "ticks": 1039360,
            "durationTicks": 1536
          },
          {
            "time": 635.3125,
            "midi": 73,
            "name": "C#5",
            "velocity": 0.3858267716535433,
            "duration": 0.3125,
            "ticks": 1040896,
            "durationTicks": 512
          },
          {
            "time": 635.625,
            "midi": 74,
            "name": "D5",
            "velocity": 0.3858267716535433,
            "duration": 0.625,
            "ticks": 1041408,
            "durationTicks": 1024
          },
          {
            "time": 637.5,
            "midi": 62,
            "name": "D4",
            "velocity": 0.3858267716535433,
            "duration": 0.625,
            "ticks": 1044480,
            "durationTicks": 1024
          },
          {
            "time": 638.125,
            "midi": 62,
            "name": "D4",
            "velocity": 0.3858267716535433,
            "duration": 0.9375,
            "ticks": 1045504,
            "durationTicks": 1536
          },
          {
            "time": 639.0625,
            "midi": 62,
            "name": "D4",
            "velocity": 0.3858267716535433,
            "duration": 0.3125,
            "ticks": 1047040,
            "durationTicks": 512
          },
          {
            "time": 639.375,
            "midi": 62,
            "name": "D4",
            "velocity": 0.3858267716535433,
            "duration": 0.625,
            "ticks": 1047552,
            "durationTicks": 1024
          },
          {
            "time": 640,
            "midi": 62,
            "name": "D4",
            "velocity": 0.3858267716535433,
            "duration": 0.9375,
            "ticks": 1048576,
            "durationTicks": 1536
          },
          {
            "time": 640.9375,
            "midi": 62,
            "name": "D4",
            "velocity": 0.3858267716535433,
            "duration": 0.3125,
            "ticks": 1050112,
            "durationTicks": 512
          },
          {
            "time": 641.25,
            "midi": 61,
            "name": "C#4",
            "velocity": 0.3858267716535433,
            "duration": 0.625,
            "ticks": 1050624,
            "durationTicks": 1024
          },
          {
            "time": 641.875,
            "midi": 61,
            "name": "C#4",
            "velocity": 0.3858267716535433,
            "duration": 0.9375,
            "ticks": 1051648,
            "durationTicks": 1536
          },
          {
            "time": 642.8125,
            "midi": 61,
            "name": "C#4",
            "velocity": 0.3858267716535433,
            "duration": 0.3125,
            "ticks": 1053184,
            "durationTicks": 512
          },
          {
            "time": 643.125,
            "midi": 62,
            "name": "D4",
            "velocity": 0.3858267716535433,
            "duration": 1.875,
            "ticks": 1053696,
            "durationTicks": 3072
          }
        ],
        "controlChanges": {}
      },
      {
        "name": "Instrument16",
        "channel": 0,
        "instrument": {
          "number": 42,
          "name": "cello",
          "family": "strings"
        },
        "notes": [
          {
            "time": 0,
            "midi": 50,
            "name": "D3",
            "velocity": 0.5039370078740157,
            "duration": 0.625,
            "ticks": 0,
            "durationTicks": 1024
          },
          {
            "time": 0.625,
            "midi": 50,
            "name": "D3",
            "velocity": 0.5039370078740157,
            "duration": 0.9375,
            "ticks": 1024,
            "durationTicks": 1536
          },
          {
            "time": 1.5625,
            "midi": 50,
            "name": "D3",
            "velocity": 0.5039370078740157,
            "duration": 0.3125,
            "ticks": 2560,
            "durationTicks": 512
          },
          {
            "time": 1.875,
            "midi": 45,
            "name": "A2",
            "velocity": 0.5039370078740157,
            "duration": 0.625,
            "ticks": 3072,
            "durationTicks": 1024
          },
          {
            "time": 2.5,
            "midi": 45,
            "name": "A2",
            "velocity": 0.5039370078740157,
            "duration": 0.9375,
            "ticks": 4096,
            "durationTicks": 1536
          },
          {
            "time": 3.4375,
            "midi": 45,
            "name": "A2",
            "velocity": 0.5039370078740157,
            "duration": 0.3125,
            "ticks": 5632,
            "durationTicks": 512
          },
          {
            "time": 3.75,
            "midi": 50,
            "name": "D3",
            "velocity": 0.5039370078740157,
            "duration": 0.625,
            "ticks": 6144,
            "durationTicks": 1024
          },
          {
            "time": 4.375,
            "midi": 50,
            "name": "D3",
            "velocity": 0.5039370078740157,
            "duration": 0.9375,
            "ticks": 7168,
            "durationTicks": 1536
          },
          {
            "time": 5.3125,
            "midi": 50,
            "name": "D3",
            "velocity": 0.5039370078740157,
            "duration": 0.3125,
            "ticks": 8704,
            "durationTicks": 512
          },
          {
            "time": 5.625,
            "midi": 48,
            "name": "C3",
            "velocity": 0.5039370078740157,
            "duration": 0.625,
            "ticks": 9216,
            "durationTicks": 1024
          },
          {
            "time": 6.25,
            "midi": 48,
            "name": "C3",
            "velocity": 0.5039370078740157,
            "duration": 0.9375,
            "ticks": 10240,
            "durationTicks": 1536
          },
          {
            "time": 7.1875,
            "midi": 48,
            "name": "C3",
            "velocity": 0.5039370078740157,
            "duration": 0.3125,
            "ticks": 11776,
            "durationTicks": 512
          },
          {
            "time": 7.5,
            "midi": 53,
            "name": "F3",
            "velocity": 0.5039370078740157,
            "duration": 0.625,
            "ticks": 12288,
            "durationTicks": 1024
          },
          {
            "time": 8.125,
            "midi": 53,
            "name": "F3",
            "velocity": 0.5039370078740157,
            "duration": 0.9375,
            "ticks": 13312,
            "durationTicks": 1536
          },
          {
            "time": 9.0625,
            "midi": 53,
            "name": "F3",
            "velocity": 0.5039370078740157,
            "duration": 0.3125,
            "ticks": 14848,
            "durationTicks": 512
          },
          {
            "time": 9.375,
            "midi": 48,
            "name": "C3",
            "velocity": 0.5039370078740157,
            "duration": 0.625,
            "ticks": 15360,
            "durationTicks": 1024
          },
          {
            "time": 10,
            "midi": 49,
            "name": "C#3",
            "velocity": 0.5039370078740157,
            "duration": 0.9375,
            "ticks": 16384,
            "durationTicks": 1536
          },
          {
            "time": 10.9375,
            "midi": 49,
            "name": "C#3",
            "velocity": 0.5039370078740157,
            "duration": 0.3125,
            "ticks": 17920,
            "durationTicks": 512
          },
          {
            "time": 11.25,
            "midi": 50,
            "name": "D3",
            "velocity": 0.5039370078740157,
            "duration": 0.625,
            "ticks": 18432,
            "durationTicks": 1024
          },
          {
            "time": 11.875,
            "midi": 46,
            "name": "A#2",
            "velocity": 0.5039370078740157,
            "duration": 0.9375,
            "ticks": 19456,
            "durationTicks": 1536
          },
          {
            "time": 12.8125,
            "midi": 43,
            "name": "G2",
            "velocity": 0.5039370078740157,
            "duration": 0.3125,
            "ticks": 20992,
            "durationTicks": 512
          },
          {
            "time": 13.125,
            "midi": 45,
            "name": "A2",
            "velocity": 0.5039370078740157,
            "duration": 0.625,
            "ticks": 21504,
            "durationTicks": 1024
          },
          {
            "time": 13.75,
            "midi": 57,
            "name": "A3",
            "velocity": 0.5039370078740157,
            "duration": 0.3125,
            "ticks": 22528,
            "durationTicks": 512
          },
          {
            "time": 14.0625,
            "midi": 55,
            "name": "G3",
            "velocity": 0.5039370078740157,
            "duration": 0.3125,
            "ticks": 23040,
            "durationTicks": 512
          },
          {
            "time": 14.375,
            "midi": 53,
            "name": "F3",
            "velocity": 0.5039370078740157,
            "duration": 0.3125,
            "ticks": 23552,
            "durationTicks": 512
          },
          {
            "time": 14.6875,
            "midi": 52,
            "name": "E3",
            "velocity": 0.5039370078740157,
            "duration": 0.3125,
            "ticks": 24064,
            "durationTicks": 512
          },
          {
            "time": 15,
            "midi": 50,
            "name": "D3",
            "velocity": 0.3858267716535433,
            "duration": 0.625,
            "ticks": 24576,
            "durationTicks": 1024
          },
          {
            "time": 15.625,
            "midi": 50,
            "name": "D3",
            "velocity": 0.3858267716535433,
            "duration": 0.9375,
            "ticks": 25600,
            "durationTicks": 1536
          },
          {
            "time": 16.5625,
            "midi": 50,
            "name": "D3",
            "velocity": 0.3858267716535433,
            "duration": 0.3125,
            "ticks": 27136,
            "durationTicks": 512
          },
          {
            "time": 16.875,
            "midi": 45,
            "name": "A2",
            "velocity": 0.3858267716535433,
            "duration": 0.625,
            "ticks": 27648,
            "durationTicks": 1024
          },
          {
            "time": 17.5,
            "midi": 45,
            "name": "A2",
            "velocity": 0.3858267716535433,
            "duration": 0.9375,
            "ticks": 28672,
            "durationTicks": 1536
          },
          {
            "time": 18.4375,
            "midi": 45,
            "name": "A2",
            "velocity": 0.3858267716535433,
            "duration": 0.3125,
            "ticks": 30208,
            "durationTicks": 512
          },
          {
            "time": 18.75,
            "midi": 50,
            "name": "D3",
            "velocity": 0.3858267716535433,
            "duration": 0.625,
            "ticks": 30720,
            "durationTicks": 1024
          },
          {
            "time": 19.375,
            "midi": 50,
            "name": "D3",
            "velocity": 0.3858267716535433,
            "duration": 0.9375,
            "ticks": 31744,
            "durationTicks": 1536
          },
          {
            "time": 20.3125,
            "midi": 50,
            "name": "D3",
            "velocity": 0.3858267716535433,
            "duration": 0.3125,
            "ticks": 33280,
            "durationTicks": 512
          },
          {
            "time": 20.625,
            "midi": 48,
            "name": "C3",
            "velocity": 0.3858267716535433,
            "duration": 0.625,
            "ticks": 33792,
            "durationTicks": 1024
          },
          {
            "time": 21.25,
            "midi": 48,
            "name": "C3",
            "velocity": 0.3858267716535433,
            "duration": 0.9375,
            "ticks": 34816,
            "durationTicks": 1536
          },
          {
            "time": 22.1875,
            "midi": 48,
            "name": "C3",
            "velocity": 0.3858267716535433,
            "duration": 0.3125,
            "ticks": 36352,
            "durationTicks": 512
          },
          {
            "time": 22.5,
            "midi": 53,
            "name": "F3",
            "velocity": 0.3858267716535433,
            "duration": 0.625,
            "ticks": 36864,
            "durationTicks": 1024
          },
          {
            "time": 23.125,
            "midi": 53,
            "name": "F3",
            "velocity": 0.3858267716535433,
            "duration": 0.9375,
            "ticks": 37888,
            "durationTicks": 1536
          },
          {
            "time": 24.0625,
            "midi": 53,
            "name": "F3",
            "velocity": 0.3858267716535433,
            "duration": 0.3125,
            "ticks": 39424,
            "durationTicks": 512
          },
          {
            "time": 24.375,
            "midi": 48,
            "name": "C3",
            "velocity": 0.3858267716535433,
            "duration": 0.625,
            "ticks": 39936,
            "durationTicks": 1024
          },
          {
            "time": 25,
            "midi": 49,
            "name": "C#3",
            "velocity": 0.3858267716535433,
            "duration": 0.9375,
            "ticks": 40960,
            "durationTicks": 1536
          },
          {
            "time": 25.9375,
            "midi": 49,
            "name": "C#3",
            "velocity": 0.3858267716535433,
            "duration": 0.3125,
            "ticks": 42496,
            "durationTicks": 512
          },
          {
            "time": 26.25,
            "midi": 50,
            "name": "D3",
            "velocity": 0.3858267716535433,
            "duration": 0.3125,
            "ticks": 43008,
            "durationTicks": 512
          },
          {
            "time": 26.5625,
            "midi": 55,
            "name": "G3",
            "velocity": 0.3858267716535433,
            "duration": 0.3125,
            "ticks": 43520,
            "durationTicks": 512
          },
          {
            "time": 26.875,
            "midi": 57,
            "name": "A3",
            "velocity": 0.3858267716535433,
            "duration": 0.625,
            "ticks": 44032,
            "durationTicks": 1024
          },
          {
            "time": 27.5,
            "midi": 45,
            "name": "A2",
            "velocity": 0.3858267716535433,
            "duration": 0.625,
            "ticks": 45056,
            "durationTicks": 1024
          },
          {
            "time": 28.125,
            "midi": 50,
            "name": "D3",
            "velocity": 0.3858267716535433,
            "duration": 1.875,
            "ticks": 46080,
            "durationTicks": 3072
          },
          {
            "time": 30,
            "midi": 50,
            "name": "D3",
            "velocity": 0.3858267716535433,
            "duration": 0.625,
            "ticks": 49152,
            "durationTicks": 1024
          },
          {
            "time": 30.625,
            "midi": 62,
            "name": "D4",
            "velocity": 0.3858267716535433,
            "duration": 0.625,
            "ticks": 50176,
            "durationTicks": 1024
          },
          {
            "time": 31.875,
            "midi": 57,
            "name": "A3",
            "velocity": 0.3858267716535433,
            "duration": 0.46875,
            "ticks": 52224,
            "durationTicks": 768
          },
          {
            "time": 32.34375,
            "midi": 58,
            "name": "A#3",
            "velocity": 0.3858267716535433,
            "duration": 0.15625,
            "ticks": 52992,
            "durationTicks": 256
          },
          {
            "time": 32.5,
            "midi": 57,
            "name": "A3",
            "velocity": 0.3858267716535433,
            "duration": 0.46875,
            "ticks": 53248,
            "durationTicks": 768
          },
          {
            "time": 32.96875,
            "midi": 55,
            "name": "G3",
            "velocity": 0.3858267716535433,
            "duration": 0.15625,
            "ticks": 54016,
            "durationTicks": 256
          },
          {
            "time": 33.125,
            "midi": 53,
            "name": "F3",
            "velocity": 0.3858267716535433,
            "duration": 0.46875,
            "ticks": 54272,
            "durationTicks": 768
          },
          {
            "time": 33.59375,
            "midi": 52,
            "name": "E3",
            "velocity": 0.3858267716535433,
            "duration": 0.15625,
            "ticks": 55040,
            "durationTicks": 256
          },
          {
            "time": 33.75,
            "midi": 50,
            "name": "D3",
            "velocity": 0.3858267716535433,
            "duration": 0.625,
            "ticks": 55296,
            "durationTicks": 1024
          },
          {
            "time": 34.375,
            "midi": 62,
            "name": "D4",
            "velocity": 0.3858267716535433,
            "duration": 0.625,
            "ticks": 56320,
            "durationTicks": 1024
          },
          {
            "time": 35.625,
            "midi": 60,
            "name": "C4",
            "velocity": 0.3858267716535433,
            "duration": 0.46875,
            "ticks": 58368,
            "durationTicks": 768
          },
          {
            "time": 36.09375,
            "midi": 62,
            "name": "D4",
            "velocity": 0.3858267716535433,
            "duration": 0.15625,
            "ticks": 59136,
            "durationTicks": 256
          },
          {
            "time": 36.25,
            "midi": 60,
            "name": "C4",
            "velocity": 0.3858267716535433,
            "duration": 0.46875,
            "ticks": 59392,
            "durationTicks": 768
          },
          {
            "time": 36.71875,
            "midi": 58,
            "name": "A#3",
            "velocity": 0.3858267716535433,
            "duration": 0.15625,
            "ticks": 60160,
            "durationTicks": 256
          },
          {
            "time": 36.875,
            "midi": 57,
            "name": "A3",
            "velocity": 0.3858267716535433,
            "duration": 0.46875,
            "ticks": 60416,
            "durationTicks": 768
          },
          {
            "time": 37.34375,
            "midi": 55,
            "name": "G3",
            "velocity": 0.3858267716535433,
            "duration": 0.15625,
            "ticks": 61184,
            "durationTicks": 256
          },
          {
            "time": 37.5,
            "midi": 53,
            "name": "F3",
            "velocity": 0.3858267716535433,
            "duration": 0.625,
            "ticks": 61440,
            "durationTicks": 1024
          },
          {
            "time": 38.125,
            "midi": 65,
            "name": "F4",
            "velocity": 0.3858267716535433,
            "duration": 0.625,
            "ticks": 62464,
            "durationTicks": 1024
          },
          {
            "time": 39.375,
            "midi": 60,
            "name": "C4",
            "velocity": 0.3858267716535433,
            "duration": 0.625,
            "ticks": 64512,
            "durationTicks": 1024
          },
          {
            "time": 40,
            "midi": 61,
            "name": "C#4",
            "velocity": 0.3858267716535433,
            "duration": 1.25,
            "ticks": 65536,
            "durationTicks": 2048
          },
          {
            "time": 41.25,
            "midi": 62,
            "name": "D4",
            "velocity": 0.3858267716535433,
            "duration": 0.625,
            "ticks": 67584,
            "durationTicks": 1024
          },
          {
            "time": 41.875,
            "midi": 50,
            "name": "D3",
            "velocity": 0.3858267716535433,
            "duration": 1.25,
            "ticks": 68608,
            "durationTicks": 2048
          },
          {
            "time": 43.125,
            "midi": 57,
            "name": "A3",
            "velocity": 0.3858267716535433,
            "duration": 0.46875,
            "ticks": 70656,
            "durationTicks": 768
          },
          {
            "time": 43.59375,
            "midi": 58,
            "name": "A#3",
            "velocity": 0.3858267716535433,
            "duration": 0.15625,
            "ticks": 71424,
            "durationTicks": 256
          },
          {
            "time": 43.75,
            "midi": 57,
            "name": "A3",
            "velocity": 0.3858267716535433,
            "duration": 0.46875,
            "ticks": 71680,
            "durationTicks": 768
          },
          {
            "time": 44.21875,
            "midi": 55,
            "name": "G3",
            "velocity": 0.3858267716535433,
            "duration": 0.15625,
            "ticks": 72448,
            "durationTicks": 256
          },
          {
            "time": 44.375,
            "midi": 53,
            "name": "F3",
            "velocity": 0.3858267716535433,
            "duration": 0.46875,
            "ticks": 72704,
            "durationTicks": 768
          },
          {
            "time": 44.84375,
            "midi": 52,
            "name": "E3",
            "velocity": 0.3858267716535433,
            "duration": 0.15625,
            "ticks": 73472,
            "durationTicks": 256
          },
          {
            "time": 45,
            "midi": 50,
            "name": "D3",
            "velocity": 0.3858267716535433,
            "duration": 0.625,
            "ticks": 73728,
            "durationTicks": 1024
          },
          {
            "time": 45.625,
            "midi": 62,
            "name": "D4",
            "velocity": 0.3858267716535433,
            "duration": 0.625,
            "ticks": 74752,
            "durationTicks": 1024
          },
          {
            "time": 46.875,
            "midi": 57,
            "name": "A3",
            "velocity": 0.3858267716535433,
            "duration": 0.46875,
            "ticks": 76800,
            "durationTicks": 768
          },
          {
            "time": 47.34375,
            "midi": 58,
            "name": "A#3",
            "velocity": 0.3858267716535433,
            "duration": 0.15625,
            "ticks": 77568,
            "durationTicks": 256
          },
          {
            "time": 47.5,
            "midi": 57,
            "name": "A3",
            "velocity": 0.3858267716535433,
            "duration": 0.46875,
            "ticks": 77824,
            "durationTicks": 768
          },
          {
            "time": 47.96875,
            "midi": 55,
            "name": "G3",
            "velocity": 0.3858267716535433,
            "duration": 0.15625,
            "ticks": 78592,
            "durationTicks": 256
          },
          {
            "time": 48.125,
            "midi": 53,
            "name": "F3",
            "velocity": 0.3858267716535433,
            "duration": 0.46875,
            "ticks": 78848,
            "durationTicks": 768
          },
          {
            "time": 48.59375,
            "midi": 52,
            "name": "E3",
            "velocity": 0.3858267716535433,
            "duration": 0.15625,
            "ticks": 79616,
            "durationTicks": 256
          },
          {
            "time": 48.75,
            "midi": 50,
            "name": "D3",
            "velocity": 0.3858267716535433,
            "duration": 0.625,
            "ticks": 79872,
            "durationTicks": 1024
          },
          {
            "time": 49.375,
            "midi": 62,
            "name": "D4",
            "velocity": 0.3858267716535433,
            "duration": 0.625,
            "ticks": 80896,
            "durationTicks": 1024
          },
          {
            "time": 50.625,
            "midi": 60,
            "name": "C4",
            "velocity": 0.3858267716535433,
            "duration": 0.46875,
            "ticks": 82944,
            "durationTicks": 768
          },
          {
            "time": 51.09375,
            "midi": 62,
            "name": "D4",
            "velocity": 0.3858267716535433,
            "duration": 0.15625,
            "ticks": 83712,
            "durationTicks": 256
          },
          {
            "time": 51.25,
            "midi": 60,
            "name": "C4",
            "velocity": 0.3858267716535433,
            "duration": 0.46875,
            "ticks": 83968,
            "durationTicks": 768
          },
          {
            "time": 51.71875,
            "midi": 58,
            "name": "A#3",
            "velocity": 0.3858267716535433,
            "duration": 0.15625,
            "ticks": 84736,
            "durationTicks": 256
          },
          {
            "time": 51.875,
            "midi": 57,
            "name": "A3",
            "velocity": 0.3858267716535433,
            "duration": 0.46875,
            "ticks": 84992,
            "durationTicks": 768
          },
          {
            "time": 52.34375,
            "midi": 55,
            "name": "G3",
            "velocity": 0.3858267716535433,
            "duration": 0.15625,
            "ticks": 85760,
            "durationTicks": 256
          },
          {
            "time": 52.5,
            "midi": 53,
            "name": "F3",
            "velocity": 0.3858267716535433,
            "duration": 0.625,
            "ticks": 86016,
            "durationTicks": 1024
          },
          {
            "time": 53.125,
            "midi": 65,
            "name": "F4",
            "velocity": 0.3858267716535433,
            "duration": 0.625,
            "ticks": 87040,
            "durationTicks": 1024
          },
          {
            "time": 54.375,
            "midi": 60,
            "name": "C4",
            "velocity": 0.3858267716535433,
            "duration": 0.625,
            "ticks": 89088,
            "durationTicks": 1024
          },
          {
            "time": 55,
            "midi": 61,
            "name": "C#4",
            "velocity": 0.3858267716535433,
            "duration": 0.46875,
            "ticks": 90112,
            "durationTicks": 768
          },
          {
            "time": 55.46875,
            "midi": 62,
            "name": "D4",
            "velocity": 0.3858267716535433,
            "duration": 0.15625,
            "ticks": 90880,
            "durationTicks": 256
          },
          {
            "time": 55.625,
            "midi": 64,
            "name": "E4",
            "velocity": 0.3858267716535433,
            "duration": 0.46875,
            "ticks": 91136,
            "durationTicks": 768
          },
          {
            "time": 56.09375,
            "midi": 61,
            "name": "C#4",
            "velocity": 0.3858267716535433,
            "duration": 0.15625,
            "ticks": 91904,
            "durationTicks": 256
          },
          {
            "time": 56.25,
            "midi": 62,
            "name": "D4",
            "velocity": 0.3858267716535433,
            "duration": 0.3125,
            "ticks": 92160,
            "durationTicks": 512
          },
          {
            "time": 56.5625,
            "midi": 55,
            "name": "G3",
            "velocity": 0.3858267716535433,
            "duration": 0.3125,
            "ticks": 92672,
            "durationTicks": 512
          },
          {
            "time": 56.875,
            "midi": 57,
            "name": "A3",
            "velocity": 0.3858267716535433,
            "duration": 0.625,
            "ticks": 93184,
            "durationTicks": 1024
          },
          {
            "time": 57.5,
            "midi": 45,
            "name": "A2",
            "velocity": 0.3858267716535433,
            "duration": 0.625,
            "ticks": 94208,
            "durationTicks": 1024
          },
          {
            "time": 58.125,
            "midi": 50,
            "name": "D3",
            "velocity": 0.3858267716535433,
            "duration": 1.875,
            "ticks": 95232,
            "durationTicks": 3072
          },
          {
            "time": 60,
            "midi": 62,
            "name": "D4",
            "velocity": 0.3858267716535433,
            "duration": 0.625,
            "ticks": 98304,
            "durationTicks": 1024
          },
          {
            "time": 61.25,
            "midi": 50,
            "name": "D3",
            "velocity": 0.3858267716535433,
            "duration": 0.625,
            "ticks": 100352,
            "durationTicks": 1024
          },
          {
            "time": 61.875,
            "midi": 57,
            "name": "A3",
            "velocity": 0.3858267716535433,
            "duration": 0.625,
            "ticks": 101376,
            "durationTicks": 1024
          },
          {
            "time": 63.125,
            "midi": 45,
            "name": "A2",
            "velocity": 0.3858267716535433,
            "duration": 0.625,
            "ticks": 103424,
            "durationTicks": 1024
          },
          {
            "time": 63.75,
            "midi": 50,
            "name": "D3",
            "velocity": 0.3858267716535433,
            "duration": 0.625,
            "ticks": 104448,
            "durationTicks": 1024
          },
          {
            "time": 65,
            "midi": 62,
            "name": "D4",
            "velocity": 0.3858267716535433,
            "duration": 0.625,
            "ticks": 106496,
            "durationTicks": 1024
          },
          {
            "time": 65.625,
            "midi": 60,
            "name": "C4",
            "velocity": 0.3858267716535433,
            "duration": 0.625,
            "ticks": 107520,
            "durationTicks": 1024
          },
          {
            "time": 66.875,
            "midi": 48,
            "name": "C3",
            "velocity": 0.3858267716535433,
            "duration": 0.625,
            "ticks": 109568,
            "durationTicks": 1024
          },
          {
            "time": 67.5,
            "midi": 53,
            "name": "F3",
            "velocity": 0.3858267716535433,
            "duration": 0.625,
            "ticks": 110592,
            "durationTicks": 1024
          },
          {
            "time": 68.75,
            "midi": 53,
            "name": "F3",
            "velocity": 0.3858267716535433,
            "duration": 0.625,
            "ticks": 112640,
            "durationTicks": 1024
          },
          {
            "time": 69.375,
            "midi": 60,
            "name": "C4",
            "velocity": 0.3858267716535433,
            "duration": 0.625,
            "ticks": 113664,
            "durationTicks": 1024
          },
          {
            "time": 70.625,
            "midi": 61,
            "name": "C#4",
            "velocity": 0.3858267716535433,
            "duration": 0.625,
            "ticks": 115712,
            "durationTicks": 1024
          },
          {
            "time": 71.25,
            "midi": 62,
            "name": "D4",
            "velocity": 0.3858267716535433,
            "duration": 0.625,
            "ticks": 116736,
            "durationTicks": 1024
          },
          {
            "time": 72.5,
            "midi": 43,
            "name": "G2",
            "velocity": 0.3858267716535433,
            "duration": 0.625,
            "ticks": 118784,
            "durationTicks": 1024
          },
          {
            "time": 73.125,
            "midi": 45,
            "name": "A2",
            "velocity": 0.3858267716535433,
            "duration": 0.625,
            "ticks": 119808,
            "durationTicks": 1024
          },
          {
            "time": 73.75,
            "midi": 57,
            "name": "A3",
            "velocity": 0.3858267716535433,
            "duration": 0.625,
            "ticks": 120832,
            "durationTicks": 1024
          },
          {
            "time": 74.375,
            "midi": 45,
            "name": "A2",
            "velocity": 0.3858267716535433,
            "duration": 0.625,
            "ticks": 121856,
            "durationTicks": 1024
          },
          {
            "time": 75,
            "midi": 50,
            "name": "D3",
            "velocity": 0.3858267716535433,
            "duration": 0.625,
            "ticks": 122880,
            "durationTicks": 1024
          },
          {
            "time": 76.25,
            "midi": 50,
            "name": "D3",
            "velocity": 0.3858267716535433,
            "duration": 0.625,
            "ticks": 124928,
            "durationTicks": 1024
          },
          {
            "time": 76.875,
            "midi": 57,
            "name": "A3",
            "velocity": 0.3858267716535433,
            "duration": 0.625,
            "ticks": 125952,
            "durationTicks": 1024
          },
          {
            "time": 78.125,
            "midi": 45,
            "name": "A2",
            "velocity": 0.3858267716535433,
            "duration": 0.625,
            "ticks": 128000,
            "durationTicks": 1024
          },
          {
            "time": 78.75,
            "midi": 50,
            "name": "D3",
            "velocity": 0.3858267716535433,
            "duration": 0.625,
            "ticks": 129024,
            "durationTicks": 1024
          },
          {
            "time": 80,
            "midi": 62,
            "name": "D4",
            "velocity": 0.3858267716535433,
            "duration": 0.625,
            "ticks": 131072,
            "durationTicks": 1024
          },
          {
            "time": 80.625,
            "midi": 60,
            "name": "C4",
            "velocity": 0.3858267716535433,
            "duration": 0.625,
            "ticks": 132096,
            "durationTicks": 1024
          },
          {
            "time": 81.875,
            "midi": 48,
            "name": "C3",
            "velocity": 0.3858267716535433,
            "duration": 0.625,
            "ticks": 134144,
            "durationTicks": 1024
          },
          {
            "time": 82.5,
            "midi": 53,
            "name": "F3",
            "velocity": 0.3858267716535433,
            "duration": 0.625,
            "ticks": 135168,
            "durationTicks": 1024
          },
          {
            "time": 83.75,
            "midi": 53,
            "name": "F3",
            "velocity": 0.3858267716535433,
            "duration": 0.625,
            "ticks": 137216,
            "durationTicks": 1024
          },
          {
            "time": 84.375,
            "midi": 48,
            "name": "C3",
            "velocity": 0.3858267716535433,
            "duration": 0.9375,
            "ticks": 138240,
            "durationTicks": 1536
          },
          {
            "time": 85.3125,
            "midi": 49,
            "name": "C#3",
            "velocity": 0.3858267716535433,
            "duration": 0.3125,
            "ticks": 139776,
            "durationTicks": 512
          },
          {
            "time": 85.625,
            "midi": 50,
            "name": "D3",
            "velocity": 0.3858267716535433,
            "duration": 0.625,
            "ticks": 140288,
            "durationTicks": 1024
          },
          {
            "time": 86.25,
            "midi": 43,
            "name": "G2",
            "velocity": 0.3858267716535433,
            "duration": 0.625,
            "ticks": 141312,
            "durationTicks": 1024
          },
          {
            "time": 86.875,
            "midi": 45,
            "name": "A2",
            "velocity": 0.3858267716535433,
            "duration": 1.25,
            "ticks": 142336,
            "durationTicks": 2048
          },
          {
            "time": 88.125,
            "midi": 50,
            "name": "D3",
            "velocity": 0.3858267716535433,
            "duration": 1.875,
            "ticks": 144384,
            "durationTicks": 3072
          },
          {
            "time": 90,
            "midi": 50,
            "name": "D3",
            "velocity": 0.3858267716535433,
            "duration": 0.625,
            "ticks": 147456,
            "durationTicks": 1024
          },
          {
            "time": 90.625,
            "midi": 62,
            "name": "D4",
            "velocity": 0.3858267716535433,
            "duration": 0.625,
            "ticks": 148480,
            "durationTicks": 1024
          },
          {
            "time": 91.25,
            "midi": 50,
            "name": "D3",
            "velocity": 0.3858267716535433,
            "duration": 0.625,
            "ticks": 149504,
            "durationTicks": 1024
          },
          {
            "time": 91.875,
            "midi": 45,
            "name": "A2",
            "velocity": 0.3858267716535433,
            "duration": 0.625,
            "ticks": 150528,
            "durationTicks": 1024
          },
          {
            "time": 92.5,
            "midi": 57,
            "name": "A3",
            "velocity": 0.3858267716535433,
            "duration": 0.625,
            "ticks": 151552,
            "durationTicks": 1024
          },
          {
            "time": 93.125,
            "midi": 45,
            "name": "A2",
            "velocity": 0.3858267716535433,
            "duration": 0.625,
            "ticks": 152576,
            "durationTicks": 1024
          },
          {
            "time": 93.75,
            "midi": 50,
            "name": "D3",
            "velocity": 0.3858267716535433,
            "duration": 0.625,
            "ticks": 153600,
            "durationTicks": 1024
          },
          {
            "time": 94.375,
            "midi": 62,
            "name": "D4",
            "velocity": 0.3858267716535433,
            "duration": 0.625,
            "ticks": 154624,
            "durationTicks": 1024
          },
          {
            "time": 95,
            "midi": 50,
            "name": "D3",
            "velocity": 0.3858267716535433,
            "duration": 0.625,
            "ticks": 155648,
            "durationTicks": 1024
          },
          {
            "time": 95.625,
            "midi": 48,
            "name": "C3",
            "velocity": 0.3858267716535433,
            "duration": 0.625,
            "ticks": 156672,
            "durationTicks": 1024
          },
          {
            "time": 96.25,
            "midi": 60,
            "name": "C4",
            "velocity": 0.3858267716535433,
            "duration": 0.625,
            "ticks": 157696,
            "durationTicks": 1024
          },
          {
            "time": 96.875,
            "midi": 48,
            "name": "C3",
            "velocity": 0.3858267716535433,
            "duration": 0.625,
            "ticks": 158720,
            "durationTicks": 1024
          },
          {
            "time": 97.5,
            "midi": 53,
            "name": "F3",
            "velocity": 0.3858267716535433,
            "duration": 0.625,
            "ticks": 159744,
            "durationTicks": 1024
          },
          {
            "time": 98.125,
            "midi": 65,
            "name": "F4",
            "velocity": 0.3858267716535433,
            "duration": 0.625,
            "ticks": 160768,
            "durationTicks": 1024
          },
          {
            "time": 98.75,
            "midi": 53,
            "name": "F3",
            "velocity": 0.3858267716535433,
            "duration": 0.625,
            "ticks": 161792,
            "durationTicks": 1024
          },
          {
            "time": 99.375,
            "midi": 48,
            "name": "C3",
            "velocity": 0.3858267716535433,
            "duration": 0.625,
            "ticks": 162816,
            "durationTicks": 1024
          },
          {
            "time": 100,
            "midi": 52,
            "name": "E3",
            "velocity": 0.3858267716535433,
            "duration": 0.625,
            "ticks": 163840,
            "durationTicks": 1024
          },
          {
            "time": 100.625,
            "midi": 49,
            "name": "C#3",
            "velocity": 0.3858267716535433,
            "duration": 0.625,
            "ticks": 164864,
            "durationTicks": 1024
          },
          {
            "time": 101.25,
            "midi": 50,
            "name": "D3",
            "velocity": 0.3858267716535433,
            "duration": 0.625,
            "ticks": 165888,
            "durationTicks": 1024
          },
          {
            "time": 101.875,
            "midi": 58,
            "name": "A#3",
            "velocity": 0.3858267716535433,
            "duration": 0.625,
            "ticks": 166912,
            "durationTicks": 1024
          },
          {
            "time": 102.5,
            "midi": 46,
            "name": "A#2",
            "velocity": 0.3858267716535433,
            "duration": 0.625,
            "ticks": 167936,
            "durationTicks": 1024
          },
          {
            "time": 103.125,
            "midi": 45,
            "name": "A2",
            "velocity": 0.3858267716535433,
            "duration": 0.625,
            "ticks": 168960,
            "durationTicks": 1024
          },
          {
            "time": 103.75,
            "midi": 57,
            "name": "A3",
            "velocity": 0.3858267716535433,
            "duration": 0.625,
            "ticks": 169984,
            "durationTicks": 1024
          },
          {
            "time": 104.375,
            "midi": 45,
            "name": "A2",
            "velocity": 0.3858267716535433,
            "duration": 0.625,
            "ticks": 171008,
            "durationTicks": 1024
          },
          {
            "time": 105,
            "midi": 50,
            "name": "D3",
            "velocity": 0.3858267716535433,
            "duration": 0.625,
            "ticks": 172032,
            "durationTicks": 1024
          },
          {
            "time": 105.625,
            "midi": 62,
            "name": "D4",
            "velocity": 0.3858267716535433,
            "duration": 0.625,
            "ticks": 173056,
            "durationTicks": 1024
          },
          {
            "time": 106.25,
            "midi": 50,
            "name": "D3",
            "velocity": 0.3858267716535433,
            "duration": 0.625,
            "ticks": 174080,
            "durationTicks": 1024
          },
          {
            "time": 106.875,
            "midi": 45,
            "name": "A2",
            "velocity": 0.3858267716535433,
            "duration": 0.625,
            "ticks": 175104,
            "durationTicks": 1024
          },
          {
            "time": 107.5,
            "midi": 57,
            "name": "A3",
            "velocity": 0.3858267716535433,
            "duration": 0.625,
            "ticks": 176128,
            "durationTicks": 1024
          },
          {
            "time": 108.125,
            "midi": 45,
            "name": "A2",
            "velocity": 0.3858267716535433,
            "duration": 0.625,
            "ticks": 177152,
            "durationTicks": 1024
          },
          {
            "time": 108.75,
            "midi": 50,
            "name": "D3",
            "velocity": 0.3858267716535433,
            "duration": 0.625,
            "ticks": 178176,
            "durationTicks": 1024
          },
          {
            "time": 109.375,
            "midi": 62,
            "name": "D4",
            "velocity": 0.3858267716535433,
            "duration": 0.625,
            "ticks": 179200,
            "durationTicks": 1024
          },
          {
            "time": 110,
            "midi": 50,
            "name": "D3",
            "velocity": 0.3858267716535433,
            "duration": 0.625,
            "ticks": 180224,
            "durationTicks": 1024
          },
          {
            "time": 110.625,
            "midi": 48,
            "name": "C3",
            "velocity": 0.3858267716535433,
            "duration": 0.625,
            "ticks": 181248,
            "durationTicks": 1024
          },
          {
            "time": 111.25,
            "midi": 60,
            "name": "C4",
            "velocity": 0.3858267716535433,
            "duration": 0.625,
            "ticks": 182272,
            "durationTicks": 1024
          },
          {
            "time": 111.875,
            "midi": 48,
            "name": "C3",
            "velocity": 0.3858267716535433,
            "duration": 0.625,
            "ticks": 183296,
            "durationTicks": 1024
          },
          {
            "time": 112.5,
            "midi": 53,
            "name": "F3",
            "velocity": 0.3858267716535433,
            "duration": 0.625,
            "ticks": 184320,
            "durationTicks": 1024
          },
          {
            "time": 113.125,
            "midi": 65,
            "name": "F4",
            "velocity": 0.3858267716535433,
            "duration": 0.625,
            "ticks": 185344,
            "durationTicks": 1024
          },
          {
            "time": 113.75,
            "midi": 53,
            "name": "F3",
            "velocity": 0.3858267716535433,
            "duration": 0.625,
            "ticks": 186368,
            "durationTicks": 1024
          },
          {
            "time": 114.375,
            "midi": 55,
            "name": "G3",
            "velocity": 0.3858267716535433,
            "duration": 0.3125,
            "ticks": 187392,
            "durationTicks": 512
          },
          {
            "time": 114.6875,
            "midi": 57,
            "name": "A3",
            "velocity": 0.3858267716535433,
            "duration": 0.3125,
            "ticks": 187904,
            "durationTicks": 512
          },
          {
            "time": 115,
            "midi": 58,
            "name": "A#3",
            "velocity": 0.3858267716535433,
            "duration": 0.3125,
            "ticks": 188416,
            "durationTicks": 512
          },
          {
            "time": 115.3125,
            "midi": 57,
            "name": "A3",
            "velocity": 0.3858267716535433,
            "duration": 0.3125,
            "ticks": 188928,
            "durationTicks": 512
          },
          {
            "time": 115.625,
            "midi": 55,
            "name": "G3",
            "velocity": 0.3858267716535433,
            "duration": 0.3125,
            "ticks": 189440,
            "durationTicks": 512
          },
          {
            "time": 115.9375,
            "midi": 58,
            "name": "A#3",
            "velocity": 0.3858267716535433,
            "duration": 0.3125,
            "ticks": 189952,
            "durationTicks": 512
          },
          {
            "time": 116.25,
            "midi": 57,
            "name": "A3",
            "velocity": 0.3858267716535433,
            "duration": 0.625,
            "ticks": 190464,
            "durationTicks": 1024
          },
          {
            "time": 116.875,
            "midi": 45,
            "name": "A2",
            "velocity": 0.3858267716535433,
            "duration": 1.25,
            "ticks": 191488,
            "durationTicks": 2048
          },
          {
            "time": 118.125,
            "midi": 50,
            "name": "D3",
            "velocity": 0.3858267716535433,
            "duration": 1.875,
            "ticks": 193536,
            "durationTicks": 3072
          },
          {
            "time": 120,
            "midi": 50,
            "name": "D3",
            "velocity": 0.3858267716535433,
            "duration": 0.3125,
            "ticks": 196608,
            "durationTicks": 512
          },
          {
            "time": 120.3125,
            "midi": 52,
            "name": "E3",
            "velocity": 0.3858267716535433,
            "duration": 0.3125,
            "ticks": 197120,
            "durationTicks": 512
          },
          {
            "time": 120.625,
            "midi": 53,
            "name": "F3",
            "velocity": 0.3858267716535433,
            "duration": 0.3125,
            "ticks": 197632,
            "durationTicks": 512
          },
          {
            "time": 120.9375,
            "midi": 50,
            "name": "D3",
            "velocity": 0.3858267716535433,
            "duration": 0.3125,
            "ticks": 198144,
            "durationTicks": 512
          },
          {
            "time": 121.25,
            "midi": 53,
            "name": "F3",
            "velocity": 0.3858267716535433,
            "duration": 0.3125,
            "ticks": 198656,
            "durationTicks": 512
          },
          {
            "time": 121.5625,
            "midi": 55,
            "name": "G3",
            "velocity": 0.3858267716535433,
            "duration": 0.3125,
            "ticks": 199168,
            "durationTicks": 512
          },
          {
            "time": 121.875,
            "midi": 45,
            "name": "A2",
            "velocity": 0.3858267716535433,
            "duration": 0.3125,
            "ticks": 199680,
            "durationTicks": 512
          },
          {
            "time": 122.1875,
            "midi": 47,
            "name": "B2",
            "velocity": 0.3858267716535433,
            "duration": 0.3125,
            "ticks": 200192,
            "durationTicks": 512
          },
          {
            "time": 122.5,
            "midi": 49,
            "name": "C#3",
            "velocity": 0.3858267716535433,
            "duration": 0.3125,
            "ticks": 200704,
            "durationTicks": 512
          },
          {
            "time": 122.8125,
            "midi": 47,
            "name": "B2",
            "velocity": 0.3858267716535433,
            "duration": 0.3125,
            "ticks": 201216,
            "durationTicks": 512
          },
          {
            "time": 123.125,
            "midi": 49,
            "name": "C#3",
            "velocity": 0.3858267716535433,
            "duration": 0.3125,
            "ticks": 201728,
            "durationTicks": 512
          },
          {
            "time": 123.4375,
            "midi": 45,
            "name": "A2",
            "velocity": 0.3858267716535433,
            "duration": 0.3125,
            "ticks": 202240,
            "durationTicks": 512
          },
          {
            "time": 123.75,
            "midi": 50,
            "name": "D3",
            "velocity": 0.3858267716535433,
            "duration": 0.3125,
            "ticks": 202752,
            "durationTicks": 512
          },
          {
            "time": 124.0625,
            "midi": 52,
            "name": "E3",
            "velocity": 0.3858267716535433,
            "duration": 0.3125,
            "ticks": 203264,
            "durationTicks": 512
          },
          {
            "time": 124.375,
            "midi": 53,
            "name": "F3",
            "velocity": 0.3858267716535433,
            "duration": 0.3125,
            "ticks": 203776,
            "durationTicks": 512
          },
          {
            "time": 124.6875,
            "midi": 50,
            "name": "D3",
            "velocity": 0.3858267716535433,
            "duration": 0.3125,
            "ticks": 204288,
            "durationTicks": 512
          },
          {
            "time": 125,
            "midi": 53,
            "name": "F3",
            "velocity": 0.3858267716535433,
            "duration": 0.3125,
            "ticks": 204800,
            "durationTicks": 512
          },
          {
            "time": 125.3125,
            "midi": 55,
            "name": "G3",
            "velocity": 0.3858267716535433,
            "duration": 0.3125,
            "ticks": 205312,
            "durationTicks": 512
          },
          {
            "time": 125.625,
            "midi": 48,
            "name": "C3",
            "velocity": 0.3858267716535433,
            "duration": 0.3125,
            "ticks": 205824,
            "durationTicks": 512
          },
          {
            "time": 125.9375,
            "midi": 50,
            "name": "D3",
            "velocity": 0.3858267716535433,
            "duration": 0.3125,
            "ticks": 206336,
            "durationTicks": 512
          },
          {
            "time": 126.25,
            "midi": 52,
            "name": "E3",
            "velocity": 0.3858267716535433,
            "duration": 0.3125,
            "ticks": 206848,
            "durationTicks": 512
          },
          {
            "time": 126.5625,
            "midi": 50,
            "name": "D3",
            "velocity": 0.3858267716535433,
            "duration": 0.3125,
            "ticks": 207360,
            "durationTicks": 512
          },
          {
            "time": 126.875,
            "midi": 52,
            "name": "E3",
            "velocity": 0.3858267716535433,
            "duration": 0.3125,
            "ticks": 207872,
            "durationTicks": 512
          },
          {
            "time": 127.1875,
            "midi": 48,
            "name": "C3",
            "velocity": 0.3858267716535433,
            "duration": 0.3125,
            "ticks": 208384,
            "durationTicks": 512
          },
          {
            "time": 127.5,
            "midi": 53,
            "name": "F3",
            "velocity": 0.3858267716535433,
            "duration": 0.3125,
            "ticks": 208896,
            "durationTicks": 512
          },
          {
            "time": 127.8125,
            "midi": 55,
            "name": "G3",
            "velocity": 0.3858267716535433,
            "duration": 0.3125,
            "ticks": 209408,
            "durationTicks": 512
          },
          {
            "time": 128.125,
            "midi": 57,
            "name": "A3",
            "velocity": 0.3858267716535433,
            "duration": 0.3125,
            "ticks": 209920,
            "durationTicks": 512
          },
          {
            "time": 128.4375,
            "midi": 53,
            "name": "F3",
            "velocity": 0.3858267716535433,
            "duration": 0.3125,
            "ticks": 210432,
            "durationTicks": 512
          },
          {
            "time": 128.75,
            "midi": 57,
            "name": "A3",
            "velocity": 0.3858267716535433,
            "duration": 0.3125,
            "ticks": 210944,
            "durationTicks": 512
          },
          {
            "time": 129.0625,
            "midi": 59,
            "name": "B3",
            "velocity": 0.3858267716535433,
            "duration": 0.3125,
            "ticks": 211456,
            "durationTicks": 512
          },
          {
            "time": 129.375,
            "midi": 60,
            "name": "C4",
            "velocity": 0.3858267716535433,
            "duration": 0.625,
            "ticks": 211968,
            "durationTicks": 1024
          },
          {
            "time": 130,
            "midi": 61,
            "name": "C#4",
            "velocity": 0.3858267716535433,
            "duration": 0.9375,
            "ticks": 212992,
            "durationTicks": 1536
          },
          {
            "time": 130.9375,
            "midi": 61,
            "name": "C#4",
            "velocity": 0.3858267716535433,
            "duration": 0.3125,
            "ticks": 214528,
            "durationTicks": 512
          },
          {
            "time": 131.25,
            "midi": 62,
            "name": "D4",
            "velocity": 0.3858267716535433,
            "duration": 0.3125,
            "ticks": 215040,
            "durationTicks": 512
          },
          {
            "time": 131.5625,
            "midi": 50,
            "name": "D3",
            "velocity": 0.3858267716535433,
            "duration": 0.3125,
            "ticks": 215552,
            "durationTicks": 512
          },
          {
            "time": 131.875,
            "midi": 53,
            "name": "F3",
            "velocity": 0.3858267716535433,
            "duration": 0.3125,
            "ticks": 216064,
            "durationTicks": 512
          },
          {
            "time": 132.1875,
            "midi": 50,
            "name": "D3",
            "velocity": 0.3858267716535433,
            "duration": 0.3125,
            "ticks": 216576,
            "durationTicks": 512
          },
          {
            "time": 132.5,
            "midi": 53,
            "name": "F3",
            "velocity": 0.3858267716535433,
            "duration": 0.3125,
            "ticks": 217088,
            "durationTicks": 512
          },
          {
            "time": 132.8125,
            "midi": 55,
            "name": "G3",
            "velocity": 0.3858267716535433,
            "duration": 0.3125,
            "ticks": 217600,
            "durationTicks": 512
          },
          {
            "time": 133.125,
            "midi": 57,
            "name": "A3",
            "velocity": 0.3858267716535433,
            "duration": 0.15625,
            "ticks": 218112,
            "durationTicks": 256
          },
          {
            "time": 133.28125,
            "midi": 57,
            "name": "A3",
            "velocity": 0.3858267716535433,
            "duration": 0.15625,
            "ticks": 218368,
            "durationTicks": 256
          },
          {
            "time": 133.4375,
            "midi": 55,
            "name": "G3",
            "velocity": 0.3858267716535433,
            "duration": 0.15625,
            "ticks": 218624,
            "durationTicks": 256
          },
          {
            "time": 133.59375,
            "midi": 53,
            "name": "F3",
            "velocity": 0.3858267716535433,
            "duration": 0.15625,
            "ticks": 218880,
            "durationTicks": 256
          },
          {
            "time": 133.75,
            "midi": 52,
            "name": "E3",
            "velocity": 0.3858267716535433,
            "duration": 0.15625,
            "ticks": 219136,
            "durationTicks": 256
          },
          {
            "time": 133.90625,
            "midi": 50,
            "name": "D3",
            "velocity": 0.3858267716535433,
            "duration": 0.15625,
            "ticks": 219392,
            "durationTicks": 256
          },
          {
            "time": 134.0625,
            "midi": 49,
            "name": "C#3",
            "velocity": 0.3858267716535433,
            "duration": 0.15625,
            "ticks": 219648,
            "durationTicks": 256
          },
          {
            "time": 134.21875,
            "midi": 47,
            "name": "B2",
            "velocity": 0.3858267716535433,
            "duration": 0.15625,
            "ticks": 219904,
            "durationTicks": 256
          },
          {
            "time": 134.375,
            "midi": 45,
            "name": "A2",
            "velocity": 0.3858267716535433,
            "duration": 0.3125,
            "ticks": 220160,
            "durationTicks": 512
          },
          {
            "time": 134.6875,
            "midi": 49,
            "name": "C#3",
            "velocity": 0.3858267716535433,
            "duration": 0.3125,
            "ticks": 220672,
            "durationTicks": 512
          },
          {
            "time": 135,
            "midi": 50,
            "name": "D3",
            "velocity": 0.3858267716535433,
            "duration": 0.3125,
            "ticks": 221184,
            "durationTicks": 512
          },
          {
            "time": 135.3125,
            "midi": 52,
            "name": "E3",
            "velocity": 0.3858267716535433,
            "duration": 0.3125,
            "ticks": 221696,
            "durationTicks": 512
          },
          {
            "time": 135.625,
            "midi": 53,
            "name": "F3",
            "velocity": 0.3858267716535433,
            "duration": 0.3125,
            "ticks": 222208,
            "durationTicks": 512
          },
          {
            "time": 135.9375,
            "midi": 50,
            "name": "D3",
            "velocity": 0.3858267716535433,
            "duration": 0.3125,
            "ticks": 222720,
            "durationTicks": 512
          },
          {
            "time": 136.25,
            "midi": 53,
            "name": "F3",
            "velocity": 0.3858267716535433,
            "duration": 0.3125,
            "ticks": 223232,
            "durationTicks": 512
          },
          {
            "time": 136.5625,
            "midi": 55,
            "name": "G3",
            "velocity": 0.3858267716535433,
            "duration": 0.3125,
            "ticks": 223744,
            "durationTicks": 512
          },
          {
            "time": 136.875,
            "midi": 45,
            "name": "A2",
            "velocity": 0.3858267716535433,
            "duration": 0.3125,
            "ticks": 224256,
            "durationTicks": 512
          },
          {
            "time": 137.1875,
            "midi": 47,
            "name": "B2",
            "velocity": 0.3858267716535433,
            "duration": 0.3125,
            "ticks": 224768,
            "durationTicks": 512
          },
          {
            "time": 137.5,
            "midi": 49,
            "name": "C#3",
            "velocity": 0.3858267716535433,
            "duration": 0.3125,
            "ticks": 225280,
            "durationTicks": 512
          },
          {
            "time": 137.8125,
            "midi": 47,
            "name": "B2",
            "velocity": 0.3858267716535433,
            "duration": 0.3125,
            "ticks": 225792,
            "durationTicks": 512
          },
          {
            "time": 138.125,
            "midi": 49,
            "name": "C#3",
            "velocity": 0.3858267716535433,
            "duration": 0.3125,
            "ticks": 226304,
            "durationTicks": 512
          },
          {
            "time": 138.4375,
            "midi": 45,
            "name": "A2",
            "velocity": 0.3858267716535433,
            "duration": 0.3125,
            "ticks": 226816,
            "durationTicks": 512
          },
          {
            "time": 138.75,
            "midi": 50,
            "name": "D3",
            "velocity": 0.3858267716535433,
            "duration": 0.3125,
            "ticks": 227328,
            "durationTicks": 512
          },
          {
            "time": 139.0625,
            "midi": 52,
            "name": "E3",
            "velocity": 0.3858267716535433,
            "duration": 0.3125,
            "ticks": 227840,
            "durationTicks": 512
          },
          {
            "time": 139.375,
            "midi": 53,
            "name": "F3",
            "velocity": 0.3858267716535433,
            "duration": 0.3125,
            "ticks": 228352,
            "durationTicks": 512
          },
          {
            "time": 139.6875,
            "midi": 50,
            "name": "D3",
            "velocity": 0.3858267716535433,
            "duration": 0.3125,
            "ticks": 228864,
            "durationTicks": 512
          },
          {
            "time": 140,
            "midi": 53,
            "name": "F3",
            "velocity": 0.3858267716535433,
            "duration": 0.3125,
            "ticks": 229376,
            "durationTicks": 512
          },
          {
            "time": 140.3125,
            "midi": 55,
            "name": "G3",
            "velocity": 0.3858267716535433,
            "duration": 0.3125,
            "ticks": 229888,
            "durationTicks": 512
          },
          {
            "time": 140.625,
            "midi": 48,
            "name": "C3",
            "velocity": 0.3858267716535433,
            "duration": 0.3125,
            "ticks": 230400,
            "durationTicks": 512
          },
          {
            "time": 140.9375,
            "midi": 50,
            "name": "D3",
            "velocity": 0.3858267716535433,
            "duration": 0.3125,
            "ticks": 230912,
            "durationTicks": 512
          },
          {
            "time": 141.25,
            "midi": 52,
            "name": "E3",
            "velocity": 0.3858267716535433,
            "duration": 0.3125,
            "ticks": 231424,
            "durationTicks": 512
          },
          {
            "time": 141.5625,
            "midi": 50,
            "name": "D3",
            "velocity": 0.3858267716535433,
            "duration": 0.3125,
            "ticks": 231936,
            "durationTicks": 512
          },
          {
            "time": 141.875,
            "midi": 52,
            "name": "E3",
            "velocity": 0.3858267716535433,
            "duration": 0.3125,
            "ticks": 232448,
            "durationTicks": 512
          },
          {
            "time": 142.1875,
            "midi": 48,
            "name": "C3",
            "velocity": 0.3858267716535433,
            "duration": 0.3125,
            "ticks": 232960,
            "durationTicks": 512
          },
          {
            "time": 142.5,
            "midi": 53,
            "name": "F3",
            "velocity": 0.3858267716535433,
            "duration": 0.3125,
            "ticks": 233472,
            "durationTicks": 512
          },
          {
            "time": 142.8125,
            "midi": 55,
            "name": "G3",
            "velocity": 0.3858267716535433,
            "duration": 0.3125,
            "ticks": 233984,
            "durationTicks": 512
          },
          {
            "time": 143.125,
            "midi": 57,
            "name": "A3",
            "velocity": 0.3858267716535433,
            "duration": 0.3125,
            "ticks": 234496,
            "durationTicks": 512
          },
          {
            "time": 143.4375,
            "midi": 53,
            "name": "F3",
            "velocity": 0.3858267716535433,
            "duration": 0.3125,
            "ticks": 235008,
            "durationTicks": 512
          },
          {
            "time": 143.75,
            "midi": 57,
            "name": "A3",
            "velocity": 0.3858267716535433,
            "duration": 0.3125,
            "ticks": 235520,
            "durationTicks": 512
          },
          {
            "time": 144.0625,
            "midi": 59,
            "name": "B3",
            "velocity": 0.3858267716535433,
            "duration": 0.3125,
            "ticks": 236032,
            "durationTicks": 512
          },
          {
            "time": 144.375,
            "midi": 60,
            "name": "C4",
            "velocity": 0.3858267716535433,
            "duration": 0.625,
            "ticks": 236544,
            "durationTicks": 1024
          },
          {
            "time": 145,
            "midi": 61,
            "name": "C#4",
            "velocity": 0.3858267716535433,
            "duration": 0.9375,
            "ticks": 237568,
            "durationTicks": 1536
          },
          {
            "time": 145.9375,
            "midi": 61,
            "name": "C#4",
            "velocity": 0.3858267716535433,
            "duration": 0.3125,
            "ticks": 239104,
            "durationTicks": 512
          },
          {
            "time": 146.25,
            "midi": 62,
            "name": "D4",
            "velocity": 0.3858267716535433,
            "duration": 0.3125,
            "ticks": 239616,
            "durationTicks": 512
          },
          {
            "time": 146.5625,
            "midi": 55,
            "name": "G3",
            "velocity": 0.3858267716535433,
            "duration": 0.3125,
            "ticks": 240128,
            "durationTicks": 512
          },
          {
            "time": 146.875,
            "midi": 57,
            "name": "A3",
            "velocity": 0.3858267716535433,
            "duration": 0.625,
            "ticks": 240640,
            "durationTicks": 1024
          },
          {
            "time": 147.5,
            "midi": 45,
            "name": "A2",
            "velocity": 0.3858267716535433,
            "duration": 0.625,
            "ticks": 241664,
            "durationTicks": 1024
          },
          {
            "time": 148.125,
            "midi": 50,
            "name": "D3",
            "velocity": 0.3858267716535433,
            "duration": 1.875,
            "ticks": 242688,
            "durationTicks": 3072
          },
          {
            "time": 150,
            "midi": 50,
            "name": "D3",
            "velocity": 0.3858267716535433,
            "duration": 0.15625,
            "ticks": 245760,
            "durationTicks": 256
          },
          {
            "time": 150.15625,
            "midi": 53,
            "name": "F3",
            "velocity": 0.3858267716535433,
            "duration": 0.15625,
            "ticks": 246016,
            "durationTicks": 256
          },
          {
            "time": 150.3125,
            "midi": 55,
            "name": "G3",
            "velocity": 0.3858267716535433,
            "duration": 0.15625,
            "ticks": 246272,
            "durationTicks": 256
          },
          {
            "time": 150.46875,
            "midi": 57,
            "name": "A3",
            "velocity": 0.3858267716535433,
            "duration": 0.15625,
            "ticks": 246528,
            "durationTicks": 256
          },
          {
            "time": 150.625,
            "midi": 50,
            "name": "D3",
            "velocity": 0.3858267716535433,
            "duration": 0.15625,
            "ticks": 246784,
            "durationTicks": 256
          },
          {
            "time": 150.78125,
            "midi": 53,
            "name": "F3",
            "velocity": 0.3858267716535433,
            "duration": 0.15625,
            "ticks": 247040,
            "durationTicks": 256
          },
          {
            "time": 150.9375,
            "midi": 55,
            "name": "G3",
            "velocity": 0.3858267716535433,
            "duration": 0.15625,
            "ticks": 247296,
            "durationTicks": 256
          },
          {
            "time": 151.09375,
            "midi": 57,
            "name": "A3",
            "velocity": 0.3858267716535433,
            "duration": 0.15625,
            "ticks": 247552,
            "durationTicks": 256
          },
          {
            "time": 151.25,
            "midi": 50,
            "name": "D3",
            "velocity": 0.3858267716535433,
            "duration": 0.15625,
            "ticks": 247808,
            "durationTicks": 256
          },
          {
            "time": 151.40625,
            "midi": 53,
            "name": "F3",
            "velocity": 0.3858267716535433,
            "duration": 0.15625,
            "ticks": 248064,
            "durationTicks": 256
          },
          {
            "time": 151.5625,
            "midi": 52,
            "name": "E3",
            "velocity": 0.3858267716535433,
            "duration": 0.15625,
            "ticks": 248320,
            "durationTicks": 256
          },
          {
            "time": 151.71875,
            "midi": 50,
            "name": "D3",
            "velocity": 0.3858267716535433,
            "duration": 0.15625,
            "ticks": 248576,
            "durationTicks": 256
          },
          {
            "time": 151.875,
            "midi": 57,
            "name": "A3",
            "velocity": 0.3858267716535433,
            "duration": 0.15625,
            "ticks": 248832,
            "durationTicks": 256
          },
          {
            "time": 152.03125,
            "midi": 61,
            "name": "C#4",
            "velocity": 0.3858267716535433,
            "duration": 0.15625,
            "ticks": 249088,
            "durationTicks": 256
          },
          {
            "time": 152.1875,
            "midi": 62,
            "name": "D4",
            "velocity": 0.3858267716535433,
            "duration": 0.15625,
            "ticks": 249344,
            "durationTicks": 256
          },
          {
            "time": 152.34375,
            "midi": 64,
            "name": "E4",
            "velocity": 0.3858267716535433,
            "duration": 0.15625,
            "ticks": 249600,
            "durationTicks": 256
          },
          {
            "time": 152.5,
            "midi": 57,
            "name": "A3",
            "velocity": 0.3858267716535433,
            "duration": 0.15625,
            "ticks": 249856,
            "durationTicks": 256
          },
          {
            "time": 152.65625,
            "midi": 61,
            "name": "C#4",
            "velocity": 0.3858267716535433,
            "duration": 0.15625,
            "ticks": 250112,
            "durationTicks": 256
          },
          {
            "time": 152.8125,
            "midi": 62,
            "name": "D4",
            "velocity": 0.3858267716535433,
            "duration": 0.15625,
            "ticks": 250368,
            "durationTicks": 256
          },
          {
            "time": 152.96875,
            "midi": 64,
            "name": "E4",
            "velocity": 0.3858267716535433,
            "duration": 0.15625,
            "ticks": 250624,
            "durationTicks": 256
          },
          {
            "time": 153.125,
            "midi": 57,
            "name": "A3",
            "velocity": 0.3858267716535433,
            "duration": 0.15625,
            "ticks": 250880,
            "durationTicks": 256
          },
          {
            "time": 153.28125,
            "midi": 61,
            "name": "C#4",
            "velocity": 0.3858267716535433,
            "duration": 0.15625,
            "ticks": 251136,
            "durationTicks": 256
          },
          {
            "time": 153.4375,
            "midi": 59,
            "name": "B3",
            "velocity": 0.3858267716535433,
            "duration": 0.15625,
            "ticks": 251392,
            "durationTicks": 256
          },
          {
            "time": 153.59375,
            "midi": 57,
            "name": "A3",
            "velocity": 0.3858267716535433,
            "duration": 0.15625,
            "ticks": 251648,
            "durationTicks": 256
          },
          {
            "time": 153.75,
            "midi": 50,
            "name": "D3",
            "velocity": 0.3858267716535433,
            "duration": 0.15625,
            "ticks": 251904,
            "durationTicks": 256
          },
          {
            "time": 153.90625,
            "midi": 53,
            "name": "F3",
            "velocity": 0.3858267716535433,
            "duration": 0.15625,
            "ticks": 252160,
            "durationTicks": 256
          },
          {
            "time": 154.0625,
            "midi": 55,
            "name": "G3",
            "velocity": 0.3858267716535433,
            "duration": 0.15625,
            "ticks": 252416,
            "durationTicks": 256
          },
          {
            "time": 154.21875,
            "midi": 57,
            "name": "A3",
            "velocity": 0.3858267716535433,
            "duration": 0.15625,
            "ticks": 252672,
            "durationTicks": 256
          },
          {
            "time": 154.375,
            "midi": 50,
            "name": "D3",
            "velocity": 0.3858267716535433,
            "duration": 0.15625,
            "ticks": 252928,
            "durationTicks": 256
          },
          {
            "time": 154.53125,
            "midi": 53,
            "name": "F3",
            "velocity": 0.3858267716535433,
            "duration": 0.15625,
            "ticks": 253184,
            "durationTicks": 256
          },
          {
            "time": 154.6875,
            "midi": 55,
            "name": "G3",
            "velocity": 0.3858267716535433,
            "duration": 0.15625,
            "ticks": 253440,
            "durationTicks": 256
          },
          {
            "time": 154.84375,
            "midi": 57,
            "name": "A3",
            "velocity": 0.3858267716535433,
            "duration": 0.15625,
            "ticks": 253696,
            "durationTicks": 256
          },
          {
            "time": 155,
            "midi": 50,
            "name": "D3",
            "velocity": 0.3858267716535433,
            "duration": 0.15625,
            "ticks": 253952,
            "durationTicks": 256
          },
          {
            "time": 155.15625,
            "midi": 53,
            "name": "F3",
            "velocity": 0.3858267716535433,
            "duration": 0.15625,
            "ticks": 254208,
            "durationTicks": 256
          },
          {
            "time": 155.3125,
            "midi": 52,
            "name": "E3",
            "velocity": 0.3858267716535433,
            "duration": 0.15625,
            "ticks": 254464,
            "durationTicks": 256
          },
          {
            "time": 155.46875,
            "midi": 50,
            "name": "D3",
            "velocity": 0.3858267716535433,
            "duration": 0.15625,
            "ticks": 254720,
            "durationTicks": 256
          },
          {
            "time": 155.625,
            "midi": 48,
            "name": "C3",
            "velocity": 0.3858267716535433,
            "duration": 0.15625,
            "ticks": 254976,
            "durationTicks": 256
          },
          {
            "time": 155.78125,
            "midi": 52,
            "name": "E3",
            "velocity": 0.3858267716535433,
            "duration": 0.15625,
            "ticks": 255232,
            "durationTicks": 256
          },
          {
            "time": 155.9375,
            "midi": 53,
            "name": "F3",
            "velocity": 0.3858267716535433,
            "duration": 0.15625,
            "ticks": 255488,
            "durationTicks": 256
          },
          {
            "time": 156.09375,
            "midi": 55,
            "name": "G3",
            "velocity": 0.3858267716535433,
            "duration": 0.15625,
            "ticks": 255744,
            "durationTicks": 256
          },
          {
            "time": 156.25,
            "midi": 48,
            "name": "C3",
            "velocity": 0.3858267716535433,
            "duration": 0.15625,
            "ticks": 256000,
            "durationTicks": 256
          },
          {
            "time": 156.40625,
            "midi": 52,
            "name": "E3",
            "velocity": 0.3858267716535433,
            "duration": 0.15625,
            "ticks": 256256,
            "durationTicks": 256
          },
          {
            "time": 156.5625,
            "midi": 53,
            "name": "F3",
            "velocity": 0.3858267716535433,
            "duration": 0.15625,
            "ticks": 256512,
            "durationTicks": 256
          },
          {
            "time": 156.71875,
            "midi": 55,
            "name": "G3",
            "velocity": 0.3858267716535433,
            "duration": 0.15625,
            "ticks": 256768,
            "durationTicks": 256
          },
          {
            "time": 156.875,
            "midi": 48,
            "name": "C3",
            "velocity": 0.3858267716535433,
            "duration": 0.15625,
            "ticks": 257024,
            "durationTicks": 256
          },
          {
            "time": 157.03125,
            "midi": 52,
            "name": "E3",
            "velocity": 0.3858267716535433,
            "duration": 0.15625,
            "ticks": 257280,
            "durationTicks": 256
          },
          {
            "time": 157.1875,
            "midi": 50,
            "name": "D3",
            "velocity": 0.3858267716535433,
            "duration": 0.15625,
            "ticks": 257536,
            "durationTicks": 256
          },
          {
            "time": 157.34375,
            "midi": 48,
            "name": "C3",
            "velocity": 0.3858267716535433,
            "duration": 0.15625,
            "ticks": 257792,
            "durationTicks": 256
          },
          {
            "time": 157.5,
            "midi": 53,
            "name": "F3",
            "velocity": 0.3858267716535433,
            "duration": 0.15625,
            "ticks": 258048,
            "durationTicks": 256
          },
          {
            "time": 157.65625,
            "midi": 57,
            "name": "A3",
            "velocity": 0.3858267716535433,
            "duration": 0.15625,
            "ticks": 258304,
            "durationTicks": 256
          },
          {
            "time": 157.8125,
            "midi": 58,
            "name": "A#3",
            "velocity": 0.3858267716535433,
            "duration": 0.15625,
            "ticks": 258560,
            "durationTicks": 256
          },
          {
            "time": 157.96875,
            "midi": 60,
            "name": "C4",
            "velocity": 0.3858267716535433,
            "duration": 0.15625,
            "ticks": 258816,
            "durationTicks": 256
          },
          {
            "time": 158.125,
            "midi": 53,
            "name": "F3",
            "velocity": 0.3858267716535433,
            "duration": 0.15625,
            "ticks": 259072,
            "durationTicks": 256
          },
          {
            "time": 158.28125,
            "midi": 57,
            "name": "A3",
            "velocity": 0.3858267716535433,
            "duration": 0.15625,
            "ticks": 259328,
            "durationTicks": 256
          },
          {
            "time": 158.4375,
            "midi": 58,
            "name": "A#3",
            "velocity": 0.3858267716535433,
            "duration": 0.15625,
            "ticks": 259584,
            "durationTicks": 256
          },
          {
            "time": 158.59375,
            "midi": 60,
            "name": "C4",
            "velocity": 0.3858267716535433,
            "duration": 0.15625,
            "ticks": 259840,
            "durationTicks": 256
          },
          {
            "time": 158.75,
            "midi": 53,
            "name": "F3",
            "velocity": 0.3858267716535433,
            "duration": 0.15625,
            "ticks": 260096,
            "durationTicks": 256
          },
          {
            "time": 158.90625,
            "midi": 57,
            "name": "A3",
            "velocity": 0.3858267716535433,
            "duration": 0.15625,
            "ticks": 260352,
            "durationTicks": 256
          },
          {
            "time": 159.0625,
            "midi": 55,
            "name": "G3",
            "velocity": 0.3858267716535433,
            "duration": 0.15625,
            "ticks": 260608,
            "durationTicks": 256
          },
          {
            "time": 159.21875,
            "midi": 53,
            "name": "F3",
            "velocity": 0.3858267716535433,
            "duration": 0.15625,
            "ticks": 260864,
            "durationTicks": 256
          },
          {
            "time": 159.375,
            "midi": 60,
            "name": "C4",
            "velocity": 0.3858267716535433,
            "duration": 0.15625,
            "ticks": 261120,
            "durationTicks": 256
          },
          {
            "time": 159.53125,
            "midi": 60,
            "name": "C4",
            "velocity": 0.3858267716535433,
            "duration": 0.15625,
            "ticks": 261376,
            "durationTicks": 256
          },
          {
            "time": 159.6875,
            "midi": 62,
            "name": "D4",
            "velocity": 0.3858267716535433,
            "duration": 0.15625,
            "ticks": 261632,
            "durationTicks": 256
          },
          {
            "time": 159.84375,
            "midi": 64,
            "name": "E4",
            "velocity": 0.3858267716535433,
            "duration": 0.15625,
            "ticks": 261888,
            "durationTicks": 256
          },
          {
            "time": 160,
            "midi": 61,
            "name": "C#4",
            "velocity": 0.3858267716535433,
            "duration": 0.15625,
            "ticks": 262144,
            "durationTicks": 256
          },
          {
            "time": 160.15625,
            "midi": 61,
            "name": "C#4",
            "velocity": 0.3858267716535433,
            "duration": 0.15625,
            "ticks": 262400,
            "durationTicks": 256
          },
          {
            "time": 160.3125,
            "midi": 62,
            "name": "D4",
            "velocity": 0.3858267716535433,
            "duration": 0.15625,
            "ticks": 262656,
            "durationTicks": 256
          },
          {
            "time": 160.46875,
            "midi": 64,
            "name": "E4",
            "velocity": 0.3858267716535433,
            "duration": 0.15625,
            "ticks": 262912,
            "durationTicks": 256
          },
          {
            "time": 160.625,
            "midi": 57,
            "name": "A3",
            "velocity": 0.3858267716535433,
            "duration": 0.15625,
            "ticks": 263168,
            "durationTicks": 256
          },
          {
            "time": 160.78125,
            "midi": 61,
            "name": "C#4",
            "velocity": 0.3858267716535433,
            "duration": 0.15625,
            "ticks": 263424,
            "durationTicks": 256
          },
          {
            "time": 160.9375,
            "midi": 59,
            "name": "B3",
            "velocity": 0.3858267716535433,
            "duration": 0.15625,
            "ticks": 263680,
            "durationTicks": 256
          },
          {
            "time": 161.09375,
            "midi": 57,
            "name": "A3",
            "velocity": 0.3858267716535433,
            "duration": 0.15625,
            "ticks": 263936,
            "durationTicks": 256
          },
          {
            "time": 161.25,
            "midi": 62,
            "name": "D4",
            "velocity": 0.3858267716535433,
            "duration": 0.15625,
            "ticks": 264192,
            "durationTicks": 256
          },
          {
            "time": 161.40625,
            "midi": 53,
            "name": "F3",
            "velocity": 0.3858267716535433,
            "duration": 0.15625,
            "ticks": 264448,
            "durationTicks": 256
          },
          {
            "time": 161.5625,
            "midi": 55,
            "name": "G3",
            "velocity": 0.3858267716535433,
            "duration": 0.15625,
            "ticks": 264704,
            "durationTicks": 256
          },
          {
            "time": 161.71875,
            "midi": 57,
            "name": "A3",
            "velocity": 0.3858267716535433,
            "duration": 0.15625,
            "ticks": 264960,
            "durationTicks": 256
          },
          {
            "time": 161.875,
            "midi": 50,
            "name": "D3",
            "velocity": 0.3858267716535433,
            "duration": 0.15625,
            "ticks": 265216,
            "durationTicks": 256
          },
          {
            "time": 162.03125,
            "midi": 53,
            "name": "F3",
            "velocity": 0.3858267716535433,
            "duration": 0.15625,
            "ticks": 265472,
            "durationTicks": 256
          },
          {
            "time": 162.1875,
            "midi": 55,
            "name": "G3",
            "velocity": 0.3858267716535433,
            "duration": 0.15625,
            "ticks": 265728,
            "durationTicks": 256
          },
          {
            "time": 162.34375,
            "midi": 57,
            "name": "A3",
            "velocity": 0.3858267716535433,
            "duration": 0.15625,
            "ticks": 265984,
            "durationTicks": 256
          },
          {
            "time": 162.5,
            "midi": 50,
            "name": "D3",
            "velocity": 0.3858267716535433,
            "duration": 0.15625,
            "ticks": 266240,
            "durationTicks": 256
          },
          {
            "time": 162.65625,
            "midi": 53,
            "name": "F3",
            "velocity": 0.3858267716535433,
            "duration": 0.15625,
            "ticks": 266496,
            "durationTicks": 256
          },
          {
            "time": 162.8125,
            "midi": 52,
            "name": "E3",
            "velocity": 0.3858267716535433,
            "duration": 0.15625,
            "ticks": 266752,
            "durationTicks": 256
          },
          {
            "time": 162.96875,
            "midi": 50,
            "name": "D3",
            "velocity": 0.3858267716535433,
            "duration": 0.15625,
            "ticks": 267008,
            "durationTicks": 256
          },
          {
            "time": 163.125,
            "midi": 57,
            "name": "A3",
            "velocity": 0.3858267716535433,
            "duration": 0.15625,
            "ticks": 267264,
            "durationTicks": 256
          },
          {
            "time": 163.28125,
            "midi": 49,
            "name": "C#3",
            "velocity": 0.3858267716535433,
            "duration": 0.15625,
            "ticks": 267520,
            "durationTicks": 256
          },
          {
            "time": 163.4375,
            "midi": 50,
            "name": "D3",
            "velocity": 0.3858267716535433,
            "duration": 0.15625,
            "ticks": 267776,
            "durationTicks": 256
          },
          {
            "time": 163.59375,
            "midi": 52,
            "name": "E3",
            "velocity": 0.3858267716535433,
            "duration": 0.15625,
            "ticks": 268032,
            "durationTicks": 256
          },
          {
            "time": 163.75,
            "midi": 45,
            "name": "A2",
            "velocity": 0.3858267716535433,
            "duration": 0.15625,
            "ticks": 268288,
            "durationTicks": 256
          },
          {
            "time": 163.90625,
            "midi": 49,
            "name": "C#3",
            "velocity": 0.3858267716535433,
            "duration": 0.15625,
            "ticks": 268544,
            "durationTicks": 256
          },
          {
            "time": 164.0625,
            "midi": 50,
            "name": "D3",
            "velocity": 0.3858267716535433,
            "duration": 0.15625,
            "ticks": 268800,
            "durationTicks": 256
          },
          {
            "time": 164.21875,
            "midi": 52,
            "name": "E3",
            "velocity": 0.3858267716535433,
            "duration": 0.15625,
            "ticks": 269056,
            "durationTicks": 256
          },
          {
            "time": 164.375,
            "midi": 45,
            "name": "A2",
            "velocity": 0.3858267716535433,
            "duration": 0.15625,
            "ticks": 269312,
            "durationTicks": 256
          },
          {
            "time": 164.53125,
            "midi": 49,
            "name": "C#3",
            "velocity": 0.3858267716535433,
            "duration": 0.15625,
            "ticks": 269568,
            "durationTicks": 256
          },
          {
            "time": 164.6875,
            "midi": 47,
            "name": "B2",
            "velocity": 0.3858267716535433,
            "duration": 0.15625,
            "ticks": 269824,
            "durationTicks": 256
          },
          {
            "time": 164.84375,
            "midi": 45,
            "name": "A2",
            "velocity": 0.3858267716535433,
            "duration": 0.15625,
            "ticks": 270080,
            "durationTicks": 256
          },
          {
            "time": 165,
            "midi": 50,
            "name": "D3",
            "velocity": 0.3858267716535433,
            "duration": 0.15625,
            "ticks": 270336,
            "durationTicks": 256
          },
          {
            "time": 165.15625,
            "midi": 53,
            "name": "F3",
            "velocity": 0.3858267716535433,
            "duration": 0.15625,
            "ticks": 270592,
            "durationTicks": 256
          },
          {
            "time": 165.3125,
            "midi": 55,
            "name": "G3",
            "velocity": 0.3858267716535433,
            "duration": 0.15625,
            "ticks": 270848,
            "durationTicks": 256
          },
          {
            "time": 165.46875,
            "midi": 57,
            "name": "A3",
            "velocity": 0.3858267716535433,
            "duration": 0.15625,
            "ticks": 271104,
            "durationTicks": 256
          },
          {
            "time": 165.625,
            "midi": 50,
            "name": "D3",
            "velocity": 0.3858267716535433,
            "duration": 0.15625,
            "ticks": 271360,
            "durationTicks": 256
          },
          {
            "time": 165.78125,
            "midi": 53,
            "name": "F3",
            "velocity": 0.3858267716535433,
            "duration": 0.15625,
            "ticks": 271616,
            "durationTicks": 256
          },
          {
            "time": 165.9375,
            "midi": 55,
            "name": "G3",
            "velocity": 0.3858267716535433,
            "duration": 0.15625,
            "ticks": 271872,
            "durationTicks": 256
          },
          {
            "time": 166.09375,
            "midi": 57,
            "name": "A3",
            "velocity": 0.3858267716535433,
            "duration": 0.15625,
            "ticks": 272128,
            "durationTicks": 256
          },
          {
            "time": 166.25,
            "midi": 50,
            "name": "D3",
            "velocity": 0.3858267716535433,
            "duration": 0.15625,
            "ticks": 272384,
            "durationTicks": 256
          },
          {
            "time": 166.40625,
            "midi": 53,
            "name": "F3",
            "velocity": 0.3858267716535433,
            "duration": 0.15625,
            "ticks": 272640,
            "durationTicks": 256
          },
          {
            "time": 166.5625,
            "midi": 52,
            "name": "E3",
            "velocity": 0.3858267716535433,
            "duration": 0.15625,
            "ticks": 272896,
            "durationTicks": 256
          },
          {
            "time": 166.71875,
            "midi": 50,
            "name": "D3",
            "velocity": 0.3858267716535433,
            "duration": 0.15625,
            "ticks": 273152,
            "durationTicks": 256
          },
          {
            "time": 166.875,
            "midi": 57,
            "name": "A3",
            "velocity": 0.3858267716535433,
            "duration": 0.15625,
            "ticks": 273408,
            "durationTicks": 256
          },
          {
            "time": 167.03125,
            "midi": 61,
            "name": "C#4",
            "velocity": 0.3858267716535433,
            "duration": 0.15625,
            "ticks": 273664,
            "durationTicks": 256
          },
          {
            "time": 167.1875,
            "midi": 62,
            "name": "D4",
            "velocity": 0.3858267716535433,
            "duration": 0.15625,
            "ticks": 273920,
            "durationTicks": 256
          },
          {
            "time": 167.34375,
            "midi": 64,
            "name": "E4",
            "velocity": 0.3858267716535433,
            "duration": 0.15625,
            "ticks": 274176,
            "durationTicks": 256
          },
          {
            "time": 167.5,
            "midi": 57,
            "name": "A3",
            "velocity": 0.3858267716535433,
            "duration": 0.15625,
            "ticks": 274432,
            "durationTicks": 256
          },
          {
            "time": 167.65625,
            "midi": 61,
            "name": "C#4",
            "velocity": 0.3858267716535433,
            "duration": 0.15625,
            "ticks": 274688,
            "durationTicks": 256
          },
          {
            "time": 167.8125,
            "midi": 62,
            "name": "D4",
            "velocity": 0.3858267716535433,
            "duration": 0.15625,
            "ticks": 274944,
            "durationTicks": 256
          },
          {
            "time": 167.96875,
            "midi": 64,
            "name": "E4",
            "velocity": 0.3858267716535433,
            "duration": 0.15625,
            "ticks": 275200,
            "durationTicks": 256
          },
          {
            "time": 168.125,
            "midi": 57,
            "name": "A3",
            "velocity": 0.3858267716535433,
            "duration": 0.15625,
            "ticks": 275456,
            "durationTicks": 256
          },
          {
            "time": 168.28125,
            "midi": 61,
            "name": "C#4",
            "velocity": 0.3858267716535433,
            "duration": 0.15625,
            "ticks": 275712,
            "durationTicks": 256
          },
          {
            "time": 168.4375,
            "midi": 59,
            "name": "B3",
            "velocity": 0.3858267716535433,
            "duration": 0.15625,
            "ticks": 275968,
            "durationTicks": 256
          },
          {
            "time": 168.59375,
            "midi": 57,
            "name": "A3",
            "velocity": 0.3858267716535433,
            "duration": 0.15625,
            "ticks": 276224,
            "durationTicks": 256
          },
          {
            "time": 168.75,
            "midi": 50,
            "name": "D3",
            "velocity": 0.3858267716535433,
            "duration": 0.15625,
            "ticks": 276480,
            "durationTicks": 256
          },
          {
            "time": 168.90625,
            "midi": 53,
            "name": "F3",
            "velocity": 0.3858267716535433,
            "duration": 0.15625,
            "ticks": 276736,
            "durationTicks": 256
          },
          {
            "time": 169.0625,
            "midi": 55,
            "name": "G3",
            "velocity": 0.3858267716535433,
            "duration": 0.15625,
            "ticks": 276992,
            "durationTicks": 256
          },
          {
            "time": 169.21875,
            "midi": 57,
            "name": "A3",
            "velocity": 0.3858267716535433,
            "duration": 0.15625,
            "ticks": 277248,
            "durationTicks": 256
          },
          {
            "time": 169.375,
            "midi": 50,
            "name": "D3",
            "velocity": 0.3858267716535433,
            "duration": 0.15625,
            "ticks": 277504,
            "durationTicks": 256
          },
          {
            "time": 169.53125,
            "midi": 53,
            "name": "F3",
            "velocity": 0.3858267716535433,
            "duration": 0.15625,
            "ticks": 277760,
            "durationTicks": 256
          },
          {
            "time": 169.6875,
            "midi": 55,
            "name": "G3",
            "velocity": 0.3858267716535433,
            "duration": 0.15625,
            "ticks": 278016,
            "durationTicks": 256
          },
          {
            "time": 169.84375,
            "midi": 57,
            "name": "A3",
            "velocity": 0.3858267716535433,
            "duration": 0.15625,
            "ticks": 278272,
            "durationTicks": 256
          },
          {
            "time": 170,
            "midi": 50,
            "name": "D3",
            "velocity": 0.3858267716535433,
            "duration": 0.15625,
            "ticks": 278528,
            "durationTicks": 256
          },
          {
            "time": 170.15625,
            "midi": 53,
            "name": "F3",
            "velocity": 0.3858267716535433,
            "duration": 0.15625,
            "ticks": 278784,
            "durationTicks": 256
          },
          {
            "time": 170.3125,
            "midi": 52,
            "name": "E3",
            "velocity": 0.3858267716535433,
            "duration": 0.15625,
            "ticks": 279040,
            "durationTicks": 256
          },
          {
            "time": 170.46875,
            "midi": 50,
            "name": "D3",
            "velocity": 0.3858267716535433,
            "duration": 0.15625,
            "ticks": 279296,
            "durationTicks": 256
          },
          {
            "time": 170.625,
            "midi": 48,
            "name": "C3",
            "velocity": 0.3858267716535433,
            "duration": 0.15625,
            "ticks": 279552,
            "durationTicks": 256
          },
          {
            "time": 170.78125,
            "midi": 52,
            "name": "E3",
            "velocity": 0.3858267716535433,
            "duration": 0.15625,
            "ticks": 279808,
            "durationTicks": 256
          },
          {
            "time": 170.9375,
            "midi": 53,
            "name": "F3",
            "velocity": 0.3858267716535433,
            "duration": 0.15625,
            "ticks": 280064,
            "durationTicks": 256
          },
          {
            "time": 171.09375,
            "midi": 55,
            "name": "G3",
            "velocity": 0.3858267716535433,
            "duration": 0.15625,
            "ticks": 280320,
            "durationTicks": 256
          },
          {
            "time": 171.25,
            "midi": 48,
            "name": "C3",
            "velocity": 0.3858267716535433,
            "duration": 0.15625,
            "ticks": 280576,
            "durationTicks": 256
          },
          {
            "time": 171.40625,
            "midi": 52,
            "name": "E3",
            "velocity": 0.3858267716535433,
            "duration": 0.15625,
            "ticks": 280832,
            "durationTicks": 256
          },
          {
            "time": 171.5625,
            "midi": 53,
            "name": "F3",
            "velocity": 0.3858267716535433,
            "duration": 0.15625,
            "ticks": 281088,
            "durationTicks": 256
          },
          {
            "time": 171.71875,
            "midi": 55,
            "name": "G3",
            "velocity": 0.3858267716535433,
            "duration": 0.15625,
            "ticks": 281344,
            "durationTicks": 256
          },
          {
            "time": 171.875,
            "midi": 48,
            "name": "C3",
            "velocity": 0.3858267716535433,
            "duration": 0.15625,
            "ticks": 281600,
            "durationTicks": 256
          },
          {
            "time": 172.03125,
            "midi": 52,
            "name": "E3",
            "velocity": 0.3858267716535433,
            "duration": 0.15625,
            "ticks": 281856,
            "durationTicks": 256
          },
          {
            "time": 172.1875,
            "midi": 50,
            "name": "D3",
            "velocity": 0.3858267716535433,
            "duration": 0.15625,
            "ticks": 282112,
            "durationTicks": 256
          },
          {
            "time": 172.34375,
            "midi": 48,
            "name": "C3",
            "velocity": 0.3858267716535433,
            "duration": 0.15625,
            "ticks": 282368,
            "durationTicks": 256
          },
          {
            "time": 172.5,
            "midi": 53,
            "name": "F3",
            "velocity": 0.3858267716535433,
            "duration": 0.15625,
            "ticks": 282624,
            "durationTicks": 256
          },
          {
            "time": 172.65625,
            "midi": 57,
            "name": "A3",
            "velocity": 0.3858267716535433,
            "duration": 0.15625,
            "ticks": 282880,
            "durationTicks": 256
          },
          {
            "time": 172.8125,
            "midi": 58,
            "name": "A#3",
            "velocity": 0.3858267716535433,
            "duration": 0.15625,
            "ticks": 283136,
            "durationTicks": 256
          },
          {
            "time": 172.96875,
            "midi": 60,
            "name": "C4",
            "velocity": 0.3858267716535433,
            "duration": 0.15625,
            "ticks": 283392,
            "durationTicks": 256
          },
          {
            "time": 173.125,
            "midi": 53,
            "name": "F3",
            "velocity": 0.3858267716535433,
            "duration": 0.15625,
            "ticks": 283648,
            "durationTicks": 256
          },
          {
            "time": 173.28125,
            "midi": 57,
            "name": "A3",
            "velocity": 0.3858267716535433,
            "duration": 0.15625,
            "ticks": 283904,
            "durationTicks": 256
          },
          {
            "time": 173.4375,
            "midi": 58,
            "name": "A#3",
            "velocity": 0.3858267716535433,
            "duration": 0.15625,
            "ticks": 284160,
            "durationTicks": 256
          },
          {
            "time": 173.59375,
            "midi": 60,
            "name": "C4",
            "velocity": 0.3858267716535433,
            "duration": 0.15625,
            "ticks": 284416,
            "durationTicks": 256
          },
          {
            "time": 173.75,
            "midi": 53,
            "name": "F3",
            "velocity": 0.3858267716535433,
            "duration": 0.15625,
            "ticks": 284672,
            "durationTicks": 256
          },
          {
            "time": 173.90625,
            "midi": 57,
            "name": "A3",
            "velocity": 0.3858267716535433,
            "duration": 0.15625,
            "ticks": 284928,
            "durationTicks": 256
          },
          {
            "time": 174.0625,
            "midi": 55,
            "name": "G3",
            "velocity": 0.3858267716535433,
            "duration": 0.15625,
            "ticks": 285184,
            "durationTicks": 256
          },
          {
            "time": 174.21875,
            "midi": 53,
            "name": "F3",
            "velocity": 0.3858267716535433,
            "duration": 0.15625,
            "ticks": 285440,
            "durationTicks": 256
          },
          {
            "time": 174.375,
            "midi": 60,
            "name": "C4",
            "velocity": 0.3858267716535433,
            "duration": 0.15625,
            "ticks": 285696,
            "durationTicks": 256
          },
          {
            "time": 174.53125,
            "midi": 60,
            "name": "C4",
            "velocity": 0.3858267716535433,
            "duration": 0.15625,
            "ticks": 285952,
            "durationTicks": 256
          },
          {
            "time": 174.6875,
            "midi": 62,
            "name": "D4",
            "velocity": 0.3858267716535433,
            "duration": 0.15625,
            "ticks": 286208,
            "durationTicks": 256
          },
          {
            "time": 174.84375,
            "midi": 64,
            "name": "E4",
            "velocity": 0.3858267716535433,
            "duration": 0.15625,
            "ticks": 286464,
            "durationTicks": 256
          },
          {
            "time": 175,
            "midi": 61,
            "name": "C#4",
            "velocity": 0.3858267716535433,
            "duration": 0.15625,
            "ticks": 286720,
            "durationTicks": 256
          },
          {
            "time": 175.15625,
            "midi": 61,
            "name": "C#4",
            "velocity": 0.3858267716535433,
            "duration": 0.15625,
            "ticks": 286976,
            "durationTicks": 256
          },
          {
            "time": 175.3125,
            "midi": 62,
            "name": "D4",
            "velocity": 0.3858267716535433,
            "duration": 0.15625,
            "ticks": 287232,
            "durationTicks": 256
          },
          {
            "time": 175.46875,
            "midi": 64,
            "name": "E4",
            "velocity": 0.3858267716535433,
            "duration": 0.15625,
            "ticks": 287488,
            "durationTicks": 256
          },
          {
            "time": 175.625,
            "midi": 57,
            "name": "A3",
            "velocity": 0.3858267716535433,
            "duration": 0.15625,
            "ticks": 287744,
            "durationTicks": 256
          },
          {
            "time": 175.78125,
            "midi": 61,
            "name": "C#4",
            "velocity": 0.3858267716535433,
            "duration": 0.15625,
            "ticks": 288000,
            "durationTicks": 256
          },
          {
            "time": 175.9375,
            "midi": 59,
            "name": "B3",
            "velocity": 0.3858267716535433,
            "duration": 0.15625,
            "ticks": 288256,
            "durationTicks": 256
          },
          {
            "time": 176.09375,
            "midi": 57,
            "name": "A3",
            "velocity": 0.3858267716535433,
            "duration": 0.15625,
            "ticks": 288512,
            "durationTicks": 256
          },
          {
            "time": 176.25,
            "midi": 62,
            "name": "D4",
            "velocity": 0.3858267716535433,
            "duration": 0.3125,
            "ticks": 288768,
            "durationTicks": 512
          },
          {
            "time": 176.5625,
            "midi": 57,
            "name": "A3",
            "velocity": 0.3858267716535433,
            "duration": 0.3125,
            "ticks": 289280,
            "durationTicks": 512
          },
          {
            "time": 176.875,
            "midi": 58,
            "name": "A#3",
            "velocity": 0.3858267716535433,
            "duration": 0.3125,
            "ticks": 289792,
            "durationTicks": 512
          },
          {
            "time": 177.1875,
            "midi": 55,
            "name": "G3",
            "velocity": 0.3858267716535433,
            "duration": 0.3125,
            "ticks": 290304,
            "durationTicks": 512
          },
          {
            "time": 177.5,
            "midi": 57,
            "name": "A3",
            "velocity": 0.3858267716535433,
            "duration": 0.3125,
            "ticks": 290816,
            "durationTicks": 512
          },
          {
            "time": 177.8125,
            "midi": 45,
            "name": "A2",
            "velocity": 0.3858267716535433,
            "duration": 0.3125,
            "ticks": 291328,
            "durationTicks": 512
          },
          {
            "time": 178.125,
            "midi": 50,
            "name": "D3",
            "velocity": 0.3858267716535433,
            "duration": 1.875,
            "ticks": 291840,
            "durationTicks": 3072
          },
          {
            "time": 180,
            "midi": 62,
            "name": "D4",
            "velocity": 0.3858267716535433,
            "duration": 0.3125,
            "ticks": 294912,
            "durationTicks": 512
          },
          {
            "time": 180.3125,
            "midi": 50,
            "name": "D3",
            "velocity": 0.3858267716535433,
            "duration": 0.625,
            "ticks": 295424,
            "durationTicks": 1024
          },
          {
            "time": 180.9375,
            "midi": 53,
            "name": "F3",
            "velocity": 0.3858267716535433,
            "duration": 0.625,
            "ticks": 296448,
            "durationTicks": 1024
          },
          {
            "time": 181.5625,
            "midi": 50,
            "name": "D3",
            "velocity": 0.3858267716535433,
            "duration": 0.3125,
            "ticks": 297472,
            "durationTicks": 512
          },
          {
            "time": 181.875,
            "midi": 57,
            "name": "A3",
            "velocity": 0.3858267716535433,
            "duration": 0.3125,
            "ticks": 297984,
            "durationTicks": 512
          },
          {
            "time": 182.1875,
            "midi": 45,
            "name": "A2",
            "velocity": 0.3858267716535433,
            "duration": 0.625,
            "ticks": 298496,
            "durationTicks": 1024
          },
          {
            "time": 182.8125,
            "midi": 49,
            "name": "C#3",
            "velocity": 0.3858267716535433,
            "duration": 0.625,
            "ticks": 299520,
            "durationTicks": 1024
          },
          {
            "time": 183.4375,
            "midi": 45,
            "name": "A2",
            "velocity": 0.3858267716535433,
            "duration": 0.3125,
            "ticks": 300544,
            "durationTicks": 512
          },
          {
            "time": 183.75,
            "midi": 62,
            "name": "D4",
            "velocity": 0.3858267716535433,
            "duration": 0.3125,
            "ticks": 301056,
            "durationTicks": 512
          },
          {
            "time": 184.0625,
            "midi": 50,
            "name": "D3",
            "velocity": 0.3858267716535433,
            "duration": 0.625,
            "ticks": 301568,
            "durationTicks": 1024
          },
          {
            "time": 184.6875,
            "midi": 53,
            "name": "F3",
            "velocity": 0.3858267716535433,
            "duration": 0.625,
            "ticks": 302592,
            "durationTicks": 1024
          },
          {
            "time": 185.3125,
            "midi": 50,
            "name": "D3",
            "velocity": 0.3858267716535433,
            "duration": 0.3125,
            "ticks": 303616,
            "durationTicks": 512
          },
          {
            "time": 185.625,
            "midi": 60,
            "name": "C4",
            "velocity": 0.3858267716535433,
            "duration": 0.3125,
            "ticks": 304128,
            "durationTicks": 512
          },
          {
            "time": 185.9375,
            "midi": 48,
            "name": "C3",
            "velocity": 0.3858267716535433,
            "duration": 0.625,
            "ticks": 304640,
            "durationTicks": 1024
          },
          {
            "time": 186.5625,
            "midi": 52,
            "name": "E3",
            "velocity": 0.3858267716535433,
            "duration": 0.625,
            "ticks": 305664,
            "durationTicks": 1024
          },
          {
            "time": 187.1875,
            "midi": 48,
            "name": "C3",
            "velocity": 0.3858267716535433,
            "duration": 0.3125,
            "ticks": 306688,
            "durationTicks": 512
          },
          {
            "time": 187.5,
            "midi": 41,
            "name": "F2",
            "velocity": 0.3858267716535433,
            "duration": 0.3125,
            "ticks": 307200,
            "durationTicks": 512
          },
          {
            "time": 187.8125,
            "midi": 53,
            "name": "F3",
            "velocity": 0.3858267716535433,
            "duration": 0.625,
            "ticks": 307712,
            "durationTicks": 1024
          },
          {
            "time": 188.4375,
            "midi": 57,
            "name": "A3",
            "velocity": 0.3858267716535433,
            "duration": 0.625,
            "ticks": 308736,
            "durationTicks": 1024
          },
          {
            "time": 189.0625,
            "midi": 53,
            "name": "F3",
            "velocity": 0.3858267716535433,
            "duration": 0.3125,
            "ticks": 309760,
            "durationTicks": 512
          },
          {
            "time": 189.375,
            "midi": 60,
            "name": "C4",
            "velocity": 0.3858267716535433,
            "duration": 0.3125,
            "ticks": 310272,
            "durationTicks": 512
          },
          {
            "time": 189.6875,
            "midi": 48,
            "name": "C3",
            "velocity": 0.3858267716535433,
            "duration": 0.625,
            "ticks": 310784,
            "durationTicks": 1024
          },
          {
            "time": 190.3125,
            "midi": 52,
            "name": "E3",
            "velocity": 0.3858267716535433,
            "duration": 0.625,
            "ticks": 311808,
            "durationTicks": 1024
          },
          {
            "time": 190.9375,
            "midi": 49,
            "name": "C#3",
            "velocity": 0.3858267716535433,
            "duration": 0.3125,
            "ticks": 312832,
            "durationTicks": 512
          },
          {
            "time": 191.25,
            "midi": 50,
            "name": "D3",
            "velocity": 0.3858267716535433,
            "duration": 0.3125,
            "ticks": 313344,
            "durationTicks": 512
          },
          {
            "time": 191.5625,
            "midi": 62,
            "name": "D4",
            "velocity": 0.3858267716535433,
            "duration": 0.625,
            "ticks": 313856,
            "durationTicks": 1024
          },
          {
            "time": 192.1875,
            "midi": 65,
            "name": "F4",
            "velocity": 0.3858267716535433,
            "duration": 0.625,
            "ticks": 314880,
            "durationTicks": 1024
          },
          {
            "time": 192.8125,
            "midi": 62,
            "name": "D4",
            "velocity": 0.3858267716535433,
            "duration": 0.3125,
            "ticks": 315904,
            "durationTicks": 512
          },
          {
            "time": 193.125,
            "midi": 57,
            "name": "A3",
            "velocity": 0.3858267716535433,
            "duration": 0.3125,
            "ticks": 316416,
            "durationTicks": 512
          },
          {
            "time": 193.4375,
            "midi": 45,
            "name": "A2",
            "velocity": 0.3858267716535433,
            "duration": 0.625,
            "ticks": 316928,
            "durationTicks": 1024
          },
          {
            "time": 194.0625,
            "midi": 49,
            "name": "C#3",
            "velocity": 0.3858267716535433,
            "duration": 0.625,
            "ticks": 317952,
            "durationTicks": 1024
          },
          {
            "time": 194.6875,
            "midi": 45,
            "name": "A2",
            "velocity": 0.3858267716535433,
            "duration": 0.3125,
            "ticks": 318976,
            "durationTicks": 512
          },
          {
            "time": 195,
            "midi": 62,
            "name": "D4",
            "velocity": 0.3858267716535433,
            "duration": 0.3125,
            "ticks": 319488,
            "durationTicks": 512
          },
          {
            "time": 195.3125,
            "midi": 50,
            "name": "D3",
            "velocity": 0.3858267716535433,
            "duration": 0.625,
            "ticks": 320000,
            "durationTicks": 1024
          },
          {
            "time": 195.9375,
            "midi": 53,
            "name": "F3",
            "velocity": 0.3858267716535433,
            "duration": 0.625,
            "ticks": 321024,
            "durationTicks": 1024
          },
          {
            "time": 196.5625,
            "midi": 50,
            "name": "D3",
            "velocity": 0.3858267716535433,
            "duration": 0.3125,
            "ticks": 322048,
            "durationTicks": 512
          },
          {
            "time": 196.875,
            "midi": 57,
            "name": "A3",
            "velocity": 0.3858267716535433,
            "duration": 0.3125,
            "ticks": 322560,
            "durationTicks": 512
          },
          {
            "time": 197.1875,
            "midi": 45,
            "name": "A2",
            "velocity": 0.3858267716535433,
            "duration": 0.625,
            "ticks": 323072,
            "durationTicks": 1024
          },
          {
            "time": 197.8125,
            "midi": 49,
            "name": "C#3",
            "velocity": 0.3858267716535433,
            "duration": 0.625,
            "ticks": 324096,
            "durationTicks": 1024
          },
          {
            "time": 198.4375,
            "midi": 45,
            "name": "A2",
            "velocity": 0.3858267716535433,
            "duration": 0.3125,
            "ticks": 325120,
            "durationTicks": 512
          },
          {
            "time": 198.75,
            "midi": 62,
            "name": "D4",
            "velocity": 0.3858267716535433,
            "duration": 0.3125,
            "ticks": 325632,
            "durationTicks": 512
          },
          {
            "time": 199.0625,
            "midi": 50,
            "name": "D3",
            "velocity": 0.3858267716535433,
            "duration": 0.625,
            "ticks": 326144,
            "durationTicks": 1024
          },
          {
            "time": 199.6875,
            "midi": 53,
            "name": "F3",
            "velocity": 0.3858267716535433,
            "duration": 0.625,
            "ticks": 327168,
            "durationTicks": 1024
          },
          {
            "time": 200.3125,
            "midi": 50,
            "name": "D3",
            "velocity": 0.3858267716535433,
            "duration": 0.3125,
            "ticks": 328192,
            "durationTicks": 512
          },
          {
            "time": 200.625,
            "midi": 60,
            "name": "C4",
            "velocity": 0.3858267716535433,
            "duration": 0.3125,
            "ticks": 328704,
            "durationTicks": 512
          },
          {
            "time": 200.9375,
            "midi": 48,
            "name": "C3",
            "velocity": 0.3858267716535433,
            "duration": 0.625,
            "ticks": 329216,
            "durationTicks": 1024
          },
          {
            "time": 201.5625,
            "midi": 52,
            "name": "E3",
            "velocity": 0.3858267716535433,
            "duration": 0.625,
            "ticks": 330240,
            "durationTicks": 1024
          },
          {
            "time": 202.1875,
            "midi": 48,
            "name": "C3",
            "velocity": 0.3858267716535433,
            "duration": 0.3125,
            "ticks": 331264,
            "durationTicks": 512
          },
          {
            "time": 202.5,
            "midi": 41,
            "name": "F2",
            "velocity": 0.3858267716535433,
            "duration": 0.3125,
            "ticks": 331776,
            "durationTicks": 512
          },
          {
            "time": 202.8125,
            "midi": 53,
            "name": "F3",
            "velocity": 0.3858267716535433,
            "duration": 0.625,
            "ticks": 332288,
            "durationTicks": 1024
          },
          {
            "time": 203.4375,
            "midi": 57,
            "name": "A3",
            "velocity": 0.3858267716535433,
            "duration": 0.625,
            "ticks": 333312,
            "durationTicks": 1024
          },
          {
            "time": 204.0625,
            "midi": 53,
            "name": "F3",
            "velocity": 0.3858267716535433,
            "duration": 0.3125,
            "ticks": 334336,
            "durationTicks": 512
          },
          {
            "time": 204.375,
            "midi": 60,
            "name": "C4",
            "velocity": 0.3858267716535433,
            "duration": 0.3125,
            "ticks": 334848,
            "durationTicks": 512
          },
          {
            "time": 204.6875,
            "midi": 48,
            "name": "C3",
            "velocity": 0.3858267716535433,
            "duration": 0.625,
            "ticks": 335360,
            "durationTicks": 1024
          },
          {
            "time": 205.3125,
            "midi": 52,
            "name": "E3",
            "velocity": 0.3858267716535433,
            "duration": 0.625,
            "ticks": 336384,
            "durationTicks": 1024
          },
          {
            "time": 205.9375,
            "midi": 49,
            "name": "C#3",
            "velocity": 0.3858267716535433,
            "duration": 0.3125,
            "ticks": 337408,
            "durationTicks": 512
          },
          {
            "time": 206.25,
            "midi": 50,
            "name": "D3",
            "velocity": 0.3858267716535433,
            "duration": 0.3125,
            "ticks": 337920,
            "durationTicks": 512
          },
          {
            "time": 206.5625,
            "midi": 55,
            "name": "G3",
            "velocity": 0.3858267716535433,
            "duration": 0.625,
            "ticks": 338432,
            "durationTicks": 1024
          },
          {
            "time": 207.1875,
            "midi": 53,
            "name": "F3",
            "velocity": 0.3858267716535433,
            "duration": 0.15625,
            "ticks": 339456,
            "durationTicks": 256
          },
          {
            "time": 207.34375,
            "midi": 55,
            "name": "G3",
            "velocity": 0.3858267716535433,
            "duration": 0.15625,
            "ticks": 339712,
            "durationTicks": 256
          },
          {
            "time": 207.5,
            "midi": 57,
            "name": "A3",
            "velocity": 0.3858267716535433,
            "duration": 0.3125,
            "ticks": 339968,
            "durationTicks": 512
          },
          {
            "time": 207.8125,
            "midi": 45,
            "name": "A2",
            "velocity": 0.3858267716535433,
            "duration": 0.3125,
            "ticks": 340480,
            "durationTicks": 512
          },
          {
            "time": 208.125,
            "midi": 50,
            "name": "D3",
            "velocity": 0.3858267716535433,
            "duration": 1.875,
            "ticks": 340992,
            "durationTicks": 3072
          },
          {
            "time": 210,
            "midi": 50,
            "name": "D3",
            "velocity": 0.3858267716535433,
            "duration": 0.625,
            "ticks": 344064,
            "durationTicks": 1024
          },
          {
            "time": 210.625,
            "midi": 50,
            "name": "D3",
            "velocity": 0.3858267716535433,
            "duration": 0.9375,
            "ticks": 345088,
            "durationTicks": 1536
          },
          {
            "time": 211.5625,
            "midi": 50,
            "name": "D3",
            "velocity": 0.3858267716535433,
            "duration": 0.3125,
            "ticks": 346624,
            "durationTicks": 512
          },
          {
            "time": 211.875,
            "midi": 45,
            "name": "A2",
            "velocity": 0.3858267716535433,
            "duration": 0.625,
            "ticks": 347136,
            "durationTicks": 1024
          },
          {
            "time": 212.5,
            "midi": 45,
            "name": "A2",
            "velocity": 0.3858267716535433,
            "duration": 0.9375,
            "ticks": 348160,
            "durationTicks": 1536
          },
          {
            "time": 213.4375,
            "midi": 45,
            "name": "A2",
            "velocity": 0.3858267716535433,
            "duration": 0.3125,
            "ticks": 349696,
            "durationTicks": 512
          },
          {
            "time": 213.75,
            "midi": 50,
            "name": "D3",
            "velocity": 0.3858267716535433,
            "duration": 0.625,
            "ticks": 350208,
            "durationTicks": 1024
          },
          {
            "time": 214.375,
            "midi": 50,
            "name": "D3",
            "velocity": 0.3858267716535433,
            "duration": 0.9375,
            "ticks": 351232,
            "durationTicks": 1536
          },
          {
            "time": 215.3125,
            "midi": 50,
            "name": "D3",
            "velocity": 0.3858267716535433,
            "duration": 0.3125,
            "ticks": 352768,
            "durationTicks": 512
          },
          {
            "time": 215.625,
            "midi": 48,
            "name": "C3",
            "velocity": 0.3858267716535433,
            "duration": 0.625,
            "ticks": 353280,
            "durationTicks": 1024
          },
          {
            "time": 216.25,
            "midi": 48,
            "name": "C3",
            "velocity": 0.3858267716535433,
            "duration": 0.9375,
            "ticks": 354304,
            "durationTicks": 1536
          },
          {
            "time": 217.1875,
            "midi": 48,
            "name": "C3",
            "velocity": 0.3858267716535433,
            "duration": 0.3125,
            "ticks": 355840,
            "durationTicks": 512
          },
          {
            "time": 217.5,
            "midi": 53,
            "name": "F3",
            "velocity": 0.3858267716535433,
            "duration": 0.625,
            "ticks": 356352,
            "durationTicks": 1024
          },
          {
            "time": 218.125,
            "midi": 53,
            "name": "F3",
            "velocity": 0.3858267716535433,
            "duration": 0.9375,
            "ticks": 357376,
            "durationTicks": 1536
          },
          {
            "time": 219.0625,
            "midi": 53,
            "name": "F3",
            "velocity": 0.3858267716535433,
            "duration": 0.3125,
            "ticks": 358912,
            "durationTicks": 512
          },
          {
            "time": 219.375,
            "midi": 48,
            "name": "C3",
            "velocity": 0.3858267716535433,
            "duration": 0.625,
            "ticks": 359424,
            "durationTicks": 1024
          },
          {
            "time": 220,
            "midi": 49,
            "name": "C#3",
            "velocity": 0.3858267716535433,
            "duration": 0.9375,
            "ticks": 360448,
            "durationTicks": 1536
          },
          {
            "time": 220.9375,
            "midi": 49,
            "name": "C#3",
            "velocity": 0.3858267716535433,
            "duration": 0.3125,
            "ticks": 361984,
            "durationTicks": 512
          },
          {
            "time": 221.25,
            "midi": 50,
            "name": "D3",
            "velocity": 0.3858267716535433,
            "duration": 0.625,
            "ticks": 362496,
            "durationTicks": 1024
          },
          {
            "time": 221.875,
            "midi": 46,
            "name": "A#2",
            "velocity": 0.3858267716535433,
            "duration": 0.625,
            "ticks": 363520,
            "durationTicks": 1024
          },
          {
            "time": 222.5,
            "midi": 43,
            "name": "G2",
            "velocity": 0.3858267716535433,
            "duration": 0.625,
            "ticks": 364544,
            "durationTicks": 1024
          },
          {
            "time": 223.125,
            "midi": 45,
            "name": "A2",
            "velocity": 0.3858267716535433,
            "duration": 0.625,
            "ticks": 365568,
            "durationTicks": 1024
          },
          {
            "time": 223.75,
            "midi": 45,
            "name": "A2",
            "velocity": 0.3858267716535433,
            "duration": 0.9375,
            "ticks": 366592,
            "durationTicks": 1536
          },
          {
            "time": 224.6875,
            "midi": 45,
            "name": "A2",
            "velocity": 0.3858267716535433,
            "duration": 0.3125,
            "ticks": 368128,
            "durationTicks": 512
          },
          {
            "time": 225,
            "midi": 50,
            "name": "D3",
            "velocity": 0.3858267716535433,
            "duration": 0.625,
            "ticks": 368640,
            "durationTicks": 1024
          },
          {
            "time": 225.625,
            "midi": 50,
            "name": "D3",
            "velocity": 0.3858267716535433,
            "duration": 0.9375,
            "ticks": 369664,
            "durationTicks": 1536
          },
          {
            "time": 226.5625,
            "midi": 50,
            "name": "D3",
            "velocity": 0.3858267716535433,
            "duration": 0.3125,
            "ticks": 371200,
            "durationTicks": 512
          },
          {
            "time": 226.875,
            "midi": 45,
            "name": "A2",
            "velocity": 0.3858267716535433,
            "duration": 0.625,
            "ticks": 371712,
            "durationTicks": 1024
          },
          {
            "time": 227.5,
            "midi": 45,
            "name": "A2",
            "velocity": 0.3858267716535433,
            "duration": 0.9375,
            "ticks": 372736,
            "durationTicks": 1536
          },
          {
            "time": 228.4375,
            "midi": 45,
            "name": "A2",
            "velocity": 0.3858267716535433,
            "duration": 0.3125,
            "ticks": 374272,
            "durationTicks": 512
          },
          {
            "time": 228.75,
            "midi": 50,
            "name": "D3",
            "velocity": 0.3858267716535433,
            "duration": 0.625,
            "ticks": 374784,
            "durationTicks": 1024
          },
          {
            "time": 229.375,
            "midi": 50,
            "name": "D3",
            "velocity": 0.3858267716535433,
            "duration": 0.9375,
            "ticks": 375808,
            "durationTicks": 1536
          },
          {
            "time": 230.3125,
            "midi": 50,
            "name": "D3",
            "velocity": 0.3858267716535433,
            "duration": 0.3125,
            "ticks": 377344,
            "durationTicks": 512
          },
          {
            "time": 230.625,
            "midi": 48,
            "name": "C3",
            "velocity": 0.3858267716535433,
            "duration": 0.625,
            "ticks": 377856,
            "durationTicks": 1024
          },
          {
            "time": 231.25,
            "midi": 48,
            "name": "C3",
            "velocity": 0.3858267716535433,
            "duration": 0.9375,
            "ticks": 378880,
            "durationTicks": 1536
          },
          {
            "time": 232.1875,
            "midi": 48,
            "name": "C3",
            "velocity": 0.3858267716535433,
            "duration": 0.3125,
            "ticks": 380416,
            "durationTicks": 512
          },
          {
            "time": 232.5,
            "midi": 53,
            "name": "F3",
            "velocity": 0.3858267716535433,
            "duration": 0.625,
            "ticks": 380928,
            "durationTicks": 1024
          },
          {
            "time": 233.125,
            "midi": 53,
            "name": "F3",
            "velocity": 0.3858267716535433,
            "duration": 0.9375,
            "ticks": 381952,
            "durationTicks": 1536
          },
          {
            "time": 234.0625,
            "midi": 53,
            "name": "F3",
            "velocity": 0.3858267716535433,
            "duration": 0.3125,
            "ticks": 383488,
            "durationTicks": 512
          },
          {
            "time": 234.375,
            "midi": 48,
            "name": "C3",
            "velocity": 0.3858267716535433,
            "duration": 0.625,
            "ticks": 384000,
            "durationTicks": 1024
          },
          {
            "time": 235,
            "midi": 49,
            "name": "C#3",
            "velocity": 0.3858267716535433,
            "duration": 0.9375,
            "ticks": 385024,
            "durationTicks": 1536
          },
          {
            "time": 235.9375,
            "midi": 49,
            "name": "C#3",
            "velocity": 0.3858267716535433,
            "duration": 0.3125,
            "ticks": 386560,
            "durationTicks": 512
          },
          {
            "time": 236.25,
            "midi": 50,
            "name": "D3",
            "velocity": 0.3858267716535433,
            "duration": 0.3125,
            "ticks": 387072,
            "durationTicks": 512
          },
          {
            "time": 236.5625,
            "midi": 55,
            "name": "G3",
            "velocity": 0.3858267716535433,
            "duration": 0.3125,
            "ticks": 387584,
            "durationTicks": 512
          },
          {
            "time": 236.875,
            "midi": 57,
            "name": "A3",
            "velocity": 0.3858267716535433,
            "duration": 0.625,
            "ticks": 388096,
            "durationTicks": 1024
          },
          {
            "time": 237.5,
            "midi": 45,
            "name": "A2",
            "velocity": 0.3858267716535433,
            "duration": 0.625,
            "ticks": 389120,
            "durationTicks": 1024
          },
          {
            "time": 238.125,
            "midi": 50,
            "name": "D3",
            "velocity": 0.3858267716535433,
            "duration": 1.875,
            "ticks": 390144,
            "durationTicks": 3072
          },
          {
            "time": 240,
            "midi": 50,
            "name": "D3",
            "velocity": 0.3858267716535433,
            "duration": 0.3125,
            "ticks": 393216,
            "durationTicks": 512
          },
          {
            "time": 240.3125,
            "midi": 62,
            "name": "D4",
            "velocity": 0.3858267716535433,
            "duration": 0.3125,
            "ticks": 393728,
            "durationTicks": 512
          },
          {
            "time": 240.625,
            "midi": 62,
            "name": "D4",
            "velocity": 0.3858267716535433,
            "duration": 0.3125,
            "ticks": 394240,
            "durationTicks": 512
          },
          {
            "time": 240.9375,
            "midi": 50,
            "name": "D3",
            "velocity": 0.3858267716535433,
            "duration": 0.3125,
            "ticks": 394752,
            "durationTicks": 512
          },
          {
            "time": 241.25,
            "midi": 50,
            "name": "D3",
            "velocity": 0.3858267716535433,
            "duration": 0.3125,
            "ticks": 395264,
            "durationTicks": 512
          },
          {
            "time": 241.5625,
            "midi": 62,
            "name": "D4",
            "velocity": 0.3858267716535433,
            "duration": 0.3125,
            "ticks": 395776,
            "durationTicks": 512
          },
          {
            "time": 241.875,
            "midi": 45,
            "name": "A2",
            "velocity": 0.3858267716535433,
            "duration": 0.3125,
            "ticks": 396288,
            "durationTicks": 512
          },
          {
            "time": 242.1875,
            "midi": 57,
            "name": "A3",
            "velocity": 0.3858267716535433,
            "duration": 0.3125,
            "ticks": 396800,
            "durationTicks": 512
          },
          {
            "time": 242.5,
            "midi": 57,
            "name": "A3",
            "velocity": 0.3858267716535433,
            "duration": 0.3125,
            "ticks": 397312,
            "durationTicks": 512
          },
          {
            "time": 242.8125,
            "midi": 45,
            "name": "A2",
            "velocity": 0.3858267716535433,
            "duration": 0.3125,
            "ticks": 397824,
            "durationTicks": 512
          },
          {
            "time": 243.125,
            "midi": 45,
            "name": "A2",
            "velocity": 0.3858267716535433,
            "duration": 0.3125,
            "ticks": 398336,
            "durationTicks": 512
          },
          {
            "time": 243.4375,
            "midi": 57,
            "name": "A3",
            "velocity": 0.3858267716535433,
            "duration": 0.3125,
            "ticks": 398848,
            "durationTicks": 512
          },
          {
            "time": 243.75,
            "midi": 50,
            "name": "D3",
            "velocity": 0.3858267716535433,
            "duration": 0.3125,
            "ticks": 399360,
            "durationTicks": 512
          },
          {
            "time": 244.0625,
            "midi": 62,
            "name": "D4",
            "velocity": 0.3858267716535433,
            "duration": 0.3125,
            "ticks": 399872,
            "durationTicks": 512
          },
          {
            "time": 244.375,
            "midi": 62,
            "name": "D4",
            "velocity": 0.3858267716535433,
            "duration": 0.3125,
            "ticks": 400384,
            "durationTicks": 512
          },
          {
            "time": 244.6875,
            "midi": 50,
            "name": "D3",
            "velocity": 0.3858267716535433,
            "duration": 0.3125,
            "ticks": 400896,
            "durationTicks": 512
          },
          {
            "time": 245,
            "midi": 50,
            "name": "D3",
            "velocity": 0.3858267716535433,
            "duration": 0.3125,
            "ticks": 401408,
            "durationTicks": 512
          },
          {
            "time": 245.3125,
            "midi": 62,
            "name": "D4",
            "velocity": 0.3858267716535433,
            "duration": 0.3125,
            "ticks": 401920,
            "durationTicks": 512
          },
          {
            "time": 245.625,
            "midi": 48,
            "name": "C3",
            "velocity": 0.3858267716535433,
            "duration": 0.3125,
            "ticks": 402432,
            "durationTicks": 512
          },
          {
            "time": 245.9375,
            "midi": 60,
            "name": "C4",
            "velocity": 0.3858267716535433,
            "duration": 0.3125,
            "ticks": 402944,
            "durationTicks": 512
          },
          {
            "time": 246.25,
            "midi": 60,
            "name": "C4",
            "velocity": 0.3858267716535433,
            "duration": 0.3125,
            "ticks": 403456,
            "durationTicks": 512
          },
          {
            "time": 246.5625,
            "midi": 48,
            "name": "C3",
            "velocity": 0.3858267716535433,
            "duration": 0.3125,
            "ticks": 403968,
            "durationTicks": 512
          },
          {
            "time": 246.875,
            "midi": 48,
            "name": "C3",
            "velocity": 0.3858267716535433,
            "duration": 0.3125,
            "ticks": 404480,
            "durationTicks": 512
          },
          {
            "time": 247.1875,
            "midi": 60,
            "name": "C4",
            "velocity": 0.3858267716535433,
            "duration": 0.3125,
            "ticks": 404992,
            "durationTicks": 512
          },
          {
            "time": 247.5,
            "midi": 53,
            "name": "F3",
            "velocity": 0.3858267716535433,
            "duration": 0.3125,
            "ticks": 405504,
            "durationTicks": 512
          },
          {
            "time": 247.8125,
            "midi": 65,
            "name": "F4",
            "velocity": 0.3858267716535433,
            "duration": 0.3125,
            "ticks": 406016,
            "durationTicks": 512
          },
          {
            "time": 248.125,
            "midi": 65,
            "name": "F4",
            "velocity": 0.3858267716535433,
            "duration": 0.3125,
            "ticks": 406528,
            "durationTicks": 512
          },
          {
            "time": 248.4375,
            "midi": 53,
            "name": "F3",
            "velocity": 0.3858267716535433,
            "duration": 0.3125,
            "ticks": 407040,
            "durationTicks": 512
          },
          {
            "time": 248.75,
            "midi": 53,
            "name": "F3",
            "velocity": 0.3858267716535433,
            "duration": 0.3125,
            "ticks": 407552,
            "durationTicks": 512
          },
          {
            "time": 249.0625,
            "midi": 65,
            "name": "F4",
            "velocity": 0.3858267716535433,
            "duration": 0.3125,
            "ticks": 408064,
            "durationTicks": 512
          },
          {
            "time": 249.375,
            "midi": 48,
            "name": "C3",
            "velocity": 0.3858267716535433,
            "duration": 0.3125,
            "ticks": 408576,
            "durationTicks": 512
          },
          {
            "time": 249.6875,
            "midi": 60,
            "name": "C4",
            "velocity": 0.3858267716535433,
            "duration": 0.3125,
            "ticks": 409088,
            "durationTicks": 512
          },
          {
            "time": 250,
            "midi": 60,
            "name": "C4",
            "velocity": 0.3858267716535433,
            "duration": 0.3125,
            "ticks": 409600,
            "durationTicks": 512
          },
          {
            "time": 250.3125,
            "midi": 48,
            "name": "C3",
            "velocity": 0.3858267716535433,
            "duration": 0.3125,
            "ticks": 410112,
            "durationTicks": 512
          },
          {
            "time": 250.625,
            "midi": 45,
            "name": "A2",
            "velocity": 0.3858267716535433,
            "duration": 0.3125,
            "ticks": 410624,
            "durationTicks": 512
          },
          {
            "time": 250.9375,
            "midi": 49,
            "name": "C#3",
            "velocity": 0.3858267716535433,
            "duration": 0.3125,
            "ticks": 411136,
            "durationTicks": 512
          },
          {
            "time": 251.25,
            "midi": 50,
            "name": "D3",
            "velocity": 0.3858267716535433,
            "duration": 0.3125,
            "ticks": 411648,
            "durationTicks": 512
          },
          {
            "time": 251.5625,
            "midi": 62,
            "name": "D4",
            "velocity": 0.3858267716535433,
            "duration": 0.3125,
            "ticks": 412160,
            "durationTicks": 512
          },
          {
            "time": 251.875,
            "midi": 62,
            "name": "D4",
            "velocity": 0.3858267716535433,
            "duration": 0.3125,
            "ticks": 412672,
            "durationTicks": 512
          },
          {
            "time": 252.1875,
            "midi": 50,
            "name": "D3",
            "velocity": 0.3858267716535433,
            "duration": 0.3125,
            "ticks": 413184,
            "durationTicks": 512
          },
          {
            "time": 252.5,
            "midi": 55,
            "name": "G3",
            "velocity": 0.3858267716535433,
            "duration": 0.3125,
            "ticks": 413696,
            "durationTicks": 512
          },
          {
            "time": 252.8125,
            "midi": 43,
            "name": "G2",
            "velocity": 0.3858267716535433,
            "duration": 0.3125,
            "ticks": 414208,
            "durationTicks": 512
          },
          {
            "time": 253.125,
            "midi": 45,
            "name": "A2",
            "velocity": 0.3858267716535433,
            "duration": 0.3125,
            "ticks": 414720,
            "durationTicks": 512
          },
          {
            "time": 253.4375,
            "midi": 57,
            "name": "A3",
            "velocity": 0.3858267716535433,
            "duration": 0.3125,
            "ticks": 415232,
            "durationTicks": 512
          },
          {
            "time": 253.75,
            "midi": 57,
            "name": "A3",
            "velocity": 0.3858267716535433,
            "duration": 0.3125,
            "ticks": 415744,
            "durationTicks": 512
          },
          {
            "time": 254.0625,
            "midi": 45,
            "name": "A2",
            "velocity": 0.3858267716535433,
            "duration": 0.3125,
            "ticks": 416256,
            "durationTicks": 512
          },
          {
            "time": 254.375,
            "midi": 45,
            "name": "A2",
            "velocity": 0.3858267716535433,
            "duration": 0.3125,
            "ticks": 416768,
            "durationTicks": 512
          },
          {
            "time": 254.6875,
            "midi": 57,
            "name": "A3",
            "velocity": 0.3858267716535433,
            "duration": 0.3125,
            "ticks": 417280,
            "durationTicks": 512
          },
          {
            "time": 255,
            "midi": 50,
            "name": "D3",
            "velocity": 0.3858267716535433,
            "duration": 0.3125,
            "ticks": 417792,
            "durationTicks": 512
          },
          {
            "time": 255.3125,
            "midi": 62,
            "name": "D4",
            "velocity": 0.3858267716535433,
            "duration": 0.3125,
            "ticks": 418304,
            "durationTicks": 512
          },
          {
            "time": 255.625,
            "midi": 62,
            "name": "D4",
            "velocity": 0.3858267716535433,
            "duration": 0.3125,
            "ticks": 418816,
            "durationTicks": 512
          },
          {
            "time": 255.9375,
            "midi": 50,
            "name": "D3",
            "velocity": 0.3858267716535433,
            "duration": 0.3125,
            "ticks": 419328,
            "durationTicks": 512
          },
          {
            "time": 256.25,
            "midi": 50,
            "name": "D3",
            "velocity": 0.3858267716535433,
            "duration": 0.3125,
            "ticks": 419840,
            "durationTicks": 512
          },
          {
            "time": 256.5625,
            "midi": 62,
            "name": "D4",
            "velocity": 0.3858267716535433,
            "duration": 0.3125,
            "ticks": 420352,
            "durationTicks": 512
          },
          {
            "time": 256.875,
            "midi": 45,
            "name": "A2",
            "velocity": 0.3858267716535433,
            "duration": 0.3125,
            "ticks": 420864,
            "durationTicks": 512
          },
          {
            "time": 257.1875,
            "midi": 57,
            "name": "A3",
            "velocity": 0.3858267716535433,
            "duration": 0.3125,
            "ticks": 421376,
            "durationTicks": 512
          },
          {
            "time": 257.5,
            "midi": 57,
            "name": "A3",
            "velocity": 0.3858267716535433,
            "duration": 0.3125,
            "ticks": 421888,
            "durationTicks": 512
          },
          {
            "time": 257.8125,
            "midi": 45,
            "name": "A2",
            "velocity": 0.3858267716535433,
            "duration": 0.3125,
            "ticks": 422400,
            "durationTicks": 512
          },
          {
            "time": 258.125,
            "midi": 45,
            "name": "A2",
            "velocity": 0.3858267716535433,
            "duration": 0.3125,
            "ticks": 422912,
            "durationTicks": 512
          },
          {
            "time": 258.4375,
            "midi": 57,
            "name": "A3",
            "velocity": 0.3858267716535433,
            "duration": 0.3125,
            "ticks": 423424,
            "durationTicks": 512
          },
          {
            "time": 258.75,
            "midi": 50,
            "name": "D3",
            "velocity": 0.3858267716535433,
            "duration": 0.3125,
            "ticks": 423936,
            "durationTicks": 512
          },
          {
            "time": 259.0625,
            "midi": 62,
            "name": "D4",
            "velocity": 0.3858267716535433,
            "duration": 0.3125,
            "ticks": 424448,
            "durationTicks": 512
          },
          {
            "time": 259.375,
            "midi": 62,
            "name": "D4",
            "velocity": 0.3858267716535433,
            "duration": 0.3125,
            "ticks": 424960,
            "durationTicks": 512
          },
          {
            "time": 259.6875,
            "midi": 50,
            "name": "D3",
            "velocity": 0.3858267716535433,
            "duration": 0.3125,
            "ticks": 425472,
            "durationTicks": 512
          },
          {
            "time": 260,
            "midi": 50,
            "name": "D3",
            "velocity": 0.3858267716535433,
            "duration": 0.3125,
            "ticks": 425984,
            "durationTicks": 512
          },
          {
            "time": 260.3125,
            "midi": 62,
            "name": "D4",
            "velocity": 0.3858267716535433,
            "duration": 0.3125,
            "ticks": 426496,
            "durationTicks": 512
          },
          {
            "time": 260.625,
            "midi": 48,
            "name": "C3",
            "velocity": 0.3858267716535433,
            "duration": 0.3125,
            "ticks": 427008,
            "durationTicks": 512
          },
          {
            "time": 260.9375,
            "midi": 60,
            "name": "C4",
            "velocity": 0.3858267716535433,
            "duration": 0.3125,
            "ticks": 427520,
            "durationTicks": 512
          },
          {
            "time": 261.25,
            "midi": 60,
            "name": "C4",
            "velocity": 0.3858267716535433,
            "duration": 0.3125,
            "ticks": 428032,
            "durationTicks": 512
          },
          {
            "time": 261.5625,
            "midi": 48,
            "name": "C3",
            "velocity": 0.3858267716535433,
            "duration": 0.3125,
            "ticks": 428544,
            "durationTicks": 512
          },
          {
            "time": 261.875,
            "midi": 48,
            "name": "C3",
            "velocity": 0.3858267716535433,
            "duration": 0.3125,
            "ticks": 429056,
            "durationTicks": 512
          },
          {
            "time": 262.1875,
            "midi": 60,
            "name": "C4",
            "velocity": 0.3858267716535433,
            "duration": 0.3125,
            "ticks": 429568,
            "durationTicks": 512
          },
          {
            "time": 262.5,
            "midi": 53,
            "name": "F3",
            "velocity": 0.3858267716535433,
            "duration": 0.3125,
            "ticks": 430080,
            "durationTicks": 512
          },
          {
            "time": 262.8125,
            "midi": 65,
            "name": "F4",
            "velocity": 0.3858267716535433,
            "duration": 0.3125,
            "ticks": 430592,
            "durationTicks": 512
          },
          {
            "time": 263.125,
            "midi": 65,
            "name": "F4",
            "velocity": 0.3858267716535433,
            "duration": 0.3125,
            "ticks": 431104,
            "durationTicks": 512
          },
          {
            "time": 263.4375,
            "midi": 53,
            "name": "F3",
            "velocity": 0.3858267716535433,
            "duration": 0.3125,
            "ticks": 431616,
            "durationTicks": 512
          },
          {
            "time": 263.75,
            "midi": 53,
            "name": "F3",
            "velocity": 0.3858267716535433,
            "duration": 0.3125,
            "ticks": 432128,
            "durationTicks": 512
          },
          {
            "time": 264.0625,
            "midi": 65,
            "name": "F4",
            "velocity": 0.3858267716535433,
            "duration": 0.3125,
            "ticks": 432640,
            "durationTicks": 512
          },
          {
            "time": 264.375,
            "midi": 67,
            "name": "G4",
            "velocity": 0.3858267716535433,
            "duration": 0.3125,
            "ticks": 433152,
            "durationTicks": 512
          },
          {
            "time": 264.6875,
            "midi": 55,
            "name": "G3",
            "velocity": 0.3858267716535433,
            "duration": 0.3125,
            "ticks": 433664,
            "durationTicks": 512
          },
          {
            "time": 265,
            "midi": 55,
            "name": "G3",
            "velocity": 0.3858267716535433,
            "duration": 0.3125,
            "ticks": 434176,
            "durationTicks": 512
          },
          {
            "time": 265.3125,
            "midi": 57,
            "name": "A3",
            "velocity": 0.3858267716535433,
            "duration": 0.3125,
            "ticks": 434688,
            "durationTicks": 512
          },
          {
            "time": 265.625,
            "midi": 58,
            "name": "A#3",
            "velocity": 0.3858267716535433,
            "duration": 0.3125,
            "ticks": 435200,
            "durationTicks": 512
          },
          {
            "time": 265.9375,
            "midi": 55,
            "name": "G3",
            "velocity": 0.3858267716535433,
            "duration": 0.3125,
            "ticks": 435712,
            "durationTicks": 512
          },
          {
            "time": 266.25,
            "midi": 57,
            "name": "A3",
            "velocity": 0.3858267716535433,
            "duration": 0.3125,
            "ticks": 436224,
            "durationTicks": 512
          },
          {
            "time": 266.5625,
            "midi": 50,
            "name": "D3",
            "velocity": 0.3858267716535433,
            "duration": 0.3125,
            "ticks": 436736,
            "durationTicks": 512
          },
          {
            "time": 266.875,
            "midi": 57,
            "name": "A3",
            "velocity": 0.3858267716535433,
            "duration": 0.3125,
            "ticks": 437248,
            "durationTicks": 512
          },
          {
            "time": 267.1875,
            "midi": 45,
            "name": "A2",
            "velocity": 0.3858267716535433,
            "duration": 0.3125,
            "ticks": 437760,
            "durationTicks": 512
          },
          {
            "time": 267.5,
            "midi": 45,
            "name": "A2",
            "velocity": 0.3858267716535433,
            "duration": 0.3125,
            "ticks": 438272,
            "durationTicks": 512
          },
          {
            "time": 267.8125,
            "midi": 57,
            "name": "A3",
            "velocity": 0.3858267716535433,
            "duration": 0.3125,
            "ticks": 438784,
            "durationTicks": 512
          },
          {
            "time": 268.125,
            "midi": 50,
            "name": "D3",
            "velocity": 0.3858267716535433,
            "duration": 1.875,
            "ticks": 439296,
            "durationTicks": 3072
          },
          {
            "time": 270,
            "midi": 50,
            "name": "D3",
            "velocity": 0.3858267716535433,
            "duration": 0.625,
            "ticks": 442368,
            "durationTicks": 1024
          },
          {
            "time": 271.25,
            "midi": 50,
            "name": "D3",
            "velocity": 0.3858267716535433,
            "duration": 0.625,
            "ticks": 444416,
            "durationTicks": 1024
          },
          {
            "time": 271.875,
            "midi": 57,
            "name": "A3",
            "velocity": 0.3858267716535433,
            "duration": 0.625,
            "ticks": 445440,
            "durationTicks": 1024
          },
          {
            "time": 273.125,
            "midi": 57,
            "name": "A3",
            "velocity": 0.3858267716535433,
            "duration": 0.625,
            "ticks": 447488,
            "durationTicks": 1024
          },
          {
            "time": 273.75,
            "midi": 50,
            "name": "D3",
            "velocity": 0.3858267716535433,
            "duration": 0.625,
            "ticks": 448512,
            "durationTicks": 1024
          },
          {
            "time": 275,
            "midi": 50,
            "name": "D3",
            "velocity": 0.3858267716535433,
            "duration": 0.625,
            "ticks": 450560,
            "durationTicks": 1024
          },
          {
            "time": 275.625,
            "midi": 48,
            "name": "C3",
            "velocity": 0.3858267716535433,
            "duration": 0.625,
            "ticks": 451584,
            "durationTicks": 1024
          },
          {
            "time": 276.875,
            "midi": 48,
            "name": "C3",
            "velocity": 0.3858267716535433,
            "duration": 0.625,
            "ticks": 453632,
            "durationTicks": 1024
          },
          {
            "time": 277.5,
            "midi": 41,
            "name": "F2",
            "velocity": 0.3858267716535433,
            "duration": 0.625,
            "ticks": 454656,
            "durationTicks": 1024
          },
          {
            "time": 278.75,
            "midi": 41,
            "name": "F2",
            "velocity": 0.3858267716535433,
            "duration": 0.625,
            "ticks": 456704,
            "durationTicks": 1024
          },
          {
            "time": 279.375,
            "midi": 48,
            "name": "C3",
            "velocity": 0.3858267716535433,
            "duration": 0.625,
            "ticks": 457728,
            "durationTicks": 1024
          },
          {
            "time": 280.625,
            "midi": 45,
            "name": "A2",
            "velocity": 0.3858267716535433,
            "duration": 0.625,
            "ticks": 459776,
            "durationTicks": 1024
          },
          {
            "time": 281.25,
            "midi": 50,
            "name": "D3",
            "velocity": 0.3858267716535433,
            "duration": 0.625,
            "ticks": 460800,
            "durationTicks": 1024
          },
          {
            "time": 282.5,
            "midi": 43,
            "name": "G2",
            "velocity": 0.3858267716535433,
            "duration": 0.625,
            "ticks": 462848,
            "durationTicks": 1024
          },
          {
            "time": 283.125,
            "midi": 45,
            "name": "A2",
            "velocity": 0.3858267716535433,
            "duration": 1.875,
            "ticks": 463872,
            "durationTicks": 3072
          },
          {
            "time": 285,
            "midi": 50,
            "name": "D3",
            "velocity": 0.3858267716535433,
            "duration": 0.625,
            "ticks": 466944,
            "durationTicks": 1024
          },
          {
            "time": 286.25,
            "midi": 50,
            "name": "D3",
            "velocity": 0.3858267716535433,
            "duration": 0.625,
            "ticks": 468992,
            "durationTicks": 1024
          },
          {
            "time": 286.875,
            "midi": 57,
            "name": "A3",
            "velocity": 0.3858267716535433,
            "duration": 0.625,
            "ticks": 470016,
            "durationTicks": 1024
          },
          {
            "time": 288.125,
            "midi": 57,
            "name": "A3",
            "velocity": 0.3858267716535433,
            "duration": 0.625,
            "ticks": 472064,
            "durationTicks": 1024
          },
          {
            "time": 288.75,
            "midi": 50,
            "name": "D3",
            "velocity": 0.3858267716535433,
            "duration": 0.625,
            "ticks": 473088,
            "durationTicks": 1024
          },
          {
            "time": 290,
            "midi": 50,
            "name": "D3",
            "velocity": 0.3858267716535433,
            "duration": 0.625,
            "ticks": 475136,
            "durationTicks": 1024
          },
          {
            "time": 290.625,
            "midi": 48,
            "name": "C3",
            "velocity": 0.3858267716535433,
            "duration": 0.625,
            "ticks": 476160,
            "durationTicks": 1024
          },
          {
            "time": 291.875,
            "midi": 48,
            "name": "C3",
            "velocity": 0.3858267716535433,
            "duration": 0.625,
            "ticks": 478208,
            "durationTicks": 1024
          },
          {
            "time": 292.5,
            "midi": 41,
            "name": "F2",
            "velocity": 0.3858267716535433,
            "duration": 0.625,
            "ticks": 479232,
            "durationTicks": 1024
          },
          {
            "time": 293.75,
            "midi": 41,
            "name": "F2",
            "velocity": 0.3858267716535433,
            "duration": 0.625,
            "ticks": 481280,
            "durationTicks": 1024
          },
          {
            "time": 294.375,
            "midi": 48,
            "name": "C3",
            "velocity": 0.3858267716535433,
            "duration": 0.625,
            "ticks": 482304,
            "durationTicks": 1024
          },
          {
            "time": 295,
            "midi": 49,
            "name": "C#3",
            "velocity": 0.3858267716535433,
            "duration": 1.25,
            "ticks": 483328,
            "durationTicks": 2048
          },
          {
            "time": 296.25,
            "midi": 50,
            "name": "D3",
            "velocity": 0.3858267716535433,
            "duration": 0.3125,
            "ticks": 485376,
            "durationTicks": 512
          },
          {
            "time": 296.5625,
            "midi": 55,
            "name": "G3",
            "velocity": 0.3858267716535433,
            "duration": 0.3125,
            "ticks": 485888,
            "durationTicks": 512
          },
          {
            "time": 296.875,
            "midi": 57,
            "name": "A3",
            "velocity": 0.3858267716535433,
            "duration": 0.625,
            "ticks": 486400,
            "durationTicks": 1024
          },
          {
            "time": 297.5,
            "midi": 45,
            "name": "A2",
            "velocity": 0.3858267716535433,
            "duration": 0.625,
            "ticks": 487424,
            "durationTicks": 1024
          },
          {
            "time": 298.125,
            "midi": 50,
            "name": "D3",
            "velocity": 0.3858267716535433,
            "duration": 1.875,
            "ticks": 488448,
            "durationTicks": 3072
          },
          {
            "time": 300,
            "midi": 50,
            "name": "D3",
            "velocity": 0.3858267716535433,
            "duration": 0.3125,
            "ticks": 491520,
            "durationTicks": 512
          },
          {
            "time": 300.3125,
            "midi": 62,
            "name": "D4",
            "velocity": 0.3858267716535433,
            "duration": 0.3125,
            "ticks": 492032,
            "durationTicks": 512
          },
          {
            "time": 300.625,
            "midi": 62,
            "name": "D4",
            "velocity": 0.3858267716535433,
            "duration": 0.3125,
            "ticks": 492544,
            "durationTicks": 512
          },
          {
            "time": 300.9375,
            "midi": 50,
            "name": "D3",
            "velocity": 0.3858267716535433,
            "duration": 0.3125,
            "ticks": 493056,
            "durationTicks": 512
          },
          {
            "time": 301.25,
            "midi": 50,
            "name": "D3",
            "velocity": 0.3858267716535433,
            "duration": 0.625,
            "ticks": 493568,
            "durationTicks": 1024
          },
          {
            "time": 302.1875,
            "midi": 57,
            "name": "A3",
            "velocity": 0.3858267716535433,
            "duration": 0.3125,
            "ticks": 495104,
            "durationTicks": 512
          },
          {
            "time": 302.5,
            "midi": 57,
            "name": "A3",
            "velocity": 0.3858267716535433,
            "duration": 0.3125,
            "ticks": 495616,
            "durationTicks": 512
          },
          {
            "time": 302.8125,
            "midi": 45,
            "name": "A2",
            "velocity": 0.3858267716535433,
            "duration": 0.3125,
            "ticks": 496128,
            "durationTicks": 512
          },
          {
            "time": 303.125,
            "midi": 45,
            "name": "A2",
            "velocity": 0.3858267716535433,
            "duration": 0.3125,
            "ticks": 496640,
            "durationTicks": 512
          },
          {
            "time": 303.4375,
            "midi": 49,
            "name": "C#3",
            "velocity": 0.3858267716535433,
            "duration": 0.3125,
            "ticks": 497152,
            "durationTicks": 512
          },
          {
            "time": 303.75,
            "midi": 50,
            "name": "D3",
            "velocity": 0.3858267716535433,
            "duration": 0.3125,
            "ticks": 497664,
            "durationTicks": 512
          },
          {
            "time": 304.0625,
            "midi": 62,
            "name": "D4",
            "velocity": 0.3858267716535433,
            "duration": 0.3125,
            "ticks": 498176,
            "durationTicks": 512
          },
          {
            "time": 304.375,
            "midi": 62,
            "name": "D4",
            "velocity": 0.3858267716535433,
            "duration": 0.3125,
            "ticks": 498688,
            "durationTicks": 512
          },
          {
            "time": 304.6875,
            "midi": 50,
            "name": "D3",
            "velocity": 0.3858267716535433,
            "duration": 0.3125,
            "ticks": 499200,
            "durationTicks": 512
          },
          {
            "time": 305,
            "midi": 50,
            "name": "D3",
            "velocity": 0.3858267716535433,
            "duration": 0.625,
            "ticks": 499712,
            "durationTicks": 1024
          },
          {
            "time": 305.9375,
            "midi": 60,
            "name": "C4",
            "velocity": 0.3858267716535433,
            "duration": 0.3125,
            "ticks": 501248,
            "durationTicks": 512
          },
          {
            "time": 306.25,
            "midi": 60,
            "name": "C4",
            "velocity": 0.3858267716535433,
            "duration": 0.3125,
            "ticks": 501760,
            "durationTicks": 512
          },
          {
            "time": 306.5625,
            "midi": 48,
            "name": "C3",
            "velocity": 0.3858267716535433,
            "duration": 0.3125,
            "ticks": 502272,
            "durationTicks": 512
          },
          {
            "time": 306.875,
            "midi": 48,
            "name": "C3",
            "velocity": 0.3858267716535433,
            "duration": 0.3125,
            "ticks": 502784,
            "durationTicks": 512
          },
          {
            "time": 307.1875,
            "midi": 52,
            "name": "E3",
            "velocity": 0.3858267716535433,
            "duration": 0.3125,
            "ticks": 503296,
            "durationTicks": 512
          },
          {
            "time": 307.5,
            "midi": 53,
            "name": "F3",
            "velocity": 0.3858267716535433,
            "duration": 0.3125,
            "ticks": 503808,
            "durationTicks": 512
          },
          {
            "time": 307.8125,
            "midi": 65,
            "name": "F4",
            "velocity": 0.3858267716535433,
            "duration": 0.3125,
            "ticks": 504320,
            "durationTicks": 512
          },
          {
            "time": 308.125,
            "midi": 65,
            "name": "F4",
            "velocity": 0.3858267716535433,
            "duration": 0.3125,
            "ticks": 504832,
            "durationTicks": 512
          },
          {
            "time": 308.4375,
            "midi": 53,
            "name": "F3",
            "velocity": 0.3858267716535433,
            "duration": 0.3125,
            "ticks": 505344,
            "durationTicks": 512
          },
          {
            "time": 308.75,
            "midi": 53,
            "name": "F3",
            "velocity": 0.3858267716535433,
            "duration": 0.625,
            "ticks": 505856,
            "durationTicks": 1024
          },
          {
            "time": 309.6875,
            "midi": 60,
            "name": "C4",
            "velocity": 0.3858267716535433,
            "duration": 0.3125,
            "ticks": 507392,
            "durationTicks": 512
          },
          {
            "time": 310,
            "midi": 60,
            "name": "C4",
            "velocity": 0.3858267716535433,
            "duration": 0.3125,
            "ticks": 507904,
            "durationTicks": 512
          },
          {
            "time": 310.3125,
            "midi": 48,
            "name": "C3",
            "velocity": 0.3858267716535433,
            "duration": 0.3125,
            "ticks": 508416,
            "durationTicks": 512
          },
          {
            "time": 310.625,
            "midi": 45,
            "name": "A2",
            "velocity": 0.3858267716535433,
            "duration": 0.3125,
            "ticks": 508928,
            "durationTicks": 512
          },
          {
            "time": 310.9375,
            "midi": 49,
            "name": "C#3",
            "velocity": 0.3858267716535433,
            "duration": 0.3125,
            "ticks": 509440,
            "durationTicks": 512
          },
          {
            "time": 311.25,
            "midi": 50,
            "name": "D3",
            "velocity": 0.3858267716535433,
            "duration": 0.3125,
            "ticks": 509952,
            "durationTicks": 512
          },
          {
            "time": 311.5625,
            "midi": 62,
            "name": "D4",
            "velocity": 0.3858267716535433,
            "duration": 0.3125,
            "ticks": 510464,
            "durationTicks": 512
          },
          {
            "time": 311.875,
            "midi": 62,
            "name": "D4",
            "velocity": 0.3858267716535433,
            "duration": 0.3125,
            "ticks": 510976,
            "durationTicks": 512
          },
          {
            "time": 312.1875,
            "midi": 50,
            "name": "D3",
            "velocity": 0.3858267716535433,
            "duration": 0.3125,
            "ticks": 511488,
            "durationTicks": 512
          },
          {
            "time": 312.5,
            "midi": 55,
            "name": "G3",
            "velocity": 0.3858267716535433,
            "duration": 0.3125,
            "ticks": 512000,
            "durationTicks": 512
          },
          {
            "time": 312.8125,
            "midi": 43,
            "name": "G2",
            "velocity": 0.3858267716535433,
            "duration": 0.3125,
            "ticks": 512512,
            "durationTicks": 512
          },
          {
            "time": 313.125,
            "midi": 45,
            "name": "A2",
            "velocity": 0.3858267716535433,
            "duration": 0.3125,
            "ticks": 513024,
            "durationTicks": 512
          },
          {
            "time": 313.4375,
            "midi": 57,
            "name": "A3",
            "velocity": 0.3858267716535433,
            "duration": 0.3125,
            "ticks": 513536,
            "durationTicks": 512
          },
          {
            "time": 313.75,
            "midi": 57,
            "name": "A3",
            "velocity": 0.3858267716535433,
            "duration": 0.3125,
            "ticks": 514048,
            "durationTicks": 512
          },
          {
            "time": 314.0625,
            "midi": 45,
            "name": "A2",
            "velocity": 0.3858267716535433,
            "duration": 0.3125,
            "ticks": 514560,
            "durationTicks": 512
          },
          {
            "time": 314.375,
            "midi": 45,
            "name": "A2",
            "velocity": 0.3858267716535433,
            "duration": 0.3125,
            "ticks": 515072,
            "durationTicks": 512
          },
          {
            "time": 314.6875,
            "midi": 49,
            "name": "C#3",
            "velocity": 0.3858267716535433,
            "duration": 0.3125,
            "ticks": 515584,
            "durationTicks": 512
          },
          {
            "time": 315,
            "midi": 50,
            "name": "D3",
            "velocity": 0.3858267716535433,
            "duration": 0.3125,
            "ticks": 516096,
            "durationTicks": 512
          },
          {
            "time": 315.3125,
            "midi": 62,
            "name": "D4",
            "velocity": 0.3858267716535433,
            "duration": 0.3125,
            "ticks": 516608,
            "durationTicks": 512
          },
          {
            "time": 315.625,
            "midi": 62,
            "name": "D4",
            "velocity": 0.3858267716535433,
            "duration": 0.3125,
            "ticks": 517120,
            "durationTicks": 512
          },
          {
            "time": 315.9375,
            "midi": 50,
            "name": "D3",
            "velocity": 0.3858267716535433,
            "duration": 0.3125,
            "ticks": 517632,
            "durationTicks": 512
          },
          {
            "time": 316.25,
            "midi": 50,
            "name": "D3",
            "velocity": 0.3858267716535433,
            "duration": 0.625,
            "ticks": 518144,
            "durationTicks": 1024
          },
          {
            "time": 317.1875,
            "midi": 57,
            "name": "A3",
            "velocity": 0.3858267716535433,
            "duration": 0.3125,
            "ticks": 519680,
            "durationTicks": 512
          },
          {
            "time": 317.5,
            "midi": 57,
            "name": "A3",
            "velocity": 0.3858267716535433,
            "duration": 0.3125,
            "ticks": 520192,
            "durationTicks": 512
          },
          {
            "time": 317.8125,
            "midi": 45,
            "name": "A2",
            "velocity": 0.3858267716535433,
            "duration": 0.3125,
            "ticks": 520704,
            "durationTicks": 512
          },
          {
            "time": 318.125,
            "midi": 45,
            "name": "A2",
            "velocity": 0.3858267716535433,
            "duration": 0.3125,
            "ticks": 521216,
            "durationTicks": 512
          },
          {
            "time": 318.4375,
            "midi": 49,
            "name": "C#3",
            "velocity": 0.3858267716535433,
            "duration": 0.3125,
            "ticks": 521728,
            "durationTicks": 512
          },
          {
            "time": 318.75,
            "midi": 50,
            "name": "D3",
            "velocity": 0.3858267716535433,
            "duration": 0.3125,
            "ticks": 522240,
            "durationTicks": 512
          },
          {
            "time": 319.0625,
            "midi": 62,
            "name": "D4",
            "velocity": 0.3858267716535433,
            "duration": 0.3125,
            "ticks": 522752,
            "durationTicks": 512
          },
          {
            "time": 319.375,
            "midi": 62,
            "name": "D4",
            "velocity": 0.3858267716535433,
            "duration": 0.3125,
            "ticks": 523264,
            "durationTicks": 512
          },
          {
            "time": 319.6875,
            "midi": 50,
            "name": "D3",
            "velocity": 0.3858267716535433,
            "duration": 0.3125,
            "ticks": 523776,
            "durationTicks": 512
          },
          {
            "time": 320,
            "midi": 50,
            "name": "D3",
            "velocity": 0.3858267716535433,
            "duration": 0.625,
            "ticks": 524288,
            "durationTicks": 1024
          },
          {
            "time": 320.9375,
            "midi": 60,
            "name": "C4",
            "velocity": 0.3858267716535433,
            "duration": 0.3125,
            "ticks": 525824,
            "durationTicks": 512
          },
          {
            "time": 321.25,
            "midi": 60,
            "name": "C4",
            "velocity": 0.3858267716535433,
            "duration": 0.3125,
            "ticks": 526336,
            "durationTicks": 512
          },
          {
            "time": 321.5625,
            "midi": 48,
            "name": "C3",
            "velocity": 0.3858267716535433,
            "duration": 0.3125,
            "ticks": 526848,
            "durationTicks": 512
          },
          {
            "time": 321.875,
            "midi": 48,
            "name": "C3",
            "velocity": 0.3858267716535433,
            "duration": 0.3125,
            "ticks": 527360,
            "durationTicks": 512
          },
          {
            "time": 322.1875,
            "midi": 52,
            "name": "E3",
            "velocity": 0.3858267716535433,
            "duration": 0.3125,
            "ticks": 527872,
            "durationTicks": 512
          },
          {
            "time": 322.5,
            "midi": 53,
            "name": "F3",
            "velocity": 0.3858267716535433,
            "duration": 0.3125,
            "ticks": 528384,
            "durationTicks": 512
          },
          {
            "time": 322.8125,
            "midi": 65,
            "name": "F4",
            "velocity": 0.3858267716535433,
            "duration": 0.3125,
            "ticks": 528896,
            "durationTicks": 512
          },
          {
            "time": 323.125,
            "midi": 65,
            "name": "F4",
            "velocity": 0.3858267716535433,
            "duration": 0.3125,
            "ticks": 529408,
            "durationTicks": 512
          },
          {
            "time": 323.4375,
            "midi": 53,
            "name": "F3",
            "velocity": 0.3858267716535433,
            "duration": 0.3125,
            "ticks": 529920,
            "durationTicks": 512
          },
          {
            "time": 323.75,
            "midi": 53,
            "name": "F3",
            "velocity": 0.3858267716535433,
            "duration": 0.625,
            "ticks": 530432,
            "durationTicks": 1024
          },
          {
            "time": 324.6875,
            "midi": 60,
            "name": "C4",
            "velocity": 0.3858267716535433,
            "duration": 0.3125,
            "ticks": 531968,
            "durationTicks": 512
          },
          {
            "time": 325,
            "midi": 60,
            "name": "C4",
            "velocity": 0.3858267716535433,
            "duration": 0.3125,
            "ticks": 532480,
            "durationTicks": 512
          },
          {
            "time": 325.3125,
            "midi": 48,
            "name": "C3",
            "velocity": 0.3858267716535433,
            "duration": 0.3125,
            "ticks": 532992,
            "durationTicks": 512
          },
          {
            "time": 325.625,
            "midi": 45,
            "name": "A2",
            "velocity": 0.3858267716535433,
            "duration": 0.3125,
            "ticks": 533504,
            "durationTicks": 512
          },
          {
            "time": 325.9375,
            "midi": 49,
            "name": "C#3",
            "velocity": 0.3858267716535433,
            "duration": 0.3125,
            "ticks": 534016,
            "durationTicks": 512
          },
          {
            "time": 326.25,
            "midi": 50,
            "name": "D3",
            "velocity": 0.3858267716535433,
            "duration": 0.625,
            "ticks": 534528,
            "durationTicks": 1024
          },
          {
            "time": 326.875,
            "midi": 57,
            "name": "A3",
            "velocity": 0.3858267716535433,
            "duration": 0.625,
            "ticks": 535552,
            "durationTicks": 1024
          },
          {
            "time": 327.5,
            "midi": 45,
            "name": "A2",
            "velocity": 0.3858267716535433,
            "duration": 0.625,
            "ticks": 536576,
            "durationTicks": 1024
          },
          {
            "time": 328.125,
            "midi": 50,
            "name": "D3",
            "velocity": 0.3858267716535433,
            "duration": 1.875,
            "ticks": 537600,
            "durationTicks": 3072
          },
          {
            "time": 330,
            "midi": 50,
            "name": "D3",
            "velocity": 0.3858267716535433,
            "duration": 1.25,
            "ticks": 540672,
            "durationTicks": 2048
          },
          {
            "time": 331.25,
            "midi": 43,
            "name": "G2",
            "velocity": 0.3858267716535433,
            "duration": 0.625,
            "ticks": 542720,
            "durationTicks": 1024
          },
          {
            "time": 331.875,
            "midi": 45,
            "name": "A2",
            "velocity": 0.3858267716535433,
            "duration": 1.25,
            "ticks": 543744,
            "durationTicks": 2048
          },
          {
            "time": 333.125,
            "midi": 45,
            "name": "A2",
            "velocity": 0.3858267716535433,
            "duration": 0.625,
            "ticks": 545792,
            "durationTicks": 1024
          },
          {
            "time": 333.75,
            "midi": 50,
            "name": "D3",
            "velocity": 0.3858267716535433,
            "duration": 1.25,
            "ticks": 546816,
            "durationTicks": 2048
          },
          {
            "time": 335,
            "midi": 50,
            "name": "D3",
            "velocity": 0.3858267716535433,
            "duration": 0.625,
            "ticks": 548864,
            "durationTicks": 1024
          },
          {
            "time": 335.625,
            "midi": 48,
            "name": "C3",
            "velocity": 0.3858267716535433,
            "duration": 1.25,
            "ticks": 549888,
            "durationTicks": 2048
          },
          {
            "time": 336.875,
            "midi": 48,
            "name": "C3",
            "velocity": 0.3858267716535433,
            "duration": 0.625,
            "ticks": 551936,
            "durationTicks": 1024
          },
          {
            "time": 337.5,
            "midi": 53,
            "name": "F3",
            "velocity": 0.3858267716535433,
            "duration": 0.625,
            "ticks": 552960,
            "durationTicks": 1024
          },
          {
            "time": 338.125,
            "midi": 46,
            "name": "A#2",
            "velocity": 0.3858267716535433,
            "duration": 1.25,
            "ticks": 553984,
            "durationTicks": 2048
          },
          {
            "time": 339.375,
            "midi": 48,
            "name": "C3",
            "velocity": 0.3858267716535433,
            "duration": 0.625,
            "ticks": 556032,
            "durationTicks": 1024
          },
          {
            "time": 340,
            "midi": 45,
            "name": "A2",
            "velocity": 0.3858267716535433,
            "duration": 1.25,
            "ticks": 557056,
            "durationTicks": 2048
          },
          {
            "time": 341.25,
            "midi": 46,
            "name": "A#2",
            "velocity": 0.3858267716535433,
            "duration": 0.625,
            "ticks": 559104,
            "durationTicks": 1024
          },
          {
            "time": 341.875,
            "midi": 43,
            "name": "G2",
            "velocity": 0.3858267716535433,
            "duration": 1.25,
            "ticks": 560128,
            "durationTicks": 2048
          },
          {
            "time": 343.125,
            "midi": 45,
            "name": "A2",
            "velocity": 0.3858267716535433,
            "duration": 1.875,
            "ticks": 562176,
            "durationTicks": 3072
          },
          {
            "time": 345,
            "midi": 50,
            "name": "D3",
            "velocity": 0.3858267716535433,
            "duration": 1.25,
            "ticks": 565248,
            "durationTicks": 2048
          },
          {
            "time": 346.25,
            "midi": 43,
            "name": "G2",
            "velocity": 0.3858267716535433,
            "duration": 0.625,
            "ticks": 567296,
            "durationTicks": 1024
          },
          {
            "time": 346.875,
            "midi": 45,
            "name": "A2",
            "velocity": 0.3858267716535433,
            "duration": 1.25,
            "ticks": 568320,
            "durationTicks": 2048
          },
          {
            "time": 348.125,
            "midi": 45,
            "name": "A2",
            "velocity": 0.3858267716535433,
            "duration": 0.625,
            "ticks": 570368,
            "durationTicks": 1024
          },
          {
            "time": 348.75,
            "midi": 50,
            "name": "D3",
            "velocity": 0.3858267716535433,
            "duration": 1.25,
            "ticks": 571392,
            "durationTicks": 2048
          },
          {
            "time": 350,
            "midi": 50,
            "name": "D3",
            "velocity": 0.3858267716535433,
            "duration": 0.625,
            "ticks": 573440,
            "durationTicks": 1024
          },
          {
            "time": 350.625,
            "midi": 48,
            "name": "C3",
            "velocity": 0.3858267716535433,
            "duration": 1.25,
            "ticks": 574464,
            "durationTicks": 2048
          },
          {
            "time": 351.875,
            "midi": 48,
            "name": "C3",
            "velocity": 0.3858267716535433,
            "duration": 0.625,
            "ticks": 576512,
            "durationTicks": 1024
          },
          {
            "time": 352.5,
            "midi": 53,
            "name": "F3",
            "velocity": 0.3858267716535433,
            "duration": 0.625,
            "ticks": 577536,
            "durationTicks": 1024
          },
          {
            "time": 353.125,
            "midi": 55,
            "name": "G3",
            "velocity": 0.3858267716535433,
            "duration": 1.25,
            "ticks": 578560,
            "durationTicks": 2048
          },
          {
            "time": 354.375,
            "midi": 57,
            "name": "A3",
            "velocity": 0.3858267716535433,
            "duration": 0.9375,
            "ticks": 580608,
            "durationTicks": 1536
          },
          {
            "time": 355.3125,
            "midi": 55,
            "name": "G3",
            "velocity": 0.3858267716535433,
            "duration": 0.3125,
            "ticks": 582144,
            "durationTicks": 512
          },
          {
            "time": 355.625,
            "midi": 53,
            "name": "F3",
            "velocity": 0.3858267716535433,
            "duration": 0.3125,
            "ticks": 582656,
            "durationTicks": 512
          },
          {
            "time": 355.9375,
            "midi": 52,
            "name": "E3",
            "velocity": 0.3858267716535433,
            "duration": 0.3125,
            "ticks": 583168,
            "durationTicks": 512
          },
          {
            "time": 356.25,
            "midi": 50,
            "name": "D3",
            "velocity": 0.3858267716535433,
            "duration": 0.3125,
            "ticks": 583680,
            "durationTicks": 512
          },
          {
            "time": 356.5625,
            "midi": 55,
            "name": "G3",
            "velocity": 0.3858267716535433,
            "duration": 0.3125,
            "ticks": 584192,
            "durationTicks": 512
          },
          {
            "time": 356.875,
            "midi": 57,
            "name": "A3",
            "velocity": 0.3858267716535433,
            "duration": 0.625,
            "ticks": 584704,
            "durationTicks": 1024
          },
          {
            "time": 357.5,
            "midi": 45,
            "name": "A2",
            "velocity": 0.3858267716535433,
            "duration": 0.625,
            "ticks": 585728,
            "durationTicks": 1024
          },
          {
            "time": 358.125,
            "midi": 50,
            "name": "D3",
            "velocity": 0.3858267716535433,
            "duration": 1.875,
            "ticks": 586752,
            "durationTicks": 3072
          },
          {
            "time": 360,
            "midi": 62,
            "name": "D4",
            "velocity": 0.3858267716535433,
            "duration": 0.9375,
            "ticks": 589824,
            "durationTicks": 1536
          },
          {
            "time": 360.9375,
            "midi": 50,
            "name": "D3",
            "velocity": 0.3858267716535433,
            "duration": 0.9375,
            "ticks": 591360,
            "durationTicks": 1536
          },
          {
            "time": 362.8125,
            "midi": 57,
            "name": "A3",
            "velocity": 0.3858267716535433,
            "duration": 0.9375,
            "ticks": 594432,
            "durationTicks": 1536
          },
          {
            "time": 363.75,
            "midi": 45,
            "name": "A2",
            "velocity": 0.3858267716535433,
            "duration": 0.9375,
            "ticks": 595968,
            "durationTicks": 1536
          },
          {
            "time": 365.625,
            "midi": 62,
            "name": "D4",
            "velocity": 0.3858267716535433,
            "duration": 0.9375,
            "ticks": 599040,
            "durationTicks": 1536
          },
          {
            "time": 366.5625,
            "midi": 50,
            "name": "D3",
            "velocity": 0.3858267716535433,
            "duration": 0.9375,
            "ticks": 600576,
            "durationTicks": 1536
          },
          {
            "time": 368.4375,
            "midi": 60,
            "name": "C4",
            "velocity": 0.3858267716535433,
            "duration": 0.9375,
            "ticks": 603648,
            "durationTicks": 1536
          },
          {
            "time": 369.375,
            "midi": 48,
            "name": "C3",
            "velocity": 0.3858267716535433,
            "duration": 0.9375,
            "ticks": 605184,
            "durationTicks": 1536
          },
          {
            "time": 371.25,
            "midi": 53,
            "name": "F3",
            "velocity": 0.3858267716535433,
            "duration": 0.9375,
            "ticks": 608256,
            "durationTicks": 1536
          },
          {
            "time": 372.1875,
            "midi": 41,
            "name": "F2",
            "velocity": 0.3858267716535433,
            "duration": 0.9375,
            "ticks": 609792,
            "durationTicks": 1536
          },
          {
            "time": 374.0625,
            "midi": 48,
            "name": "C3",
            "velocity": 0.3858267716535433,
            "duration": 0.9375,
            "ticks": 612864,
            "durationTicks": 1536
          },
          {
            "time": 375,
            "midi": 49,
            "name": "C#3",
            "velocity": 0.3858267716535433,
            "duration": 0.9375,
            "ticks": 614400,
            "durationTicks": 1536
          },
          {
            "time": 375.9375,
            "midi": 45,
            "name": "A2",
            "velocity": 0.3858267716535433,
            "duration": 0.9375,
            "ticks": 615936,
            "durationTicks": 1536
          },
          {
            "time": 376.875,
            "midi": 50,
            "name": "D3",
            "velocity": 0.3858267716535433,
            "duration": 0.9375,
            "ticks": 617472,
            "durationTicks": 1536
          },
          {
            "time": 377.8125,
            "midi": 46,
            "name": "A#2",
            "velocity": 0.3858267716535433,
            "duration": 0.9375,
            "ticks": 619008,
            "durationTicks": 1536
          },
          {
            "time": 378.75,
            "midi": 43,
            "name": "G2",
            "velocity": 0.3858267716535433,
            "duration": 0.9375,
            "ticks": 620544,
            "durationTicks": 1536
          },
          {
            "time": 379.6875,
            "midi": 45,
            "name": "A2",
            "velocity": 0.3858267716535433,
            "duration": 0.9375,
            "ticks": 622080,
            "durationTicks": 1536
          },
          {
            "time": 380.625,
            "midi": 57,
            "name": "A3",
            "velocity": 0.3858267716535433,
            "duration": 0.9375,
            "ticks": 623616,
            "durationTicks": 1536
          },
          {
            "time": 382.5,
            "midi": 50,
            "name": "D3",
            "velocity": 0.3858267716535433,
            "duration": 0.9375,
            "ticks": 626688,
            "durationTicks": 1536
          },
          {
            "time": 383.4375,
            "midi": 62,
            "name": "D4",
            "velocity": 0.3858267716535433,
            "duration": 0.9375,
            "ticks": 628224,
            "durationTicks": 1536
          },
          {
            "time": 385.3125,
            "midi": 45,
            "name": "A2",
            "velocity": 0.3858267716535433,
            "duration": 0.9375,
            "ticks": 631296,
            "durationTicks": 1536
          },
          {
            "time": 386.25,
            "midi": 57,
            "name": "A3",
            "velocity": 0.3858267716535433,
            "duration": 0.9375,
            "ticks": 632832,
            "durationTicks": 1536
          },
          {
            "time": 388.125,
            "midi": 50,
            "name": "D3",
            "velocity": 0.3858267716535433,
            "duration": 0.9375,
            "ticks": 635904,
            "durationTicks": 1536
          },
          {
            "time": 389.0625,
            "midi": 62,
            "name": "D4",
            "velocity": 0.3858267716535433,
            "duration": 0.9375,
            "ticks": 637440,
            "durationTicks": 1536
          },
          {
            "time": 390.9375,
            "midi": 48,
            "name": "C3",
            "velocity": 0.3858267716535433,
            "duration": 0.9375,
            "ticks": 640512,
            "durationTicks": 1536
          },
          {
            "time": 391.875,
            "midi": 60,
            "name": "C4",
            "velocity": 0.3858267716535433,
            "duration": 0.9375,
            "ticks": 642048,
            "durationTicks": 1536
          },
          {
            "time": 393.75,
            "midi": 41,
            "name": "F2",
            "velocity": 0.3858267716535433,
            "duration": 0.9375,
            "ticks": 645120,
            "durationTicks": 1536
          },
          {
            "time": 394.6875,
            "midi": 53,
            "name": "F3",
            "velocity": 0.3858267716535433,
            "duration": 0.9375,
            "ticks": 646656,
            "durationTicks": 1536
          },
          {
            "time": 396.5625,
            "midi": 48,
            "name": "C3",
            "velocity": 0.3858267716535433,
            "duration": 0.9375,
            "ticks": 649728,
            "durationTicks": 1536
          },
          {
            "time": 397.5,
            "midi": 49,
            "name": "C#3",
            "velocity": 0.3858267716535433,
            "duration": 0.9375,
            "ticks": 651264,
            "durationTicks": 1536
          },
          {
            "time": 398.4375,
            "midi": 45,
            "name": "A2",
            "velocity": 0.3858267716535433,
            "duration": 0.9375,
            "ticks": 652800,
            "durationTicks": 1536
          },
          {
            "time": 399.375,
            "midi": 50,
            "name": "D3",
            "velocity": 0.3858267716535433,
            "duration": 0.625,
            "ticks": 654336,
            "durationTicks": 1024
          },
          {
            "time": 400,
            "midi": 55,
            "name": "G3",
            "velocity": 0.3858267716535433,
            "duration": 0.3125,
            "ticks": 655360,
            "durationTicks": 512
          },
          {
            "time": 400.3125,
            "midi": 57,
            "name": "A3",
            "velocity": 0.3858267716535433,
            "duration": 0.9375,
            "ticks": 655872,
            "durationTicks": 1536
          },
          {
            "time": 401.25,
            "midi": 45,
            "name": "A2",
            "velocity": 0.3858267716535433,
            "duration": 0.9375,
            "ticks": 657408,
            "durationTicks": 1536
          },
          {
            "time": 402.1875,
            "midi": 50,
            "name": "D3",
            "velocity": 0.3858267716535433,
            "duration": 2.8125,
            "ticks": 658944,
            "durationTicks": 4608
          },
          {
            "time": 405,
            "midi": 62,
            "name": "D4",
            "velocity": 0.3858267716535433,
            "duration": 0.3125,
            "ticks": 663552,
            "durationTicks": 512
          },
          {
            "time": 405.3125,
            "midi": 50,
            "name": "D3",
            "velocity": 0.3858267716535433,
            "duration": 0.3125,
            "ticks": 664064,
            "durationTicks": 512
          },
          {
            "time": 405.625,
            "midi": 52,
            "name": "E3",
            "velocity": 0.3858267716535433,
            "duration": 0.3125,
            "ticks": 664576,
            "durationTicks": 512
          },
          {
            "time": 405.9375,
            "midi": 53,
            "name": "F3",
            "velocity": 0.3858267716535433,
            "duration": 0.3125,
            "ticks": 665088,
            "durationTicks": 512
          },
          {
            "time": 406.25,
            "midi": 55,
            "name": "G3",
            "velocity": 0.3858267716535433,
            "duration": 0.3125,
            "ticks": 665600,
            "durationTicks": 512
          },
          {
            "time": 406.5625,
            "midi": 57,
            "name": "A3",
            "velocity": 0.3858267716535433,
            "duration": 0.3125,
            "ticks": 666112,
            "durationTicks": 512
          },
          {
            "time": 406.875,
            "midi": 53,
            "name": "F3",
            "velocity": 0.3858267716535433,
            "duration": 0.3125,
            "ticks": 666624,
            "durationTicks": 512
          },
          {
            "time": 407.1875,
            "midi": 52,
            "name": "E3",
            "velocity": 0.3858267716535433,
            "duration": 0.3125,
            "ticks": 667136,
            "durationTicks": 512
          },
          {
            "time": 407.5,
            "midi": 50,
            "name": "D3",
            "velocity": 0.3858267716535433,
            "duration": 0.3125,
            "ticks": 667648,
            "durationTicks": 512
          },
          {
            "time": 407.8125,
            "midi": 57,
            "name": "A3",
            "velocity": 0.3858267716535433,
            "duration": 0.3125,
            "ticks": 668160,
            "durationTicks": 512
          },
          {
            "time": 408.125,
            "midi": 45,
            "name": "A2",
            "velocity": 0.3858267716535433,
            "duration": 0.3125,
            "ticks": 668672,
            "durationTicks": 512
          },
          {
            "time": 408.4375,
            "midi": 47,
            "name": "B2",
            "velocity": 0.3858267716535433,
            "duration": 0.3125,
            "ticks": 669184,
            "durationTicks": 512
          },
          {
            "time": 408.75,
            "midi": 49,
            "name": "C#3",
            "velocity": 0.3858267716535433,
            "duration": 0.3125,
            "ticks": 669696,
            "durationTicks": 512
          },
          {
            "time": 409.0625,
            "midi": 50,
            "name": "D3",
            "velocity": 0.3858267716535433,
            "duration": 0.3125,
            "ticks": 670208,
            "durationTicks": 512
          },
          {
            "time": 409.375,
            "midi": 52,
            "name": "E3",
            "velocity": 0.3858267716535433,
            "duration": 0.3125,
            "ticks": 670720,
            "durationTicks": 512
          },
          {
            "time": 409.6875,
            "midi": 49,
            "name": "C#3",
            "velocity": 0.3858267716535433,
            "duration": 0.3125,
            "ticks": 671232,
            "durationTicks": 512
          },
          {
            "time": 410,
            "midi": 47,
            "name": "B2",
            "velocity": 0.3858267716535433,
            "duration": 0.3125,
            "ticks": 671744,
            "durationTicks": 512
          },
          {
            "time": 410.3125,
            "midi": 45,
            "name": "A2",
            "velocity": 0.3858267716535433,
            "duration": 0.3125,
            "ticks": 672256,
            "durationTicks": 512
          },
          {
            "time": 410.625,
            "midi": 62,
            "name": "D4",
            "velocity": 0.3858267716535433,
            "duration": 0.3125,
            "ticks": 672768,
            "durationTicks": 512
          },
          {
            "time": 410.9375,
            "midi": 50,
            "name": "D3",
            "velocity": 0.3858267716535433,
            "duration": 0.3125,
            "ticks": 673280,
            "durationTicks": 512
          },
          {
            "time": 411.25,
            "midi": 52,
            "name": "E3",
            "velocity": 0.3858267716535433,
            "duration": 0.3125,
            "ticks": 673792,
            "durationTicks": 512
          },
          {
            "time": 411.5625,
            "midi": 53,
            "name": "F3",
            "velocity": 0.3858267716535433,
            "duration": 0.3125,
            "ticks": 674304,
            "durationTicks": 512
          },
          {
            "time": 411.875,
            "midi": 55,
            "name": "G3",
            "velocity": 0.3858267716535433,
            "duration": 0.3125,
            "ticks": 674816,
            "durationTicks": 512
          },
          {
            "time": 412.1875,
            "midi": 57,
            "name": "A3",
            "velocity": 0.3858267716535433,
            "duration": 0.3125,
            "ticks": 675328,
            "durationTicks": 512
          },
          {
            "time": 412.5,
            "midi": 53,
            "name": "F3",
            "velocity": 0.3858267716535433,
            "duration": 0.3125,
            "ticks": 675840,
            "durationTicks": 512
          },
          {
            "time": 412.8125,
            "midi": 52,
            "name": "E3",
            "velocity": 0.3858267716535433,
            "duration": 0.3125,
            "ticks": 676352,
            "durationTicks": 512
          },
          {
            "time": 413.125,
            "midi": 50,
            "name": "D3",
            "velocity": 0.3858267716535433,
            "duration": 0.3125,
            "ticks": 676864,
            "durationTicks": 512
          },
          {
            "time": 413.4375,
            "midi": 60,
            "name": "C4",
            "velocity": 0.3858267716535433,
            "duration": 0.3125,
            "ticks": 677376,
            "durationTicks": 512
          },
          {
            "time": 413.75,
            "midi": 48,
            "name": "C3",
            "velocity": 0.3858267716535433,
            "duration": 0.3125,
            "ticks": 677888,
            "durationTicks": 512
          },
          {
            "time": 414.0625,
            "midi": 50,
            "name": "D3",
            "velocity": 0.3858267716535433,
            "duration": 0.3125,
            "ticks": 678400,
            "durationTicks": 512
          },
          {
            "time": 414.375,
            "midi": 52,
            "name": "E3",
            "velocity": 0.3858267716535433,
            "duration": 0.3125,
            "ticks": 678912,
            "durationTicks": 512
          },
          {
            "time": 414.6875,
            "midi": 53,
            "name": "F3",
            "velocity": 0.3858267716535433,
            "duration": 0.3125,
            "ticks": 679424,
            "durationTicks": 512
          },
          {
            "time": 415,
            "midi": 55,
            "name": "G3",
            "velocity": 0.3858267716535433,
            "duration": 0.3125,
            "ticks": 679936,
            "durationTicks": 512
          },
          {
            "time": 415.3125,
            "midi": 52,
            "name": "E3",
            "velocity": 0.3858267716535433,
            "duration": 0.3125,
            "ticks": 680448,
            "durationTicks": 512
          },
          {
            "time": 415.625,
            "midi": 50,
            "name": "D3",
            "velocity": 0.3858267716535433,
            "duration": 0.3125,
            "ticks": 680960,
            "durationTicks": 512
          },
          {
            "time": 415.9375,
            "midi": 48,
            "name": "C3",
            "velocity": 0.3858267716535433,
            "duration": 0.3125,
            "ticks": 681472,
            "durationTicks": 512
          },
          {
            "time": 416.25,
            "midi": 65,
            "name": "F4",
            "velocity": 0.3858267716535433,
            "duration": 0.3125,
            "ticks": 681984,
            "durationTicks": 512
          },
          {
            "time": 416.5625,
            "midi": 53,
            "name": "F3",
            "velocity": 0.3858267716535433,
            "duration": 0.3125,
            "ticks": 682496,
            "durationTicks": 512
          },
          {
            "time": 416.875,
            "midi": 55,
            "name": "G3",
            "velocity": 0.3858267716535433,
            "duration": 0.3125,
            "ticks": 683008,
            "durationTicks": 512
          },
          {
            "time": 417.1875,
            "midi": 57,
            "name": "A3",
            "velocity": 0.3858267716535433,
            "duration": 0.3125,
            "ticks": 683520,
            "durationTicks": 512
          },
          {
            "time": 417.5,
            "midi": 58,
            "name": "A#3",
            "velocity": 0.3858267716535433,
            "duration": 0.3125,
            "ticks": 684032,
            "durationTicks": 512
          },
          {
            "time": 417.8125,
            "midi": 60,
            "name": "C4",
            "velocity": 0.3858267716535433,
            "duration": 0.3125,
            "ticks": 684544,
            "durationTicks": 512
          },
          {
            "time": 418.125,
            "midi": 57,
            "name": "A3",
            "velocity": 0.3858267716535433,
            "duration": 0.3125,
            "ticks": 685056,
            "durationTicks": 512
          },
          {
            "time": 418.4375,
            "midi": 55,
            "name": "G3",
            "velocity": 0.3858267716535433,
            "duration": 0.3125,
            "ticks": 685568,
            "durationTicks": 512
          },
          {
            "time": 418.75,
            "midi": 53,
            "name": "F3",
            "velocity": 0.3858267716535433,
            "duration": 0.3125,
            "ticks": 686080,
            "durationTicks": 512
          },
          {
            "time": 419.0625,
            "midi": 60,
            "name": "C4",
            "velocity": 0.3858267716535433,
            "duration": 0.3125,
            "ticks": 686592,
            "durationTicks": 512
          },
          {
            "time": 419.375,
            "midi": 48,
            "name": "C3",
            "velocity": 0.3858267716535433,
            "duration": 0.3125,
            "ticks": 687104,
            "durationTicks": 512
          },
          {
            "time": 419.6875,
            "midi": 50,
            "name": "D3",
            "velocity": 0.3858267716535433,
            "duration": 0.3125,
            "ticks": 687616,
            "durationTicks": 512
          },
          {
            "time": 420,
            "midi": 52,
            "name": "E3",
            "velocity": 0.3858267716535433,
            "duration": 0.3125,
            "ticks": 688128,
            "durationTicks": 512
          },
          {
            "time": 420.3125,
            "midi": 53,
            "name": "F3",
            "velocity": 0.3858267716535433,
            "duration": 0.3125,
            "ticks": 688640,
            "durationTicks": 512
          },
          {
            "time": 420.625,
            "midi": 55,
            "name": "G3",
            "velocity": 0.3858267716535433,
            "duration": 0.3125,
            "ticks": 689152,
            "durationTicks": 512
          },
          {
            "time": 420.9375,
            "midi": 52,
            "name": "E3",
            "velocity": 0.3858267716535433,
            "duration": 0.3125,
            "ticks": 689664,
            "durationTicks": 512
          },
          {
            "time": 421.25,
            "midi": 50,
            "name": "D3",
            "velocity": 0.3858267716535433,
            "duration": 0.3125,
            "ticks": 690176,
            "durationTicks": 512
          },
          {
            "time": 421.5625,
            "midi": 48,
            "name": "C3",
            "velocity": 0.3858267716535433,
            "duration": 0.3125,
            "ticks": 690688,
            "durationTicks": 512
          },
          {
            "time": 421.875,
            "midi": 62,
            "name": "D4",
            "velocity": 0.3858267716535433,
            "duration": 0.3125,
            "ticks": 691200,
            "durationTicks": 512
          },
          {
            "time": 422.1875,
            "midi": 50,
            "name": "D3",
            "velocity": 0.3858267716535433,
            "duration": 0.3125,
            "ticks": 691712,
            "durationTicks": 512
          },
          {
            "time": 422.5,
            "midi": 52,
            "name": "E3",
            "velocity": 0.3858267716535433,
            "duration": 0.3125,
            "ticks": 692224,
            "durationTicks": 512
          },
          {
            "time": 422.8125,
            "midi": 53,
            "name": "F3",
            "velocity": 0.3858267716535433,
            "duration": 0.3125,
            "ticks": 692736,
            "durationTicks": 512
          },
          {
            "time": 423.125,
            "midi": 55,
            "name": "G3",
            "velocity": 0.3858267716535433,
            "duration": 0.3125,
            "ticks": 693248,
            "durationTicks": 512
          },
          {
            "time": 423.4375,
            "midi": 57,
            "name": "A3",
            "velocity": 0.3858267716535433,
            "duration": 0.3125,
            "ticks": 693760,
            "durationTicks": 512
          },
          {
            "time": 423.75,
            "midi": 53,
            "name": "F3",
            "velocity": 0.3858267716535433,
            "duration": 0.3125,
            "ticks": 694272,
            "durationTicks": 512
          },
          {
            "time": 424.0625,
            "midi": 52,
            "name": "E3",
            "velocity": 0.3858267716535433,
            "duration": 0.3125,
            "ticks": 694784,
            "durationTicks": 512
          },
          {
            "time": 424.375,
            "midi": 50,
            "name": "D3",
            "velocity": 0.3858267716535433,
            "duration": 0.3125,
            "ticks": 695296,
            "durationTicks": 512
          },
          {
            "time": 424.6875,
            "midi": 57,
            "name": "A3",
            "velocity": 0.3858267716535433,
            "duration": 0.3125,
            "ticks": 695808,
            "durationTicks": 512
          },
          {
            "time": 425,
            "midi": 45,
            "name": "A2",
            "velocity": 0.3858267716535433,
            "duration": 0.3125,
            "ticks": 696320,
            "durationTicks": 512
          },
          {
            "time": 425.3125,
            "midi": 47,
            "name": "B2",
            "velocity": 0.3858267716535433,
            "duration": 0.3125,
            "ticks": 696832,
            "durationTicks": 512
          },
          {
            "time": 425.625,
            "midi": 49,
            "name": "C#3",
            "velocity": 0.3858267716535433,
            "duration": 0.3125,
            "ticks": 697344,
            "durationTicks": 512
          },
          {
            "time": 425.9375,
            "midi": 50,
            "name": "D3",
            "velocity": 0.3858267716535433,
            "duration": 0.3125,
            "ticks": 697856,
            "durationTicks": 512
          },
          {
            "time": 426.25,
            "midi": 52,
            "name": "E3",
            "velocity": 0.3858267716535433,
            "duration": 0.3125,
            "ticks": 698368,
            "durationTicks": 512
          },
          {
            "time": 426.5625,
            "midi": 49,
            "name": "C#3",
            "velocity": 0.3858267716535433,
            "duration": 0.3125,
            "ticks": 698880,
            "durationTicks": 512
          },
          {
            "time": 426.875,
            "midi": 47,
            "name": "B2",
            "velocity": 0.3858267716535433,
            "duration": 0.3125,
            "ticks": 699392,
            "durationTicks": 512
          },
          {
            "time": 427.1875,
            "midi": 45,
            "name": "A2",
            "velocity": 0.3858267716535433,
            "duration": 0.3125,
            "ticks": 699904,
            "durationTicks": 512
          },
          {
            "time": 427.5,
            "midi": 62,
            "name": "D4",
            "velocity": 0.3858267716535433,
            "duration": 0.3125,
            "ticks": 700416,
            "durationTicks": 512
          },
          {
            "time": 427.8125,
            "midi": 50,
            "name": "D3",
            "velocity": 0.3858267716535433,
            "duration": 0.3125,
            "ticks": 700928,
            "durationTicks": 512
          },
          {
            "time": 428.125,
            "midi": 52,
            "name": "E3",
            "velocity": 0.3858267716535433,
            "duration": 0.3125,
            "ticks": 701440,
            "durationTicks": 512
          },
          {
            "time": 428.4375,
            "midi": 53,
            "name": "F3",
            "velocity": 0.3858267716535433,
            "duration": 0.3125,
            "ticks": 701952,
            "durationTicks": 512
          },
          {
            "time": 428.75,
            "midi": 55,
            "name": "G3",
            "velocity": 0.3858267716535433,
            "duration": 0.3125,
            "ticks": 702464,
            "durationTicks": 512
          },
          {
            "time": 429.0625,
            "midi": 57,
            "name": "A3",
            "velocity": 0.3858267716535433,
            "duration": 0.3125,
            "ticks": 702976,
            "durationTicks": 512
          },
          {
            "time": 429.375,
            "midi": 53,
            "name": "F3",
            "velocity": 0.3858267716535433,
            "duration": 0.3125,
            "ticks": 703488,
            "durationTicks": 512
          },
          {
            "time": 429.6875,
            "midi": 52,
            "name": "E3",
            "velocity": 0.3858267716535433,
            "duration": 0.3125,
            "ticks": 704000,
            "durationTicks": 512
          },
          {
            "time": 430,
            "midi": 50,
            "name": "D3",
            "velocity": 0.3858267716535433,
            "duration": 0.3125,
            "ticks": 704512,
            "durationTicks": 512
          },
          {
            "time": 430.3125,
            "midi": 57,
            "name": "A3",
            "velocity": 0.3858267716535433,
            "duration": 0.3125,
            "ticks": 705024,
            "durationTicks": 512
          },
          {
            "time": 430.625,
            "midi": 45,
            "name": "A2",
            "velocity": 0.3858267716535433,
            "duration": 0.3125,
            "ticks": 705536,
            "durationTicks": 512
          },
          {
            "time": 430.9375,
            "midi": 47,
            "name": "B2",
            "velocity": 0.3858267716535433,
            "duration": 0.3125,
            "ticks": 706048,
            "durationTicks": 512
          },
          {
            "time": 431.25,
            "midi": 49,
            "name": "C#3",
            "velocity": 0.3858267716535433,
            "duration": 0.3125,
            "ticks": 706560,
            "durationTicks": 512
          },
          {
            "time": 431.5625,
            "midi": 50,
            "name": "D3",
            "velocity": 0.3858267716535433,
            "duration": 0.3125,
            "ticks": 707072,
            "durationTicks": 512
          },
          {
            "time": 431.875,
            "midi": 52,
            "name": "E3",
            "velocity": 0.3858267716535433,
            "duration": 0.3125,
            "ticks": 707584,
            "durationTicks": 512
          },
          {
            "time": 432.1875,
            "midi": 49,
            "name": "C#3",
            "velocity": 0.3858267716535433,
            "duration": 0.3125,
            "ticks": 708096,
            "durationTicks": 512
          },
          {
            "time": 432.5,
            "midi": 47,
            "name": "B2",
            "velocity": 0.3858267716535433,
            "duration": 0.3125,
            "ticks": 708608,
            "durationTicks": 512
          },
          {
            "time": 432.8125,
            "midi": 45,
            "name": "A2",
            "velocity": 0.3858267716535433,
            "duration": 0.3125,
            "ticks": 709120,
            "durationTicks": 512
          },
          {
            "time": 433.125,
            "midi": 62,
            "name": "D4",
            "velocity": 0.3858267716535433,
            "duration": 0.3125,
            "ticks": 709632,
            "durationTicks": 512
          },
          {
            "time": 433.4375,
            "midi": 50,
            "name": "D3",
            "velocity": 0.3858267716535433,
            "duration": 0.3125,
            "ticks": 710144,
            "durationTicks": 512
          },
          {
            "time": 433.75,
            "midi": 52,
            "name": "E3",
            "velocity": 0.3858267716535433,
            "duration": 0.3125,
            "ticks": 710656,
            "durationTicks": 512
          },
          {
            "time": 434.0625,
            "midi": 53,
            "name": "F3",
            "velocity": 0.3858267716535433,
            "duration": 0.3125,
            "ticks": 711168,
            "durationTicks": 512
          },
          {
            "time": 434.375,
            "midi": 55,
            "name": "G3",
            "velocity": 0.3858267716535433,
            "duration": 0.3125,
            "ticks": 711680,
            "durationTicks": 512
          },
          {
            "time": 434.6875,
            "midi": 57,
            "name": "A3",
            "velocity": 0.3858267716535433,
            "duration": 0.3125,
            "ticks": 712192,
            "durationTicks": 512
          },
          {
            "time": 435,
            "midi": 53,
            "name": "F3",
            "velocity": 0.3858267716535433,
            "duration": 0.3125,
            "ticks": 712704,
            "durationTicks": 512
          },
          {
            "time": 435.3125,
            "midi": 52,
            "name": "E3",
            "velocity": 0.3858267716535433,
            "duration": 0.3125,
            "ticks": 713216,
            "durationTicks": 512
          },
          {
            "time": 435.625,
            "midi": 50,
            "name": "D3",
            "velocity": 0.3858267716535433,
            "duration": 0.3125,
            "ticks": 713728,
            "durationTicks": 512
          },
          {
            "time": 435.9375,
            "midi": 60,
            "name": "C4",
            "velocity": 0.3858267716535433,
            "duration": 0.3125,
            "ticks": 714240,
            "durationTicks": 512
          },
          {
            "time": 436.25,
            "midi": 48,
            "name": "C3",
            "velocity": 0.3858267716535433,
            "duration": 0.3125,
            "ticks": 714752,
            "durationTicks": 512
          },
          {
            "time": 436.5625,
            "midi": 50,
            "name": "D3",
            "velocity": 0.3858267716535433,
            "duration": 0.3125,
            "ticks": 715264,
            "durationTicks": 512
          },
          {
            "time": 436.875,
            "midi": 52,
            "name": "E3",
            "velocity": 0.3858267716535433,
            "duration": 0.3125,
            "ticks": 715776,
            "durationTicks": 512
          },
          {
            "time": 437.1875,
            "midi": 53,
            "name": "F3",
            "velocity": 0.3858267716535433,
            "duration": 0.3125,
            "ticks": 716288,
            "durationTicks": 512
          },
          {
            "time": 437.5,
            "midi": 55,
            "name": "G3",
            "velocity": 0.3858267716535433,
            "duration": 0.3125,
            "ticks": 716800,
            "durationTicks": 512
          },
          {
            "time": 437.8125,
            "midi": 52,
            "name": "E3",
            "velocity": 0.3858267716535433,
            "duration": 0.3125,
            "ticks": 717312,
            "durationTicks": 512
          },
          {
            "time": 438.125,
            "midi": 50,
            "name": "D3",
            "velocity": 0.3858267716535433,
            "duration": 0.3125,
            "ticks": 717824,
            "durationTicks": 512
          },
          {
            "time": 438.4375,
            "midi": 48,
            "name": "C3",
            "velocity": 0.3858267716535433,
            "duration": 0.3125,
            "ticks": 718336,
            "durationTicks": 512
          },
          {
            "time": 438.75,
            "midi": 65,
            "name": "F4",
            "velocity": 0.3858267716535433,
            "duration": 0.3125,
            "ticks": 718848,
            "durationTicks": 512
          },
          {
            "time": 439.0625,
            "midi": 53,
            "name": "F3",
            "velocity": 0.3858267716535433,
            "duration": 0.3125,
            "ticks": 719360,
            "durationTicks": 512
          },
          {
            "time": 439.375,
            "midi": 55,
            "name": "G3",
            "velocity": 0.3858267716535433,
            "duration": 0.3125,
            "ticks": 719872,
            "durationTicks": 512
          },
          {
            "time": 439.6875,
            "midi": 57,
            "name": "A3",
            "velocity": 0.3858267716535433,
            "duration": 0.3125,
            "ticks": 720384,
            "durationTicks": 512
          },
          {
            "time": 440,
            "midi": 58,
            "name": "A#3",
            "velocity": 0.3858267716535433,
            "duration": 0.3125,
            "ticks": 720896,
            "durationTicks": 512
          },
          {
            "time": 440.3125,
            "midi": 60,
            "name": "C4",
            "velocity": 0.3858267716535433,
            "duration": 0.3125,
            "ticks": 721408,
            "durationTicks": 512
          },
          {
            "time": 440.625,
            "midi": 57,
            "name": "A3",
            "velocity": 0.3858267716535433,
            "duration": 0.3125,
            "ticks": 721920,
            "durationTicks": 512
          },
          {
            "time": 440.9375,
            "midi": 55,
            "name": "G3",
            "velocity": 0.3858267716535433,
            "duration": 0.3125,
            "ticks": 722432,
            "durationTicks": 512
          },
          {
            "time": 441.25,
            "midi": 53,
            "name": "F3",
            "velocity": 0.3858267716535433,
            "duration": 0.3125,
            "ticks": 722944,
            "durationTicks": 512
          },
          {
            "time": 441.5625,
            "midi": 60,
            "name": "C4",
            "velocity": 0.3858267716535433,
            "duration": 0.3125,
            "ticks": 723456,
            "durationTicks": 512
          },
          {
            "time": 441.875,
            "midi": 48,
            "name": "C3",
            "velocity": 0.3858267716535433,
            "duration": 0.3125,
            "ticks": 723968,
            "durationTicks": 512
          },
          {
            "time": 442.1875,
            "midi": 50,
            "name": "D3",
            "velocity": 0.3858267716535433,
            "duration": 0.3125,
            "ticks": 724480,
            "durationTicks": 512
          },
          {
            "time": 442.5,
            "midi": 52,
            "name": "E3",
            "velocity": 0.3858267716535433,
            "duration": 0.3125,
            "ticks": 724992,
            "durationTicks": 512
          },
          {
            "time": 442.8125,
            "midi": 53,
            "name": "F3",
            "velocity": 0.3858267716535433,
            "duration": 0.3125,
            "ticks": 725504,
            "durationTicks": 512
          },
          {
            "time": 443.125,
            "midi": 55,
            "name": "G3",
            "velocity": 0.3858267716535433,
            "duration": 0.3125,
            "ticks": 726016,
            "durationTicks": 512
          },
          {
            "time": 443.4375,
            "midi": 45,
            "name": "A2",
            "velocity": 0.3858267716535433,
            "duration": 0.3125,
            "ticks": 726528,
            "durationTicks": 512
          },
          {
            "time": 443.75,
            "midi": 47,
            "name": "B2",
            "velocity": 0.3858267716535433,
            "duration": 0.3125,
            "ticks": 727040,
            "durationTicks": 512
          },
          {
            "time": 444.0625,
            "midi": 49,
            "name": "C#3",
            "velocity": 0.3858267716535433,
            "duration": 0.3125,
            "ticks": 727552,
            "durationTicks": 512
          },
          {
            "time": 444.375,
            "midi": 50,
            "name": "D3",
            "velocity": 0.3858267716535433,
            "duration": 0.3125,
            "ticks": 728064,
            "durationTicks": 512
          },
          {
            "time": 444.6875,
            "midi": 52,
            "name": "E3",
            "velocity": 0.3858267716535433,
            "duration": 0.3125,
            "ticks": 728576,
            "durationTicks": 512
          },
          {
            "time": 445,
            "midi": 53,
            "name": "F3",
            "velocity": 0.3858267716535433,
            "duration": 0.3125,
            "ticks": 729088,
            "durationTicks": 512
          },
          {
            "time": 445.3125,
            "midi": 55,
            "name": "G3",
            "velocity": 0.3858267716535433,
            "duration": 0.3125,
            "ticks": 729600,
            "durationTicks": 512
          },
          {
            "time": 445.625,
            "midi": 57,
            "name": "A3",
            "velocity": 0.3858267716535433,
            "duration": 0.3125,
            "ticks": 730112,
            "durationTicks": 512
          },
          {
            "time": 445.9375,
            "midi": 58,
            "name": "A#3",
            "velocity": 0.3858267716535433,
            "duration": 0.3125,
            "ticks": 730624,
            "durationTicks": 512
          },
          {
            "time": 446.25,
            "midi": 57,
            "name": "A3",
            "velocity": 0.3858267716535433,
            "duration": 0.625,
            "ticks": 731136,
            "durationTicks": 1024
          },
          {
            "time": 446.875,
            "midi": 45,
            "name": "A2",
            "velocity": 0.3858267716535433,
            "duration": 0.3125,
            "ticks": 732160,
            "durationTicks": 512
          },
          {
            "time": 447.1875,
            "midi": 50,
            "name": "D3",
            "velocity": 0.3858267716535433,
            "duration": 2.8125,
            "ticks": 732672,
            "durationTicks": 4608
          },
          {
            "time": 450,
            "midi": 50,
            "name": "D3",
            "velocity": 0.3858267716535433,
            "duration": 0.625,
            "ticks": 737280,
            "durationTicks": 1024
          },
          {
            "time": 450.625,
            "midi": 50,
            "name": "D3",
            "velocity": 0.3858267716535433,
            "duration": 0.3125,
            "ticks": 738304,
            "durationTicks": 512
          },
          {
            "time": 450.9375,
            "midi": 50,
            "name": "D3",
            "velocity": 0.3858267716535433,
            "duration": 0.625,
            "ticks": 738816,
            "durationTicks": 1024
          },
          {
            "time": 451.5625,
            "midi": 50,
            "name": "D3",
            "velocity": 0.3858267716535433,
            "duration": 0.3125,
            "ticks": 739840,
            "durationTicks": 512
          },
          {
            "time": 451.875,
            "midi": 45,
            "name": "A2",
            "velocity": 0.3858267716535433,
            "duration": 0.625,
            "ticks": 740352,
            "durationTicks": 1024
          },
          {
            "time": 452.5,
            "midi": 45,
            "name": "A2",
            "velocity": 0.3858267716535433,
            "duration": 0.3125,
            "ticks": 741376,
            "durationTicks": 512
          },
          {
            "time": 452.8125,
            "midi": 45,
            "name": "A2",
            "velocity": 0.3858267716535433,
            "duration": 0.625,
            "ticks": 741888,
            "durationTicks": 1024
          },
          {
            "time": 453.4375,
            "midi": 45,
            "name": "A2",
            "velocity": 0.3858267716535433,
            "duration": 0.3125,
            "ticks": 742912,
            "durationTicks": 512
          },
          {
            "time": 453.75,
            "midi": 50,
            "name": "D3",
            "velocity": 0.3858267716535433,
            "duration": 0.625,
            "ticks": 743424,
            "durationTicks": 1024
          },
          {
            "time": 454.375,
            "midi": 50,
            "name": "D3",
            "velocity": 0.3858267716535433,
            "duration": 0.3125,
            "ticks": 744448,
            "durationTicks": 512
          },
          {
            "time": 454.6875,
            "midi": 50,
            "name": "D3",
            "velocity": 0.3858267716535433,
            "duration": 0.625,
            "ticks": 744960,
            "durationTicks": 1024
          },
          {
            "time": 455.3125,
            "midi": 50,
            "name": "D3",
            "velocity": 0.3858267716535433,
            "duration": 0.3125,
            "ticks": 745984,
            "durationTicks": 512
          },
          {
            "time": 455.625,
            "midi": 48,
            "name": "C3",
            "velocity": 0.3858267716535433,
            "duration": 0.625,
            "ticks": 746496,
            "durationTicks": 1024
          },
          {
            "time": 456.25,
            "midi": 48,
            "name": "C3",
            "velocity": 0.3858267716535433,
            "duration": 0.3125,
            "ticks": 747520,
            "durationTicks": 512
          },
          {
            "time": 456.5625,
            "midi": 48,
            "name": "C3",
            "velocity": 0.3858267716535433,
            "duration": 0.625,
            "ticks": 748032,
            "durationTicks": 1024
          },
          {
            "time": 457.1875,
            "midi": 48,
            "name": "C3",
            "velocity": 0.3858267716535433,
            "duration": 0.3125,
            "ticks": 749056,
            "durationTicks": 512
          },
          {
            "time": 457.5,
            "midi": 53,
            "name": "F3",
            "velocity": 0.3858267716535433,
            "duration": 0.625,
            "ticks": 749568,
            "durationTicks": 1024
          },
          {
            "time": 458.125,
            "midi": 53,
            "name": "F3",
            "velocity": 0.3858267716535433,
            "duration": 0.3125,
            "ticks": 750592,
            "durationTicks": 512
          },
          {
            "time": 458.4375,
            "midi": 53,
            "name": "F3",
            "velocity": 0.3858267716535433,
            "duration": 0.625,
            "ticks": 751104,
            "durationTicks": 1024
          },
          {
            "time": 459.0625,
            "midi": 53,
            "name": "F3",
            "velocity": 0.3858267716535433,
            "duration": 0.3125,
            "ticks": 752128,
            "durationTicks": 512
          },
          {
            "time": 459.375,
            "midi": 48,
            "name": "C3",
            "velocity": 0.3858267716535433,
            "duration": 0.625,
            "ticks": 752640,
            "durationTicks": 1024
          },
          {
            "time": 460,
            "midi": 49,
            "name": "C#3",
            "velocity": 0.3858267716535433,
            "duration": 0.3125,
            "ticks": 753664,
            "durationTicks": 512
          },
          {
            "time": 460.3125,
            "midi": 49,
            "name": "C#3",
            "velocity": 0.3858267716535433,
            "duration": 0.625,
            "ticks": 754176,
            "durationTicks": 1024
          },
          {
            "time": 460.9375,
            "midi": 45,
            "name": "A2",
            "velocity": 0.3858267716535433,
            "duration": 0.3125,
            "ticks": 755200,
            "durationTicks": 512
          },
          {
            "time": 461.25,
            "midi": 50,
            "name": "D3",
            "velocity": 0.3858267716535433,
            "duration": 0.625,
            "ticks": 755712,
            "durationTicks": 1024
          },
          {
            "time": 461.875,
            "midi": 50,
            "name": "D3",
            "velocity": 0.3858267716535433,
            "duration": 0.3125,
            "ticks": 756736,
            "durationTicks": 512
          },
          {
            "time": 462.1875,
            "midi": 43,
            "name": "G2",
            "velocity": 0.3858267716535433,
            "duration": 0.625,
            "ticks": 757248,
            "durationTicks": 1024
          },
          {
            "time": 462.8125,
            "midi": 43,
            "name": "G2",
            "velocity": 0.3858267716535433,
            "duration": 0.3125,
            "ticks": 758272,
            "durationTicks": 512
          },
          {
            "time": 463.125,
            "midi": 45,
            "name": "A2",
            "velocity": 0.3858267716535433,
            "duration": 0.625,
            "ticks": 758784,
            "durationTicks": 1024
          },
          {
            "time": 463.75,
            "midi": 45,
            "name": "A2",
            "velocity": 0.3858267716535433,
            "duration": 0.3125,
            "ticks": 759808,
            "durationTicks": 512
          },
          {
            "time": 464.0625,
            "midi": 45,
            "name": "A2",
            "velocity": 0.3858267716535433,
            "duration": 0.625,
            "ticks": 760320,
            "durationTicks": 1024
          },
          {
            "time": 464.6875,
            "midi": 45,
            "name": "A2",
            "velocity": 0.3858267716535433,
            "duration": 0.3125,
            "ticks": 761344,
            "durationTicks": 512
          },
          {
            "time": 465,
            "midi": 50,
            "name": "D3",
            "velocity": 0.3858267716535433,
            "duration": 0.625,
            "ticks": 761856,
            "durationTicks": 1024
          },
          {
            "time": 465.625,
            "midi": 50,
            "name": "D3",
            "velocity": 0.3858267716535433,
            "duration": 0.3125,
            "ticks": 762880,
            "durationTicks": 512
          },
          {
            "time": 465.9375,
            "midi": 50,
            "name": "D3",
            "velocity": 0.3858267716535433,
            "duration": 0.625,
            "ticks": 763392,
            "durationTicks": 1024
          },
          {
            "time": 466.5625,
            "midi": 50,
            "name": "D3",
            "velocity": 0.3858267716535433,
            "duration": 0.3125,
            "ticks": 764416,
            "durationTicks": 512
          },
          {
            "time": 466.875,
            "midi": 45,
            "name": "A2",
            "velocity": 0.3858267716535433,
            "duration": 0.625,
            "ticks": 764928,
            "durationTicks": 1024
          },
          {
            "time": 467.5,
            "midi": 45,
            "name": "A2",
            "velocity": 0.3858267716535433,
            "duration": 0.3125,
            "ticks": 765952,
            "durationTicks": 512
          },
          {
            "time": 467.8125,
            "midi": 45,
            "name": "A2",
            "velocity": 0.3858267716535433,
            "duration": 0.625,
            "ticks": 766464,
            "durationTicks": 1024
          },
          {
            "time": 468.4375,
            "midi": 45,
            "name": "A2",
            "velocity": 0.3858267716535433,
            "duration": 0.3125,
            "ticks": 767488,
            "durationTicks": 512
          },
          {
            "time": 468.75,
            "midi": 50,
            "name": "D3",
            "velocity": 0.3858267716535433,
            "duration": 0.625,
            "ticks": 768000,
            "durationTicks": 1024
          },
          {
            "time": 469.375,
            "midi": 50,
            "name": "D3",
            "velocity": 0.3858267716535433,
            "duration": 0.3125,
            "ticks": 769024,
            "durationTicks": 512
          },
          {
            "time": 469.6875,
            "midi": 50,
            "name": "D3",
            "velocity": 0.3858267716535433,
            "duration": 0.625,
            "ticks": 769536,
            "durationTicks": 1024
          },
          {
            "time": 470.3125,
            "midi": 50,
            "name": "D3",
            "velocity": 0.3858267716535433,
            "duration": 0.3125,
            "ticks": 770560,
            "durationTicks": 512
          },
          {
            "time": 470.625,
            "midi": 48,
            "name": "C3",
            "velocity": 0.3858267716535433,
            "duration": 0.625,
            "ticks": 771072,
            "durationTicks": 1024
          },
          {
            "time": 471.25,
            "midi": 48,
            "name": "C3",
            "velocity": 0.3858267716535433,
            "duration": 0.3125,
            "ticks": 772096,
            "durationTicks": 512
          },
          {
            "time": 471.5625,
            "midi": 48,
            "name": "C3",
            "velocity": 0.3858267716535433,
            "duration": 0.625,
            "ticks": 772608,
            "durationTicks": 1024
          },
          {
            "time": 472.1875,
            "midi": 48,
            "name": "C3",
            "velocity": 0.3858267716535433,
            "duration": 0.3125,
            "ticks": 773632,
            "durationTicks": 512
          },
          {
            "time": 472.5,
            "midi": 53,
            "name": "F3",
            "velocity": 0.3858267716535433,
            "duration": 0.625,
            "ticks": 774144,
            "durationTicks": 1024
          },
          {
            "time": 473.125,
            "midi": 53,
            "name": "F3",
            "velocity": 0.3858267716535433,
            "duration": 0.3125,
            "ticks": 775168,
            "durationTicks": 512
          },
          {
            "time": 473.4375,
            "midi": 53,
            "name": "F3",
            "velocity": 0.3858267716535433,
            "duration": 0.625,
            "ticks": 775680,
            "durationTicks": 1024
          },
          {
            "time": 474.0625,
            "midi": 53,
            "name": "F3",
            "velocity": 0.3858267716535433,
            "duration": 0.3125,
            "ticks": 776704,
            "durationTicks": 512
          },
          {
            "time": 474.375,
            "midi": 48,
            "name": "C3",
            "velocity": 0.3858267716535433,
            "duration": 0.625,
            "ticks": 777216,
            "durationTicks": 1024
          },
          {
            "time": 475,
            "midi": 48,
            "name": "C3",
            "velocity": 0.3858267716535433,
            "duration": 0.3125,
            "ticks": 778240,
            "durationTicks": 512
          },
          {
            "time": 475.3125,
            "midi": 49,
            "name": "C#3",
            "velocity": 0.3858267716535433,
            "duration": 0.3125,
            "ticks": 778752,
            "durationTicks": 512
          },
          {
            "time": 475.625,
            "midi": 50,
            "name": "D3",
            "velocity": 0.3858267716535433,
            "duration": 0.3125,
            "ticks": 779264,
            "durationTicks": 512
          },
          {
            "time": 475.9375,
            "midi": 52,
            "name": "E3",
            "velocity": 0.3858267716535433,
            "duration": 0.3125,
            "ticks": 779776,
            "durationTicks": 512
          },
          {
            "time": 476.25,
            "midi": 50,
            "name": "D3",
            "velocity": 0.3858267716535433,
            "duration": 0.625,
            "ticks": 780288,
            "durationTicks": 1024
          },
          {
            "time": 476.875,
            "midi": 55,
            "name": "G3",
            "velocity": 0.3858267716535433,
            "duration": 0.3125,
            "ticks": 781312,
            "durationTicks": 512
          },
          {
            "time": 477.1875,
            "midi": 57,
            "name": "A3",
            "velocity": 0.3858267716535433,
            "duration": 0.625,
            "ticks": 781824,
            "durationTicks": 1024
          },
          {
            "time": 477.8125,
            "midi": 45,
            "name": "A2",
            "velocity": 0.3858267716535433,
            "duration": 0.3125,
            "ticks": 782848,
            "durationTicks": 512
          },
          {
            "time": 478.125,
            "midi": 50,
            "name": "D3",
            "velocity": 0.3858267716535433,
            "duration": 1.875,
            "ticks": 783360,
            "durationTicks": 3072
          },
          {
            "time": 480,
            "midi": 50,
            "name": "D3",
            "velocity": 0.3858267716535433,
            "duration": 0.625,
            "ticks": 786432,
            "durationTicks": 1024
          },
          {
            "time": 480.625,
            "midi": 50,
            "name": "D3",
            "velocity": 0.3858267716535433,
            "duration": 0.625,
            "ticks": 787456,
            "durationTicks": 1024
          },
          {
            "time": 481.25,
            "midi": 50,
            "name": "D3",
            "velocity": 0.3858267716535433,
            "duration": 0.625,
            "ticks": 788480,
            "durationTicks": 1024
          },
          {
            "time": 481.875,
            "midi": 45,
            "name": "A2",
            "velocity": 0.3858267716535433,
            "duration": 0.625,
            "ticks": 789504,
            "durationTicks": 1024
          },
          {
            "time": 482.5,
            "midi": 45,
            "name": "A2",
            "velocity": 0.3858267716535433,
            "duration": 0.625,
            "ticks": 790528,
            "durationTicks": 1024
          },
          {
            "time": 483.125,
            "midi": 45,
            "name": "A2",
            "velocity": 0.3858267716535433,
            "duration": 0.625,
            "ticks": 791552,
            "durationTicks": 1024
          },
          {
            "time": 483.75,
            "midi": 50,
            "name": "D3",
            "velocity": 0.3858267716535433,
            "duration": 0.625,
            "ticks": 792576,
            "durationTicks": 1024
          },
          {
            "time": 484.375,
            "midi": 50,
            "name": "D3",
            "velocity": 0.3858267716535433,
            "duration": 0.625,
            "ticks": 793600,
            "durationTicks": 1024
          },
          {
            "time": 485,
            "midi": 50,
            "name": "D3",
            "velocity": 0.3858267716535433,
            "duration": 0.625,
            "ticks": 794624,
            "durationTicks": 1024
          },
          {
            "time": 485.625,
            "midi": 48,
            "name": "C3",
            "velocity": 0.3858267716535433,
            "duration": 0.625,
            "ticks": 795648,
            "durationTicks": 1024
          },
          {
            "time": 486.25,
            "midi": 48,
            "name": "C3",
            "velocity": 0.3858267716535433,
            "duration": 0.625,
            "ticks": 796672,
            "durationTicks": 1024
          },
          {
            "time": 486.875,
            "midi": 48,
            "name": "C3",
            "velocity": 0.3858267716535433,
            "duration": 0.625,
            "ticks": 797696,
            "durationTicks": 1024
          },
          {
            "time": 487.5,
            "midi": 53,
            "name": "F3",
            "velocity": 0.3858267716535433,
            "duration": 0.625,
            "ticks": 798720,
            "durationTicks": 1024
          },
          {
            "time": 488.125,
            "midi": 53,
            "name": "F3",
            "velocity": 0.3858267716535433,
            "duration": 0.625,
            "ticks": 799744,
            "durationTicks": 1024
          },
          {
            "time": 488.75,
            "midi": 53,
            "name": "F3",
            "velocity": 0.3858267716535433,
            "duration": 0.625,
            "ticks": 800768,
            "durationTicks": 1024
          },
          {
            "time": 489.375,
            "midi": 48,
            "name": "C3",
            "velocity": 0.3858267716535433,
            "duration": 0.625,
            "ticks": 801792,
            "durationTicks": 1024
          },
          {
            "time": 490,
            "midi": 48,
            "name": "C3",
            "velocity": 0.3858267716535433,
            "duration": 0.625,
            "ticks": 802816,
            "durationTicks": 1024
          },
          {
            "time": 490.625,
            "midi": 49,
            "name": "C#3",
            "velocity": 0.3858267716535433,
            "duration": 0.625,
            "ticks": 803840,
            "durationTicks": 1024
          },
          {
            "time": 491.25,
            "midi": 50,
            "name": "D3",
            "velocity": 0.3858267716535433,
            "duration": 0.625,
            "ticks": 804864,
            "durationTicks": 1024
          },
          {
            "time": 491.875,
            "midi": 46,
            "name": "A#2",
            "velocity": 0.3858267716535433,
            "duration": 0.625,
            "ticks": 805888,
            "durationTicks": 1024
          },
          {
            "time": 492.5,
            "midi": 43,
            "name": "G2",
            "velocity": 0.3858267716535433,
            "duration": 0.625,
            "ticks": 806912,
            "durationTicks": 1024
          },
          {
            "time": 493.125,
            "midi": 45,
            "name": "A2",
            "velocity": 0.3858267716535433,
            "duration": 0.625,
            "ticks": 807936,
            "durationTicks": 1024
          },
          {
            "time": 493.75,
            "midi": 45,
            "name": "A2",
            "velocity": 0.3858267716535433,
            "duration": 0.625,
            "ticks": 808960,
            "durationTicks": 1024
          },
          {
            "time": 494.375,
            "midi": 45,
            "name": "A2",
            "velocity": 0.3858267716535433,
            "duration": 0.625,
            "ticks": 809984,
            "durationTicks": 1024
          },
          {
            "time": 495,
            "midi": 50,
            "name": "D3",
            "velocity": 0.3858267716535433,
            "duration": 0.625,
            "ticks": 811008,
            "durationTicks": 1024
          },
          {
            "time": 495.625,
            "midi": 50,
            "name": "D3",
            "velocity": 0.3858267716535433,
            "duration": 0.625,
            "ticks": 812032,
            "durationTicks": 1024
          },
          {
            "time": 496.25,
            "midi": 50,
            "name": "D3",
            "velocity": 0.3858267716535433,
            "duration": 0.625,
            "ticks": 813056,
            "durationTicks": 1024
          },
          {
            "time": 496.875,
            "midi": 45,
            "name": "A2",
            "velocity": 0.3858267716535433,
            "duration": 0.625,
            "ticks": 814080,
            "durationTicks": 1024
          },
          {
            "time": 497.5,
            "midi": 45,
            "name": "A2",
            "velocity": 0.3858267716535433,
            "duration": 0.625,
            "ticks": 815104,
            "durationTicks": 1024
          },
          {
            "time": 498.125,
            "midi": 45,
            "name": "A2",
            "velocity": 0.3858267716535433,
            "duration": 0.625,
            "ticks": 816128,
            "durationTicks": 1024
          },
          {
            "time": 498.75,
            "midi": 50,
            "name": "D3",
            "velocity": 0.3858267716535433,
            "duration": 0.625,
            "ticks": 817152,
            "durationTicks": 1024
          },
          {
            "time": 499.375,
            "midi": 50,
            "name": "D3",
            "velocity": 0.3858267716535433,
            "duration": 0.625,
            "ticks": 818176,
            "durationTicks": 1024
          },
          {
            "time": 500,
            "midi": 50,
            "name": "D3",
            "velocity": 0.3858267716535433,
            "duration": 0.625,
            "ticks": 819200,
            "durationTicks": 1024
          },
          {
            "time": 500.625,
            "midi": 48,
            "name": "C3",
            "velocity": 0.3858267716535433,
            "duration": 0.625,
            "ticks": 820224,
            "durationTicks": 1024
          },
          {
            "time": 501.25,
            "midi": 48,
            "name": "C3",
            "velocity": 0.3858267716535433,
            "duration": 0.625,
            "ticks": 821248,
            "durationTicks": 1024
          },
          {
            "time": 501.875,
            "midi": 48,
            "name": "C3",
            "velocity": 0.3858267716535433,
            "duration": 0.625,
            "ticks": 822272,
            "durationTicks": 1024
          },
          {
            "time": 502.5,
            "midi": 53,
            "name": "F3",
            "velocity": 0.3858267716535433,
            "duration": 0.625,
            "ticks": 823296,
            "durationTicks": 1024
          },
          {
            "time": 503.125,
            "midi": 53,
            "name": "F3",
            "velocity": 0.3858267716535433,
            "duration": 0.625,
            "ticks": 824320,
            "durationTicks": 1024
          },
          {
            "time": 503.75,
            "midi": 53,
            "name": "F3",
            "velocity": 0.3858267716535433,
            "duration": 0.625,
            "ticks": 825344,
            "durationTicks": 1024
          },
          {
            "time": 504.375,
            "midi": 48,
            "name": "C3",
            "velocity": 0.3858267716535433,
            "duration": 0.625,
            "ticks": 826368,
            "durationTicks": 1024
          },
          {
            "time": 505,
            "midi": 48,
            "name": "C3",
            "velocity": 0.3858267716535433,
            "duration": 0.625,
            "ticks": 827392,
            "durationTicks": 1024
          },
          {
            "time": 505.625,
            "midi": 49,
            "name": "C#3",
            "velocity": 0.3858267716535433,
            "duration": 0.625,
            "ticks": 828416,
            "durationTicks": 1024
          },
          {
            "time": 506.25,
            "midi": 50,
            "name": "D3",
            "velocity": 0.3858267716535433,
            "duration": 0.625,
            "ticks": 829440,
            "durationTicks": 1024
          },
          {
            "time": 506.875,
            "midi": 57,
            "name": "A3",
            "velocity": 0.3858267716535433,
            "duration": 0.625,
            "ticks": 830464,
            "durationTicks": 1024
          },
          {
            "time": 507.5,
            "midi": 45,
            "name": "A2",
            "velocity": 0.3858267716535433,
            "duration": 0.625,
            "ticks": 831488,
            "durationTicks": 1024
          },
          {
            "time": 508.125,
            "midi": 50,
            "name": "D3",
            "velocity": 0.3858267716535433,
            "duration": 1.875,
            "ticks": 832512,
            "durationTicks": 3072
          },
          {
            "time": 510,
            "midi": 62,
            "name": "D4",
            "velocity": 0.3858267716535433,
            "duration": 0.3125,
            "ticks": 835584,
            "durationTicks": 512
          },
          {
            "time": 510.3125,
            "midi": 50,
            "name": "D3",
            "velocity": 0.3858267716535433,
            "duration": 0.3125,
            "ticks": 836096,
            "durationTicks": 512
          },
          {
            "time": 510.625,
            "midi": 50,
            "name": "D3",
            "velocity": 0.3858267716535433,
            "duration": 0.15625,
            "ticks": 836608,
            "durationTicks": 256
          },
          {
            "time": 510.78125,
            "midi": 52,
            "name": "E3",
            "velocity": 0.3858267716535433,
            "duration": 0.15625,
            "ticks": 836864,
            "durationTicks": 256
          },
          {
            "time": 510.9375,
            "midi": 53,
            "name": "F3",
            "velocity": 0.3858267716535433,
            "duration": 0.15625,
            "ticks": 837120,
            "durationTicks": 256
          },
          {
            "time": 511.09375,
            "midi": 55,
            "name": "G3",
            "velocity": 0.3858267716535433,
            "duration": 0.15625,
            "ticks": 837376,
            "durationTicks": 256
          },
          {
            "time": 511.25,
            "midi": 57,
            "name": "A3",
            "velocity": 0.3858267716535433,
            "duration": 0.15625,
            "ticks": 837632,
            "durationTicks": 256
          },
          {
            "time": 511.40625,
            "midi": 59,
            "name": "B3",
            "velocity": 0.3858267716535433,
            "duration": 0.15625,
            "ticks": 837888,
            "durationTicks": 256
          },
          {
            "time": 511.5625,
            "midi": 61,
            "name": "C#4",
            "velocity": 0.3858267716535433,
            "duration": 0.15625,
            "ticks": 838144,
            "durationTicks": 256
          },
          {
            "time": 511.71875,
            "midi": 62,
            "name": "D4",
            "velocity": 0.3858267716535433,
            "duration": 0.15625,
            "ticks": 838400,
            "durationTicks": 256
          },
          {
            "time": 511.875,
            "midi": 57,
            "name": "A3",
            "velocity": 0.3858267716535433,
            "duration": 0.3125,
            "ticks": 838656,
            "durationTicks": 512
          },
          {
            "time": 512.1875,
            "midi": 45,
            "name": "A2",
            "velocity": 0.3858267716535433,
            "duration": 0.3125,
            "ticks": 839168,
            "durationTicks": 512
          },
          {
            "time": 512.5,
            "midi": 45,
            "name": "A2",
            "velocity": 0.3858267716535433,
            "duration": 0.15625,
            "ticks": 839680,
            "durationTicks": 256
          },
          {
            "time": 512.65625,
            "midi": 49,
            "name": "C#3",
            "velocity": 0.3858267716535433,
            "duration": 0.15625,
            "ticks": 839936,
            "durationTicks": 256
          },
          {
            "time": 512.8125,
            "midi": 51,
            "name": "D#3",
            "velocity": 0.3858267716535433,
            "duration": 0.15625,
            "ticks": 840192,
            "durationTicks": 256
          },
          {
            "time": 512.96875,
            "midi": 52,
            "name": "E3",
            "velocity": 0.3858267716535433,
            "duration": 0.15625,
            "ticks": 840448,
            "durationTicks": 256
          },
          {
            "time": 513.125,
            "midi": 53,
            "name": "F3",
            "velocity": 0.3858267716535433,
            "duration": 0.15625,
            "ticks": 840704,
            "durationTicks": 256
          },
          {
            "time": 513.28125,
            "midi": 55,
            "name": "G3",
            "velocity": 0.3858267716535433,
            "duration": 0.15625,
            "ticks": 840960,
            "durationTicks": 256
          },
          {
            "time": 513.4375,
            "midi": 57,
            "name": "A3",
            "velocity": 0.3858267716535433,
            "duration": 0.15625,
            "ticks": 841216,
            "durationTicks": 256
          },
          {
            "time": 513.59375,
            "midi": 58,
            "name": "A#3",
            "velocity": 0.3858267716535433,
            "duration": 0.15625,
            "ticks": 841472,
            "durationTicks": 256
          },
          {
            "time": 513.75,
            "midi": 50,
            "name": "D3",
            "velocity": 0.3858267716535433,
            "duration": 0.3125,
            "ticks": 841728,
            "durationTicks": 512
          },
          {
            "time": 514.0625,
            "midi": 38,
            "name": "D2",
            "velocity": 0.3858267716535433,
            "duration": 0.3125,
            "ticks": 842240,
            "durationTicks": 512
          },
          {
            "time": 514.375,
            "midi": 50,
            "name": "D3",
            "velocity": 0.3858267716535433,
            "duration": 0.15625,
            "ticks": 842752,
            "durationTicks": 256
          },
          {
            "time": 514.53125,
            "midi": 52,
            "name": "E3",
            "velocity": 0.3858267716535433,
            "duration": 0.15625,
            "ticks": 843008,
            "durationTicks": 256
          },
          {
            "time": 514.6875,
            "midi": 53,
            "name": "F3",
            "velocity": 0.3858267716535433,
            "duration": 0.15625,
            "ticks": 843264,
            "durationTicks": 256
          },
          {
            "time": 514.84375,
            "midi": 55,
            "name": "G3",
            "velocity": 0.3858267716535433,
            "duration": 0.15625,
            "ticks": 843520,
            "durationTicks": 256
          },
          {
            "time": 515,
            "midi": 57,
            "name": "A3",
            "velocity": 0.3858267716535433,
            "duration": 0.15625,
            "ticks": 843776,
            "durationTicks": 256
          },
          {
            "time": 515.15625,
            "midi": 58,
            "name": "A#3",
            "velocity": 0.3858267716535433,
            "duration": 0.15625,
            "ticks": 844032,
            "durationTicks": 256
          },
          {
            "time": 515.3125,
            "midi": 60,
            "name": "C4",
            "velocity": 0.3858267716535433,
            "duration": 0.15625,
            "ticks": 844288,
            "durationTicks": 256
          },
          {
            "time": 515.46875,
            "midi": 62,
            "name": "D4",
            "velocity": 0.3858267716535433,
            "duration": 0.15625,
            "ticks": 844544,
            "durationTicks": 256
          },
          {
            "time": 515.625,
            "midi": 60,
            "name": "C4",
            "velocity": 0.3858267716535433,
            "duration": 0.3125,
            "ticks": 844800,
            "durationTicks": 512
          },
          {
            "time": 515.9375,
            "midi": 48,
            "name": "C3",
            "velocity": 0.3858267716535433,
            "duration": 0.3125,
            "ticks": 845312,
            "durationTicks": 512
          },
          {
            "time": 516.25,
            "midi": 48,
            "name": "C3",
            "velocity": 0.3858267716535433,
            "duration": 0.15625,
            "ticks": 845824,
            "durationTicks": 256
          },
          {
            "time": 516.40625,
            "midi": 50,
            "name": "D3",
            "velocity": 0.3858267716535433,
            "duration": 0.15625,
            "ticks": 846080,
            "durationTicks": 256
          },
          {
            "time": 516.5625,
            "midi": 52,
            "name": "E3",
            "velocity": 0.3858267716535433,
            "duration": 0.15625,
            "ticks": 846336,
            "durationTicks": 256
          },
          {
            "time": 516.71875,
            "midi": 53,
            "name": "F3",
            "velocity": 0.3858267716535433,
            "duration": 0.15625,
            "ticks": 846592,
            "durationTicks": 256
          },
          {
            "time": 516.875,
            "midi": 55,
            "name": "G3",
            "velocity": 0.3858267716535433,
            "duration": 0.15625,
            "ticks": 846848,
            "durationTicks": 256
          },
          {
            "time": 517.03125,
            "midi": 57,
            "name": "A3",
            "velocity": 0.3858267716535433,
            "duration": 0.15625,
            "ticks": 847104,
            "durationTicks": 256
          },
          {
            "time": 517.1875,
            "midi": 58,
            "name": "A#3",
            "velocity": 0.3858267716535433,
            "duration": 0.15625,
            "ticks": 847360,
            "durationTicks": 256
          },
          {
            "time": 517.34375,
            "midi": 60,
            "name": "C4",
            "velocity": 0.3858267716535433,
            "duration": 0.15625,
            "ticks": 847616,
            "durationTicks": 256
          },
          {
            "time": 517.5,
            "midi": 53,
            "name": "F3",
            "velocity": 0.3858267716535433,
            "duration": 0.3125,
            "ticks": 847872,
            "durationTicks": 512
          },
          {
            "time": 517.8125,
            "midi": 41,
            "name": "F2",
            "velocity": 0.3858267716535433,
            "duration": 0.3125,
            "ticks": 848384,
            "durationTicks": 512
          },
          {
            "time": 518.125,
            "midi": 53,
            "name": "F3",
            "velocity": 0.3858267716535433,
            "duration": 0.15625,
            "ticks": 848896,
            "durationTicks": 256
          },
          {
            "time": 518.28125,
            "midi": 55,
            "name": "G3",
            "velocity": 0.3858267716535433,
            "duration": 0.15625,
            "ticks": 849152,
            "durationTicks": 256
          },
          {
            "time": 518.4375,
            "midi": 57,
            "name": "A3",
            "velocity": 0.3858267716535433,
            "duration": 0.15625,
            "ticks": 849408,
            "durationTicks": 256
          },
          {
            "time": 518.59375,
            "midi": 58,
            "name": "A#3",
            "velocity": 0.3858267716535433,
            "duration": 0.15625,
            "ticks": 849664,
            "durationTicks": 256
          },
          {
            "time": 518.75,
            "midi": 60,
            "name": "C4",
            "velocity": 0.3858267716535433,
            "duration": 0.15625,
            "ticks": 849920,
            "durationTicks": 256
          },
          {
            "time": 518.90625,
            "midi": 62,
            "name": "D4",
            "velocity": 0.3858267716535433,
            "duration": 0.15625,
            "ticks": 850176,
            "durationTicks": 256
          },
          {
            "time": 519.0625,
            "midi": 64,
            "name": "E4",
            "velocity": 0.3858267716535433,
            "duration": 0.15625,
            "ticks": 850432,
            "durationTicks": 256
          },
          {
            "time": 519.21875,
            "midi": 65,
            "name": "F4",
            "velocity": 0.3858267716535433,
            "duration": 0.15625,
            "ticks": 850688,
            "durationTicks": 256
          },
          {
            "time": 519.375,
            "midi": 60,
            "name": "C4",
            "velocity": 0.3858267716535433,
            "duration": 0.3125,
            "ticks": 850944,
            "durationTicks": 512
          },
          {
            "time": 519.6875,
            "midi": 48,
            "name": "C3",
            "velocity": 0.3858267716535433,
            "duration": 0.3125,
            "ticks": 851456,
            "durationTicks": 512
          },
          {
            "time": 520,
            "midi": 49,
            "name": "C#3",
            "velocity": 0.3858267716535433,
            "duration": 0.15625,
            "ticks": 851968,
            "durationTicks": 256
          },
          {
            "time": 520.15625,
            "midi": 50,
            "name": "D3",
            "velocity": 0.3858267716535433,
            "duration": 0.15625,
            "ticks": 852224,
            "durationTicks": 256
          },
          {
            "time": 520.3125,
            "midi": 52,
            "name": "E3",
            "velocity": 0.3858267716535433,
            "duration": 0.15625,
            "ticks": 852480,
            "durationTicks": 256
          },
          {
            "time": 520.46875,
            "midi": 53,
            "name": "F3",
            "velocity": 0.3858267716535433,
            "duration": 0.15625,
            "ticks": 852736,
            "durationTicks": 256
          },
          {
            "time": 520.625,
            "midi": 55,
            "name": "G3",
            "velocity": 0.3858267716535433,
            "duration": 0.15625,
            "ticks": 852992,
            "durationTicks": 256
          },
          {
            "time": 520.78125,
            "midi": 57,
            "name": "A3",
            "velocity": 0.3858267716535433,
            "duration": 0.15625,
            "ticks": 853248,
            "durationTicks": 256
          },
          {
            "time": 520.9375,
            "midi": 59,
            "name": "B3",
            "velocity": 0.3858267716535433,
            "duration": 0.15625,
            "ticks": 853504,
            "durationTicks": 256
          },
          {
            "time": 521.09375,
            "midi": 61,
            "name": "C#4",
            "velocity": 0.3858267716535433,
            "duration": 0.15625,
            "ticks": 853760,
            "durationTicks": 256
          },
          {
            "time": 521.25,
            "midi": 62,
            "name": "D4",
            "velocity": 0.3858267716535433,
            "duration": 0.3125,
            "ticks": 854016,
            "durationTicks": 512
          },
          {
            "time": 521.5625,
            "midi": 50,
            "name": "D3",
            "velocity": 0.3858267716535433,
            "duration": 0.3125,
            "ticks": 854528,
            "durationTicks": 512
          },
          {
            "time": 521.875,
            "midi": 43,
            "name": "G2",
            "velocity": 0.3858267716535433,
            "duration": 0.15625,
            "ticks": 855040,
            "durationTicks": 256
          },
          {
            "time": 522.03125,
            "midi": 45,
            "name": "A2",
            "velocity": 0.3858267716535433,
            "duration": 0.15625,
            "ticks": 855296,
            "durationTicks": 256
          },
          {
            "time": 522.1875,
            "midi": 46,
            "name": "A#2",
            "velocity": 0.3858267716535433,
            "duration": 0.15625,
            "ticks": 855552,
            "durationTicks": 256
          },
          {
            "time": 522.34375,
            "midi": 48,
            "name": "C3",
            "velocity": 0.3858267716535433,
            "duration": 0.15625,
            "ticks": 855808,
            "durationTicks": 256
          },
          {
            "time": 522.5,
            "midi": 50,
            "name": "D3",
            "velocity": 0.3858267716535433,
            "duration": 0.15625,
            "ticks": 856064,
            "durationTicks": 256
          },
          {
            "time": 522.65625,
            "midi": 52,
            "name": "E3",
            "velocity": 0.3858267716535433,
            "duration": 0.15625,
            "ticks": 856320,
            "durationTicks": 256
          },
          {
            "time": 522.8125,
            "midi": 53,
            "name": "F3",
            "velocity": 0.3858267716535433,
            "duration": 0.15625,
            "ticks": 856576,
            "durationTicks": 256
          },
          {
            "time": 522.96875,
            "midi": 55,
            "name": "G3",
            "velocity": 0.3858267716535433,
            "duration": 0.15625,
            "ticks": 856832,
            "durationTicks": 256
          },
          {
            "time": 523.125,
            "midi": 45,
            "name": "A2",
            "velocity": 0.3858267716535433,
            "duration": 0.625,
            "ticks": 857088,
            "durationTicks": 1024
          },
          {
            "time": 523.75,
            "midi": 45,
            "name": "A2",
            "velocity": 0.3858267716535433,
            "duration": 0.15625,
            "ticks": 858112,
            "durationTicks": 256
          },
          {
            "time": 523.90625,
            "midi": 47,
            "name": "B2",
            "velocity": 0.3858267716535433,
            "duration": 0.15625,
            "ticks": 858368,
            "durationTicks": 256
          },
          {
            "time": 524.0625,
            "midi": 49,
            "name": "C#3",
            "velocity": 0.3858267716535433,
            "duration": 0.15625,
            "ticks": 858624,
            "durationTicks": 256
          },
          {
            "time": 524.21875,
            "midi": 50,
            "name": "D3",
            "velocity": 0.3858267716535433,
            "duration": 0.15625,
            "ticks": 858880,
            "durationTicks": 256
          },
          {
            "time": 524.375,
            "midi": 52,
            "name": "E3",
            "velocity": 0.3858267716535433,
            "duration": 0.15625,
            "ticks": 859136,
            "durationTicks": 256
          },
          {
            "time": 524.53125,
            "midi": 53,
            "name": "F3",
            "velocity": 0.3858267716535433,
            "duration": 0.15625,
            "ticks": 859392,
            "durationTicks": 256
          },
          {
            "time": 524.6875,
            "midi": 55,
            "name": "G3",
            "velocity": 0.3858267716535433,
            "duration": 0.15625,
            "ticks": 859648,
            "durationTicks": 256
          },
          {
            "time": 524.84375,
            "midi": 57,
            "name": "A3",
            "velocity": 0.3858267716535433,
            "duration": 0.15625,
            "ticks": 859904,
            "durationTicks": 256
          },
          {
            "time": 525,
            "midi": 50,
            "name": "D3",
            "velocity": 0.3858267716535433,
            "duration": 0.3125,
            "ticks": 860160,
            "durationTicks": 512
          },
          {
            "time": 525.3125,
            "midi": 38,
            "name": "D2",
            "velocity": 0.3858267716535433,
            "duration": 0.3125,
            "ticks": 860672,
            "durationTicks": 512
          },
          {
            "time": 525.625,
            "midi": 50,
            "name": "D3",
            "velocity": 0.3858267716535433,
            "duration": 0.15625,
            "ticks": 861184,
            "durationTicks": 256
          },
          {
            "time": 525.78125,
            "midi": 52,
            "name": "E3",
            "velocity": 0.3858267716535433,
            "duration": 0.15625,
            "ticks": 861440,
            "durationTicks": 256
          },
          {
            "time": 525.9375,
            "midi": 53,
            "name": "F3",
            "velocity": 0.3858267716535433,
            "duration": 0.15625,
            "ticks": 861696,
            "durationTicks": 256
          },
          {
            "time": 526.09375,
            "midi": 55,
            "name": "G3",
            "velocity": 0.3858267716535433,
            "duration": 0.15625,
            "ticks": 861952,
            "durationTicks": 256
          },
          {
            "time": 526.25,
            "midi": 57,
            "name": "A3",
            "velocity": 0.3858267716535433,
            "duration": 0.15625,
            "ticks": 862208,
            "durationTicks": 256
          },
          {
            "time": 526.40625,
            "midi": 59,
            "name": "B3",
            "velocity": 0.3858267716535433,
            "duration": 0.15625,
            "ticks": 862464,
            "durationTicks": 256
          },
          {
            "time": 526.5625,
            "midi": 61,
            "name": "C#4",
            "velocity": 0.3858267716535433,
            "duration": 0.15625,
            "ticks": 862720,
            "durationTicks": 256
          },
          {
            "time": 526.71875,
            "midi": 62,
            "name": "D4",
            "velocity": 0.3858267716535433,
            "duration": 0.15625,
            "ticks": 862976,
            "durationTicks": 256
          },
          {
            "time": 526.875,
            "midi": 57,
            "name": "A3",
            "velocity": 0.3858267716535433,
            "duration": 0.3125,
            "ticks": 863232,
            "durationTicks": 512
          },
          {
            "time": 527.1875,
            "midi": 45,
            "name": "A2",
            "velocity": 0.3858267716535433,
            "duration": 0.3125,
            "ticks": 863744,
            "durationTicks": 512
          },
          {
            "time": 527.5,
            "midi": 45,
            "name": "A2",
            "velocity": 0.3858267716535433,
            "duration": 0.15625,
            "ticks": 864256,
            "durationTicks": 256
          },
          {
            "time": 527.65625,
            "midi": 47,
            "name": "B2",
            "velocity": 0.3858267716535433,
            "duration": 0.15625,
            "ticks": 864512,
            "durationTicks": 256
          },
          {
            "time": 527.8125,
            "midi": 49,
            "name": "C#3",
            "velocity": 0.3858267716535433,
            "duration": 0.15625,
            "ticks": 864768,
            "durationTicks": 256
          },
          {
            "time": 527.96875,
            "midi": 50,
            "name": "D3",
            "velocity": 0.3858267716535433,
            "duration": 0.15625,
            "ticks": 865024,
            "durationTicks": 256
          },
          {
            "time": 528.125,
            "midi": 52,
            "name": "E3",
            "velocity": 0.3858267716535433,
            "duration": 0.15625,
            "ticks": 865280,
            "durationTicks": 256
          },
          {
            "time": 528.28125,
            "midi": 53,
            "name": "F3",
            "velocity": 0.3858267716535433,
            "duration": 0.15625,
            "ticks": 865536,
            "durationTicks": 256
          },
          {
            "time": 528.4375,
            "midi": 55,
            "name": "G3",
            "velocity": 0.3858267716535433,
            "duration": 0.15625,
            "ticks": 865792,
            "durationTicks": 256
          },
          {
            "time": 528.59375,
            "midi": 57,
            "name": "A3",
            "velocity": 0.3858267716535433,
            "duration": 0.15625,
            "ticks": 866048,
            "durationTicks": 256
          },
          {
            "time": 528.75,
            "midi": 50,
            "name": "D3",
            "velocity": 0.3858267716535433,
            "duration": 0.3125,
            "ticks": 866304,
            "durationTicks": 512
          },
          {
            "time": 529.0625,
            "midi": 38,
            "name": "D2",
            "velocity": 0.3858267716535433,
            "duration": 0.3125,
            "ticks": 866816,
            "durationTicks": 512
          },
          {
            "time": 529.375,
            "midi": 50,
            "name": "D3",
            "velocity": 0.3858267716535433,
            "duration": 0.15625,
            "ticks": 867328,
            "durationTicks": 256
          },
          {
            "time": 529.53125,
            "midi": 52,
            "name": "E3",
            "velocity": 0.3858267716535433,
            "duration": 0.15625,
            "ticks": 867584,
            "durationTicks": 256
          },
          {
            "time": 529.6875,
            "midi": 53,
            "name": "F3",
            "velocity": 0.3858267716535433,
            "duration": 0.15625,
            "ticks": 867840,
            "durationTicks": 256
          },
          {
            "time": 529.84375,
            "midi": 55,
            "name": "G3",
            "velocity": 0.3858267716535433,
            "duration": 0.15625,
            "ticks": 868096,
            "durationTicks": 256
          },
          {
            "time": 530,
            "midi": 57,
            "name": "A3",
            "velocity": 0.3858267716535433,
            "duration": 0.15625,
            "ticks": 868352,
            "durationTicks": 256
          },
          {
            "time": 530.15625,
            "midi": 58,
            "name": "A#3",
            "velocity": 0.3858267716535433,
            "duration": 0.15625,
            "ticks": 868608,
            "durationTicks": 256
          },
          {
            "time": 530.3125,
            "midi": 60,
            "name": "C4",
            "velocity": 0.3858267716535433,
            "duration": 0.15625,
            "ticks": 868864,
            "durationTicks": 256
          },
          {
            "time": 530.46875,
            "midi": 62,
            "name": "D4",
            "velocity": 0.3858267716535433,
            "duration": 0.15625,
            "ticks": 869120,
            "durationTicks": 256
          },
          {
            "time": 530.625,
            "midi": 60,
            "name": "C4",
            "velocity": 0.3858267716535433,
            "duration": 0.3125,
            "ticks": 869376,
            "durationTicks": 512
          },
          {
            "time": 530.9375,
            "midi": 48,
            "name": "C3",
            "velocity": 0.3858267716535433,
            "duration": 0.3125,
            "ticks": 869888,
            "durationTicks": 512
          },
          {
            "time": 531.25,
            "midi": 48,
            "name": "C3",
            "velocity": 0.3858267716535433,
            "duration": 0.15625,
            "ticks": 870400,
            "durationTicks": 256
          },
          {
            "time": 531.40625,
            "midi": 50,
            "name": "D3",
            "velocity": 0.3858267716535433,
            "duration": 0.15625,
            "ticks": 870656,
            "durationTicks": 256
          },
          {
            "time": 531.5625,
            "midi": 52,
            "name": "E3",
            "velocity": 0.3858267716535433,
            "duration": 0.15625,
            "ticks": 870912,
            "durationTicks": 256
          },
          {
            "time": 531.71875,
            "midi": 53,
            "name": "F3",
            "velocity": 0.3858267716535433,
            "duration": 0.15625,
            "ticks": 871168,
            "durationTicks": 256
          },
          {
            "time": 531.875,
            "midi": 55,
            "name": "G3",
            "velocity": 0.3858267716535433,
            "duration": 0.15625,
            "ticks": 871424,
            "durationTicks": 256
          },
          {
            "time": 532.03125,
            "midi": 57,
            "name": "A3",
            "velocity": 0.3858267716535433,
            "duration": 0.15625,
            "ticks": 871680,
            "durationTicks": 256
          },
          {
            "time": 532.1875,
            "midi": 58,
            "name": "A#3",
            "velocity": 0.3858267716535433,
            "duration": 0.15625,
            "ticks": 871936,
            "durationTicks": 256
          },
          {
            "time": 532.34375,
            "midi": 60,
            "name": "C4",
            "velocity": 0.3858267716535433,
            "duration": 0.15625,
            "ticks": 872192,
            "durationTicks": 256
          },
          {
            "time": 532.5,
            "midi": 53,
            "name": "F3",
            "velocity": 0.3858267716535433,
            "duration": 0.3125,
            "ticks": 872448,
            "durationTicks": 512
          },
          {
            "time": 532.8125,
            "midi": 41,
            "name": "F2",
            "velocity": 0.3858267716535433,
            "duration": 0.3125,
            "ticks": 872960,
            "durationTicks": 512
          },
          {
            "time": 533.125,
            "midi": 53,
            "name": "F3",
            "velocity": 0.3858267716535433,
            "duration": 0.15625,
            "ticks": 873472,
            "durationTicks": 256
          },
          {
            "time": 533.28125,
            "midi": 55,
            "name": "G3",
            "velocity": 0.3858267716535433,
            "duration": 0.15625,
            "ticks": 873728,
            "durationTicks": 256
          },
          {
            "time": 533.4375,
            "midi": 57,
            "name": "A3",
            "velocity": 0.3858267716535433,
            "duration": 0.15625,
            "ticks": 873984,
            "durationTicks": 256
          },
          {
            "time": 533.59375,
            "midi": 58,
            "name": "A#3",
            "velocity": 0.3858267716535433,
            "duration": 0.15625,
            "ticks": 874240,
            "durationTicks": 256
          },
          {
            "time": 533.75,
            "midi": 60,
            "name": "C4",
            "velocity": 0.3858267716535433,
            "duration": 0.15625,
            "ticks": 874496,
            "durationTicks": 256
          },
          {
            "time": 533.90625,
            "midi": 62,
            "name": "D4",
            "velocity": 0.3858267716535433,
            "duration": 0.15625,
            "ticks": 874752,
            "durationTicks": 256
          },
          {
            "time": 534.0625,
            "midi": 64,
            "name": "E4",
            "velocity": 0.3858267716535433,
            "duration": 0.15625,
            "ticks": 875008,
            "durationTicks": 256
          },
          {
            "time": 534.21875,
            "midi": 65,
            "name": "F4",
            "velocity": 0.3858267716535433,
            "duration": 0.15625,
            "ticks": 875264,
            "durationTicks": 256
          },
          {
            "time": 534.375,
            "midi": 60,
            "name": "C4",
            "velocity": 0.3858267716535433,
            "duration": 0.3125,
            "ticks": 875520,
            "durationTicks": 512
          },
          {
            "time": 534.6875,
            "midi": 48,
            "name": "C3",
            "velocity": 0.3858267716535433,
            "duration": 0.3125,
            "ticks": 876032,
            "durationTicks": 512
          },
          {
            "time": 535,
            "midi": 49,
            "name": "C#3",
            "velocity": 0.3858267716535433,
            "duration": 0.15625,
            "ticks": 876544,
            "durationTicks": 256
          },
          {
            "time": 535.15625,
            "midi": 50,
            "name": "D3",
            "velocity": 0.3858267716535433,
            "duration": 0.15625,
            "ticks": 876800,
            "durationTicks": 256
          },
          {
            "time": 535.3125,
            "midi": 52,
            "name": "E3",
            "velocity": 0.3858267716535433,
            "duration": 0.15625,
            "ticks": 877056,
            "durationTicks": 256
          },
          {
            "time": 535.46875,
            "midi": 53,
            "name": "F3",
            "velocity": 0.3858267716535433,
            "duration": 0.15625,
            "ticks": 877312,
            "durationTicks": 256
          },
          {
            "time": 535.625,
            "midi": 55,
            "name": "G3",
            "velocity": 0.3858267716535433,
            "duration": 0.15625,
            "ticks": 877568,
            "durationTicks": 256
          },
          {
            "time": 535.78125,
            "midi": 57,
            "name": "A3",
            "velocity": 0.3858267716535433,
            "duration": 0.15625,
            "ticks": 877824,
            "durationTicks": 256
          },
          {
            "time": 535.9375,
            "midi": 59,
            "name": "B3",
            "velocity": 0.3858267716535433,
            "duration": 0.15625,
            "ticks": 878080,
            "durationTicks": 256
          },
          {
            "time": 536.09375,
            "midi": 61,
            "name": "C#4",
            "velocity": 0.3858267716535433,
            "duration": 0.15625,
            "ticks": 878336,
            "durationTicks": 256
          },
          {
            "time": 536.25,
            "midi": 50,
            "name": "D3",
            "velocity": 0.3858267716535433,
            "duration": 0.3125,
            "ticks": 878592,
            "durationTicks": 512
          },
          {
            "time": 536.5625,
            "midi": 43,
            "name": "G2",
            "velocity": 0.3858267716535433,
            "duration": 0.3125,
            "ticks": 879104,
            "durationTicks": 512
          },
          {
            "time": 536.875,
            "midi": 45,
            "name": "A2",
            "velocity": 0.3858267716535433,
            "duration": 0.15625,
            "ticks": 879616,
            "durationTicks": 256
          },
          {
            "time": 537.03125,
            "midi": 47,
            "name": "B2",
            "velocity": 0.3858267716535433,
            "duration": 0.15625,
            "ticks": 879872,
            "durationTicks": 256
          },
          {
            "time": 537.1875,
            "midi": 49,
            "name": "C#3",
            "velocity": 0.3858267716535433,
            "duration": 0.15625,
            "ticks": 880128,
            "durationTicks": 256
          },
          {
            "time": 537.34375,
            "midi": 50,
            "name": "D3",
            "velocity": 0.3858267716535433,
            "duration": 0.15625,
            "ticks": 880384,
            "durationTicks": 256
          },
          {
            "time": 537.5,
            "midi": 52,
            "name": "E3",
            "velocity": 0.3858267716535433,
            "duration": 0.15625,
            "ticks": 880640,
            "durationTicks": 256
          },
          {
            "time": 537.65625,
            "midi": 53,
            "name": "F3",
            "velocity": 0.3858267716535433,
            "duration": 0.15625,
            "ticks": 880896,
            "durationTicks": 256
          },
          {
            "time": 537.8125,
            "midi": 55,
            "name": "G3",
            "velocity": 0.3858267716535433,
            "duration": 0.15625,
            "ticks": 881152,
            "durationTicks": 256
          },
          {
            "time": 537.96875,
            "midi": 57,
            "name": "A3",
            "velocity": 0.3858267716535433,
            "duration": 0.15625,
            "ticks": 881408,
            "durationTicks": 256
          },
          {
            "time": 538.125,
            "midi": 50,
            "name": "D3",
            "velocity": 0.3858267716535433,
            "duration": 1.875,
            "ticks": 881664,
            "durationTicks": 3072
          },
          {
            "time": 540,
            "midi": 62,
            "name": "D4",
            "velocity": 0.3858267716535433,
            "duration": 0.625,
            "ticks": 884736,
            "durationTicks": 1024
          },
          {
            "time": 540.625,
            "midi": 50,
            "name": "D3",
            "velocity": 0.3858267716535433,
            "duration": 0.3125,
            "ticks": 885760,
            "durationTicks": 512
          },
          {
            "time": 540.9375,
            "midi": 53,
            "name": "F3",
            "velocity": 0.3858267716535433,
            "duration": 0.3125,
            "ticks": 886272,
            "durationTicks": 512
          },
          {
            "time": 541.25,
            "midi": 52,
            "name": "E3",
            "velocity": 0.3858267716535433,
            "duration": 0.3125,
            "ticks": 886784,
            "durationTicks": 512
          },
          {
            "time": 541.5625,
            "midi": 50,
            "name": "D3",
            "velocity": 0.3858267716535433,
            "duration": 0.3125,
            "ticks": 887296,
            "durationTicks": 512
          },
          {
            "time": 541.875,
            "midi": 57,
            "name": "A3",
            "velocity": 0.3858267716535433,
            "duration": 0.625,
            "ticks": 887808,
            "durationTicks": 1024
          },
          {
            "time": 542.5,
            "midi": 45,
            "name": "A2",
            "velocity": 0.3858267716535433,
            "duration": 0.3125,
            "ticks": 888832,
            "durationTicks": 512
          },
          {
            "time": 542.8125,
            "midi": 49,
            "name": "C#3",
            "velocity": 0.3858267716535433,
            "duration": 0.3125,
            "ticks": 889344,
            "durationTicks": 512
          },
          {
            "time": 543.125,
            "midi": 47,
            "name": "B2",
            "velocity": 0.3858267716535433,
            "duration": 0.3125,
            "ticks": 889856,
            "durationTicks": 512
          },
          {
            "time": 543.4375,
            "midi": 45,
            "name": "A2",
            "velocity": 0.3858267716535433,
            "duration": 0.3125,
            "ticks": 890368,
            "durationTicks": 512
          },
          {
            "time": 543.75,
            "midi": 50,
            "name": "D3",
            "velocity": 0.3858267716535433,
            "duration": 0.625,
            "ticks": 890880,
            "durationTicks": 1024
          },
          {
            "time": 544.375,
            "midi": 62,
            "name": "D4",
            "velocity": 0.3858267716535433,
            "duration": 0.3125,
            "ticks": 891904,
            "durationTicks": 512
          },
          {
            "time": 544.6875,
            "midi": 65,
            "name": "F4",
            "velocity": 0.3858267716535433,
            "duration": 0.3125,
            "ticks": 892416,
            "durationTicks": 512
          },
          {
            "time": 545,
            "midi": 64,
            "name": "E4",
            "velocity": 0.3858267716535433,
            "duration": 0.3125,
            "ticks": 892928,
            "durationTicks": 512
          },
          {
            "time": 545.3125,
            "midi": 62,
            "name": "D4",
            "velocity": 0.3858267716535433,
            "duration": 0.3125,
            "ticks": 893440,
            "durationTicks": 512
          },
          {
            "time": 545.625,
            "midi": 60,
            "name": "C4",
            "velocity": 0.3858267716535433,
            "duration": 0.625,
            "ticks": 893952,
            "durationTicks": 1024
          },
          {
            "time": 546.25,
            "midi": 48,
            "name": "C3",
            "velocity": 0.3858267716535433,
            "duration": 0.3125,
            "ticks": 894976,
            "durationTicks": 512
          },
          {
            "time": 546.5625,
            "midi": 52,
            "name": "E3",
            "velocity": 0.3858267716535433,
            "duration": 0.3125,
            "ticks": 895488,
            "durationTicks": 512
          },
          {
            "time": 546.875,
            "midi": 50,
            "name": "D3",
            "velocity": 0.3858267716535433,
            "duration": 0.3125,
            "ticks": 896000,
            "durationTicks": 512
          },
          {
            "time": 547.1875,
            "midi": 48,
            "name": "C3",
            "velocity": 0.3858267716535433,
            "duration": 0.3125,
            "ticks": 896512,
            "durationTicks": 512
          },
          {
            "time": 547.5,
            "midi": 41,
            "name": "F2",
            "velocity": 0.3858267716535433,
            "duration": 0.625,
            "ticks": 897024,
            "durationTicks": 1024
          },
          {
            "time": 548.125,
            "midi": 53,
            "name": "F3",
            "velocity": 0.3858267716535433,
            "duration": 0.3125,
            "ticks": 898048,
            "durationTicks": 512
          },
          {
            "time": 548.4375,
            "midi": 57,
            "name": "A3",
            "velocity": 0.3858267716535433,
            "duration": 0.3125,
            "ticks": 898560,
            "durationTicks": 512
          },
          {
            "time": 548.75,
            "midi": 55,
            "name": "G3",
            "velocity": 0.3858267716535433,
            "duration": 0.3125,
            "ticks": 899072,
            "durationTicks": 512
          },
          {
            "time": 549.0625,
            "midi": 53,
            "name": "F3",
            "velocity": 0.3858267716535433,
            "duration": 0.3125,
            "ticks": 899584,
            "durationTicks": 512
          },
          {
            "time": 549.375,
            "midi": 48,
            "name": "C3",
            "velocity": 0.3858267716535433,
            "duration": 0.625,
            "ticks": 900096,
            "durationTicks": 1024
          },
          {
            "time": 550,
            "midi": 49,
            "name": "C#3",
            "velocity": 0.3858267716535433,
            "duration": 0.3125,
            "ticks": 901120,
            "durationTicks": 512
          },
          {
            "time": 550.3125,
            "midi": 52,
            "name": "E3",
            "velocity": 0.3858267716535433,
            "duration": 0.3125,
            "ticks": 901632,
            "durationTicks": 512
          },
          {
            "time": 550.625,
            "midi": 50,
            "name": "D3",
            "velocity": 0.3858267716535433,
            "duration": 0.3125,
            "ticks": 902144,
            "durationTicks": 512
          },
          {
            "time": 550.9375,
            "midi": 49,
            "name": "C#3",
            "velocity": 0.3858267716535433,
            "duration": 0.3125,
            "ticks": 902656,
            "durationTicks": 512
          },
          {
            "time": 551.25,
            "midi": 50,
            "name": "D3",
            "velocity": 0.3858267716535433,
            "duration": 0.625,
            "ticks": 903168,
            "durationTicks": 1024
          },
          {
            "time": 551.875,
            "midi": 43,
            "name": "G2",
            "velocity": 0.3858267716535433,
            "duration": 0.3125,
            "ticks": 904192,
            "durationTicks": 512
          },
          {
            "time": 552.1875,
            "midi": 46,
            "name": "A#2",
            "velocity": 0.3858267716535433,
            "duration": 0.3125,
            "ticks": 904704,
            "durationTicks": 512
          },
          {
            "time": 552.5,
            "midi": 45,
            "name": "A2",
            "velocity": 0.3858267716535433,
            "duration": 0.3125,
            "ticks": 905216,
            "durationTicks": 512
          },
          {
            "time": 552.8125,
            "midi": 43,
            "name": "G2",
            "velocity": 0.3858267716535433,
            "duration": 0.3125,
            "ticks": 905728,
            "durationTicks": 512
          },
          {
            "time": 553.125,
            "midi": 45,
            "name": "A2",
            "velocity": 0.3858267716535433,
            "duration": 0.625,
            "ticks": 906240,
            "durationTicks": 1024
          },
          {
            "time": 553.75,
            "midi": 57,
            "name": "A3",
            "velocity": 0.3858267716535433,
            "duration": 0.3125,
            "ticks": 907264,
            "durationTicks": 512
          },
          {
            "time": 554.0625,
            "midi": 61,
            "name": "C#4",
            "velocity": 0.3858267716535433,
            "duration": 0.3125,
            "ticks": 907776,
            "durationTicks": 512
          },
          {
            "time": 554.375,
            "midi": 59,
            "name": "B3",
            "velocity": 0.3858267716535433,
            "duration": 0.3125,
            "ticks": 908288,
            "durationTicks": 512
          },
          {
            "time": 554.6875,
            "midi": 57,
            "name": "A3",
            "velocity": 0.3858267716535433,
            "duration": 0.3125,
            "ticks": 908800,
            "durationTicks": 512
          },
          {
            "time": 555,
            "midi": 62,
            "name": "D4",
            "velocity": 0.3858267716535433,
            "duration": 0.625,
            "ticks": 909312,
            "durationTicks": 1024
          },
          {
            "time": 555.625,
            "midi": 50,
            "name": "D3",
            "velocity": 0.3858267716535433,
            "duration": 0.3125,
            "ticks": 910336,
            "durationTicks": 512
          },
          {
            "time": 555.9375,
            "midi": 53,
            "name": "F3",
            "velocity": 0.3858267716535433,
            "duration": 0.3125,
            "ticks": 910848,
            "durationTicks": 512
          },
          {
            "time": 556.25,
            "midi": 52,
            "name": "E3",
            "velocity": 0.3858267716535433,
            "duration": 0.3125,
            "ticks": 911360,
            "durationTicks": 512
          },
          {
            "time": 556.5625,
            "midi": 50,
            "name": "D3",
            "velocity": 0.3858267716535433,
            "duration": 0.3125,
            "ticks": 911872,
            "durationTicks": 512
          },
          {
            "time": 556.875,
            "midi": 57,
            "name": "A3",
            "velocity": 0.3858267716535433,
            "duration": 0.625,
            "ticks": 912384,
            "durationTicks": 1024
          },
          {
            "time": 557.5,
            "midi": 45,
            "name": "A2",
            "velocity": 0.3858267716535433,
            "duration": 0.3125,
            "ticks": 913408,
            "durationTicks": 512
          },
          {
            "time": 557.8125,
            "midi": 49,
            "name": "C#3",
            "velocity": 0.3858267716535433,
            "duration": 0.3125,
            "ticks": 913920,
            "durationTicks": 512
          },
          {
            "time": 558.125,
            "midi": 47,
            "name": "B2",
            "velocity": 0.3858267716535433,
            "duration": 0.3125,
            "ticks": 914432,
            "durationTicks": 512
          },
          {
            "time": 558.4375,
            "midi": 45,
            "name": "A2",
            "velocity": 0.3858267716535433,
            "duration": 0.3125,
            "ticks": 914944,
            "durationTicks": 512
          },
          {
            "time": 558.75,
            "midi": 50,
            "name": "D3",
            "velocity": 0.3858267716535433,
            "duration": 0.625,
            "ticks": 915456,
            "durationTicks": 1024
          },
          {
            "time": 559.375,
            "midi": 62,
            "name": "D4",
            "velocity": 0.3858267716535433,
            "duration": 0.3125,
            "ticks": 916480,
            "durationTicks": 512
          },
          {
            "time": 559.6875,
            "midi": 65,
            "name": "F4",
            "velocity": 0.3858267716535433,
            "duration": 0.3125,
            "ticks": 916992,
            "durationTicks": 512
          },
          {
            "time": 560,
            "midi": 64,
            "name": "E4",
            "velocity": 0.3858267716535433,
            "duration": 0.3125,
            "ticks": 917504,
            "durationTicks": 512
          },
          {
            "time": 560.3125,
            "midi": 62,
            "name": "D4",
            "velocity": 0.3858267716535433,
            "duration": 0.3125,
            "ticks": 918016,
            "durationTicks": 512
          },
          {
            "time": 560.625,
            "midi": 60,
            "name": "C4",
            "velocity": 0.3858267716535433,
            "duration": 0.625,
            "ticks": 918528,
            "durationTicks": 1024
          },
          {
            "time": 561.25,
            "midi": 48,
            "name": "C3",
            "velocity": 0.3858267716535433,
            "duration": 0.3125,
            "ticks": 919552,
            "durationTicks": 512
          },
          {
            "time": 561.5625,
            "midi": 52,
            "name": "E3",
            "velocity": 0.3858267716535433,
            "duration": 0.3125,
            "ticks": 920064,
            "durationTicks": 512
          },
          {
            "time": 561.875,
            "midi": 50,
            "name": "D3",
            "velocity": 0.3858267716535433,
            "duration": 0.3125,
            "ticks": 920576,
            "durationTicks": 512
          },
          {
            "time": 562.1875,
            "midi": 48,
            "name": "C3",
            "velocity": 0.3858267716535433,
            "duration": 0.3125,
            "ticks": 921088,
            "durationTicks": 512
          },
          {
            "time": 562.5,
            "midi": 41,
            "name": "F2",
            "velocity": 0.3858267716535433,
            "duration": 0.625,
            "ticks": 921600,
            "durationTicks": 1024
          },
          {
            "time": 563.125,
            "midi": 53,
            "name": "F3",
            "velocity": 0.3858267716535433,
            "duration": 0.3125,
            "ticks": 922624,
            "durationTicks": 512
          },
          {
            "time": 563.4375,
            "midi": 57,
            "name": "A3",
            "velocity": 0.3858267716535433,
            "duration": 0.3125,
            "ticks": 923136,
            "durationTicks": 512
          },
          {
            "time": 563.75,
            "midi": 55,
            "name": "G3",
            "velocity": 0.3858267716535433,
            "duration": 0.3125,
            "ticks": 923648,
            "durationTicks": 512
          },
          {
            "time": 564.0625,
            "midi": 53,
            "name": "F3",
            "velocity": 0.3858267716535433,
            "duration": 0.3125,
            "ticks": 924160,
            "durationTicks": 512
          },
          {
            "time": 564.375,
            "midi": 48,
            "name": "C3",
            "velocity": 0.3858267716535433,
            "duration": 0.625,
            "ticks": 924672,
            "durationTicks": 1024
          },
          {
            "time": 565,
            "midi": 49,
            "name": "C#3",
            "velocity": 0.3858267716535433,
            "duration": 0.3125,
            "ticks": 925696,
            "durationTicks": 512
          },
          {
            "time": 565.3125,
            "midi": 52,
            "name": "E3",
            "velocity": 0.3858267716535433,
            "duration": 0.3125,
            "ticks": 926208,
            "durationTicks": 512
          },
          {
            "time": 565.625,
            "midi": 50,
            "name": "D3",
            "velocity": 0.3858267716535433,
            "duration": 0.3125,
            "ticks": 926720,
            "durationTicks": 512
          },
          {
            "time": 565.9375,
            "midi": 49,
            "name": "C#3",
            "velocity": 0.3858267716535433,
            "duration": 0.3125,
            "ticks": 927232,
            "durationTicks": 512
          },
          {
            "time": 566.25,
            "midi": 50,
            "name": "D3",
            "velocity": 0.3858267716535433,
            "duration": 0.625,
            "ticks": 927744,
            "durationTicks": 1024
          },
          {
            "time": 566.875,
            "midi": 57,
            "name": "A3",
            "velocity": 0.3858267716535433,
            "duration": 0.625,
            "ticks": 928768,
            "durationTicks": 1024
          },
          {
            "time": 567.5,
            "midi": 45,
            "name": "A2",
            "velocity": 0.3858267716535433,
            "duration": 0.625,
            "ticks": 929792,
            "durationTicks": 1024
          },
          {
            "time": 568.125,
            "midi": 50,
            "name": "D3",
            "velocity": 0.3858267716535433,
            "duration": 1.875,
            "ticks": 930816,
            "durationTicks": 3072
          },
          {
            "time": 570,
            "midi": 50,
            "name": "D3",
            "velocity": 0.3858267716535433,
            "duration": 0.3125,
            "ticks": 933888,
            "durationTicks": 512
          },
          {
            "time": 570.3125,
            "midi": 50,
            "name": "D3",
            "velocity": 0.3858267716535433,
            "duration": 0.3125,
            "ticks": 934400,
            "durationTicks": 512
          },
          {
            "time": 570.625,
            "midi": 50,
            "name": "D3",
            "velocity": 0.3858267716535433,
            "duration": 0.3125,
            "ticks": 934912,
            "durationTicks": 512
          },
          {
            "time": 570.9375,
            "midi": 50,
            "name": "D3",
            "velocity": 0.3858267716535433,
            "duration": 0.3125,
            "ticks": 935424,
            "durationTicks": 512
          },
          {
            "time": 571.25,
            "midi": 50,
            "name": "D3",
            "velocity": 0.3858267716535433,
            "duration": 0.3125,
            "ticks": 935936,
            "durationTicks": 512
          },
          {
            "time": 571.5625,
            "midi": 50,
            "name": "D3",
            "velocity": 0.3858267716535433,
            "duration": 0.3125,
            "ticks": 936448,
            "durationTicks": 512
          },
          {
            "time": 571.875,
            "midi": 57,
            "name": "A3",
            "velocity": 0.3858267716535433,
            "duration": 0.3125,
            "ticks": 936960,
            "durationTicks": 512
          },
          {
            "time": 572.1875,
            "midi": 57,
            "name": "A3",
            "velocity": 0.3858267716535433,
            "duration": 0.3125,
            "ticks": 937472,
            "durationTicks": 512
          },
          {
            "time": 572.5,
            "midi": 57,
            "name": "A3",
            "velocity": 0.3858267716535433,
            "duration": 0.3125,
            "ticks": 937984,
            "durationTicks": 512
          },
          {
            "time": 572.8125,
            "midi": 57,
            "name": "A3",
            "velocity": 0.3858267716535433,
            "duration": 0.3125,
            "ticks": 938496,
            "durationTicks": 512
          },
          {
            "time": 573.125,
            "midi": 57,
            "name": "A3",
            "velocity": 0.3858267716535433,
            "duration": 0.3125,
            "ticks": 939008,
            "durationTicks": 512
          },
          {
            "time": 573.4375,
            "midi": 57,
            "name": "A3",
            "velocity": 0.3858267716535433,
            "duration": 0.3125,
            "ticks": 939520,
            "durationTicks": 512
          },
          {
            "time": 573.75,
            "midi": 50,
            "name": "D3",
            "velocity": 0.3858267716535433,
            "duration": 0.3125,
            "ticks": 940032,
            "durationTicks": 512
          },
          {
            "time": 574.0625,
            "midi": 50,
            "name": "D3",
            "velocity": 0.3858267716535433,
            "duration": 0.3125,
            "ticks": 940544,
            "durationTicks": 512
          },
          {
            "time": 574.375,
            "midi": 50,
            "name": "D3",
            "velocity": 0.3858267716535433,
            "duration": 0.3125,
            "ticks": 941056,
            "durationTicks": 512
          },
          {
            "time": 574.6875,
            "midi": 50,
            "name": "D3",
            "velocity": 0.3858267716535433,
            "duration": 0.3125,
            "ticks": 941568,
            "durationTicks": 512
          },
          {
            "time": 575,
            "midi": 50,
            "name": "D3",
            "velocity": 0.3858267716535433,
            "duration": 0.3125,
            "ticks": 942080,
            "durationTicks": 512
          },
          {
            "time": 575.3125,
            "midi": 50,
            "name": "D3",
            "velocity": 0.3858267716535433,
            "duration": 0.3125,
            "ticks": 942592,
            "durationTicks": 512
          },
          {
            "time": 575.625,
            "midi": 48,
            "name": "C3",
            "velocity": 0.3858267716535433,
            "duration": 0.3125,
            "ticks": 943104,
            "durationTicks": 512
          },
          {
            "time": 575.9375,
            "midi": 48,
            "name": "C3",
            "velocity": 0.3858267716535433,
            "duration": 0.3125,
            "ticks": 943616,
            "durationTicks": 512
          },
          {
            "time": 576.25,
            "midi": 48,
            "name": "C3",
            "velocity": 0.3858267716535433,
            "duration": 0.3125,
            "ticks": 944128,
            "durationTicks": 512
          },
          {
            "time": 576.5625,
            "midi": 48,
            "name": "C3",
            "velocity": 0.3858267716535433,
            "duration": 0.3125,
            "ticks": 944640,
            "durationTicks": 512
          },
          {
            "time": 576.875,
            "midi": 48,
            "name": "C3",
            "velocity": 0.3858267716535433,
            "duration": 0.3125,
            "ticks": 945152,
            "durationTicks": 512
          },
          {
            "time": 577.1875,
            "midi": 48,
            "name": "C3",
            "velocity": 0.3858267716535433,
            "duration": 0.3125,
            "ticks": 945664,
            "durationTicks": 512
          },
          {
            "time": 577.5,
            "midi": 53,
            "name": "F3",
            "velocity": 0.3858267716535433,
            "duration": 0.3125,
            "ticks": 946176,
            "durationTicks": 512
          },
          {
            "time": 577.8125,
            "midi": 53,
            "name": "F3",
            "velocity": 0.3858267716535433,
            "duration": 0.3125,
            "ticks": 946688,
            "durationTicks": 512
          },
          {
            "time": 578.125,
            "midi": 53,
            "name": "F3",
            "velocity": 0.3858267716535433,
            "duration": 0.3125,
            "ticks": 947200,
            "durationTicks": 512
          },
          {
            "time": 578.4375,
            "midi": 53,
            "name": "F3",
            "velocity": 0.3858267716535433,
            "duration": 0.3125,
            "ticks": 947712,
            "durationTicks": 512
          },
          {
            "time": 578.75,
            "midi": 53,
            "name": "F3",
            "velocity": 0.3858267716535433,
            "duration": 0.3125,
            "ticks": 948224,
            "durationTicks": 512
          },
          {
            "time": 579.0625,
            "midi": 53,
            "name": "F3",
            "velocity": 0.3858267716535433,
            "duration": 0.3125,
            "ticks": 948736,
            "durationTicks": 512
          },
          {
            "time": 579.375,
            "midi": 60,
            "name": "C4",
            "velocity": 0.3858267716535433,
            "duration": 0.3125,
            "ticks": 949248,
            "durationTicks": 512
          },
          {
            "time": 579.6875,
            "midi": 60,
            "name": "C4",
            "velocity": 0.3858267716535433,
            "duration": 0.3125,
            "ticks": 949760,
            "durationTicks": 512
          },
          {
            "time": 580,
            "midi": 61,
            "name": "C#4",
            "velocity": 0.3858267716535433,
            "duration": 0.3125,
            "ticks": 950272,
            "durationTicks": 512
          },
          {
            "time": 580.3125,
            "midi": 61,
            "name": "C#4",
            "velocity": 0.3858267716535433,
            "duration": 0.3125,
            "ticks": 950784,
            "durationTicks": 512
          },
          {
            "time": 580.625,
            "midi": 61,
            "name": "C#4",
            "velocity": 0.3858267716535433,
            "duration": 0.3125,
            "ticks": 951296,
            "durationTicks": 512
          },
          {
            "time": 580.9375,
            "midi": 61,
            "name": "C#4",
            "velocity": 0.3858267716535433,
            "duration": 0.3125,
            "ticks": 951808,
            "durationTicks": 512
          },
          {
            "time": 581.25,
            "midi": 62,
            "name": "D4",
            "velocity": 0.3858267716535433,
            "duration": 0.3125,
            "ticks": 952320,
            "durationTicks": 512
          },
          {
            "time": 581.5625,
            "midi": 62,
            "name": "D4",
            "velocity": 0.3858267716535433,
            "duration": 0.3125,
            "ticks": 952832,
            "durationTicks": 512
          },
          {
            "time": 581.875,
            "midi": 50,
            "name": "D3",
            "velocity": 0.3858267716535433,
            "duration": 0.3125,
            "ticks": 953344,
            "durationTicks": 512
          },
          {
            "time": 582.1875,
            "midi": 50,
            "name": "D3",
            "velocity": 0.3858267716535433,
            "duration": 0.3125,
            "ticks": 953856,
            "durationTicks": 512
          },
          {
            "time": 582.5,
            "midi": 50,
            "name": "D3",
            "velocity": 0.3858267716535433,
            "duration": 0.3125,
            "ticks": 954368,
            "durationTicks": 512
          },
          {
            "time": 582.8125,
            "midi": 50,
            "name": "D3",
            "velocity": 0.3858267716535433,
            "duration": 0.3125,
            "ticks": 954880,
            "durationTicks": 512
          },
          {
            "time": 583.125,
            "midi": 57,
            "name": "A3",
            "velocity": 0.3858267716535433,
            "duration": 0.3125,
            "ticks": 955392,
            "durationTicks": 512
          },
          {
            "time": 583.4375,
            "midi": 57,
            "name": "A3",
            "velocity": 0.3858267716535433,
            "duration": 0.3125,
            "ticks": 955904,
            "durationTicks": 512
          },
          {
            "time": 583.75,
            "midi": 57,
            "name": "A3",
            "velocity": 0.3858267716535433,
            "duration": 0.3125,
            "ticks": 956416,
            "durationTicks": 512
          },
          {
            "time": 584.0625,
            "midi": 57,
            "name": "A3",
            "velocity": 0.3858267716535433,
            "duration": 0.3125,
            "ticks": 956928,
            "durationTicks": 512
          },
          {
            "time": 584.375,
            "midi": 57,
            "name": "A3",
            "velocity": 0.3858267716535433,
            "duration": 0.3125,
            "ticks": 957440,
            "durationTicks": 512
          },
          {
            "time": 584.6875,
            "midi": 57,
            "name": "A3",
            "velocity": 0.3858267716535433,
            "duration": 0.3125,
            "ticks": 957952,
            "durationTicks": 512
          },
          {
            "time": 585,
            "midi": 50,
            "name": "D3",
            "velocity": 0.3858267716535433,
            "duration": 0.3125,
            "ticks": 958464,
            "durationTicks": 512
          },
          {
            "time": 585.3125,
            "midi": 50,
            "name": "D3",
            "velocity": 0.3858267716535433,
            "duration": 0.3125,
            "ticks": 958976,
            "durationTicks": 512
          },
          {
            "time": 585.625,
            "midi": 50,
            "name": "D3",
            "velocity": 0.3858267716535433,
            "duration": 0.3125,
            "ticks": 959488,
            "durationTicks": 512
          },
          {
            "time": 585.9375,
            "midi": 50,
            "name": "D3",
            "velocity": 0.3858267716535433,
            "duration": 0.3125,
            "ticks": 960000,
            "durationTicks": 512
          },
          {
            "time": 586.25,
            "midi": 50,
            "name": "D3",
            "velocity": 0.3858267716535433,
            "duration": 0.3125,
            "ticks": 960512,
            "durationTicks": 512
          },
          {
            "time": 586.5625,
            "midi": 50,
            "name": "D3",
            "velocity": 0.3858267716535433,
            "duration": 0.3125,
            "ticks": 961024,
            "durationTicks": 512
          },
          {
            "time": 586.875,
            "midi": 57,
            "name": "A3",
            "velocity": 0.3858267716535433,
            "duration": 0.3125,
            "ticks": 961536,
            "durationTicks": 512
          },
          {
            "time": 587.1875,
            "midi": 57,
            "name": "A3",
            "velocity": 0.3858267716535433,
            "duration": 0.3125,
            "ticks": 962048,
            "durationTicks": 512
          },
          {
            "time": 587.5,
            "midi": 57,
            "name": "A3",
            "velocity": 0.3858267716535433,
            "duration": 0.3125,
            "ticks": 962560,
            "durationTicks": 512
          },
          {
            "time": 587.8125,
            "midi": 57,
            "name": "A3",
            "velocity": 0.3858267716535433,
            "duration": 0.3125,
            "ticks": 963072,
            "durationTicks": 512
          },
          {
            "time": 588.125,
            "midi": 57,
            "name": "A3",
            "velocity": 0.3858267716535433,
            "duration": 0.3125,
            "ticks": 963584,
            "durationTicks": 512
          },
          {
            "time": 588.4375,
            "midi": 57,
            "name": "A3",
            "velocity": 0.3858267716535433,
            "duration": 0.3125,
            "ticks": 964096,
            "durationTicks": 512
          },
          {
            "time": 588.75,
            "midi": 50,
            "name": "D3",
            "velocity": 0.3858267716535433,
            "duration": 0.3125,
            "ticks": 964608,
            "durationTicks": 512
          },
          {
            "time": 589.0625,
            "midi": 50,
            "name": "D3",
            "velocity": 0.3858267716535433,
            "duration": 0.3125,
            "ticks": 965120,
            "durationTicks": 512
          },
          {
            "time": 589.375,
            "midi": 50,
            "name": "D3",
            "velocity": 0.3858267716535433,
            "duration": 0.3125,
            "ticks": 965632,
            "durationTicks": 512
          },
          {
            "time": 589.6875,
            "midi": 50,
            "name": "D3",
            "velocity": 0.3858267716535433,
            "duration": 0.3125,
            "ticks": 966144,
            "durationTicks": 512
          },
          {
            "time": 590,
            "midi": 50,
            "name": "D3",
            "velocity": 0.3858267716535433,
            "duration": 0.3125,
            "ticks": 966656,
            "durationTicks": 512
          },
          {
            "time": 590.3125,
            "midi": 50,
            "name": "D3",
            "velocity": 0.3858267716535433,
            "duration": 0.3125,
            "ticks": 967168,
            "durationTicks": 512
          },
          {
            "time": 590.625,
            "midi": 48,
            "name": "C3",
            "velocity": 0.3858267716535433,
            "duration": 0.3125,
            "ticks": 967680,
            "durationTicks": 512
          },
          {
            "time": 590.9375,
            "midi": 48,
            "name": "C3",
            "velocity": 0.3858267716535433,
            "duration": 0.3125,
            "ticks": 968192,
            "durationTicks": 512
          },
          {
            "time": 591.25,
            "midi": 48,
            "name": "C3",
            "velocity": 0.3858267716535433,
            "duration": 0.3125,
            "ticks": 968704,
            "durationTicks": 512
          },
          {
            "time": 591.5625,
            "midi": 48,
            "name": "C3",
            "velocity": 0.3858267716535433,
            "duration": 0.3125,
            "ticks": 969216,
            "durationTicks": 512
          },
          {
            "time": 591.875,
            "midi": 48,
            "name": "C3",
            "velocity": 0.3858267716535433,
            "duration": 0.3125,
            "ticks": 969728,
            "durationTicks": 512
          },
          {
            "time": 592.1875,
            "midi": 48,
            "name": "C3",
            "velocity": 0.3858267716535433,
            "duration": 0.3125,
            "ticks": 970240,
            "durationTicks": 512
          },
          {
            "time": 592.5,
            "midi": 53,
            "name": "F3",
            "velocity": 0.3858267716535433,
            "duration": 0.3125,
            "ticks": 970752,
            "durationTicks": 512
          },
          {
            "time": 592.8125,
            "midi": 53,
            "name": "F3",
            "velocity": 0.3858267716535433,
            "duration": 0.3125,
            "ticks": 971264,
            "durationTicks": 512
          },
          {
            "time": 593.125,
            "midi": 53,
            "name": "F3",
            "velocity": 0.3858267716535433,
            "duration": 0.3125,
            "ticks": 971776,
            "durationTicks": 512
          },
          {
            "time": 593.4375,
            "midi": 53,
            "name": "F3",
            "velocity": 0.3858267716535433,
            "duration": 0.3125,
            "ticks": 972288,
            "durationTicks": 512
          },
          {
            "time": 593.75,
            "midi": 53,
            "name": "F3",
            "velocity": 0.3858267716535433,
            "duration": 0.3125,
            "ticks": 972800,
            "durationTicks": 512
          },
          {
            "time": 594.0625,
            "midi": 53,
            "name": "F3",
            "velocity": 0.3858267716535433,
            "duration": 0.3125,
            "ticks": 973312,
            "durationTicks": 512
          },
          {
            "time": 594.375,
            "midi": 60,
            "name": "C4",
            "velocity": 0.3858267716535433,
            "duration": 0.3125,
            "ticks": 973824,
            "durationTicks": 512
          },
          {
            "time": 594.6875,
            "midi": 60,
            "name": "C4",
            "velocity": 0.3858267716535433,
            "duration": 0.3125,
            "ticks": 974336,
            "durationTicks": 512
          },
          {
            "time": 595,
            "midi": 61,
            "name": "C#4",
            "velocity": 0.3858267716535433,
            "duration": 0.3125,
            "ticks": 974848,
            "durationTicks": 512
          },
          {
            "time": 595.3125,
            "midi": 61,
            "name": "C#4",
            "velocity": 0.3858267716535433,
            "duration": 0.3125,
            "ticks": 975360,
            "durationTicks": 512
          },
          {
            "time": 595.625,
            "midi": 61,
            "name": "C#4",
            "velocity": 0.3858267716535433,
            "duration": 0.3125,
            "ticks": 975872,
            "durationTicks": 512
          },
          {
            "time": 595.9375,
            "midi": 61,
            "name": "C#4",
            "velocity": 0.3858267716535433,
            "duration": 0.3125,
            "ticks": 976384,
            "durationTicks": 512
          },
          {
            "time": 596.25,
            "midi": 62,
            "name": "D4",
            "velocity": 0.3858267716535433,
            "duration": 0.3125,
            "ticks": 976896,
            "durationTicks": 512
          },
          {
            "time": 596.5625,
            "midi": 50,
            "name": "D3",
            "velocity": 0.3858267716535433,
            "duration": 0.3125,
            "ticks": 977408,
            "durationTicks": 512
          },
          {
            "time": 596.875,
            "midi": 55,
            "name": "G3",
            "velocity": 0.3858267716535433,
            "duration": 0.3125,
            "ticks": 977920,
            "durationTicks": 512
          },
          {
            "time": 597.1875,
            "midi": 55,
            "name": "G3",
            "velocity": 0.3858267716535433,
            "duration": 0.3125,
            "ticks": 978432,
            "durationTicks": 512
          },
          {
            "time": 597.5,
            "midi": 57,
            "name": "A3",
            "velocity": 0.3858267716535433,
            "duration": 0.3125,
            "ticks": 978944,
            "durationTicks": 512
          },
          {
            "time": 597.8125,
            "midi": 57,
            "name": "A3",
            "velocity": 0.3858267716535433,
            "duration": 0.3125,
            "ticks": 979456,
            "durationTicks": 512
          },
          {
            "time": 598.125,
            "midi": 50,
            "name": "D3",
            "velocity": 0.3858267716535433,
            "duration": 1.875,
            "ticks": 979968,
            "durationTicks": 3072
          },
          {
            "time": 600,
            "midi": 50,
            "name": "D3",
            "velocity": 0.3858267716535433,
            "duration": 0.15625,
            "ticks": 983040,
            "durationTicks": 256
          },
          {
            "time": 600.15625,
            "midi": 62,
            "name": "D4",
            "velocity": 0.3858267716535433,
            "duration": 0.15625,
            "ticks": 983296,
            "durationTicks": 256
          },
          {
            "time": 600.3125,
            "midi": 62,
            "name": "D4",
            "velocity": 0.3858267716535433,
            "duration": 0.15625,
            "ticks": 983552,
            "durationTicks": 256
          },
          {
            "time": 600.46875,
            "midi": 50,
            "name": "D3",
            "velocity": 0.3858267716535433,
            "duration": 0.15625,
            "ticks": 983808,
            "durationTicks": 256
          },
          {
            "time": 600.625,
            "midi": 50,
            "name": "D3",
            "velocity": 0.3858267716535433,
            "duration": 0.15625,
            "ticks": 984064,
            "durationTicks": 256
          },
          {
            "time": 600.78125,
            "midi": 62,
            "name": "D4",
            "velocity": 0.3858267716535433,
            "duration": 0.15625,
            "ticks": 984320,
            "durationTicks": 256
          },
          {
            "time": 600.9375,
            "midi": 62,
            "name": "D4",
            "velocity": 0.3858267716535433,
            "duration": 0.15625,
            "ticks": 984576,
            "durationTicks": 256
          },
          {
            "time": 601.09375,
            "midi": 50,
            "name": "D3",
            "velocity": 0.3858267716535433,
            "duration": 0.15625,
            "ticks": 984832,
            "durationTicks": 256
          },
          {
            "time": 601.25,
            "midi": 50,
            "name": "D3",
            "velocity": 0.3858267716535433,
            "duration": 0.15625,
            "ticks": 985088,
            "durationTicks": 256
          },
          {
            "time": 601.40625,
            "midi": 62,
            "name": "D4",
            "velocity": 0.3858267716535433,
            "duration": 0.15625,
            "ticks": 985344,
            "durationTicks": 256
          },
          {
            "time": 601.5625,
            "midi": 62,
            "name": "D4",
            "velocity": 0.3858267716535433,
            "duration": 0.15625,
            "ticks": 985600,
            "durationTicks": 256
          },
          {
            "time": 601.71875,
            "midi": 50,
            "name": "D3",
            "velocity": 0.3858267716535433,
            "duration": 0.15625,
            "ticks": 985856,
            "durationTicks": 256
          },
          {
            "time": 601.875,
            "midi": 45,
            "name": "A2",
            "velocity": 0.3858267716535433,
            "duration": 0.625,
            "ticks": 986112,
            "durationTicks": 1024
          },
          {
            "time": 602.5,
            "midi": 57,
            "name": "A3",
            "velocity": 0.3858267716535433,
            "duration": 0.625,
            "ticks": 987136,
            "durationTicks": 1024
          },
          {
            "time": 603.125,
            "midi": 45,
            "name": "A2",
            "velocity": 0.3858267716535433,
            "duration": 0.625,
            "ticks": 988160,
            "durationTicks": 1024
          },
          {
            "time": 603.75,
            "midi": 50,
            "name": "D3",
            "velocity": 0.3858267716535433,
            "duration": 0.15625,
            "ticks": 989184,
            "durationTicks": 256
          },
          {
            "time": 603.90625,
            "midi": 62,
            "name": "D4",
            "velocity": 0.3858267716535433,
            "duration": 0.15625,
            "ticks": 989440,
            "durationTicks": 256
          },
          {
            "time": 604.0625,
            "midi": 62,
            "name": "D4",
            "velocity": 0.3858267716535433,
            "duration": 0.15625,
            "ticks": 989696,
            "durationTicks": 256
          },
          {
            "time": 604.21875,
            "midi": 50,
            "name": "D3",
            "velocity": 0.3858267716535433,
            "duration": 0.15625,
            "ticks": 989952,
            "durationTicks": 256
          },
          {
            "time": 604.375,
            "midi": 50,
            "name": "D3",
            "velocity": 0.3858267716535433,
            "duration": 0.15625,
            "ticks": 990208,
            "durationTicks": 256
          },
          {
            "time": 604.53125,
            "midi": 62,
            "name": "D4",
            "velocity": 0.3858267716535433,
            "duration": 0.15625,
            "ticks": 990464,
            "durationTicks": 256
          },
          {
            "time": 604.6875,
            "midi": 62,
            "name": "D4",
            "velocity": 0.3858267716535433,
            "duration": 0.15625,
            "ticks": 990720,
            "durationTicks": 256
          },
          {
            "time": 604.84375,
            "midi": 50,
            "name": "D3",
            "velocity": 0.3858267716535433,
            "duration": 0.15625,
            "ticks": 990976,
            "durationTicks": 256
          },
          {
            "time": 605,
            "midi": 50,
            "name": "D3",
            "velocity": 0.3858267716535433,
            "duration": 0.15625,
            "ticks": 991232,
            "durationTicks": 256
          },
          {
            "time": 605.15625,
            "midi": 62,
            "name": "D4",
            "velocity": 0.3858267716535433,
            "duration": 0.15625,
            "ticks": 991488,
            "durationTicks": 256
          },
          {
            "time": 605.3125,
            "midi": 62,
            "name": "D4",
            "velocity": 0.3858267716535433,
            "duration": 0.15625,
            "ticks": 991744,
            "durationTicks": 256
          },
          {
            "time": 605.46875,
            "midi": 50,
            "name": "D3",
            "velocity": 0.3858267716535433,
            "duration": 0.15625,
            "ticks": 992000,
            "durationTicks": 256
          },
          {
            "time": 605.625,
            "midi": 48,
            "name": "C3",
            "velocity": 0.3858267716535433,
            "duration": 0.625,
            "ticks": 992256,
            "durationTicks": 1024
          },
          {
            "time": 606.25,
            "midi": 60,
            "name": "C4",
            "velocity": 0.3858267716535433,
            "duration": 0.625,
            "ticks": 993280,
            "durationTicks": 1024
          },
          {
            "time": 606.875,
            "midi": 48,
            "name": "C3",
            "velocity": 0.3858267716535433,
            "duration": 0.625,
            "ticks": 994304,
            "durationTicks": 1024
          },
          {
            "time": 607.5,
            "midi": 53,
            "name": "F3",
            "velocity": 0.3858267716535433,
            "duration": 0.15625,
            "ticks": 995328,
            "durationTicks": 256
          },
          {
            "time": 607.65625,
            "midi": 57,
            "name": "A3",
            "velocity": 0.3858267716535433,
            "duration": 0.15625,
            "ticks": 995584,
            "durationTicks": 256
          },
          {
            "time": 607.8125,
            "midi": 57,
            "name": "A3",
            "velocity": 0.3858267716535433,
            "duration": 0.15625,
            "ticks": 995840,
            "durationTicks": 256
          },
          {
            "time": 607.96875,
            "midi": 53,
            "name": "F3",
            "velocity": 0.3858267716535433,
            "duration": 0.15625,
            "ticks": 996096,
            "durationTicks": 256
          },
          {
            "time": 608.125,
            "midi": 53,
            "name": "F3",
            "velocity": 0.3858267716535433,
            "duration": 0.15625,
            "ticks": 996352,
            "durationTicks": 256
          },
          {
            "time": 608.28125,
            "midi": 57,
            "name": "A3",
            "velocity": 0.3858267716535433,
            "duration": 0.15625,
            "ticks": 996608,
            "durationTicks": 256
          },
          {
            "time": 608.4375,
            "midi": 57,
            "name": "A3",
            "velocity": 0.3858267716535433,
            "duration": 0.15625,
            "ticks": 996864,
            "durationTicks": 256
          },
          {
            "time": 608.59375,
            "midi": 53,
            "name": "F3",
            "velocity": 0.3858267716535433,
            "duration": 0.15625,
            "ticks": 997120,
            "durationTicks": 256
          },
          {
            "time": 608.75,
            "midi": 53,
            "name": "F3",
            "velocity": 0.3858267716535433,
            "duration": 0.15625,
            "ticks": 997376,
            "durationTicks": 256
          },
          {
            "time": 608.90625,
            "midi": 57,
            "name": "A3",
            "velocity": 0.3858267716535433,
            "duration": 0.15625,
            "ticks": 997632,
            "durationTicks": 256
          },
          {
            "time": 609.0625,
            "midi": 57,
            "name": "A3",
            "velocity": 0.3858267716535433,
            "duration": 0.15625,
            "ticks": 997888,
            "durationTicks": 256
          },
          {
            "time": 609.21875,
            "midi": 53,
            "name": "F3",
            "velocity": 0.3858267716535433,
            "duration": 0.15625,
            "ticks": 998144,
            "durationTicks": 256
          },
          {
            "time": 609.375,
            "midi": 48,
            "name": "C3",
            "velocity": 0.3858267716535433,
            "duration": 0.625,
            "ticks": 998400,
            "durationTicks": 1024
          },
          {
            "time": 610,
            "midi": 49,
            "name": "C#3",
            "velocity": 0.3858267716535433,
            "duration": 0.9375,
            "ticks": 999424,
            "durationTicks": 1536
          },
          {
            "time": 610.9375,
            "midi": 49,
            "name": "C#3",
            "velocity": 0.3858267716535433,
            "duration": 0.3125,
            "ticks": 1000960,
            "durationTicks": 512
          },
          {
            "time": 611.25,
            "midi": 50,
            "name": "D3",
            "velocity": 0.3858267716535433,
            "duration": 0.15625,
            "ticks": 1001472,
            "durationTicks": 256
          },
          {
            "time": 611.40625,
            "midi": 62,
            "name": "D4",
            "velocity": 0.3858267716535433,
            "duration": 0.15625,
            "ticks": 1001728,
            "durationTicks": 256
          },
          {
            "time": 611.5625,
            "midi": 62,
            "name": "D4",
            "velocity": 0.3858267716535433,
            "duration": 0.15625,
            "ticks": 1001984,
            "durationTicks": 256
          },
          {
            "time": 611.71875,
            "midi": 50,
            "name": "D3",
            "velocity": 0.3858267716535433,
            "duration": 0.15625,
            "ticks": 1002240,
            "durationTicks": 256
          },
          {
            "time": 611.875,
            "midi": 50,
            "name": "D3",
            "velocity": 0.3858267716535433,
            "duration": 0.15625,
            "ticks": 1002496,
            "durationTicks": 256
          },
          {
            "time": 612.03125,
            "midi": 62,
            "name": "D4",
            "velocity": 0.3858267716535433,
            "duration": 0.15625,
            "ticks": 1002752,
            "durationTicks": 256
          },
          {
            "time": 612.1875,
            "midi": 62,
            "name": "D4",
            "velocity": 0.3858267716535433,
            "duration": 0.15625,
            "ticks": 1003008,
            "durationTicks": 256
          },
          {
            "time": 612.34375,
            "midi": 50,
            "name": "D3",
            "velocity": 0.3858267716535433,
            "duration": 0.15625,
            "ticks": 1003264,
            "durationTicks": 256
          },
          {
            "time": 612.5,
            "midi": 50,
            "name": "D3",
            "velocity": 0.3858267716535433,
            "duration": 0.15625,
            "ticks": 1003520,
            "durationTicks": 256
          },
          {
            "time": 612.65625,
            "midi": 62,
            "name": "D4",
            "velocity": 0.3858267716535433,
            "duration": 0.15625,
            "ticks": 1003776,
            "durationTicks": 256
          },
          {
            "time": 612.8125,
            "midi": 62,
            "name": "D4",
            "velocity": 0.3858267716535433,
            "duration": 0.15625,
            "ticks": 1004032,
            "durationTicks": 256
          },
          {
            "time": 612.96875,
            "midi": 50,
            "name": "D3",
            "velocity": 0.3858267716535433,
            "duration": 0.15625,
            "ticks": 1004288,
            "durationTicks": 256
          },
          {
            "time": 613.125,
            "midi": 45,
            "name": "A2",
            "velocity": 0.3858267716535433,
            "duration": 0.625,
            "ticks": 1004544,
            "durationTicks": 1024
          },
          {
            "time": 613.75,
            "midi": 57,
            "name": "A3",
            "velocity": 0.3858267716535433,
            "duration": 0.625,
            "ticks": 1005568,
            "durationTicks": 1024
          },
          {
            "time": 614.375,
            "midi": 45,
            "name": "A2",
            "velocity": 0.3858267716535433,
            "duration": 0.625,
            "ticks": 1006592,
            "durationTicks": 1024
          },
          {
            "time": 615,
            "midi": 50,
            "name": "D3",
            "velocity": 0.3858267716535433,
            "duration": 0.15625,
            "ticks": 1007616,
            "durationTicks": 256
          },
          {
            "time": 615.15625,
            "midi": 62,
            "name": "D4",
            "velocity": 0.3858267716535433,
            "duration": 0.15625,
            "ticks": 1007872,
            "durationTicks": 256
          },
          {
            "time": 615.3125,
            "midi": 62,
            "name": "D4",
            "velocity": 0.3858267716535433,
            "duration": 0.15625,
            "ticks": 1008128,
            "durationTicks": 256
          },
          {
            "time": 615.46875,
            "midi": 50,
            "name": "D3",
            "velocity": 0.3858267716535433,
            "duration": 0.15625,
            "ticks": 1008384,
            "durationTicks": 256
          },
          {
            "time": 615.625,
            "midi": 50,
            "name": "D3",
            "velocity": 0.3858267716535433,
            "duration": 0.15625,
            "ticks": 1008640,
            "durationTicks": 256
          },
          {
            "time": 615.78125,
            "midi": 62,
            "name": "D4",
            "velocity": 0.3858267716535433,
            "duration": 0.15625,
            "ticks": 1008896,
            "durationTicks": 256
          },
          {
            "time": 615.9375,
            "midi": 62,
            "name": "D4",
            "velocity": 0.3858267716535433,
            "duration": 0.15625,
            "ticks": 1009152,
            "durationTicks": 256
          },
          {
            "time": 616.09375,
            "midi": 50,
            "name": "D3",
            "velocity": 0.3858267716535433,
            "duration": 0.15625,
            "ticks": 1009408,
            "durationTicks": 256
          },
          {
            "time": 616.25,
            "midi": 50,
            "name": "D3",
            "velocity": 0.3858267716535433,
            "duration": 0.15625,
            "ticks": 1009664,
            "durationTicks": 256
          },
          {
            "time": 616.40625,
            "midi": 62,
            "name": "D4",
            "velocity": 0.3858267716535433,
            "duration": 0.15625,
            "ticks": 1009920,
            "durationTicks": 256
          },
          {
            "time": 616.5625,
            "midi": 62,
            "name": "D4",
            "velocity": 0.3858267716535433,
            "duration": 0.15625,
            "ticks": 1010176,
            "durationTicks": 256
          },
          {
            "time": 616.71875,
            "midi": 50,
            "name": "D3",
            "velocity": 0.3858267716535433,
            "duration": 0.15625,
            "ticks": 1010432,
            "durationTicks": 256
          },
          {
            "time": 616.875,
            "midi": 45,
            "name": "A2",
            "velocity": 0.3858267716535433,
            "duration": 0.625,
            "ticks": 1010688,
            "durationTicks": 1024
          },
          {
            "time": 617.5,
            "midi": 57,
            "name": "A3",
            "velocity": 0.3858267716535433,
            "duration": 0.625,
            "ticks": 1011712,
            "durationTicks": 1024
          },
          {
            "time": 618.125,
            "midi": 45,
            "name": "A2",
            "velocity": 0.3858267716535433,
            "duration": 0.625,
            "ticks": 1012736,
            "durationTicks": 1024
          },
          {
            "time": 618.75,
            "midi": 50,
            "name": "D3",
            "velocity": 0.3858267716535433,
            "duration": 0.15625,
            "ticks": 1013760,
            "durationTicks": 256
          },
          {
            "time": 618.90625,
            "midi": 62,
            "name": "D4",
            "velocity": 0.3858267716535433,
            "duration": 0.15625,
            "ticks": 1014016,
            "durationTicks": 256
          },
          {
            "time": 619.0625,
            "midi": 62,
            "name": "D4",
            "velocity": 0.3858267716535433,
            "duration": 0.15625,
            "ticks": 1014272,
            "durationTicks": 256
          },
          {
            "time": 619.21875,
            "midi": 50,
            "name": "D3",
            "velocity": 0.3858267716535433,
            "duration": 0.15625,
            "ticks": 1014528,
            "durationTicks": 256
          },
          {
            "time": 619.375,
            "midi": 50,
            "name": "D3",
            "velocity": 0.3858267716535433,
            "duration": 0.15625,
            "ticks": 1014784,
            "durationTicks": 256
          },
          {
            "time": 619.53125,
            "midi": 62,
            "name": "D4",
            "velocity": 0.3858267716535433,
            "duration": 0.15625,
            "ticks": 1015040,
            "durationTicks": 256
          },
          {
            "time": 619.6875,
            "midi": 62,
            "name": "D4",
            "velocity": 0.3858267716535433,
            "duration": 0.15625,
            "ticks": 1015296,
            "durationTicks": 256
          },
          {
            "time": 619.84375,
            "midi": 50,
            "name": "D3",
            "velocity": 0.3858267716535433,
            "duration": 0.15625,
            "ticks": 1015552,
            "durationTicks": 256
          },
          {
            "time": 620,
            "midi": 50,
            "name": "D3",
            "velocity": 0.3858267716535433,
            "duration": 0.15625,
            "ticks": 1015808,
            "durationTicks": 256
          },
          {
            "time": 620.15625,
            "midi": 62,
            "name": "D4",
            "velocity": 0.3858267716535433,
            "duration": 0.15625,
            "ticks": 1016064,
            "durationTicks": 256
          },
          {
            "time": 620.3125,
            "midi": 62,
            "name": "D4",
            "velocity": 0.3858267716535433,
            "duration": 0.15625,
            "ticks": 1016320,
            "durationTicks": 256
          },
          {
            "time": 620.46875,
            "midi": 50,
            "name": "D3",
            "velocity": 0.3858267716535433,
            "duration": 0.15625,
            "ticks": 1016576,
            "durationTicks": 256
          },
          {
            "time": 620.625,
            "midi": 48,
            "name": "C3",
            "velocity": 0.3858267716535433,
            "duration": 0.625,
            "ticks": 1016832,
            "durationTicks": 1024
          },
          {
            "time": 621.25,
            "midi": 60,
            "name": "C4",
            "velocity": 0.3858267716535433,
            "duration": 0.625,
            "ticks": 1017856,
            "durationTicks": 1024
          },
          {
            "time": 621.875,
            "midi": 48,
            "name": "C3",
            "velocity": 0.3858267716535433,
            "duration": 0.625,
            "ticks": 1018880,
            "durationTicks": 1024
          },
          {
            "time": 622.5,
            "midi": 53,
            "name": "F3",
            "velocity": 0.3858267716535433,
            "duration": 0.15625,
            "ticks": 1019904,
            "durationTicks": 256
          },
          {
            "time": 622.65625,
            "midi": 57,
            "name": "A3",
            "velocity": 0.3858267716535433,
            "duration": 0.15625,
            "ticks": 1020160,
            "durationTicks": 256
          },
          {
            "time": 622.8125,
            "midi": 57,
            "name": "A3",
            "velocity": 0.3858267716535433,
            "duration": 0.15625,
            "ticks": 1020416,
            "durationTicks": 256
          },
          {
            "time": 622.96875,
            "midi": 53,
            "name": "F3",
            "velocity": 0.3858267716535433,
            "duration": 0.15625,
            "ticks": 1020672,
            "durationTicks": 256
          },
          {
            "time": 623.125,
            "midi": 53,
            "name": "F3",
            "velocity": 0.3858267716535433,
            "duration": 0.15625,
            "ticks": 1020928,
            "durationTicks": 256
          },
          {
            "time": 623.28125,
            "midi": 57,
            "name": "A3",
            "velocity": 0.3858267716535433,
            "duration": 0.15625,
            "ticks": 1021184,
            "durationTicks": 256
          },
          {
            "time": 623.4375,
            "midi": 57,
            "name": "A3",
            "velocity": 0.3858267716535433,
            "duration": 0.15625,
            "ticks": 1021440,
            "durationTicks": 256
          },
          {
            "time": 623.59375,
            "midi": 53,
            "name": "F3",
            "velocity": 0.3858267716535433,
            "duration": 0.15625,
            "ticks": 1021696,
            "durationTicks": 256
          },
          {
            "time": 623.75,
            "midi": 53,
            "name": "F3",
            "velocity": 0.3858267716535433,
            "duration": 0.15625,
            "ticks": 1021952,
            "durationTicks": 256
          },
          {
            "time": 623.90625,
            "midi": 57,
            "name": "A3",
            "velocity": 0.3858267716535433,
            "duration": 0.15625,
            "ticks": 1022208,
            "durationTicks": 256
          },
          {
            "time": 624.0625,
            "midi": 57,
            "name": "A3",
            "velocity": 0.3858267716535433,
            "duration": 0.15625,
            "ticks": 1022464,
            "durationTicks": 256
          },
          {
            "time": 624.21875,
            "midi": 53,
            "name": "F3",
            "velocity": 0.3858267716535433,
            "duration": 0.15625,
            "ticks": 1022720,
            "durationTicks": 256
          },
          {
            "time": 624.375,
            "midi": 48,
            "name": "C3",
            "velocity": 0.3858267716535433,
            "duration": 0.625,
            "ticks": 1022976,
            "durationTicks": 1024
          },
          {
            "time": 625,
            "midi": 49,
            "name": "C#3",
            "velocity": 0.3858267716535433,
            "duration": 0.9375,
            "ticks": 1024000,
            "durationTicks": 1536
          },
          {
            "time": 625.9375,
            "midi": 49,
            "name": "C#3",
            "velocity": 0.3858267716535433,
            "duration": 0.3125,
            "ticks": 1025536,
            "durationTicks": 512
          },
          {
            "time": 626.25,
            "midi": 50,
            "name": "D3",
            "velocity": 0.3858267716535433,
            "duration": 0.625,
            "ticks": 1026048,
            "durationTicks": 1024
          },
          {
            "time": 626.875,
            "midi": 57,
            "name": "A3",
            "velocity": 0.3858267716535433,
            "duration": 0.625,
            "ticks": 1027072,
            "durationTicks": 1024
          },
          {
            "time": 627.5,
            "midi": 45,
            "name": "A2",
            "velocity": 0.3858267716535433,
            "duration": 0.625,
            "ticks": 1028096,
            "durationTicks": 1024
          },
          {
            "time": 628.125,
            "midi": 50,
            "name": "D3",
            "velocity": 0.3858267716535433,
            "duration": 1.875,
            "ticks": 1029120,
            "durationTicks": 3072
          },
          {
            "time": 630,
            "midi": 50,
            "name": "D3",
            "velocity": 0.3858267716535433,
            "duration": 0.15625,
            "ticks": 1032192,
            "durationTicks": 256
          },
          {
            "time": 630.15625,
            "midi": 62,
            "name": "D4",
            "velocity": 0.3858267716535433,
            "duration": 0.15625,
            "ticks": 1032448,
            "durationTicks": 256
          },
          {
            "time": 630.3125,
            "midi": 62,
            "name": "D4",
            "velocity": 0.3858267716535433,
            "duration": 0.15625,
            "ticks": 1032704,
            "durationTicks": 256
          },
          {
            "time": 630.46875,
            "midi": 50,
            "name": "D3",
            "velocity": 0.3858267716535433,
            "duration": 0.15625,
            "ticks": 1032960,
            "durationTicks": 256
          },
          {
            "time": 630.625,
            "midi": 50,
            "name": "D3",
            "velocity": 0.3858267716535433,
            "duration": 0.15625,
            "ticks": 1033216,
            "durationTicks": 256
          },
          {
            "time": 630.78125,
            "midi": 62,
            "name": "D4",
            "velocity": 0.3858267716535433,
            "duration": 0.15625,
            "ticks": 1033472,
            "durationTicks": 256
          },
          {
            "time": 630.9375,
            "midi": 62,
            "name": "D4",
            "velocity": 0.3858267716535433,
            "duration": 0.15625,
            "ticks": 1033728,
            "durationTicks": 256
          },
          {
            "time": 631.09375,
            "midi": 50,
            "name": "D3",
            "velocity": 0.3858267716535433,
            "duration": 0.15625,
            "ticks": 1033984,
            "durationTicks": 256
          },
          {
            "time": 631.25,
            "midi": 50,
            "name": "D3",
            "velocity": 0.3858267716535433,
            "duration": 0.15625,
            "ticks": 1034240,
            "durationTicks": 256
          },
          {
            "time": 631.40625,
            "midi": 62,
            "name": "D4",
            "velocity": 0.3858267716535433,
            "duration": 0.15625,
            "ticks": 1034496,
            "durationTicks": 256
          },
          {
            "time": 631.5625,
            "midi": 62,
            "name": "D4",
            "velocity": 0.3858267716535433,
            "duration": 0.15625,
            "ticks": 1034752,
            "durationTicks": 256
          },
          {
            "time": 631.71875,
            "midi": 50,
            "name": "D3",
            "velocity": 0.3858267716535433,
            "duration": 0.15625,
            "ticks": 1035008,
            "durationTicks": 256
          },
          {
            "time": 631.875,
            "midi": 43,
            "name": "G2",
            "velocity": 0.3858267716535433,
            "duration": 0.15625,
            "ticks": 1035264,
            "durationTicks": 256
          },
          {
            "time": 632.03125,
            "midi": 55,
            "name": "G3",
            "velocity": 0.3858267716535433,
            "duration": 0.15625,
            "ticks": 1035520,
            "durationTicks": 256
          },
          {
            "time": 632.1875,
            "midi": 55,
            "name": "G3",
            "velocity": 0.3858267716535433,
            "duration": 0.15625,
            "ticks": 1035776,
            "durationTicks": 256
          },
          {
            "time": 632.34375,
            "midi": 43,
            "name": "G2",
            "velocity": 0.3858267716535433,
            "duration": 0.15625,
            "ticks": 1036032,
            "durationTicks": 256
          },
          {
            "time": 632.5,
            "midi": 43,
            "name": "G2",
            "velocity": 0.3858267716535433,
            "duration": 0.15625,
            "ticks": 1036288,
            "durationTicks": 256
          },
          {
            "time": 632.65625,
            "midi": 55,
            "name": "G3",
            "velocity": 0.3858267716535433,
            "duration": 0.15625,
            "ticks": 1036544,
            "durationTicks": 256
          },
          {
            "time": 632.8125,
            "midi": 55,
            "name": "G3",
            "velocity": 0.3858267716535433,
            "duration": 0.15625,
            "ticks": 1036800,
            "durationTicks": 256
          },
          {
            "time": 632.96875,
            "midi": 43,
            "name": "G2",
            "velocity": 0.3858267716535433,
            "duration": 0.15625,
            "ticks": 1037056,
            "durationTicks": 256
          },
          {
            "time": 633.125,
            "midi": 43,
            "name": "G2",
            "velocity": 0.3858267716535433,
            "duration": 0.15625,
            "ticks": 1037312,
            "durationTicks": 256
          },
          {
            "time": 633.28125,
            "midi": 55,
            "name": "G3",
            "velocity": 0.3858267716535433,
            "duration": 0.15625,
            "ticks": 1037568,
            "durationTicks": 256
          },
          {
            "time": 633.4375,
            "midi": 55,
            "name": "G3",
            "velocity": 0.3858267716535433,
            "duration": 0.15625,
            "ticks": 1037824,
            "durationTicks": 256
          },
          {
            "time": 633.59375,
            "midi": 43,
            "name": "G2",
            "velocity": 0.3858267716535433,
            "duration": 0.15625,
            "ticks": 1038080,
            "durationTicks": 256
          },
          {
            "time": 633.75,
            "midi": 45,
            "name": "A2",
            "velocity": 0.3858267716535433,
            "duration": 0.15625,
            "ticks": 1038336,
            "durationTicks": 256
          },
          {
            "time": 633.90625,
            "midi": 57,
            "name": "A3",
            "velocity": 0.3858267716535433,
            "duration": 0.15625,
            "ticks": 1038592,
            "durationTicks": 256
          },
          {
            "time": 634.0625,
            "midi": 57,
            "name": "A3",
            "velocity": 0.3858267716535433,
            "duration": 0.15625,
            "ticks": 1038848,
            "durationTicks": 256
          },
          {
            "time": 634.21875,
            "midi": 45,
            "name": "A2",
            "velocity": 0.3858267716535433,
            "duration": 0.15625,
            "ticks": 1039104,
            "durationTicks": 256
          },
          {
            "time": 634.375,
            "midi": 45,
            "name": "A2",
            "velocity": 0.3858267716535433,
            "duration": 0.15625,
            "ticks": 1039360,
            "durationTicks": 256
          },
          {
            "time": 634.53125,
            "midi": 57,
            "name": "A3",
            "velocity": 0.3858267716535433,
            "duration": 0.15625,
            "ticks": 1039616,
            "durationTicks": 256
          },
          {
            "time": 634.6875,
            "midi": 57,
            "name": "A3",
            "velocity": 0.3858267716535433,
            "duration": 0.15625,
            "ticks": 1039872,
            "durationTicks": 256
          },
          {
            "time": 634.84375,
            "midi": 45,
            "name": "A2",
            "velocity": 0.3858267716535433,
            "duration": 0.15625,
            "ticks": 1040128,
            "durationTicks": 256
          },
          {
            "time": 635,
            "midi": 45,
            "name": "A2",
            "velocity": 0.3858267716535433,
            "duration": 0.15625,
            "ticks": 1040384,
            "durationTicks": 256
          },
          {
            "time": 635.15625,
            "midi": 57,
            "name": "A3",
            "velocity": 0.3858267716535433,
            "duration": 0.15625,
            "ticks": 1040640,
            "durationTicks": 256
          },
          {
            "time": 635.3125,
            "midi": 57,
            "name": "A3",
            "velocity": 0.3858267716535433,
            "duration": 0.15625,
            "ticks": 1040896,
            "durationTicks": 256
          },
          {
            "time": 635.46875,
            "midi": 45,
            "name": "A2",
            "velocity": 0.3858267716535433,
            "duration": 0.15625,
            "ticks": 1041152,
            "durationTicks": 256
          },
          {
            "time": 635.625,
            "midi": 50,
            "name": "D3",
            "velocity": 0.3858267716535433,
            "duration": 0.625,
            "ticks": 1041408,
            "durationTicks": 1024
          },
          {
            "time": 637.5,
            "midi": 50,
            "name": "D3",
            "velocity": 0.3858267716535433,
            "duration": 0.15625,
            "ticks": 1044480,
            "durationTicks": 256
          },
          {
            "time": 637.65625,
            "midi": 62,
            "name": "D4",
            "velocity": 0.3858267716535433,
            "duration": 0.15625,
            "ticks": 1044736,
            "durationTicks": 256
          },
          {
            "time": 637.8125,
            "midi": 62,
            "name": "D4",
            "velocity": 0.3858267716535433,
            "duration": 0.15625,
            "ticks": 1044992,
            "durationTicks": 256
          },
          {
            "time": 637.96875,
            "midi": 50,
            "name": "D3",
            "velocity": 0.3858267716535433,
            "duration": 0.15625,
            "ticks": 1045248,
            "durationTicks": 256
          },
          {
            "time": 638.125,
            "midi": 50,
            "name": "D3",
            "velocity": 0.3858267716535433,
            "duration": 0.15625,
            "ticks": 1045504,
            "durationTicks": 256
          },
          {
            "time": 638.28125,
            "midi": 62,
            "name": "D4",
            "velocity": 0.3858267716535433,
            "duration": 0.15625,
            "ticks": 1045760,
            "durationTicks": 256
          },
          {
            "time": 638.4375,
            "midi": 62,
            "name": "D4",
            "velocity": 0.3858267716535433,
            "duration": 0.15625,
            "ticks": 1046016,
            "durationTicks": 256
          },
          {
            "time": 638.59375,
            "midi": 50,
            "name": "D3",
            "velocity": 0.3858267716535433,
            "duration": 0.15625,
            "ticks": 1046272,
            "durationTicks": 256
          },
          {
            "time": 638.75,
            "midi": 50,
            "name": "D3",
            "velocity": 0.3858267716535433,
            "duration": 0.15625,
            "ticks": 1046528,
            "durationTicks": 256
          },
          {
            "time": 638.90625,
            "midi": 62,
            "name": "D4",
            "velocity": 0.3858267716535433,
            "duration": 0.15625,
            "ticks": 1046784,
            "durationTicks": 256
          },
          {
            "time": 639.0625,
            "midi": 62,
            "name": "D4",
            "velocity": 0.3858267716535433,
            "duration": 0.15625,
            "ticks": 1047040,
            "durationTicks": 256
          },
          {
            "time": 639.21875,
            "midi": 50,
            "name": "D3",
            "velocity": 0.3858267716535433,
            "duration": 0.15625,
            "ticks": 1047296,
            "durationTicks": 256
          },
          {
            "time": 639.375,
            "midi": 43,
            "name": "G2",
            "velocity": 0.3858267716535433,
            "duration": 0.15625,
            "ticks": 1047552,
            "durationTicks": 256
          },
          {
            "time": 639.53125,
            "midi": 55,
            "name": "G3",
            "velocity": 0.3858267716535433,
            "duration": 0.15625,
            "ticks": 1047808,
            "durationTicks": 256
          },
          {
            "time": 639.6875,
            "midi": 55,
            "name": "G3",
            "velocity": 0.3858267716535433,
            "duration": 0.15625,
            "ticks": 1048064,
            "durationTicks": 256
          },
          {
            "time": 639.84375,
            "midi": 43,
            "name": "G2",
            "velocity": 0.3858267716535433,
            "duration": 0.15625,
            "ticks": 1048320,
            "durationTicks": 256
          },
          {
            "time": 640,
            "midi": 43,
            "name": "G2",
            "velocity": 0.3858267716535433,
            "duration": 0.15625,
            "ticks": 1048576,
            "durationTicks": 256
          },
          {
            "time": 640.15625,
            "midi": 55,
            "name": "G3",
            "velocity": 0.3858267716535433,
            "duration": 0.15625,
            "ticks": 1048832,
            "durationTicks": 256
          },
          {
            "time": 640.3125,
            "midi": 55,
            "name": "G3",
            "velocity": 0.3858267716535433,
            "duration": 0.15625,
            "ticks": 1049088,
            "durationTicks": 256
          },
          {
            "time": 640.46875,
            "midi": 43,
            "name": "G2",
            "velocity": 0.3858267716535433,
            "duration": 0.15625,
            "ticks": 1049344,
            "durationTicks": 256
          },
          {
            "time": 640.625,
            "midi": 43,
            "name": "G2",
            "velocity": 0.3858267716535433,
            "duration": 0.15625,
            "ticks": 1049600,
            "durationTicks": 256
          },
          {
            "time": 640.78125,
            "midi": 55,
            "name": "G3",
            "velocity": 0.3858267716535433,
            "duration": 0.15625,
            "ticks": 1049856,
            "durationTicks": 256
          },
          {
            "time": 640.9375,
            "midi": 55,
            "name": "G3",
            "velocity": 0.3858267716535433,
            "duration": 0.15625,
            "ticks": 1050112,
            "durationTicks": 256
          },
          {
            "time": 641.09375,
            "midi": 43,
            "name": "G2",
            "velocity": 0.3858267716535433,
            "duration": 0.15625,
            "ticks": 1050368,
            "durationTicks": 256
          },
          {
            "time": 641.25,
            "midi": 45,
            "name": "A2",
            "velocity": 0.3858267716535433,
            "duration": 0.15625,
            "ticks": 1050624,
            "durationTicks": 256
          },
          {
            "time": 641.40625,
            "midi": 57,
            "name": "A3",
            "velocity": 0.3858267716535433,
            "duration": 0.15625,
            "ticks": 1050880,
            "durationTicks": 256
          },
          {
            "time": 641.5625,
            "midi": 57,
            "name": "A3",
            "velocity": 0.3858267716535433,
            "duration": 0.15625,
            "ticks": 1051136,
            "durationTicks": 256
          },
          {
            "time": 641.71875,
            "midi": 45,
            "name": "A2",
            "velocity": 0.3858267716535433,
            "duration": 0.15625,
            "ticks": 1051392,
            "durationTicks": 256
          },
          {
            "time": 641.875,
            "midi": 45,
            "name": "A2",
            "velocity": 0.3858267716535433,
            "duration": 0.15625,
            "ticks": 1051648,
            "durationTicks": 256
          },
          {
            "time": 642.03125,
            "midi": 57,
            "name": "A3",
            "velocity": 0.3858267716535433,
            "duration": 0.15625,
            "ticks": 1051904,
            "durationTicks": 256
          },
          {
            "time": 642.1875,
            "midi": 57,
            "name": "A3",
            "velocity": 0.3858267716535433,
            "duration": 0.15625,
            "ticks": 1052160,
            "durationTicks": 256
          },
          {
            "time": 642.34375,
            "midi": 45,
            "name": "A2",
            "velocity": 0.3858267716535433,
            "duration": 0.15625,
            "ticks": 1052416,
            "durationTicks": 256
          },
          {
            "time": 642.5,
            "midi": 45,
            "name": "A2",
            "velocity": 0.3858267716535433,
            "duration": 0.15625,
            "ticks": 1052672,
            "durationTicks": 256
          },
          {
            "time": 642.65625,
            "midi": 57,
            "name": "A3",
            "velocity": 0.3858267716535433,
            "duration": 0.15625,
            "ticks": 1052928,
            "durationTicks": 256
          },
          {
            "time": 642.8125,
            "midi": 57,
            "name": "A3",
            "velocity": 0.3858267716535433,
            "duration": 0.15625,
            "ticks": 1053184,
            "durationTicks": 256
          },
          {
            "time": 642.96875,
            "midi": 45,
            "name": "A2",
            "velocity": 0.3858267716535433,
            "duration": 0.15625,
            "ticks": 1053440,
            "durationTicks": 256
          },
          {
            "time": 643.125,
            "midi": 50,
            "name": "D3",
            "velocity": 0.3858267716535433,
            "duration": 1.875,
            "ticks": 1053696,
            "durationTicks": 3072
          }
        ],
        "controlChanges": {}
      },
      {
        "name": "",
        "channel": 0,
        "instrument": {
          "number": 0,
          "name": "acoustic grand piano",
          "family": "piano"
        },
        "notes": [],
        "controlChanges": {}
      }
    ]
  }